<svg width="256" height="256" viewBox="0 0 256 256" fill="none" xmlns="http://www.w3.org/2000/svg">
<rect width="256" height="256" fill="#00005B"/>
<path d="M104.806 155.96H64.8072L56.6691 181.288C56.5583 181.749 56.2903 182.157 55.9109 182.442C55.5315 182.726 55.0647 182.869 54.5913 182.847H34.3324C33.1773 182.847 32.7731 182.212 33.1204 180.942L67.751 81.6184C68.0971 80.5796 68.4437 79.5639 68.7897 78.2354C69.2434 75.9251 69.4752 73.5771 69.4825 71.2228C69.4589 71.0583 69.4743 70.8906 69.5268 70.7327C69.5793 70.5751 69.6681 70.4317 69.7857 70.314C69.9034 70.1964 70.0465 70.1076 70.2044 70.0551C70.362 70.0026 70.53 69.9872 70.6945 70.0108H98.2261C99.032 70.0108 99.4938 70.2992 99.6112 70.8768L138.917 181.115C139.263 182.27 138.916 182.847 137.878 182.847H115.368C114.981 182.89 114.592 182.79 114.274 182.567C113.955 182.344 113.728 182.013 113.637 181.634L104.806 155.96ZM71.0412 134.603H98.3991C97.7064 132.295 96.8982 129.698 95.9746 126.811C95.0495 123.927 94.0683 120.839 93.0311 117.547C91.9924 114.258 90.9537 110.968 89.9146 107.678C88.8759 104.388 87.9233 101.213 87.0573 98.1542C86.1919 95.0971 85.4127 92.298 84.72 89.7565H84.5467C83.5724 94.433 82.3588 99.0564 80.9104 103.609C79.2926 108.803 77.6476 114.113 75.9757 119.539C74.3012 124.966 72.6562 129.987 71.0412 134.603Z" fill="#9999FF"/>
<path d="M202.638 146.101H168.527C168.945 149.476 170.065 152.726 171.817 155.641C173.753 158.528 176.492 160.785 179.695 162.135C184.036 164.013 188.731 164.933 193.461 164.833C197.213 164.761 200.951 164.35 204.629 163.607C207.919 163.162 211.143 162.322 214.231 161.103C214.807 160.644 215.097 160.93 215.097 161.969V178.419C215.126 178.867 215.036 179.315 214.837 179.717C214.639 180.032 214.373 180.298 214.058 180.496C210.632 182.014 207.028 183.087 203.33 183.692C198.308 184.636 193.203 185.071 188.093 184.991C179.895 184.991 173.026 183.721 167.488 181.181C162.251 178.875 157.627 175.377 153.982 170.966C150.578 166.809 148.045 162.01 146.536 156.854C145.042 151.764 144.284 146.487 144.285 141.183C144.269 135.392 145.175 129.634 146.969 124.128C148.697 118.756 151.429 113.762 155.021 109.41C158.563 105.109 162.993 101.624 168.007 99.1935C173.086 96.7128 179.089 95.8225 186.015 95.8225C191.759 95.6775 197.464 96.8009 202.724 99.1124C207.147 100.999 211.041 103.94 214.066 107.678C216.903 111.339 219.071 115.471 220.472 119.886C221.837 124.139 222.538 128.578 222.55 133.045C222.55 135.586 222.464 137.894 222.29 139.971C222.118 142.049 221.973 143.549 221.857 144.473C221.813 144.855 221.629 145.207 221.342 145.462C221.054 145.717 220.683 145.858 220.299 145.858C219.606 145.858 218.423 145.945 216.75 146.118C215.075 146.291 212.997 146.407 210.516 146.464C208.032 146.524 205.408 146.101 202.638 146.101ZM168.527 130.328H191.21C193.98 130.328 196.029 130.299 197.356 130.241C198.245 130.152 199.102 129.868 199.868 129.409V128.37C199.833 127.015 199.599 125.674 199.175 124.387C198.241 121.433 196.362 118.868 193.829 117.085C191.295 115.302 188.246 114.4 185.15 114.518C182.236 114.341 179.333 115.017 176.797 116.462C174.26 117.907 172.199 120.059 170.864 122.656C169.678 125.071 168.889 127.661 168.527 130.328Z" fill="#9999FF"/>
</svg>
