<svg width="256" height="256" viewBox="0 0 256 256" fill="none" xmlns="http://www.w3.org/2000/svg">
<rect width="256" height="256" fill="#005AF0"/>
<g clip-path="url(#clip0_98_298)">
<path d="M128 28C183.233 28 228 72.775 228 128C228 183.225 183.233 228 128 228C72.775 228 28 183.225 28 128C28 72.775 72.775 28 128 28ZM120.333 188.65L162.283 118.842C162.791 118.206 163.075 117.421 163.092 116.608C163.092 115.603 162.692 114.638 161.981 113.927C161.27 113.216 160.306 112.817 159.3 112.817L135.542 112.85L143.242 67.2833L135.517 67.2583L93.7 136.983C93.7 136.983 92.8667 138.508 92.8667 139.408C92.8667 141.5 94.5667 143.2 96.6583 143.2L120.25 143.167L112.742 188.65H120.333Z" fill="white"/>
</g>
<defs>
<clipPath id="clip0_98_298">
<rect width="200" height="200" fill="white" transform="translate(28 28)"/>
</clipPath>
</defs>
</svg>
