<svg width="256" height="256" viewBox="0 0 256 256" fill="none" xmlns="http://www.w3.org/2000/svg">
<rect width="256" height="256" fill="#232932"/>
<g clip-path="url(#clip0_131_2)">
<path d="M232.413 183.645C232.345 183.216 232.279 182.791 232.208 182.366C230.391 171.412 226.849 160.815 221.713 150.97C216.685 141.323 210.196 132.511 202.476 124.845C196.839 119.24 190.589 114.288 183.844 110.081C183.885 110.015 183.918 109.943 183.959 109.876C186.077 106.218 188.202 102.564 190.321 98.9041L196.535 88.1883C198.027 85.625 199.515 83.0551 200.996 80.4918C201.746 79.1986 202.186 77.749 202.28 76.2572C202.374 74.7654 202.121 73.2721 201.539 71.8949C200.744 69.9956 199.356 68.4036 197.583 67.3554C196.331 66.6137 194.928 66.1625 193.478 66.0352C192.873 65.9838 192.263 65.9887 191.659 66.0499C190.144 66.2045 188.687 66.7159 187.408 67.5424C186.129 68.3689 185.065 69.4868 184.302 70.8043C182.814 73.3684 181.326 75.9375 179.841 78.5008L173.627 89.2174C171.508 92.8762 169.383 96.5302 167.265 100.189C167.034 100.588 166.8 100.987 166.569 101.392C166.248 101.263 165.93 101.135 165.608 101.013C153.927 96.5605 141.255 94.1251 128.008 94.1251C127.646 94.1251 127.287 94.1251 126.922 94.13C115.145 94.2473 103.829 96.2948 93.2712 99.9684C92.0539 100.393 90.8451 100.842 89.6455 101.315C89.4305 100.942 89.2091 100.568 88.9974 100.194C86.8786 96.5351 84.7539 92.8812 82.6359 89.2223L76.4212 78.5049C74.9299 75.9416 73.4418 73.3725 71.9595 70.8084C71.0426 69.2234 69.6923 67.9328 68.0673 67.088C66.4422 66.2433 64.6098 65.8795 62.7852 66.0393C61.3326 66.1625 59.9272 66.6145 58.6754 67.3611C57.3008 68.1764 56.1513 69.3215 55.331 70.6928C55.1005 71.0815 54.8946 71.4857 54.7223 71.9006C53.8237 74.0312 53.7175 76.4128 54.4229 78.6148C54.6354 79.2593 54.9102 79.8891 55.2621 80.4975C56.7528 83.061 58.24 85.6265 59.7238 88.194C61.7991 91.7668 63.8696 95.3387 65.9417 98.9106C68.0598 102.569 70.1811 106.223 72.2991 109.882C72.3155 109.913 72.3369 109.944 72.3525 109.974C68.0901 112.621 64.0212 115.568 60.1766 118.792C53.2993 124.561 47.1804 131.178 41.9656 138.484C39.1229 142.465 36.5628 146.641 34.3039 150.981C30.4037 158.458 27.4173 166.377 25.4093 174.567C24.7791 177.15 24.2453 179.755 23.8088 182.377C23.7375 182.802 23.6718 183.231 23.6062 183.656C23.3691 185.191 23.167 186.732 23 188.277H233C232.832 186.726 232.632 185.185 232.398 183.655L232.413 183.645Z" fill="#34A853"/>
<path d="M182.625 159.244C186.826 156.448 187.437 149.978 183.987 144.795C180.539 139.611 174.338 137.676 170.138 140.472C165.936 143.268 165.324 149.738 168.774 154.921C172.222 160.105 178.425 162.04 182.625 159.244ZM87.4093 154.939C90.8596 149.756 90.2476 143.287 86.046 140.49C81.8435 137.694 75.6444 139.629 72.1942 144.812C68.7464 149.997 69.3575 156.466 73.5575 159.262C77.7592 162.058 83.9615 160.123 87.4093 154.939Z" fill="#202124"/>
</g>
<defs>
<clipPath id="clip0_131_2">
<rect width="210" height="123" fill="white" transform="translate(23 66)"/>
</clipPath>
</defs>
</svg>
