<svg width="256" height="256" viewBox="0 0 256 256" fill="none" xmlns="http://www.w3.org/2000/svg">
<rect width="256" height="256" fill="#242932"/>
<path d="M222.531 61.2812L215.656 168.469L150.344 28L222.531 61.2812ZM177.219 199.875L128 228L78.7812 199.875L88.7813 175.656H167.375L177.219 199.875ZM128 81.2812L153.781 144.094H102.219L128 81.2812ZM40.3438 168.469L33.4688 61.2812L105.656 28L40.3438 168.469Z" fill="url(#paint0_linear_52_1488)"/>
<path d="M222.531 61.2812L215.656 168.469L150.344 28L222.531 61.2812ZM177.219 199.875L128 228L78.7812 199.875L88.7813 175.656H167.375L177.219 199.875ZM128 81.2812L153.781 144.094H102.219L128 81.2812ZM40.3438 168.469L33.4688 61.2812L105.656 28L40.3438 168.469Z" fill="url(#paint1_linear_52_1488)"/>
<defs>
<linearGradient id="paint0_linear_52_1488" x1="50.975" y1="158.828" x2="201.414" y2="87.3375" gradientUnits="userSpaceOnUse">
<stop stop-color="#E40035"/>
<stop offset="0.24" stop-color="#F60A48"/>
<stop offset="0.352" stop-color="#F20755"/>
<stop offset="0.494" stop-color="#DC087D"/>
<stop offset="0.745" stop-color="#9717E7"/>
<stop offset="1" stop-color="#6C00F5"/>
</linearGradient>
<linearGradient id="paint1_linear_52_1488" x1="72.8953" y1="48.2016" x2="171.347" y2="160.508" gradientUnits="userSpaceOnUse">
<stop stop-color="#FF31D9"/>
<stop offset="1" stop-color="#FF5BE1" stop-opacity="0"/>
</linearGradient>
</defs>
</svg>
