<svg width="256" height="256" viewBox="0 0 256 256" fill="none" xmlns="http://www.w3.org/2000/svg">
<rect width="256" height="256" fill="#232932"/>
<path d="M223.269 113.796L224.262 107H233L232.057 113.796H223.269Z" fill="#FF4B4B"/>
<path d="M33.2282 141.381C30.6794 141.381 28.6685 141.198 27.1955 140.831C25.7225 140.465 24.655 139.865 23.993 139.032C23.331 138.199 23 137.067 23 135.634C23 135.001 23.0497 134.368 23.149 133.735L23.2979 132.636C23.5627 130.77 24.0758 129.354 24.8371 128.388C25.5984 127.422 26.79 126.739 28.412 126.339C30.0339 125.939 32.351 125.74 35.3632 125.74H36.3562C38.7063 125.74 40.5434 125.914 41.8675 126.264C43.1915 126.614 44.1514 127.189 44.7473 127.988H44.8962L45.1445 125.64C45.2107 125.04 45.2438 124.657 45.2438 124.49C45.2438 123.691 45.0783 123.108 44.7473 122.741C44.4162 122.375 43.9115 122.133 43.2329 122.017C42.5543 121.9 41.553 121.842 40.229 121.842H39.236C37.6802 121.842 36.4969 121.917 35.6859 122.067C34.8749 122.217 34.3122 122.45 33.9978 122.766C33.6833 123.083 33.4764 123.524 33.3771 124.091L33.3275 124.24H25.0854L25.1847 123.491C25.4495 121.592 26.0536 120.159 26.9969 119.193C27.9403 118.227 29.4298 117.553 31.4655 117.169C33.5012 116.786 36.4224 116.595 40.229 116.595H41.4206C44.5652 116.595 47.0064 116.803 48.7442 117.219C50.482 117.636 51.7564 118.394 52.5673 119.493C53.3783 120.592 53.7838 122.208 53.7838 124.34C53.7838 125.207 53.6679 126.522 53.4362 128.288L51.6488 140.981H43.0591L43.506 138.283H43.4067C42.7115 139.082 42.033 139.698 41.371 140.131C40.709 140.565 39.8318 140.881 38.7394 141.081C37.6471 141.281 36.1576 141.381 34.2708 141.381H33.2282ZM37.8457 136.034C39.6332 136.034 40.9572 135.959 41.8178 135.809C42.6784 135.659 43.2743 135.409 43.6053 135.059C43.9363 134.71 44.1514 134.185 44.2507 133.485L44.35 133.085C44.3831 132.919 44.3997 132.686 44.3997 132.386C44.3997 131.919 44.2507 131.561 43.9528 131.311C43.6549 131.062 43.1005 130.887 42.2895 130.787C41.4785 130.687 40.2786 130.637 38.6898 130.637H38.1436C36.3562 130.637 35.0239 130.72 34.1467 130.887C33.2695 131.053 32.6654 131.311 32.3344 131.661C32.0034 132.011 31.7883 132.536 31.689 133.235L31.6393 133.635L31.5897 134.135C31.5897 134.635 31.7717 135.026 32.1358 135.309C32.4999 135.592 33.0875 135.784 33.8985 135.884C34.7094 135.984 35.8597 136.034 37.3492 136.034H37.8457Z" fill="white"/>
<path d="M58.1776 116.995H66.9162L66.3204 120.742H66.4197C67.1479 119.71 67.9506 118.893 68.8278 118.294C69.7049 117.694 70.7476 117.261 71.9558 116.995C73.164 116.728 74.6452 116.595 76.3996 116.595H76.8464C79.4283 116.595 81.4971 116.845 83.0528 117.344C84.6086 117.844 85.7588 118.694 86.5036 119.893C87.2484 121.092 87.6208 122.725 87.6208 124.79C87.6208 125.656 87.538 126.806 87.3725 128.238L85.5354 140.981H76.7968L78.5346 128.538C78.6339 127.838 78.6835 127.239 78.6835 126.739C78.6835 125.773 78.5015 125.048 78.1374 124.565C77.7733 124.082 77.2105 123.757 76.4492 123.591C75.6879 123.424 74.6287 123.341 73.2715 123.341H72.7254C71.0041 123.341 69.6304 123.541 68.6043 123.941C67.5782 124.34 66.8086 124.948 66.2955 125.765C65.7825 126.581 65.4266 127.672 65.228 129.038L63.5399 140.981H54.8013L58.1776 116.995Z" fill="white"/>
<path d="M88.6885 140.981L92.0648 116.994H100.803L97.4271 140.981H88.6885Z" fill="white"/>
<path d="M104.105 116.995H112.843L112.248 120.742H112.347C113.241 119.443 114.416 118.427 115.872 117.694C117.329 116.961 119.199 116.595 121.483 116.595H122.079C124.859 116.595 126.953 117.003 128.359 117.819C129.766 118.635 130.685 119.959 131.115 121.792H131.165C132.092 120.059 133.391 118.76 135.062 117.894C136.734 117.028 138.861 116.595 141.443 116.595H141.989C144.339 116.595 146.201 116.828 147.574 117.294C148.948 117.761 149.949 118.544 150.578 119.643C151.207 120.742 151.522 122.258 151.522 124.19C151.522 125.09 151.406 126.439 151.174 128.238L149.387 140.981H140.648L142.436 128.488C142.535 127.788 142.585 127.189 142.585 126.689C142.585 125.79 142.427 125.098 142.113 124.615C141.798 124.132 141.343 123.799 140.747 123.616C140.152 123.433 139.357 123.341 138.364 123.341H137.868C136.18 123.341 134.88 123.524 133.97 123.891C133.06 124.257 132.406 124.832 132.009 125.615C131.612 126.398 131.314 127.505 131.115 128.938L129.427 140.981H120.688L122.426 128.488C122.525 128.022 122.575 127.439 122.575 126.739C122.575 125.806 122.418 125.09 122.103 124.59C121.789 124.091 121.342 123.757 120.763 123.591C120.184 123.424 119.414 123.341 118.454 123.341H117.958C116.236 123.341 114.929 123.524 114.035 123.891C113.141 124.257 112.488 124.823 112.074 125.59C111.66 126.356 111.354 127.489 111.155 128.988L109.467 140.981H100.729L104.105 116.995Z" fill="white"/>
<path d="M166.725 141.381C163.448 141.381 160.858 141.148 158.954 140.681C157.051 140.215 155.636 139.365 154.709 138.133C153.782 136.9 153.319 135.134 153.319 132.836C153.319 131.536 153.402 130.354 153.567 129.288L153.666 128.338C154.13 125.007 154.924 122.508 156.05 120.842C157.175 119.177 158.739 118.052 160.742 117.469C162.744 116.886 165.533 116.595 169.108 116.595H170.647C173.726 116.595 176.2 116.811 178.07 117.244C179.94 117.677 181.339 118.46 182.266 119.593C183.192 120.726 183.656 122.308 183.656 124.34C183.656 125.306 183.59 126.206 183.457 127.039L182.961 130.787H161.909L161.809 131.586C161.71 132.086 161.66 132.502 161.66 132.836C161.66 133.702 161.867 134.343 162.281 134.759C162.695 135.176 163.29 135.451 164.068 135.584C164.846 135.717 165.98 135.784 167.469 135.784H168.413C170.035 135.784 171.268 135.692 172.112 135.509C172.956 135.326 173.552 135.043 173.899 134.66C174.247 134.276 174.47 133.735 174.57 133.035V132.936H182.762L182.663 133.685C182.365 135.751 181.678 137.333 180.602 138.432C179.526 139.532 178.02 140.298 176.084 140.731C174.148 141.164 171.591 141.381 168.413 141.381H166.725ZM175.364 126.239L175.463 125.34C175.53 125.107 175.563 124.773 175.563 124.34C175.563 123.674 175.397 123.166 175.066 122.816C174.735 122.466 174.197 122.217 173.452 122.067C172.708 121.917 171.657 121.842 170.3 121.842H169.307C167.552 121.842 166.22 121.975 165.31 122.242C164.399 122.508 163.746 122.941 163.348 123.541C162.951 124.14 162.67 125.04 162.504 126.239H175.364Z" fill="white"/>
<path d="M181.73 149.476C181.002 149.476 180.406 149.443 179.943 149.376L180.092 148.526C180.621 148.593 181.201 148.626 181.83 148.626C182.624 148.626 183.245 148.468 183.692 148.152C184.138 147.835 184.503 147.277 184.784 146.478C185.065 145.678 185.322 144.495 185.553 142.93L189.178 116.994H190.221L186.596 142.979C186.364 144.612 186.067 145.895 185.702 146.827C185.338 147.76 184.842 148.435 184.213 148.851C183.584 149.268 182.756 149.476 181.73 149.476Z" fill="white" stroke="white" stroke-width="2"/>
<path d="M204.149 141.331C200.74 141.331 198.175 141.206 196.454 140.956C194.732 140.706 193.508 140.231 192.779 139.532C192.051 138.832 191.687 137.749 191.687 136.283C191.687 135.817 191.712 135.392 191.761 135.009C191.811 134.626 191.869 134.218 191.935 133.785H192.978C192.812 134.684 192.73 135.484 192.73 136.184C192.73 137.383 193.052 138.274 193.698 138.857C194.343 139.44 195.452 139.84 197.025 140.056C198.597 140.273 200.972 140.381 204.149 140.381H205.887C208.8 140.381 211.018 140.198 212.541 139.831C214.063 139.465 215.139 138.899 215.768 138.132C216.397 137.366 216.811 136.267 217.009 134.834C217.142 134.001 217.208 133.318 217.208 132.785C217.208 131.786 216.902 131.028 216.289 130.512C215.677 129.995 214.585 129.637 213.012 129.437C211.44 129.237 209.082 129.121 205.937 129.088C202.726 129.054 200.285 128.896 198.613 128.613C196.942 128.33 195.783 127.888 195.138 127.289C194.492 126.689 194.17 125.839 194.17 124.74C194.17 124.24 194.252 123.474 194.418 122.441C194.616 120.909 195.072 119.734 195.783 118.918C196.495 118.102 197.678 117.519 199.333 117.169C200.988 116.819 203.405 116.645 206.582 116.645H207.824C210.67 116.645 212.872 116.794 214.427 117.094C215.983 117.394 217.108 117.91 217.804 118.643C218.499 119.376 218.846 120.426 218.846 121.792C218.846 122.325 218.78 123.108 218.648 124.14H217.655C217.787 123.208 217.853 122.441 217.853 121.842C217.853 120.709 217.547 119.843 216.935 119.243C216.322 118.643 215.304 118.219 213.881 117.969C212.458 117.719 210.422 117.594 207.774 117.594H206.533C203.554 117.594 201.311 117.752 199.805 118.069C198.299 118.385 197.24 118.885 196.627 119.568C196.015 120.251 195.609 121.275 195.411 122.641C195.278 123.507 195.212 124.157 195.212 124.59C195.212 125.523 195.502 126.231 196.081 126.714C196.66 127.197 197.711 127.538 199.234 127.738C200.757 127.938 203.024 128.055 206.036 128.088C209.346 128.121 211.854 128.271 213.558 128.538C215.263 128.804 216.463 129.254 217.158 129.887C217.853 130.52 218.201 131.453 218.201 132.685C218.201 133.219 218.135 133.968 218.002 134.934C217.77 136.6 217.282 137.883 216.537 138.782C215.793 139.682 214.585 140.331 212.913 140.731C211.241 141.131 208.883 141.331 205.838 141.331H204.149Z" fill="white" stroke="white" stroke-width="2"/>
</svg>
