<svg width="256" height="256" viewBox="0 0 256 256" fill="none" xmlns="http://www.w3.org/2000/svg">
<rect width="256" height="256" fill="#00005B"/>
<path d="M67.9261 135.769H95.7711C95.1131 133.467 94.2358 130.725 93.2502 127.876C92.2163 124.748 91.2294 121.606 90.2897 118.449C89.193 115.051 88.2065 111.763 87.1098 108.365C86.0141 104.966 85.0275 101.788 84.1502 98.6089C83.2729 95.5403 82.5066 92.69 81.7394 90.0591H81.5191C80.5326 94.7722 79.3267 99.4862 77.7923 104.198C76.1478 109.46 74.5042 114.941 72.7495 120.423C71.3337 125.596 69.7247 130.715 67.9261 135.769ZM102.239 157.581H61.5682L53.2373 183.341C53.017 184.327 52.1406 184.986 51.1541 184.875H30.3268C29.1199 184.875 28.7914 184.218 29.1199 182.902L64.5278 81.7286C64.8573 80.632 65.1858 79.7547 65.6245 78.3305C66.0631 76.029 66.2815 73.6165 66.2815 71.2048C66.1733 70.657 66.611 70.1092 67.1589 70H95.661C96.5374 70 96.9761 70.3276 97.0862 70.8763L136.988 183.012C137.318 184.218 136.988 184.766 135.892 184.766H112.981C112.214 184.875 111.446 184.327 111.227 183.56L102.239 157.581ZM149.375 183.232V118.119C149.375 116.147 149.375 113.845 149.265 111.434C149.156 108.912 149.156 106.611 149.047 104.419C148.937 102.226 148.827 100.143 148.718 98.8282C148.608 98.4988 148.608 98.0601 148.937 97.7326C149.265 97.5123 149.595 97.4031 150.033 97.4031H167.683C168.34 97.4031 168.887 97.5123 169.436 97.7326C169.875 97.951 170.204 98.3896 170.314 98.9374C170.532 99.5954 170.862 100.473 171.081 101.349C171.405 102.533 171.625 103.744 171.738 104.966C175.155 101.998 179.096 99.6935 183.359 98.1703C187.633 96.7451 192.127 95.978 196.622 95.978C200.131 95.978 203.638 96.5268 206.926 97.6224C214.709 100.143 220.848 106.172 223.589 113.845C225.343 118.34 226 124.258 226 131.384V183.232C226 184.327 225.561 184.766 224.575 184.766L203.967 184.986C203.089 185.095 202.323 184.548 202.212 183.67V134.124C202.103 130.836 201.446 127.547 200.131 124.587C199.143 122.395 197.609 120.423 195.635 119.107C193.334 117.682 190.812 117.025 188.181 117.134C185.33 117.134 182.482 117.572 179.85 118.669C177.438 119.655 175.245 121.08 173.273 122.833V183.341C173.273 184.438 172.835 184.875 171.847 184.875H151.02C150.252 184.986 149.595 184.438 149.485 183.67C149.265 183.451 149.265 183.341 149.375 183.232Z" fill="#9999FF"/>
</svg>
