<svg width="256" height="256" viewBox="0 0 256 256" fill="none" xmlns="http://www.w3.org/2000/svg">
<rect width="256" height="256" fill="#232932"/>
<g clip-path="url(#clip0_98_301)">
<path d="M119.588 32.1765L32.1799 119.513C27.4807 124.208 27.4807 131.792 32.1799 136.487L119.588 223.823C124.287 228.519 131.877 228.519 136.576 223.823L173.225 187.205C177.434 183 177.434 176.182 173.225 171.977C169.017 167.772 162.194 167.772 157.985 171.977L130.202 199.737C129.032 200.906 127.257 200.906 126.087 199.737L56.2859 129.993C55.1162 128.824 55.1162 127.051 56.2859 125.882L126.087 56.1378C127.257 54.9691 129.032 54.9691 130.202 56.1378L157.985 83.8983C162.194 88.1033 169.017 88.1033 173.225 83.8983C177.434 79.6932 177.434 72.8755 173.225 68.6705L136.581 32.0557C131.862 27.4619 124.269 27.4991 119.588 32.1765Z" fill="url(#paint0_linear_98_301)"/>
<path d="M119.588 32.1765L32.1799 119.513C27.4807 124.208 27.4807 131.792 32.1799 136.487L119.588 223.823C124.287 228.519 131.877 228.519 136.576 223.823L173.225 187.205C177.434 183 177.434 176.182 173.225 171.977C169.017 167.772 162.194 167.772 157.985 171.977L130.202 199.737C129.032 200.906 127.257 200.906 126.087 199.737L56.2859 129.993C55.1162 128.824 55.1162 127.051 56.2859 125.882L126.087 56.1378C129 53.6271 133.752 48.5417 140.73 47.3524C145.916 46.4684 151.585 48.4139 157.739 53.1889C153.625 49.0784 146.572 42.034 136.581 32.0557C131.862 27.4619 124.269 27.4991 119.588 32.1765Z" fill="url(#paint1_linear_98_301)"/>
<path d="M181.686 163.854C185.894 168.059 192.717 168.059 196.926 163.854L223.96 136.842C228.659 132.147 228.659 124.563 223.961 119.869L196.691 92.7178C192.472 88.5178 185.647 88.5239 181.436 92.7314C177.227 96.9364 177.227 103.754 181.436 107.959L199.854 126.362C201.024 127.531 201.024 129.304 199.854 130.473L181.686 148.627C177.477 152.832 177.477 159.649 181.686 163.854Z" fill="url(#paint2_linear_98_301)"/>
<path d="M128.519 152.018C141.553 152.018 152.12 141.46 152.12 128.437C152.12 115.413 141.553 104.856 128.519 104.856C115.485 104.856 104.919 115.413 104.919 128.437C104.919 141.46 115.485 152.018 128.519 152.018Z" fill="url(#paint3_linear_98_301)"/>
</g>
<defs>
<linearGradient id="paint0_linear_98_301" x1="9202.8" y1="28.6397" x2="17509.1" y2="5101.17" gradientUnits="userSpaceOnUse">
<stop stop-color="#4285EB"/>
<stop offset="1" stop-color="#2EC7FF"/>
</linearGradient>
<linearGradient id="paint1_linear_98_301" x1="10316.9" y1="28.639" x2="6214.37" y2="21231.7" gradientUnits="userSpaceOnUse">
<stop stop-color="#29CDFF"/>
<stop offset="0.378601" stop-color="#148EFF"/>
<stop offset="1" stop-color="#0A60FF"/>
</linearGradient>
<linearGradient id="paint2_linear_98_301" x1="3607.41" y1="-915.115" x2="-1730.64" y2="7433.17" gradientUnits="userSpaceOnUse">
<stop stop-color="#FA816E"/>
<stop offset="0.414726" stop-color="#F74A5C"/>
<stop offset="1" stop-color="#F51D2C"/>
</linearGradient>
<linearGradient id="paint3_linear_98_301" x1="3320.59" y1="-1578.37" x2="1544.46" y2="5526.42" gradientUnits="userSpaceOnUse">
<stop stop-color="#FA8E7D"/>
<stop offset="0.512635" stop-color="#F74A5C"/>
<stop offset="1" stop-color="#F51D2C"/>
</linearGradient>
<clipPath id="clip0_98_301">
<rect width="200" height="200" fill="white" transform="translate(28 28)"/>
</clipPath>
</defs>
</svg>
