<svg width="256" height="256" viewBox="0 0 256 256" fill="none" xmlns="http://www.w3.org/2000/svg">
<rect width="256" height="256" fill="#232932"/>
<path d="M128 33C119.545 53.71 114.415 67.295 105.01 87.435C110.805 93.515 117.835 100.64 129.33 108.715C116.98 103.585 108.525 98.55 102.255 93.23C90 118.5 71.285 154.125 33 223C63.115 205.615 86.485 194.88 108.24 190.795C107.29 186.805 106.72 182.435 106.815 177.875V176.925C107.29 157.64 117.36 142.82 129.235 143.865C141.11 144.815 150.325 161.25 149.85 180.63C149.755 184.24 149.375 187.755 148.71 190.985C170.18 195.165 193.265 205.805 223 223C217.11 212.17 211.885 202.48 206.945 193.265C199.25 187.185 190.795 179.205 174.075 170.75C185.57 173.6 193.835 177.02 200.295 180.915C149.47 86.39 145.385 73.85 128 33Z" fill="white"/>
</svg>
