<svg width="256" height="256" viewBox="0 0 256 256" fill="none" xmlns="http://www.w3.org/2000/svg">
<g clip-path="url(#clip0_82_181)">
<rect width="256" height="256" fill="#242932"/>
<mask id="mask0_82_181" style="mask-type:luminance" maskUnits="userSpaceOnUse" x="0" y="0" width="256" height="256">
<path d="M256 0H0V256H256V0Z" fill="white"/>
</mask>
<g mask="url(#mask0_82_181)">
<path d="M256 0H0V256H256V0Z" fill="#DF511E"/>
<path d="M261.867 -5.8667H-5.8667V261.867H261.867V-5.8667Z" fill="url(#paint0_linear_82_181)"/>
<path d="M38 180.045L48.1459 75H83.7758L93.7428 180.045H73.8688L72.3766 163.095H59.7241L58.4111 180.045H38ZM61.2163 146.323H70.7653L66.1698 92.9054H65.2148L61.2163 146.323ZM117.078 181C112.304 181 108.653 180.005 106.127 178.016C103.6 176.026 101.879 173.251 100.964 169.69C100.049 166.128 99.5914 161.961 99.5914 157.186V90.5181H121.077V154.679C121.077 158.26 121.356 160.757 121.912 162.169C122.47 163.582 123.783 164.288 125.851 164.288C128.08 164.288 129.482 163.294 130.059 161.304C130.636 159.314 130.924 156.748 130.924 153.605V90.5181H152.231V180.045H130.865V170.495C129.512 173.917 127.891 176.524 126.001 178.314C124.111 180.105 121.137 181 117.078 181ZM160.825 180.045V75H181.952V121.375L192.218 90.5181H214.359L200.931 129.432L218 180.045H195.261L181.952 137.848V180.045H160.825Z" fill="#D82F00"/>
</g>
</g>
<defs>
<linearGradient id="paint0_linear_82_181" x1="256" y1="-3.7189e-05" x2="-5.8667" y2="261.867" gradientUnits="userSpaceOnUse">
<stop offset="0.002" stop-color="#D82F00"/>
<stop offset="0.677"/>
</linearGradient>
<clipPath id="clip0_82_181">
<rect width="256" height="256" fill="white"/>
</clipPath>
</defs>
</svg>
