<svg width="256" height="256" viewBox="0 0 256 256" fill="none" xmlns="http://www.w3.org/2000/svg">
<rect width="256" height="256" fill="#232932"/>
<g clip-path="url(#clip0_64_1561)">
<path d="M82.9702 110.568C82.9702 113.09 83.2424 115.134 83.7173 116.633C84.3202 118.32 85.0461 119.96 85.889 121.54C86.2286 122.085 86.3639 122.63 86.3639 123.107C86.3639 123.788 85.9571 124.47 85.0746 125.152L80.7985 128.014C80.1875 128.423 79.5765 128.627 79.0327 128.627C78.3545 128.627 77.6754 128.286 76.9963 127.673C76.081 126.687 75.2628 125.614 74.5532 124.47C73.8741 123.312 73.195 122.016 72.4487 120.45C67.1534 126.719 60.5011 129.853 52.4916 129.854C46.7901 129.854 42.2416 128.218 38.9152 124.948C35.5896 121.676 33.8927 117.314 33.8927 111.863C33.8927 106.071 35.9291 101.369 40.0699 97.8249C44.21 94.2812 49.7089 92.5093 56.7005 92.5093C59.0084 92.5093 61.3843 92.7135 63.8956 93.0544C66.4076 93.3953 68.9869 93.9403 71.7024 94.5537V89.579C71.7024 84.3994 70.6157 80.7882 68.5113 78.6755C66.3395 76.5628 62.6736 75.5402 57.4469 75.5402C55.071 75.5402 52.6278 75.8135 50.1157 76.4269C47.6037 77.0403 45.1605 77.7895 42.7846 78.7438C41.6987 79.2205 40.8843 79.493 40.4087 79.6297C39.933 79.7664 39.5943 79.8339 39.3228 79.8339C38.3723 79.8339 37.8974 79.1522 37.8974 77.7212V74.3817C37.8974 73.2916 38.0335 72.474 38.3723 71.9973C38.7118 71.5198 39.3228 71.043 40.2733 70.5663C42.649 69.339 45.4998 68.3167 48.8257 67.4993C52.1529 66.6134 55.6828 66.205 59.416 66.205C67.4943 66.205 73.4 68.0444 77.2013 71.7248C80.9346 75.4043 82.8356 80.9924 82.8356 88.4889V110.568H82.9702ZM55.4105 120.926C57.6511 120.926 59.9589 120.518 62.4021 119.7C64.8461 118.882 67.0186 117.383 68.8508 115.338C69.9375 114.044 70.7519 112.613 71.1586 110.977C71.5662 109.342 71.8377 107.365 71.8377 105.048V102.186C69.7791 101.683 67.6941 101.297 65.5924 101.028C63.4761 100.758 61.3451 100.621 59.2118 100.618C54.6634 100.618 51.3377 101.504 49.0979 103.345C46.8581 105.185 45.7715 107.774 45.7715 111.181C45.7715 114.384 46.5859 116.769 48.2827 118.405C49.9123 120.109 52.2882 120.926 55.4105 120.926ZM109.919 128.286C108.697 128.286 107.882 128.082 107.34 127.605C106.797 127.196 106.321 126.242 105.914 124.948L89.9626 72.2698C89.5542 70.9064 89.3508 70.0204 89.3508 69.5437C89.3508 68.4536 89.8937 67.8394 90.9804 67.8394H97.6325C98.9217 67.8394 99.805 68.0444 100.28 68.5211C100.823 68.9303 101.23 69.8846 101.637 71.1789L113.041 116.293L123.631 71.1789C123.97 69.8162 124.378 68.9303 124.92 68.5211C125.464 68.1127 126.414 67.8402 127.636 67.8402H133.066C134.355 67.8402 135.239 68.0444 135.781 68.5211C136.325 68.9303 136.799 69.8846 137.071 71.1789L147.797 116.838L159.539 71.1789C159.946 69.8162 160.422 68.9303 160.897 68.5211C161.44 68.1127 162.322 67.8402 163.544 67.8402H169.857C170.943 67.8402 171.554 68.3853 171.554 69.5437C171.554 69.8846 171.486 70.2254 171.418 70.6338C171.35 71.0422 171.215 71.5881 170.943 72.3381L154.583 125.015C154.176 126.379 153.701 127.264 153.158 127.673C152.615 128.082 151.732 128.355 150.579 128.355H144.742C143.452 128.355 142.569 128.15 142.025 127.673C141.482 127.196 141.008 126.31 140.736 124.948L130.214 80.9924L119.76 124.878C119.422 126.242 119.014 127.128 118.471 127.605C117.928 128.082 116.978 128.286 115.757 128.286H109.919ZM197.146 130.126C193.616 130.126 190.086 129.717 186.692 128.9C183.298 128.082 180.651 127.195 178.886 126.174C177.799 125.56 177.052 124.879 176.782 124.266C176.518 123.664 176.379 123.015 176.374 122.357V118.882C176.374 117.451 176.917 116.769 177.936 116.769C178.351 116.771 178.764 116.84 179.158 116.974C179.564 117.111 180.175 117.383 180.854 117.655C183.252 118.715 185.755 119.514 188.321 120.04C190.98 120.582 193.686 120.856 196.399 120.858C200.675 120.858 204.002 120.109 206.31 118.609C208.618 117.11 209.84 114.93 209.84 112.135C209.84 110.228 209.229 108.66 208.007 107.365C206.785 106.07 204.477 104.912 201.151 103.821L191.308 100.755C186.353 99.1875 182.687 96.8706 180.447 93.8037C178.207 90.805 177.053 87.4663 177.053 83.9227C177.053 81.0607 177.664 78.5391 178.886 76.3578C180.107 74.1775 181.737 72.2698 183.773 70.7705C185.81 69.2028 188.118 68.0444 190.833 67.2268C193.548 66.4092 196.398 66.0684 199.385 66.0684C200.879 66.0684 202.44 66.1367 203.934 66.3409C205.495 66.5451 206.921 66.8176 208.346 67.0901C209.703 67.431 210.993 67.7719 212.215 68.1811C213.437 68.5895 214.387 68.9981 215.066 69.407C216.017 69.9529 216.695 70.498 217.103 71.1114C217.51 71.6564 217.714 72.4059 217.714 73.3599V76.5628C217.714 77.9937 217.171 78.7438 216.152 78.7438C215.609 78.7438 214.727 78.4705 213.574 77.9254C209.703 76.1536 205.359 75.2676 200.54 75.2676C196.671 75.2676 193.616 75.881 191.511 77.1761C189.408 78.4705 188.321 80.4473 188.321 83.2409C188.321 85.1494 189 86.7846 190.357 88.0797C191.715 89.3748 194.227 90.6692 197.825 91.8276L207.464 94.8946C212.351 96.4622 215.881 98.6425 217.985 101.436C220.09 104.23 221.108 107.433 221.108 110.977C221.108 113.907 220.496 116.565 219.342 118.882C218.121 121.199 216.492 123.243 214.387 124.879C212.283 126.583 209.771 127.81 206.853 128.695C203.798 129.65 200.607 130.126 197.146 130.126Z" fill="white"/>
<path d="M209.975 163.246C187.643 179.806 155.195 188.596 127.297 188.596C88.1969 188.596 52.9673 174.081 26.3582 149.957C24.2537 148.049 26.154 145.46 28.6652 146.958C57.4469 163.723 92.9487 173.877 129.673 173.877C154.449 173.877 181.669 168.698 206.717 158.067C210.451 156.362 213.641 160.52 209.975 163.246ZM219.275 152.614C216.424 148.935 200.404 150.843 193.141 151.729C190.968 152.002 190.629 150.093 192.598 148.662C205.359 139.667 226.335 142.257 228.778 145.255C231.222 148.322 228.099 169.379 216.152 179.465C214.32 181.032 212.555 180.215 213.369 178.17C216.084 171.423 222.126 156.226 219.275 152.614Z" fill="#FF9900"/>
</g>
<defs>
<clipPath id="clip0_64_1561">
<rect width="205" height="123" fill="white" transform="translate(25 66)"/>
</clipPath>
</defs>
</svg>
