<svg width="256" height="256" viewBox="0 0 256 256" fill="none" xmlns="http://www.w3.org/2000/svg">
<rect width="256" height="256" fill="#232932"/>
<g clip-path="url(#clip0_64_1567)">
<path d="M96.342 38.0022H152.563L94.2001 211.306C93.6002 213.087 92.4583 214.634 90.9349 215.73C89.4116 216.826 87.5836 217.416 85.7083 217.417H41.9543C40.5335 217.417 39.1332 217.078 37.8691 216.428C36.605 215.778 35.5135 214.835 34.6848 213.679C33.8561 212.522 33.314 211.185 33.1034 209.776C32.8928 208.368 33.0197 206.93 33.4736 205.581L87.8479 44.1133C88.4475 42.3318 89.5897 40.7836 91.1135 39.6869C92.6373 38.5902 94.466 38.0002 96.342 38V38.0022Z" fill="url(#paint0_linear_64_1567)"/>
<path d="M178.039 154.243H88.886C88.0572 154.242 87.2474 154.492 86.5621 154.959C85.8768 155.426 85.3476 156.089 85.0436 156.861C84.7396 157.634 84.6748 158.481 84.8577 159.291C85.0405 160.101 85.4625 160.837 86.0687 161.403L143.356 214.992C145.024 216.551 147.22 217.417 149.501 217.417H199.983L178.039 154.243Z" fill="#0078D4"/>
<path d="M96.3417 38.0023C94.4452 37.995 92.5961 38.5956 91.0645 39.7165C89.5328 40.8374 88.3989 42.4197 87.8284 44.2323L33.5401 205.433C33.0554 206.788 32.9032 208.239 33.0965 209.665C33.2898 211.091 33.8229 212.449 34.6506 213.624C35.4784 214.8 36.5765 215.758 37.852 216.418C39.1275 217.079 40.5429 217.421 41.9785 217.418H86.8606C88.5322 217.118 90.0945 216.379 91.388 215.277C92.6816 214.174 93.6601 212.748 94.2236 211.142L105.05 179.165L143.72 215.314C145.341 216.658 147.374 217.4 149.477 217.418H199.771L177.713 154.243L113.41 154.258L152.766 38.0023H96.3417Z" fill="url(#paint1_linear_64_1567)"/>
<path d="M168.149 44.1043C167.55 42.3257 166.41 40.7802 164.888 39.6855C163.367 38.5908 161.541 38.002 159.668 38.0022H97.0111C100.852 38.0022 104.264 40.4575 105.493 44.1043L159.868 205.578C160.323 206.928 160.45 208.367 160.24 209.776C160.03 211.184 159.488 212.523 158.659 213.68C157.83 214.837 156.738 215.78 155.474 216.43C154.209 217.081 152.808 217.42 151.387 217.42H214.047C215.468 217.419 216.868 217.08 218.133 216.429C219.397 215.779 220.489 214.836 221.317 213.679C222.146 212.522 222.688 211.184 222.898 209.775C223.108 208.366 222.98 206.928 222.526 205.578L168.149 44.1043Z" fill="url(#paint2_linear_64_1567)"/>
</g>
<defs>
<linearGradient id="paint0_linear_64_1567" x1="7083.59" y1="1367.66" x2="1555.66" y2="17662.8" gradientUnits="userSpaceOnUse">
<stop stop-color="#114A8B"/>
<stop offset="1" stop-color="#0669BC"/>
</linearGradient>
<linearGradient id="paint1_linear_64_1567" x1="9991.48" y1="9423.76" x2="8800.65" y2="9825.51" gradientUnits="userSpaceOnUse">
<stop stop-opacity="0.3"/>
<stop offset="0.071" stop-opacity="0.2"/>
<stop offset="0.321" stop-opacity="0.1"/>
<stop offset="0.623" stop-opacity="0.05"/>
<stop offset="1" stop-opacity="0"/>
</linearGradient>
<linearGradient id="paint2_linear_64_1567" x1="4793.61" y1="863.323" x2="10826.4" y2="16900.6" gradientUnits="userSpaceOnUse">
<stop stop-color="#3CCBF4"/>
<stop offset="1" stop-color="#2892DF"/>
</linearGradient>
<clipPath id="clip0_64_1567">
<rect width="190" height="180" fill="white" transform="translate(33 38)"/>
</clipPath>
</defs>
</svg>
