<svg width="256" height="256" viewBox="0 0 256 256" fill="none" xmlns="http://www.w3.org/2000/svg">
<rect width="256" height="256" fill="#232932"/>
<g clip-path="url(#clip0_64_1567)">
<path d="M94.6755 33.0023H153.855L92.4209 214.971C91.7895 216.841 90.5874 218.466 88.9839 219.617C87.3804 220.768 85.4562 221.387 83.4822 221.388H37.4253C35.9298 221.388 34.4557 221.032 33.1251 220.349C31.7945 219.667 30.6456 218.677 29.7732 217.463C28.9009 216.248 28.3303 214.844 28.1086 213.365C27.8869 211.887 28.0205 210.376 28.4983 208.96L85.7344 39.419C86.3656 37.5484 87.5678 35.9228 89.1718 34.7713C90.7758 33.6197 92.7008 33.0002 94.6755 33V33.0023Z" fill="url(#paint0_linear_64_1567)"/>
<path d="M180.672 155.055H86.8273C85.9549 155.054 85.1026 155.316 84.3812 155.806C83.6597 156.297 83.1028 156.993 82.7828 157.804C82.4628 158.616 82.3945 159.505 82.587 160.355C82.7795 161.206 83.2237 161.979 83.8618 162.574L144.164 218.842C145.92 220.478 148.232 221.388 150.633 221.388H203.771L180.672 155.055Z" fill="#0078D4"/>
<path d="M94.6754 33.0023C92.6791 32.9946 90.7327 33.6253 89.1204 34.8022C87.5082 35.9791 86.3146 37.6406 85.714 39.5439L28.5685 208.805C28.0583 210.227 27.8981 211.751 28.1016 213.248C28.305 214.745 28.8661 216.171 29.7375 217.405C30.6088 218.64 31.7646 219.646 33.1073 220.339C34.4499 221.033 35.9398 221.392 37.451 221.388H84.6953C86.4548 221.074 88.0994 220.298 89.461 219.141C90.8226 217.983 91.8526 216.485 92.4458 214.799L103.842 181.224L144.548 219.18C146.254 220.59 148.394 221.37 150.608 221.388H203.548L180.329 155.055L112.642 155.07L154.069 33.0023H94.6754Z" fill="url(#paint1_linear_64_1567)"/>
<path d="M170.262 39.4097C169.632 37.5421 168.432 35.9193 166.83 34.7699C165.228 33.6204 163.306 33.0023 161.335 33.0024H95.3801C99.4229 33.0024 103.015 35.5805 104.308 39.4097L161.546 208.958C162.024 210.375 162.158 211.885 161.937 213.365C161.716 214.844 161.145 216.249 160.273 217.464C159.4 218.679 158.251 219.669 156.92 220.352C155.589 221.035 154.114 221.391 152.618 221.391H218.576C220.071 221.391 221.546 221.034 222.877 220.351C224.207 219.668 225.356 218.678 226.229 217.463C227.101 216.248 227.671 214.843 227.892 213.364C228.114 211.885 227.979 210.374 227.501 208.958L170.262 39.4097Z" fill="url(#paint2_linear_64_1567)"/>
</g>
<defs>
<linearGradient id="paint0_linear_64_1567" x1="7449.68" y1="1429.14" x2="1656.88" y2="18547.8" gradientUnits="userSpaceOnUse">
<stop stop-color="#114A8B"/>
<stop offset="1" stop-color="#0669BC"/>
</linearGradient>
<linearGradient id="paint1_linear_64_1567" x1="10510.6" y1="9888.05" x2="9257.75" y2="10311.8" gradientUnits="userSpaceOnUse">
<stop stop-opacity="0.3"/>
<stop offset="0.071" stop-opacity="0.2"/>
<stop offset="0.321" stop-opacity="0.1"/>
<stop offset="0.623" stop-opacity="0.05"/>
<stop offset="1" stop-opacity="0"/>
</linearGradient>
<linearGradient id="paint2_linear_64_1567" x1="5039.17" y1="899.589" x2="11361.7" y2="17749.2" gradientUnits="userSpaceOnUse">
<stop stop-color="#3CCBF4"/>
<stop offset="1" stop-color="#2892DF"/>
</linearGradient>
<clipPath id="clip0_64_1567">
<rect width="200" height="189" fill="white" transform="translate(28 33)"/>
</clipPath>
</defs>
</svg>
