<svg width="256" height="256" viewBox="0 0 256 256" fill="none" xmlns="http://www.w3.org/2000/svg">
<rect width="256" height="256" fill="#232932"/>
<g clip-path="url(#clip0_64_1555)">
<path d="M169.451 93.4327L169.404 92.972L168.657 93.0358L168.705 93.4962L169.451 93.4327ZM174.469 105.503L174.485 105.757L175.009 105.709C174.993 105.551 175.057 105.296 175.168 104.979L175.12 104.518C174.898 104.534 174.675 104.868 174.469 105.503ZM154.89 120.702C154.859 120.273 153.525 118.605 150.889 115.667C150.841 115.127 151.746 114.317 153.604 113.253L158.908 108.632C160.098 107.123 160.797 104.677 161.004 101.278L160.94 100.5C160.734 98.1498 159.035 96.2598 155.811 94.8145C153.906 93.5281 150.476 92.8132 145.522 92.6864C141.425 93.0358 136.074 94.4966 129.484 97.0855C127.674 98.388 125.61 99.6903 123.291 100.992L123.323 101.39C123.466 101.374 123.688 101.294 123.942 101.12C124.212 101.088 124.371 101.215 124.387 101.469L124.784 101.262L124.975 101.246L124.99 101.421C125.006 101.628 123.577 102.755 120.687 104.772L120.91 105.185L120.719 105.201L120.242 105.026C120.258 105.169 120.052 105.265 119.655 105.296L119.671 105.471L120.132 106.043C119.989 106.059 119.766 105.995 119.465 105.884C118.797 105.947 118.147 106.297 117.496 106.964L117.766 105.789C118.734 101.612 119.401 97.9112 119.75 94.7032L119.703 94.4966C119.036 94.0678 118.385 93.4642 117.781 92.7019C117.797 92.2097 117.797 91.9241 117.781 91.8603L117.734 91.6855L117.543 91.7334C115.447 94.878 111.414 100.246 105.428 107.837C100.87 113.238 98.5203 116.239 98.3775 116.843C96.5198 118.764 95.6304 119.924 95.7257 120.321C95.2336 120.638 95.027 120.956 95.1063 121.305C94.9635 121.337 94.8682 121.29 94.8363 121.146C94.0427 122.433 92.8673 123.259 91.2955 123.624L89.644 124.005C89.4218 124.053 89.3106 124.212 89.3265 124.482L89.374 124.688L89.9934 124.545L90.0412 124.72L88.6437 125.26L86.1666 125.832L84.8644 125.911C84.6738 126.102 85.8966 125.895 85.4204 126.006L83.8008 126.388C82.816 126.61 82.2764 126.53 82.1811 126.134L81.9905 126.181C82.0224 126.356 82.0379 126.483 82.0064 126.594L81.9111 126.197L80.6089 126.499C80.5136 125.895 78.7512 123.703 75.3372 119.924C75.2738 119.193 76.4803 118.129 78.9418 116.747L85.8966 110.633C87.4528 108.632 88.3737 105.423 88.6756 101.008L88.5803 99.9759C88.3103 96.8633 86.0553 94.3538 81.8158 92.4163C79.3068 90.717 74.7972 89.8115 68.2872 89.6687C62.8882 90.1294 55.8377 92.0509 47.168 95.4021C44.7862 97.1331 42.071 98.8482 39.0224 100.548L39.0698 101.088C39.2764 101.072 39.546 100.961 39.8794 100.77C40.2288 100.738 40.4195 100.897 40.4514 101.215L40.991 100.913L41.261 100.897L41.2769 101.151C41.2929 101.405 39.4033 102.882 35.5765 105.582L35.878 106.059L35.6084 106.075L35.0205 105.868C35.0365 106.027 34.7665 106.138 34.2109 106.186L34.2424 106.472L34.8778 107.171C34.6716 107.186 34.3856 107.123 34.0203 106.996C32.7819 107.107 31.5751 107.996 30.3842 109.68L30.6857 110.156C31.7178 109.203 32.3213 108.727 32.496 108.711L32.5594 109.489C32.3847 109.505 32.1147 109.616 31.7498 109.807L32.4006 110.792C33.6302 109.462 35.0228 108.294 36.5453 107.313C37.2915 107.504 37.6883 107.742 37.7043 107.996L38.2758 107.949C42.3725 104.915 46.4218 102.724 50.4392 101.374L50.4867 101.913C49.7406 103.025 49.2325 103.597 48.9624 103.629C48.9943 104.01 49.1211 104.344 49.3592 104.63C49.423 105.312 47.5968 109.918 43.8968 118.431C35.4971 138.219 28.4467 152.862 22.7147 162.328C22.7304 162.519 22.8415 162.773 23.0481 163.091C24.4612 162.757 25.3506 162.408 25.7314 162.074L26.0334 162.042L26.0808 162.582L26.6049 162.535L27.1449 162.233C27.1609 162.392 27.3355 162.471 27.7005 162.439L27.7483 162.979C27.7958 163.503 27.4943 164.297 26.8589 165.393C26.2874 166.044 25.668 167.41 25.0172 169.491L25.0327 169.745L25.5568 169.697C27.8436 167.14 29.5741 164.631 30.765 162.185C37.4342 160.232 42.5157 158.31 46.0405 156.42C49.5817 156.118 52.281 155.181 54.1232 153.641L54.0913 153.355L52.7576 153.752L52.4557 153.784L52.4238 153.498C55.0281 153.101 56.8225 152.529 57.8227 151.735C62.8882 147.828 66.715 145.065 69.3034 143.429C74.6225 139.522 78.0844 135.71 79.6561 132.01C79.9535 131.945 80.25 131.876 80.5455 131.803C81.2917 131.772 81.7045 131.756 81.8158 131.724C81.7839 131.581 81.8477 131.502 81.9905 131.47C83.1814 131.343 82.6099 131.549 83.372 131.374L85.3725 130.914C85.2457 130.945 85.1978 131.009 85.2298 131.136L85.5313 130.945C85.4679 130.945 85.4204 130.93 85.3725 130.914L85.7059 130.835L85.5472 130.93C85.7698 130.961 86.0079 130.945 86.2779 130.882L86.4207 131.47L77.3222 145.938L75.3053 148.463L74.321 151.767L74.5117 151.719L75.496 151.306L75.1785 152.593L75.2738 152.974L75.5434 153.307C75.4166 153.339 75.3691 153.418 75.4006 153.561L75.4485 153.768L75.8613 153.673C76.4649 153.148 76.7189 152.672 76.6235 152.243C77.2743 152.354 77.7031 152.402 77.9256 152.339L77.9731 152.545C77.5763 152.64 77.3697 152.958 77.3377 153.498L77.3856 153.704L77.6078 153.657C80.9109 150.051 89.0091 137.711 95.5036 129.341C95.297 128.436 98.679 127.181 105.666 125.561L105.888 125.514C106.142 126.61 105.602 129.262 104.269 133.471C103.411 136.012 102.998 137.41 103.062 137.632C101.95 141.015 101.426 142.841 101.49 143.127L99.0124 151.242C97.4088 155.404 96.1864 159.771 95.3289 164.377C95.4717 164.345 95.6938 164.361 96.0117 164.44L96.3606 164.138C96.3925 164.282 96.4879 164.329 96.6306 164.297L96.4879 163.71L97.5675 163.678C97.8849 163.599 98.155 163.201 98.3775 162.471C98.3296 161.375 98.5522 160.788 99.0444 160.66C99.7112 158.056 100.124 156.754 100.267 156.706C100.886 154.117 101.347 152.64 101.648 152.275C102.586 148.908 103.268 147.177 103.713 147.065L103.808 147.479L103.125 149.242C101.934 154.53 100.728 158.707 99.505 161.772L99.8544 163.297L100.077 163.249C103.03 156.896 107.285 144.318 112.827 125.514C112.986 123.862 113.78 122.576 115.193 121.671L114.875 121.337L114.828 121.162C115.463 121.02 115.908 120.766 116.162 120.416C116.13 120.273 115.574 120.067 114.495 119.781L117.258 107.933C117.861 107.393 118.21 107.107 118.321 107.107L118.369 107.711C118.226 107.726 118.004 107.806 117.75 107.98L118.274 108.727C119.226 107.695 120.258 106.805 121.386 106.059C121.957 106.218 122.243 106.408 122.275 106.599L122.688 106.567C125.832 104.264 128.913 102.612 131.945 101.612L131.977 102.009C131.421 102.85 131.04 103.279 130.834 103.295C130.866 103.581 130.945 103.835 131.088 104.057C131.136 104.582 129.77 108.076 126.975 114.555C120.592 129.564 115.241 140.665 110.89 147.876C110.906 148.018 111.001 148.209 111.176 148.463C112.24 148.209 112.922 147.939 113.192 147.685L113.383 147.669L113.415 148.066L113.859 148.034L114.256 147.828C114.272 147.939 114.415 147.987 114.685 147.971L114.717 148.4C114.749 148.781 114.526 149.384 114.034 150.21C113.574 150.703 113.097 151.735 112.589 153.307L112.605 153.514L113.018 153.482C114.748 151.544 116.066 149.638 116.972 147.764C122.037 146.272 125.895 144.826 128.563 143.397C131.278 143.159 133.327 142.46 134.724 141.285L134.708 141.078L133.676 141.38L133.454 141.396L133.438 141.189C135.407 140.904 136.789 140.459 137.535 139.871C141.378 136.917 144.283 134.805 146.252 133.566C152.382 129.103 155.24 124.815 154.89 120.702ZM153.842 120.972L153.985 122.576C153.795 122.973 153.588 123.179 153.398 123.195L153.16 120.464C153.604 120.622 153.827 120.781 153.842 120.972ZM33.6075 108.044L33.3375 108.06L33.29 107.567L34.3856 107.472L34.4016 107.726C34.2269 107.742 33.9569 107.837 33.6075 108.044ZM28.2564 161.582C27.6211 161.296 27.0496 161.185 26.5574 161.232L26.4936 160.454C26.4621 160.152 26.6368 159.946 27.0177 159.866C27.367 159.835 27.5736 160.089 27.6051 160.597C28.5262 159.469 29.0344 158.898 29.1299 158.882L29.7173 159.12C29.5267 160.708 29.0345 161.518 28.2564 161.582ZM85.4364 101.755C85.1663 101.787 84.6263 100.945 83.8482 99.277L83.8008 98.7848C84.3089 98.7373 84.8329 99.5631 85.3885 101.262L85.4364 101.755ZM84.6738 95.8309L84.4516 96.3551L76.6869 93.1152C81.8632 93.2899 84.531 94.195 84.6738 95.8309ZM51.8842 123.989L50.7886 124.085L50.7407 123.592L51.8363 123.497L51.8842 123.989ZM50.9948 107.075L51.2648 107.059L51.3282 107.837C51.0741 107.853 50.7407 108.234 50.3279 108.965L50.2801 108.425C50.7726 107.837 51.0267 107.393 50.9948 107.075ZM48.6924 112.507L48.7877 113.539L48.5177 113.555L48.4223 112.523L48.6924 112.507ZM47.4855 114.445L48.0096 114.397C47.9621 115.254 47.724 115.715 47.2953 115.747L47.0253 115.762C47.3587 115.191 47.5174 114.746 47.4855 114.445ZM46.5806 117.144L46.8821 117.112L46.898 117.366L46.4059 118.193L45.8818 118.24L45.8659 117.986C46.3899 117.938 46.628 117.668 46.5806 117.144ZM45.6912 119.574L45.5324 120.876L45.2624 120.892L45.1516 119.606L45.6912 119.574ZM36.7834 144.906C36.434 146.685 36.0527 147.59 35.6559 147.622L35.6399 147.367C35.5446 146.494 35.9259 145.668 36.7834 144.906ZM35.1478 148.447L35.1637 148.701C35.1952 149.051 35.0365 149.257 34.6871 149.273L34.6716 149.019C34.6397 148.717 34.7984 148.527 35.1478 148.447ZM34.6716 155.801L35.4971 155.721L35.5286 156.007C35.3225 156.023 35.0524 156.134 34.719 156.325L34.195 156.372C34.1631 156.103 34.3377 155.896 34.6712 155.801H34.6716ZM58.1721 148.543C53.5353 150.83 50.8041 152.386 49.9945 153.196C44.9769 154.943 42.4838 156.023 42.5313 156.452C38.0696 158.215 35.1318 159.517 33.7188 160.327C33.3854 160.359 32.9087 160.232 32.2738 159.946C32.1945 159.041 32.6072 158.31 33.4803 157.723C34.2584 157.659 35.0046 157.77 35.7193 158.072C36.5453 157.643 37.9902 157.166 40.0386 156.658L39.9907 156.118L38.3396 156.261C38.5458 155.975 40.1335 155.229 43.1187 154.022L43.9447 153.943L43.9607 154.197C42.5472 154.324 41.7691 154.737 41.5944 155.483C41.6263 155.817 41.817 155.959 42.1663 155.928C43.23 155.261 43.7541 154.864 43.7381 154.752C45.755 154.371 51.3282 151.449 60.4586 146.002L60.5064 146.494C60.5224 146.732 59.7443 147.399 58.1721 148.543ZM44.1669 153.148C45.5009 153.037 46.644 152.497 47.5968 151.56C47.9776 151.528 48.1842 151.671 48.2002 152.005C47.5489 152.069 46.2946 152.608 44.4688 153.657L44.1988 153.673L44.1669 153.148ZM66.7624 135.789L59.7598 141.332C54.5515 144.747 51.7569 146.462 51.3601 146.494C43.0713 151.052 37.9109 153.418 35.9099 153.593L35.6084 153.625C35.8625 152.688 39.546 145.144 46.6918 130.945C49.8358 130.675 54.79 129.215 61.5386 126.546L63.1897 126.403C66.6037 126.102 69.1602 126.769 70.8437 128.357L70.9386 129.389C69.6683 133.042 68.2712 135.17 66.7624 135.789ZM53.0751 128.087L54.2026 127.992L54.2181 128.246L53.091 128.341L53.0751 128.087ZM68.9061 125.403L69.7321 125.323C70.4943 125.689 70.8911 126.006 70.923 126.292L70.9386 126.546C70.2083 126.61 69.5255 126.229 68.9061 125.403ZM71.1452 112.65C70.4149 113.523 68.414 115.016 65.1428 117.112C64.0632 117.208 60.0458 118.764 53.091 121.813C52.7433 121.654 52.3602 121.589 51.9795 121.623L51.9316 121.13C51.8523 120.13 52.297 118.876 53.2813 117.351C53.8213 114.492 54.4087 112.856 55.06 112.459L60.8558 99.4203C60.792 98.6102 62.0305 97.9907 64.5713 97.5618L65.3968 97.4824L65.4607 98.2291C67.9533 97.8478 69.5096 97.6256 70.113 97.5777C74.7178 97.1808 77.1156 98.1178 77.3062 100.357L77.8303 100.309L77.719 98.9914L78.2905 98.9436C79.6402 99.6903 80.3708 100.595 80.4662 101.659C80.5296 102.39 80.1327 103.295 79.2908 104.375C78.9418 104.407 78.7352 104.153 78.7033 103.645L78.1318 103.693L78.005 105.281C75.6707 108.775 73.9716 110.569 72.9235 110.665C71.9707 111.983 71.3832 112.634 71.1452 112.65ZM74.7019 121.782C74.2257 121.464 73.8444 121.321 73.5589 121.337L73.495 120.559L74.0191 120.511L75.1785 121.194C75.226 121.559 75.0672 121.75 74.7019 121.782ZM78.3859 126.149C78.894 126.356 79.1959 126.578 79.2593 126.785L79.0053 126.848L79.0212 126.864C78.9733 126.864 78.9099 126.88 78.8621 126.896L78.4812 127.197L78.3859 126.149ZM78.7352 128.341L78.6878 128.134L79.3546 127.976L79.4021 128.182L78.7352 128.341ZM80.3389 130.136C81.0217 130.024 81.3551 129.977 82.6254 129.691L82.6733 129.898L80.2596 130.453C80.2915 130.342 80.323 130.231 80.3389 130.136ZM82.6892 131.136C81.673 131.231 81.8952 131.104 80.2755 131.47L80.2276 131.263L82.2445 130.612L83.2133 130.39L83.3082 130.771C82.8795 130.866 83.1973 130.866 82.6892 131.136ZM84.8329 130.628C84.5944 130.691 84.4042 130.58 84.2929 130.31L84.9123 130.167C85.1819 130.104 85.3566 130.215 85.4204 130.485L84.8329 130.628ZM90.6442 124.37L90.5968 124.164L91.597 123.926L91.6924 124.307L90.6442 124.37ZM96.8532 162.455C96.9166 162.169 96.9326 161.963 96.9006 161.82L97.1232 161.772C97.3928 161.709 97.5515 161.804 97.6154 162.058L97.6628 162.264L96.8532 162.455ZM101.204 126.006L100.759 125.927C100.045 126.213 99.4412 126.419 98.949 126.53L98.5362 126.626C98.2981 126.689 98.1075 126.594 98.0122 126.34L100.918 125.673L101.871 125.228L102.188 125.593C101.728 125.689 101.394 125.832 101.204 126.006ZM103.443 125.291L103.395 125.085C103.538 125.053 103.729 124.942 103.935 124.736L105.999 124.259L106.047 124.466C104.951 124.736 104.078 125.006 103.443 125.291ZM103.76 121.115C103.617 121.146 103.427 121.274 103.189 121.464C103.157 121.321 102.871 121.321 102.331 121.448C102.236 121.051 103.76 120.495 106.92 119.765L107.365 119.669L107.46 120.051C105.237 120.702 103.999 121.067 103.76 121.115ZM109.318 115.111C109.096 117.637 108.207 119.066 106.634 119.431L106.587 119.225L105.189 119.765L104.57 119.908C104.253 119.987 103.967 119.971 103.713 119.892L103.586 119.336C103.538 119.13 105.555 116.334 109.652 110.966L110.128 111.046C110.302 111.776 110.032 113.126 109.318 115.111ZM119.147 106.694L118.957 106.71L118.925 106.313L119.75 106.234L119.766 106.44C119.623 106.472 119.417 106.551 119.147 106.694ZM115.098 147.367C114.621 147.145 114.193 147.05 113.828 147.081L113.78 146.478C113.764 146.272 113.891 146.129 114.161 146.049C114.431 146.018 114.59 146.208 114.621 146.621C115.304 145.748 115.685 145.303 115.765 145.303L116.194 145.477C116.035 146.685 115.669 147.32 115.098 147.367ZM158.511 101.945C158.304 101.961 157.907 101.326 157.288 100.039L157.256 99.6424C157.653 99.6105 158.066 100.23 158.479 101.501L158.511 101.945ZM157.939 97.403L157.749 97.8159L151.873 95.3542C155.796 95.4815 157.828 96.1644 157.939 97.403ZM133.025 118.796L132.199 118.876L132.168 118.478L132.993 118.415L133.025 118.796ZM132.342 105.947L132.565 105.932L132.612 106.535C132.406 106.551 132.152 106.837 131.85 107.393L131.818 106.996C132.183 106.535 132.358 106.185 132.342 105.947ZM130.612 110.077L130.675 110.855L130.453 110.871L130.389 110.093L130.612 110.077ZM129.675 111.554L130.087 111.522C130.04 112.189 129.865 112.539 129.563 112.57L129.341 112.586C129.579 112.142 129.691 111.792 129.675 111.554ZM129.008 113.587L129.199 113.571L129.214 113.777L128.849 114.413L128.436 114.445L128.42 114.238C128.849 114.206 129.039 113.984 129.008 113.587ZM128.341 115.429L128.198 116.445L128.007 116.461L127.928 115.461L128.341 115.429ZM121.561 134.694C121.291 136.028 121.005 136.711 120.703 136.742L120.687 136.568C120.64 135.901 120.925 135.266 121.561 134.694ZM120.306 137.378L120.322 137.552C120.354 137.838 120.227 137.997 119.941 138.013L119.925 137.807C119.909 137.6 120.036 137.457 120.306 137.378ZM119.957 142.968L120.592 142.921L120.608 143.127C120.465 143.143 120.242 143.222 119.988 143.365L119.576 143.397C119.56 143.175 119.687 143.032 119.957 142.968ZM137.789 137.457C134.296 139.188 132.215 140.364 131.564 140.967C127.753 142.301 125.864 143.127 125.895 143.461C122.513 144.811 120.29 145.779 119.242 146.399C118.988 146.414 118.623 146.319 118.147 146.097C118.083 145.414 118.401 144.858 119.067 144.445C119.671 144.398 120.242 144.477 120.766 144.699C121.402 144.382 122.497 144.032 124.054 143.635L124.022 143.238L122.72 143.333C122.879 143.111 124.101 142.539 126.372 141.618L127.007 141.571L127.023 141.745C125.943 141.841 125.34 142.158 125.213 142.73C125.229 142.984 125.387 143.111 125.657 143.079C126.451 142.555 126.832 142.254 126.832 142.158C128.357 141.888 132.581 139.665 139.52 135.504L139.551 135.901C139.567 136.075 138.98 136.584 137.789 137.457ZM127.15 140.951C128.182 140.856 129.055 140.459 129.786 139.76C130.056 139.728 130.215 139.855 130.23 140.109C129.754 140.157 128.817 140.554 127.404 141.317L127.182 141.332L127.15 140.951ZM144.331 127.753L139.043 132.01C135.089 134.598 132.946 135.901 132.612 135.933C126.324 139.395 122.418 141.189 120.878 141.317L120.656 141.332C120.846 140.618 123.657 134.884 129.087 124.116C131.453 123.91 135.2 122.782 140.345 120.75L141.632 120.638C144.22 120.416 146.157 120.924 147.427 122.147L147.491 122.925C146.522 125.657 145.474 127.261 144.331 127.753ZM133.946 121.909L134.772 121.829L134.788 122.036L133.962 122.115L133.946 121.909ZM145.966 119.86L146.602 119.813C147.189 120.098 147.491 120.353 147.507 120.559L147.523 120.734C146.967 120.781 146.443 120.495 145.966 119.86ZM147.634 110.188C147.078 110.855 145.57 111.998 143.108 113.587C142.282 113.666 139.234 114.841 133.962 117.128C133.708 117.033 133.422 117.001 133.12 117.017L133.089 116.62C133.025 115.858 133.359 114.905 134.089 113.746C134.502 111.554 134.962 110.331 135.439 110.045L139.869 100.135C139.821 99.5471 140.758 99.0708 142.664 98.7054L143.299 98.658L143.347 99.2615C145.22 98.9594 146.395 98.7847 146.871 98.7373C150.365 98.4354 152.191 99.1342 152.334 100.85L152.746 100.818L152.667 99.8646L153.08 99.8331C154.097 100.389 154.636 101.056 154.7 101.85C154.747 102.422 154.461 103.12 153.858 103.931C153.588 103.962 153.43 103.772 153.398 103.359L152.985 103.391L152.858 104.582C151.095 107.266 149.809 108.648 148.999 108.711C148.285 109.68 147.84 110.172 147.634 110.188ZM149.492 116.795L149.444 116.191L149.857 116.16L150.746 116.699C150.762 116.954 150.635 117.097 150.365 117.128C149.984 116.89 149.698 116.779 149.492 116.795ZM75.5753 155.372L75.1625 155.467L74.8132 155.769C74.8766 156.023 75.0353 156.118 75.3053 156.055C75.5753 155.991 75.6866 155.833 75.6232 155.578L75.5753 155.372ZM74.0036 152.243L74.051 152.449C74.321 152.386 74.4319 152.227 74.3685 151.973L74.321 151.767C74.067 151.83 73.9557 151.989 74.0036 152.243ZM85.1819 125.641L85.6585 125.53L85.5632 125.117L85.087 125.228L85.1819 125.641ZM229.267 137.743C224.44 138.823 223.836 138.632 222.82 138.712L222.852 139.109L223.297 139.077L223.535 139.061L223.471 139.014L223.995 138.807C228.775 138.283 229.331 138.474 229.283 137.933L229.267 137.743ZM203.273 141.189L203.305 141.587H203.368L203.337 141.189H203.273ZM200.288 130.723L199.859 130.58C199.51 131.518 199.335 132.073 199.351 132.232L199.367 132.407C199.7 132.391 200.002 131.819 200.288 130.723ZM230.251 137.664L230.283 138.061L230.982 138.188L230.95 137.791L230.251 137.664ZM197.398 141.682L196.318 141.555L196.128 141.968L196.144 142.174L202.574 141.634L202.543 141.237L197.398 141.682ZM194.476 127.595L194.461 127.388L194.238 127.404L193.841 127.658L194.063 128.039C194.365 128.008 194.508 127.864 194.476 127.595ZM233.3 134.741L233.602 134.71C233.777 134.694 233.856 134.551 233.84 134.297L233.665 133.915C232.57 134.011 232.062 134.059 231.172 134.551L231.156 134.345L229.839 134.471C229.807 134.074 229.696 133.868 229.521 133.884L228.838 133.947C228.044 134.011 227.663 133.979 227.266 134.281C227.25 134.138 227.203 134.074 227.123 134.074L226.361 134.138L225.917 134.392C225.901 134.249 225.853 134.185 225.773 134.185L225.504 134.424L225.488 134.217L224.424 134.138L224.17 134.154L224.202 134.551L224.742 134.694L225.25 134.662C225.424 134.773 225.615 134.805 225.837 134.789L226.282 134.567L226.297 134.741C223.805 135.361 223.82 135.25 222.105 135.536C221.915 135.408 221.772 135.345 221.677 135.361L221.645 135.392C221.455 135.376 221.343 135.25 221.328 135.043L222.217 134.932C222.28 134.932 222.328 134.996 222.82 135.091C223.535 134.741 223.566 134.598 223.948 134.567L223.916 134.169C221.47 134.646 222.455 134.329 219.39 134.598L219.247 134.614L219.216 134.217C223.154 133.741 221.836 134.011 223.185 133.63C223.201 133.772 223.249 133.836 223.328 133.836C223.473 133.688 223.663 133.593 223.868 133.566L224.138 133.55C225.519 133.439 225.98 133.709 228.711 132.947L228.727 133.121L229.172 132.899L229.585 132.867C229.553 132.47 230.156 132.407 230.363 132.391L230.331 131.962C225.535 132.931 224.281 132.661 222.947 133.042L222.931 132.867C221.677 133.09 221.629 132.994 221.312 133.01C221.216 133.026 221.074 133.106 220.915 133.264C220.899 133.121 220.851 133.058 220.756 133.058C220.708 133.058 220.692 133.074 220.676 133.074L216.612 133.741C216.596 133.63 216.548 133.566 216.453 133.582C214.341 134.027 214.913 134.106 212.086 134.36C211.959 134.376 211.785 134.439 211.562 134.583C211.546 134.471 211.483 134.408 211.34 134.423L209.609 134.567L208.45 134.852C208.434 134.741 208.371 134.678 208.227 134.694C207.577 134.868 207.005 134.98 206.544 135.011H206.512C206.227 135.043 206.656 134.932 206.433 134.837L206.084 135.043C205.576 135.091 205.846 135.011 204.099 135.027C201.035 135.408 201.368 135.456 201.035 135.472L199.891 135.392C199.907 135.504 199.844 135.583 199.716 135.583C198.414 135.408 197.747 135.202 197.731 134.964C197.906 133.725 198.208 133.09 198.637 133.058L198.859 133.042L198.668 133.455L198.891 133.439C199.304 133.217 199.494 133.01 199.478 132.82L199.446 132.391L199.034 132.423L199.002 132.026C198.97 131.724 199.018 131.454 199.129 131.231L200.066 129.723L200.098 130.12L200.542 130.088L200.51 129.691L200.256 129.326C200.59 129.04 200.844 128.881 201.05 128.865L201.035 128.659L200.431 128.706L200.383 128.103C201.59 125.593 202.162 124.132 202.13 123.719L202.559 123.894C202.829 123.878 202.956 123.719 202.94 123.433L202.527 123.465L202.511 123.291C202.482 123.001 202.537 122.708 202.67 122.449C203.321 121.766 203.623 121.083 203.559 120.368C203.686 120.352 203.75 120.416 203.766 120.559C204.321 120.241 204.75 119.4 205.067 118.002C206.052 116.223 207.449 112.666 209.276 107.345C212.769 97.9431 212.626 96.9427 213.118 94.7192L212.705 94.7507C212.737 95.0367 212.674 95.3068 212.547 95.5609C212.261 95.4496 212.039 95.3862 211.88 95.4021L211.864 95.2274C211.8 94.4172 212.134 93.4487 212.896 92.305L213.086 92.2891L213.436 93.6549L213.848 93.6234C213.833 93.5281 213.944 92.988 214.166 91.9875C214.15 91.7809 213.992 91.654 213.674 91.6381L213.277 91.8922C213.245 91.6062 213.261 90.8598 213.309 89.6687L213.102 89.6847C212.753 89.3352 212.578 89.0492 212.562 88.8111L210.292 89.0332C210.276 88.8745 210.196 88.6363 210.038 88.3348C210.022 88.1281 210.53 87.9215 211.578 87.7153L212.039 87.89L212.467 87.6359C212.483 87.7787 212.562 87.8421 212.721 87.8266L213.15 87.5725C213.166 87.7153 213.245 87.7787 213.404 87.7627L213.61 87.7472L213.578 87.2865C213.261 87.3184 212.419 87.3184 211.086 87.2705L210.657 87.5565L210.641 87.3024C199.986 88.1756 193.937 88.6683 192.492 88.8111C192.301 88.827 191.555 88.8111 190.237 88.7791C190.253 88.9539 190.094 89.0492 189.776 89.0811L189.316 88.8745L187.76 89.2718C187.394 89.3033 186.775 89.2873 185.918 89.1924C185.68 89.3827 185.394 89.494 185.044 89.5259C184.854 89.5414 187.315 89.3986 189.601 89.2399C189.363 89.4306 188.998 89.5414 188.49 89.5893C188.141 89.6212 187.839 89.5734 187.585 89.4306C187.236 89.5893 186.108 89.8434 184.219 90.2244L183.758 90.0501L176.327 91.1933C176.041 91.0505 175.707 91.0026 175.327 91.0345C174.929 91.0665 174.262 91.2093 173.342 91.4634L169.753 92.956L170.023 93.4008C170.198 93.3849 170.452 93.2899 170.753 93.1152L172.024 93.2261L171.865 94.4172C170.69 94.9414 170.007 95.7196 169.816 96.7045C168.054 97.4824 167.18 98.0385 167.18 98.3719L167.196 98.5786L167.466 98.5626L167.943 98.3085L168.499 98.9755L168.578 99.8965C168.609 100.183 165.64 106.424 159.702 118.621C154.557 130.374 151.858 136.806 151.603 137.965C149.841 138.458 148.824 139.172 148.523 140.125C148.555 140.427 149.078 140.634 150.095 140.713L150.143 141.173L149.682 141.936L149.761 142.857C149.809 143.333 151.095 143.699 153.62 143.953C153.604 143.794 153.684 143.699 153.858 143.683C153.906 144.254 153.747 145.366 153.382 147.018L153.652 147.002C154.7 145.573 155.192 144.588 155.144 144.048L155.367 144.032C155.621 144.016 155.891 144.302 156.208 144.921C155.891 145.049 154.779 147.574 152.874 152.513L153.144 152.958L153.414 152.942C155.748 147.034 157.209 143.762 157.812 143.143C160.877 142.873 166.18 142.333 173.707 141.523L174.183 141.237C174.199 141.396 174.294 141.475 174.469 141.459L174.961 141.412L175.438 141.126C175.453 141.285 175.549 141.364 175.723 141.348L181.424 140.856C182.933 140.729 183.647 140.268 183.583 139.49C183.567 139.284 184.457 139.045 186.251 138.791C186.426 138.775 186.68 138.823 187.029 138.934C187.013 138.791 187.918 138.648 189.729 138.49C189.776 137.537 190.078 137.028 190.618 136.981L190.57 136.52C190.062 136.568 189.49 136.695 188.824 136.917C187.633 136.854 186.871 136.758 186.553 136.647C186.235 136.822 185.997 136.917 185.822 136.933L181.853 137.06L181.376 137.314C181.36 137.171 181.265 137.108 181.09 137.124L180.868 137.14L180.36 137.394C180.344 137.251 179.931 137.14 179.105 137.028L178.598 137.33L177.613 137.409L177.597 137.155C182.71 136.6 185.235 135.901 185.171 135.075C185.505 135.043 185.68 135.202 185.711 135.536L187.204 135.154L187.156 134.694L174.914 135.027C174.929 135.186 174.85 135.281 174.676 135.297L173.183 135.17C172.802 135.202 172.484 135.313 172.23 135.504L171.674 135.297C170.134 135.424 168.991 135.615 168.229 135.853C167.18 135.774 166.021 135.789 164.735 135.901L161.988 136.139L160.718 135.996C160.654 135.186 162.226 131.2 165.465 124.053C166.403 121.639 167.26 120.13 168.086 119.558C168.26 119.542 168.515 119.606 168.864 119.749L170.817 119.082L171.817 119.24C173.5 119.098 175.453 118.621 177.692 117.795C178.248 117.748 178.661 117.78 178.963 117.907L180.455 117.557L184.902 117.176C186.791 117.017 188.839 116.604 191.062 115.921L191.015 115.461C190.189 115.54 189.761 115.397 189.729 115.064C189.681 114.445 189.078 114.19 187.918 114.285L187.871 113.825L189.094 113.476L192.301 113.206L192.253 112.745C192.126 112.761 191.475 112.745 190.269 112.697L190.221 112.205L191.459 112.094C191.793 112.062 191.936 111.903 191.904 111.586C190.237 111.633 189.395 111.554 189.379 111.331C177.756 111.903 171.929 112.014 171.897 111.649C171.722 111.665 171.484 111.776 171.166 111.967L170.864 111.49C173.945 104.947 175.755 101.644 176.279 101.596C176.295 101.85 176.168 102.263 175.882 102.819L175.898 103.025L176.39 102.978C177.613 100.055 178.645 98.5467 179.503 98.4832C183.155 98.1653 178.995 97.9272 186.807 96.7045C187.125 96.8473 187.347 96.9108 187.506 96.8948C190.57 96.2757 194.842 95.6243 200.32 94.9573L200.288 94.4966L197.366 94.7667L197.335 94.3063C197.684 94.2744 197.97 94.1631 198.208 93.9729L198.224 94.227C198.383 94.211 198.605 94.0997 198.891 93.909C199.399 93.8616 199.78 93.909 200.05 94.0522C201.066 93.7822 201.892 93.6234 202.495 93.5596L204.321 93.3849C204.766 93.0993 204.972 92.8452 204.957 92.607L204.941 92.4004C204.48 92.4478 203.956 92.4163 203.337 92.305C203.321 92.0509 203.448 91.8762 203.75 91.7968L207.148 91.4793L208.704 91.082C208.72 91.2567 208.799 91.3206 208.926 91.3206C209.085 91.3046 209.307 91.1933 209.593 91.0026C209.672 91.0186 209.768 91.0186 209.847 91.0345C209.641 91.4634 209.402 92.0829 209.164 92.8926L208.72 92.9245C208.688 92.6226 208.609 92.3529 208.466 92.1144L208.243 92.1303C204.115 103.629 202.273 108.981 198.462 117.811C197.763 120.067 197.176 121.321 196.668 121.591C196.684 121.845 196.842 121.972 197.112 121.941C197.207 123.052 196.953 124.148 196.334 125.228C194.572 130.31 193.397 133.09 192.793 133.598L193.19 135.996C193.206 136.25 193.079 136.393 192.809 136.425L192.396 136.457C192.333 135.789 192.094 135.472 191.666 135.52L191.444 135.536C190.904 136.377 190.491 137.346 190.221 138.474L190.634 138.442C191.189 138.077 191.444 137.648 191.396 137.155L192.222 137.076L192.698 137.251C192.317 137.854 192.142 138.331 192.174 138.696L192.396 139.077L191.856 140.348L191.872 140.554C192.348 140.506 192.873 140.665 193.429 140.999C193.809 140.967 194.222 140.792 194.683 140.49C195.159 140.443 196.937 140.427 200.002 140.427L201.542 139.903C203.416 139.887 203.718 139.935 205.337 139.792L206.004 139.728L206.354 139.49L206.37 139.697C208.069 139.553 208.18 139.665 209.514 139.823L209.53 140.03L208.593 140.109L208.624 140.506C208.91 140.475 209.164 140.395 209.371 140.221C209.609 140.205 209.752 140.332 209.768 140.618C209.387 140.649 208.958 140.745 208.481 140.904L208.069 140.76C207.418 140.935 207.561 140.983 207.116 141.015L206.465 140.888C206.481 140.999 206.417 141.078 206.306 141.078C206.322 141.332 206.465 141.459 206.703 141.443L207.37 141.38L210.847 141.078L212.165 140.792C212.181 140.904 212.229 140.967 212.34 140.951L212.975 140.713L214.166 140.618C215.087 140.538 215.071 140.475 217.072 140.157C217.056 140.03 217.104 139.982 217.199 139.967L217.215 140.141C220.47 139.585 220.676 139.553 221.2 139.379L221.248 139.474C222.058 139.284 221.597 139.331 221.82 139.172C221.836 139.315 221.883 139.379 221.963 139.379L222.534 139.331L222.503 138.902L221.343 138.886L221.328 138.855C221.28 138.87 221.248 138.87 221.2 138.886H221.042V138.918C220.264 139.077 220.248 138.966 219.74 139.014L216.834 139.172L216.818 138.966L218.437 138.744L219.025 138.696L219.359 138.458L219.374 138.664C221.661 138.474 222.471 139.045 233.046 136.79C233.618 136.742 233.57 136.266 233.935 135.281C233.742 135.294 233.548 135.25 233.379 135.154C232.506 135.488 232.046 135.329 230.363 135.599C230.22 135.615 230.109 135.488 230.061 135.234L230.045 135.059L231.665 135.106C231.966 135.075 232.554 135.027 233.427 134.535C233.427 134.678 233.109 134.757 233.3 134.741ZM155.113 135.996L154.366 136.059C154.335 135.758 154.731 134.614 155.557 132.661L156.05 132.613C156.066 133.074 155.764 134.201 155.113 135.996ZM156.018 132.375L156.002 132.169C155.986 131.914 156.145 131.74 156.494 131.66L156.51 131.867C156.526 132.169 156.367 132.343 156.018 132.375ZM165.942 140.046L165.958 140.252L164.719 140.364L164.703 140.157L165.942 140.046ZM164.449 139.919C164.465 140.173 164.084 140.459 163.258 140.744L161.734 140.634L161.242 140.681L161.194 140.221L164.449 139.919ZM174.485 93.7188L173.738 93.7822L173.723 93.5281C173.707 93.274 173.85 93.0993 174.167 93.0199L174.437 93.0039L174.945 93.2101C174.961 93.5121 174.818 93.6868 174.485 93.7188ZM185.838 91.4953L186.077 91.4793L186.108 91.9396L185.425 92.0035C185.41 91.7494 185.537 91.5747 185.838 91.4953ZM182.98 92.4957L181.853 92.3685L181.837 92.1622C183.313 92.035 183.806 91.8762 184.711 91.6221C184.727 91.7968 184.886 91.8603 185.171 91.8288L185.203 92.2891L184.758 92.337C184.409 92.3685 184.108 92.321 183.853 92.1782C183.583 92.3529 183.297 92.4638 182.98 92.4957ZM184.393 96.6092L184.378 96.4026L186.203 96.2278L186.219 96.4345L184.393 96.6092ZM186.347 95.0208L186.331 94.7667L187.22 94.6873L187.236 94.9414L186.347 95.0208ZM186.553 91.9081L186.315 91.9241L186.521 91.4314L188.554 91.2412L188.57 91.4953C188.046 91.5427 187.363 91.6855 186.553 91.9081ZM187.585 96.2913L187.553 95.8309L188.442 95.7516C188.744 95.7196 188.903 95.8626 188.919 96.1804L187.585 96.2913ZM192.968 88.9539L191.824 89.2718L191.618 89.2873C191.078 89.3352 190.379 89.3193 189.554 89.2399C191.031 89.1445 192.444 89.0332 192.968 88.9539ZM191.745 94.0363L191.761 94.2425L190.189 94.3857L190.173 94.1791L191.745 94.0363ZM194.317 95.2589C194.302 95.0686 194 94.9414 193.381 94.878L191.809 95.3227L190.602 95.3702C190.332 95.1795 190.189 95.0527 190.173 94.9573L191.571 95.0367L194.715 94.5285L196.318 94.5919L196.334 94.846C195.54 94.9254 194.873 95.0686 194.317 95.2589ZM210.498 91.082C210.689 91.098 210.816 91.098 210.863 91.098C211.419 90.5583 212.039 90.1294 212.753 89.8275C212.181 92.337 211.292 94.195 210.07 95.4021L209.18 94.862C209.926 92.972 210.371 91.7175 210.498 91.082ZM207.767 95.7675L207.989 95.7516C207.687 96.3232 207.418 96.6247 207.195 96.6407L207.148 96.0372C207.291 96.0372 207.497 95.9418 207.767 95.7675ZM206.004 99.9759C206.433 98.2606 206.846 97.2921 207.227 97.038L207.243 97.2442C207.021 98.8327 206.671 99.6744 206.211 99.7378L206.29 100.738C205.909 101.278 205.734 101.691 205.75 102.009L205.528 102.025L205.401 100.643C205.655 100.611 205.862 100.389 206.004 99.9759ZM205.322 102.263C205.338 102.501 205.179 103.057 204.861 103.915L204.639 103.931L204.591 103.327C204.893 102.628 205.147 102.279 205.322 102.263ZM192.508 139.458L192.492 139.284L192.904 139.252L192.952 139.855C192.73 139.871 192.571 139.744 192.508 139.458ZM210.816 139.935C210.8 139.792 210.736 139.728 210.594 139.744L209.561 139.839L209.546 139.633H209.641L212.086 139.427L212.102 139.633C211.387 139.665 210.959 139.776 210.816 139.935ZM209.593 139.427C209.688 139.474 209.641 139.522 209.593 139.553C209.546 139.538 209.482 139.49 209.593 139.427ZM209.72 136.568L208.355 136.679L208.339 136.472L209.577 136.361L210.657 136.091C210.673 136.218 210.736 136.266 210.879 136.25C212.165 136.028 212.039 135.964 212.658 135.917C212.864 135.901 212.991 136.028 213.007 136.282L209.72 136.568ZM214.5 136.155C213.738 136.075 213.69 136.012 213.15 136.059L213.134 135.885L214.357 135.774L214.373 135.949C214.246 135.964 214.706 135.996 214.5 136.155ZM214.595 135.933L214.579 135.758L215.246 135.694L215.262 135.869L214.595 135.933ZM216.072 135.805L216.056 135.631C216.167 135.615 216.326 135.536 216.532 135.376C216.866 135.345 217.04 135.567 217.072 135.821L216.072 135.805ZM217.961 135.567L217.945 135.361L218.755 135.297L218.771 135.504L217.961 135.567ZM219.089 135.472C219.073 135.234 219.168 135.091 219.375 135.059L219.644 135.408C219.629 135.297 219.676 135.234 219.771 135.218L219.978 135.599L219.089 135.472ZM207.1 140.65L207.068 140.252L206.941 140.268L206.973 140.665L207.1 140.65ZM235 133.423C235.126 133.344 235.19 133.264 234.888 133.217C234.745 133.376 235.047 133.423 234.73 133.439L234.745 133.582C234.777 133.55 234.856 133.502 234.92 133.455L234.745 133.598V133.614L234.412 134.043L235.078 133.804H235.158L235.126 133.407L235 133.423ZM236.159 134.329L236.031 134.345L236.063 134.741L237 134.662C236.984 134.408 236.365 134.329 236.159 134.329ZM234.714 133.63L234.73 133.614V133.598C234.73 133.598 234.714 133.614 234.714 133.63Z" fill="black"/>
<path d="M173.754 104.232L173.77 104.486L174.294 104.439C174.278 104.28 174.342 104.026 174.453 103.708L174.406 103.248C174.183 103.264 173.961 103.597 173.754 104.232ZM168.737 92.1622L168.689 91.7015L167.943 91.7649L167.99 92.2257L168.737 92.1622ZM154.176 119.431C154.144 119.002 152.81 117.335 150.174 114.397C150.127 113.857 151.032 113.047 152.89 111.983L158.193 107.361C159.384 105.852 160.083 103.406 160.289 100.008L160.226 99.2296C160.019 96.8788 158.32 94.9893 155.097 93.544C153.191 92.2576 149.761 91.5427 144.807 91.4155C140.711 91.7649 135.359 93.2261 128.77 95.815C126.959 97.1173 124.895 98.4195 122.577 99.7218L122.609 100.119C122.751 100.103 122.974 100.024 123.228 99.8491C123.498 99.8172 123.657 99.9444 123.672 100.199L124.07 99.9919L124.26 99.9759L124.276 100.151C124.292 100.357 122.863 101.485 119.973 103.502L120.195 103.915L120.004 103.931L119.528 103.756C119.544 103.899 119.337 103.994 118.941 104.026L118.957 104.201L119.417 104.772C119.274 104.788 119.052 104.725 118.75 104.614C118.083 104.677 117.432 105.026 116.781 105.693L117.051 104.518C118.02 100.341 118.687 96.6407 119.036 93.4327L118.988 93.2261C118.321 92.7973 117.67 92.1937 117.067 91.4314C117.083 90.9392 117.083 90.6532 117.067 90.5898L117.019 90.415L116.829 90.4629C114.733 93.6075 110.699 98.9755 104.713 106.567C100.156 111.967 97.8056 114.968 97.6628 115.572C95.8051 117.494 94.9157 118.653 95.011 119.05C94.5188 119.368 94.3122 119.685 94.392 120.035C94.2488 120.067 94.1535 120.019 94.122 119.876C93.3279 121.162 92.153 121.988 90.5808 122.354L88.9293 122.734C88.7071 122.782 88.5958 122.941 88.6118 123.211L88.6597 123.417L89.2786 123.275L89.3265 123.449L87.929 123.989L85.4519 124.561L84.1501 124.64C83.9595 124.831 85.1819 124.624 84.7057 124.736L83.086 125.117C82.1017 125.339 81.5617 125.26 81.4664 124.863L81.2758 124.91C81.3077 125.085 81.3236 125.212 81.2917 125.323L81.1964 124.926L79.8942 125.228C79.7993 124.624 78.0365 122.433 74.6225 118.653C74.5591 117.923 75.766 116.858 78.2271 115.477L85.1819 109.362C86.7381 107.361 87.659 104.153 87.9609 99.7378L87.8656 98.7054C87.5956 95.5928 85.341 93.0833 81.1011 91.1458C78.5925 89.4465 74.0829 88.541 67.5724 88.3982C62.1735 88.8585 55.1234 90.7804 46.4533 94.1316C44.0715 95.8626 41.3563 97.5777 38.3077 99.277L38.3551 99.8172C38.5617 99.8012 38.8317 99.6903 39.1651 99.4996C39.5145 99.4677 39.7052 99.6265 39.7367 99.9444L40.2767 99.6424L40.5467 99.6265L40.5622 99.8806C40.5782 100.135 38.6885 101.612 34.8618 104.312L35.1637 104.788L34.8937 104.804L34.3062 104.598C34.3222 104.756 34.0522 104.868 33.4962 104.915L33.5281 105.201L34.163 105.9C33.9569 105.916 33.6709 105.852 33.306 105.725C32.0672 105.836 30.8604 106.726 29.6695 108.409L29.9714 108.886C31.0035 107.933 31.6066 107.457 31.7812 107.441L31.8451 108.219C31.6704 108.234 31.4004 108.346 31.035 108.536L31.6863 109.521C32.9161 108.192 34.3085 107.023 35.8305 106.043C36.5767 106.233 36.974 106.472 36.9895 106.726L37.5615 106.678C41.6582 103.645 45.7071 101.453 49.7245 100.103L49.7724 100.643C49.0258 101.755 48.5175 102.327 48.2476 102.358C48.2796 102.74 48.4068 103.073 48.6449 103.359C48.7083 104.042 46.8821 108.648 43.1825 117.16C34.7824 136.949 27.7324 151.592 22 161.057C22.016 161.248 22.1271 161.502 22.3334 161.82C23.7469 161.486 24.6358 161.137 25.0171 160.803L25.3186 160.772L25.3665 161.311L25.8902 161.264L26.4302 160.962C26.4461 161.121 26.6208 161.201 26.9862 161.169L27.0336 161.709C27.0811 162.233 26.7796 163.027 26.1442 164.123C25.5727 164.774 24.9533 166.14 24.3024 168.22L24.3184 168.474L24.8425 168.427C27.1289 165.87 28.8598 163.36 30.0507 160.915C36.7199 158.961 41.801 157.039 45.3262 155.15C48.867 154.848 51.5663 153.911 53.4085 152.37L53.3766 152.084L52.0429 152.481L51.741 152.513L51.7095 152.227C54.3134 151.83 56.1077 151.258 57.1084 150.465C62.1735 146.557 66.0003 143.794 68.5887 142.158C73.9082 138.251 77.3696 134.439 78.9418 130.739C79.2274 130.675 79.5133 130.612 79.8308 130.533C80.577 130.501 80.9902 130.485 81.1011 130.453C81.0696 130.31 81.133 130.231 81.2758 130.199C82.4667 130.072 81.8951 130.278 82.6573 130.104L84.6582 129.643L84.9916 129.564L84.8329 129.659C85.0551 129.691 85.2932 129.675 85.5632 129.612L85.7059 130.199L76.6075 144.667L74.591 147.193L73.6063 150.496L73.7969 150.449L74.7812 150.036L74.4638 151.322L74.5591 151.703L74.8291 152.037C74.7019 152.069 74.6544 152.148 74.6859 152.291L74.7338 152.497L75.1466 152.402C75.7499 151.878 76.0039 151.401 75.9087 150.973C76.5596 151.084 76.9884 151.131 77.2109 151.068L77.2584 151.274C76.8615 151.37 76.6549 151.687 76.6234 152.227L76.6709 152.433L76.8935 152.386C80.1961 148.781 88.2943 136.441 94.7888 128.071C94.5822 127.166 97.9647 125.911 104.951 124.291L105.174 124.244C105.428 125.339 104.888 127.991 103.554 132.2C102.696 134.741 102.284 136.139 102.347 136.361C101.235 139.744 100.711 141.571 100.775 141.856L98.2981 149.972C96.694 154.133 95.4716 158.5 94.6142 163.106C94.7569 163.075 94.9795 163.091 95.2969 163.17L95.6463 162.868C95.6778 163.011 95.7731 163.059 95.9163 163.027L95.7731 162.439L96.8532 162.408C97.1706 162.328 97.4406 161.931 97.6628 161.201C97.6153 160.105 97.8375 159.517 98.3296 159.39C98.9965 156.786 99.4097 155.483 99.5524 155.435C100.172 152.847 100.632 151.37 100.934 151.004C101.871 147.638 102.554 145.906 102.998 145.795L103.094 146.208L102.411 147.971C101.22 153.26 100.013 157.437 98.7903 160.502L99.1397 162.026L99.3618 161.979C102.316 155.626 106.571 143.047 112.113 124.244C112.271 122.592 113.066 121.305 114.479 120.4L114.161 120.067L114.113 119.892C114.749 119.749 115.193 119.495 115.447 119.146C115.415 119.002 114.86 118.796 113.78 118.51L116.543 106.662C117.146 106.122 117.496 105.837 117.607 105.837L117.654 106.44C117.512 106.456 117.289 106.535 117.035 106.71L117.559 107.457C118.512 106.424 119.544 105.535 120.671 104.788C121.243 104.947 121.529 105.138 121.561 105.328L121.973 105.296C125.117 102.994 128.198 101.342 131.231 100.341L131.262 100.738C130.707 101.58 130.326 102.009 130.119 102.025C130.151 102.311 130.23 102.565 130.373 102.787C130.421 103.311 129.055 106.805 126.261 113.285C119.877 128.293 114.526 139.395 110.175 146.605C110.191 146.748 110.286 146.939 110.461 147.193C111.525 146.939 112.208 146.669 112.478 146.414L112.668 146.399L112.7 146.795L113.145 146.764L113.542 146.557C113.558 146.668 113.701 146.716 113.97 146.7L114.002 147.129C114.034 147.51 113.812 148.114 113.32 148.94C112.859 149.432 112.383 150.465 111.875 152.037L111.89 152.243L112.303 152.211C114.034 150.274 115.352 148.368 116.257 146.494C121.322 145.001 125.181 143.556 127.848 142.126C130.564 141.888 132.612 141.189 134.01 140.014L133.994 139.807L132.961 140.109L132.739 140.125L132.723 139.919C134.692 139.633 136.074 139.188 136.82 138.601C140.663 135.647 143.569 133.534 145.538 132.295C151.667 127.833 154.525 123.545 154.176 119.431ZM153.128 119.701L153.271 121.305C153.08 121.703 152.874 121.909 152.683 121.925L152.445 119.193C152.89 119.352 153.112 119.511 153.128 119.701ZM32.8928 106.774L32.6232 106.789L32.5753 106.297L33.6709 106.202L33.6868 106.456C33.5122 106.472 33.2421 106.567 32.8928 106.774ZM27.5417 160.311C26.9068 160.025 26.3349 159.914 25.8427 159.962L25.7793 159.183C25.7474 158.882 25.9221 158.675 26.3034 158.596C26.6523 158.564 26.8589 158.818 26.8908 159.327C27.8119 158.199 28.32 157.627 28.4151 157.611L29.0026 157.849C28.812 159.437 28.3198 160.248 27.5417 160.311ZM84.7216 100.484C84.4516 100.516 83.9116 99.6744 83.1339 98.0065L83.086 97.5143C83.5941 97.4668 84.1182 98.2926 84.6738 99.9919L84.7216 100.484ZM83.9595 94.5604L83.7369 95.0846L75.9721 91.8443C81.1489 92.019 83.8167 92.9245 83.9595 94.5604ZM51.1695 122.719L50.0739 122.814L50.0264 122.322L51.122 122.226L51.1695 122.719ZM50.2801 105.805L50.5501 105.789L50.6139 106.567C50.3598 106.583 50.0264 106.964 49.6132 107.695L49.5658 107.155C50.0579 106.567 50.312 106.122 50.2801 105.805ZM47.9776 111.236L48.073 112.268L47.8034 112.284L47.708 111.252L47.9776 111.236ZM46.7712 113.174L47.2953 113.126C47.2474 113.984 47.0093 114.445 46.5805 114.476L46.3105 114.492C46.644 113.92 46.8027 113.476 46.7712 113.174ZM45.8658 115.874L46.1678 115.842L46.1833 116.096L45.6912 116.922L45.1671 116.97L45.1516 116.715C45.6756 116.668 45.9137 116.398 45.8658 115.874ZM44.9769 118.304L44.8181 119.606L44.5481 119.622L44.4368 118.335L44.9769 118.304ZM36.0686 143.635C35.7193 145.414 35.3384 146.319 34.9412 146.351L34.9256 146.097C34.8303 145.223 35.2112 144.398 36.0686 143.635ZM34.433 147.177L34.449 147.431C34.4809 147.78 34.3222 147.987 33.9728 148.002L33.9569 147.748C33.9249 147.447 34.0837 147.256 34.433 147.177ZM33.9569 154.53L34.7824 154.451L34.8143 154.737C34.6077 154.752 34.3377 154.864 34.0043 155.054L33.4802 155.102C33.4488 154.832 33.6234 154.625 33.9569 154.53ZM57.4574 147.272C52.821 149.559 50.0898 151.116 49.2798 151.925C44.2622 153.672 41.7691 154.752 41.817 155.181C37.3549 156.944 34.4171 158.246 33.0041 159.056C32.6706 159.088 32.1944 158.961 31.5591 158.675C31.4797 157.77 31.8925 157.039 32.766 156.452C33.5441 156.388 34.2903 156.5 35.005 156.801C35.8305 156.372 37.2755 155.896 39.3239 155.388L39.2764 154.848L37.6249 154.99C37.8311 154.705 39.4192 153.959 42.4044 152.751L43.23 152.672L43.2459 152.926C41.8329 153.053 41.0548 153.466 40.8801 154.213C40.9116 154.546 41.1022 154.689 41.4516 154.657C42.5157 153.99 43.0393 153.593 43.0238 153.482C45.0403 153.101 50.6139 150.179 59.7443 144.731L59.7917 145.223C59.8077 145.461 59.0296 146.128 57.4574 147.272ZM43.4526 151.878C44.7862 151.767 45.9297 151.227 46.8821 150.29C47.2633 150.258 47.4699 150.401 47.4855 150.734C46.8346 150.798 45.5803 151.338 43.7541 152.386L43.484 152.402L43.4526 151.878ZM66.0481 134.519L59.0455 140.078C53.8372 143.492 51.0426 145.207 50.6294 145.239C42.341 149.797 37.1802 152.164 35.1797 152.339L34.8777 152.37C35.1318 151.433 38.8158 143.889 45.9612 129.691C49.1051 129.421 54.0594 127.96 60.8079 125.292L62.4595 125.149C65.8734 124.847 68.4299 125.514 70.113 127.102L70.2083 128.134C68.954 131.772 67.5565 133.9 66.0481 134.519ZM52.3604 126.816L53.4878 126.721L53.5038 126.975L52.3763 127.071L52.3604 126.816ZM68.1918 124.132L69.0174 124.053C69.7796 124.418 70.1764 124.736 70.2083 125.022L70.2243 125.276C69.4936 125.339 68.8108 124.958 68.1918 124.132ZM70.4304 111.379C69.7002 112.253 67.6993 113.746 64.4285 115.842C63.3485 115.937 59.3311 117.494 52.3763 120.543C52.0286 120.384 51.6456 120.318 51.2648 120.352L51.2173 119.86C51.138 118.86 51.5822 117.605 52.567 116.08C53.1066 113.221 53.6944 111.586 54.3453 111.189L60.1411 98.1498C60.0775 97.3397 61.316 96.7202 63.8566 96.2913L64.6825 96.2119L64.7459 96.9586C67.239 96.5773 68.7948 96.3551 69.3983 96.3072C74.0035 95.9103 76.4009 96.8473 76.5915 99.0868L77.1156 99.0389L77.0043 97.7209L77.5762 97.6731C78.9259 98.4194 79.6561 99.3249 79.7514 100.389C79.8149 101.12 79.418 102.025 78.5765 103.105C78.2271 103.136 78.0205 102.882 77.989 102.374L77.4171 102.422L77.2903 104.01C74.9559 107.504 73.2569 109.299 72.2092 109.394C71.2564 110.712 70.6689 111.363 70.4304 111.379ZM73.9876 120.511C73.511 120.193 73.1301 120.051 72.8441 120.067L72.7807 119.288L73.3048 119.24L74.4638 119.924C74.5117 120.289 74.3525 120.479 73.9876 120.511ZM77.6716 124.879C78.1797 125.085 78.4812 125.307 78.5446 125.514L78.2905 125.577L78.3065 125.593C78.259 125.593 78.1952 125.609 78.1478 125.625L77.7665 125.927L77.6716 124.879ZM78.0205 127.071L77.9731 126.864L78.6399 126.705L78.6878 126.912L78.0205 127.071ZM79.6246 128.865C80.3074 128.754 80.6408 128.706 81.9111 128.42L81.9586 128.627L79.5453 129.183C79.5767 129.071 79.6087 128.961 79.6246 128.865ZM81.9745 129.866C80.9583 129.961 81.1804 129.834 79.5608 130.199L79.5133 129.992L81.5458 129.341L82.5145 129.119L82.6098 129.5C82.1652 129.596 82.4826 129.596 81.9745 129.866ZM84.1182 129.357C83.8801 129.421 83.6895 129.31 83.5782 129.04L84.1976 128.897C84.4676 128.833 84.6423 128.945 84.7057 129.215L84.1182 129.357ZM89.9299 123.1L89.8821 122.894L90.8827 122.655L90.9781 123.036L89.9299 123.1ZM96.1385 161.185C96.2019 160.899 96.2178 160.692 96.1859 160.549L96.4085 160.502C96.6785 160.438 96.8372 160.534 96.9006 160.788L96.9485 160.994L96.1385 161.185ZM100.489 124.736L100.045 124.656C99.3303 124.942 98.7269 125.149 98.2343 125.26L97.8215 125.355C97.5834 125.419 97.3928 125.323 97.2975 125.069L100.203 124.402L101.156 123.957L101.474 124.323C101.013 124.418 100.68 124.561 100.489 124.736ZM102.728 124.021L102.68 123.815C102.824 123.783 103.014 123.672 103.22 123.465L105.285 122.989L105.332 123.195C104.237 123.465 103.363 123.735 102.728 124.021ZM103.046 119.844C102.903 119.876 102.712 120.003 102.474 120.193C102.442 120.051 102.157 120.051 101.617 120.177C101.521 119.781 103.046 119.225 106.206 118.494L106.65 118.399L106.746 118.78C104.523 119.431 103.284 119.797 103.046 119.844ZM108.603 113.841C108.381 116.366 107.492 117.795 105.92 118.161L105.872 117.954L104.475 118.494L103.856 118.637C103.538 118.717 103.252 118.701 102.998 118.621L102.871 118.065C102.824 117.859 104.84 115.064 108.937 109.696L109.413 109.775C109.588 110.506 109.318 111.856 108.603 113.841ZM118.433 105.423L118.242 105.439L118.21 105.042L119.036 104.963L119.052 105.169C118.909 105.201 118.703 105.281 118.433 105.423ZM114.383 146.097C113.907 145.874 113.478 145.779 113.113 145.811L113.066 145.207C113.05 145.001 113.177 144.858 113.446 144.779C113.716 144.747 113.875 144.937 113.907 145.35C114.59 144.477 114.971 144.032 115.05 144.032L115.479 144.207C115.32 145.414 114.955 146.049 114.383 146.097ZM157.796 100.675C157.59 100.691 157.193 100.055 156.574 98.7688L156.542 98.3719C156.939 98.34 157.352 98.9595 157.765 100.23L157.796 100.675ZM157.225 96.1325L157.034 96.5454L151.159 94.0837C155.081 94.211 157.113 94.8939 157.225 96.1325ZM132.311 117.526L131.485 117.605L131.453 117.208L132.279 117.128L132.311 117.526ZM131.628 104.677L131.85 104.661L131.898 105.265C131.691 105.281 131.437 105.566 131.136 106.122L131.104 105.725C131.469 105.265 131.644 104.915 131.628 104.677ZM129.897 108.806L129.961 109.585L129.738 109.601L129.675 108.822L129.897 108.806ZM128.96 110.283L129.373 110.252C129.325 110.919 129.151 111.268 128.849 111.3L128.627 111.315C128.865 110.871 128.976 110.522 128.96 110.283ZM128.293 112.316L128.484 112.3L128.5 112.507L128.134 113.142L127.722 113.174L127.706 112.967C128.134 112.935 128.325 112.713 128.293 112.316ZM127.626 114.158L127.484 115.175L127.293 115.191L127.214 114.19L127.626 114.158ZM120.846 133.423C120.576 134.758 120.29 135.44 119.988 135.472L119.973 135.297C119.925 134.63 120.211 133.995 120.846 133.423ZM119.592 136.107L119.607 136.282C119.639 136.568 119.512 136.726 119.226 136.742L119.211 136.536C119.195 136.329 119.322 136.186 119.592 136.107ZM119.242 141.697L119.878 141.65L119.893 141.856C119.75 141.872 119.528 141.952 119.274 142.095L118.861 142.126C118.845 141.904 118.972 141.761 119.242 141.697ZM137.074 136.187C133.581 137.918 131.501 139.093 130.85 139.697C127.039 141.03 125.149 141.856 125.181 142.19C121.799 143.54 119.576 144.509 118.528 145.128C118.274 145.144 117.908 145.049 117.432 144.826C117.368 144.144 117.686 143.587 118.353 143.175C118.957 143.127 119.528 143.207 120.052 143.429C120.687 143.111 121.783 142.762 123.339 142.364L123.307 141.968L122.021 142.079C122.18 141.856 123.402 141.285 125.673 140.364L126.308 140.316L126.324 140.49C125.245 140.586 124.641 140.904 124.514 141.475C124.53 141.729 124.689 141.856 124.959 141.825C125.753 141.301 126.133 140.999 126.133 140.904C127.658 140.634 131.882 138.41 138.821 134.249L138.853 134.646C138.853 134.805 138.265 135.313 137.074 136.187ZM126.435 139.681C127.468 139.585 128.341 139.188 129.071 138.489C129.341 138.474 129.5 138.585 129.516 138.839C129.039 138.886 128.103 139.284 126.689 140.046L126.467 140.062L126.435 139.681ZM143.617 126.483L138.329 130.739C134.375 133.328 132.231 134.63 131.898 134.662C125.61 138.124 121.703 139.919 120.163 140.046L119.941 140.062C120.132 139.347 122.942 133.614 128.373 122.846C130.738 122.64 134.486 121.512 139.631 119.479L140.917 119.368C143.505 119.146 145.442 119.654 146.713 120.876L146.776 121.655C145.808 124.386 144.76 125.99 143.617 126.483ZM133.231 120.638L134.057 120.559L134.073 120.765L133.247 120.845L133.231 120.638ZM145.252 118.589L145.887 118.542C146.475 118.828 146.776 119.082 146.792 119.288L146.808 119.463C146.252 119.511 145.728 119.225 145.252 118.589ZM146.919 108.917C146.363 109.585 144.855 110.728 142.394 112.316C141.568 112.396 138.519 113.571 133.247 115.858C132.993 115.762 132.707 115.731 132.406 115.746L132.374 115.35C132.311 114.587 132.644 113.634 133.375 112.475C133.787 110.283 134.248 109.061 134.724 108.774L139.154 98.8642C139.107 98.2766 140.043 97.8003 141.949 97.4349L142.584 97.3875L142.632 97.9906C144.505 97.689 145.681 97.5144 146.157 97.4668C149.65 97.1649 151.476 97.8637 151.619 99.579L152.032 99.5471L151.953 98.5941L152.366 98.5626C153.382 99.1183 153.922 99.7852 153.985 100.579C154.033 101.151 153.747 101.85 153.144 102.66C152.874 102.692 152.715 102.501 152.683 102.088L152.27 102.12L152.143 103.311C150.381 105.995 149.094 107.377 148.285 107.441C147.57 108.409 147.125 108.902 146.919 108.917ZM148.777 115.524L148.729 114.921L149.142 114.889L150.031 115.429C150.047 115.683 149.92 115.826 149.65 115.858C149.269 115.62 148.984 115.508 148.777 115.524ZM74.8606 154.101L74.4478 154.197L74.0985 154.498C74.1623 154.752 74.321 154.848 74.591 154.784C74.8606 154.721 74.9719 154.562 74.9085 154.308L74.8606 154.101ZM73.2888 150.973L73.3363 151.179C73.6063 151.116 73.7176 150.957 73.6542 150.703L73.6063 150.496C73.3522 150.559 73.241 150.719 73.2888 150.973ZM84.531 129.85L84.8329 129.659C84.7691 129.659 84.7216 129.643 84.6738 129.627C84.5629 129.659 84.515 129.738 84.531 129.85ZM84.4676 124.37L84.9438 124.259L84.8485 123.846L84.3723 123.957L84.4676 124.37ZM196.684 140.411L195.604 140.284L195.413 140.697L195.429 140.904L201.86 140.364L201.828 139.967L196.684 140.411ZM202.559 139.919L202.59 140.316H202.654L202.622 139.919H202.559ZM229.537 136.393L229.569 136.79L230.267 136.917L230.235 136.52L229.537 136.393ZM228.552 136.472C223.725 137.552 223.122 137.362 222.106 137.441L222.137 137.838L222.582 137.807L222.82 137.791L222.757 137.743L223.281 137.537C228.06 137.012 228.616 137.203 228.568 136.663L228.552 136.472ZM199.574 129.453L199.145 129.31C198.796 130.247 198.621 130.803 198.637 130.961L198.652 131.136C198.986 131.12 199.288 130.549 199.574 129.453ZM193.762 126.324L193.746 126.118L193.524 126.134L193.127 126.388L193.349 126.769C193.651 126.737 193.793 126.594 193.762 126.324ZM206.386 139.379L206.354 138.982L206.227 138.998L206.258 139.395L206.386 139.379ZM232.586 133.471L232.887 133.439C233.062 133.423 233.141 133.28 233.125 133.026L232.951 132.645C231.855 132.74 231.347 132.788 230.458 133.28L230.442 133.074L229.124 133.201C229.092 132.804 228.981 132.597 228.807 132.613L228.124 132.677C227.33 132.74 226.949 132.709 226.552 133.01C226.536 132.867 226.488 132.804 226.409 132.804L225.647 132.867L225.202 133.121C225.186 132.978 225.138 132.915 225.059 132.915L224.789 133.153L224.773 132.947L223.709 132.867L223.455 132.883L223.487 133.28L224.027 133.423L224.535 133.392C224.71 133.502 224.9 133.534 225.123 133.518L225.567 133.296L225.583 133.471C223.09 134.09 223.106 133.979 221.391 134.265C221.2 134.138 221.058 134.074 220.962 134.09L220.93 134.122C220.74 134.106 220.629 133.979 220.613 133.772L221.502 133.661C221.566 133.661 221.613 133.725 222.105 133.82C222.82 133.471 222.852 133.328 223.233 133.296L223.201 132.899C220.756 133.376 221.74 133.058 218.676 133.328L218.533 133.344L218.501 132.947C222.439 132.47 221.121 132.74 222.471 132.359C222.487 132.502 222.535 132.565 222.614 132.565C222.758 132.418 222.948 132.322 223.154 132.295L223.424 132.28C224.805 132.168 225.266 132.439 227.997 131.676L228.012 131.851L228.457 131.628L228.87 131.597C228.838 131.2 229.442 131.136 229.648 131.12L229.617 130.691C224.821 131.66 223.566 131.39 222.233 131.772L222.217 131.597C220.962 131.819 220.915 131.724 220.597 131.74C220.502 131.756 220.359 131.835 220.2 131.994C220.184 131.851 220.137 131.787 220.041 131.787C219.994 131.787 219.978 131.803 219.962 131.803L215.897 132.47C215.881 132.359 215.833 132.295 215.738 132.311C213.626 132.756 214.198 132.835 211.371 133.09C211.245 133.106 211.07 133.169 210.848 133.312C210.832 133.201 210.768 133.137 210.625 133.153L208.894 133.296L207.735 133.582C207.719 133.471 207.656 133.407 207.513 133.423C206.862 133.598 206.29 133.709 205.83 133.741H205.798C205.512 133.772 205.941 133.661 205.719 133.566L205.369 133.772C204.861 133.82 205.131 133.741 203.384 133.757C200.32 134.138 200.653 134.185 200.32 134.201L199.176 134.122C199.192 134.233 199.129 134.313 199.002 134.313C197.7 134.138 197.033 133.931 197.017 133.693C197.192 132.454 197.493 131.819 197.922 131.787L198.145 131.772L197.954 132.184L198.176 132.168C198.589 131.946 198.78 131.74 198.764 131.549L198.732 131.12L198.319 131.152L198.287 130.755C198.255 130.453 198.303 130.183 198.414 129.961L199.351 128.452L199.383 128.849L199.828 128.817L199.796 128.42L199.542 128.055C199.875 127.769 200.129 127.61 200.336 127.594L200.32 127.388L199.716 127.436L199.669 126.832C200.876 124.323 201.447 122.862 201.415 122.449L201.844 122.624C202.114 122.608 202.241 122.449 202.225 122.163L201.812 122.195L201.797 122.02C201.767 121.73 201.823 121.438 201.955 121.178C202.606 120.495 202.908 119.813 202.844 119.098C202.972 119.082 203.035 119.146 203.051 119.288C203.607 118.971 204.036 118.129 204.353 116.731C205.337 114.953 206.735 111.395 208.561 106.075C212.055 96.6726 211.911 95.6722 212.404 93.4487L211.991 93.4802C212.023 93.7662 211.959 94.0363 211.832 94.2904C211.546 94.1791 211.324 94.1157 211.165 94.1316L211.149 93.9569C211.086 93.1467 211.419 92.1782 212.181 91.0345L212.372 91.0186L212.721 92.3844L213.134 92.3529C213.118 92.2576 213.229 91.7175 213.452 90.717C213.436 90.5104 213.277 90.3835 212.959 90.3676L212.563 90.6217C212.531 90.3357 212.547 89.5893 212.594 88.3982L212.388 88.4142C212.039 88.0647 211.864 87.7787 211.848 87.5406L209.577 87.7627C209.561 87.604 209.482 87.3658 209.323 87.0639C209.307 86.8576 209.816 86.651 210.863 86.4448L211.324 86.6195L211.753 86.3654C211.769 86.5082 211.848 86.5716 212.007 86.5557L212.435 86.3016C212.451 86.4448 212.531 86.5082 212.689 86.4922L212.896 86.4763L212.864 86.016C212.547 86.0475 211.705 86.0475 210.371 86L209.942 86.286L209.926 86.0319C199.272 86.9051 193.222 87.3978 191.777 87.5406C191.586 87.5565 190.84 87.5406 189.522 87.5086C189.538 87.6834 189.379 87.7787 189.062 87.8106L188.601 87.604L187.045 88.0013C186.68 88.0328 186.061 88.0168 185.203 87.9215C184.965 88.1122 184.679 88.2235 184.33 88.2554C184.139 88.2709 186.601 88.1281 188.887 87.9694C188.649 88.1601 188.284 88.2709 187.776 88.3188C187.426 88.3503 187.125 88.3029 186.871 88.1601C186.521 88.3188 185.394 88.5729 183.504 88.9539L183.044 88.7791L175.612 89.9228C175.327 89.78 174.993 89.7321 174.612 89.764C174.215 89.7955 173.548 89.9388 172.627 90.1929L169.039 91.6855L169.308 92.1303C169.483 92.1144 169.737 92.019 170.039 91.8443L171.309 91.9556L171.15 93.1467C169.975 93.6709 169.293 94.4491 169.102 95.4336C167.34 96.2119 166.466 96.768 166.466 97.1014L166.482 97.3077L166.752 97.2921L167.228 97.038L167.784 97.705L167.863 98.626C167.895 98.9121 164.926 105.153 158.987 117.351C153.842 129.103 151.143 135.536 150.889 136.695C149.126 137.187 148.11 137.902 147.808 138.855C147.84 139.156 148.364 139.363 149.38 139.442L149.428 139.903L148.968 140.665L149.047 141.587C149.095 142.063 150.381 142.428 152.906 142.682C152.89 142.524 152.969 142.428 153.144 142.412C153.191 142.984 153.032 144.096 152.667 145.748L152.937 145.732C153.985 144.302 154.477 143.317 154.43 142.778L154.652 142.762C154.906 142.746 155.176 143.032 155.494 143.651C155.176 143.778 154.065 146.303 152.159 151.242L152.429 151.687L152.699 151.671C155.033 145.763 156.494 142.492 157.097 141.872C160.162 141.602 165.465 141.062 172.992 140.252L173.469 139.966C173.484 140.125 173.58 140.205 173.754 140.189L174.247 140.141L174.723 139.855C174.739 140.014 174.834 140.093 175.009 140.078L180.709 139.585C182.218 139.458 182.933 138.998 182.869 138.219C182.853 138.013 183.742 137.775 185.536 137.521C185.711 137.505 185.965 137.552 186.315 137.663C186.299 137.521 187.204 137.378 189.014 137.219C189.062 136.266 189.363 135.758 189.903 135.71L189.856 135.25C189.348 135.297 188.776 135.424 188.109 135.647C186.918 135.583 186.156 135.488 185.838 135.376C185.521 135.551 185.282 135.647 185.108 135.662L181.138 135.789L180.662 136.043C180.646 135.901 180.55 135.837 180.376 135.853L180.154 135.869L179.645 136.123C179.629 135.98 179.217 135.869 178.391 135.758L177.883 136.059L176.899 136.139L176.883 135.885C181.996 135.329 184.52 134.63 184.457 133.804C184.79 133.772 184.965 133.931 184.996 134.265L186.489 133.884L186.442 133.423L174.199 133.757C174.215 133.915 174.136 134.011 173.961 134.027L172.468 133.9C172.087 133.931 171.77 134.043 171.516 134.233L170.96 134.027C169.419 134.154 168.276 134.344 167.514 134.583C166.466 134.503 165.307 134.519 164.021 134.63L161.274 134.868L160.004 134.725C159.94 133.915 161.512 129.929 164.751 122.782C165.688 120.368 166.546 118.86 167.371 118.288C167.546 118.272 167.8 118.335 168.149 118.478L170.102 117.811L171.103 117.97C172.786 117.827 174.739 117.351 176.978 116.525C177.534 116.477 177.946 116.509 178.248 116.636L179.741 116.287L184.187 115.905C186.077 115.747 188.125 115.334 190.348 114.651L190.3 114.19C189.475 114.27 189.046 114.127 189.014 113.793C188.966 113.174 188.363 112.919 187.204 113.015L187.156 112.554L188.379 112.205L191.586 111.935L191.539 111.475C191.412 111.49 190.761 111.475 189.554 111.427L189.506 110.935L190.745 110.823C191.078 110.792 191.221 110.633 191.189 110.315C189.522 110.363 188.68 110.283 188.665 110.061C177.041 110.633 171.214 110.744 171.182 110.378C171.008 110.394 170.769 110.506 170.452 110.696L170.15 110.22C173.23 103.677 175.041 100.373 175.565 100.325C175.581 100.579 175.453 100.992 175.183 101.548L175.199 101.755L175.692 101.707C176.914 98.7848 177.946 97.2762 178.804 97.2127C182.456 96.8948 178.296 96.6567 186.108 95.4336C186.426 95.5768 186.648 95.6403 186.807 95.6243C189.871 95.0048 194.143 94.3538 199.621 93.6868L199.589 93.2261L196.668 93.4962L196.636 93.0354C196.985 93.0039 197.271 92.8926 197.509 92.7019L197.525 92.956C197.684 92.9405 197.906 92.8292 198.192 92.6385C198.7 92.5911 199.081 92.6385 199.351 92.7813C200.367 92.5117 201.193 92.3525 201.797 92.2891L203.623 92.1144C204.067 91.8288 204.274 91.5747 204.258 91.3361L204.242 91.1299C203.781 91.1773 203.258 91.1458 202.638 91.0345C202.622 90.7804 202.749 90.6057 203.051 90.5263L206.449 90.2088L208.005 89.8115C208.021 89.9862 208.101 90.0496 208.227 90.0496C208.386 90.0341 208.609 89.9228 208.894 89.7321C208.974 89.7481 209.069 89.7481 209.148 89.764C208.942 90.1929 208.704 90.8124 208.465 91.6221L208.021 91.654C207.989 91.3521 207.91 91.082 207.767 90.8439L207.545 90.8598C203.416 102.358 201.574 107.711 197.763 116.541C197.065 118.796 196.477 120.051 195.969 120.321C195.985 120.575 196.144 120.702 196.414 120.67C196.509 121.782 196.255 122.878 195.636 123.957C193.873 129.04 192.698 131.819 192.094 132.327L192.492 134.725C192.507 134.979 192.38 135.122 192.11 135.154L191.698 135.186C191.634 134.519 191.396 134.201 190.967 134.249L190.745 134.265C190.205 135.106 189.792 136.075 189.522 137.203L189.935 137.171C190.491 136.806 190.745 136.377 190.697 135.885L191.523 135.805L191.999 135.98C191.618 136.584 191.444 137.06 191.475 137.425L191.698 137.807L191.158 139.077L191.174 139.284C191.65 139.236 192.174 139.395 192.73 139.728C193.111 139.697 193.524 139.522 193.984 139.22C194.461 139.172 196.239 139.156 199.304 139.156L200.844 138.632C202.718 138.616 203.019 138.664 204.639 138.521L205.306 138.458L205.655 138.219L205.671 138.426C207.37 138.283 207.481 138.394 208.815 138.553L208.831 138.76L207.894 138.839L207.926 139.236C208.211 139.204 208.465 139.125 208.672 138.95C208.91 138.934 209.053 139.061 209.069 139.347C208.688 139.379 208.259 139.474 207.783 139.633L207.37 139.49C206.719 139.665 206.862 139.712 206.417 139.744L205.766 139.617C205.782 139.728 205.719 139.807 205.607 139.807C205.623 140.062 205.766 140.189 206.004 140.173L206.671 140.109L210.149 139.807L211.467 139.522C211.483 139.633 211.53 139.697 211.641 139.681L212.277 139.442L213.468 139.347C214.388 139.268 214.373 139.204 216.373 138.886C216.357 138.76 216.405 138.712 216.5 138.696L216.516 138.87C219.771 138.315 219.978 138.283 220.502 138.108L220.55 138.203C221.359 138.013 220.899 138.061 221.121 137.902C221.137 138.045 221.184 138.108 221.264 138.108L221.836 138.061L221.804 137.632L220.645 137.616L220.629 137.584C220.581 137.6 220.55 137.6 220.502 137.616H220.343V137.648C219.565 137.807 219.549 137.695 219.041 137.743L216.135 137.902L216.119 137.695L217.739 137.473L218.327 137.425L218.66 137.187L218.676 137.394C220.962 137.203 221.772 137.775 232.347 135.52C232.919 135.472 232.871 134.996 233.237 134.011C233.043 134.024 232.85 133.98 232.681 133.884C231.808 134.217 231.347 134.058 229.664 134.329C229.521 134.345 229.41 134.217 229.362 133.963L229.346 133.788L230.966 133.836C231.268 133.804 231.855 133.757 232.729 133.264C232.729 133.407 232.395 133.486 232.585 133.471H232.586ZM154.398 134.725L153.652 134.789C153.62 134.487 154.017 133.344 154.843 131.39L155.335 131.343C155.351 131.803 155.049 132.931 154.398 134.725ZM155.303 131.104L155.287 130.898C155.271 130.644 155.43 130.469 155.78 130.39L155.796 130.596C155.811 130.898 155.652 131.073 155.303 131.104ZM165.227 138.775L165.243 138.982L164.005 139.093L163.989 138.886L165.227 138.775ZM163.735 138.648C163.751 138.902 163.37 139.188 162.544 139.474L161.019 139.363L160.527 139.411L160.48 138.95L163.735 138.648ZM173.77 92.4478L173.024 92.5117L173.008 92.2576C172.992 92.0035 173.135 91.8288 173.453 91.7494L173.723 91.7334L174.231 91.9396C174.246 92.2416 174.104 92.4163 173.77 92.4478ZM185.124 90.2244L185.362 90.2088L185.394 90.6691L184.711 90.7326C184.695 90.4785 184.822 90.3042 185.124 90.2244ZM182.265 91.2252L181.138 91.098L181.122 90.8917C182.599 90.7645 183.091 90.6057 183.996 90.3516C184.012 90.5263 184.171 90.5898 184.457 90.5583L184.488 91.0186L184.044 91.0665C183.695 91.098 183.393 91.0505 183.139 90.9073C182.869 91.082 182.583 91.1933 182.265 91.2252ZM183.679 95.3387L183.663 95.1321L185.489 94.9573L185.505 95.164L183.679 95.3387ZM185.632 93.7503L185.616 93.4962L186.505 93.4168L186.521 93.6709L185.632 93.7503ZM185.838 90.6376L185.6 90.6532L185.807 90.1609L187.839 89.9703L187.855 90.2244C187.331 90.2722 186.648 90.415 185.838 90.6376ZM186.871 95.0208L186.839 94.5604L187.728 94.4811C188.03 94.4491 188.188 94.5921 188.204 94.9099L186.871 95.0208ZM192.253 87.6834L191.11 88.0013L190.904 88.0168C190.364 88.0647 189.665 88.0488 188.839 87.9694C190.316 87.874 191.729 87.7627 192.253 87.6834ZM191.031 92.7658L191.047 92.972L189.475 93.1152L189.459 92.9086L191.031 92.7658ZM193.603 93.9884C193.587 93.7981 193.285 93.6709 192.666 93.6075L191.094 94.0522L189.887 94.0997C189.617 93.909 189.475 93.7822 189.459 93.6868L190.856 93.7662L194 93.258L195.604 93.3214L195.62 93.5755C194.826 93.6549 194.159 93.7981 193.603 93.9884ZM209.784 89.8115C209.974 89.8275 210.101 89.8275 210.149 89.8275C210.705 89.2873 211.324 88.8585 212.039 88.557C211.467 91.0665 210.578 92.9245 209.355 94.1316L208.465 93.5915C209.212 91.7015 209.657 90.447 209.784 89.8115ZM207.052 94.4966L207.275 94.4811C206.973 95.0527 206.703 95.3542 206.481 95.3702L206.433 94.7667C206.576 94.7667 206.782 94.6713 207.052 94.4966ZM205.29 98.7054C205.719 96.9901 206.132 96.0216 206.512 95.7675L206.528 95.9737C206.306 97.5618 205.957 98.4039 205.496 98.4673L205.576 99.4677C205.195 100.008 205.02 100.421 205.036 100.738L204.813 100.754L204.687 99.3724C204.941 99.3409 205.147 99.1183 205.29 98.7054ZM204.607 100.992C204.623 101.23 204.464 101.787 204.147 102.644L203.924 102.66L203.877 102.057C204.178 101.358 204.433 101.008 204.607 100.992ZM191.793 138.188L191.777 138.013L192.19 137.981L192.238 138.585C192.015 138.601 191.856 138.474 191.793 138.188ZM210.101 138.664C210.085 138.521 210.022 138.458 209.879 138.474L208.847 138.569L208.831 138.362H208.926L211.371 138.156L211.387 138.362C210.673 138.394 210.244 138.505 210.101 138.664ZM208.879 138.156C208.974 138.203 208.926 138.251 208.879 138.283C208.831 138.267 208.767 138.219 208.879 138.156ZM209.006 135.297L207.64 135.408L207.624 135.202L208.863 135.091L209.942 134.821C209.958 134.948 210.022 134.996 210.165 134.98C211.451 134.757 211.324 134.694 211.943 134.646C212.149 134.63 212.277 134.757 212.293 135.011L209.006 135.297ZM213.785 134.884C213.023 134.805 212.975 134.741 212.435 134.789L212.419 134.614L213.642 134.503L213.658 134.678C213.531 134.694 213.992 134.725 213.785 134.884ZM213.88 134.662L213.864 134.487L214.531 134.423L214.547 134.598L213.88 134.662ZM215.357 134.535L215.341 134.36C215.453 134.345 215.611 134.265 215.817 134.106C216.151 134.074 216.326 134.297 216.357 134.551L215.357 134.535ZM217.247 134.297L217.231 134.09L218.041 134.027L218.056 134.233L217.247 134.297ZM218.374 134.201C218.358 133.963 218.453 133.82 218.66 133.788L218.93 134.138C218.914 134.027 218.961 133.963 219.057 133.947L219.263 134.329L218.374 134.201ZM233.999 132.359L234.015 132.343V132.327C234.015 132.327 233.999 132.343 233.999 132.359ZM234.285 132.153C234.412 132.073 234.475 131.994 234.174 131.946C234.031 132.105 234.332 132.153 234.015 132.168L234.031 132.311C234.062 132.28 234.142 132.232 234.205 132.184L234.031 132.327V132.343L233.697 132.772L234.364 132.534H234.444L234.412 132.137L234.285 132.153ZM235.444 133.058L235.317 133.074L235.348 133.471L236.285 133.392C236.27 133.137 235.65 133.058 235.444 133.058Z" fill="#F9DC3E"/>
</g>
<defs>
<clipPath id="clip0_64_1555">
<rect width="215" height="84" fill="white" transform="translate(22 86)"/>
</clipPath>
</defs>
</svg>
