<svg width="256" height="256" viewBox="0 0 256 256" fill="none" xmlns="http://www.w3.org/2000/svg">
<rect width="256" height="256" fill="#232932"/>
<g clip-path="url(#clip0_98_304)">
<path d="M136.353 86.4585C135.808 86.4322 135.264 86.5177 134.753 86.7099C134.243 86.9021 133.778 87.1967 133.386 87.5756C132.994 87.9545 132.685 88.4096 132.477 88.9127C132.269 89.4157 132.167 89.956 132.176 90.5002V219.667C149.552 219.689 166.254 212.959 178.739 200.902C191.224 188.846 198.511 172.411 199.055 155.084C199.598 137.758 193.355 120.901 181.649 108.09C169.944 95.2782 153.696 87.5193 136.353 86.4585ZM123.824 109.667V219.667C86.9202 219.667 57 186.833 57 146.333V36.3335C93.9033 36.3335 123.824 69.1668 123.824 109.667Z" fill="white"/>
</g>
<defs>
<clipPath id="clip0_98_304">
<rect width="142" height="200" fill="white" transform="translate(57 28)"/>
</clipPath>
</defs>
</svg>
