<svg width="256" height="256" viewBox="0 0 256 256" fill="none" xmlns="http://www.w3.org/2000/svg">
<rect width="256" height="256" fill="#232932"/>
<path d="M31.6364 159.395C31.6364 133.513 52.6182 112.53 78.5018 112.53H122.048C149.764 112.53 172.23 134.998 172.23 162.712C172.23 190.427 149.764 212.893 122.048 212.893H31.6364V159.395Z" fill="#5DE8E8"/>
<path d="M84.7175 91.8352C84.7175 65.9515 105.699 44.9697 131.583 44.9697H175.132C202.846 44.9697 225.314 67.4364 225.314 95.1515C225.314 122.867 202.846 145.333 175.131 145.333H84.7187L84.7175 91.8352Z" fill="#2B4FF1"/>
<mask id="mask0_241_2" style="mask-type:alpha" maskUnits="userSpaceOnUse" x="31" y="112" width="142" height="101">
<path d="M31.6364 159.395C31.6364 133.513 52.6182 112.53 78.5018 112.53H122.048C149.764 112.53 172.23 134.998 172.23 162.712C172.23 190.427 149.764 212.893 122.048 212.893H31.6364V159.395Z" fill="#5DE8E8"/>
</mask>
<g mask="url(#mask0_241_2)">
<path d="M84.7175 91.8352C84.7175 65.9515 105.699 44.9697 131.583 44.9697H175.132C202.846 44.9697 225.314 67.4364 225.314 95.1515C225.314 122.867 202.846 145.333 175.131 145.333H84.7187L84.7175 91.8352Z" fill="#00A5FD"/>
</g>
</svg>
