<svg width="256" height="256" viewBox="0 0 256 256" fill="none" xmlns="http://www.w3.org/2000/svg">
<rect width="256" height="256" fill="#232932"/>
<g clip-path="url(#clip0_155_490)">
<path fill-rule="evenodd" clip-rule="evenodd" d="M203.356 68.8124L140.2 31.3249C136.531 29.1463 132.342 27.9966 128.075 27.9966C123.808 27.9966 119.619 29.1463 115.95 31.3249L52.7814 68.8124C49.0271 71.0525 45.9205 74.2313 43.7672 78.036C41.6138 81.8408 40.4879 86.1405 40.5001 90.5124V165.487C40.4769 169.849 41.5867 174.142 43.7209 177.946C45.8551 181.75 48.9406 184.934 52.6751 187.187L115.831 224.675C119.501 226.853 123.689 228.003 127.956 228.003C132.224 228.003 136.412 226.853 140.081 224.675L203.25 187.187C206.985 184.934 210.07 181.75 212.204 177.946C214.338 174.142 215.448 169.849 215.425 165.487V90.5124C215.46 86.1615 214.367 81.8758 212.253 78.0729C210.139 74.2699 207.076 71.0795 203.363 68.8124H203.356ZM154.438 185.887V191.262C154.434 191.594 154.347 191.919 154.185 192.208C154.024 192.497 153.793 192.742 153.513 192.919L150.313 194.75C149.813 195.012 149.388 194.75 149.388 194.044V188.75C147.129 189.86 144.543 190.111 142.113 189.456C141.725 189.194 141.575 188.694 141.763 188.206L142.906 183.331C143.002 182.919 143.225 182.547 143.544 182.269C143.635 182.178 143.741 182.104 143.856 182.05C144.017 181.987 144.196 181.987 144.356 182.05C146.587 182.649 148.964 182.348 150.975 181.212C152.404 180.514 153.617 179.443 154.486 178.112C155.356 176.78 155.848 175.239 155.913 173.65C155.913 170.912 154.413 169.775 150.788 169.744C146.2 169.744 142.038 168.869 141.85 162.094C141.903 159.201 142.594 156.357 143.876 153.763C145.158 151.17 146.997 148.892 149.263 147.094V141.644C149.275 141.312 149.365 140.987 149.526 140.696C149.687 140.405 149.913 140.156 150.188 139.969L153.275 138.006C153.775 137.744 154.2 138.006 154.2 138.731V144.181C156.092 143.321 158.203 143.068 160.244 143.456C160.681 143.706 160.856 144.256 160.644 144.706L159.563 149.537C159.44 150.038 159.132 150.474 158.7 150.756C158.575 150.831 158.388 150.806 158.238 150.756C156.248 150.32 154.167 150.66 152.419 151.706C151.144 152.256 150.052 153.158 149.271 154.305C148.489 155.453 148.051 156.8 148.006 158.187C148.006 160.656 149.306 161.406 153.675 161.5C159.519 161.5 162.031 164.144 162.1 170.012C162.045 173.047 161.33 176.033 160.005 178.764C158.679 181.495 156.775 183.904 154.425 185.825L154.438 185.887ZM187.519 176.825C187.557 177.052 187.531 177.286 187.445 177.499C187.359 177.713 187.216 177.899 187.031 178.037L171.125 187.737C170.975 187.862 170.75 187.881 170.581 187.781C170.413 187.681 170.331 187.469 170.375 187.281V183.156C170.386 182.936 170.46 182.723 170.589 182.543C170.717 182.364 170.895 182.225 171.1 182.144L186.825 172.725C186.975 172.6 187.2 172.581 187.369 172.681C187.538 172.781 187.619 172.994 187.575 173.181V176.819L187.519 176.825ZM198.55 84.6249L138.788 121.537C131.331 125.95 125.85 130.775 125.85 139.75V213.362C125.85 218.737 128.056 222.112 131.363 223.237C130.27 223.441 129.162 223.552 128.05 223.569C124.54 223.561 121.097 222.609 118.081 220.812L54.9251 183.331C51.85 181.486 49.3091 178.871 47.5533 175.744C45.7974 172.617 44.8873 169.086 44.9126 165.5V90.5124C44.8843 86.9214 45.7929 83.3851 47.5488 80.2526C49.3047 77.1201 51.8471 74.4996 54.9251 72.6499L118.081 35.1624C124.206 31.5374 131.806 31.5374 137.931 35.1624L201.088 72.6499C206.294 75.7999 209.838 81.0874 210.788 87.0249C208.738 82.5686 204.019 81.3999 198.525 84.5561H198.544L198.55 84.6249Z" fill="white"/>
</g>
<defs>
<clipPath id="clip0_155_490">
<rect width="200" height="200" fill="white" transform="translate(28 28)"/>
</clipPath>
</defs>
</svg>
