<svg width="256" height="256" viewBox="0 0 256 256" fill="none" xmlns="http://www.w3.org/2000/svg">
<rect width="256" height="256" fill="#232932"/>
<path fill-rule="evenodd" clip-rule="evenodd" d="M166.881 143.968L189.509 166.537L128 228L66.5565 166.537L89.1832 143.968L128 182.796L166.881 143.968ZM128 105.073L150.951 128.033L128 150.992L105.113 128.097V128.033L109.144 124L111.095 122.049L128 105.073ZM50.6269 105.399L73.2536 128.033L50.6269 150.602L28 127.967L50.6269 105.399ZM205.373 105.399L228 128.033L205.373 150.602L182.747 127.967L205.373 105.399ZM128 28L189.443 89.4635L166.817 112.098L128 73.2033L89.1832 112.033L66.5565 89.4635L128 28Z" fill="#F3BA2F"/>
</svg>
