<svg width="256" height="256" viewBox="0 0 256 256" fill="none" xmlns="http://www.w3.org/2000/svg">
<rect width="256" height="256" fill="#232932"/>
<g clip-path="url(#clip0_199_2)">
<path d="M128.734 90.9107C125.056 91.338 122.251 94.3241 121.99 98.09C121.878 99.7122 121.913 99.822 125.593 109.287C133.963 130.82 135.991 136.002 136.331 136.732C137.158 138.498 138.32 140.16 139.772 141.651C140.885 142.796 141.62 143.411 142.862 144.241C145.047 145.699 146.13 146.102 154.628 148.617C162.905 151.068 167.428 152.696 171.324 154.63C176.373 157.135 179.896 159.984 182.124 163.365C183.722 165.791 185.138 170.141 185.754 174.519C185.995 176.231 185.996 180.015 185.757 181.562C185.237 184.921 184.199 187.735 182.611 190.091C181.766 191.343 182.06 191.133 183.288 189.607C186.763 185.287 190.303 177.905 192.109 171.211C194.295 163.109 194.593 154.409 192.965 146.175C189.796 130.14 179.669 116.301 165.408 108.515C164.512 108.026 161.099 106.237 156.472 103.832C155.77 103.467 154.812 102.967 154.344 102.722C153.876 102.476 152.919 101.976 152.216 101.612C151.514 101.247 149.493 100.194 147.725 99.272L143.327 96.9802C141.893 96.2327 140.459 95.4841 139.025 94.7344C134.44 92.3349 132.499 91.3648 131.946 91.1967C131.365 91.0199 129.891 90.7936 129.522 90.8241C129.443 90.8302 129.09 90.8694 128.734 90.9107Z" fill="url(#paint0_radial_199_2)"/>
<path d="M138.73 171.296C138.476 171.447 138.12 171.664 137.938 171.78C137.755 171.896 137.351 172.147 137.039 172.338C134.768 173.734 132.499 175.132 130.231 176.532C128.842 177.388 127.455 178.247 126.07 179.108C125.457 179.489 124.842 179.867 124.226 180.241C123.992 180.381 122.992 180.996 122.003 181.609C120.728 182.399 119.452 183.187 118.174 183.973C116.691 184.884 115.209 185.798 113.729 186.713C112.438 187.512 111.146 188.308 109.853 189.103C109.046 189.598 108.302 190.075 108.197 190.164C108.043 190.297 100.873 194.736 97.2755 196.928C94.5426 198.591 91.3819 199.704 88.1463 200.141C86.6402 200.345 83.7893 200.346 82.2873 200.143C78.2138 199.593 74.4621 198.074 71.2483 195.676C69.9881 194.735 67.6146 192.364 66.7077 191.14C64.5694 188.254 63.1865 185.159 62.4703 181.657C62.3053 180.851 62.1495 180.171 62.1238 180.145C62.0567 180.078 62.1779 181.295 62.396 182.886C62.6229 184.541 63.106 186.936 63.6268 188.984C67.6559 204.831 79.1213 217.72 94.6416 223.853C99.1111 225.618 103.621 226.73 108.528 227.275C110.372 227.482 115.592 227.564 117.516 227.418C126.342 226.75 134.026 224.153 141.909 219.172C142.611 218.729 143.93 217.897 144.84 217.324C145.693 216.788 146.544 216.248 147.394 215.706C147.888 215.389 148.484 215.015 148.717 214.874C149.067 214.661 149.414 214.443 149.758 214.22C150.096 214.002 151.542 213.086 152.973 212.187L158.692 208.576L160.656 207.336L160.727 207.291L160.943 207.155L161.046 207.09L162.492 206.177L167.488 203.022C173.855 199.022 175.754 197.618 178.711 194.722C179.945 193.515 181.803 191.454 181.896 191.192C181.915 191.138 182.245 190.629 182.63 190.059C184.195 187.744 185.239 184.907 185.757 181.563C185.996 180.015 185.995 176.232 185.754 174.52C185.289 171.211 184.23 167.457 183.09 165.067C181.22 161.148 177.236 157.586 171.513 154.718C169.932 153.926 168.3 153.201 168.118 153.211C168.032 153.216 162.706 156.47 156.283 160.443C149.859 164.417 144.285 167.866 143.895 168.108C143.505 168.35 142.835 168.759 142.406 169.017L138.73 171.296Z" fill="url(#paint1_radial_199_2)"/>
<path d="M62.0273 152.234L62.0552 179.908L62.4135 181.516C63.5335 186.54 65.4748 190.162 68.8496 193.527C70.4367 195.109 71.6504 196.064 73.3706 197.082C77.0109 199.235 80.9281 200.297 85.2186 200.295C89.7128 200.293 93.6006 199.172 97.6065 196.724C98.2825 196.311 100.932 194.681 103.493 193.101L108.15 190.229V124.559L108.149 94.5212C108.148 75.3578 108.113 63.9769 108.052 63.0841C107.67 57.4733 105.323 52.315 101.376 48.4135C100.164 47.2161 99.1296 46.4161 96.0462 44.2949C94.5117 43.2393 91.7031 41.3058 89.8051 39.998C85.4555 37.0009 81.1057 34.0042 76.7556 31.0078C73.7758 28.9537 73.5428 28.8114 72.642 28.4893C71.4705 28.0702 70.2289 27.9161 69.0486 28.0434C65.6083 28.4145 62.8544 30.898 62.1387 34.2738C62.0273 34.7996 62.0067 41.7893 62.0052 79.7269L62.0036 124.559H62L62.0273 152.234Z" fill="url(#paint2_linear_199_2)"/>
</g>
<defs>
<radialGradient id="paint0_radial_199_2" cx="0" cy="0" r="1" gradientUnits="userSpaceOnUse" gradientTransform="translate(1537.57 -7373.46) rotate(-140.302) scale(8775.08 12110.2)">
<stop stop-color="#00CACC"/>
<stop offset="1" stop-color="#048FCE"/>
</radialGradient>
<radialGradient id="paint1_radial_199_2" cx="0" cy="0" r="1" gradientUnits="userSpaceOnUse" gradientTransform="translate(2295.18 4343.95) rotate(-35.5227) scale(12594.7 9871.59)">
<stop stop-color="#00BBEC"/>
<stop offset="1" stop-color="#2756A9"/>
</radialGradient>
<linearGradient id="paint2_linear_199_2" x1="2369.5" y1="28" x2="2369.5" y2="17257.5" gradientUnits="userSpaceOnUse">
<stop stop-color="#00BBEC"/>
<stop offset="1" stop-color="#2756A9"/>
</linearGradient>
<clipPath id="clip0_199_2">
<rect width="132" height="200" fill="white" transform="translate(62 28)"/>
</clipPath>
</defs>
</svg>
