<svg width="256" height="256" viewBox="0 0 256 256" fill="none" xmlns="http://www.w3.org/2000/svg">
<rect width="256" height="256" fill="#242932"/>
<g clip-path="url(#clip0_49_1311)">
<path d="M127.999 39L83.4536 115.96C100.355 110.762 118.539 109.992 136.165 114.139L151.219 117.684L137.056 177.593L121.98 174.049C110.398 171.324 98.3263 174.024 88.9893 181.387C84.391 185.011 80.6749 189.626 78.1194 194.887L64.1841 188.162C67.7564 180.806 72.9491 174.351 79.374 169.279C85.7944 164.204 93.2835 160.644 101.28 158.868C109.276 157.092 117.571 157.145 125.544 159.024L132.604 129.166C120.115 126.232 107.122 126.152 94.5981 128.934C82.074 131.715 70.3425 137.286 60.2811 145.228C39.9054 161.314 28.0044 185.836 28.0044 211.755L227.996 211.762L127.999 39Z" fill="#60A5FA"/>
</g>
<defs>
<clipPath id="clip0_49_1311">
<rect width="200" height="173" fill="white" transform="translate(28 39)"/>
</clipPath>
</defs>
</svg>
