<svg width="256" height="256" viewBox="0 0 256 256" fill="none" xmlns="http://www.w3.org/2000/svg">
<rect width="256" height="256" fill="#175DDC"/>
<g clip-path="url(#clip0_131_44)">
<path d="M208.526 33.4676C206.869 31.814 204.905 31 202.662 31H52.3372C50.0681 31 48.1304 31.814 46.4731 33.4676C44.8159 35.1211 44 37.0799 44 39.3185V139.318C44 146.772 45.4533 154.174 48.3598 161.527C51.2664 168.853 54.8868 175.365 59.1957 181.063C63.5045 186.737 68.6292 192.283 74.5953 197.675C80.5614 203.068 86.0686 207.52 91.0913 211.082C96.1395 214.643 101.392 218.001 106.873 221.181C112.355 224.361 116.256 226.497 118.551 227.617C120.845 228.736 122.706 229.627 124.083 230.211C125.129 230.72 126.25 231 127.474 231C128.698 231 129.82 230.746 130.865 230.211C132.267 229.601 134.103 228.736 136.423 227.617C138.718 226.497 142.619 224.335 148.101 221.181C153.582 218.001 158.835 214.643 163.883 211.082C168.931 207.52 174.438 203.043 180.404 197.675C186.37 192.283 191.495 186.761 195.804 181.063C200.113 175.365 203.708 168.878 206.64 161.527C209.547 154.2 210.999 146.797 210.999 139.318V39.3439C211.025 37.0799 210.183 35.1211 208.526 33.4676ZM189.15 140.26C189.15 176.46 127.5 207.647 127.5 207.647V52.4194H189.15C189.15 52.4194 189.15 104.06 189.15 140.26Z" fill="white"/>
</g>
<defs>
<clipPath id="clip0_131_44">
<rect width="167" height="200" fill="white" transform="translate(44 31)"/>
</clipPath>
</defs>
</svg>
