<svg width="256" height="256" viewBox="0 0 256 256" fill="none" xmlns="http://www.w3.org/2000/svg">
<rect width="256" height="256" fill="#232932"/>
<g clip-path="url(#clip0_131_56)">
<path d="M189.81 165.75C185.74 169.82 180.897 173.036 175.566 175.21C170.235 177.385 164.523 178.473 158.765 178.412C146.732 178.412 135.661 173.844 127.719 165.83C123.869 161.904 120.981 157.416 119.216 152.527C117.505 147.861 116.827 142.88 117.229 137.927C117.631 132.974 119.102 128.167 121.542 123.837C123.869 119.67 127.078 115.823 131.008 112.617C138.71 106.366 148.497 103 158.765 103C169.033 103 178.82 106.286 186.521 112.537C190.452 115.743 193.661 119.509 195.907 123.757C199.621 130.467 201.028 138.209 199.912 145.795C198.796 153.381 195.219 160.391 189.73 165.75H189.81Z" fill="white"/>
<path d="M133.094 138.262C133.495 131.77 136.704 126 141.517 121.913C146.25 117.906 152.668 115.422 159.647 115.422C166.546 115.422 172.964 117.906 177.697 121.913C182.51 126 185.719 131.77 186.12 138.262C186.441 144.994 183.793 151.245 179.06 155.893C174.167 160.541 167.348 163.506 159.647 163.506C151.946 163.506 145.047 160.541 140.153 155.893C135.42 151.245 132.773 144.994 133.094 138.262Z" fill="#005385"/>
<path d="M90.9783 151.485C90.9783 154.049 91.7805 159.018 93.064 162.945C95.6311 171.119 99.963 178.733 106.06 185.464C112.317 192.276 119.938 197.806 128.842 201.733C138.261 205.929 148.46 208.091 158.773 208.077C169.086 208.064 179.279 205.874 188.687 201.653C197.319 197.819 205.052 192.222 211.389 185.224C220.214 175.504 225.647 163.188 226.872 150.122C227.828 137.735 224.761 125.37 218.128 114.861C214.129 108.456 209.022 102.812 203.046 98.1916L141.758 51.2294L141.597 51.0692C137.586 48.0238 130.768 48.0238 126.355 51.0692C121.943 54.1946 121.382 59.4037 125.393 62.6895L150.903 83.4458L73.0089 83.526H72.9287C66.4309 83.526 60.2539 87.7734 59.0506 93.0626C57.7671 98.5122 62.1792 103 68.8375 103.08L108.306 103L37.8724 157.015L37.6318 157.255C30.9735 162.304 28.8075 170.799 32.979 176.088C37.2307 181.537 46.2956 181.537 53.0341 176.168L91.4596 144.673C91.4596 144.673 90.8981 148.92 90.8981 151.485H90.9783ZM189.81 165.75C185.74 169.819 180.897 173.036 175.566 175.21C170.235 177.384 164.523 178.473 158.765 178.412C146.731 178.412 135.661 173.844 127.719 165.83C123.869 161.903 120.981 157.415 119.216 152.527C117.505 147.861 116.827 142.88 117.229 137.927C117.63 132.974 119.102 128.167 121.542 123.837C123.869 119.669 127.077 115.822 131.008 112.617C138.709 106.366 148.496 103 158.765 103C169.033 103 178.82 106.286 186.521 112.537C190.452 115.742 193.66 119.509 195.907 123.756C199.62 130.466 201.027 138.208 199.912 145.794C198.796 153.38 195.219 160.391 189.73 165.75H189.81Z" fill="#FF7021"/>
</g>
<defs>
<clipPath id="clip0_131_56">
<rect width="200" height="160" fill="white" transform="translate(28 48)"/>
</clipPath>
</defs>
</svg>
