<svg width="256" height="256" viewBox="0 0 256 256" fill="none" xmlns="http://www.w3.org/2000/svg">
<rect width="256" height="256" fill="#6700EB"/>
<g clip-path="url(#clip0_88_627)">
<path d="M96.0393 127.841C102.241 127.841 108.357 129.282 113.906 132.05C119.455 134.818 124.285 138.837 128.014 143.79L160.604 187.083C160.906 187.484 161.088 187.962 161.131 188.462C161.173 188.962 161.073 189.464 160.843 189.91L142.057 226.293C141.155 228.04 138.739 228.244 137.556 226.676L63 127.841H96.0393ZM118.444 29.0615L193 127.896H159.961C153.759 127.896 147.643 126.456 142.094 123.688C136.545 120.92 131.715 116.901 127.986 111.947L95.3959 68.6543C95.0942 68.2534 94.9117 67.7755 94.8695 67.2755C94.8273 66.7755 94.927 66.2738 95.1572 65.8279L113.943 29.4437C114.844 27.698 117.261 27.4929 118.444 29.0615Z" fill="white"/>
</g>
<defs>
<clipPath id="clip0_88_627">
<rect width="130" height="200" fill="white" transform="translate(63 28)"/>
</clipPath>
</defs>
</svg>
