<svg width="256" height="256" viewBox="0 0 256 256" fill="none" xmlns="http://www.w3.org/2000/svg">
<rect width="256" height="256" fill="#232932"/>
<g clip-path="url(#clip0_88_598)">
<path d="M122.238 162.317C102.883 162.317 93.4131 151.223 93.4131 137.248C93.4131 123.272 106.591 105.601 125.939 105.601C145.294 105.601 154.762 116.697 154.762 130.671C154.762 144.647 141.587 162.317 122.238 162.317ZM123.057 144.647C129.646 144.647 134.178 138.481 134.178 131.904C134.178 125.328 130.881 123.686 125.119 123.686C119.351 123.686 113.998 129.847 113.998 136.424C113.998 143 117.295 144.647 123.057 144.647ZM175.352 161.084H155.178L171.646 86.2832H191.826L175.354 160.674L175.352 161.084Z" fill="white"/>
<path fill-rule="evenodd" clip-rule="evenodd" d="M62.5286 162.317C56.3506 162.317 50.1779 160.265 46.8809 155.332L45.6459 161.083L23 173.004L25.4714 161.085L41.9394 86.2832H62.1191L56.3506 112.586C60.8827 107.654 65.4095 105.601 71.1779 105.601C83.5286 105.601 91.3524 113.41 91.3524 128.205C91.3524 142.999 81.8827 162.318 62.5299 162.318L62.5286 162.317ZM70.3524 132.314C70.3524 139.305 65.4095 144.647 58.8221 144.647C52.2333 144.647 51.8238 143.414 49.7632 140.947L53.0589 127.386C55.5303 124.919 58.0018 123.686 61.2935 123.686C66.2351 123.686 70.3524 127.386 70.3524 132.728V132.314Z" fill="white"/>
<path d="M212.825 162.317C201.295 162.317 192.646 158.208 192.646 148.757C192.646 139.305 192.646 145.88 193.06 144.647L197.589 124.505H188.528L192.646 107.244H201.705L205.002 92.4495L227.647 82.9976L225.176 92.4495L221.884 107.244H233L228.882 124.505H217.763L214.881 137.658V140.123C214.881 142.59 216.527 144.647 219.824 144.647C223.115 144.647 222.295 144.647 222.705 144.233V160.265C220.649 161.908 216.943 162.317 213.235 162.317H212.825Z" fill="white"/>
</g>
<defs>
<clipPath id="clip0_88_598">
<rect width="210" height="90" fill="white" transform="translate(23 83)"/>
</clipPath>
</defs>
</svg>
