<svg width="256" height="256" viewBox="0 0 256 256" fill="none" xmlns="http://www.w3.org/2000/svg">
<rect width="256" height="256" fill="#232932"/>
<g clip-path="url(#clip0_199_14)">
<path d="M213 92.5183L206.824 75.8405L211.074 66.2724C211.605 65.01 211.34 63.6146 210.41 62.6179L198.789 50.8571C193.676 45.7409 186.105 43.9468 179.266 46.3389L176.012 47.4684L158.215 28.1993L128.133 28H127.934L97.6523 28.2658L79.9219 47.6678L76.7344 46.5382C69.8281 44.0797 62.1914 45.8738 57.0781 51.1229L45.2578 63.0831C44.4609 63.8804 44.2617 65.01 44.6602 66.0066L49.1094 75.9734L43 92.6512L46.9844 107.734L65.0469 176.372C67.1055 184.279 71.8867 191.189 78.5937 195.973C78.5937 195.973 100.508 211.455 122.09 225.475C124.016 226.738 126.008 227.601 128.133 227.601C130.258 227.601 132.25 226.738 134.176 225.475C158.48 209.528 177.672 195.907 177.672 195.907C184.313 191.123 189.094 184.213 191.152 176.306L209.082 107.668L213 92.5183Z" fill="#F15A22"/>
<path style="mix-blend-mode:lighten" opacity="0.15" d="M65.9102 179.296L43 94.1131L49.707 77.4354L45.0586 65.0766L56.1484 53.7809C59.8008 50.5251 66.9727 49.3955 70.293 51.3224L87.625 61.2892L110.203 66.5384L127.801 59.2294L129.262 210.525C128.996 232.319 130.391 229.994 114.387 219.695L74.875 193.183C70.625 189.13 67.3711 184.545 65.9102 179.296Z" fill="url(#paint0_linear_199_14)"/>
<path style="mix-blend-mode:darken" opacity="0.4" d="M177.273 195.605L143.672 218.595C134.309 223.711 129.793 228.761 129.063 226.303C128.465 224.376 128.93 218.728 128.73 209.957L128.332 61.9838C128.398 60.522 129.395 58.0635 131.121 58.3293L148.254 63.512L172.957 59.6582L189.293 47.6316C191.02 46.3027 193.543 46.4356 195.137 47.9639L209.746 61.9174C211.074 63.3127 211.141 66.037 210.344 67.7645L206.293 75.2728L213 92.615L189.891 178.595C186.305 189.293 181.258 192.083 177.273 195.605Z" fill="url(#paint1_linear_199_14)"/>
<path d="M131.984 150.791C131.187 150.459 130.324 150.193 130.059 150.193H128.996H127.934C127.668 150.193 126.805 150.459 126.008 150.791L117.375 154.379C116.578 154.712 115.25 155.31 114.453 155.708L101.437 162.486C100.641 162.884 100.574 163.615 101.305 164.147L112.793 172.253C113.523 172.785 114.652 173.649 115.316 174.247L120.43 178.632C121.094 179.23 122.156 180.16 122.82 180.758L127.734 185.144C128.398 185.742 129.461 185.742 130.125 185.144L135.172 180.758C135.836 180.16 136.898 179.23 137.562 178.632L142.676 174.18C143.34 173.582 144.469 172.718 145.199 172.187L156.687 164.014C157.418 163.482 157.352 162.752 156.555 162.353L143.539 155.708C142.742 155.31 141.414 154.712 140.617 154.379L131.984 150.791Z" fill="white"/>
<path d="M194.282 95.48C194.548 94.6162 194.548 94.284 194.548 94.284C194.548 93.4202 194.482 91.9584 194.349 91.0946L193.685 89.1677C193.286 88.3703 192.622 87.1079 192.091 86.377L184.587 75.2806C184.122 74.5497 183.259 73.4202 182.661 72.6893L172.966 60.5298C172.435 59.8654 171.903 59.2674 171.837 59.3338H171.704C171.704 59.3338 170.974 59.4667 170.11 59.5996L155.302 62.5232C154.439 62.7225 153.044 62.9883 152.181 63.1212L151.915 63.1876C151.052 63.3205 149.657 63.2541 148.794 62.9883L136.376 59.0016C135.513 58.7358 134.118 58.3371 133.321 58.1378C133.321 58.1378 130.798 57.5398 128.739 57.6062C126.681 57.6062 124.157 58.1378 124.157 58.1378C123.294 58.3371 121.899 58.7358 121.103 59.0016L108.685 62.9883C107.821 63.2541 106.427 63.3205 105.564 63.1876L105.298 63.1212C104.435 62.9883 103.04 62.6561 102.177 62.5232L87.2354 59.7325C86.3721 59.5331 85.6417 59.4667 85.6417 59.4667H85.5088C85.4424 59.4667 84.9112 59.9983 84.3799 60.6627L74.6846 72.8222C74.1534 73.4866 73.2901 74.6826 72.7588 75.4135L65.2549 86.5099C64.7901 87.2408 64.0596 88.5032 63.6612 89.3006L62.9971 91.2275C62.8643 92.0913 62.7315 93.5531 62.7979 94.4169C62.7979 94.4169 62.7979 94.6826 63.0635 95.6129C63.5284 97.2076 64.6573 98.6694 64.6573 98.6694C65.1885 99.3338 66.1846 100.463 66.7823 101.061L88.7627 124.45C89.3604 125.115 89.5596 126.311 89.2276 127.108L84.6456 137.938C84.3135 138.736 84.2471 140.065 84.5792 140.928L85.8409 144.317C86.9034 147.174 88.6963 149.699 91.087 151.626L95.5362 155.214C96.2002 155.746 97.3956 155.945 98.1924 155.546L112.271 148.835C113.067 148.437 114.263 147.639 114.927 147.041L125.021 137.938C126.482 136.61 126.548 134.35 125.22 132.889L104.036 118.603C103.306 118.138 103.04 117.075 103.439 116.277L112.735 98.7358C113.134 97.9385 113.2 96.676 112.868 95.8787L111.739 93.2873C111.407 92.4899 110.411 91.5597 109.614 91.2275L82.3213 80.9949C81.5245 80.6627 81.5245 80.3305 82.3878 80.264L99.9854 78.6029C100.849 78.5365 102.243 78.6694 103.106 78.8687L118.778 83.2541C119.642 83.5198 120.173 84.3836 120.04 85.2474L114.595 115.081C114.462 115.945 114.462 117.141 114.661 117.806C114.86 118.47 115.724 119.068 116.587 119.267L127.478 121.593C128.341 121.792 129.735 121.792 130.599 121.593L140.759 119.267C141.622 119.068 142.485 118.404 142.685 117.806C142.884 117.208 142.95 115.945 142.751 115.081L137.372 85.2474C137.239 84.3836 137.771 83.4534 138.634 83.2541L154.306 78.8687C155.169 78.6029 156.564 78.5365 157.427 78.6029L175.024 80.264C175.888 80.3305 175.954 80.6627 175.091 80.9949L147.798 91.3604C147.001 91.6926 146.005 92.5564 145.673 93.4202L144.544 96.0115C144.212 96.8089 144.212 98.1378 144.677 98.8687L154.04 116.41C154.439 117.208 154.173 118.204 153.442 118.736L132.259 133.088C130.864 134.483 130.997 136.809 132.458 138.138L142.552 147.241C143.216 147.839 144.411 148.636 145.208 148.968L159.353 155.679C160.149 156.078 161.345 155.879 162.009 155.347L166.458 151.693C168.849 149.766 170.642 147.241 171.638 144.384L172.899 140.995C173.232 140.198 173.165 138.802 172.833 138.005L168.251 127.174C167.919 126.377 168.118 125.181 168.716 124.517L190.696 101.128C191.294 100.463 192.224 99.4002 192.821 98.7358C192.689 98.5365 193.884 97.0747 194.282 95.48Z" fill="white"/>
</g>
<defs>
<linearGradient id="paint0_linear_199_14" x1="43" y1="8898.76" x2="8677.54" y2="8898.76" gradientUnits="userSpaceOnUse">
<stop stop-color="white"/>
<stop offset="0.1413" stop-color="white" stop-opacity="0.9576"/>
<stop offset="1" stop-color="white" stop-opacity="0.7"/>
</linearGradient>
<linearGradient id="paint1_linear_199_14" x1="125.025" y1="9054.79" x2="8595.13" y2="9054.79" gradientUnits="userSpaceOnUse">
<stop stop-color="#F1F1F2"/>
<stop offset="0.0919144" stop-color="#E4E5E6"/>
<stop offset="0.2357" stop-color="#D9DADB"/>
<stop offset="0.438" stop-color="#D2D4D5"/>
<stop offset="1" stop-color="#D0D2D3"/>
</linearGradient>
<clipPath id="clip0_199_14">
<rect width="170" height="200" fill="white" transform="translate(43 28)"/>
</clipPath>
</defs>
</svg>
