<svg width="256" height="256" viewBox="0 0 256 256" fill="none" xmlns="http://www.w3.org/2000/svg">
<rect width="256" height="256" fill="#232932"/>
<path fill-rule="evenodd" clip-rule="evenodd" d="M115.823 69.1762C115.823 46.4352 134.258 28 156.999 28C179.74 28 198.175 46.4352 198.175 69.1762C198.175 91.9172 179.74 110.352 156.999 110.352V86.8232C166.745 86.8232 174.646 78.9226 174.646 69.1762C174.646 59.4298 166.745 51.5293 156.999 51.5293C147.252 51.5293 139.352 59.4298 139.352 69.1762H115.823Z" fill="url(#paint0_linear_241_7)"/>
<path fill-rule="evenodd" clip-rule="evenodd" d="M198.176 69.1748C198.176 91.9158 179.741 110.351 157 110.351H139.353V86.8218H157C166.746 86.8218 174.647 78.9212 174.647 69.1748H198.176Z" fill="url(#paint1_linear_241_7)"/>
<path fill-rule="evenodd" clip-rule="evenodd" d="M157 28C179.741 28 198.176 46.4352 198.176 69.1762H174.647C174.647 59.4298 166.746 51.5293 157 51.5293V28Z" fill="url(#paint2_linear_241_7)"/>
<path fill-rule="evenodd" clip-rule="evenodd" d="M156.999 51.5293C147.252 51.5293 139.352 59.4298 139.352 69.1762H115.823C115.823 46.4352 134.258 28 156.999 28V51.5293Z" fill="url(#paint3_linear_241_7)"/>
<path fill-rule="evenodd" clip-rule="evenodd" d="M57 128.001C57 105.26 75.4352 86.8247 98.1763 86.8247H115.823V110.354H98.1763C88.4299 110.354 80.5293 118.255 80.5293 128.001H57Z" fill="url(#paint4_linear_241_7)"/>
<path fill-rule="evenodd" clip-rule="evenodd" d="M115.823 186.824C115.823 209.565 134.258 228 156.999 228C179.74 228 198.175 209.565 198.175 186.824H174.646C174.646 196.57 166.745 204.471 156.999 204.471C147.252 204.471 139.352 196.57 139.352 186.824H115.823Z" fill="url(#paint5_linear_241_7)"/>
<path fill-rule="evenodd" clip-rule="evenodd" d="M139.352 69.1748V186.821H115.823V69.1748H139.352Z" fill="url(#paint6_linear_241_7)"/>
<path fill-rule="evenodd" clip-rule="evenodd" d="M198.176 186.82C198.176 164.079 179.74 145.644 156.999 145.644H127.588V169.173H156.999C166.746 169.173 174.646 177.074 174.646 186.82H198.176Z" fill="url(#paint7_linear_241_7)"/>
<path fill-rule="evenodd" clip-rule="evenodd" d="M57 127.999C57 150.74 75.4352 169.175 98.1763 169.175H127.588V145.646H98.1763C88.4299 145.646 80.5293 137.745 80.5293 127.999H57Z" fill="url(#paint8_linear_241_7)"/>
<defs>
<linearGradient id="paint0_linear_241_7" x1="134.123" y1="92.0519" x2="183.142" y2="52.8363" gradientUnits="userSpaceOnUse">
<stop stop-color="#4200FF"/>
<stop offset="0.5" stop-color="#00AAFF"/>
<stop offset="1" stop-color="#00FFAA"/>
</linearGradient>
<linearGradient id="paint1_linear_241_7" x1="186.411" y1="69.1748" x2="139.353" y2="104.469" gradientUnits="userSpaceOnUse">
<stop stop-color="#FD3DF6"/>
<stop offset="1" stop-color="#D478EF"/>
</linearGradient>
<linearGradient id="paint2_linear_241_7" x1="157" y1="39.7646" x2="189.353" y2="69.1763" gradientUnits="userSpaceOnUse">
<stop stop-color="#FF69F9"/>
<stop offset="1" stop-color="#FD3DF6"/>
</linearGradient>
<linearGradient id="paint3_linear_241_7" x1="139.352" y1="69.1762" x2="156.999" y2="51.5292" gradientUnits="userSpaceOnUse">
<stop stop-color="#8C6CF3"/>
<stop offset="1" stop-color="#FF69F9"/>
</linearGradient>
<linearGradient id="paint4_linear_241_7" x1="68.7647" y1="128.001" x2="115.823" y2="98.5892" gradientUnits="userSpaceOnUse">
<stop stop-color="#00D1AC"/>
<stop offset="1" stop-color="#7696D9"/>
</linearGradient>
<linearGradient id="paint5_linear_241_7" x1="127.587" y1="186.824" x2="189.352" y2="186.824" gradientUnits="userSpaceOnUse">
<stop stop-color="#1B71EA"/>
<stop offset="1" stop-color="#2C91ED"/>
</linearGradient>
<linearGradient id="paint6_linear_241_7" x1="139.352" y1="186.821" x2="139.352" y2="67.8542" gradientUnits="userSpaceOnUse">
<stop stop-color="#1B71EA"/>
<stop offset="1" stop-color="#8C6CF3"/>
</linearGradient>
<linearGradient id="paint7_linear_241_7" x1="148.176" y1="151.526" x2="174.646" y2="186.82" gradientUnits="userSpaceOnUse">
<stop stop-color="#00D1AC"/>
<stop offset="1" stop-color="#2C91ED"/>
</linearGradient>
<linearGradient id="paint8_linear_241_7" x1="68.7647" y1="127.999" x2="127.588" y2="157.411" gradientUnits="userSpaceOnUse">
<stop stop-color="#00D1AC"/>
<stop offset="1" stop-color="#00D1AC"/>
</linearGradient>
</defs>
</svg>
