<svg width="256" height="256" viewBox="0 0 256 256" fill="none" xmlns="http://www.w3.org/2000/svg">
<rect width="256" height="256" fill="#232932"/>
<g clip-path="url(#clip0_199_164)">
<path d="M215 84.1911C215.01 92.5715 213.14 100.848 209.526 108.411C205.912 115.975 200.647 122.634 194.118 127.899L43.9662 42.759C43.3922 42.4312 42.8598 42.0356 42.3803 41.5809C41.6278 40.8432 41.0298 39.9635 40.6211 38.9928C40.2125 38.0221 40.0013 36.9799 40 35.927C39.9997 34.8862 40.2048 33.8556 40.6034 32.8939C41.0021 31.9323 41.5865 31.0585 42.3233 30.3224C43.0602 29.5863 43.935 29.0023 44.8979 28.6038C45.8608 28.2054 46.8929 28.0002 47.9352 28H158.754C166.141 28.0001 173.456 29.4537 180.28 32.2777C187.105 35.1018 193.305 39.241 198.527 44.4587C209.076 54.9984 215.001 69.29 215 84.1911Z" fill="#18B4F4"/>
<path d="M215 171.604C215.003 178.984 213.55 186.292 210.723 193.111C207.899 199.931 203.756 206.128 198.532 211.348C193.309 216.565 187.107 220.705 180.282 223.529C173.457 226.354 166.141 227.808 158.753 227.81H47.9366C46.3662 227.793 44.8361 227.311 43.5397 226.426C42.2446 225.54 41.2416 224.291 40.6577 222.836C40.0717 221.38 39.9325 219.783 40.2578 218.249C40.5807 216.714 41.3519 215.31 42.474 214.214C42.922 213.766 43.4234 213.376 43.9669 213.051L103.06 179.545L194.107 127.911C200.634 133.175 205.899 139.831 209.514 147.392C213.13 154.953 215.004 163.226 215 171.604Z" fill="#FD6B3C"/>
<path d="M194.118 127.899L103.059 179.546L43.969 213.051C43.401 213.366 42.876 213.753 42.407 214.202C64.9394 191.112 77.5369 160.139 77.5088 127.899C77.5518 95.6545 64.9574 64.673 42.4193 41.5811C42.8992 42.0365 43.4326 42.4321 44.008 42.7592L194.118 127.899H194.118Z" fill="#A97FF2"/>
</g>
<defs>
<clipPath id="clip0_199_164">
<rect width="175" height="200" fill="white" transform="translate(40 28)"/>
</clipPath>
</defs>
</svg>
