<svg width="256" height="256" viewBox="0 0 256 256" fill="none" xmlns="http://www.w3.org/2000/svg">
<g clip-path="url(#clip0_1_138)">
<rect width="256" height="256" fill="white"/>
<rect width="256" height="256" fill="#15151B"/>
<path d="M206.709 91.241C206.304 90.811 205.873 90.381 205.443 89.975C205.012 89.57 204.607 89.115 204.177 88.71C203.747 88.304 203.342 87.849 202.911 87.444C202.481 87.039 202.076 86.583 201.645 86.178C201.215 85.773 200.81 85.318 200.38 84.912C199.949 84.507 199.544 84.052 199.114 83.646C198.683 83.241 198.278 82.786 197.848 82.38C210.404 94.7221 217.598 111.511 217.873 129.115C217.873 171.064 175.291 205.191 122.936 205.191C93.62 205.191 67.392 194.482 49.949 177.697L51.215 178.963L52.481 180.229L53.746 181.494L55.012 182.76L56.278 184.026L57.544 185.292L58.81 186.558C76.228 204.051 103.038 215.317 133.063 215.317C185.417 215.317 228 181.191 228 139.368C228 121.494 220.304 104.558 206.709 91.241Z" fill="black"/>
<path d="M211.544 129.114C211.544 167.62 171.874 198.836 122.937 198.836C74.0001 198.836 34.3291 167.62 34.3291 129.114C34.3291 105.241 49.5191 84.152 72.8611 71.646C96.2031 59.14 110.734 46.329 122.937 46.329C135.139 46.329 145.57 56.785 173.013 71.646C196.355 84.152 211.544 105.241 211.544 129.114Z" fill="#FBF0DF"/>
<path d="M211.544 129.114C211.533 124.167 210.851 119.245 209.519 114.481C202.608 198.785 99.772 202.835 59.342 177.62C77.517 191.707 99.9449 199.189 122.937 198.835C171.798 198.835 211.544 167.57 211.544 129.114Z" fill="#F6DECE"/>
<path d="M88.8361 67.013C100.152 60.228 115.19 47.493 129.975 47.468C127.701 46.7326 125.327 46.3485 122.937 46.329C116.81 46.329 110.279 49.494 102.051 54.253C99.1901 55.924 96.2281 57.773 93.0891 59.696C87.1891 63.342 80.4301 67.468 72.8351 71.595C48.7351 84.633 34.3291 106.127 34.3291 129.114V132.127C49.6711 77.924 77.5451 73.797 88.8361 67.013Z" fill="#FFFEFC"/>
<path fill-rule="evenodd" clip-rule="evenodd" d="M115.645 52.734C115.681 58.712 114.427 64.6274 111.967 70.0759C109.507 75.5244 105.9 80.3777 101.392 84.304C100.683 84.937 101.24 86.152 102.152 85.797C110.683 82.481 122.202 72.557 117.342 52.532C117.139 51.392 115.645 51.696 115.645 52.734ZM121.392 52.734C124.489 57.7884 126.457 63.4526 127.161 69.3386C127.864 75.2246 127.287 81.193 125.468 86.835C125.164 87.722 126.253 88.481 126.861 87.747C132.405 80.658 137.24 66.582 122.759 51.392C122.025 50.734 120.886 51.747 121.392 52.632V52.734ZM128.38 52.304C133.231 55.7379 137.289 60.1724 140.281 65.3084C143.272 70.4443 145.127 76.1621 145.721 82.076C145.701 82.2862 145.762 82.4961 145.891 82.6635C146.02 82.8309 146.207 82.9434 146.415 82.9786C146.623 83.0137 146.837 82.9689 147.014 82.8531C147.19 82.7373 147.316 82.559 147.367 82.354C149.696 73.519 148.38 58.456 129.215 50.633C128.202 50.228 127.544 51.595 128.38 52.203V52.304ZM81.6449 78.633C87.415 76.9084 92.7573 73.9882 97.3242 70.0626C101.891 66.1369 105.58 61.2937 108.152 55.848C108.607 54.937 110.051 55.291 109.823 56.304C105.443 76.557 90.7849 80.784 81.6709 80.228C80.7089 80.253 80.7339 78.911 81.6449 78.633Z" fill="#CCBEA7"/>
<path d="M122.937 205.19C70.582 205.19 28 171.063 28 129.114C28 103.798 43.646 80.177 69.848 66.025C77.443 61.975 83.949 57.899 89.747 54.329C92.7663 52.4505 95.8045 50.6024 98.861 48.785C107.747 43.519 115.342 40 122.937 40C130.532 40 137.165 43.038 145.468 47.95C148 49.392 150.532 50.962 153.241 52.684C159.544 56.582 166.658 60.987 176.025 66.025C202.228 80.177 217.874 103.772 217.874 129.114C217.874 171.063 175.291 205.19 122.937 205.19ZM122.937 46.33C116.81 46.33 110.279 49.494 102.051 54.253C99.19 55.924 96.228 57.773 93.089 59.696C87.189 63.342 80.43 67.468 72.835 71.595C48.735 84.633 34.329 106.127 34.329 129.114C34.329 167.57 74.076 198.861 122.937 198.861C171.798 198.861 211.544 167.57 211.544 129.114C211.544 106.127 197.139 84.633 173.013 71.646C163.443 66.582 155.975 61.823 149.924 58.076C147.165 56.38 144.633 54.81 142.329 53.418C134.658 48.861 129.063 46.329 122.937 46.329" fill="black"/>
<path d="M140.785 147.596C139.648 152.254 137.06 156.43 133.393 159.52C130.64 162.188 127.077 163.863 123.266 164.279C119.34 163.93 115.652 162.251 112.81 159.52C109.181 156.416 106.628 152.241 105.519 147.596C105.482 147.32 105.509 147.04 105.597 146.776C105.686 146.512 105.833 146.272 106.029 146.074C106.224 145.876 106.463 145.725 106.725 145.634C106.988 145.542 107.268 145.512 107.544 145.545H138.785C139.059 145.516 139.337 145.549 139.596 145.642C139.856 145.736 140.091 145.887 140.283 146.085C140.475 146.283 140.62 146.521 140.707 146.783C140.794 147.045 140.821 147.323 140.785 147.596Z" fill="#B71422"/>
<path d="M112.81 159.722C115.647 162.453 119.322 164.148 123.241 164.532C127.151 164.142 130.816 162.448 133.646 159.722C134.551 158.878 135.396 157.973 136.177 157.013C134.618 155.243 132.713 153.811 130.58 152.805C128.446 151.799 126.129 151.241 123.772 151.165C121.25 151.224 118.779 151.895 116.574 153.122C114.369 154.348 112.495 156.092 111.114 158.203C111.696 158.734 112.203 159.241 112.81 159.722Z" fill="#FF6164"/>
<path d="M113.215 157.722C114.47 156.1 116.077 154.783 117.914 153.871C119.751 152.959 121.772 152.475 123.823 152.456C127.614 152.569 131.226 154.094 133.95 156.734C134.527 156.102 135.084 155.452 135.62 154.785C132.399 151.718 128.143 149.974 123.696 149.899C121.319 149.92 118.977 150.466 116.837 151.499C114.696 152.532 112.811 154.026 111.317 155.874C111.916 156.525 112.548 157.141 113.215 157.722Z" fill="black"/>
<path d="M123.165 165.798C118.946 165.427 114.977 163.643 111.899 160.734C107.98 157.42 105.222 152.941 104.026 147.95C103.94 147.506 103.955 147.048 104.069 146.61C104.183 146.172 104.393 145.764 104.684 145.418C105.031 144.999 105.469 144.665 105.965 144.441C106.461 144.217 107.001 144.11 107.545 144.127H138.785C139.328 144.115 139.867 144.225 140.362 144.448C140.857 144.672 141.296 145.003 141.646 145.418C141.934 145.766 142.141 146.174 142.25 146.612C142.36 147.05 142.37 147.507 142.279 147.95C141.083 152.941 138.324 157.42 134.405 160.734C131.335 163.639 127.375 165.423 123.165 165.798ZM107.545 147.063C107.139 147.063 107.038 147.241 107.013 147.291C108.084 151.619 110.504 155.494 113.924 158.355C116.425 160.819 119.677 162.378 123.165 162.785C126.643 162.382 129.891 160.843 132.405 158.405C135.815 155.541 138.227 151.667 139.291 147.342C139.236 147.261 139.16 147.197 139.07 147.156C138.981 147.116 138.882 147.102 138.785 147.114L107.545 147.063Z" fill="black"/>
<path d="M161.469 149.164C169.648 149.164 176.279 145.265 176.279 140.455C176.279 135.645 169.648 131.747 161.469 131.747C153.29 131.747 146.659 135.646 146.659 140.455C146.659 145.264 153.289 149.164 161.469 149.164ZM84.8359 149.164C93.0159 149.164 99.6459 145.265 99.6459 140.455C99.6459 135.645 93.0159 131.747 84.8359 131.747C76.6559 131.747 70.0259 135.646 70.0259 140.455C70.0259 145.264 76.6559 149.164 84.8359 149.164Z" fill="#FEBBD0"/>
<path fill-rule="evenodd" clip-rule="evenodd" d="M91.798 136.962C93.8615 136.966 95.9002 136.512 97.7671 135.633C99.634 134.754 101.283 133.472 102.594 131.879C103.905 130.285 104.847 128.421 105.351 126.42C105.855 124.419 105.909 122.331 105.508 120.307C104.996 117.715 103.758 115.322 101.938 113.406C100.119 111.49 97.7927 110.13 95.2306 109.485C92.6685 108.839 89.9757 108.935 87.4658 109.76C84.9558 110.585 82.7317 112.106 81.0525 114.146C79.3733 116.186 78.3079 118.661 77.9804 121.283C77.6529 123.905 78.0767 126.565 79.2024 128.956C80.3282 131.346 82.1097 133.368 84.3395 134.785C86.5694 136.202 89.1559 136.957 91.798 136.962ZM154.507 136.962C157.27 136.982 159.977 136.181 162.284 134.66C164.591 133.14 166.395 130.968 167.466 128.421C168.267 126.517 168.635 124.459 168.543 122.395C168.452 120.331 167.903 118.314 166.937 116.488C165.97 114.662 164.611 113.074 162.956 111.838C161.301 110.601 159.392 109.748 157.367 109.34C155.342 108.931 153.252 108.977 151.247 109.475C149.242 109.973 147.373 110.91 145.774 112.218C144.175 113.526 142.887 115.173 142.003 117.04C141.118 118.906 140.659 120.946 140.659 123.012C140.651 126.697 142.104 130.234 144.7 132.849C147.296 135.464 150.823 136.943 154.507 136.962Z" fill="black"/>
<path fill-rule="evenodd" clip-rule="evenodd" d="M87.4939 123.898C88.5309 123.902 89.5458 123.598 90.4101 123.025C91.2745 122.452 91.9495 121.636 92.3498 120.679C92.7502 119.722 92.8578 118.669 92.6592 117.651C92.4606 116.633 91.9646 115.697 91.2339 114.961C90.6264 114.35 89.8777 113.899 89.0541 113.646C88.2304 113.394 87.3573 113.348 86.5118 113.514C85.6664 113.679 84.8748 114.05 84.207 114.594C83.5393 115.139 83.0159 115.839 82.6834 116.634C82.3508 117.428 82.2193 118.293 82.3004 119.151C82.3815 120.008 82.6728 120.833 83.1484 121.551C83.624 122.269 84.2694 122.859 85.0273 123.268C85.7853 123.678 86.6325 123.894 87.4939 123.898ZM150.203 123.898C151.24 123.902 152.255 123.598 153.12 123.026C153.985 122.453 154.661 121.637 155.063 120.681C155.462 119.724 155.569 118.669 155.37 117.651C155.17 116.633 154.674 115.697 153.943 114.961C153.396 114.412 152.733 113.991 152.003 113.728C151.273 113.466 150.495 113.368 149.723 113.443C148.951 113.518 148.205 113.763 147.539 114.161C146.874 114.559 146.305 115.1 145.873 115.744C145.202 116.747 144.897 117.95 145.011 119.151C145.124 120.353 145.649 121.478 146.496 122.337C147.462 123.317 148.776 123.878 150.152 123.898H150.203Z" fill="white"/>
</g>
<defs>
<clipPath id="clip0_1_138">
<rect width="256" height="256" fill="white"/>
</clipPath>
</defs>
</svg>
