<svg width="256" height="256" viewBox="0 0 256 256" fill="none" xmlns="http://www.w3.org/2000/svg">
<rect width="256" height="256" fill="#FF6636"/>
<path d="M131.839 227.985C130.622 227.985 129.777 226.877 129.782 225.744C129.786 225.287 130.079 224.594 130.663 223.664C134.199 218.017 143.322 203.352 158.029 179.67C158.549 178.834 158.713 177.887 158.522 176.83C158.401 176.151 158.002 175.268 157.325 174.181C154.378 169.454 145.189 154.68 129.757 129.859C129.655 129.7 129.519 129.565 129.36 129.462C127.565 128.313 126.569 129.391 125.533 131.058C87.2271 192.637 67.9869 223.58 67.8126 223.885C67.1388 225.06 66.5588 225.717 66.0727 225.854C65.2245 226.096 64.4517 225.97 63.7544 225.477C63.5818 225.354 63.4348 225.198 63.3219 225.018C46.747 198.341 37.8443 184.031 36.614 182.087C35.635 180.536 35.1104 179.331 35.0399 178.471C34.874 176.502 35.2109 175.183 36.3173 173.405C40.0486 167.429 49.1591 152.781 63.6488 129.462C64.1852 128.595 64.844 127.954 65.6251 127.538C66.2051 127.226 67.1052 127.07 68.3256 127.07C105.468 127.08 124.061 127.085 124.105 127.085C124.182 127.081 124.258 127.066 124.331 127.039C125.431 126.633 126.07 126.01 126.247 125.171C126.355 124.674 126.066 123.882 125.382 122.794C122.067 117.51 112.919 102.803 97.9401 78.6743C97.0618 77.2575 97.0953 75.782 98.0407 74.2477C106.335 60.795 115.717 45.7057 126.187 28.9797C126.77 28.0481 127.987 27.7963 128.933 28.1588C129.322 28.3099 129.794 28.8337 130.351 29.7301C155.545 70.2626 184.806 117.318 218.133 170.897C219.749 173.496 220.596 174.924 220.673 175.183C221.119 176.684 221.109 178.282 220.643 179.977C220.613 180.084 220.569 180.186 220.512 180.279C211.899 194.168 202.599 209.107 192.612 225.094C191.419 227.011 189.585 227.971 187.111 227.975C171.85 228.005 153.426 228.008 131.839 227.985Z" fill="white"/>
</svg>
