<svg width="256" height="256" viewBox="0 0 256 256" fill="none" xmlns="http://www.w3.org/2000/svg">
<g clip-path="url(#clip0_17_355)">
<rect width="256" height="256" fill="white"/>
<rect width="256" height="256" fill="#7E8C9A"/>
<path d="M134.001 33C169.144 33 199.828 52.086 216.262 80.456L216.102 80.183L174.753 103.991C166.607 90.198 151.672 80.889 134.54 80.698L134.001 80.695C107.875 80.695 86.695 101.874 86.695 127.999C86.6874 136.233 88.8385 144.326 92.934 151.469C101.088 165.704 116.416 175.306 134.001 175.306C151.693 175.306 167.109 165.582 175.222 151.195L175.025 151.54L216.311 175.458C200.057 203.588 169.794 222.615 135.059 222.994L134.001 223C98.746 223 67.975 203.796 51.582 175.276C43.579 161.353 39 145.212 39 127.999C39 75.533 81.532 33 134.001 33Z" fill="white"/>
</g>
<defs>
<clipPath id="clip0_17_355">
<rect width="256" height="256" fill="white"/>
</clipPath>
</defs>
</svg>
