<svg width="256" height="256" viewBox="0 0 256 256" fill="none" xmlns="http://www.w3.org/2000/svg">
<g clip-path="url(#clip0_17_355)">
<rect width="256" height="256" fill="white"/>
<rect width="256" height="256" fill="#7E8C9A"/>
<path d="M220.705 86.8113C220.769 83.6984 219.984 80.6269 218.434 77.9265C216.803 75.2768 214.496 73.1097 211.749 71.6486C187.018 57.9929 162.275 44.3443 137.521 30.7028C134.537 28.9058 131.113 27.9705 127.63 28.0007C124.146 28.031 120.739 29.0256 117.787 30.8743C107.945 36.438 58.686 63.478 44.0018 71.6272C41.2091 73.0329 38.8779 75.2096 37.2842 77.8995C35.6906 80.5893 34.9013 83.6796 35.0099 86.8042V169.217C34.9377 172.26 35.6773 175.268 37.1525 177.93C38.7916 180.657 41.1487 182.881 43.9661 184.358C58.6503 192.508 107.917 219.548 117.758 225.111C120.71 226.962 124.116 227.959 127.599 227.992C131.082 228.025 134.507 227.092 137.492 225.297C162.204 211.627 186.93 197.978 211.67 184.351C214.488 182.872 216.847 180.649 218.491 177.923C219.966 175.261 220.706 172.253 220.633 169.21V86.8113" fill="#A9B9CB"/>
<path d="M217.484 179.223C217.859 178.811 218.21 178.377 218.534 177.923C220.009 175.261 220.749 172.253 220.677 169.21V86.8113C220.741 83.6984 219.955 80.6269 218.405 77.9266C218.148 77.5052 217.77 77.1766 217.477 76.7838L127.858 128.007L217.484 179.223Z" fill="#8B97A3"/>
<path d="M217.484 179.223L127.857 128.007L38.231 179.223C39.74 181.355 41.7163 183.114 44.0089 184.366C58.6931 192.515 107.959 219.555 117.801 225.118C120.752 226.969 124.159 227.966 127.642 227.999C131.125 228.032 134.55 227.099 137.535 225.304C162.247 211.634 186.973 197.986 211.713 184.358C214.002 183.108 215.976 181.352 217.484 179.223Z" fill="#7F8B99"/>
<path d="M153.569 142.434C150.388 148.092 145.425 152.54 139.454 155.084C133.482 157.629 126.837 158.129 120.552 156.505C114.268 154.881 108.696 151.226 104.704 146.107C100.713 140.988 98.5254 134.694 98.4826 128.203C98.4397 121.712 100.544 115.389 104.467 110.217C108.391 105.046 113.914 101.317 120.177 99.6109C126.439 97.9043 133.091 98.3159 139.095 100.782C145.1 103.247 150.121 107.629 153.377 113.244L179.195 98.4388C172.642 87.192 162.572 78.412 150.538 73.4511C138.503 68.4902 125.172 67.6238 112.596 70.9852C100.021 74.3467 88.8999 81.7495 80.9458 92.0533C72.9917 102.357 68.646 114.99 68.5782 128.007C68.5599 138.33 71.2702 148.473 76.4345 157.411C81.659 166.441 89.1688 173.936 98.2087 179.142C107.249 184.349 117.5 187.083 127.932 187.071C138.364 187.059 148.609 184.3 157.637 179.072C166.664 173.844 174.156 166.332 179.36 157.29L153.569 142.434Z" fill="white"/>
</g>
<defs>
<clipPath id="clip0_17_355">
<rect width="256" height="256" fill="white"/>
</clipPath>
</defs>
</svg>
