<svg width="256" height="256" viewBox="0 0 256 256" fill="none" xmlns="http://www.w3.org/2000/svg">
<g clip-path="url(#clip0_17_355)">
<rect width="256" height="256" fill="white"/>
<rect width="256" height="256" fill="#7E8C9A"/>
<rect width="256" height="256" fill="#A9B9CB"/>
<path d="M128 128L257 53.5218V202.478L128 128Z" fill="#8B97A3"/>
<rect y="201" width="256" height="55" fill="#7F8B99"/>
<path d="M256 201.244L128 128L0 201.244C2.15514 204.293 4.97759 206.809 8.25182 208.598C29.223 220.252 99.5828 258.922 113.638 266.879C117.853 269.526 122.718 270.952 127.692 270.999C132.667 271.046 137.557 269.712 141.821 267.145C177.113 247.595 212.426 228.076 247.758 208.588C251.028 206.8 253.847 204.288 256 201.244Z" fill="#7F8B99"/>
<path d="M160.769 146.476C156.696 153.718 150.344 159.411 142.701 162.668C135.057 165.926 126.552 166.565 118.507 164.487C110.463 162.408 103.331 157.729 98.2216 151.177C93.1125 144.625 90.3126 136.568 90.2577 128.259C90.2028 119.951 92.896 111.857 97.9181 105.238C102.94 98.6194 110.01 93.8463 118.026 91.6619C126.042 89.4775 134.556 90.0044 142.242 93.1605C149.927 96.3167 156.354 101.925 160.522 109.113L193.57 90.1616C185.182 75.7657 172.293 64.5273 156.888 58.1774C141.484 51.8275 124.42 50.7184 108.323 55.0211C92.2271 59.3237 77.9918 68.7993 67.8106 81.9882C57.6293 95.1772 52.0669 111.348 51.9801 128.009C51.9567 141.222 55.4259 154.206 62.0362 165.646C68.7235 177.204 78.336 186.798 89.9071 193.462C101.478 200.126 114.6 203.627 127.953 203.611C141.306 203.595 154.42 200.064 165.975 193.372C177.53 186.681 187.12 177.065 193.78 165.491L160.769 146.476Z" fill="white"/>
</g>
<defs>
<clipPath id="clip0_17_355">
<rect width="256" height="256" fill="white"/>
</clipPath>
</defs>
</svg>
