<svg width="256" height="256" viewBox="0 0 256 256" fill="none" xmlns="http://www.w3.org/2000/svg">
<rect width="256" height="256" fill="#232932"/>
<path d="M128 227.954C72.7623 227.954 28 183.191 28 127.977C28 72.7623 72.7623 28 128 28C183.238 28 228 72.7623 228 127.977C228 183.191 183.238 227.954 128 227.954Z" fill="url(#paint0_linear_178_52)"/>
<path d="M177.192 166.071L117.179 194.89C116.809 195.074 116.394 195.167 115.979 195.167C115.471 195.167 114.964 195.028 114.502 194.751C113.695 194.244 113.21 193.367 113.21 192.398V163.856L80.7919 150.289C79.7536 149.851 79.0845 148.858 79.0845 147.728V72.7855C79.0845 71.8395 79.569 70.9396 80.3766 70.432C81.1842 69.9244 82.1994 69.8782 83.0531 70.2705L145.443 100.22L174.816 86.1219C175.67 85.7066 176.685 85.7758 177.492 86.2834C178.3 86.791 178.785 87.6678 178.785 88.6369V163.579C178.761 164.641 178.162 165.61 177.192 166.071ZM84.6221 77.1925V145.882L113.21 157.857V144.059L95.2358 136.814C93.8284 136.237 93.1362 134.622 93.6899 133.215C94.2667 131.784 95.8819 131.115 97.2894 131.669L113.21 138.083V126.754L95.2358 119.509C93.8284 118.932 93.1362 117.317 93.6899 115.91C94.2667 114.479 95.8819 113.81 97.2894 114.364L113.21 120.778V117.479C113.21 116.417 113.81 115.448 114.779 114.987L118.886 113.002L95.0974 102.181C93.713 101.558 93.09 99.8967 93.713 98.5123C94.336 97.1279 95.9973 96.5049 97.3817 97.1279L125.37 109.887L139.006 103.335L84.6221 77.1925ZM173.224 93.0439L118.748 119.209V188.014L173.224 161.826V93.0439ZM129.154 128.854L160.372 113.764C161.756 113.095 163.395 113.671 164.064 115.056C164.733 116.44 164.156 118.102 162.772 118.748L131.553 133.838C131.161 134.022 130.746 134.114 130.354 134.114C129.315 134.114 128.346 133.538 127.862 132.545C127.216 131.184 127.792 129.523 129.154 128.854ZM129.154 146.159L160.372 131.069C161.756 130.4 163.395 130.977 164.064 132.361C164.733 133.745 164.156 135.407 162.772 136.053L131.553 151.143C131.161 151.327 130.746 151.42 130.354 151.42C129.315 151.42 128.346 150.843 127.862 149.851C127.216 148.466 127.792 146.828 129.154 146.159ZM129.154 163.441L160.372 148.351C161.756 147.682 163.395 148.258 164.064 149.643C164.733 151.027 164.156 152.689 162.772 153.335L131.553 168.425C131.161 168.609 130.746 168.701 130.354 168.701C129.315 168.701 128.346 168.125 127.862 167.132C127.216 165.771 127.792 164.11 129.154 163.441Z" fill="white"/>
<defs>
<linearGradient id="paint0_linear_178_52" x1="57.296" y1="198.681" x2="198.704" y2="57.273" gradientUnits="userSpaceOnUse">
<stop stop-color="#7366A7"/>
<stop offset="0.268" stop-color="#6B68AA"/>
<stop offset="0.691" stop-color="#546DB1"/>
<stop offset="1" stop-color="#3F71B7"/>
</linearGradient>
</defs>
</svg>
