<svg width="256" height="256" viewBox="0 0 256 256" fill="none" xmlns="http://www.w3.org/2000/svg">
<rect width="256" height="256" fill="#232932"/>
<path d="M119.732 130.25L75.9223 173.025L32.1172 130.25L75.9223 87.4893L119.732 130.25Z" fill="#932279"/>
<path d="M128.858 121.495L85.7041 78.454L128.858 35.4126L172.002 78.454L128.858 121.495Z" fill="#EFA724"/>
<path d="M172.105 182.188L128.292 224.965L84.4902 182.188L128.295 139.429L172.105 182.188Z" fill="#9CCD2A"/>
<path d="M181.23 173.435L138.076 130.386L181.228 87.3525L224.38 130.386L181.23 173.435Z" fill="#262577"/>
<path d="M137.435 138.74H195.935V197.144H137.435V138.74Z" fill="#EFA724"/>
<path d="M137.675 63.2827H196.362V121.414H137.675V63.2827Z" fill="#932279"/>
<path d="M58.8706 138.74H119.975V199.314H58.8706V138.74Z" fill="#262577"/>
<path d="M58.8706 60.8345H119.975V121.063H58.8706V60.8345Z" fill="#9CCD2A"/>
<path d="M128.86 28L102.461 54.8957H56.6867V100.455L29 128.075L56.6867 155.719V200.883H101.126L128.289 228L155.461 200.883H200.359V155.85L227.458 128.207L200.728 100.974V55.2599H155.607L128.86 28ZM128.852 34.2574L149.455 55.2583H135.48V109.241L128.854 115.989L122.155 109.159V54.8957H108.606L128.852 34.2574ZM61.0476 59.34H98.122L82.6213 75.1296L117.791 110.999V116.483H111.205L75.9146 81.2506L61.0492 96.0872L61.0476 59.34ZM104.267 59.34H117.793V104.71L88.7824 75.1264L104.267 59.34ZM139.849 59.685H153.8L168.932 75.1296L139.846 104.783L139.849 59.685ZM159.952 59.685H196.368V96.5091L181.229 81.0742L146.161 116.839H139.849V111.065L175.085 75.128L159.952 59.685ZM181.229 87.354L196.368 102.781V116.838H152.313L181.229 87.354ZM75.9226 87.4615L104.991 116.485H61.0476V102.312L75.9226 87.4615ZM56.6883 106.656V120.9H109.417L116.622 128.075L110.156 134.537H56.6867V149.503L35.2269 128.075L56.6883 106.656ZM200.731 107.23L221.308 128.207L200.359 149.57V134.53H147.35L141.157 128.209L147.974 121.263H200.726L200.731 107.23ZM122.154 115.44L128.852 122.254L135.479 115.514V121.26H141.825L135.007 128.205L141.2 134.527H135.264V141.301L128.291 134.339L122.163 140.463V134.537H116.374L122.84 128.075L121.291 126.542L115.636 120.9H122.159L122.154 115.44ZM61.0556 138.955H105.721L75.9226 168.707L61.0572 153.856L61.0556 138.955ZM111.936 138.955H117.793V144.826L81.3762 181.169L96.6925 196.455H61.0556V160.068L75.9146 174.905L111.936 138.955ZM139.623 138.955H145.542L181.227 175.345L182.769 173.793L195.99 160.295V196.469H159.888L175.212 181.174L173.662 179.614L139.623 145.657V138.955ZM151.687 138.955H195.991V154.021L181.229 169.07L151.687 138.955ZM128.299 140.557L135.262 147.512V200.888H149.247L128.3 221.791L107.354 200.888H122.165V146.678L128.299 140.557ZM117.794 151.04V196.458H102.921L87.6048 181.172L117.794 151.04ZM139.625 151.862L168.996 181.172L153.672 196.467H139.623L139.625 151.862Z" fill="white"/>
</svg>
