<svg width="256" height="256" viewBox="0 0 256 256" fill="none" xmlns="http://www.w3.org/2000/svg">
<rect width="256" height="256" fill="#232932"/>
<g clip-path="url(#clip0_98_307)">
<path d="M208.98 128.545C181.057 129.093 186.873 146.768 167.195 151.237C147.204 155.778 144.048 102.421 124.062 102.421C104.073 102.421 99.6463 154.251 74.6181 189.833L73.9038 190.84L127.564 221.811L208.98 174.817V128.545Z" fill="#36A2EB"/>
<path d="M208.98 126.937C199.633 114.942 193.293 101.153 179.651 101.153C155.513 101.153 161.865 140.525 135.186 140.525C108.505 140.525 105.7 98.1745 75.4758 137.985C65.8445 150.67 58.0926 164.814 52.0032 178.198L127.564 221.812L208.98 174.818V126.937Z" fill="#FFCE56"/>
<path opacity="0.8" d="M46.1448 143.246C55.305 117.882 59.2583 97.3403 76.7462 97.3403C103.425 97.3403 109.775 172.278 132.645 164.655C155.513 157.034 152.971 116.39 188.545 116.39C195.317 116.39 202.23 120.537 208.982 127.246V174.817L127.565 221.81L46.1448 174.817V143.246V143.246Z" fill="#FE6184"/>
<path d="M127.5 227.703L41 177.779V77.9257L127.5 28L214 77.9257V177.777L127.5 227.703ZM51.1631 171.912L127.5 215.973L203.837 171.912V83.7919L127.5 39.7311L51.1631 83.7919V171.912Z" fill="#E7E9ED"/>
</g>
<defs>
<clipPath id="clip0_98_307">
<rect width="173" height="200" fill="white" transform="translate(41 28)"/>
</clipPath>
</defs>
</svg>
