<svg width="256" height="256" viewBox="0 0 256 256" fill="none" xmlns="http://www.w3.org/2000/svg">
<rect width="256" height="256" fill="#232932"/>
<g clip-path="url(#clip0_155_67)">
<path d="M97.922 40.8906C103.594 40.8906 109.266 40.8906 115.109 40.8906C115.109 41.1484 115.109 41.4062 115.109 41.6719C117.688 41.6719 120.266 41.6719 122.922 41.6719C122.922 41.9297 122.922 42.1875 122.922 42.4531C124.469 42.4531 126.016 42.4531 127.609 42.4531C127.609 42.7109 127.609 42.9688 127.609 43.2344C128.641 43.2344 129.672 43.2344 130.734 43.2344C130.734 43.4922 130.734 43.75 130.734 44.0156C131.766 44.0156 132.797 44.0156 133.859 44.0156C133.859 44.2734 133.859 44.5312 133.859 44.7969C134.633 44.7969 135.406 44.7969 136.203 44.7969C136.203 45.0547 136.203 45.3125 136.203 45.5781C137.234 45.5781 138.266 45.5781 139.328 45.5781C139.328 45.8359 139.328 46.0938 139.328 46.3594C139.844 46.3594 140.359 46.3594 140.891 46.3594C140.891 46.6172 140.891 46.875 140.891 47.1406C141.664 47.1406 142.438 47.1406 143.234 47.1406C143.234 47.3984 143.234 47.6562 143.234 47.9219C143.75 47.9219 144.266 47.9219 144.797 47.9219C144.797 48.1797 144.797 48.4375 144.797 48.7031C145.313 48.7031 145.828 48.7031 146.359 48.7031C146.359 48.9609 146.359 49.2188 146.359 49.4844C146.875 49.4844 147.391 49.4844 147.922 49.4844C147.922 49.7422 147.922 50 147.922 50.2656C148.438 50.2656 148.953 50.2656 149.484 50.2656C149.484 50.5234 149.484 50.7812 149.484 51.0469C150 51.0469 150.516 51.0469 151.047 51.0469C151.047 51.3047 151.047 51.5625 151.047 51.8281C151.305 51.8281 151.563 51.8281 151.828 51.8281C151.828 52.0859 151.828 52.3438 151.828 52.6094C152.288 52.5273 152.288 52.5273 152.758 52.4436C155.67 51.9257 158.583 51.4138 161.497 50.9084C162.994 50.6485 164.491 50.3863 165.988 50.1189C167.436 49.8601 168.884 49.6076 170.334 49.359C170.883 49.2638 171.432 49.1666 171.98 49.067C178.188 47.9423 184.31 48.0486 189.694 51.7061C192.759 54.119 194.451 56.9847 195.188 60.8125C195.263 61.7512 195.249 62.6041 195.188 63.5469C195.671 63.4663 196.154 63.3857 196.652 63.3027C200.816 62.8661 204.592 64.0109 208.078 66.2812C210.951 68.6934 212.307 71.9877 212.766 75.6562C212.808 76.7475 212.803 77.8359 212.79 78.9277C212.788 79.2153 212.787 79.5028 212.785 79.799C212.78 80.5014 212.773 81.2038 212.766 81.9062C213.346 81.7129 213.346 81.7129 213.938 81.5156C218.059 81.1894 221.695 81.696 224.97 84.3477C226.798 86.1675 228.046 88.3295 228.053 90.9377C228.054 91.267 228.056 91.5962 228.058 91.9354C228.058 92.478 228.058 92.478 228.058 93.0315C228.059 93.4158 228.06 93.8001 228.062 94.196C228.066 95.4896 228.068 96.7832 228.069 98.0768C228.072 99.002 228.074 99.9272 228.077 100.852C228.085 103.633 228.089 106.414 228.092 109.195C228.094 110.506 228.096 111.816 228.098 113.126C228.105 117.484 228.11 121.841 228.113 126.198C228.114 127.329 228.115 128.459 228.115 129.59C228.116 129.871 228.116 130.152 228.116 130.442C228.119 134.991 228.129 139.54 228.142 144.089C228.155 148.762 228.162 153.435 228.163 158.107C228.164 160.73 228.167 163.353 228.177 165.975C228.186 168.444 228.188 170.912 228.184 173.381C228.184 174.286 228.186 175.19 228.192 176.095C228.199 177.333 228.196 178.571 228.191 179.809C228.195 180.164 228.199 180.52 228.204 180.886C228.164 184.87 226.695 187.952 223.929 190.785C220.803 193.538 218.087 194.119 214.035 194.138C211.348 194.098 211.348 194.098 208.946 195.123C208.189 196.027 208.189 196.027 207.559 197.002C205.805 199.474 202.37 200.788 199.484 201.438C197.845 201.568 196.221 201.549 194.577 201.511C194.146 201.505 193.715 201.5 193.27 201.495C192.217 201.481 191.163 201.462 190.109 201.438C189.993 201.683 189.876 201.929 189.755 202.181C188.358 204.859 185.043 205.912 182.393 206.914C179.47 207.797 176.541 207.767 173.509 207.811C173.045 207.819 172.581 207.827 172.102 207.836C170.626 207.861 169.149 207.884 167.673 207.907C166.669 207.924 165.665 207.941 164.662 207.958C162.207 208 159.752 208.04 157.297 208.078C157.297 208.336 157.297 208.594 157.297 208.859C157.039 208.859 156.781 208.859 156.516 208.859C156.516 209.117 156.516 209.375 156.516 209.641C156 209.641 155.484 209.641 154.953 209.641C154.953 209.898 154.953 210.156 154.953 210.422C154.438 210.422 153.922 210.422 153.391 210.422C153.391 210.68 153.391 210.938 153.391 211.203C153.133 211.203 152.875 211.203 152.609 211.203C152.609 211.461 152.609 211.719 152.609 211.984C152.094 211.984 151.578 211.984 151.047 211.984C151.047 212.242 151.047 212.5 151.047 212.766C150.789 212.766 150.531 212.766 150.266 212.766C150.266 213.023 150.266 213.281 150.266 213.547C149.75 213.547 149.234 213.547 148.703 213.547C148.703 213.805 148.703 214.062 148.703 214.328C148.188 214.328 147.672 214.328 147.141 214.328C147.141 214.586 147.141 214.844 147.141 215.109C146.625 215.109 146.109 215.109 145.578 215.109C145.578 215.367 145.578 215.625 145.578 215.891C145.063 215.891 144.547 215.891 144.016 215.891C144.016 216.148 144.016 216.406 144.016 216.672C143.242 216.672 142.469 216.672 141.672 216.672C141.672 216.93 141.672 217.188 141.672 217.453C141.156 217.453 140.641 217.453 140.109 217.453C140.109 217.711 140.109 217.969 140.109 218.234C139.336 218.234 138.563 218.234 137.766 218.234C137.766 218.492 137.766 218.75 137.766 219.016C136.992 219.016 136.219 219.016 135.422 219.016C135.422 219.273 135.422 219.531 135.422 219.797C134.391 219.797 133.359 219.797 132.297 219.797C132.297 220.055 132.297 220.312 132.297 220.578C131.266 220.578 130.234 220.578 129.172 220.578C129.172 220.836 129.172 221.094 129.172 221.359C127.625 221.359 126.078 221.359 124.484 221.359C124.484 221.617 124.484 221.875 124.484 222.141C122.68 222.141 120.875 222.141 119.016 222.141C119.016 222.398 119.016 222.656 119.016 222.922C110.766 222.922 102.516 222.922 94.0157 222.922C94.0157 222.664 94.0157 222.406 94.0157 222.141C92.2111 222.141 90.4064 222.141 88.547 222.141C88.547 221.883 88.547 221.625 88.547 221.359C87.0001 221.359 85.4532 221.359 83.8595 221.359C83.8595 221.102 83.8595 220.844 83.8595 220.578C82.8282 220.578 81.797 220.578 80.7345 220.578C80.7345 220.32 80.7345 220.062 80.7345 219.797C79.7032 219.797 78.672 219.797 77.6095 219.797C77.6095 219.539 77.6095 219.281 77.6095 219.016C76.8361 219.016 76.0626 219.016 75.2657 219.016C75.2657 218.758 75.2657 218.5 75.2657 218.234C74.4923 218.234 73.7189 218.234 72.922 218.234C72.922 217.977 72.922 217.719 72.922 217.453C72.4064 217.453 71.8907 217.453 71.3595 217.453C71.3595 217.195 71.3595 216.938 71.3595 216.672C70.5861 216.672 69.8126 216.672 69.0157 216.672C69.0157 216.414 69.0157 216.156 69.0157 215.891C68.5001 215.891 67.9845 215.891 67.4532 215.891C67.4532 215.633 67.4532 215.375 67.4532 215.109C66.9376 215.109 66.422 215.109 65.8907 215.109C65.8907 214.852 65.8907 214.594 65.8907 214.328C65.3751 214.328 64.8595 214.328 64.3282 214.328C64.3282 214.07 64.3282 213.812 64.3282 213.547C63.8126 213.547 63.297 213.547 62.7657 213.547C62.7657 213.289 62.7657 213.031 62.7657 212.766C62.5079 212.766 62.2501 212.766 61.9845 212.766C61.9845 212.508 61.9845 212.25 61.9845 211.984C61.4689 211.984 60.9532 211.984 60.422 211.984C60.422 211.727 60.422 211.469 60.422 211.203C59.9064 211.203 59.3907 211.203 58.8595 211.203C58.8595 210.945 58.8595 210.688 58.8595 210.422C58.6017 210.422 58.3439 210.422 58.0782 210.422C58.0782 210.164 58.0782 209.906 58.0782 209.641C57.5626 209.641 57.047 209.641 56.5157 209.641C56.5157 209.383 56.5157 209.125 56.5157 208.859C56.2579 208.859 56.0001 208.859 55.7345 208.859C55.7345 208.602 55.7345 208.344 55.7345 208.078C55.4159 208.072 55.0973 208.067 54.769 208.061C53.5632 208.037 52.3577 208.008 51.1521 207.976C50.3832 207.957 49.6142 207.943 48.8451 207.929C44.6876 207.813 40.8696 207.295 37.1554 205.319C36.5866 205.022 36.5866 205.022 36.0064 204.72C35.0314 204.172 35.0314 204.172 33.8595 203.391C33.8595 203.133 33.8595 202.875 33.8595 202.609C33.4728 202.48 33.0861 202.352 32.6876 202.219C32.6876 201.961 32.6876 201.703 32.6876 201.438C32.4298 201.438 32.172 201.438 31.9064 201.438C31.2731 200.635 31.2731 200.635 30.5636 199.533C30.2139 199.003 30.2139 199.003 29.8571 198.462C28.2217 195.308 27.8278 192.308 27.8487 188.792C27.8466 188.361 27.8445 187.931 27.8423 187.487C27.8367 186.052 27.8395 184.618 27.8423 183.184C27.8401 182.152 27.8374 181.119 27.8342 180.087C27.8275 177.58 27.8271 175.073 27.8292 172.566C27.8307 170.527 27.8302 168.488 27.8281 166.449C27.8278 166.158 27.8275 165.867 27.8272 165.568C27.8266 164.977 27.826 164.386 27.8254 163.795C27.82 158.26 27.8222 152.725 27.8267 147.191C27.8305 142.135 27.8255 137.078 27.8161 132.022C27.8066 126.822 27.8028 121.622 27.8054 116.422C27.8068 113.506 27.806 110.59 27.7991 107.674C27.7933 105.192 27.7931 102.709 27.7999 100.227C27.8032 98.9621 27.8032 97.6974 27.7981 96.4325C27.7929 95.0572 27.7975 93.6823 27.8043 92.307C27.8006 91.913 27.7968 91.5189 27.793 91.1129C27.8509 85.4603 30.3322 80.3036 34.2257 76.2666C38.1656 72.5312 38.1656 72.5312 40.1095 72.5312C40.1095 72.1445 40.1095 71.7578 40.1095 71.3594C40.3673 71.3594 40.6251 71.3594 40.8907 71.3594C40.8907 71.1016 40.8907 70.8438 40.8907 70.5781C41.1486 70.5781 41.4064 70.5781 41.672 70.5781C41.672 70.3203 41.672 70.0625 41.672 69.7969C41.9298 69.7969 42.1876 69.7969 42.4532 69.7969C42.4532 69.2812 42.4532 68.7656 42.4532 68.2344C42.7111 68.2344 42.9689 68.2344 43.2345 68.2344C43.2345 67.9766 43.2345 67.7188 43.2345 67.4531C43.4923 67.4531 43.7501 67.4531 44.0157 67.4531C44.0157 67.1953 44.0157 66.9375 44.0157 66.6719C44.2736 66.6719 44.5314 66.6719 44.797 66.6719C44.797 66.4141 44.797 66.1562 44.797 65.8906C45.0548 65.8906 45.3126 65.8906 45.5782 65.8906C45.5782 65.375 45.5782 64.8594 45.5782 64.3281C45.8361 64.3281 46.0939 64.3281 46.3595 64.3281C46.3595 64.0703 46.3595 63.8125 46.3595 63.5469C46.6173 63.5469 46.8751 63.5469 47.1407 63.5469C47.1407 63.2891 47.1407 63.0312 47.1407 62.7656C47.3986 62.7656 47.6564 62.7656 47.922 62.7656C47.922 62.5078 47.922 62.25 47.922 61.9844C48.1798 61.9844 48.4376 61.9844 48.7032 61.9844C48.7032 61.7266 48.7032 61.4688 48.7032 61.2031C48.9611 61.2031 49.2189 61.2031 49.4845 61.2031C49.4845 60.9453 49.4845 60.6875 49.4845 60.4219C49.7423 60.4219 50.0001 60.4219 50.2657 60.4219C50.2657 60.1641 50.2657 59.9062 50.2657 59.6406C50.7814 59.6406 51.297 59.6406 51.8282 59.6406C51.8282 59.3828 51.8282 59.125 51.8282 58.8594C52.0861 58.8594 52.3439 58.8594 52.6095 58.8594C52.6095 58.6016 52.6095 58.3438 52.6095 58.0781C52.8673 58.0781 53.1251 58.0781 53.3907 58.0781C53.3907 57.8203 53.3907 57.5625 53.3907 57.2969C53.6486 57.2969 53.9064 57.2969 54.172 57.2969C54.172 57.0391 54.172 56.7812 54.172 56.5156C54.4298 56.5156 54.6876 56.5156 54.9532 56.5156C54.9532 56.2578 54.9532 56 54.9532 55.7344C55.4689 55.7344 55.9845 55.7344 56.5157 55.7344C56.5157 55.4766 56.5157 55.2188 56.5157 54.9531C56.7736 54.9531 57.0314 54.9531 57.297 54.9531C57.297 54.6953 57.297 54.4375 57.297 54.1719C57.8126 54.1719 58.3282 54.1719 58.8595 54.1719C58.8595 53.9141 58.8595 53.6562 58.8595 53.3906C59.1173 53.3906 59.3751 53.3906 59.6407 53.3906C59.6407 53.1328 59.6407 52.875 59.6407 52.6094C60.1564 52.6094 60.672 52.6094 61.2032 52.6094C61.2032 52.3516 61.2032 52.0938 61.2032 51.8281C61.4611 51.8281 61.7189 51.8281 61.9845 51.8281C61.9845 51.5703 61.9845 51.3125 61.9845 51.0469C62.5001 51.0469 63.0157 51.0469 63.547 51.0469C63.547 50.7891 63.547 50.5312 63.547 50.2656C64.0626 50.2656 64.5782 50.2656 65.1095 50.2656C65.1095 50.0078 65.1095 49.75 65.1095 49.4844C65.6251 49.4844 66.1407 49.4844 66.672 49.4844C66.672 49.2266 66.672 48.9688 66.672 48.7031C67.1876 48.7031 67.7032 48.7031 68.2345 48.7031C68.2345 48.4453 68.2345 48.1875 68.2345 47.9219C68.7501 47.9219 69.2657 47.9219 69.797 47.9219C69.797 47.6641 69.797 47.4062 69.797 47.1406C70.5704 47.1406 71.3439 47.1406 72.1407 47.1406C72.1407 46.8828 72.1407 46.625 72.1407 46.3594C72.6564 46.3594 73.172 46.3594 73.7032 46.3594C73.7032 46.1016 73.7032 45.8438 73.7032 45.5781C74.7345 45.5781 75.7657 45.5781 76.8282 45.5781C76.8282 45.3203 76.8282 45.0625 76.8282 44.7969C77.6017 44.7969 78.3751 44.7969 79.172 44.7969C79.172 44.5391 79.172 44.2812 79.172 44.0156C80.2032 44.0156 81.2345 44.0156 82.297 44.0156C82.297 43.7578 82.297 43.5 82.297 43.2344C83.3282 43.2344 84.3595 43.2344 85.422 43.2344C85.422 42.9766 85.422 42.7188 85.422 42.4531C86.9689 42.4531 88.5157 42.4531 90.1095 42.4531C90.1095 42.1953 90.1095 41.9375 90.1095 41.6719C92.6876 41.6719 95.2657 41.6719 97.922 41.6719C97.922 41.4141 97.922 41.1562 97.922 40.8906Z" fill="white"/>
<path d="M207.004 65.6097C210.136 67.7453 211.778 70.662 212.587 74.3209C212.924 76.8439 212.853 79.3671 212.766 81.906C213.152 81.7771 213.539 81.6482 213.938 81.5154C218.059 81.1892 221.695 81.6958 224.97 84.3474C226.798 86.1673 228.046 88.3293 228.052 90.9375C228.054 91.2667 228.056 91.596 228.058 91.9351C228.058 92.2969 228.058 92.6586 228.057 93.0313C228.059 93.4156 228.06 93.7999 228.062 94.1958C228.066 95.4894 228.068 96.783 228.069 98.0766C228.072 99.0018 228.074 99.927 228.077 100.852C228.084 103.633 228.089 106.414 228.092 109.195C228.094 110.505 228.096 111.816 228.098 113.126C228.105 117.483 228.11 121.841 228.113 126.198C228.114 127.328 228.115 128.459 228.115 129.59C228.115 129.871 228.116 130.152 228.116 130.441C228.119 134.991 228.129 139.54 228.142 144.089C228.155 148.762 228.162 153.434 228.163 158.107C228.164 160.73 228.167 163.353 228.177 165.975C228.186 168.444 228.188 170.912 228.184 173.381C228.184 174.285 228.186 175.19 228.192 176.095C228.198 177.333 228.196 178.571 228.191 179.809C228.195 180.164 228.199 180.52 228.204 180.886C228.164 184.87 226.695 187.952 223.929 190.785C220.802 193.537 218.087 194.119 214.035 194.137C211.348 194.098 211.348 194.098 208.946 195.123C208.188 196.027 208.188 196.027 207.559 197.002C205.802 199.477 202.371 200.78 199.484 201.437C197.909 201.567 196.352 201.549 194.772 201.511C194.36 201.505 193.947 201.5 193.522 201.495C192.514 201.481 191.507 201.462 190.5 201.437C190.965 200.501 191.44 199.574 191.928 198.65C192.168 198.187 192.408 197.725 192.648 197.262C193.005 196.583 193.005 196.583 193.369 195.891C194.907 192.593 194.911 189.215 194.906 185.633C194.908 185.105 194.91 184.577 194.913 184.048C194.919 182.604 194.92 181.16 194.921 179.716C194.922 178.156 194.928 176.596 194.933 175.036C194.942 172.336 194.948 169.636 194.952 166.935C194.958 163.031 194.968 159.127 194.979 155.223C194.996 148.888 195.011 142.553 195.023 136.218C195.035 130.066 195.048 123.913 195.064 117.761C195.065 117.191 195.065 117.191 195.066 116.611C195.071 114.707 195.076 112.803 195.081 110.9C195.121 95.1155 195.156 79.3311 195.188 63.5467C199.144 62.4636 203.517 63.6239 207.004 65.6097Z" fill="#ECECEC"/>
<path d="M165.109 104.562C164.631 107.772 163.974 110.929 163.258 114.092C162.7 116.558 162.163 119.03 161.624 121.501C160.619 126.112 159.603 130.72 158.576 135.326C157.74 139.083 156.917 142.843 156.095 146.604C155.203 150.691 154.304 154.777 153.391 158.859C147.667 159.357 141.944 159.289 136.203 159.25C135.126 156.183 134.303 153.064 133.492 149.919C133.346 149.361 133.201 148.802 133.056 148.243C132.675 146.782 132.296 145.321 131.918 143.859C131.311 141.517 130.703 139.174 130.094 136.832C129.882 136.018 129.672 135.204 129.462 134.39C129.268 133.645 129.268 133.645 129.07 132.885C128.901 132.232 128.901 132.232 128.729 131.566C128.395 130.361 128.015 129.182 127.609 128C127.456 128.656 127.456 128.656 127.299 129.325C126.917 130.955 126.534 132.584 126.15 134.213C125.985 134.917 125.819 135.621 125.655 136.325C125.417 137.339 125.178 138.354 124.939 139.368C124.866 139.68 124.793 139.993 124.718 140.315C124.326 141.973 123.865 143.574 123.312 145.187C123.113 146.129 122.926 147.073 122.751 148.019C122.362 150.061 121.873 152.028 121.239 154.007C120.829 155.442 120.594 156.899 120.355 158.371C120.187 159.25 120.187 159.25 119.797 160.031C116.12 160.666 112.261 160.47 108.542 160.446C108.001 160.444 107.459 160.442 106.918 160.441C105.612 160.436 104.306 160.43 103 160.422C101.931 156.575 101.006 152.72 100.185 148.813C98.868 142.559 97.4585 136.329 95.9913 130.108C95.2017 126.742 94.49 123.378 93.8882 119.974C93.5783 118.386 93.1554 116.857 92.6682 115.315C92.3949 114.061 92.4202 112.873 92.4531 111.594C94.5112 111.363 96.5695 111.134 98.6281 110.908C99.309 110.832 99.9895 110.753 100.67 110.674C102.338 110.486 103.971 110.405 105.65 110.413C106.224 110.415 106.224 110.415 106.81 110.417C107.244 110.419 107.244 110.419 107.687 110.422C108.118 113.326 108.549 116.23 108.98 119.134C109.126 120.119 109.272 121.105 109.418 122.091C109.828 124.849 110.236 127.608 110.643 130.367C110.787 131.345 110.933 132.323 111.079 133.301C111.42 135.622 111.705 137.914 111.838 140.256C111.867 140.75 111.896 141.245 111.926 141.754C111.945 142.114 111.965 142.473 111.984 142.844C112.747 142.081 112.714 140.721 112.894 139.678C113.47 136.488 114.206 133.35 115.001 130.206C115.138 129.66 115.274 129.114 115.411 128.568C115.694 127.438 115.978 126.309 116.263 125.179C116.627 123.737 116.988 122.294 117.349 120.85C117.629 119.729 117.911 118.608 118.192 117.487C118.326 116.954 118.459 116.422 118.593 115.89C118.778 115.148 118.966 114.406 119.153 113.665C119.259 113.245 119.365 112.825 119.474 112.392C119.798 111.197 120.175 110.03 120.578 108.859C122.538 108.635 124.498 108.413 126.457 108.192C127.124 108.116 127.79 108.041 128.456 107.964C129.415 107.855 130.375 107.746 131.336 107.639C131.631 107.604 131.927 107.57 132.231 107.535C133.825 107.358 135.377 107.261 136.984 107.297C137.694 110.135 138.403 112.973 139.113 115.811C139.19 116.118 139.267 116.426 139.346 116.742C139.501 117.365 139.657 117.989 139.813 118.612C140.182 120.088 140.551 121.563 140.921 123.038C141.728 126.26 142.527 129.483 143.308 132.712C143.409 133.126 143.511 133.541 143.615 133.968C144.425 137.322 144.425 137.322 144.646 139.009C144.678 140.07 144.678 140.07 145.187 140.5C145.215 140.221 145.243 139.942 145.272 139.654C146.035 132.072 146.891 124.506 147.8 116.94C147.926 115.882 148.053 114.823 148.179 113.764C148.483 111.218 148.788 108.671 149.094 106.125C150.648 105.937 152.202 105.75 153.757 105.563C154.193 105.511 154.629 105.458 155.079 105.404C156.339 105.252 157.599 105.102 158.859 104.953C159.205 104.912 159.551 104.871 159.907 104.829C161.662 104.626 163.346 104.525 165.109 104.562Z" fill="#212223"/>
<path d="M221.626 82.2832C224.448 83.5439 226.242 85.4039 227.609 88.1563C227.965 89.2221 228.05 89.8421 228.052 90.9378C228.054 91.267 228.056 91.5962 228.058 91.9354C228.058 92.2972 228.058 92.6589 228.057 93.0316C228.059 93.4159 228.06 93.8001 228.062 94.196C228.066 95.4897 228.068 96.7833 228.069 98.0769C228.072 99.0021 228.074 99.9272 228.077 100.852C228.084 103.633 228.089 106.414 228.092 109.195C228.094 110.506 228.096 111.816 228.098 113.126C228.105 117.484 228.11 121.841 228.113 126.198C228.114 127.329 228.115 128.459 228.115 129.59C228.115 129.871 228.116 130.152 228.116 130.442C228.119 134.991 228.129 139.54 228.142 144.089C228.155 148.762 228.162 153.435 228.163 158.108C228.164 160.73 228.167 163.353 228.177 165.975C228.186 168.444 228.188 170.912 228.184 173.381C228.184 174.286 228.186 175.19 228.192 176.095C228.198 177.333 228.196 178.571 228.191 179.809C228.195 180.164 228.199 180.52 228.204 180.886C228.164 184.869 226.697 187.953 223.929 190.784C219.703 194.51 215.374 194.308 210.031 194.016C210.145 193.683 210.145 193.683 210.26 193.343C210.413 192.89 210.413 192.89 210.568 192.429C210.668 192.134 210.768 191.84 210.87 191.536C210.98 191.194 211.09 190.852 211.203 190.5C211.337 190.117 211.47 189.734 211.608 189.339C212.157 187.391 212.097 185.443 212.093 183.433C212.095 183 212.098 182.567 212.1 182.121C212.107 180.672 212.108 179.223 212.109 177.774C212.113 176.734 212.116 175.695 212.121 174.655C212.13 172.418 212.135 170.181 212.139 167.944C212.145 164.71 212.155 161.476 212.166 158.241C212.184 152.994 212.198 147.746 212.21 142.498C212.222 137.401 212.235 132.305 212.251 127.208C212.252 126.736 212.252 126.736 212.254 126.255C212.259 124.678 212.264 123.102 212.269 121.525C212.309 108.449 212.344 95.3729 212.375 82.2969C215.2 80.7852 218.672 81.2638 221.626 82.2832Z" fill="#DFDFDF"/>
<path d="M97.9219 40.8906C103.594 40.8906 109.266 40.8906 115.109 40.8906C115.109 41.1484 115.109 41.4062 115.109 41.6719C117.688 41.6719 120.266 41.6719 122.922 41.6719C122.922 41.9297 122.922 42.1875 122.922 42.4531C124.469 42.4531 126.016 42.4531 127.609 42.4531C127.609 42.7109 127.609 42.9688 127.609 43.2344C128.641 43.2344 129.672 43.2344 130.734 43.2344C130.734 43.4922 130.734 43.75 130.734 44.0156C131.766 44.0156 132.797 44.0156 133.859 44.0156C133.859 44.2734 133.859 44.5312 133.859 44.7969C134.633 44.7969 135.406 44.7969 136.203 44.7969C136.203 45.0547 136.203 45.3125 136.203 45.5781C137.234 45.5781 138.266 45.5781 139.328 45.5781C139.328 45.8359 139.328 46.0938 139.328 46.3594C139.844 46.3594 140.359 46.3594 140.891 46.3594C140.891 46.6172 140.891 46.875 140.891 47.1406C141.664 47.1406 142.438 47.1406 143.234 47.1406C143.234 47.3984 143.234 47.6562 143.234 47.9219C143.75 47.9219 144.266 47.9219 144.797 47.9219C144.797 48.1797 144.797 48.4375 144.797 48.7031C145.312 48.7031 145.828 48.7031 146.359 48.7031C146.359 48.9609 146.359 49.2188 146.359 49.4844C146.875 49.4844 147.391 49.4844 147.922 49.4844C147.922 49.7422 147.922 50 147.922 50.2656C148.438 50.2656 148.953 50.2656 149.484 50.2656C149.484 50.5234 149.484 50.7812 149.484 51.0469C150 51.0469 150.516 51.0469 151.047 51.0469C151.047 51.3047 151.047 51.5625 151.047 51.8281C151.305 51.8281 151.562 51.8281 151.828 51.8281C151.828 52.2148 151.828 52.6016 151.828 53C151.477 53.0597 151.126 53.1195 150.764 53.181C142.056 54.6626 133.349 56.1444 124.641 57.6263C120.429 58.343 116.218 59.0597 112.006 59.7763C107.932 60.4696 103.857 61.1629 99.783 61.8564C98.1634 62.132 96.5437 62.4076 94.924 62.6832C86.8206 64.062 78.7176 65.4423 70.6162 66.8327C69.5607 67.0139 68.5051 67.1949 67.4495 67.376C64.5252 67.8775 61.601 68.3793 58.6771 68.883C57.5138 69.0833 56.3503 69.283 55.1869 69.4825C54.4126 69.6154 53.6385 69.7492 52.8644 69.883C50.0544 70.3643 47.2425 70.7968 44.4172 71.1792C42.9452 71.4034 41.5423 71.7394 40.1094 72.1406C40.1094 71.8828 40.1094 71.625 40.1094 71.3594C40.3672 71.3594 40.625 71.3594 40.8906 71.3594C40.8906 71.1016 40.8906 70.8438 40.8906 70.5781C41.1484 70.5781 41.4062 70.5781 41.6719 70.5781C41.6719 70.3203 41.6719 70.0625 41.6719 69.7969C41.9297 69.7969 42.1875 69.7969 42.4531 69.7969C42.4531 69.2812 42.4531 68.7656 42.4531 68.2344C42.7109 68.2344 42.9688 68.2344 43.2344 68.2344C43.2344 67.9766 43.2344 67.7188 43.2344 67.4531C43.4922 67.4531 43.75 67.4531 44.0156 67.4531C44.0156 67.1953 44.0156 66.9375 44.0156 66.6719C44.2734 66.6719 44.5312 66.6719 44.7969 66.6719C44.7969 66.4141 44.7969 66.1562 44.7969 65.8906C45.0547 65.8906 45.3125 65.8906 45.5781 65.8906C45.5781 65.375 45.5781 64.8594 45.5781 64.3281C45.8359 64.3281 46.0938 64.3281 46.3594 64.3281C46.3594 64.0703 46.3594 63.8125 46.3594 63.5469C46.6172 63.5469 46.875 63.5469 47.1406 63.5469C47.1406 63.2891 47.1406 63.0312 47.1406 62.7656C47.3984 62.7656 47.6562 62.7656 47.9219 62.7656C47.9219 62.5078 47.9219 62.25 47.9219 61.9844C48.1797 61.9844 48.4375 61.9844 48.7031 61.9844C48.7031 61.7266 48.7031 61.4688 48.7031 61.2031C48.9609 61.2031 49.2188 61.2031 49.4844 61.2031C49.4844 60.9453 49.4844 60.6875 49.4844 60.4219C49.7422 60.4219 50 60.4219 50.2656 60.4219C50.2656 60.1641 50.2656 59.9062 50.2656 59.6406C50.7812 59.6406 51.2969 59.6406 51.8281 59.6406C51.8281 59.3828 51.8281 59.125 51.8281 58.8594C52.0859 58.8594 52.3438 58.8594 52.6094 58.8594C52.6094 58.6016 52.6094 58.3438 52.6094 58.0781C52.8672 58.0781 53.125 58.0781 53.3906 58.0781C53.3906 57.8203 53.3906 57.5625 53.3906 57.2969C53.6484 57.2969 53.9062 57.2969 54.1719 57.2969C54.1719 57.0391 54.1719 56.7812 54.1719 56.5156C54.4297 56.5156 54.6875 56.5156 54.9531 56.5156C54.9531 56.2578 54.9531 56 54.9531 55.7344C55.4688 55.7344 55.9844 55.7344 56.5156 55.7344C56.5156 55.4766 56.5156 55.2188 56.5156 54.9531C56.7734 54.9531 57.0312 54.9531 57.2969 54.9531C57.2969 54.6953 57.2969 54.4375 57.2969 54.1719C57.8125 54.1719 58.3281 54.1719 58.8594 54.1719C58.8594 53.9141 58.8594 53.6562 58.8594 53.3906C59.1172 53.3906 59.375 53.3906 59.6406 53.3906C59.6406 53.1328 59.6406 52.875 59.6406 52.6094C60.1562 52.6094 60.6719 52.6094 61.2031 52.6094C61.2031 52.3516 61.2031 52.0938 61.2031 51.8281C61.4609 51.8281 61.7188 51.8281 61.9844 51.8281C61.9844 51.5703 61.9844 51.3125 61.9844 51.0469C62.5 51.0469 63.0156 51.0469 63.5469 51.0469C63.5469 50.7891 63.5469 50.5312 63.5469 50.2656C64.0625 50.2656 64.5781 50.2656 65.1094 50.2656C65.1094 50.0078 65.1094 49.75 65.1094 49.4844C65.625 49.4844 66.1406 49.4844 66.6719 49.4844C66.6719 49.2266 66.6719 48.9688 66.6719 48.7031C67.1875 48.7031 67.7031 48.7031 68.2344 48.7031C68.2344 48.4453 68.2344 48.1875 68.2344 47.9219C68.75 47.9219 69.2656 47.9219 69.7969 47.9219C69.7969 47.6641 69.7969 47.4062 69.7969 47.1406C70.5703 47.1406 71.3438 47.1406 72.1406 47.1406C72.1406 46.8828 72.1406 46.625 72.1406 46.3594C72.6562 46.3594 73.1719 46.3594 73.7031 46.3594C73.7031 46.1016 73.7031 45.8438 73.7031 45.5781C74.7344 45.5781 75.7656 45.5781 76.8281 45.5781C76.8281 45.3203 76.8281 45.0625 76.8281 44.7969C77.6016 44.7969 78.375 44.7969 79.1719 44.7969C79.1719 44.5391 79.1719 44.2812 79.1719 44.0156C80.2031 44.0156 81.2344 44.0156 82.2969 44.0156C82.2969 43.7578 82.2969 43.5 82.2969 43.2344C83.3281 43.2344 84.3594 43.2344 85.4219 43.2344C85.4219 42.9766 85.4219 42.7188 85.4219 42.4531C86.9688 42.4531 88.5156 42.4531 90.1094 42.4531C90.1094 42.1953 90.1094 41.9375 90.1094 41.6719C92.6875 41.6719 95.2656 41.6719 97.9219 41.6719C97.9219 41.4141 97.9219 41.1562 97.9219 40.8906Z" fill="#232932"/>
<path d="M54.9531 207.688C88.9844 207.688 123.016 207.688 158.078 207.688C157.82 207.816 157.562 207.945 157.297 208.078C157.297 208.336 157.297 208.594 157.297 208.859C157.039 208.859 156.781 208.859 156.516 208.859C156.516 209.117 156.516 209.375 156.516 209.641C156 209.641 155.484 209.641 154.953 209.641C154.953 209.898 154.953 210.156 154.953 210.422C154.438 210.422 153.922 210.422 153.391 210.422C153.391 210.68 153.391 210.938 153.391 211.203C153.133 211.203 152.875 211.203 152.609 211.203C152.609 211.461 152.609 211.719 152.609 211.984C152.094 211.984 151.578 211.984 151.047 211.984C151.047 212.242 151.047 212.5 151.047 212.766C150.789 212.766 150.531 212.766 150.266 212.766C150.266 213.023 150.266 213.281 150.266 213.547C149.75 213.547 149.234 213.547 148.703 213.547C148.703 213.805 148.703 214.062 148.703 214.328C148.188 214.328 147.672 214.328 147.141 214.328C147.141 214.586 147.141 214.844 147.141 215.109C146.625 215.109 146.109 215.109 145.578 215.109C145.578 215.367 145.578 215.625 145.578 215.891C145.062 215.891 144.547 215.891 144.016 215.891C144.016 216.148 144.016 216.406 144.016 216.672C143.242 216.672 142.469 216.672 141.672 216.672C141.672 216.93 141.672 217.188 141.672 217.453C141.156 217.453 140.641 217.453 140.109 217.453C140.109 217.711 140.109 217.969 140.109 218.234C139.336 218.234 138.562 218.234 137.766 218.234C137.766 218.492 137.766 218.75 137.766 219.016C136.992 219.016 136.219 219.016 135.422 219.016C135.422 219.273 135.422 219.531 135.422 219.797C134.391 219.797 133.359 219.797 132.297 219.797C132.297 220.055 132.297 220.312 132.297 220.578C131.266 220.578 130.234 220.578 129.172 220.578C129.172 220.836 129.172 221.094 129.172 221.359C127.625 221.359 126.078 221.359 124.484 221.359C124.484 221.617 124.484 221.875 124.484 222.141C122.68 222.141 120.875 222.141 119.016 222.141C119.016 222.398 119.016 222.656 119.016 222.922C110.766 222.922 102.516 222.922 94.0156 222.922C94.0156 222.664 94.0156 222.406 94.0156 222.141C92.2109 222.141 90.4062 222.141 88.5469 222.141C88.5469 221.883 88.5469 221.625 88.5469 221.359C87 221.359 85.4531 221.359 83.8594 221.359C83.8594 221.102 83.8594 220.844 83.8594 220.578C82.8281 220.578 81.7969 220.578 80.7344 220.578C80.7344 220.32 80.7344 220.062 80.7344 219.797C79.7031 219.797 78.6719 219.797 77.6094 219.797C77.6094 219.539 77.6094 219.281 77.6094 219.016C76.8359 219.016 76.0625 219.016 75.2656 219.016C75.2656 218.758 75.2656 218.5 75.2656 218.234C74.4922 218.234 73.7188 218.234 72.9219 218.234C72.9219 217.977 72.9219 217.719 72.9219 217.453C72.4062 217.453 71.8906 217.453 71.3594 217.453C71.3594 217.195 71.3594 216.938 71.3594 216.672C70.5859 216.672 69.8125 216.672 69.0156 216.672C69.0156 216.414 69.0156 216.156 69.0156 215.891C68.5 215.891 67.9844 215.891 67.4531 215.891C67.4531 215.633 67.4531 215.375 67.4531 215.109C66.9375 215.109 66.4219 215.109 65.8906 215.109C65.8906 214.852 65.8906 214.594 65.8906 214.328C65.375 214.328 64.8594 214.328 64.3281 214.328C64.3281 214.07 64.3281 213.812 64.3281 213.547C63.8125 213.547 63.2969 213.547 62.7656 213.547C62.7656 213.289 62.7656 213.031 62.7656 212.766C62.5078 212.766 62.25 212.766 61.9844 212.766C61.9844 212.508 61.9844 212.25 61.9844 211.984C61.4688 211.984 60.9531 211.984 60.4219 211.984C60.4219 211.727 60.4219 211.469 60.4219 211.203C59.9062 211.203 59.3906 211.203 58.8594 211.203C58.8594 210.945 58.8594 210.688 58.8594 210.422C58.6016 210.422 58.3438 210.422 58.0781 210.422C58.0781 210.164 58.0781 209.906 58.0781 209.641C57.5625 209.641 57.0469 209.641 56.5156 209.641C56.5156 209.383 56.5156 209.125 56.5156 208.859C56.2578 208.859 56 208.859 55.7344 208.859C55.7344 208.602 55.7344 208.344 55.7344 208.078C55.4766 207.949 55.2188 207.82 54.9531 207.688Z" fill="#232932"/>
<path d="M82.1259 112.277C82.6592 112.28 83.1925 112.282 83.7258 112.283C87.5834 112.314 87.5834 112.314 88.9374 112.766C88.9374 117.148 88.9374 121.531 88.9374 126.047C86.9843 125.656 86.9843 125.656 85.6415 125.241C81.1006 124.095 76.5227 124.736 72.522 127.08C71.5041 127.778 70.8583 128.53 70.1874 129.563C69.9779 129.861 69.7684 130.159 69.5526 130.466C67.6813 134.123 67.6969 138.934 68.4754 142.9C69.3027 145.283 70.7874 146.976 72.9218 148.313C76.4488 149.773 80.4717 149.633 83.9883 148.254C84.7311 147.935 85.4653 147.603 86.1984 147.263C87.3749 146.75 87.3749 146.75 88.5468 146.75C88.5468 151.133 88.5468 155.516 88.5468 160.031C81.3649 162.425 72.3233 164.276 65.1093 160.813C59.6047 157.987 56.6829 153.773 54.7882 148.001C52.7357 140.18 54.1372 131.806 57.9468 124.799C61.3161 119.038 67.0975 114.718 73.4741 112.9C76.3568 112.21 79.1763 112.231 82.1259 112.277Z" fill="#212222"/>
<g filter="url(#filter0_f_155_67)">
<path d="M102.061 79.5245C102.643 79.5271 103.224 79.5318 103.806 79.5383C104.102 79.54 103.695 79.4982 104 79.5001C104.734 79.5047 104.766 79.9926 105.5 80C105.5 80.5156 107 79.9689 107 80.5001C107.258 80.5001 107.422 81.1252 107.687 81.1252C108.73 82.9069 109.174 84.1421 108.859 86.2033C107.842 88.2347 106.697 89.9604 104.562 90.8908C104.265 91.0237 103.967 91.1567 103.661 91.2936C102.556 91.6911 101.629 91.8147 100.461 91.8918C99.0587 91.9883 97.7329 92.1551 96.3593 92.4533C94.062 92.9314 91.8197 93.2732 89.4745 93.4054C87.0766 93.5497 84.7861 93.9235 82.4321 94.371C80.1528 94.7922 77.9167 94.9912 75.5997 95.1053C74.5358 95.1517 74.5358 95.1517 73.73 95.3776C72.6456 95.6469 71.5504 95.7293 70.4411 95.8451C69.3031 95.9813 68.1776 96.1606 67.0471 96.3489C62.4612 97.1108 58.0472 97.8081 53.3905 97.5314C53.3905 97.2736 53.3905 97.0158 53.3905 96.7502C52.746 96.4924 52.1015 96.2346 51.4374 95.9689C51.0242 91.299 51.0242 91.299 51.9638 89.4824C54.1706 86.8973 56.5677 86.0572 59.8603 85.7638C60.4386 85.7066 61.0169 85.6486 61.5952 85.5899C62.0029 85.5489 62.0029 85.5489 62.4188 85.507C63.3295 85.4021 64.2142 85.2285 65.1093 85.0314C65.8413 84.891 66.5737 84.7527 67.3065 84.6164C67.6741 84.5474 68.0417 84.4784 68.4204 84.4073C69.4062 84.2502 69.4062 84.2502 70.578 84.2502C71.6223 84.132 72.6616 84.0003 73.703 83.8596C74.1673 83.7981 74.6316 83.7367 75.1099 83.6734C75.6044 83.6059 76.0988 83.5384 76.6083 83.4689C77.0831 83.4045 77.558 83.34 78.0472 83.2736C79.128 83.1971 79.128 83.1971 79.5624 82.6877C80.7735 82.5609 81.9851 82.4872 83.2001 82.4069C84.2171 82.4119 84.2171 82.4119 84.6405 81.9064C85.3552 81.8333 86.0719 81.7799 86.789 81.7355C88.6018 81.6 90.2981 81.3445 92.0624 80.9192C94.4382 80.3577 96.8703 80.2318 99.2981 80.0632C100.641 79.9106 100.545 79.5657 102.061 79.5245Z" fill="#8C8C8C"/>
</g>
<path d="M96.3594 53.3906C103.062 53.3906 109.766 53.3906 116.672 53.3906C116.672 53.6484 116.672 53.9062 116.672 54.1719C117.961 54.1719 119.25 54.1719 120.578 54.1719C120.578 54.4297 120.578 54.6875 120.578 54.9531C121.867 54.9531 123.156 54.9531 124.484 54.9531C124.484 55.2109 124.484 55.4688 124.484 55.7344C125.258 55.7344 126.031 55.7344 126.828 55.7344C126.828 55.9922 126.828 56.25 126.828 56.5156C127.473 56.5156 128.117 56.5156 128.781 56.5156C128.781 56.6445 128.781 56.7734 128.781 56.9062C120.768 58.2834 112.755 59.6586 104.741 61.0317C101.02 61.6692 97.2994 62.3074 93.5789 62.947C90.3364 63.5044 87.0936 64.0607 83.8506 64.6157C82.1333 64.9096 80.4161 65.204 78.6991 65.4999C77.0831 65.7783 75.4668 66.0552 73.8504 66.3309C73.2571 66.4324 72.6639 66.5344 72.0708 66.6371C71.261 66.7771 70.4508 66.9152 69.6405 67.0527C69.1871 67.1305 68.7338 67.2083 68.2667 67.2884C67.1935 67.4352 66.1902 67.4863 65.1094 67.4531C65.1094 67.1953 65.1094 66.9375 65.1094 66.6719C65.3672 66.6719 65.625 66.6719 65.8906 66.6719C65.8906 66.4141 65.8906 66.1562 65.8906 65.8906C66.1484 65.8906 66.4062 65.8906 66.6719 65.8906C66.6719 65.6328 66.6719 65.375 66.6719 65.1094C67.1875 65.1094 67.7031 65.1094 68.2344 65.1094C68.2344 64.8516 68.2344 64.5938 68.2344 64.3281C68.4922 64.3281 68.75 64.3281 69.0156 64.3281C69.0156 64.0703 69.0156 63.8125 69.0156 63.5469C69.5312 63.5469 70.0469 63.5469 70.5781 63.5469C70.5781 63.2891 70.5781 63.0312 70.5781 62.7656C71.0938 62.7656 71.6094 62.7656 72.1406 62.7656C72.1406 62.5078 72.1406 62.25 72.1406 61.9844C72.3984 61.9844 72.6562 61.9844 72.9219 61.9844C72.9219 61.7266 72.9219 61.4688 72.9219 61.2031C73.4375 61.2031 73.9531 61.2031 74.4844 61.2031C74.4844 60.9453 74.4844 60.6875 74.4844 60.4219C75 60.4219 75.5156 60.4219 76.0469 60.4219C76.0469 60.1641 76.0469 59.9062 76.0469 59.6406C76.5625 59.6406 77.0781 59.6406 77.6094 59.6406C77.6094 59.3828 77.6094 59.125 77.6094 58.8594C78.125 58.8594 78.6406 58.8594 79.1719 58.8594C79.1719 58.6016 79.1719 58.3438 79.1719 58.0781C79.9453 58.0781 80.7188 58.0781 81.5156 58.0781C81.5156 57.8203 81.5156 57.5625 81.5156 57.2969C82.2891 57.2969 83.0625 57.2969 83.8594 57.2969C83.8594 57.0391 83.8594 56.7812 83.8594 56.5156C84.6328 56.5156 85.4062 56.5156 86.2031 56.5156C86.2031 56.2578 86.2031 56 86.2031 55.7344C86.9766 55.7344 87.75 55.7344 88.5469 55.7344C88.5469 55.4766 88.5469 55.2188 88.5469 54.9531C89.8359 54.9531 91.125 54.9531 92.4531 54.9531C92.4531 54.6953 92.4531 54.4375 92.4531 54.1719C93.7422 54.1719 95.0312 54.1719 96.3594 54.1719C96.3594 53.9141 96.3594 53.6562 96.3594 53.3906Z" fill="#232932"/>
<path d="M69.0156 207.688C69.7643 207.677 70.513 207.669 71.2617 207.663C71.8871 207.656 71.8871 207.656 72.5251 207.649C73.521 207.682 74.3201 207.787 75.2656 208.078C75.2656 208.336 75.2656 208.594 75.2656 208.859C75.7812 208.859 76.2969 208.859 76.8281 208.859C76.8281 209.117 76.8281 209.375 76.8281 209.641C77.6016 209.641 78.375 209.641 79.1719 209.641C79.1719 209.898 79.1719 210.156 79.1719 210.422C79.9453 210.422 80.7188 210.422 81.5156 210.422C81.5156 210.68 81.5156 210.938 81.5156 211.203C82.2891 211.203 83.0625 211.203 83.8594 211.203C83.8594 211.461 83.8594 211.719 83.8594 211.984C84.6328 211.984 85.4062 211.984 86.2031 211.984C86.2031 212.242 86.2031 212.5 86.2031 212.766C87.2344 212.766 88.2656 212.766 89.3281 212.766C89.3281 213.023 89.3281 213.281 89.3281 213.547C90.6172 213.547 91.9062 213.547 93.2344 213.547C93.2344 213.805 93.2344 214.063 93.2344 214.328C95.2969 214.328 97.3594 214.328 99.4844 214.328C99.4844 214.586 99.4844 214.844 99.4844 215.109C104.125 215.109 108.766 215.109 113.547 215.109C113.547 214.852 113.547 214.594 113.547 214.328C115.609 214.328 117.672 214.328 119.797 214.328C119.797 214.07 119.797 213.813 119.797 213.547C121.086 213.547 122.375 213.547 123.703 213.547C123.703 213.289 123.703 213.031 123.703 212.766C124.734 212.766 125.766 212.766 126.828 212.766C126.828 212.508 126.828 212.25 126.828 211.984C127.602 211.984 128.375 211.984 129.172 211.984C129.172 211.727 129.172 211.469 129.172 211.203C129.945 211.203 130.719 211.203 131.516 211.203C131.516 210.945 131.516 210.688 131.516 210.422C132.289 210.422 133.062 210.422 133.859 210.422C133.859 210.164 133.859 209.906 133.859 209.641C134.633 209.641 135.406 209.641 136.203 209.641C136.203 209.383 136.203 209.125 136.203 208.859C136.719 208.859 137.234 208.859 137.766 208.859C137.766 208.602 137.766 208.344 137.766 208.078C139.118 207.661 140.36 207.648 141.77 207.663C142.401 207.668 142.401 207.668 143.045 207.674C143.365 207.678 143.686 207.683 144.016 207.688C143.5 207.816 142.984 207.945 142.453 208.078C142.453 208.336 142.453 208.594 142.453 208.859C141.938 208.859 141.422 208.859 140.891 208.859C140.891 209.117 140.891 209.375 140.891 209.641C140.375 209.641 139.859 209.641 139.328 209.641C139.328 209.898 139.328 210.156 139.328 210.422C138.555 210.422 137.781 210.422 136.984 210.422C136.984 210.68 136.984 210.938 136.984 211.203C136.469 211.203 135.953 211.203 135.422 211.203C135.422 211.461 135.422 211.719 135.422 211.984C134.648 211.984 133.875 211.984 133.078 211.984C133.078 212.242 133.078 212.5 133.078 212.766C132.305 212.766 131.531 212.766 130.734 212.766C130.734 213.023 130.734 213.281 130.734 213.547C129.961 213.547 129.188 213.547 128.391 213.547C128.391 213.805 128.391 214.063 128.391 214.328C127.359 214.328 126.328 214.328 125.266 214.328C125.266 214.586 125.266 214.844 125.266 215.109C123.977 215.109 122.688 215.109 121.359 215.109C121.359 215.367 121.359 215.625 121.359 215.891C119.555 215.891 117.75 215.891 115.891 215.891C115.891 216.148 115.891 216.406 115.891 216.672C109.703 216.672 103.516 216.672 97.1406 216.672C97.1406 216.414 97.1406 216.156 97.1406 215.891C95.3359 215.891 93.5312 215.891 91.6719 215.891C91.6719 215.633 91.6719 215.375 91.6719 215.109C90.3828 215.109 89.0938 215.109 87.7656 215.109C87.7656 214.852 87.7656 214.594 87.7656 214.328C86.7344 214.328 85.7031 214.328 84.6406 214.328C84.6406 214.07 84.6406 213.813 84.6406 213.547C83.8672 213.547 83.0938 213.547 82.2969 213.547C82.2969 213.289 82.2969 213.031 82.2969 212.766C81.5234 212.766 80.75 212.766 79.9531 212.766C79.9531 212.508 79.9531 212.25 79.9531 211.984C79.1797 211.984 78.4062 211.984 77.6094 211.984C77.6094 211.727 77.6094 211.469 77.6094 211.203C77.0938 211.203 76.5781 211.203 76.0469 211.203C76.0469 210.945 76.0469 210.688 76.0469 210.422C75.2734 210.422 74.5 210.422 73.7031 210.422C73.7031 210.164 73.7031 209.906 73.7031 209.641C73.1875 209.641 72.6719 209.641 72.1406 209.641C72.1406 209.383 72.1406 209.125 72.1406 208.859C71.625 208.859 71.1094 208.859 70.5781 208.859C70.5781 208.602 70.5781 208.344 70.5781 208.078C70.0625 207.949 69.5469 207.82 69.0156 207.688Z" fill="#232932"/>
<path d="M117.453 57.2969C118.227 57.2969 119 57.2969 119.797 57.2969C119.797 57.6836 119.797 58.0703 119.797 58.4688C113.341 59.9752 106.849 59.7588 100.266 59.6406C100.266 59.8984 100.266 60.1562 100.266 60.4219C98.4609 60.4219 96.6562 60.4219 94.7969 60.4219C94.7969 60.6797 94.7969 60.9375 94.7969 61.2031C93.7656 61.2031 92.7344 61.2031 91.6719 61.2031C91.6719 61.4609 91.6719 61.7188 91.6719 61.9844C90.6406 61.9844 89.6094 61.9844 88.5469 61.9844C88.5469 62.2422 88.5469 62.5 88.5469 62.7656C87.7734 62.7656 87 62.7656 86.2031 62.7656C86.2031 63.0234 86.2031 63.2812 86.2031 63.5469C85.4297 63.5469 84.6562 63.5469 83.8594 63.5469C83.8594 63.2891 83.8594 63.0312 83.8594 62.7656C83.3438 62.7656 82.8281 62.7656 82.2969 62.7656C82.2969 62.5078 82.2969 62.25 82.2969 61.9844C83.0703 61.9844 83.8438 61.9844 84.6406 61.9844C84.6406 61.7266 84.6406 61.4688 84.6406 61.2031C85.1562 61.2031 85.6719 61.2031 86.2031 61.2031C86.2031 60.9453 86.2031 60.6875 86.2031 60.4219C87.2344 60.4219 88.2656 60.4219 89.3281 60.4219C89.3281 60.1641 89.3281 59.9062 89.3281 59.6406C90.3594 59.6406 91.3906 59.6406 92.4531 59.6406C92.4531 59.3828 92.4531 59.125 92.4531 58.8594C93.4844 58.8594 94.5156 58.8594 95.5781 58.8594C95.5781 58.6016 95.5781 58.3438 95.5781 58.0781C97.6406 58.0781 99.7031 58.0781 101.828 58.0781C101.828 58.3359 101.828 58.5938 101.828 58.8594C104.922 58.8594 108.016 58.8594 111.203 58.8594C111.203 58.6016 111.203 58.3438 111.203 58.0781C113.266 58.0781 115.328 58.0781 117.453 58.0781C117.453 57.8203 117.453 57.5625 117.453 57.2969Z" fill="#232932"/>
<path d="M84.6406 53.3906C85.6719 53.3906 86.7031 53.3906 87.7656 53.3906C87.7656 53.6484 87.7656 53.9062 87.7656 54.1719C86.9922 54.1719 86.2188 54.1719 85.4219 54.1719C85.4219 54.4297 85.4219 54.6875 85.4219 54.9531C84.6484 54.9531 83.875 54.9531 83.0781 54.9531C83.0781 55.2109 83.0781 55.4688 83.0781 55.7344C82.3047 55.7344 81.5312 55.7344 80.7344 55.7344C80.7344 55.9922 80.7344 56.25 80.7344 56.5156C79.9609 56.5156 79.1875 56.5156 78.3906 56.5156C78.3906 56.2578 78.3906 56 78.3906 55.7344C78.9062 55.7344 79.4219 55.7344 79.9531 55.7344C79.9531 55.4766 79.9531 55.2188 79.9531 54.9531C80.7266 54.9531 81.5 54.9531 82.2969 54.9531C82.2969 54.6953 82.2969 54.4375 82.2969 54.1719C83.0703 54.1719 83.8438 54.1719 84.6406 54.1719C84.6406 53.9141 84.6406 53.6562 84.6406 53.3906Z" fill="#232932"/>
<path d="M126.047 209.641C127.078 209.641 128.109 209.641 129.172 209.641C129.172 209.898 129.172 210.156 129.172 210.422C128.398 210.422 127.625 210.422 126.828 210.422C126.828 210.68 126.828 210.938 126.828 211.203C125.797 211.203 124.766 211.203 123.703 211.203C123.703 211.461 123.703 211.719 123.703 211.984C122.414 211.984 121.125 211.984 119.797 211.984C119.797 211.727 119.797 211.469 119.797 211.203C120.828 211.203 121.859 211.203 122.922 211.203C122.922 210.945 122.922 210.688 122.922 210.422C123.953 210.422 124.984 210.422 126.047 210.422C126.047 210.164 126.047 209.906 126.047 209.641Z" fill="#232932"/>
<path d="M83.8594 209.641C84.8906 209.641 85.9219 209.641 86.9844 209.641C86.9844 209.898 86.9844 210.156 86.9844 210.422C88.0156 210.422 89.0469 210.422 90.1094 210.422C90.1094 210.68 90.1094 210.938 90.1094 211.203C91.1406 211.203 92.1719 211.203 93.2344 211.203C93.2344 211.461 93.2344 211.719 93.2344 211.984C91.9453 211.984 90.6562 211.984 89.3281 211.984C89.3281 211.727 89.3281 211.469 89.3281 211.203C88.2969 211.203 87.2656 211.203 86.2031 211.203C86.2031 210.945 86.2031 210.688 86.2031 210.422C85.4297 210.422 84.6562 210.422 83.8594 210.422C83.8594 210.164 83.8594 209.906 83.8594 209.641Z" fill="#232932"/>
<path d="M117.453 57.2969C118.227 57.2969 119 57.2969 119.797 57.2969C119.797 57.6836 119.797 58.0703 119.797 58.4688C117.899 58.8488 116.105 58.9064 114.182 58.8838C113.894 58.882 113.607 58.8803 113.31 58.8784C112.608 58.8739 111.906 58.8669 111.203 58.8594C111.203 58.6016 111.203 58.3438 111.203 58.0781C113.266 58.0781 115.328 58.0781 117.453 58.0781C117.453 57.8203 117.453 57.5625 117.453 57.2969Z" fill="#232932"/>
<path d="M125.266 53.3906C126.297 53.3906 127.328 53.3906 128.391 53.3906C128.391 53.6484 128.391 53.9062 128.391 54.1719C129.164 54.1719 129.938 54.1719 130.734 54.1719C130.734 54.4297 130.734 54.6875 130.734 54.9531C131.25 54.9531 131.766 54.9531 132.297 54.9531C132.297 55.2109 132.297 55.4688 132.297 55.7344C131.523 55.7344 130.75 55.7344 129.953 55.7344C129.953 55.4766 129.953 55.2188 129.953 54.9531C129.18 54.9531 128.406 54.9531 127.609 54.9531C127.609 54.6953 127.609 54.4375 127.609 54.1719C126.836 54.1719 126.062 54.1719 125.266 54.1719C125.266 53.9141 125.266 53.6562 125.266 53.3906Z" fill="#232932"/>
<path d="M135.422 207.687C134.906 207.816 134.391 207.945 133.859 208.078C133.859 208.336 133.859 208.594 133.859 208.859C133.086 208.859 132.312 208.859 131.516 208.859C131.516 209.117 131.516 209.375 131.516 209.64C130.742 209.64 129.969 209.64 129.172 209.64C129.172 209.383 129.172 209.125 129.172 208.859C129.688 208.859 130.203 208.859 130.734 208.859C130.734 208.601 130.734 208.344 130.734 208.078C132.322 207.776 133.806 207.649 135.422 207.687Z" fill="#232932"/>
<path d="M64.3281 63.5469C64.8438 63.5469 65.3594 63.5469 65.8906 63.5469C65.8906 63.8047 65.8906 64.0625 65.8906 64.3281C65.6328 64.3281 65.375 64.3281 65.1094 64.3281C65.1094 64.5859 65.1094 64.8438 65.1094 65.1094C64.8516 65.1094 64.5938 65.1094 64.3281 65.1094C64.3281 65.3672 64.3281 65.625 64.3281 65.8906C63.8125 65.8906 63.2969 65.8906 62.7656 65.8906C62.7656 65.6328 62.7656 65.375 62.7656 65.1094C63.0234 65.1094 63.2812 65.1094 63.5469 65.1094C63.5469 64.8516 63.5469 64.5938 63.5469 64.3281C63.8047 64.3281 64.0625 64.3281 64.3281 64.3281C64.3281 64.0703 64.3281 63.8125 64.3281 63.5469Z" fill="#232932"/>
<path d="M60.4219 66.6719C60.9375 66.6719 61.4531 66.6719 61.9844 66.6719C61.9844 66.9297 61.9844 67.1875 61.9844 67.4531C61.7266 67.4531 61.4688 67.4531 61.2031 67.4531C61.2031 67.7109 61.2031 67.9688 61.2031 68.2344C60.4297 68.3633 59.6562 68.4922 58.8594 68.625C59.1172 68.4961 59.375 68.3672 59.6406 68.2344C59.6406 67.9766 59.6406 67.7188 59.6406 67.4531C59.8984 67.4531 60.1562 67.4531 60.4219 67.4531C60.4219 67.1953 60.4219 66.9375 60.4219 66.6719Z" fill="#232932"/>
<path d="M77.6094 207.688C78.8984 207.816 80.1875 207.945 81.5156 208.078C81.5156 208.336 81.5156 208.594 81.5156 208.859C80.7422 208.859 79.9688 208.859 79.1719 208.859C79.1719 208.602 79.1719 208.344 79.1719 208.078C78.6562 207.949 78.1406 207.82 77.6094 207.688Z" fill="#232932"/>
</g>
<defs>
<filter id="filter0_f_155_67" x="49.1736" y="77.5" width="61.7849" height="22.0933" filterUnits="userSpaceOnUse" color-interpolation-filters="sRGB">
<feFlood flood-opacity="0" result="BackgroundImageFix"/>
<feBlend mode="normal" in="SourceGraphic" in2="BackgroundImageFix" result="shape"/>
<feGaussianBlur stdDeviation="1" result="effect1_foregroundBlur_155_67"/>
</filter>
<clipPath id="clip0_155_67">
<rect width="200" height="200" fill="white" transform="translate(28 28)"/>
</clipPath>
</defs>
</svg>
