<svg width="256" height="256" viewBox="0 0 256 256" fill="none" xmlns="http://www.w3.org/2000/svg">
<rect width="256" height="256" fill="#232932"/>
<path d="M219.008 199.869H81.9507V132.43H219.008C221.393 132.43 223.68 133.378 225.366 135.064C227.053 136.75 228 139.037 228 141.422V190.877C228 193.262 227.053 195.549 225.366 197.235C223.68 198.921 221.393 199.869 219.008 199.869Z" fill="#E2E2E2"/>
<path d="M131.417 149.29H97.6978V183.009H131.417V149.29Z" fill="#999999"/>
<path d="M173.566 149.29H139.847V183.009H173.566V149.29Z" fill="#999999"/>
<path d="M215.704 149.29H181.984V183.009H215.704V149.29Z" fill="#999999"/>
<path d="M158.381 56L81.9507 132.43V199.869L158.381 123.438V56Z" fill="#959595"/>
<path d="M158.381 123.438H36.9918C34.607 123.438 32.3199 122.491 30.6336 120.805C28.9473 119.119 28 116.831 28 114.447V64.9918C28 62.607 28.9473 60.3199 30.6336 58.6336C32.3199 56.9473 34.607 56 36.9918 56H158.381V123.438Z" fill="#F6F6F6"/>
<path d="M75.207 70.083H41.4878V103.802H75.207V70.083Z" fill="#CCCCCC"/>
<path d="M147.164 70.083H81.9507V103.802H147.164V70.083Z" fill="#00BFFF"/>
<path d="M149.389 132.43L81.9507 199.869H228V193.057L167.373 132.43H149.389Z" fill="url(#paint0_linear_155_2)"/>
<defs>
<linearGradient id="paint0_linear_155_2" x1="120.166" y1="161.654" x2="193.19" y2="234.678" gradientUnits="userSpaceOnUse">
<stop offset="0.32" stop-opacity="0.15"/>
<stop offset="0.62" stop-opacity="0.02"/>
<stop offset="1" stop-opacity="0"/>
</linearGradient>
</defs>
</svg>
