<svg width="256" height="256" viewBox="0 0 256 256" fill="none" xmlns="http://www.w3.org/2000/svg">
<rect width="256" height="256" fill="#131316"/>
<path d="M204.299 54.3495L180.299 78.3495C179.545 79.1056 178.559 79.5858 177.499 79.7128C176.44 79.8398 175.368 79.6062 174.457 79.0495C162.034 71.5624 147.229 69.0798 133.043 72.1051C118.857 75.1304 106.353 83.4372 98.0654 95.3412C91.7742 104.4 88.2376 115.085 87.8821 126.108C87.5162 137.131 90.3466 148.024 96.0321 157.475C96.5856 158.383 96.8183 159.45 96.6928 160.507C96.5674 161.563 96.0912 162.546 95.3404 163.3L71.3321 187.3C70.8515 187.791 70.2695 188.172 69.6267 188.415C68.9839 188.658 68.2957 188.759 67.6102 188.709C66.9247 188.659 66.2583 188.46 65.6576 188.126C65.0569 187.792 64.5363 187.33 64.1321 186.775C49.0945 166.11 42.5447 140.47 45.829 115.125C49.1134 89.7804 61.9823 66.6568 81.7904 50.5079C98.8928 36.55 120.136 28.6488 142.203 28.0382C164.27 27.4277 185.917 34.1421 203.765 47.1329C204.321 47.5389 204.781 48.0606 205.115 48.6621C205.449 49.2635 205.648 49.9302 205.699 50.6162C205.75 51.3028 205.651 51.9922 205.409 52.6369C205.168 53.2815 204.789 53.8659 204.299 54.3495Z" fill="#89898A"/>
<path fill-rule="evenodd" clip-rule="evenodd" d="M204.282 201.583L180.274 177.575C179.521 176.82 178.536 176.341 177.478 176.214C176.42 176.088 175.35 176.32 174.44 176.875C165.538 182.25 155.336 185.091 144.936 185.091C134.537 185.091 124.335 182.25 115.432 176.875C114.52 176.329 113.452 176.101 112.396 176.228C111.34 176.355 110.356 176.828 109.599 177.575L85.5904 201.583C84.8381 202.315 84.3468 203.275 84.1917 204.313C84.0367 205.352 84.2265 206.413 84.7321 207.333C85.0796 207.941 85.5509 208.469 86.1154 208.883C103.205 221.307 123.791 228 144.92 228C166.048 228 186.634 221.307 203.724 208.883C204.291 208.474 204.763 207.948 205.106 207.339C205.45 206.73 205.658 206.055 205.715 205.358C205.763 204.663 205.659 203.965 205.412 203.314C205.164 202.662 204.779 202.072 204.282 201.583Z" fill="white"/>
<path d="M165.176 148.16C159.82 153.516 152.556 156.525 144.982 156.525C137.408 156.525 130.144 153.516 124.788 148.16C119.433 142.804 116.424 135.54 116.424 127.966C116.424 120.392 119.433 113.128 124.788 107.772C130.144 102.417 137.408 99.4079 144.982 99.4079C152.556 99.4079 159.82 102.417 165.176 107.772C170.532 113.128 173.54 120.392 173.54 127.966C173.54 135.54 170.532 142.804 165.176 148.16Z" fill="white"/>
</svg>
