<svg width="256" height="256" viewBox="0 0 256 256" fill="none" xmlns="http://www.w3.org/2000/svg">
<rect width="256" height="256" fill="#242932"/>
<path d="M202.299 54.3495L178.299 78.3495C177.545 79.1056 176.559 79.5858 175.499 79.7128C174.44 79.8398 173.368 79.6062 172.457 79.0495C160.034 71.5624 145.229 69.0798 131.043 72.1051C116.857 75.1304 104.353 83.4372 96.0654 95.3412C89.7742 104.4 86.2376 115.085 85.8821 126.108C85.5162 137.131 88.3466 148.024 94.0321 157.475C94.5856 158.383 94.8183 159.45 94.6928 160.507C94.5674 161.563 94.0912 162.546 93.3404 163.3L69.3321 187.3C68.8515 187.791 68.2695 188.172 67.6267 188.415C66.9839 188.658 66.2957 188.759 65.6102 188.709C64.9247 188.659 64.2583 188.46 63.6576 188.126C63.0569 187.792 62.5363 187.33 62.1321 186.775C47.0945 166.11 40.5447 140.47 43.829 115.125C47.1134 89.7804 59.9823 66.6568 79.7904 50.5079C96.8928 36.55 118.136 28.6488 140.203 28.0382C162.27 27.4277 183.917 34.1421 201.765 47.1329C202.321 47.5389 202.781 48.0606 203.115 48.6621C203.449 49.2635 203.648 49.9302 203.699 50.6162C203.75 51.3028 203.651 51.9922 203.409 52.6369C203.168 53.2815 202.789 53.8659 202.299 54.3495Z" fill="#89898A"/>
<path fill-rule="evenodd" clip-rule="evenodd" d="M202.282 201.583L178.274 177.575C177.521 176.82 176.536 176.341 175.478 176.214C174.42 176.088 173.35 176.32 172.44 176.875C163.538 182.25 153.336 185.091 142.936 185.091C132.537 185.091 122.335 182.25 113.432 176.875C112.52 176.329 111.452 176.101 110.396 176.228C109.34 176.355 108.356 176.828 107.599 177.575L83.5904 201.583C82.8381 202.315 82.3468 203.275 82.1917 204.313C82.0367 205.352 82.2265 206.413 82.7321 207.333C83.0796 207.941 83.5509 208.469 84.1154 208.883C101.205 221.307 121.791 228 142.92 228C164.048 228 184.634 221.307 201.724 208.883C202.291 208.474 202.763 207.948 203.106 207.339C203.45 206.73 203.658 206.055 203.715 205.358C203.763 204.663 203.659 203.965 203.412 203.314C203.164 202.662 202.779 202.072 202.282 201.583Z" fill="white"/>
<path d="M163.176 148.16C157.82 153.516 150.556 156.525 142.982 156.525C135.408 156.525 128.144 153.516 122.788 148.16C117.433 142.804 114.424 135.54 114.424 127.966C114.424 120.392 117.433 113.128 122.788 107.772C128.144 102.417 135.408 99.4079 142.982 99.4079C150.556 99.4079 157.82 102.417 163.176 107.772C168.532 113.128 171.54 120.392 171.54 127.966C171.54 135.54 168.532 142.804 163.176 148.16Z" fill="white"/>
</svg>
