<svg width="256" height="256" viewBox="0 0 256 256" fill="none" xmlns="http://www.w3.org/2000/svg">
<rect width="256" height="256" fill="#242932"/>
<path fill-rule="evenodd" clip-rule="evenodd" d="M167.314 171C168.495 166.45 168.014 162.399 165.905 159.293C164.024 156.423 160.725 154.751 156.717 154.751L80.9162 153.798C80.6717 153.802 80.431 153.736 80.2219 153.61C80.0129 153.483 79.844 153.299 79.735 153.08C79.4988 152.608 79.4987 152.126 79.4987 151.654C79.735 150.936 80.4437 150.219 81.1525 150.219L157.663 149.256C166.85 148.784 176.501 141.381 180.027 132.307L184.499 120.845C184.735 120.364 184.735 119.882 184.735 119.41C179.8 96.7125 160.025 80 136.243 80C114.341 80 95.7475 94.3325 89.1587 114.151C86.9423 112.43 84.4073 111.165 81.6997 110.427C78.9922 109.69 76.1655 109.496 73.3825 109.855C62.795 110.809 54.5437 119.41 53.3712 130.155C53.135 133.025 53.3713 135.65 53.8438 138.03C36.65 138.52 23 152.853 23 170.291C23 171.954 23.2363 173.398 23.2363 175.06C23.2363 175.778 23.9362 176.259 24.645 176.259H164.496C165.196 176.259 166.141 175.777 166.377 174.824L167.314 171Z" fill="#F38020"/>
<path fill-rule="evenodd" clip-rule="evenodd" d="M191.332 121.562H189.215C188.742 121.562 188.27 122.035 188.034 122.516L184.971 133.016C183.799 137.566 184.271 141.617 186.389 144.724C188.27 147.594 191.569 149.256 195.576 149.256L211.807 150.219C212.28 150.219 212.752 150.455 212.989 150.936C213.225 151.409 213.225 151.89 213.225 152.362C212.989 153.08 212.28 153.797 211.58 153.797L194.867 154.76C185.68 155.232 176.029 162.635 172.494 171.709L171.321 174.815C171.085 175.296 171.549 176.014 172.257 176.014H229.937C230.646 176.014 231.355 175.532 231.355 174.815C232.291 171.227 233 167.412 233 163.352C232.764 140.427 214.161 121.554 191.332 121.554" fill="#FCAD32"/>
</svg>
