<svg width="256" height="256" viewBox="0 0 256 256" fill="none" xmlns="http://www.w3.org/2000/svg">
<rect width="256" height="256" fill="#005CA5"/>
<path d="M172.49 60.004C178.706 55.6929 183.178 49.3093 185.105 42C186.274 47.0715 186.23 52.3469 184.976 57.3981C183.382 61.5536 180.923 65.3017 179.015 69.3132C188.958 60.9925 199.904 53.9466 211.598 48.3394C208.153 58.9622 198.584 65.387 191.551 73.5395C192.909 76.4598 193.552 80.6001 197.269 81.4567C203.036 83.3228 209.182 83.7034 215.136 82.5632C221.654 80.329 224.749 73.5829 228 68.0354V78.5227C226.859 82.76 225.47 86.9269 223.841 91.002C225.27 94.907 226.763 98.7974 228 102.759V109.556C226.471 112.183 224.842 114.739 223.262 117.331C221.147 114.2 218.574 111.404 215.629 109.035C211.349 107.714 206.819 107.408 202.4 108.142C204.284 111.089 206.817 113.566 209.806 115.385C212.795 117.204 216.16 118.316 219.646 118.637C217.079 121.278 214.907 125.147 210.855 125.555C199.126 127.318 187.935 121.949 176.271 121.985C174.255 122.128 171.218 122.156 170.661 124.641C170.661 129.888 172.211 135.013 172.018 140.261C171.597 149.242 168.359 157.866 168.238 166.86C169.164 175.289 171.177 183.563 174.227 191.476C170.489 190.926 166.765 190.291 163.063 189.62C162.349 191.105 161.748 192.618 161.205 194.146C163.371 197.466 166.13 200.358 169.346 202.677C168.765 203.883 168.191 205.092 167.623 206.303L163.527 207.289C162.591 209.056 161.638 210.815 160.669 212.564C155.475 211.383 150.066 211.533 144.945 213C141.628 211.672 138.319 210.323 135.019 208.952C137.081 203.692 138.07 198.073 137.927 192.425C135.912 185.415 126.492 185.4 123.633 179.025C119.561 172.944 117.052 165.953 116.329 158.672C110.447 155.581 105.93 149.955 99.1769 148.677C98.8338 151.598 98.5838 154.532 98.0837 157.437C96.2472 163.831 92.9491 169.711 88.4492 174.614C88.7282 177.626 89.0134 180.624 89.3069 183.644C91.7781 185.951 94.2389 188.269 96.6893 190.598C93.4372 192.57 90.0288 194.272 86.4984 195.688C82.4991 196.176 78.4684 196.36 74.4412 196.237C72.5971 194.424 70.7393 192.611 68.8884 190.783C70.8508 184.767 71.1326 178.33 69.7033 172.165C70.9253 169.309 72.033 166.368 73.098 163.448C66.1993 165.908 58.7546 166.417 51.5848 164.919C45.1549 162.492 39.5391 158.306 35.3808 152.839C31.2225 147.372 28.6898 140.845 28.0727 134.007C27.7515 129.598 28.4975 125.176 30.2477 121.115C31.9978 117.055 34.7007 113.474 38.128 110.677C36.2726 116.715 35.6886 123.071 36.4127 129.345C37.2001 133.766 39.3418 137.834 42.5423 140.988C45.7427 144.141 49.8441 146.224 54.2804 146.95C59.3083 146.877 64.1946 145.276 68.2884 142.359C66.3506 132.477 67.2499 122.248 70.8826 112.854C73.5964 108.081 77.2777 103.927 81.6909 100.657C86.1041 97.3875 91.152 95.0738 96.5117 93.8645C102.338 91.7008 107.356 87.7974 110.884 82.685C114.217 79.1809 117.876 76.0015 121.812 73.19C120.182 71.6266 118.575 70.0488 116.952 68.4855C119.611 67.5762 121.969 65.9571 123.772 63.804C125.575 61.6508 126.753 59.0457 127.179 56.2711C136.356 54.1291 145.411 51.5514 154.481 49.0529C157.52 51.1701 160.962 52.6424 164.593 53.379C166.859 55.8493 168.124 61.6389 172.455 60.004M145.461 155.395C145.761 160.878 145.118 167.282 150.278 170.78C150.278 165.39 149.949 160.021 149.564 154.646L145.461 155.395Z" fill="white"/>
</svg>
