<svg width="256" height="256" viewBox="0 0 256 256" fill="none" xmlns="http://www.w3.org/2000/svg">
<rect width="256" height="256" fill="#232932"/>
<g clip-path="url(#clip0_241_19)">
<path fill-rule="evenodd" clip-rule="evenodd" d="M176.684 37.6592C186.857 37.6592 195.105 45.9257 195.105 56.123V98.3258C195.105 108.523 186.857 116.79 176.684 116.79C166.51 116.79 158.263 108.523 158.263 98.3258V56.123C158.263 45.9257 166.51 37.6592 176.684 37.6592Z" fill="#FF5543"/>
<path fill-rule="evenodd" clip-rule="evenodd" d="M39.842 85.1372C39.842 74.9398 48.0894 66.6733 58.2631 66.6733H100.368C110.542 66.6733 118.789 74.9398 118.789 85.1372C118.789 95.3343 110.542 103.601 100.368 103.601H58.2631C48.0894 103.601 39.842 95.3343 39.842 85.1372Z" fill="#A112FF"/>
<path fill-rule="evenodd" clip-rule="evenodd" d="M61.0819 151.769C54.9582 143.699 43.4738 142.085 35.3685 148.178C27.2296 154.296 25.5801 165.869 31.6843 174.027L46.4211 162.948C31.6843 174.027 31.6895 174.034 31.6948 174.041L31.7059 174.056L31.7301 174.088L31.7867 174.163C31.828 174.217 31.8764 174.28 31.9321 174.352C32.0433 174.496 32.1832 174.675 32.3519 174.887C32.6891 175.31 33.1418 175.864 33.7099 176.531C34.8451 177.862 36.4475 179.648 38.517 181.735C42.6461 185.899 48.6987 191.322 56.6774 196.718C72.6926 207.549 96.6126 218.34 128 218.34C159.388 218.34 183.308 207.549 199.323 196.718C207.301 191.322 213.354 185.899 217.483 181.735C219.553 179.648 221.155 177.862 222.29 176.531C222.858 175.864 223.311 175.31 223.648 174.887C223.817 174.675 223.957 174.496 224.068 174.352C224.124 174.28 224.172 174.217 224.213 174.163L224.27 174.088L224.294 174.056L224.305 174.041C224.311 174.034 224.316 174.027 209.579 162.948L224.316 174.027C230.42 165.869 228.77 154.296 220.632 148.178C212.526 142.085 201.042 143.699 194.918 151.769C194.908 151.782 194.889 151.806 194.863 151.84C194.769 151.958 194.575 152.197 194.282 152.54C193.696 153.228 192.718 154.326 191.354 155.702C188.617 158.462 184.389 162.27 178.717 166.107C167.429 173.74 150.56 181.412 128 181.412C105.44 181.412 88.5708 173.74 77.2832 166.107C71.6108 162.27 67.3835 158.462 64.6461 155.702C63.2822 154.326 62.3044 153.228 61.7178 152.54C61.4249 152.197 61.2313 151.958 61.1374 151.84C61.1108 151.806 61.0923 151.783 61.0819 151.769ZM194.863 151.84L194.861 151.845L194.852 151.857C194.847 151.864 194.842 151.87 209.104 162.591L194.842 151.87C194.849 151.861 194.856 151.849 194.863 151.84Z" fill="#00CBEC"/>
</g>
<defs>
<clipPath id="clip0_241_19">
<rect width="200" height="182" fill="white" transform="translate(28 37)"/>
</clipPath>
</defs>
</svg>
