<svg width="256" height="256" viewBox="0 0 256 256" fill="none" xmlns="http://www.w3.org/2000/svg">
<rect width="256" height="256" fill="#232932"/>
<g clip-path="url(#clip0_241_25)">
<path fill-rule="evenodd" clip-rule="evenodd" d="M94.56 146.24C99.6267 146.24 109.76 145.987 123.947 140.16C140.413 133.32 172.84 121.16 196.4 108.493C212.867 99.6267 219.96 87.9733 219.96 72.2667C219.96 50.7333 202.48 33 180.693 33H89.4933C58.3333 33 33 58.3333 33 89.4933C33 120.653 56.8133 146.24 94.56 146.24Z" fill="#39594D"/>
<path fill-rule="evenodd" clip-rule="evenodd" d="M110.013 185C110.013 169.8 119.133 155.867 133.32 150.04L161.947 138.133C191.08 126.227 223 147.507 223 178.92C223 203.24 203.24 223 178.92 223H147.76C126.987 223 110.013 206.027 110.013 185Z" fill="#D18EE2"/>
<path d="M65.68 153.586C47.6933 153.586 33 168.28 33 186.266V190.573C33 208.306 47.6933 223 65.68 223C83.6667 223 98.36 208.306 98.36 190.32V186.013C98.1067 168.28 83.6667 153.586 65.68 153.586Z" fill="#FF7759"/>
</g>
<defs>
<clipPath id="clip0_241_25">
<rect width="190" height="190" fill="white" transform="translate(33 33)"/>
</clipPath>
</defs>
</svg>
