<svg width="256" height="256" viewBox="0 0 256 256" fill="none" xmlns="http://www.w3.org/2000/svg">
<rect width="256" height="256" fill="#232932"/>
<mask id="mask0_84_12715" style="mask-type:luminance" maskUnits="userSpaceOnUse" x="28" y="56" width="200" height="145">
<path d="M216.889 56H39.1111C32.9746 56 28 60.9746 28 67.1111V189.333C28 195.47 32.9746 200.444 39.1111 200.444H216.889C223.025 200.444 228 195.47 228 189.333V67.1111C228 60.9746 223.025 56 216.889 56Z" fill="white"/>
</mask>
<g mask="url(#mask0_84_12715)">
<path d="M161.333 56.5562H94.6667V199.889H161.333V56.5562Z" fill="url(#paint0_linear_84_12715)"/>
<path d="M228 56.5562H161.333V199.889H228V56.5562Z" fill="url(#paint1_linear_84_12715)"/>
<path d="M94.6667 56.5562H28V199.889H94.6667V56.5562Z" fill="url(#paint2_linear_84_12715)"/>
</g>
<defs>
<linearGradient id="paint0_linear_84_12715" x1="3428" y1="243.71" x2="3428" y2="14389.9" gradientUnits="userSpaceOnUse">
<stop stop-color="#71FF00"/>
<stop offset="1" stop-color="#FFE365" stop-opacity="0.2"/>
</linearGradient>
<linearGradient id="paint1_linear_84_12715" x1="3494.67" y1="56.5562" x2="3494.67" y2="14389.9" gradientUnits="userSpaceOnUse">
<stop stop-color="#FF3000"/>
<stop offset="1" stop-color="#FFCF56" stop-opacity="0.1"/>
</linearGradient>
<linearGradient id="paint2_linear_84_12715" x1="3361.33" y1="56.5562" x2="3361.33" y2="14389.9" gradientUnits="userSpaceOnUse">
<stop stop-color="#6500FF"/>
<stop offset="1" stop-color="#00E9FF" stop-opacity="0.2"/>
</linearGradient>
</defs>
</svg>
