<svg width="256" height="256" viewBox="0 0 256 256" fill="none" xmlns="http://www.w3.org/2000/svg">
<rect width="256" height="256" fill="#232932"/>
<path d="M153.347 185.633C182.412 182.405 209.816 166.917 224.904 141.067C217.758 205.004 147.844 245.416 90.7757 220.604C85.5181 218.324 80.9917 214.531 77.8861 209.654C65.0606 189.517 60.8462 163.893 66.9022 140.638C84.2093 170.507 119.398 188.816 153.347 185.633Z" fill="#F3B01C"/>
<path d="M65.8414 121.879C54.059 149.106 53.5502 180.982 67.9933 207.216C17.1614 168.973 17.7166 87.133 67.3726 49.2722C71.9645 45.7731 77.4237 43.6963 83.1485 43.3795C106.689 42.1379 130.608 51.2354 147.382 68.1906C113.302 68.5298 80.1085 90.3618 65.8414 121.879Z" fill="#8D2676"/>
<path d="M163.819 76.5675C146.624 52.5916 119.71 36.2684 90.2221 35.7724C147.222 9.90044 217.336 51.8476 224.969 113.863C225.68 119.62 224.747 125.491 222.195 130.683C211.545 152.311 191.798 169.086 168.723 175.294C185.63 143.935 183.544 105.624 163.819 76.5675Z" fill="#EE342F"/>
</svg>
