<svg width="256" height="256" viewBox="0 0 256 256" fill="none" xmlns="http://www.w3.org/2000/svg">
<g clip-path="url(#clip0_17_336)">
<rect width="256" height="256" fill="white"/>
<rect width="256" height="256" fill="#004482"/>
<rect width="256" height="256" fill="#659AD2"/>
<rect y="201" width="256" height="55" fill="#004482"/>
<path d="M256 200.732L128 128L0 200.732C2.15514 203.76 4.97759 206.257 8.25182 208.035C29.223 219.607 99.5828 258.007 113.638 265.908C117.853 268.536 122.718 269.952 127.692 269.999C132.667 270.045 137.557 268.721 141.821 266.172C177.113 246.759 212.426 227.376 247.758 208.025C251.028 206.249 253.847 203.755 256 200.732Z" fill="#004482"/>
<path d="M178.233 152.408C172.834 161.989 164.412 169.521 154.278 173.831C144.145 178.141 132.868 178.986 122.202 176.237C111.537 173.487 102.081 167.296 95.3075 158.627C88.5338 149.959 84.8216 139.299 84.7489 128.306C84.6761 117.314 88.2468 106.606 94.9052 97.8486C101.564 89.0914 110.936 82.7763 121.564 79.8863C132.192 76.9963 143.48 77.6933 153.67 81.8691C163.86 86.0448 172.38 93.4649 177.906 102.975L221.721 77.9013C210.6 58.855 193.511 43.986 173.089 35.5848C152.666 27.1836 130.041 25.7162 108.701 31.4088C87.3599 37.1014 68.4867 49.638 54.9883 67.0876C41.49 84.5372 34.1152 105.932 34.0002 127.975C33.9691 145.456 38.5686 162.635 47.3326 177.771C56.1987 193.063 68.943 205.755 84.2841 214.573C99.6252 223.39 117.022 228.021 134.726 228C152.429 227.979 169.815 223.307 185.136 214.454C200.456 205.6 213.17 192.878 222 177.566L178.233 152.408Z" fill="white"/>
<path d="M128 128L257 53.5218V202.478L128 128Z" fill="#00599C"/>
<path d="M201.688 123.785H193.222V115.366H184.766V123.785H176.301V132.223H184.766V140.634H193.222V132.223H201.688V123.785ZM233.438 123.785H224.972V115.366H216.507V123.785H208.041V132.223H216.507V140.634H224.972V132.223H233.438V123.785Z" fill="white"/>
</g>
<defs>
<clipPath id="clip0_17_336">
<rect width="256" height="256" fill="white"/>
</clipPath>
</defs>
</svg>
