<svg width="256" height="256" viewBox="0 0 256 256" fill="none" xmlns="http://www.w3.org/2000/svg">
<g clip-path="url(#clip0_17_336)">
<rect width="256" height="256" fill="white"/>
<rect width="256" height="256" fill="#004482"/>
<path d="M220.705 86.8113C220.769 83.6984 219.984 80.6269 218.434 77.9265C216.803 75.2768 214.496 73.1097 211.749 71.6486C187.018 57.9929 162.275 44.3443 137.521 30.7028C134.537 28.9058 131.113 27.9705 127.63 28.0007C124.146 28.031 120.739 29.0256 117.787 30.8743C107.945 36.438 58.686 63.478 44.0018 71.6272C41.2091 73.0329 38.8779 75.2096 37.2842 77.8995C35.6906 80.5893 34.9013 83.6796 35.0099 86.8042V169.217C34.9377 172.26 35.6773 175.268 37.1525 177.93C38.7916 180.657 41.1487 182.881 43.9661 184.358C58.6503 192.508 107.917 219.548 117.758 225.111C120.71 226.962 124.116 227.959 127.599 227.992C131.082 228.025 134.507 227.092 137.492 225.297C162.204 211.627 186.93 197.978 211.67 184.351C214.488 182.872 216.847 180.649 218.491 177.923C219.966 175.261 220.706 172.253 220.633 169.21V86.8113" fill="#659AD2"/>
<path d="M217.484 179.223C217.859 178.811 218.209 178.377 218.533 177.923C220.009 175.261 220.748 172.253 220.676 169.21V86.8113C220.74 83.6984 219.955 80.6269 218.405 77.9266C218.148 77.5052 217.769 77.1766 217.476 76.7838L127.857 128.007L217.484 179.223Z" fill="#00599C"/>
<path d="M217.484 179.223L127.857 128.007L38.231 179.223C39.74 181.355 41.7163 183.114 44.0089 184.366C58.6931 192.515 107.959 219.555 117.801 225.118C120.752 226.969 124.159 227.966 127.642 227.999C131.125 228.032 134.55 227.099 137.535 225.304C162.247 211.634 186.973 197.986 211.713 184.358C214.002 183.108 215.976 181.352 217.484 179.223Z" fill="#004482"/>
<path d="M153.569 142.434C150.387 148.092 145.425 152.54 139.453 155.084C133.482 157.629 126.837 158.129 120.552 156.505C114.267 154.881 108.695 151.226 104.704 146.107C100.712 140.988 98.525 134.693 98.4821 128.203C98.4392 121.712 100.543 115.388 104.467 110.217C108.39 105.046 113.913 101.317 120.176 99.6108C126.439 97.9043 133.09 98.3159 139.095 100.782C145.099 103.247 150.12 107.629 153.376 113.244L179.195 98.4387C172.641 87.192 162.572 78.4119 150.537 73.451C138.503 68.4902 125.171 67.6237 112.596 70.9852C100.021 74.3466 88.8994 81.7494 80.9453 92.0533C72.9912 102.357 68.6455 114.99 68.5777 128.007C68.5594 138.33 71.2697 148.473 76.4341 157.411C81.6585 166.441 89.1683 173.936 98.2082 179.142C107.248 184.349 117.5 187.083 127.932 187.071C138.364 187.059 148.609 184.3 157.636 179.072C166.664 173.844 174.156 166.332 179.359 157.29L153.569 142.434Z" fill="white"/>
<path d="M185.537 124.707H178.923V118.13H172.317V124.707H165.703V131.3H172.317V137.87H178.923V131.3H185.537V124.707ZM210.342 124.707H203.728V118.13H197.114V124.707H190.501V131.3H197.114V137.87H203.728V131.3H210.342V124.707Z" fill="white"/>
</g>
<defs>
<clipPath id="clip0_17_336">
<rect width="256" height="256" fill="white"/>
</clipPath>
</defs>
</svg>
