<svg width="256" height="256" viewBox="0 0 256 256" fill="none" xmlns="http://www.w3.org/2000/svg">
<g clip-path="url(#clip0_17_336)">
<rect width="256" height="256" fill="white"/>
<rect width="256" height="256" fill="#004482"/>
<rect width="256" height="256" fill="#659AD2"/>
<path d="M128 128L257 53.5218V202.478L128 128Z" fill="#00599C"/>
<rect y="201" width="256" height="55" fill="#004482"/>
<path d="M256 200.732L128 128L0 200.732C2.15514 203.76 4.97759 206.257 8.25182 208.035C29.223 219.607 99.5828 258.007 113.638 265.908C117.853 268.536 122.718 269.952 127.692 269.999C132.667 270.045 137.557 268.721 141.821 266.172C177.113 246.759 212.426 227.376 247.758 208.025C251.028 206.249 253.847 203.755 256 200.732Z" fill="#004482"/>
<path d="M160.768 146.476C156.696 153.718 150.344 159.411 142.7 162.668C135.057 165.925 126.551 166.565 118.507 164.487C110.462 162.408 103.33 157.729 98.2211 151.177C93.112 144.625 90.3121 136.568 90.2572 128.259C90.2023 119.951 92.8955 111.857 97.9177 105.238C102.94 98.6193 110.009 93.8462 118.025 91.6618C126.042 89.4774 134.555 90.0043 142.241 93.1605C149.927 96.3166 156.354 101.925 160.522 109.113L193.57 90.1615C185.181 75.7657 172.292 64.5272 156.888 58.1773C141.484 51.8274 124.419 50.7184 108.323 55.021C92.2266 59.3236 77.9914 68.7992 67.8101 81.9882C57.6288 95.1771 52.0664 111.348 51.9796 128.009C51.9562 141.222 55.4254 154.206 62.0357 165.646C68.723 177.204 78.3355 186.798 89.9066 193.462C101.478 200.126 114.6 203.627 127.953 203.611C141.306 203.595 154.419 200.064 165.975 193.372C177.53 186.681 187.12 177.064 193.78 165.491L160.768 146.476Z" fill="white"/>
<path d="M201.688 123.785H193.222V115.366H184.766V123.785H176.301V132.223H184.766V140.634H193.222V132.223H201.688V123.785ZM233.437 123.785H224.972V115.366H216.507V123.785H208.041V132.223H216.507V140.634H224.972V132.223H233.437V123.785Z" fill="white"/>
</g>
<defs>
<clipPath id="clip0_17_336">
<rect width="256" height="256" fill="white"/>
</clipPath>
</defs>
</svg>
