<svg width="256" height="256" viewBox="0 0 256 256" fill="none" xmlns="http://www.w3.org/2000/svg">
<g clip-path="url(#clip0_17_336)">
<rect width="256" height="256" fill="white"/>
<rect width="256" height="256" fill="#004482"/>
<path d="M110.759 210.517C65.125 210.517 28 173.392 28 127.759C28 82.125 65.125 45 110.759 45C140.204 45 167.667 60.846 182.427 86.353L146.611 107.079C139.224 94.311 125.485 86.379 110.759 86.379C87.942 86.379 69.379 104.942 69.379 127.759C69.379 150.575 87.942 169.138 110.759 169.138C125.486 169.138 139.225 161.206 146.613 148.436L182.429 169.161C167.669 194.671 140.206 210.517 110.759 210.517Z" fill="white"/>
<path d="M193.517 123.161H184.321V113.965H175.127V123.161H165.931V132.356H175.127V141.552H184.321V132.356H193.517V123.161ZM228 123.161H218.804V113.965H209.61V123.161H200.414V132.356H209.61V141.552H218.804V132.356H228V123.161Z" fill="white"/>
</g>
<defs>
<clipPath id="clip0_17_336">
<rect width="256" height="256" fill="white"/>
</clipPath>
</defs>
</svg>
