<svg width="256" height="256" viewBox="0 0 256 256" fill="none" xmlns="http://www.w3.org/2000/svg">
<rect width="256" height="256" fill="#232932"/>
<g clip-path="url(#clip0_88_639)">
<path d="M127.039 92.3193C120.475 92.3304 115.161 97.6475 115.167 104.199V216.005C115.163 219.152 116.412 222.171 118.638 224.399C120.865 226.627 123.887 227.88 127.039 227.885C133.6 227.885 138.917 222.567 138.917 216.005V104.199C138.922 97.6475 133.609 92.3304 127.044 92.3193" fill="#F7D186"/>
<path d="M174.696 77.6648C174.764 76.1767 174.764 74.6867 174.696 73.1985C173.559 48.0422 152.808 28 127.379 28C101.95 28 81.1992 48.0422 80.0525 73.1985C79.9805 74.737 79.982 76.2781 80.0577 77.8167C80.0429 78.2115 80.002 78.6019 80.002 79.0019V156.795C80.002 171.672 92.1684 183.846 107.039 183.846H147.73C162.595 183.846 174.761 171.672 174.761 156.795V79.0015C174.761 78.5459 174.716 78.1104 174.696 77.6644" fill="#FF9234"/>
<mask id="mask0_88_639" style="mask-type:luminance" maskUnits="userSpaceOnUse" x="80" y="28" width="95" height="156">
<path d="M80.2865 73.1987C80.2197 74.7376 80.2227 76.2787 80.2965 77.8172C80.2765 78.2117 80.2357 78.6017 80.2357 79.0017V156.795C80.2357 171.672 92.402 183.845 107.273 183.845H147.963C162.829 183.845 175 171.672 175 156.795V79.002C175 78.5465 174.95 78.1106 174.929 77.665C175.003 76.1772 175.005 74.6869 174.934 73.1987C173.788 48.0424 153.036 28.0054 127.613 28.0054C102.184 28.0054 81.4332 48.0424 80.2865 73.1939V73.1987Z" fill="white"/>
</mask>
<g mask="url(#mask0_88_639)">
<path d="M203.392 74.6823L85.8726 192.252L51.0677 157.428L168.582 39.8594L203.392 74.6823Z" fill="#FFCD3C"/>
</g>
<mask id="mask1_88_639" style="mask-type:luminance" maskUnits="userSpaceOnUse" x="80" y="28" width="95" height="156">
<path d="M80.2865 73.1987C80.2197 74.7376 80.2227 76.2787 80.2965 77.8172C80.2765 78.2117 80.2357 78.6017 80.2357 79.0017V156.795C80.2357 171.672 92.402 183.845 107.273 183.845H147.963C162.829 183.845 175 171.672 175 156.795V79.002C175 78.5465 174.95 78.1106 174.929 77.665C175.003 76.1772 175.005 74.6869 174.934 73.1987C173.788 48.0424 153.036 28.0054 127.613 28.0054C102.184 28.0054 81.4332 48.0424 80.2865 73.1939V73.1987Z" fill="white"/>
</mask>
<g mask="url(#mask1_88_639)">
<path d="M168.475 39.748L50.9612 157.317L7.65308 113.987L125.157 -3.58203L168.475 39.748Z" fill="#F3807B"/>
</g>
<mask id="mask2_88_639" style="mask-type:luminance" maskUnits="userSpaceOnUse" x="80" y="28" width="95" height="156">
<path d="M80.2865 73.1987C80.2197 74.7376 80.2227 76.2787 80.2965 77.8172C80.2765 78.2117 80.2357 78.6017 80.2357 79.0017V156.795C80.2357 171.672 92.402 183.845 107.273 183.845H147.963C162.829 183.845 175 171.672 175 156.795V79.002C175 78.5465 174.95 78.1106 174.929 77.665C175.003 76.1772 175.005 74.6869 174.934 73.1987C173.788 48.0424 153.036 28.0054 127.613 28.0054C102.184 28.0054 81.4332 48.0424 80.2865 73.1939V73.1987Z" fill="white"/>
</mask>
<g mask="url(#mask2_88_639)">
<path d="M238.308 109.617L120.794 227.181L85.9891 192.358L203.504 74.7939L238.308 109.617Z" fill="#35D0BA"/>
</g>
<path d="M118.389 183.977L138.988 204.586V183.805L118.389 183.977Z" fill="#D8AE64"/>
</g>
<defs>
<clipPath id="clip0_88_639">
<rect width="95" height="200" fill="white" transform="translate(80 28)"/>
</clipPath>
</defs>
</svg>
