<svg width="256" height="256" viewBox="0 0 256 256" fill="none" xmlns="http://www.w3.org/2000/svg">
<rect width="256" height="256" fill="#232932"/>
<g clip-path="url(#clip0_88_663)">
<path d="M24.5071 138.76C23.5084 135.111 23 131.32 23 127.502C23 110.073 33.9081 94.1373 50.1454 87.853L52.2744 93.382C38.2977 98.7926 28.9103 112.503 28.9103 127.502C28.9103 130.792 29.346 134.05 30.204 137.19L24.5071 138.76Z" fill="#69D3A7"/>
<path d="M97.9132 110.665C91.5945 98.4924 79.1564 90.9294 65.4613 90.9294C60.6087 90.9294 55.8923 91.8668 51.4529 93.7098L49.1877 88.2354C54.3489 86.0921 59.8234 85 65.4613 85C81.3717 85 95.816 93.7826 103.156 107.926L97.9132 110.665Z" fill="url(#paint0_linear_88_663)"/>
<path d="M52.783 118.733C56.21 118.733 59.0018 120.567 60.4363 123.766L60.5498 124.017L66.3056 122.055L66.1831 121.76C63.9543 116.312 58.8202 112.927 52.783 112.927C48.5385 112.927 45.0887 114.292 42.238 117.095C39.4053 119.88 37.9709 123.384 37.9709 127.511C37.9709 131.602 39.4053 135.088 42.238 137.873C45.0887 140.676 48.5385 142.041 52.783 142.041C58.8202 142.041 63.9543 138.656 66.1831 133.213L66.3056 132.918L60.5406 130.952L60.4317 131.211C59.147 134.355 56.2873 136.235 52.783 136.235C50.3951 136.235 48.3797 135.398 46.7817 133.75C45.1658 132.08 44.3487 129.982 44.3487 127.516C44.3487 125.031 45.1476 122.974 46.7817 121.227C48.3751 119.571 50.3951 118.733 52.783 118.733ZM123.71 117.1C121.055 114.333 117.741 112.927 113.855 112.927C109.997 112.927 106.819 114.306 104.405 117.022V113.464H98.1855V152.239H104.405V137.946C106.819 140.663 109.992 142.041 113.855 142.041C117.741 142.041 121.059 140.635 123.715 137.864C126.33 135.079 127.65 131.598 127.65 127.511C127.646 123.384 126.325 119.885 123.71 117.1ZM118.835 133.741C117.242 135.393 115.222 136.226 112.839 136.226C110.419 136.226 108.458 135.411 106.838 133.741C105.222 132.071 104.405 129.973 104.405 127.507C104.405 124.968 105.199 122.911 106.838 121.218C108.454 119.543 110.415 118.733 112.839 118.733C115.226 118.733 117.242 119.571 118.835 121.218C120.437 122.874 121.214 124.931 121.214 127.507C121.214 130.046 120.433 132.085 118.835 133.741ZM137.773 116.804V113.464H131.554V141.5H137.773V125.682C137.773 123.148 138.79 121.209 140.796 119.921C142.789 118.642 145.181 118.406 148.109 119.207L148.486 119.311V113.314L148.255 113.259C144.323 112.317 140.379 113.673 137.773 116.804ZM164.619 112.927C160.52 112.927 157.043 114.328 154.283 117.095C151.487 119.898 150.07 123.402 150.07 127.511C150.07 131.602 151.505 135.088 154.337 137.873C157.188 140.676 160.638 142.041 164.882 142.041C170.634 142.041 175.577 139.111 178.11 134.201L178.255 133.919L172.994 131.58L172.867 131.83C171.342 134.788 168.414 136.553 165.046 136.553C160.67 136.553 157.32 133.873 156.412 129.691H178.972L179 129.423C179.49 124.899 178.328 120.977 175.554 117.76C172.794 114.551 169.113 112.927 164.619 112.927ZM156.598 124.685C157.701 120.859 160.815 118.41 164.619 118.41C168.527 118.41 171.641 120.859 172.649 124.685H156.598ZM195.614 124.836C192.223 124.199 189.295 123.644 189.295 121.277C189.295 119.398 191.288 118.087 194.139 118.087C197.285 118.087 199.009 119.443 199.413 122.233L199.459 122.547L205.677 121.241L205.633 120.959C204.796 116.003 200.394 112.922 194.143 112.922C191.007 112.922 188.351 113.737 186.254 115.343C184.111 116.941 183.026 119.025 183.026 121.546C183.026 125.195 185.332 127.935 189.204 128.872C190.208 129.109 191.27 129.3 192.296 129.491C196.15 130.196 199.79 130.865 199.79 133.468C199.79 135.475 197.466 136.872 194.143 136.872C190.761 136.872 188.896 135.516 188.437 132.722L188.387 132.412L182.173 133.718L182.223 134.005C183.126 139.033 187.579 142.037 194.139 142.037C197.471 142.037 200.326 141.204 202.614 139.566C204.902 137.946 206.058 135.857 206.058 133.359C206.058 126.806 200.272 125.714 195.614 124.836ZM222.555 124.836C219.165 124.199 216.237 123.644 216.237 121.277C216.237 119.398 218.229 118.087 221.079 118.087C224.226 118.087 225.95 119.443 226.354 122.233L226.4 122.547L232.619 121.241L232.573 120.959C231.738 116.003 227.335 112.922 221.085 112.922C217.947 112.922 215.291 113.737 213.195 115.343C211.052 116.941 209.967 119.025 209.967 121.546C209.967 125.195 212.274 127.935 216.145 128.872C217.149 129.109 218.21 129.3 219.237 129.491C223.091 130.196 226.732 130.865 226.732 133.468C226.732 135.475 224.408 136.872 221.085 136.872C217.702 136.872 215.837 135.516 215.378 132.722L215.328 132.412L209.115 133.718L209.164 134.005C210.068 139.033 214.52 142.037 221.079 142.037C224.411 142.037 227.266 141.204 229.555 139.566C231.842 137.946 233 135.857 233 133.359C233 126.806 227.212 125.714 222.555 124.836Z" fill="white"/>
<path d="M88.8343 113.464L80.6318 134.292L72.3747 113.464H65.6201L77.1999 141.891L68.9611 161.941L74.8668 163.12L95.2167 113.464H88.8343Z" fill="white"/>
<path d="M70.0178 159.356L68.5788 162.851C68.2928 163.543 67.6391 164.012 66.9038 164.043C66.4181 164.062 65.9279 164.075 65.433 164.075C48.4966 164.066 33.5122 152.085 29.799 135.575L24.034 136.881C26.1176 146.142 31.3469 154.546 38.7597 160.553C46.2588 166.628 55.7051 169.982 65.3695 170H65.4556C66.0232 170 66.5859 169.987 67.1489 169.964C70.1812 169.836 72.8912 167.93 74.0487 165.104L75.9279 160.535L70.0178 159.356Z" fill="url(#paint1_linear_88_663)"/>
</g>
<defs>
<linearGradient id="paint0_linear_88_663" x1="61.043" y1="82.2562" x2="93.3943" y2="116.714" gradientUnits="userSpaceOnUse">
<stop offset="0.0939" stop-color="#58D09E"/>
<stop offset="0.9883" stop-color="#58D09E" stop-opacity="0"/>
</linearGradient>
<linearGradient id="paint1_linear_88_663" x1="22.5475" y1="146.84" x2="84.154" y2="163.181" gradientUnits="userSpaceOnUse">
<stop offset="0.0774" stop-color="#58D09E"/>
<stop offset="0.7617" stop-color="#1B1E2E"/>
</linearGradient>
<clipPath id="clip0_88_663">
<rect width="210" height="85" fill="white" transform="translate(23 85)"/>
</clipPath>
</defs>
</svg>
