<svg width="256" height="256" viewBox="0 0 256 256" fill="none" xmlns="http://www.w3.org/2000/svg">
<rect width="256" height="256" fill="#232932"/>
<path opacity="0.56" fill-rule="evenodd" clip-rule="evenodd" d="M199.749 127.905L177.668 105.824L188.699 83.7554L224.574 119.63C226.768 121.825 228 124.801 228 127.905C228 131.008 226.768 133.985 224.574 136.18L180.418 180.329C178.205 182.434 175.257 183.591 172.204 183.553C169.15 183.515 166.231 182.285 164.072 180.126C161.912 177.966 160.682 175.048 160.644 171.994C160.606 168.94 161.763 165.992 163.868 163.779L199.749 127.905Z" fill="white"/>
<path fill-rule="evenodd" clip-rule="evenodd" d="M163.875 75.4292C164.962 74.342 166.252 73.4796 167.673 72.8912C169.093 72.3028 170.615 72 172.153 72C173.69 72 175.212 72.3028 176.633 72.8912C178.053 73.4796 179.344 74.342 180.431 75.4292L188.706 83.7104L92.1316 180.284C91.0446 181.371 89.7541 182.234 88.3337 182.822C86.9134 183.411 85.391 183.713 83.8536 183.713C82.3162 183.713 80.7939 183.411 79.3735 182.822C77.9532 182.234 76.6626 181.371 75.5756 180.284L67.3007 172.009L163.875 75.4292ZM122.488 105.785L105.925 122.341L83.8505 100.26L56.257 127.86L78.3318 149.935L67.3007 172.009L31.4261 136.135C29.2323 133.94 28 130.963 28 127.86C28 124.756 29.2323 121.78 31.4261 119.585L75.5756 75.4354C76.6627 74.3473 77.9537 73.4841 79.3746 72.8952C80.7955 72.3063 82.3186 72.0031 83.8567 72.0031C85.3949 72.0031 86.918 72.3063 88.3389 72.8952C89.7598 73.4841 91.0507 74.3473 92.1379 75.4354L122.488 105.785Z" fill="white"/>
</svg>
