<svg width="256" height="256" viewBox="0 0 256 256" fill="none" xmlns="http://www.w3.org/2000/svg">
<rect width="256" height="256" fill="#242932"/>
<g clip-path="url(#clip0_49_1336)">
<g opacity="0.7">
<path d="M93.9667 45.8519C91.4222 49.5995 89.4 53.9472 88.0676 58.8952C84.2369 73.1231 73.1231 84.2369 58.895 88.068C53.9469 89.4 49.5991 91.4223 45.8514 93.9671C40.5397 66.1837 66.1833 40.5402 93.9667 45.8519Z" fill="#FFD819"/>
<path d="M45.8519 93.9666C46.7025 98.4159 48.347 102.92 50.9037 107.361C58.2556 120.131 58.2556 135.848 50.9037 148.618C48.3469 153.059 46.7024 157.563 45.8519 162.012C22.4501 146.122 22.4501 109.857 45.8519 93.9666Z" fill="#FFE029"/>
<path d="M93.9667 210.127C91.4222 206.379 89.4 202.031 88.0676 197.083C84.2369 182.855 73.1231 171.742 58.895 167.911C53.9469 166.579 49.5991 164.556 45.8514 162.011C40.5397 189.795 66.1833 215.439 93.9667 210.127Z" fill="#FFC141"/>
<path d="M162.012 210.127C157.563 209.276 153.059 207.631 148.618 205.075C135.848 197.723 120.131 197.723 107.362 205.075C102.921 207.631 98.4164 209.276 93.9671 210.127C109.857 233.528 146.123 233.528 162.012 210.127Z" fill="#FFB655"/>
<path d="M210.128 162.012C206.38 164.557 202.032 166.579 197.084 167.911C182.856 171.742 171.743 182.856 167.912 197.084C166.58 202.032 164.557 206.38 162.012 210.127C189.796 215.439 215.439 189.795 210.128 162.012Z" fill="#FFB35B"/>
<path d="M210.128 93.967C209.277 98.4164 207.632 102.92 205.076 107.361C197.724 120.131 197.724 135.848 205.076 148.618C207.632 153.059 209.277 157.563 210.128 162.012C233.529 146.122 233.529 109.857 210.128 93.967Z" fill="#FFB656"/>
<path d="M162.012 45.8516C164.557 49.5992 166.58 53.947 167.912 58.895C171.743 73.1229 182.856 84.2367 197.084 88.0678C202.032 89.3998 206.38 91.4221 210.128 93.9665C215.439 66.1835 189.796 40.5403 162.012 45.8516Z" fill="#FFC042"/>
<path d="M93.9671 45.852C98.4164 46.7026 102.92 48.347 107.361 50.9038C120.131 58.2557 135.848 58.2557 148.618 50.9038C153.059 48.3471 157.563 46.7027 162.012 45.8521C146.122 22.4507 109.857 22.4507 93.9671 45.852Z" fill="#FFCE2A"/>
</g>
<path fill-rule="evenodd" clip-rule="evenodd" d="M88.0689 58.8949C89.4009 53.947 91.4231 49.5993 93.968 45.8517C98.4169 46.7023 102.921 48.3468 107.362 50.9034C120.132 58.2553 135.849 58.2553 148.618 50.9034C153.059 48.3467 157.564 46.7021 162.013 45.8516C164.558 49.5992 166.58 53.947 167.912 58.8949C171.743 73.1231 182.857 84.2369 197.085 88.0676C202.032 89.4 206.38 91.4218 210.128 93.9667C209.277 98.416 207.633 102.92 205.076 107.361C197.724 120.131 197.724 135.848 205.076 148.618C207.633 153.058 209.277 157.563 210.128 162.012C206.38 164.557 202.032 166.579 197.085 167.911C182.857 171.742 171.743 182.856 167.912 197.084C166.58 202.032 164.558 206.38 162.013 210.127C157.564 209.276 153.059 207.632 148.618 205.075C135.849 197.724 120.132 197.724 107.362 205.075C102.921 207.632 98.4169 209.276 93.968 210.127C91.4231 206.38 89.4009 202.032 88.0689 197.084C84.2378 182.856 73.124 171.742 58.896 167.911C53.948 166.579 49.6001 164.556 45.8524 162.012C46.7031 157.563 48.3475 153.058 50.9042 148.618C58.2561 135.848 58.2561 120.131 50.9042 107.361C48.3475 102.92 46.7031 98.4165 45.8524 93.9671C49.6001 91.4222 53.948 89.4 58.896 88.0676C73.124 84.2369 84.2378 73.1231 88.0689 58.8949Z" fill="url(#paint0_radial_49_1336)"/>
<path d="M172.492 149.42L169.014 143.397C168.054 141.733 165.927 141.163 164.263 142.124L164.263 142.124C162.6 143.084 162.03 145.211 162.99 146.875L166.468 152.898C167.428 154.562 169.555 155.132 171.219 154.171L171.219 154.171C172.882 153.211 173.452 151.084 172.492 149.42Z" fill="#FFA17A"/>
<path d="M163.798 149.421L160.32 143.397C159.36 141.733 157.233 141.164 155.569 142.124L155.569 142.124C153.906 143.084 153.336 145.211 154.296 146.875L157.774 152.899C158.735 154.562 160.862 155.132 162.525 154.172L162.525 154.172C164.189 153.211 164.758 151.084 163.798 149.421Z" fill="#FFA17A"/>
<path d="M102.066 149.42L98.5883 143.397C97.6279 141.733 95.5009 141.163 93.8374 142.124L93.8374 142.124C92.174 143.084 91.6041 145.211 92.5645 146.875L96.0423 152.898C97.0027 154.562 99.1297 155.132 100.793 154.171L100.793 154.171C102.457 153.211 103.026 151.084 102.066 149.42Z" fill="#FFAB89"/>
<path d="M93.3714 149.42L89.8936 143.397C88.9332 141.733 86.8062 141.163 85.1428 142.124L85.1428 142.124C83.4793 143.084 82.9094 145.211 83.8698 146.875L87.3476 152.898C88.308 154.562 90.435 155.132 92.0985 154.171L92.0985 154.171C93.7619 153.211 94.3318 151.084 93.3714 149.42Z" fill="#FFAB89"/>
<path d="M169.653 103.959L162.934 102.159C161.079 101.662 159.172 102.763 158.675 104.618L158.675 104.618C158.178 106.474 159.279 108.381 161.134 108.878L167.853 110.678C169.708 111.175 171.615 110.074 172.112 108.219C172.609 106.364 171.508 104.457 169.653 103.959Z" fill="#FFA17A"/>
<path d="M93.0789 102.159L86.3602 103.959C84.5049 104.457 83.4039 106.364 83.901 108.219L83.901 108.219C84.3981 110.074 86.3052 111.175 88.1605 110.678L94.8792 108.878C96.7345 108.381 97.8355 106.474 97.3384 104.618C96.8412 102.763 94.9342 101.662 93.0789 102.159Z" fill="#FFAB89"/>
<path d="M120.388 140.385C122.222 142.417 125.475 143.863 128.213 143.863C130.95 143.863 134.204 142.417 136.038 140.385" stroke="#8B2C0C" stroke-opacity="0.05" stroke-width="12" stroke-linecap="round"/>
<path d="M120.388 139.516C122.222 141.548 125.475 142.993 128.213 142.993C130.95 142.993 134.204 141.548 136.038 139.516" stroke="#D05B34" stroke-width="12" stroke-linecap="round"/>
<path d="M90.9496 120.809L86.0312 115.891C84.673 114.533 82.471 114.533 81.1128 115.891L81.1128 115.891C79.7546 117.249 79.7546 119.451 81.1128 120.809L86.0312 125.728C87.3894 127.086 89.5914 127.086 90.9496 125.728C92.3078 124.369 92.3078 122.167 90.9496 120.809Z" fill="black"/>
<path d="M106.476 128.213C106.476 121.01 100.637 115.171 93.4339 115.171C86.2311 115.171 80.392 121.01 80.392 128.213C80.392 135.415 86.2311 141.254 93.4339 141.254C100.637 141.254 106.476 135.415 106.476 128.213Z" fill="black"/>
<path d="M106.476 129.081C106.476 121.879 100.637 116.04 93.4339 116.04C86.2311 116.04 80.392 121.879 80.392 129.081C80.392 136.284 86.2311 142.123 93.4339 142.123C100.637 142.123 106.476 136.284 106.476 129.081Z" fill="black" fill-opacity="0.05"/>
<path fill-rule="evenodd" clip-rule="evenodd" d="M83.5938 131.689C85.0262 127.637 88.8907 124.734 93.4333 124.734C97.9764 124.734 101.841 127.638 103.273 131.691C101.841 135.742 97.976 138.645 93.4338 138.645C88.8907 138.645 85.0258 135.742 83.5938 131.689Z" fill="#784012"/>
<path fill-rule="evenodd" clip-rule="evenodd" d="M102.147 133.955C103.235 132.308 103.868 130.334 103.868 128.213C103.868 122.45 99.1969 117.779 93.4347 117.779C87.6724 117.779 83.0013 122.45 83.0013 128.213C83.0013 130.115 83.5102 131.898 84.3996 133.434C86.2667 130.608 89.4716 128.743 93.112 128.743C96.972 128.743 100.343 130.839 102.147 133.955Z" fill="black" fill-opacity="0.35"/>
<path d="M99.52 128.212C99.52 124.851 96.7951 122.126 93.4338 122.126C90.0725 122.126 87.3476 124.851 87.3476 128.212C87.3476 131.574 90.0725 134.299 93.4338 134.299C96.7951 134.299 99.52 131.574 99.52 128.212Z" fill="black"/>
<path d="M90.584 127.265C93.4651 127.265 95.8008 124.93 95.8008 122.049C95.8008 119.167 93.4651 116.832 90.584 116.832C87.7029 116.832 85.3672 119.167 85.3672 122.049C85.3672 124.93 87.7029 127.265 90.584 127.265Z" fill="white"/>
<path d="M100.377 131.782C101.817 131.782 102.985 130.614 102.985 129.173C102.985 127.733 101.817 126.565 100.377 126.565C98.9363 126.565 97.7685 127.733 97.7685 129.173C97.7685 130.614 98.9363 131.782 100.377 131.782Z" fill="white"/>
<path d="M97.1222 136.34C98.0826 136.34 98.8611 135.562 98.8611 134.601C98.8611 133.641 98.0826 132.863 97.1222 132.863C96.1618 132.863 95.3833 133.641 95.3833 134.601C95.3833 135.562 96.1618 136.34 97.1222 136.34Z" fill="white"/>
<path d="M170.481 125.728L175.399 120.81C176.757 119.451 176.757 117.249 175.399 115.891L175.399 115.891C174.041 114.533 171.839 114.533 170.481 115.891L165.562 120.81C164.204 122.168 164.204 124.37 165.562 125.728C166.92 127.086 169.122 127.086 170.481 125.728Z" fill="black"/>
<path d="M176.033 129.082C176.033 121.879 170.194 116.04 162.991 116.04C155.788 116.04 149.949 121.879 149.949 129.082C149.949 136.285 155.788 142.124 162.991 142.124C170.194 142.124 176.033 136.285 176.033 129.082Z" fill="black" fill-opacity="0.05"/>
<path d="M176.033 128.213C176.033 121.01 170.194 115.171 162.991 115.171C155.788 115.171 149.949 121.01 149.949 128.213C149.949 135.415 155.788 141.254 162.991 141.254C170.194 141.254 176.033 135.415 176.033 128.213Z" fill="black"/>
<path fill-rule="evenodd" clip-rule="evenodd" d="M153.168 131.738C154.517 127.537 158.456 124.498 163.104 124.498C167.629 124.498 171.481 127.379 172.927 131.406C171.578 135.606 167.64 138.646 162.992 138.646C158.466 138.646 154.614 135.765 153.168 131.738Z" fill="#784012"/>
<path fill-rule="evenodd" clip-rule="evenodd" d="M171.939 133.581C172.882 132.013 173.424 130.176 173.424 128.213C173.424 122.451 168.752 117.779 162.99 117.779C157.228 117.779 152.557 122.451 152.557 128.213C152.557 130.253 153.142 132.155 154.154 133.763C155.978 130.728 159.303 128.698 163.102 128.698C166.825 128.698 170.092 130.647 171.939 133.581Z" fill="black" fill-opacity="0.35"/>
<path d="M169.077 128.213C169.077 124.852 166.352 122.127 162.991 122.127C159.629 122.127 156.904 124.852 156.904 128.213C156.904 131.574 159.629 134.299 162.991 134.299C166.352 134.299 169.077 131.574 169.077 128.213Z" fill="black"/>
<path d="M160.141 127.265C163.022 127.265 165.358 124.93 165.358 122.049C165.358 119.167 163.022 116.832 160.141 116.832C157.26 116.832 154.925 119.167 154.925 122.049C154.925 124.93 157.26 127.265 160.141 127.265Z" fill="white"/>
<path d="M169.934 131.782C171.375 131.782 172.543 130.614 172.543 129.173C172.543 127.733 171.375 126.565 169.934 126.565C168.494 126.565 167.326 127.733 167.326 129.173C167.326 130.614 168.494 131.782 169.934 131.782Z" fill="white"/>
<path d="M166.68 136.34C167.64 136.34 168.418 135.562 168.418 134.601C168.418 133.641 167.64 132.863 166.68 132.863C165.719 132.863 164.941 133.641 164.941 134.601C164.941 135.562 165.719 136.34 166.68 136.34Z" fill="white"/>
</g>
<defs>
<radialGradient id="paint0_radial_49_1336" cx="0" cy="0" r="1" gradientUnits="userSpaceOnUse" gradientTransform="translate(45.7794 45.779) rotate(45) scale(232.395)">
<stop stop-color="#FFE600"/>
<stop offset="1" stop-color="#FFA573"/>
</radialGradient>
<clipPath id="clip0_49_1336">
<rect width="200" height="200" fill="white" transform="translate(28 28)"/>
</clipPath>
</defs>
</svg>
