<svg width="256" height="256" viewBox="0 0 256 256" fill="none" xmlns="http://www.w3.org/2000/svg">
<rect width="256" height="256" fill="#232932"/>
<g clip-path="url(#clip0_155_529)">
<path d="M68.7883 187.212L34.5727 152.996C30.5141 148.836 28 142.954 28 137.205C28 134.543 29.5 130.382 30.632 128L62.2156 62.2158L68.7883 187.212Z" fill="#01579B"/>
<path d="M185.903 68.7883L151.688 34.5727C148.703 31.5727 142.483 28 137.219 28C132.691 28 128.25 28.9117 125.383 30.632L62.2305 62.2156L185.903 68.7883ZM109.577 228H192.476V192.476L130.632 172.729L74.0523 192.476L109.577 228Z" fill="#40C4FF"/>
<path d="M62.2158 168.788C62.2158 179.345 63.5393 181.934 68.7885 187.212L74.0525 192.476H192.476L134.588 126.691L62.2158 62.2148V168.789V168.788Z" fill="#29B6F6"/>
<path d="M167.48 62.2007H62.2158L192.476 192.461H228V110.885L185.888 68.7733C179.978 62.8476 174.728 62.2007 167.48 62.2007Z" fill="#01579B"/>
<path opacity="0.2" d="M70.1116 188.52C64.8475 183.242 63.5389 178.037 63.5389 168.788V63.5234L62.2303 62.2148V168.787C62.2147 178.036 62.2147 180.595 70.1116 188.52V188.52Z" fill="white"/>
<path opacity="0.2" d="M226.691 109.577V191.152H191.167L192.476 192.476H228V110.885L226.691 109.577Z" fill="#263238"/>
<path opacity="0.2" d="M185.903 68.7885C179.375 62.2596 174.037 62.2158 166.171 62.2158H62.2305L63.5391 63.5244H166.171C170.097 63.5244 180.007 62.8627 185.903 68.7885Z" fill="white"/>
<path opacity="0.2" d="M226.691 109.577L185.903 68.7875L151.688 34.5734C148.703 31.5727 142.483 28 137.219 28C132.691 28 128.25 28.9117 125.383 30.632L62.2306 62.2156L30.647 128C29.5142 130.397 28.0142 134.558 28.0142 137.205C28.0142 142.954 30.5438 148.82 34.5876 152.996L66.1118 184.301C66.8618 185.227 67.7446 186.168 68.7884 187.212L70.097 188.52L74.0376 192.461L108.253 226.677L109.562 227.985H192.445V192.462H227.97V110.884L226.691 109.576L226.691 109.577Z" fill="url(#paint0_radial_155_529)"/>
</g>
<defs>
<radialGradient id="paint0_radial_155_529" cx="0" cy="0" r="1" gradientUnits="userSpaceOnUse" gradientTransform="translate(10025.8 10026.2) scale(9998.57 9998.56)">
<stop stop-color="white" stop-opacity="0.1"/>
<stop offset="1" stop-color="white" stop-opacity="0"/>
</radialGradient>
<clipPath id="clip0_155_529">
<rect width="200" height="200" fill="white" transform="translate(28 28)"/>
</clipPath>
</defs>
</svg>
