<svg width="256" height="256" viewBox="0 0 256 256" fill="none" xmlns="http://www.w3.org/2000/svg">
<rect width="256" height="256" fill="#A80030"/>
<path d="M143.275 133.517C140.048 133.561 143.886 135.178 148.098 135.828C149.195 134.972 150.249 134.064 151.259 133.108C148.636 133.748 145.967 133.762 143.275 133.517ZM160.597 129.2C162.517 126.548 163.92 123.644 164.412 120.641C163.981 122.78 162.82 124.63 161.725 126.58C155.694 130.378 161.158 124.325 161.722 122.023C155.237 130.187 160.831 126.919 160.597 129.2ZM166.992 112.562C167.381 106.75 165.847 108.587 165.331 110.805C165.931 111.119 166.409 114.901 166.992 112.562ZM131.037 33.1296C132.759 33.439 134.758 33.6765 134.478 34.0858C136.362 33.6749 136.791 33.2952 131.037 33.1296ZM134.478 34.0858L133.261 34.339L134.394 34.239L134.478 34.0858ZM188.184 114.766C188.376 119.984 186.656 122.517 185.108 126.998L182.317 128.392C180.036 132.826 182.539 131.208 180.906 134.734C177.342 137.901 170.092 144.648 167.772 145.262C166.078 145.226 168.919 143.266 169.291 142.495C164.522 145.773 165.464 147.412 158.169 149.405L157.956 148.928C139.962 157.392 114.972 140.619 115.301 117.731C115.109 119.186 114.756 118.82 114.356 119.409C113.428 107.633 119.795 95.8046 130.533 90.978C141.036 85.7765 153.348 87.9108 160.872 94.9218C156.741 89.5077 148.514 83.7702 138.766 84.3077C129.217 84.4593 120.284 90.5265 117.305 97.114C112.411 100.195 111.844 108.989 109.712 110.595C106.845 131.675 115.108 140.78 129.084 151.494C131.283 152.976 129.703 153.201 130.001 154.33C125.358 152.155 121.105 148.872 117.609 144.853C119.462 147.57 121.466 150.211 124.055 152.284C119.675 150.801 113.826 141.675 112.117 141.303C119.667 154.817 142.741 165.005 154.825 159.951C149.233 160.156 142.131 160.066 135.848 157.744C133.211 156.386 129.623 153.573 130.264 153.045C146.753 159.208 163.789 157.714 178.055 146.275C181.684 143.447 185.65 138.639 186.795 138.572C185.069 141.167 187.089 139.822 185.764 142.112C189.383 136.28 184.194 139.736 189.505 132.037L191.467 134.739C190.737 129.898 197.48 124.019 196.795 116.361C198.342 114.019 198.52 118.88 196.88 124.269C199.156 118.292 197.48 117.331 198.066 112.398C198.697 114.058 199.526 115.817 199.953 117.567C198.469 111.792 201.476 107.839 202.219 104.484C201.489 104.159 199.931 107.037 199.575 100.216C199.628 97.253 200.4 98.664 200.697 97.9343C200.114 97.5983 198.589 95.328 197.659 90.9718C198.333 89.9483 199.458 93.6249 200.376 93.7765C199.786 90.3124 198.77 87.6718 198.731 85.0124C196.055 79.4202 197.784 85.7593 195.612 82.6124C192.764 73.7265 197.976 80.5499 198.328 76.514C202.645 82.7686 205.108 92.464 206.237 96.478C205.375 91.5827 203.983 86.8405 202.281 82.2515C203.592 82.8046 200.169 72.1796 203.986 79.2155C199.909 64.2155 186.539 50.2015 174.239 43.6249C175.742 45.0015 177.644 46.7327 176.962 47.003C170.845 43.3608 171.92 43.0765 171.045 41.5374C166.061 39.5108 165.734 41.6999 162.434 41.5421C153.041 36.5608 151.23 37.089 142.586 33.9671L142.98 35.8062C136.755 33.7327 135.728 36.5921 129.003 35.8124C128.592 35.4921 131.158 34.6562 133.269 34.3483C127.253 35.1421 127.534 33.1624 121.647 34.5671C123.098 33.5499 124.63 32.8765 126.178 32.0093C121.273 32.3077 114.467 34.8655 116.567 32.539C108.566 36.1108 94.3515 41.1218 86.3765 48.6015L86.1249 46.9249C82.4702 51.314 70.1874 60.0296 69.2093 65.7093L68.2327 65.9374C66.3296 69.1562 65.1015 72.8061 63.5921 76.1202C61.1046 80.3593 59.9452 77.7515 60.2999 78.4155C55.4062 88.3358 52.9765 96.6702 50.878 103.505C52.3749 105.742 50.9124 116.964 51.4796 125.948C49.0233 170.314 82.6171 213.389 119.339 223.337C124.722 225.259 132.725 225.187 139.533 225.386C131.5 223.087 130.461 224.17 122.637 221.441C116.991 218.783 115.755 215.747 111.756 212.278L113.341 215.075C105.498 212.301 108.781 211.641 102.4 209.62L104.092 207.414C101.55 207.222 97.3593 203.133 96.214 200.866L93.4343 200.975C90.0937 196.853 88.314 193.884 88.4436 191.583L87.5452 193.183C86.5265 191.434 75.2562 177.725 81.103 180.917C80.0155 179.922 78.5718 179.3 77.0062 176.455L78.1968 175.094C75.3812 171.475 73.0171 166.833 73.1968 165.287C74.6968 167.316 75.739 167.694 76.7702 168.042C69.664 150.409 69.2655 167.07 63.8827 150.094L65.0218 150.001C64.1483 148.686 63.6187 147.258 62.9171 145.858L63.4108 140.919C58.2952 135.003 61.9796 115.766 62.7187 105.214C63.2312 100.923 66.989 96.3561 69.8483 89.1952L68.1077 88.8952C71.4374 83.0874 87.1187 65.5702 94.3812 66.4718C97.8983 62.0515 93.6843 66.4546 92.9968 65.3421C100.723 57.3436 103.153 59.6905 108.369 58.253C113.994 54.914 103.542 59.5546 106.208 56.9796C115.931 54.4968 113.098 51.3343 125.783 50.0733C127.122 50.8343 122.678 51.2483 121.562 52.2374C129.664 48.2749 147.2 49.1765 158.589 54.4374C171.805 60.6124 186.653 78.8718 187.239 96.0483L187.906 96.2265C187.569 103.055 188.951 110.951 186.555 118.205L188.184 114.766ZM108.051 137.947L107.598 140.209C109.719 143.092 111.403 146.214 114.109 148.464C112.162 144.661 110.714 143.089 108.051 137.947ZM113.064 137.75C111.942 136.508 111.276 135.014 110.533 133.525C111.245 136.142 112.701 138.391 114.056 140.678L113.064 137.75ZM201.791 118.464L201.316 119.655C200.442 125.906 198.542 131.97 195.692 137.603C198.854 131.64 200.919 125.157 201.791 118.464ZM131.676 31.5827C133.858 30.7812 137.041 31.1437 139.355 30.6187C136.339 30.8718 133.336 31.0233 130.37 31.4046L131.676 31.5827ZM55.0718 72.3155C55.5749 76.9702 51.5687 78.7765 55.9577 75.7077C58.3108 70.4108 55.039 74.2468 55.0718 72.3155ZM49.914 93.8593C50.9233 90.7562 51.1077 88.8905 51.4937 87.0968C48.6999 90.6671 50.2077 91.4296 49.914 93.8593Z" fill="white"/>
</svg>
