<svg width="256" height="256" viewBox="0 0 256 256" fill="none" xmlns="http://www.w3.org/2000/svg">
<rect width="256" height="256" fill="#1DA3EE"/>
<g clip-path="url(#clip0_167_107)">
<path d="M162.2 33.7999C147.833 28.5499 133.117 27.1332 118.825 28.4665C102.258 29.7749 94.1749 34.8999 94.6582 33.9749C67.5665 43.6415 44.6582 64.4499 34.0582 93.6165C15.1749 145.567 41.9249 203.017 93.7915 221.933C145.692 240.85 203.05 214.058 221.942 162.108C240.833 110.167 214.083 52.7165 162.2 33.7999ZM97.2082 212.542C91.7964 210.526 86.5871 208.004 81.6499 205.008C105.817 206.867 137.367 201.3 158.642 181.392C158.642 181.392 199.192 148.992 169.85 95.8165C169.85 95.8165 174.583 117.25 168.55 134.875C168.55 134.875 162.8 158.85 137.242 165.808C99.5999 176.067 56.7082 149.725 38.7749 136.95C37.4249 123.833 38.6249 110.283 43.4415 97.0499C50.5665 77.4499 63.9665 62.1499 80.3332 51.8832C76.2499 80.5165 79.4832 106.883 84.1332 117.925C90.3749 132.733 101.217 150.008 122.383 152.217C143.55 154.442 155.217 134.633 155.217 134.633C166.083 118.133 167.783 94.4415 167.617 93.8665C167.45 93.2832 164.725 91.7249 164.725 91.7249C157.417 121.3 145.367 131.175 145.367 131.175C126.367 149.517 112.908 136.8 112.908 136.8C98.4415 121.258 108.575 96.0082 108.575 96.0082C114.242 78.8082 130.742 53.6415 149.45 40.8415C152.567 41.6082 155.7 42.0915 158.783 43.2082C169.738 47.2134 179.8 53.3289 188.4 61.2082C174.725 66.1999 152.642 76.7499 152.642 76.7499C117.633 91.4999 115.267 113.8 115.267 113.8C111.642 136.783 129.883 127.05 129.883 127.05C148.65 117.908 157.875 89.4165 157.875 89.4165C152.017 88.2999 147.4 90.0832 147.4 90.0832C139.908 108.583 124.625 116.183 124.625 116.183C118.608 119.367 117.208 113.742 117.208 113.742C116.192 109.525 121.558 108.808 121.558 108.808C129.892 105.567 135.217 96.8165 136.425 93.2415C137.625 89.6582 139.858 89.3749 139.858 89.3749C146.961 87.1428 154.274 85.6488 161.683 84.9165C175.85 83.1749 197.542 89.9332 197.542 89.9332C202.408 91.8915 207.075 93.3499 211.217 94.5249C219.167 114.392 220.425 137.008 212.55 158.692C195.558 205.442 143.917 229.558 97.2082 212.542Z" fill="white"/>
</g>
<defs>
<clipPath id="clip0_167_107">
<rect width="200" height="200" fill="white" transform="translate(28 28)"/>
</clipPath>
</defs>
</svg>
