<svg width="256" height="256" viewBox="0 0 256 256" fill="none" xmlns="http://www.w3.org/2000/svg">
<rect width="256" height="256" fill="#0A00FF"/>
<path d="M177.585 85V96.6356H157.167V108.271H177.585V119.907H157.167V148.996H177.585V160.631H90.0849V148.996H109.333V119.907H93V108.271H122.167V148.996H144.333V119.907H130.918V108.271H144.333V103.037C144.333 93.0921 152.45 85 162.418 85H177.585ZM115.758 85C121.722 85 123.924 88.652 123.924 93.148C123.921 97.3616 121.986 100.831 116.831 101.246L115.758 101.287C109.8 101.287 107.594 97.6409 107.591 93.1449C107.591 88.6489 109.797 85 115.758 85Z" fill="white"/>
<path d="M195.816 108.271L207.483 146.088L219.149 108.271H233L212.065 166.154C209.492 173.287 202.654 178.084 195.054 178.084H186.333V166.449H192.263C197.667 166.449 200.641 162.285 198.88 157.193L181.962 108.271H195.816ZM47.7924 85C78.4182 85 87.1636 102.453 87.1636 122.817C87.1636 143.178 78.4151 160.631 47.7924 160.631H23V85H47.7924ZM37.0031 96.6356V148.996H48.0818C65.6938 148.996 73.1667 140.379 73.1667 122.817C73.1667 105.252 65.6938 96.6356 48.0818 96.6356H37.0031Z" fill="white"/>
</svg>
