<svg width="256" height="256" viewBox="0 0 256 256" fill="none" xmlns="http://www.w3.org/2000/svg">
<rect width="256" height="256" fill="#242932"/>
<path d="M161.755 28C161.755 49.641 157.066 66.5574 149.552 79.8869C142.036 93.2163 131.258 104.905 119.537 117.378C107.817 129.851 95.1545 143.102 85.0895 160.955C75.0245 178.808 68 199.748 68 228H93.8922C93.8922 206.358 98.5926 190.18 106.107 176.852C113.623 163.522 124.4 151.833 136.12 139.36C147.841 126.887 160.502 113.636 170.569 95.783C180.634 77.9303 187.656 56.2504 187.656 28H161.755Z" fill="#E96020"/>
<path d="M92.1815 197.826C88.6796 197.824 86.5581 201.448 86.5581 205.916C86.5581 210.385 88.6796 214.009 92.1815 214.007H163.477C166.977 214.009 169.817 210.385 169.815 205.916C169.817 201.448 166.977 197.824 163.477 197.826H92.1815Z" fill="#E7E7E7"/>
<path d="M99.6824 169.154C96.3324 169.156 94.4249 173.078 94.4286 177.354C94.4305 181.625 96.3361 184.634 99.6824 184.636H155.976C159.32 184.634 162.032 181.173 162.034 176.902C162.038 172.626 159.326 169.156 155.976 169.154H99.6824Z" fill="#E7E7E7"/>
<path d="M99.6824 73.5369C96.3324 73.5384 93.6183 77.0088 93.6239 81.2852C93.6239 85.5562 96.3362 89.0181 99.6824 89.0196H155.976C159.32 89.0181 161.228 84.8137 161.23 80.5426C161.233 76.2662 159.326 73.5384 155.976 73.5369H99.6824Z" fill="#E7E7E7"/>
<path d="M92.1815 43.7393C88.6852 43.7378 85.8473 47.353 85.8435 51.8171C85.8416 56.2867 88.6796 59.9104 92.1815 59.9089H163.477C166.977 59.9104 169.1 56.4079 169.098 51.9383C169.094 47.4741 166.973 43.7378 163.477 43.7393H92.1815Z" fill="#E7E7E7"/>
<path d="M68 28C68 56.2504 75.0245 77.9303 85.0895 95.783C95.1545 113.636 107.817 126.887 119.537 139.36C131.258 151.833 142.036 165.076 149.552 178.405C157.066 191.735 161.755 206.358 161.755 228H187.656C187.656 199.748 180.634 178.497 170.569 160.644C160.502 142.791 147.841 129.54 136.12 117.067C124.4 104.594 113.623 92.9053 106.107 79.5761C98.5926 66.2466 93.8922 49.641 93.8922 28H68Z" fill="#00A8D6"/>
</svg>
