<svg width="256" height="256" viewBox="0 0 256 256" fill="none" xmlns="http://www.w3.org/2000/svg">
<g clip-path="url(#clip0_199_172)">
<rect width="256" height="256" fill="#232932"/>
<path d="M256 -0.640137H0V256.64H256V-0.640137Z" fill="#6644FF"/>
<path d="M0 213.637V-0.640137H256V256.64H246.87C236.215 250.904 220.464 244.23 198.146 238.645C176.634 233.262 144.773 230.684 110.905 227.943C72.4538 224.831 31.4155 221.509 0 213.637Z" fill="#754DFC"/>
<path d="M0 157.213V-0.640137H256V215.637C246.87 208.806 228.749 197.976 197.13 188.914C175.816 182.805 144.06 179.147 110.305 175.258C72.0005 170.846 31.1205 166.136 0 157.213Z" fill="#8555F8"/>
<path d="M0 95.7345V-0.640137H256V164.946C248.061 158.072 230.054 145.396 195.805 134.271C174.717 127.421 143.108 122.656 109.509 117.591C71.4227 111.849 30.7785 105.721 0 95.7345Z" fill="#945EF5"/>
<path d="M256 -0.640137V117.236C248.987 110.608 231.173 96.7273 195.003 84.2763C174.037 77.0592 142.517 71.7424 109.011 66.0905C71.0723 59.691 30.588 52.8621 0 42.3592V-0.640137H256Z" fill="#A366F1"/>
<path d="M42.74 -0.640137H256V68.9538C252.118 64.4927 235.297 47.4987 192.846 32.0514C172.01 24.4692 140.587 18.6025 107.185 12.3662C85.7605 8.36619 63.5217 4.21415 42.74 -0.640137Z" fill="#B36EEE"/>
<g filter="url(#filter0_dd_199_172)">
<path fill-rule="evenodd" clip-rule="evenodd" d="M187.928 144.118C187 143.886 186.226 143.654 185.53 143.344C185.016 143.115 184.586 142.844 184.209 142.53C183.959 142.322 183.851 141.993 183.882 141.669C184.255 137.779 183.845 134.348 184.215 130.491C185.762 114.851 195.586 119.806 204.404 117.251C209.468 115.824 214.531 113.013 216.382 107.486C216.685 106.581 216.418 105.598 215.788 104.881C210.012 98.3069 203.617 92.4981 196.669 87.52C173.375 70.9191 143.101 64.0256 115.299 68.058C114.246 68.2107 113.694 69.3787 114.269 70.2747C117.79 75.7594 122.436 80.2478 127.763 83.5514C128.731 84.1518 128.342 85.4487 127.231 85.1992C124.618 84.613 121.261 83.4695 118.104 81.2394C117.8 81.0246 117.408 80.9703 117.062 81.1085C115.651 81.6718 113.613 82.4842 111.928 83.212C110.959 83.631 110.761 84.8823 111.559 85.5748C125.524 97.6908 145.838 99.5325 161.745 89.8367C162.714 89.2461 164.265 90.4599 163.953 91.5516C163.453 93.3008 162.869 95.7049 162.248 98.9789C158.303 118.955 146.932 117.406 132.854 112.374C104.724 102.168 88.765 110.883 74.5765 93.6319C73.5907 92.4331 71.8577 92.0176 70.685 93.0337C67.756 95.572 66.0225 99.277 66.0225 103.237C66.0225 107.928 68.4415 111.946 72.027 114.351C72.4755 114.652 73.0715 114.525 73.406 114.101C74.2797 112.994 74.9945 112.26 75.8845 111.796C76.8585 111.288 77.3337 112.683 76.5112 113.412C73.4977 116.083 72.633 119.264 70.6637 125.536C67.5695 135.369 68.8845 145.434 54.4197 148.067C46.762 148.454 46.9167 153.641 44.132 161.384C40.9002 170.729 36.6685 174.868 28.8362 183.035C27.7652 184.151 27.6732 185.937 28.8505 186.942C31.979 189.611 35.2055 189.757 38.4855 188.405C46.6072 184.999 52.8727 174.469 58.7515 167.655C65.3265 160.068 81.106 163.319 93.0182 155.887C99.4425 151.944 103.302 146.907 102.068 139.362C101.869 138.147 103.258 137.416 103.762 138.54C104.719 140.673 105.346 142.948 105.606 145.298C105.675 145.915 106.225 146.37 106.843 146.336C119.731 145.61 136.398 159.839 151.973 163.689C152.92 163.923 153.594 162.828 153.058 162.012C152.073 160.509 151.235 158.951 150.568 157.358C149.879 155.703 149.357 154.097 148.988 152.548C148.699 151.336 150.468 151.01 151.072 152.1C155.066 159.307 163.049 166.074 174.16 166.881C177.95 167.191 182.127 166.726 186.459 165.41C191.641 163.862 196.437 161.848 202.161 162.933C206.415 163.707 210.36 165.874 212.835 169.514C216.309 174.584 223.641 175.927 227.548 170.628C228.08 169.907 228.125 168.943 227.773 168.119C219.169 147.931 197.32 146.544 187.928 144.118Z" fill="white"/>
</g>
</g>
<defs>
<filter id="filter0_dd_199_172" x="-32" y="18.9341" width="320" height="242.309" filterUnits="userSpaceOnUse" color-interpolation-filters="sRGB">
<feFlood flood-opacity="0" result="BackgroundImageFix"/>
<feColorMatrix in="SourceAlpha" type="matrix" values="0 0 0 0 0 0 0 0 0 0 0 0 0 0 0 0 0 0 127 0" result="hardAlpha"/>
<feOffset dy="12"/>
<feGaussianBlur stdDeviation="30"/>
<feColorMatrix type="matrix" values="0 0 0 0 0.0901961 0 0 0 0 0.160784 0 0 0 0 0.25098 0 0 0 0.1 0"/>
<feBlend mode="normal" in2="BackgroundImageFix" result="effect1_dropShadow_199_172"/>
<feColorMatrix in="SourceAlpha" type="matrix" values="0 0 0 0 0 0 0 0 0 0 0 0 0 0 0 0 0 0 127 0" result="hardAlpha"/>
<feOffset dy="16"/>
<feColorMatrix type="matrix" values="0 0 0 0 0.0901961 0 0 0 0 0.160784 0 0 0 0 0.25098 0 0 0 0.1 0"/>
<feBlend mode="normal" in2="effect1_dropShadow_199_172" result="effect2_dropShadow_199_172"/>
<feBlend mode="normal" in="SourceGraphic" in2="effect2_dropShadow_199_172" result="shape"/>
</filter>
<clipPath id="clip0_199_172">
<rect width="256" height="256" fill="white"/>
</clipPath>
</defs>
</svg>
