<svg width="256" height="256" viewBox="0 0 256 256" fill="none" xmlns="http://www.w3.org/2000/svg">
<rect width="256" height="256" fill="#44B78B"/>
<path d="M111.167 30H144.208V181.408C130.104 184.303 115.748 185.796 101.35 185.867C61 185.825 40 167.8 40 133.183C40 99.85 62.275 78.1833 96.8 78.1833C101.642 78.0889 106.475 78.6495 111.167 79.85V30ZM111.167 106.183C107.575 104.998 103.807 104.435 100.025 104.517C83.3583 104.517 73.6667 114.708 73.6667 132.567C73.6667 149.958 82.8917 159.558 99.8167 159.558C103.615 159.557 107.409 159.279 111.167 158.725V106.225V106.183Z" fill="white"/>
<path d="M196.708 80.4915V156.325C196.708 182.433 194.75 194.983 189.017 205.808C183.165 216.815 173.597 225.388 162.017 230L131.367 215.558C142.502 211.745 151.828 203.939 157.542 193.65C162.258 184.308 163.75 173.483 163.75 145.008V80.4915H196.708ZM163.717 30.1665H196.75V63.7332H163.717V30.1665Z" fill="white"/>
</svg>
