<svg width="256" height="256" viewBox="0 0 256 256" fill="none" xmlns="http://www.w3.org/2000/svg">
<rect width="256" height="256" fill="#232932"/>
<path fill-rule="evenodd" clip-rule="evenodd" d="M127 80H211V114H127V80Z" fill="white"/>
<path fill-rule="evenodd" clip-rule="evenodd" d="M51 191C43.602 191 37.157 186.973 33.697 181C31.9305 184.037 30.9999 187.487 31 191C31 202.046 39.954 211 51 211H71V191H51Z" fill="#3ECC5F"/>
<path fill-rule="evenodd" clip-rule="evenodd" d="M140.98 85.3758L211 80.9998V70.9998C211 59.9538 202.046 50.9998 191 50.9998H101L98.5001 46.6698C97.3881 44.7448 94.6111 44.7448 93.5001 46.6698L91.0001 50.9998L88.5001 46.6698C87.3891 44.7448 84.6111 44.7448 83.5001 46.6698L81.0001 50.9998L78.5001 46.6698C77.3891 44.7448 74.6111 44.7448 73.5001 46.6698L71.0001 50.9998C70.9781 50.9998 70.9581 51.0028 70.9351 51.0028L66.7931 46.8618C65.2231 45.2908 62.5411 46.0088 61.9651 48.1558L60.5961 53.2598L55.4041 51.8678C53.2561 51.2928 51.2931 53.2568 51.8691 55.4038L53.2591 60.5968L48.1571 61.9638C46.0091 62.5398 45.2901 65.2228 46.8611 66.7938L51.0031 70.9358C51.0031 70.9568 51.0001 70.9778 51.0001 70.9998L46.6701 73.4998C44.7451 74.6108 44.7451 77.3888 46.6701 78.4998L51.0001 80.9998L46.6701 83.4998C44.7451 84.6108 44.7451 87.3888 46.6701 88.4998L51.0001 90.9998L46.6701 93.4998C44.7451 94.6108 44.7451 97.3888 46.6701 98.4998L51.0001 101L46.6701 103.5C44.7451 104.611 44.7451 107.389 46.6701 108.5L51.0001 111L46.6701 113.5C44.7451 114.611 44.7451 117.389 46.6701 118.5L51.0001 121L46.6701 123.5C44.7451 124.611 44.7451 127.389 46.6701 128.5L51.0001 131L46.6701 133.5C44.7451 134.611 44.7451 137.389 46.6701 138.5L51.0001 141L46.6701 143.5C44.7451 144.611 44.7451 147.389 46.6701 148.5L51.0001 151L46.6701 153.5C44.7451 154.611 44.7451 157.389 46.6701 158.5L51.0001 161L46.6701 163.5C44.7451 164.611 44.7451 167.389 46.6701 168.5L51.0001 171L46.6701 173.5C44.7451 174.611 44.7451 177.389 46.6701 178.5L51.0001 181L46.6701 183.5C44.7451 184.611 44.7451 187.389 46.6701 188.5L51.0001 191C51.0001 202.046 59.9541 211 71.0001 211H191C202.046 211 211 202.046 211 191V111L140.98 106.624C138.277 106.455 135.741 105.262 133.886 103.288C132.032 101.314 131 98.7079 131 95.9998C131 90.3788 135.37 85.7268 140.98 85.3758Z" fill="#3ECC5F"/>
<path fill-rule="evenodd" clip-rule="evenodd" d="M171 211H201V171H171V211Z" fill="#3ECC5F"/>
<path fill-rule="evenodd" clip-rule="evenodd" d="M221 186C220.781 186 220.572 186.037 220.361 186.064C220.323 185.914 220.287 185.763 220.245 185.613C221.311 185.167 222.189 184.367 222.731 183.347C223.273 182.327 223.446 181.151 223.219 180.018C222.992 178.886 222.38 177.867 221.487 177.134C220.594 176.402 219.475 176.001 218.32 176C217.228 176.004 216.168 176.368 215.304 177.036C215.193 176.923 215.082 176.811 214.969 176.7C215.622 175.841 215.977 174.792 215.98 173.713C215.979 172.561 215.581 171.445 214.852 170.552C214.123 169.66 213.109 169.047 211.98 168.817C210.851 168.587 209.677 168.753 208.657 169.288C207.637 169.823 206.833 170.694 206.381 171.754C206.233 171.712 206.084 171.677 205.936 171.639C205.963 171.428 206 171.219 206 171C206 169.674 205.473 168.402 204.536 167.464C203.598 166.527 202.326 166 201 166C199.674 166 198.402 166.527 197.464 167.464C196.527 168.402 196 169.674 196 171C196 171.219 196.037 171.428 196.064 171.639C195.916 171.677 195.767 171.712 195.619 171.754C195.169 170.692 194.365 169.819 193.344 169.282C192.323 168.746 191.149 168.578 190.019 168.809C188.889 169.04 187.873 169.654 187.144 170.548C186.416 171.441 186.018 172.56 186.02 173.713C186.02 174.838 186.404 175.864 187.031 176.7C183.314 180.332 181 185.393 181 191C181 202.046 189.954 211 201 211C210.339 211 218.16 204.59 220.361 195.936C220.572 195.963 220.781 196 221 196C222.326 196 223.598 195.473 224.536 194.536C225.473 193.598 226 192.326 226 191C226 189.674 225.473 188.402 224.536 187.464C223.598 186.527 222.326 186 221 186Z" fill="#44D860"/>
<path fill-rule="evenodd" clip-rule="evenodd" d="M181 151H211V131H181V151Z" fill="#3ECC5F"/>
<path fill-rule="evenodd" clip-rule="evenodd" d="M221 143.5C221.663 143.5 222.299 143.236 222.768 142.767C223.237 142.299 223.5 141.663 223.5 141C223.5 140.337 223.237 139.701 222.768 139.232C222.299 138.763 221.663 138.5 221 138.5C220.891 138.5 220.786 138.519 220.681 138.532C220.661 138.457 220.644 138.382 220.623 138.307C221.155 138.083 221.594 137.683 221.864 137.173C222.135 136.663 222.22 136.075 222.107 135.509C221.994 134.943 221.688 134.434 221.242 134.068C220.796 133.702 220.237 133.501 219.66 133.5C219.091 133.5 218.572 133.697 218.152 134.018C218.097 133.961 218.041 133.905 217.984 133.85C218.298 133.433 218.49 132.919 218.49 132.356C218.49 131.779 218.291 131.221 217.926 130.775C217.562 130.329 217.054 130.022 216.49 129.907C215.925 129.792 215.338 129.875 214.828 130.143C214.318 130.411 213.916 130.847 213.69 131.377C212.815 131.129 211.91 131.002 211 131C205.478 131 201 135.478 201 141C201 146.522 205.478 151 211 151C211.934 151 212.833 150.862 213.69 150.623C213.916 151.153 214.318 151.589 214.828 151.856C215.338 152.124 215.925 152.208 216.49 152.092C217.054 151.977 217.562 151.671 217.926 151.224C218.291 150.778 218.49 150.22 218.49 149.644C218.49 149.081 218.298 148.567 217.984 148.15C218.041 148.095 218.097 148.039 218.152 147.982C218.572 148.303 219.091 148.5 219.66 148.5C220.238 148.5 220.798 148.299 221.245 147.933C221.691 147.567 221.998 147.057 222.111 146.491C222.225 145.924 222.138 145.336 221.867 144.826C221.596 144.316 221.156 143.915 220.623 143.693C220.644 143.619 220.661 143.543 220.681 143.468C220.786 143.481 220.891 143.5 221 143.5Z" fill="#44D860"/>
<path fill-rule="evenodd" clip-rule="evenodd" d="M91 83.5C90.337 83.5 89.7011 83.2366 89.2322 82.7678C88.7634 82.2989 88.5 81.663 88.5 81C88.5 76.864 85.136 73.5 81 73.5C76.864 73.5 73.5 76.864 73.5 81C73.5 81.663 73.2366 82.2989 72.7678 82.7678C72.2989 83.2366 71.663 83.5 71 83.5C70.337 83.5 69.7011 83.2366 69.2322 82.7678C68.7634 82.2989 68.5 81.663 68.5 81C68.5 74.107 74.107 68.5 81 68.5C87.893 68.5 93.5 74.107 93.5 81C93.5 81.663 93.2366 82.2989 92.7678 82.7678C92.2989 83.2366 91.663 83.5 91 83.5Z" fill="black"/>
<path fill-rule="evenodd" clip-rule="evenodd" d="M131 211H191C202.046 211 211 202.046 211 191V121H151C139.954 121 131 129.954 131 141V211Z" fill="#FFFF50"/>
<path fill-rule="evenodd" clip-rule="evenodd" d="M196.02 152H145.98C145.715 152 145.46 151.894 145.273 151.707C145.085 151.519 144.98 151.265 144.98 151C144.98 150.734 145.085 150.48 145.273 150.292C145.46 150.105 145.715 150 145.98 150H196.02C196.285 150 196.539 150.105 196.727 150.292C196.915 150.48 197.02 150.734 197.02 151C197.02 151.265 196.915 151.519 196.727 151.707C196.539 151.894 196.285 152 196.02 152ZM196.02 172H145.98C145.715 172 145.46 171.894 145.273 171.707C145.085 171.519 144.98 171.265 144.98 171C144.98 170.734 145.085 170.48 145.273 170.292C145.46 170.105 145.715 170 145.98 170H196.02C196.285 170 196.539 170.105 196.727 170.292C196.915 170.48 197.02 170.734 197.02 171C197.02 171.265 196.915 171.519 196.727 171.707C196.539 171.894 196.285 172 196.02 172ZM196.02 192H145.98C145.715 192 145.46 191.894 145.273 191.707C145.085 191.519 144.98 191.265 144.98 191C144.98 190.734 145.085 190.48 145.273 190.292C145.46 190.105 145.715 190 145.98 190H196.02C196.285 190 196.539 190.105 196.727 190.292C196.915 190.48 197.02 190.734 197.02 191C197.02 191.265 196.915 191.519 196.727 191.707C196.539 191.894 196.285 192 196.02 192ZM196.02 142.186H145.98C145.715 142.186 145.46 142.08 145.273 141.893C145.085 141.705 144.98 141.451 144.98 141.186C144.98 140.92 145.085 140.666 145.273 140.478C145.46 140.291 145.715 140.186 145.98 140.186H196.02C196.285 140.186 196.539 140.291 196.727 140.478C196.915 140.666 197.02 140.92 197.02 141.186C197.02 141.451 196.915 141.705 196.727 141.893C196.539 142.08 196.285 142.186 196.02 142.186ZM196.02 162H145.98C145.715 162 145.46 161.894 145.273 161.707C145.085 161.519 144.98 161.265 144.98 161C144.98 160.734 145.085 160.48 145.273 160.292C145.46 160.105 145.715 160 145.98 160H196.02C196.285 160 196.539 160.105 196.727 160.292C196.915 160.48 197.02 160.734 197.02 161C197.02 161.265 196.915 161.519 196.727 161.707C196.539 161.894 196.285 162 196.02 162ZM196.02 182H145.98C145.715 182 145.46 181.894 145.273 181.707C145.085 181.519 144.98 181.265 144.98 181C144.98 180.734 145.085 180.48 145.273 180.292C145.46 180.105 145.715 180 145.98 180H196.02C196.285 180 196.539 180.105 196.727 180.292C196.915 180.48 197.02 180.734 197.02 181C197.02 181.265 196.915 181.519 196.727 181.707C196.539 181.894 196.285 182 196.02 182ZM211 89.6106C210.988 89.6106 210.978 89.6046 210.966 89.6056C207.876 89.7106 206.414 92.8016 205.124 95.5286C203.778 98.3786 202.737 100.232 201.031 100.176C199.142 100.108 198.062 97.9736 196.918 95.7156C195.604 93.1216 194.104 90.1796 190.955 90.2896C187.909 90.3936 186.442 93.0836 185.148 95.4566C183.771 97.9846 182.834 99.5216 181.027 99.4506C179.1 99.3806 178.076 97.6456 176.891 95.6376C175.57 93.4016 174.043 90.8876 170.955 90.9736C167.961 91.0766 166.49 93.3586 165.192 95.3736C163.819 97.5036 162.857 98.8016 161.027 98.7246C159.054 98.6546 158.035 97.2146 156.856 95.5476C155.532 93.6746 154.04 91.5546 150.961 91.6576C148.033 91.7576 146.562 93.6276 145.265 95.2756C144.033 96.8396 143.071 98.0776 141.036 97.9996C140.771 97.99 140.513 98.0862 140.318 98.267C140.124 98.4478 140.009 98.6984 140 98.9636C139.99 99.2288 140.087 99.4869 140.267 99.6812C140.448 99.8755 140.699 99.99 140.964 99.9996C143.981 100.101 145.509 98.1996 146.836 96.5126C148.013 95.0166 149.029 93.7256 151.029 93.6576C152.955 93.5756 153.858 94.7726 155.224 96.7026C156.521 98.5366 157.993 100.617 160.955 100.724C164.058 100.828 165.551 98.5086 166.873 96.4566C168.055 94.6226 169.075 93.0396 171.023 92.9726C172.816 92.9056 173.792 94.3226 175.168 96.6536C176.465 98.8506 177.934 101.34 180.955 101.45C184.08 101.558 185.589 98.8296 186.904 96.4146C188.043 94.3266 189.118 92.3546 191.023 92.2886C192.816 92.2466 193.751 93.8836 195.134 96.6186C196.426 99.1716 197.891 102.064 200.959 102.175L201.128 102.178C204.192 102.178 205.646 99.1026 206.933 96.3836C208.072 93.9736 209.15 91.7036 211 91.6106V89.6106Z" fill="black"/>
<path fill-rule="evenodd" clip-rule="evenodd" d="M111 211H151V171H111V211Z" fill="#3ECC5F"/>
<path d="M210.758 107.222L132.98 128.063C131.913 128.349 131.28 129.445 131.566 130.512L139.166 158.879C139.452 159.946 140.549 160.579 141.616 160.293L219.394 139.452C220.461 139.166 221.094 138.07 220.808 137.003L213.208 108.637C212.922 107.57 211.825 106.936 210.758 107.222Z" fill="#D8D8D8"/>
<path d="M156.454 143.591L153.669 144.337C153.136 144.48 152.819 145.029 152.962 145.562L153.708 148.347C153.851 148.88 154.399 149.197 154.933 149.054L157.718 148.308C158.251 148.165 158.568 147.617 158.425 147.083L157.679 144.298C157.536 143.765 156.987 143.448 156.454 143.591Z" fill="#4A4A4A"/>
<path d="M162.044 142.094L159.259 142.84C158.725 142.983 158.409 143.531 158.552 144.065L159.298 146.849C159.441 147.383 159.989 147.699 160.523 147.556L163.307 146.81C163.841 146.667 164.158 146.119 164.015 145.586L163.268 142.801C163.125 142.267 162.577 141.951 162.044 142.094Z" fill="#4A4A4A"/>
<path d="M167.634 140.596L164.849 141.342C164.315 141.485 163.999 142.034 164.142 142.567L164.888 145.352C165.031 145.885 165.579 146.202 166.113 146.059L168.897 145.313C169.431 145.17 169.747 144.621 169.604 144.088L168.858 141.303C168.715 140.77 168.167 140.453 167.634 140.596Z" fill="#4A4A4A"/>
<path d="M173.223 139.098L170.439 139.844C169.905 139.987 169.589 140.535 169.731 141.069L170.478 143.854C170.621 144.387 171.169 144.704 171.702 144.561L174.487 143.815C175.021 143.672 175.337 143.123 175.194 142.59L174.448 139.805C174.305 139.272 173.757 138.955 173.223 139.098Z" fill="#4A4A4A"/>
<path d="M178.813 137.6L176.028 138.347C175.495 138.49 175.178 139.038 175.321 139.571L176.067 142.356C176.21 142.89 176.759 143.206 177.292 143.063L180.077 142.317C180.61 142.174 180.927 141.626 180.784 141.092L180.038 138.308C179.895 137.774 179.347 137.458 178.813 137.6Z" fill="#4A4A4A"/>
<path d="M184.403 136.102L181.618 136.849C181.085 136.992 180.768 137.54 180.911 138.073L181.657 140.858C181.8 141.392 182.349 141.708 182.882 141.565L185.667 140.819C186.2 140.676 186.517 140.128 186.374 139.594L185.628 136.81C185.485 136.276 184.937 135.959 184.403 136.102Z" fill="#4A4A4A"/>
<path d="M189.993 134.605L187.208 135.351C186.675 135.494 186.358 136.042 186.501 136.576L187.247 139.361C187.39 139.894 187.938 140.211 188.472 140.068L191.257 139.321C191.79 139.179 192.107 138.63 191.964 138.097L191.218 135.312C191.075 134.779 190.526 134.462 189.993 134.605Z" fill="#4A4A4A"/>
<path d="M195.582 133.107L192.798 133.853C192.264 133.996 191.948 134.544 192.091 135.078L192.837 137.863C192.98 138.396 193.528 138.713 194.062 138.57L196.846 137.823C197.38 137.68 197.696 137.132 197.553 136.599L196.807 133.814C196.664 133.28 196.116 132.964 195.582 133.107Z" fill="#4A4A4A"/>
<path d="M201.172 131.609L198.388 132.355C197.854 132.498 197.538 133.047 197.68 133.58L198.427 136.365C198.57 136.898 199.118 137.215 199.651 137.072L202.436 136.326C202.97 136.183 203.286 135.635 203.143 135.101L202.397 132.316C202.254 131.783 201.706 131.466 201.172 131.609Z" fill="#4A4A4A"/>
<path fill-rule="evenodd" clip-rule="evenodd" d="M138.822 148.317L150.69 145.137C150.946 145.068 151.219 145.104 151.448 145.237C151.678 145.37 151.846 145.588 151.914 145.844L152.66 148.628C152.729 148.884 152.693 149.157 152.56 149.387C152.428 149.616 152.209 149.784 151.953 149.853L140.086 153.033C139.83 153.101 139.557 153.065 139.327 152.933C139.097 152.8 138.93 152.582 138.861 152.325L138.115 149.541C138.046 149.284 138.082 149.011 138.215 148.782C138.347 148.552 138.566 148.385 138.822 148.316L138.822 148.317ZM204.152 130.812L216.02 127.632C216.276 127.563 216.549 127.599 216.779 127.732C217.008 127.864 217.176 128.083 217.245 128.339L217.991 131.123C218.059 131.379 218.023 131.652 217.891 131.882C217.758 132.111 217.54 132.279 217.283 132.347L205.414 135.528C205.158 135.596 204.885 135.561 204.655 135.428C204.426 135.295 204.258 135.077 204.189 134.821L203.443 132.036C203.375 131.78 203.411 131.507 203.543 131.277C203.676 131.047 203.894 130.88 204.15 130.811L204.152 130.812Z" fill="#4A4A4A"/>
<path fill-rule="evenodd" clip-rule="evenodd" d="M135.798 137.029L140.328 135.815C140.584 135.747 140.857 135.783 141.087 135.915C141.316 136.048 141.484 136.266 141.553 136.523L142.299 139.306C142.367 139.562 142.331 139.835 142.199 140.065C142.066 140.295 141.848 140.462 141.591 140.531L137.061 141.745C136.805 141.814 136.532 141.778 136.302 141.645C136.073 141.512 135.905 141.294 135.837 141.038L135.091 138.254C135.022 137.998 135.058 137.725 135.191 137.495C135.323 137.266 135.542 137.098 135.798 137.029Z" fill="#4A4A4A"/>
<path d="M145.919 134.317L143.134 135.063C142.6 135.206 142.284 135.755 142.427 136.288L143.173 139.073C143.316 139.606 143.864 139.923 144.398 139.78L147.182 139.034C147.716 138.891 148.033 138.343 147.89 137.809L147.143 135.024C147 134.491 146.452 134.174 145.919 134.317Z" fill="#4A4A4A"/>
<path d="M151.509 132.82L148.724 133.566C148.19 133.709 147.874 134.257 148.017 134.791L148.763 137.575C148.906 138.109 149.454 138.425 149.988 138.283L152.772 137.536C153.306 137.393 153.622 136.845 153.479 136.312L152.733 133.527C152.59 132.993 152.042 132.677 151.509 132.82Z" fill="#4A4A4A"/>
<path d="M157.098 131.322L154.314 132.068C153.78 132.211 153.464 132.759 153.606 133.293L154.353 136.077C154.496 136.611 155.044 136.927 155.577 136.784L158.362 136.038C158.896 135.895 159.212 135.347 159.069 134.814L158.323 132.029C158.18 131.495 157.632 131.179 157.098 131.322Z" fill="#4A4A4A"/>
<path d="M162.688 129.824L159.903 130.57C159.37 130.713 159.053 131.262 159.196 131.795L159.942 134.58C160.085 135.113 160.634 135.43 161.167 135.287L163.952 134.541C164.485 134.398 164.802 133.849 164.659 133.316L163.913 130.531C163.77 129.998 163.222 129.681 162.688 129.824Z" fill="#4A4A4A"/>
<path d="M168.278 128.326L165.493 129.072C164.96 129.215 164.643 129.764 164.786 130.297L165.532 133.082C165.675 133.615 166.224 133.932 166.757 133.789L169.542 133.043C170.075 132.9 170.392 132.351 170.249 131.818L169.503 129.033C169.36 128.5 168.812 128.183 168.278 128.326Z" fill="#4A4A4A"/>
<path d="M173.868 126.829L171.083 127.575C170.549 127.718 170.233 128.266 170.376 128.799L171.122 131.584C171.265 132.118 171.813 132.434 172.347 132.291L175.131 131.545C175.665 131.402 175.981 130.854 175.839 130.32L175.092 127.536C174.949 127.002 174.401 126.686 173.868 126.829Z" fill="#4A4A4A"/>
<path d="M179.457 125.33L176.673 126.077C176.139 126.22 175.823 126.768 175.966 127.301L176.712 130.086C176.855 130.62 177.403 130.936 177.937 130.793L180.721 130.047C181.255 129.904 181.571 129.356 181.428 128.822L180.682 126.038C180.539 125.504 179.991 125.188 179.457 125.33Z" fill="#4A4A4A"/>
<path d="M185.047 123.833L182.263 124.579C181.729 124.722 181.413 125.27 181.555 125.804L182.302 128.589C182.445 129.122 182.993 129.439 183.526 129.296L186.311 128.55C186.845 128.407 187.161 127.858 187.018 127.325L186.272 124.54C186.129 124.007 185.581 123.69 185.047 123.833Z" fill="#4A4A4A"/>
<path d="M190.636 122.335L187.851 123.082C187.318 123.224 187.001 123.773 187.144 124.306L187.89 127.091C188.033 127.624 188.582 127.941 189.115 127.798L191.9 127.052C192.433 126.909 192.75 126.361 192.607 125.827L191.861 123.042C191.718 122.509 191.17 122.192 190.636 122.335Z" fill="#4A4A4A"/>
<path d="M196.226 120.838L193.441 121.584C192.908 121.727 192.591 122.275 192.734 122.809L193.48 125.593C193.623 126.127 194.172 126.444 194.705 126.301L197.49 125.554C198.023 125.411 198.34 124.863 198.197 124.33L197.451 121.545C197.308 121.011 196.76 120.695 196.226 120.838Z" fill="#4A4A4A"/>
<path d="M201.816 119.34L199.031 120.086C198.498 120.229 198.181 120.777 198.324 121.311L199.07 124.095C199.213 124.629 199.761 124.945 200.295 124.803L203.08 124.056C203.613 123.913 203.93 123.365 203.787 122.832L203.041 120.047C202.898 119.513 202.349 119.197 201.816 119.34Z" fill="#4A4A4A"/>
<path d="M207.406 117.842L204.621 118.588C204.087 118.731 203.771 119.28 203.914 119.813L204.66 122.598C204.803 123.131 205.351 123.448 205.885 123.305L208.67 122.559C209.203 122.416 209.52 121.868 209.377 121.334L208.63 118.549C208.488 118.016 207.939 117.699 207.406 117.842Z" fill="#4A4A4A"/>
<path d="M212.996 116.344L210.211 117.09C209.677 117.233 209.361 117.782 209.504 118.315L210.25 121.1C210.393 121.633 210.941 121.95 211.475 121.807L214.259 121.061C214.793 120.918 215.109 120.369 214.966 119.836L214.22 117.051C214.077 116.518 213.529 116.201 212.996 116.344Z" fill="#4A4A4A"/>
<path fill-rule="evenodd" clip-rule="evenodd" d="M212.826 115.712L208.295 116.927C208.039 116.995 207.766 116.959 207.536 116.827C207.306 116.694 207.139 116.476 207.07 116.219L206.324 113.435C206.255 113.179 206.291 112.906 206.424 112.676C206.556 112.446 206.775 112.279 207.031 112.21L211.562 110.996C211.818 110.927 212.091 110.963 212.321 111.096C212.551 111.228 212.718 111.447 212.787 111.703L213.533 114.488C213.602 114.744 213.566 115.017 213.433 115.247C213.301 115.476 213.082 115.644 212.826 115.712Z" fill="#4A4A4A"/>
<path d="M202.705 118.424L205.49 117.678C206.023 117.535 206.34 116.987 206.197 116.454L205.451 113.669C205.308 113.135 204.76 112.819 204.226 112.962L201.441 113.708C200.908 113.851 200.591 114.399 200.734 114.933L201.48 117.717C201.623 118.251 202.172 118.567 202.705 118.424Z" fill="#4A4A4A"/>
<path d="M197.115 119.922L199.9 119.176C200.434 119.033 200.75 118.485 200.607 117.951L199.861 115.166C199.718 114.633 199.17 114.316 198.636 114.459L195.851 115.205C195.318 115.348 195.001 115.897 195.144 116.43L195.891 119.215C196.033 119.748 196.582 120.065 197.115 119.922Z" fill="#4A4A4A"/>
<path d="M191.525 121.42L194.31 120.674C194.844 120.531 195.16 119.983 195.017 119.449L194.271 116.664C194.128 116.131 193.58 115.814 193.046 115.957L190.262 116.703C189.728 116.846 189.412 117.395 189.555 117.928L190.301 120.713C190.444 121.246 190.992 121.563 191.525 121.42Z" fill="#4A4A4A"/>
<path d="M185.936 122.918L188.72 122.171C189.254 122.028 189.57 121.48 189.427 120.947L188.681 118.162C188.538 117.628 187.99 117.312 187.457 117.455L184.672 118.201C184.138 118.344 183.822 118.892 183.965 119.426L184.711 122.21C184.854 122.744 185.402 123.061 185.936 122.918Z" fill="#4A4A4A"/>
<path d="M180.346 124.416L183.131 123.669C183.664 123.527 183.981 122.978 183.838 122.445L183.091 119.66C182.948 119.126 182.4 118.81 181.867 118.953L179.082 119.699C178.548 119.842 178.232 120.39 178.375 120.924L179.121 123.709C179.264 124.242 179.812 124.559 180.346 124.416Z" fill="#4A4A4A"/>
<path d="M174.756 125.913L177.541 125.167C178.074 125.024 178.391 124.476 178.248 123.942L177.502 121.158C177.359 120.624 176.811 120.307 176.277 120.45L173.492 121.197C172.959 121.34 172.642 121.888 172.785 122.421L173.531 125.206C173.674 125.74 174.223 126.056 174.756 125.913Z" fill="#4A4A4A"/>
<path d="M169.166 127.411L171.951 126.665C172.485 126.522 172.801 125.974 172.658 125.44L171.912 122.656C171.769 122.122 171.221 121.806 170.687 121.948L167.902 122.695C167.369 122.838 167.052 123.386 167.195 123.919L167.942 126.704C168.084 127.238 168.633 127.554 169.166 127.411Z" fill="#4A4A4A"/>
<path d="M163.576 128.909L166.361 128.163C166.895 128.02 167.211 127.471 167.068 126.938L166.322 124.153C166.179 123.62 165.631 123.303 165.097 123.446L162.313 124.192C161.779 124.335 161.463 124.883 161.606 125.417L162.352 128.202C162.495 128.735 163.043 129.052 163.576 128.909Z" fill="#4A4A4A"/>
<path d="M157.987 130.407L160.771 129.661C161.305 129.518 161.621 128.969 161.478 128.436L160.732 125.651C160.589 125.118 160.041 124.801 159.508 124.944L156.723 125.69C156.189 125.833 155.873 126.382 156.016 126.915L156.762 129.7C156.905 130.233 157.453 130.55 157.987 130.407Z" fill="#4A4A4A"/>
<path d="M152.397 131.904L155.182 131.158C155.715 131.015 156.032 130.467 155.889 129.933L155.142 127.149C155 126.615 154.451 126.299 153.918 126.442L151.133 127.188C150.599 127.331 150.283 127.879 150.426 128.413L151.172 131.197C151.315 131.731 151.863 132.047 152.397 131.904Z" fill="#4A4A4A"/>
<path d="M146.807 133.402L149.592 132.656C150.125 132.513 150.442 131.965 150.299 131.431L149.553 128.646C149.41 128.113 148.861 127.796 148.328 127.939L145.543 128.685C145.01 128.828 144.693 129.377 144.836 129.91L145.582 132.695C145.725 133.228 146.273 133.545 146.807 133.402Z" fill="#4A4A4A"/>
<path d="M141.217 134.9L144.002 134.154C144.535 134.011 144.852 133.463 144.709 132.929L143.963 130.144C143.82 129.611 143.272 129.294 142.738 129.437L139.953 130.183C139.42 130.326 139.103 130.875 139.246 131.408L139.992 134.193C140.135 134.726 140.684 135.043 141.217 134.9Z" fill="#4A4A4A"/>
<path d="M135.628 136.398L138.413 135.651C138.946 135.508 139.263 134.96 139.12 134.427L138.374 131.642C138.231 131.108 137.683 130.792 137.149 130.935L134.364 131.681C133.831 131.824 133.514 132.372 133.657 132.906L134.403 135.69C134.546 136.224 135.095 136.541 135.628 136.398Z" fill="#4A4A4A"/>
<path d="M202.705 118.424L205.49 117.678C206.023 117.535 206.34 116.987 206.197 116.454L205.451 113.669C205.308 113.135 204.76 112.819 204.226 112.962L201.441 113.708C200.908 113.851 200.591 114.399 200.734 114.933L201.48 117.717C201.623 118.251 202.172 118.567 202.705 118.424Z" fill="#4A4A4A"/>
<path d="M197.115 119.922L199.9 119.176C200.434 119.033 200.75 118.485 200.607 117.951L199.861 115.166C199.718 114.633 199.17 114.316 198.636 114.459L195.851 115.205C195.318 115.348 195.001 115.897 195.144 116.43L195.891 119.215C196.033 119.748 196.582 120.065 197.115 119.922Z" fill="#4A4A4A"/>
<path d="M191.525 121.42L194.31 120.674C194.844 120.531 195.16 119.983 195.017 119.449L194.271 116.664C194.128 116.131 193.58 115.814 193.046 115.957L190.262 116.703C189.728 116.846 189.412 117.395 189.555 117.928L190.301 120.713C190.444 121.246 190.992 121.563 191.525 121.42Z" fill="#4A4A4A"/>
<path d="M185.936 122.918L188.72 122.171C189.254 122.028 189.57 121.48 189.427 120.947L188.681 118.162C188.538 117.628 187.99 117.312 187.457 117.455L184.672 118.201C184.138 118.344 183.822 118.892 183.965 119.426L184.711 122.21C184.854 122.744 185.402 123.061 185.936 122.918Z" fill="#4A4A4A"/>
<path d="M180.346 124.416L183.131 123.669C183.664 123.527 183.981 122.978 183.838 122.445L183.091 119.66C182.948 119.126 182.4 118.81 181.867 118.953L179.082 119.699C178.548 119.842 178.232 120.39 178.375 120.924L179.121 123.709C179.264 124.242 179.812 124.559 180.346 124.416Z" fill="#4A4A4A"/>
<path d="M174.756 125.913L177.541 125.167C178.074 125.024 178.391 124.476 178.248 123.942L177.502 121.158C177.359 120.624 176.811 120.307 176.277 120.45L173.492 121.197C172.959 121.34 172.642 121.888 172.785 122.421L173.531 125.206C173.674 125.74 174.223 126.056 174.756 125.913Z" fill="#4A4A4A"/>
<path d="M169.166 127.411L171.951 126.665C172.485 126.522 172.801 125.974 172.658 125.44L171.912 122.656C171.769 122.122 171.221 121.806 170.687 121.948L167.902 122.695C167.369 122.838 167.052 123.386 167.195 123.919L167.942 126.704C168.084 127.238 168.633 127.554 169.166 127.411Z" fill="#4A4A4A"/>
<path d="M163.576 128.909L166.361 128.163C166.895 128.02 167.211 127.471 167.068 126.938L166.322 124.153C166.179 123.62 165.631 123.303 165.097 123.446L162.313 124.192C161.779 124.335 161.463 124.883 161.606 125.417L162.352 128.202C162.495 128.735 163.043 129.052 163.576 128.909Z" fill="#4A4A4A"/>
<path d="M157.987 130.407L160.771 129.661C161.305 129.518 161.621 128.969 161.478 128.436L160.732 125.651C160.589 125.118 160.041 124.801 159.508 124.944L156.723 125.69C156.189 125.833 155.873 126.382 156.016 126.915L156.762 129.7C156.905 130.233 157.453 130.55 157.987 130.407Z" fill="#4A4A4A"/>
<path d="M152.397 131.904L155.182 131.158C155.715 131.015 156.032 130.467 155.889 129.933L155.142 127.149C155 126.615 154.451 126.299 153.918 126.442L151.133 127.188C150.599 127.331 150.283 127.879 150.426 128.413L151.172 131.197C151.315 131.731 151.863 132.047 152.397 131.904Z" fill="#4A4A4A"/>
<path d="M146.807 133.402L149.592 132.656C150.125 132.513 150.442 131.965 150.299 131.431L149.553 128.646C149.41 128.113 148.861 127.796 148.328 127.939L145.543 128.685C145.01 128.828 144.693 129.377 144.836 129.91L145.582 132.695C145.725 133.228 146.273 133.545 146.807 133.402Z" fill="#4A4A4A"/>
<path d="M141.217 134.9L144.002 134.154C144.535 134.011 144.852 133.463 144.709 132.929L143.963 130.144C143.82 129.611 143.272 129.294 142.738 129.437L139.953 130.183C139.42 130.326 139.103 130.875 139.246 131.408L139.992 134.193C140.135 134.726 140.684 135.043 141.217 134.9Z" fill="#4A4A4A"/>
<path d="M135.628 136.398L138.413 135.651C138.946 135.508 139.263 134.96 139.12 134.427L138.374 131.642C138.231 131.108 137.683 130.792 137.149 130.935L134.364 131.681C133.831 131.824 133.514 132.372 133.657 132.906L134.403 135.69C134.546 136.224 135.095 136.541 135.628 136.398Z" fill="#4A4A4A"/>
<path fill-rule="evenodd" clip-rule="evenodd" d="M137.295 142.618L143.747 140.889C144.004 140.821 144.277 140.857 144.506 140.989C144.736 141.122 144.904 141.34 144.972 141.596L145.718 144.381C145.787 144.637 145.751 144.91 145.618 145.14C145.486 145.37 145.267 145.537 145.011 145.606L138.559 147.335C138.303 147.403 138.03 147.367 137.8 147.235C137.57 147.102 137.403 146.884 137.334 146.628L136.588 143.844C136.52 143.588 136.555 143.315 136.688 143.085C136.821 142.855 137.039 142.688 137.295 142.619L137.295 142.618Z" fill="#4A4A4A"/>
<path d="M149.512 139.345L146.727 140.091C146.194 140.234 145.877 140.782 146.02 141.316L146.766 144.1C146.909 144.634 147.458 144.95 147.991 144.807L150.776 144.061C151.309 143.918 151.626 143.37 151.483 142.836L150.737 140.052C150.594 139.518 150.046 139.202 149.512 139.345Z" fill="#4A4A4A"/>
<path d="M155.102 137.847L152.317 138.593C151.784 138.736 151.467 139.285 151.61 139.818L152.356 142.603C152.499 143.136 153.048 143.453 153.581 143.31L156.366 142.564C156.899 142.421 157.216 141.872 157.073 141.339L156.327 138.554C156.184 138.021 155.635 137.704 155.102 137.847Z" fill="#4A4A4A"/>
<path d="M160.692 136.349L157.907 137.095C157.374 137.238 157.057 137.786 157.2 138.32L157.946 141.105C158.089 141.638 158.637 141.955 159.171 141.812L161.956 141.066C162.489 140.923 162.806 140.374 162.663 139.841L161.917 137.056C161.774 136.523 161.225 136.206 160.692 136.349Z" fill="#4A4A4A"/>
<path d="M166.282 134.851L163.497 135.598C162.963 135.741 162.647 136.289 162.79 136.822L163.536 139.607C163.679 140.141 164.227 140.457 164.761 140.314L167.546 139.568C168.079 139.425 168.396 138.877 168.253 138.343L167.506 135.559C167.363 135.025 166.815 134.709 166.282 134.851Z" fill="#4A4A4A"/>
<path d="M171.871 133.353L169.087 134.1C168.553 134.243 168.236 134.791 168.379 135.324L169.126 138.109C169.269 138.643 169.817 138.959 170.35 138.816L173.135 138.07C173.669 137.927 173.985 137.379 173.842 136.845L173.096 134.061C172.953 133.527 172.405 133.21 171.871 133.353Z" fill="#4A4A4A"/>
<path d="M177.461 131.856L174.676 132.602C174.143 132.745 173.826 133.293 173.969 133.827L174.715 136.612C174.858 137.145 175.407 137.462 175.94 137.319L178.725 136.572C179.258 136.43 179.575 135.881 179.432 135.348L178.686 132.563C178.543 132.029 177.995 131.713 177.461 131.856Z" fill="#4A4A4A"/>
<path d="M183.051 130.358L180.266 131.104C179.733 131.247 179.416 131.795 179.559 132.329L180.305 135.113C180.448 135.647 180.997 135.964 181.53 135.821L184.315 135.074C184.848 134.931 185.165 134.383 185.022 133.85L184.276 131.065C184.133 130.531 183.584 130.215 183.051 130.358Z" fill="#4A4A4A"/>
<path d="M188.64 128.86L185.855 129.606C185.322 129.749 185.005 130.298 185.148 130.831L185.894 133.616C186.037 134.149 186.585 134.466 187.119 134.323L189.904 133.577C190.437 133.434 190.754 132.886 190.611 132.352L189.865 129.567C189.722 129.034 189.173 128.717 188.64 128.86Z" fill="#4A4A4A"/>
<path d="M194.23 127.363L191.445 128.109C190.911 128.252 190.595 128.8 190.738 129.334L191.484 132.118C191.627 132.652 192.175 132.968 192.709 132.825L195.494 132.079C196.027 131.936 196.344 131.388 196.201 130.855L195.454 128.07C195.312 127.536 194.763 127.22 194.23 127.363Z" fill="#4A4A4A"/>
<path d="M199.82 125.865L197.035 126.611C196.501 126.754 196.185 127.302 196.328 127.836L197.074 130.62C197.217 131.154 197.765 131.47 198.299 131.327L201.083 130.581C201.617 130.438 201.933 129.89 201.79 129.357L201.044 126.572C200.901 126.038 200.353 125.722 199.82 125.865Z" fill="#4A4A4A"/>
<path d="M205.409 124.367L202.625 125.113C202.091 125.256 201.775 125.805 201.918 126.338L202.664 129.123C202.807 129.656 203.355 129.973 203.888 129.83L206.673 129.084C207.207 128.941 207.523 128.392 207.38 127.859L206.634 125.074C206.491 124.541 205.943 124.224 205.409 124.367Z" fill="#4A4A4A"/>
<path fill-rule="evenodd" clip-rule="evenodd" d="M208.39 123.568L214.493 121.933C214.749 121.864 215.022 121.9 215.252 122.033C215.481 122.165 215.649 122.384 215.717 122.64L216.464 125.425C216.532 125.681 216.496 125.954 216.364 126.184C216.231 126.413 216.013 126.581 215.757 126.649L209.653 128.285C209.397 128.354 209.124 128.318 208.894 128.185C208.664 128.052 208.497 127.834 208.428 127.578L207.682 124.794C207.614 124.538 207.649 124.265 207.782 124.035C207.915 123.806 208.133 123.638 208.389 123.569L208.39 123.568Z" fill="#4A4A4A"/>
<path d="M143.169 153.401L140.384 154.147C139.851 154.29 139.534 154.839 139.677 155.372L140.423 158.157C140.566 158.69 141.115 159.007 141.648 158.864L144.433 158.118C144.966 157.975 145.283 157.427 145.14 156.893L144.394 154.108C144.251 153.575 143.703 153.258 143.169 153.401Z" fill="#4A4A4A"/>
<path d="M148.759 151.904L145.974 152.65C145.441 152.793 145.124 153.341 145.267 153.875L146.013 156.659C146.156 157.193 146.705 157.509 147.238 157.366L150.023 156.62C150.556 156.477 150.873 155.929 150.73 155.396L149.984 152.611C149.841 152.077 149.292 151.761 148.759 151.904Z" fill="#4A4A4A"/>
<path d="M154.349 150.406L151.564 151.152C151.031 151.295 150.714 151.843 150.857 152.377L151.603 155.161C151.746 155.695 152.294 156.011 152.828 155.868L155.613 155.122C156.146 154.979 156.463 154.431 156.32 153.898L155.574 151.113C155.431 150.579 154.882 150.263 154.349 150.406Z" fill="#4A4A4A"/>
<path d="M159.939 148.908L157.154 149.654C156.62 149.797 156.304 150.346 156.447 150.879L157.193 153.664C157.336 154.197 157.884 154.514 158.418 154.371L161.202 153.625C161.736 153.482 162.053 152.933 161.91 152.4L161.163 149.615C161.02 149.082 160.472 148.765 159.939 148.908Z" fill="#4A4A4A"/>
<path fill-rule="evenodd" clip-rule="evenodd" d="M162.743 148.157L189.634 140.951C189.89 140.883 190.163 140.918 190.393 141.051C190.623 141.184 190.79 141.402 190.859 141.658L191.605 144.444C191.674 144.7 191.638 144.973 191.505 145.203C191.373 145.433 191.154 145.6 190.898 145.669L164.007 152.874C163.751 152.943 163.478 152.907 163.248 152.774C163.018 152.642 162.851 152.423 162.782 152.167L162.036 149.381C161.967 149.125 162.003 148.852 162.136 148.623C162.268 148.393 162.487 148.225 162.743 148.157ZM192.438 140.2L195.922 139.266C196.179 139.198 196.451 139.234 196.681 139.366C196.911 139.499 197.078 139.717 197.147 139.973L197.894 142.759C197.962 143.015 197.926 143.288 197.794 143.518C197.661 143.748 197.443 143.915 197.186 143.984L193.702 144.917C193.446 144.986 193.173 144.95 192.943 144.818C192.714 144.685 192.546 144.466 192.478 144.21L191.731 141.425C191.662 141.168 191.698 140.895 191.831 140.666C191.964 140.436 192.182 140.268 192.438 140.2Z" fill="#4A4A4A"/>
<path d="M201.512 137.768L198.727 138.515C198.194 138.658 197.877 139.206 198.02 139.739L198.766 142.524C198.909 143.058 199.458 143.374 199.991 143.231L202.776 142.485C203.309 142.342 203.626 141.794 203.483 141.26L202.737 138.476C202.594 137.942 202.045 137.626 201.512 137.768Z" fill="#4A4A4A"/>
<path d="M207.102 136.27L204.317 137.017C203.784 137.16 203.467 137.708 203.61 138.241L204.356 141.026C204.499 141.56 205.047 141.876 205.581 141.733L208.366 140.987C208.899 140.844 209.216 140.296 209.073 139.762L208.327 136.978C208.184 136.444 207.635 136.127 207.102 136.27Z" fill="#4A4A4A"/>
<path d="M217.582 133.462L214.797 134.208C214.264 134.351 213.947 134.9 214.09 135.433L214.837 138.218C214.979 138.751 215.528 139.068 216.061 138.925L218.846 138.179C219.38 138.036 219.696 137.488 219.553 136.954L218.807 134.169C218.664 133.636 218.116 133.319 217.582 133.462Z" fill="#4A4A4A"/>
<path d="M209.129 137.881L208.849 136.838C208.78 136.582 208.816 136.309 208.949 136.079C209.082 135.849 209.3 135.682 209.556 135.613L212.341 134.867C212.597 134.798 212.87 134.834 213.1 134.967C213.329 135.099 213.497 135.318 213.566 135.574L213.845 136.617L209.129 137.881Z" fill="#4A4A4A"/>
<path d="M214.033 137.315L214.313 138.358C214.381 138.615 214.345 138.888 214.213 139.117C214.08 139.347 213.862 139.515 213.606 139.583L210.821 140.329C210.565 140.398 210.292 140.362 210.062 140.23C209.832 140.097 209.665 139.878 209.596 139.622L209.317 138.579L214.033 137.315Z" fill="#4A4A4A"/>
<path d="M210.585 108.378L134.075 128.878C133.497 129.033 133.153 129.628 133.308 130.207C133.463 130.786 134.058 131.13 134.637 130.974L211.147 110.474C211.726 110.319 212.069 109.724 211.914 109.145C211.759 108.566 211.164 108.222 210.585 108.378Z" fill="#4A4A4A"/>
<path opacity="0.136" d="M138.752 128L135.742 128.807C135.356 128.91 135.127 129.306 135.23 129.692L135.231 129.693C135.334 130.079 135.73 130.308 136.116 130.204L139.127 129.397C139.513 129.294 139.741 128.898 139.638 128.512L139.638 128.511C139.535 128.125 139.138 127.896 138.752 128Z" fill="#D8D8D8"/>
<path opacity="0.136" d="M144.784 126.384L141.773 127.19C141.387 127.294 141.158 127.69 141.262 128.076L141.262 128.077C141.365 128.462 141.762 128.691 142.147 128.588L145.158 127.781C145.544 127.678 145.773 127.281 145.669 126.896L145.669 126.895C145.566 126.509 145.169 126.28 144.784 126.384Z" fill="#D8D8D8"/>
<path opacity="0.136" d="M149.424 125.14L146.413 125.947C146.027 126.05 145.798 126.447 145.902 126.833L145.902 126.834C146.005 127.219 146.402 127.448 146.787 127.345L149.798 126.538C150.184 126.435 150.413 126.038 150.31 125.653L150.309 125.652C150.206 125.266 149.809 125.037 149.424 125.14Z" fill="#D8D8D8"/>
<path opacity="0.136" d="M154.063 123.897L151.052 124.704C150.667 124.807 150.438 125.204 150.541 125.589L150.541 125.59C150.645 125.976 151.041 126.205 151.427 126.102L154.438 125.295C154.823 125.192 155.052 124.795 154.949 124.409L154.949 124.408C154.845 124.023 154.449 123.794 154.063 123.897Z" fill="#D8D8D8"/>
<path opacity="0.136" d="M158.704 122.654L155.693 123.461C155.307 123.564 155.078 123.961 155.182 124.346L155.182 124.347C155.285 124.733 155.682 124.962 156.067 124.859L159.078 124.052C159.464 123.948 159.693 123.552 159.589 123.166L159.589 123.165C159.486 122.78 159.089 122.551 158.704 122.654Z" fill="#D8D8D8"/>
<path opacity="0.136" d="M164.503 121.1L161.492 121.907C161.106 122.01 160.877 122.406 160.981 122.792L160.981 122.793C161.084 123.179 161.481 123.408 161.867 123.304L164.877 122.498C165.263 122.394 165.492 121.998 165.389 121.612L165.388 121.611C165.285 121.225 164.889 120.997 164.503 121.1Z" fill="#D8D8D8"/>
<path opacity="0.136" d="M169.142 119.857L166.131 120.663C165.746 120.767 165.517 121.163 165.62 121.549L165.62 121.55C165.724 121.936 166.12 122.165 166.506 122.061L169.517 121.254C169.902 121.151 170.131 120.755 170.028 120.369L170.028 120.368C169.924 119.982 169.528 119.753 169.142 119.857Z" fill="#D8D8D8"/>
<path opacity="0.136" d="M173.783 118.614L170.772 119.42C170.386 119.524 170.157 119.92 170.261 120.306L170.261 120.307C170.364 120.692 170.761 120.921 171.146 120.818L174.157 120.011C174.543 119.908 174.772 119.511 174.668 119.126L174.668 119.125C174.565 118.739 174.168 118.51 173.783 118.614Z" fill="#D8D8D8"/>
<path opacity="0.136" d="M178.422 117.37L175.411 118.177C175.025 118.28 174.796 118.677 174.9 119.063L174.9 119.064C175.003 119.449 175.4 119.678 175.786 119.575L178.796 118.768C179.182 118.665 179.411 118.268 179.308 117.883L179.307 117.882C179.204 117.496 178.807 117.267 178.422 117.37Z" fill="#D8D8D8"/>
<path opacity="0.136" d="M184.222 115.816L181.212 116.623C180.826 116.726 180.597 117.123 180.7 117.508L180.701 117.509C180.804 117.895 181.2 118.124 181.586 118.021L184.597 117.214C184.983 117.111 185.211 116.714 185.108 116.328L185.108 116.327C185.004 115.942 184.608 115.713 184.222 115.816Z" fill="#D8D8D8"/>
<path opacity="0.136" d="M188.862 114.573L185.851 115.38C185.465 115.483 185.236 115.88 185.34 116.265L185.34 116.266C185.443 116.652 185.84 116.881 186.225 116.777L189.236 115.971C189.622 115.867 189.851 115.471 189.747 115.085L189.747 115.084C189.644 114.699 189.247 114.47 188.862 114.573Z" fill="#D8D8D8"/>
<path opacity="0.136" d="M193.502 113.33L190.491 114.137C190.105 114.24 189.877 114.636 189.98 115.022L189.98 115.023C190.083 115.409 190.48 115.638 190.866 115.534L193.876 114.728C194.262 114.624 194.491 114.228 194.388 113.842L194.387 113.841C194.284 113.455 193.888 113.227 193.502 113.33Z" fill="#D8D8D8"/>
<path opacity="0.136" d="M199.301 111.776L196.291 112.582C195.905 112.686 195.676 113.082 195.779 113.468L195.78 113.469C195.883 113.855 196.279 114.083 196.665 113.98L199.676 113.173C200.062 113.07 200.291 112.674 200.187 112.288L200.187 112.287C200.084 111.901 199.687 111.672 199.301 111.776Z" fill="#D8D8D8"/>
<path opacity="0.136" d="M203.941 110.533L200.93 111.339C200.544 111.443 200.315 111.839 200.419 112.225L200.419 112.226C200.522 112.611 200.919 112.84 201.304 112.737L204.315 111.93C204.701 111.827 204.93 111.43 204.826 111.045L204.826 111.044C204.723 110.658 204.326 110.429 203.941 110.533Z" fill="#D8D8D8"/>
<path opacity="0.136" d="M208.581 109.289L205.57 110.096C205.185 110.199 204.956 110.596 205.059 110.982L205.059 110.983C205.163 111.368 205.559 111.597 205.945 111.494L208.955 110.687C209.341 110.584 209.57 110.187 209.467 109.802L209.466 109.801C209.363 109.415 208.967 109.186 208.581 109.289Z" fill="#D8D8D8"/>
<path fill-rule="evenodd" clip-rule="evenodd" d="M171 186C170.781 186 170.572 186.037 170.361 186.064C170.323 185.914 170.287 185.763 170.245 185.613C171.311 185.167 172.189 184.367 172.731 183.347C173.273 182.327 173.446 181.151 173.219 180.018C172.992 178.886 172.38 177.867 171.487 177.134C170.594 176.402 169.475 176.001 168.32 176C167.228 176.004 166.168 176.368 165.304 177.036C165.193 176.923 165.082 176.811 164.969 176.7C165.622 175.841 165.977 174.792 165.98 173.713C165.979 172.561 165.581 171.445 164.852 170.552C164.123 169.66 163.109 169.047 161.98 168.817C160.851 168.587 159.677 168.753 158.657 169.288C157.637 169.823 156.833 170.694 156.381 171.754C156.233 171.712 156.084 171.677 155.936 171.639C155.963 171.428 156 171.219 156 171C156 169.674 155.473 168.402 154.536 167.464C153.598 166.527 152.326 166 151 166C149.674 166 148.402 166.527 147.464 167.464C146.527 168.402 146 169.674 146 171C146 171.219 146.037 171.428 146.064 171.639C145.916 171.677 145.767 171.712 145.619 171.754C145.169 170.692 144.365 169.819 143.344 169.282C142.323 168.746 141.149 168.578 140.019 168.809C138.889 169.04 137.873 169.654 137.144 170.548C136.416 171.441 136.018 172.56 136.02 173.713C136.02 174.838 136.404 175.864 137.031 176.7C133.314 180.332 131 185.393 131 191C131 202.046 139.954 211 151 211C160.339 211 168.16 204.59 170.361 195.936C170.572 195.963 170.781 196 171 196C172.326 196 173.598 195.473 174.536 194.536C175.473 193.598 176 192.326 176 191C176 189.674 175.473 188.402 174.536 187.464C173.598 186.527 172.326 186 171 186Z" fill="#44D860"/>
<path fill-rule="evenodd" clip-rule="evenodd" d="M111 151H151V131H111V151Z" fill="#3ECC5F"/>
<path fill-rule="evenodd" clip-rule="evenodd" d="M161 143.5C161.663 143.5 162.299 143.236 162.768 142.767C163.237 142.299 163.5 141.663 163.5 141C163.5 140.337 163.237 139.701 162.768 139.232C162.299 138.763 161.663 138.5 161 138.5C160.891 138.5 160.786 138.519 160.681 138.532C160.661 138.457 160.644 138.382 160.623 138.307C161.155 138.083 161.594 137.683 161.864 137.173C162.135 136.663 162.22 136.075 162.107 135.509C161.994 134.943 161.688 134.434 161.242 134.068C160.796 133.702 160.237 133.501 159.66 133.5C159.091 133.5 158.572 133.697 158.152 134.018C158.097 133.961 158.041 133.905 157.984 133.85C158.298 133.433 158.49 132.919 158.49 132.356C158.49 131.779 158.291 131.221 157.926 130.775C157.562 130.329 157.054 130.022 156.49 129.907C155.925 129.792 155.338 129.875 154.828 130.143C154.318 130.411 153.916 130.847 153.69 131.377C152.815 131.129 151.91 131.002 151 131C145.478 131 141 135.478 141 141C141 146.522 145.478 151 151 151C151.934 151 152.833 150.862 153.69 150.623C153.916 151.153 154.318 151.589 154.828 151.856C155.338 152.124 155.925 152.208 156.49 152.092C157.054 151.977 157.562 151.671 157.926 151.224C158.291 150.778 158.49 150.22 158.49 149.644C158.49 149.081 158.298 148.567 157.984 148.15C158.041 148.095 158.097 148.039 158.152 147.982C158.572 148.303 159.091 148.5 159.66 148.5C160.238 148.5 160.798 148.299 161.245 147.933C161.691 147.567 161.998 147.057 162.111 146.491C162.225 145.924 162.138 145.336 161.867 144.826C161.596 144.316 161.156 143.915 160.623 143.693C160.644 143.619 160.661 143.543 160.681 143.468C160.786 143.481 160.891 143.5 161 143.5Z" fill="#44D860"/>
<path fill-rule="evenodd" clip-rule="evenodd" d="M171 69.7501C170.84 69.7501 170.67 69.7301 170.51 69.7001C170.349 69.6688 170.192 69.6219 170.04 69.5601C169.89 69.5001 169.75 69.4201 169.609 69.3301C169.479 69.2401 169.35 69.1301 169.229 69.0201C169.12 68.9001 169.01 68.7801 168.92 68.6401C168.83 68.5001 168.75 68.3601 168.689 68.2101C168.566 67.9048 168.502 67.5791 168.5 67.2501C168.5 67.0901 168.52 66.9201 168.55 66.7601C168.58 66.6001 168.63 66.4501 168.689 66.2901C168.75 66.1401 168.83 66.0001 168.92 65.8601C169.01 65.7301 169.12 65.6001 169.229 65.4801C169.35 65.3701 169.479 65.2601 169.609 65.1701C169.75 65.0801 169.89 65.0001 170.04 64.9401C170.189 64.8801 170.35 64.8301 170.51 64.8001C170.83 64.7301 171.16 64.7301 171.49 64.8001C171.649 64.8301 171.81 64.8801 171.96 64.9401C172.109 65.0001 172.25 65.0801 172.39 65.1701C172.52 65.2601 172.649 65.3701 172.77 65.4801C172.88 65.6001 172.99 65.7301 173.08 65.8601C173.17 66.0001 173.25 66.1401 173.31 66.2901C173.37 66.4501 173.42 66.6001 173.45 66.7601C173.479 66.9201 173.5 67.0901 173.5 67.2501C173.5 67.9101 173.229 68.5601 172.77 69.0201C172.649 69.1301 172.52 69.2401 172.39 69.3301C172.25 69.4201 172.109 69.5001 171.96 69.5601C171.655 69.6844 171.329 69.7489 171 69.7501ZM191 68.5001C190.34 68.5001 189.7 68.2301 189.229 67.7701C189.118 67.6502 189.015 67.5232 188.92 67.3901C188.83 67.2501 188.75 67.1101 188.689 66.9601C188.566 66.6548 188.502 66.3291 188.5 66.0001C188.5 65.3401 188.77 64.7001 189.229 64.2301C189.35 64.1201 189.479 64.0101 189.609 63.9201C189.75 63.8301 189.89 63.7501 190.04 63.6901C190.189 63.6301 190.35 63.5801 190.51 63.5501C190.83 63.4801 191.17 63.4801 191.49 63.5501C191.649 63.5801 191.81 63.6301 191.96 63.6901C192.109 63.7501 192.25 63.8301 192.39 63.9201C192.52 64.0101 192.649 64.1201 192.77 64.2301C193.229 64.7001 193.5 65.3401 193.5 66.0001C193.5 66.1601 193.479 66.3301 193.45 66.4901C193.42 66.6501 193.37 66.8101 193.31 66.9601C193.24 67.1101 193.17 67.2501 193.08 67.3901C192.99 67.5201 192.88 67.6501 192.77 67.7701C192.649 67.8801 192.52 67.9901 192.39 68.0801C192.25 68.1701 192.109 68.2501 191.96 68.3101C191.655 68.4344 191.329 68.4989 191 68.5001Z" fill="black"/>
</svg>
