<svg width="256" height="256" viewBox="0 0 256 256" fill="none" xmlns="http://www.w3.org/2000/svg">
<rect width="256" height="256" fill="#121212"/>
<path d="M70.7153 125.987C71.3009 124.97 71.6786 123.847 71.8265 122.682C71.9743 121.518 71.8893 120.336 71.5765 119.205C71.2636 118.074 70.7292 117.016 70.0041 116.094C69.2791 115.171 68.378 114.402 67.3533 113.831C65.2683 112.673 62.8118 112.382 60.5143 113.021C58.2168 113.661 56.2626 115.178 55.0739 117.247L26.1793 167.696C25.5941 168.713 25.2169 169.837 25.0698 171.002C24.9227 172.167 25.0086 173.349 25.3224 174.48C25.6362 175.611 26.1717 176.669 26.8978 177.591C27.6238 178.513 28.5259 179.281 29.5515 179.851C31.6353 181.01 34.0909 181.303 36.3882 180.666C38.6856 180.028 40.6405 178.513 41.8309 176.446L70.7153 125.987ZM132.994 87.3043C133.58 86.2874 133.957 85.1642 134.105 83.9998C134.253 82.8355 134.168 81.6534 133.855 80.5223C133.542 79.3911 133.008 78.3335 132.283 77.411C131.558 76.4885 130.657 75.7195 129.632 75.1487C127.547 73.9865 125.089 73.6923 122.789 74.3296C120.49 74.9669 118.533 76.4845 117.342 78.5543L88.458 129.013C87.8723 130.03 87.4946 131.153 87.3468 132.318C87.1989 133.482 87.2839 134.664 87.5967 135.795C87.9096 136.926 88.4441 137.984 89.1691 138.906C89.8941 139.829 90.7952 140.598 91.8199 141.169C93.9047 142.331 96.3627 142.625 98.6625 141.988C100.962 141.35 102.919 139.833 104.11 137.763L132.994 87.3043ZM228.821 87.3043C229.406 86.2868 229.783 85.163 229.93 83.9982C230.077 82.8335 229.991 81.6511 229.678 80.5199C229.364 79.3887 228.828 78.3312 228.102 77.4091C227.376 76.487 226.474 75.7186 225.449 75.1487C223.365 73.9897 220.909 73.6973 218.612 74.3344C216.314 74.9716 214.36 76.4873 213.169 78.5543L184.274 129.013C183.689 130.031 183.312 131.154 183.165 132.319C183.018 133.484 183.104 134.666 183.418 135.797C183.731 136.929 184.267 137.986 184.993 138.908C185.719 139.83 186.621 140.599 187.647 141.169C189.73 142.328 192.186 142.62 194.483 141.983C196.781 141.346 198.736 139.83 199.926 137.763L228.821 87.3043ZM166.522 125.987C167.107 124.97 167.485 123.847 167.633 122.682C167.781 121.518 167.696 120.336 167.383 119.205C167.07 118.074 166.535 117.016 165.81 116.094C165.085 115.171 164.184 114.402 163.16 113.831C161.074 112.67 158.615 112.377 156.315 113.017C154.015 113.656 152.059 115.176 150.87 117.247L121.986 167.696C121.4 168.713 121.022 169.836 120.874 171C120.727 172.164 120.811 173.347 121.124 174.478C121.437 175.609 121.972 176.666 122.697 177.589C123.422 178.512 124.323 179.281 125.348 179.851C127.432 181.013 129.89 181.308 132.19 180.67C134.49 180.033 136.447 178.515 137.637 176.446L166.522 125.987Z" fill="#C6F74F"/>
</svg>
