<svg width="256" height="256" viewBox="0 0 256 256" fill="none" xmlns="http://www.w3.org/2000/svg">
<rect width="256" height="256" fill="#DE5833"/>
<path fill-rule="evenodd" clip-rule="evenodd" d="M143.319 209.277C143.319 208.426 143.528 208.232 140.824 202.839C133.634 188.441 126.407 168.143 129.692 155.052C130.293 152.674 122.921 66.977 117.709 64.2179C111.918 61.1319 104.793 56.2349 98.274 55.1455C94.9668 54.6179 90.6314 54.8664 87.2408 55.3243C86.64 55.4043 86.6144 56.4868 87.1897 56.6826C89.4161 57.4366 92.1174 58.7455 93.7089 60.7251C94.0119 61.0996 93.6068 61.6885 93.1268 61.7072C91.6255 61.7617 88.9021 62.3915 85.3089 65.4434C84.8936 65.7958 85.2391 66.4511 85.7736 66.3455C93.4944 64.8187 101.382 65.5711 106.029 69.7958C106.33 70.0681 106.172 70.5617 105.779 70.6672C65.4485 81.629 73.4332 116.71 84.1685 159.763C93.7327 198.112 97.331 210.473 98.4663 214.238C98.5182 214.417 98.61 214.581 98.7348 214.719C98.8595 214.856 99.0139 214.964 99.1863 215.033C113.069 220.562 143.319 220.807 143.319 211.404V209.277Z" fill="#DDDDDD"/>
<path fill-rule="evenodd" clip-rule="evenodd" d="M228 128C228 183.229 183.229 228 128 228C72.7711 228 28 183.229 28 128C28 72.7711 72.7711 28 128 28C183.229 28 228 72.7711 228 128ZM104.664 216.487C101.9 207.949 94.177 183.209 86.5481 151.942L85.7872 148.831L85.7821 148.803C76.5481 111.093 69.0077 80.2894 110.339 70.6128C110.717 70.5243 110.9 70.0732 110.65 69.7753C105.908 64.1498 97.0247 62.3064 85.7923 66.1821C85.3328 66.3404 84.9311 65.8757 85.217 65.4809C87.4196 62.446 91.7243 60.1106 93.8502 59.0877C94.2894 58.8766 94.2621 58.2332 93.7974 58.0868C91.6958 57.4285 89.5511 56.9166 87.3787 56.5549C86.7489 56.4545 86.6911 55.3753 87.3243 55.2902C103.249 53.1472 119.877 57.9285 128.223 68.4409C128.303 68.5392 128.414 68.6076 128.538 68.6349C159.096 75.1966 161.285 123.503 157.763 125.704C157.071 126.138 154.846 125.888 151.911 125.559C140.022 124.23 116.477 121.595 135.91 157.811C136.102 158.169 135.847 158.642 135.447 158.705C124.526 160.402 138.434 194.507 148.744 217.127C189.28 207.731 219.489 171.394 219.489 128C219.489 77.4723 178.528 36.5106 128 36.5106C77.4723 36.5106 36.5106 77.4723 36.5106 128C36.5106 170.463 65.4383 206.169 104.664 216.487Z" fill="white"/>
<path d="M162.519 173.443C160.192 172.366 151.249 178.779 145.311 183.703C144.071 181.949 141.731 180.674 136.454 181.589C131.837 182.393 129.287 183.506 128.148 185.426C120.858 182.663 108.594 178.396 105.631 182.515C102.393 187.019 106.441 208.321 110.742 211.087C112.989 212.532 123.729 205.627 129.34 200.866C130.245 202.141 131.702 202.871 134.698 202.801C139.229 202.696 146.577 201.642 147.717 199.532C147.786 199.403 147.845 199.252 147.896 199.079C153.663 201.234 163.811 203.515 166.078 203.174C171.985 202.287 165.253 174.709 162.519 173.443Z" fill="#3CA82B"/>
<path d="M145.855 184.335C146.1 184.771 146.298 185.231 146.465 185.697C147.287 187.998 148.626 195.311 147.612 197.117C146.599 198.924 140.022 199.796 135.964 199.866C131.906 199.935 130.994 198.451 130.172 196.153C129.513 194.313 129.19 189.99 129.198 187.515C129.031 183.842 130.373 182.552 136.575 181.547C141.164 180.805 143.59 181.668 144.991 183.147C151.506 178.284 162.378 171.421 163.438 172.676C168.725 178.929 169.394 193.816 168.248 199.806C167.874 201.765 150.368 197.867 150.368 195.755C150.368 186.986 148.092 184.581 145.857 184.334M107.506 181.597C108.941 179.328 120.568 182.15 126.951 184.989C126.951 184.989 125.641 190.931 127.728 197.932C128.339 199.98 113.043 209.095 111.047 207.527C108.74 205.714 104.494 186.366 107.506 181.597Z" fill="#4CBA3C"/>
<path fill-rule="evenodd" clip-rule="evenodd" d="M113.139 135.501C114.08 131.409 118.461 123.7 134.111 123.887C142.022 123.855 151.85 123.884 158.366 123.145C165.782 122.322 173.062 120.551 180.027 117.877C186.802 115.292 189.205 115.869 190.048 117.414C190.974 119.115 189.883 122.047 187.515 124.749C182.994 129.906 174.867 133.906 160.511 135.091C146.157 136.279 136.647 132.427 132.553 138.696C130.787 141.401 132.152 147.773 146.034 149.78C164.792 152.486 180.199 146.517 182.102 150.122C184.005 153.727 173.042 161.064 154.252 161.217C135.462 161.37 123.726 154.638 119.564 151.293C114.284 147.046 111.922 140.856 113.139 135.501Z" fill="#FFCC33"/>
<g opacity="0.8">
<path d="M137.067 90.7695C138.116 89.0537 140.439 87.7295 144.243 87.7295C148.046 87.7295 149.835 89.2427 151.074 90.9295C151.326 91.2733 150.945 91.6784 150.553 91.5082L150.267 91.384C148.876 90.7763 147.169 90.0308 144.242 89.9882C141.113 89.944 139.14 90.7286 137.898 91.4027C137.479 91.6308 136.819 91.1763 137.067 90.7695ZM94.2467 92.9652C97.9403 91.4214 100.844 91.6206 102.895 92.1074C103.328 92.2095 103.627 91.7448 103.282 91.4657C101.69 90.1806 98.1241 88.5857 93.4773 90.3184C89.3292 91.8657 87.3752 95.0776 87.3633 97.1916C87.3599 97.6886 88.3846 97.7312 88.6501 97.3108C89.365 96.1703 90.5565 94.5091 94.2484 92.9652" fill="#14307E"/>
<path fill-rule="evenodd" clip-rule="evenodd" d="M147.472 114.246C145.907 114.248 144.405 113.629 143.296 112.524C142.187 111.419 141.563 109.919 141.559 108.354C141.564 106.789 142.189 105.289 143.298 104.185C144.407 103.081 145.909 102.462 147.474 102.464C149.039 102.463 150.54 103.082 151.649 104.186C152.757 105.29 153.383 106.789 153.387 108.354C153.383 109.919 152.758 111.419 151.649 112.524C150.54 113.629 149.038 114.249 147.472 114.246ZM151.637 106.403C151.637 105.997 151.476 105.608 151.189 105.32C150.902 105.033 150.512 104.872 150.106 104.872C149.7 104.872 149.311 105.033 149.024 105.32C148.736 105.608 148.575 105.997 148.575 106.403C148.575 107.244 149.265 107.926 150.107 107.926C150.956 107.926 151.637 107.246 151.637 106.403ZM108.294 112.432C108.294 113.336 108.115 114.231 107.768 115.066C107.421 115.9 106.913 116.658 106.273 117.297C105.633 117.935 104.873 118.441 104.037 118.785C103.202 119.129 102.306 119.306 101.402 119.304C99.5772 119.306 97.8259 118.583 96.5332 117.295C95.2406 116.006 94.5124 114.257 94.5088 112.432C94.5124 110.607 95.2406 108.858 96.5332 107.569C97.8259 106.281 99.5772 105.558 101.402 105.561C103.228 105.558 104.979 106.281 106.272 107.569C107.564 108.858 108.291 110.607 108.294 112.432ZM106.265 110.155C106.241 109.698 106.042 109.268 105.71 108.953C105.378 108.638 104.938 108.463 104.481 108.463C104.023 108.463 103.583 108.638 103.251 108.953C102.919 109.268 102.72 109.698 102.696 110.155C102.696 110.628 102.884 111.082 103.219 111.417C103.553 111.751 104.007 111.939 104.481 111.939C104.954 111.939 105.408 111.751 105.743 111.417C106.077 111.082 106.265 110.628 106.265 110.155Z" fill="#14307E"/>
</g>
</svg>
