<svg width="256" height="256" viewBox="0 0 256 256" fill="none" xmlns="http://www.w3.org/2000/svg">
<rect width="256" height="256" fill="#232932"/>
<g clip-path="url(#clip0_131_337)">
<path d="M82.9859 153.888H52.4219C56.4688 167.807 63.9781 180.281 74.9719 191.307C92.4984 208.881 113.573 217.658 138.219 217.658C143.145 217.658 147.919 217.29 152.555 216.589C171.118 213.779 187.371 205.364 201.297 191.307C212.361 180.285 219.923 167.807 224.002 153.888H82.9859ZM66.1328 112.267H50.1664C49.5711 115.838 49.1829 119.441 49.0039 123.057H227.441C227.259 119.375 226.86 115.784 226.271 112.267M49.0039 133.078C49.1844 136.762 49.5805 140.352 50.1664 143.868H226.274C226.874 140.297 227.265 136.694 227.446 133.078M224.005 102.244C219.931 88.2873 212.367 75.754 201.297 64.6518C187.408 50.7265 171.202 42.3714 152.698 39.5608C147.906 38.8343 143.066 38.4714 138.22 38.4751C113.574 38.4751 92.4977 47.2038 74.9727 64.6526C63.975 75.754 56.4609 88.2873 52.4172 102.244" fill="#2C2255"/>
<path d="M43.6977 128.071C43.6977 80.8067 79.0992 41.5367 125.154 34.6292C124.012 34.5877 122.863 34.5415 121.709 34.5415C70.0281 34.5423 28.1281 76.4177 28.1281 128.071C28.1281 179.726 70.0266 221.598 121.709 221.598C122.867 221.598 124.015 221.555 125.162 221.512C79.0992 214.606 43.6977 175.335 43.6977 128.071Z" fill="#F7941E"/>
<path d="M198.946 123.055C198.654 119.41 198.036 115.799 197.099 112.265H79.3477C78.4097 115.799 77.791 119.41 77.4992 123.055H198.946Z" fill="url(#paint0_linear_131_337)"/>
<path d="M198.946 133.077H77.5008C77.7914 136.722 78.4096 140.334 79.3477 143.868H197.101C198.037 140.334 198.655 136.722 198.946 133.077Z" fill="url(#paint1_linear_131_337)"/>
<path d="M138.223 189.176C162.677 189.176 183.756 174.73 193.463 153.888H82.9844C92.6914 174.73 113.77 189.176 138.223 189.176Z" fill="url(#paint2_linear_131_337)"/>
<path d="M68.5 133.078H227.32C227.405 131.484 227.452 129.879 227.452 128.263C227.452 126.514 227.388 124.781 227.289 123.056H49.0039C48.9055 124.779 48.8414 126.514 48.8414 128.263C48.8414 129.879 48.8883 131.484 48.9727 133.078H68.5ZM82.6281 102.244H52.4156C51.4227 105.508 50.782 108.855 50.1664 112.267H225.707C225.1 108.882 224.298 105.536 223.305 102.244M214.229 143.867H50.1648C50.7633 147.276 51.4445 150.621 52.4211 153.889H223.889C224.869 150.597 225.658 147.25 226.251 143.867H214.229Z" fill="white"/>
</g>
<defs>
<linearGradient id="paint0_linear_131_337" x1="6149.84" y1="11867.3" x2="6149.84" y2="-1608.81" gradientUnits="userSpaceOnUse">
<stop offset="0.3033" stop-color="#473788"/>
<stop offset="0.872" stop-color="#2C2255"/>
</linearGradient>
<linearGradient id="paint1_linear_131_337" x1="6149.65" y1="9807.79" x2="6149.65" y2="-3669.3" gradientUnits="userSpaceOnUse">
<stop offset="0.3033" stop-color="#473788"/>
<stop offset="0.872" stop-color="#2C2255"/>
</linearGradient>
<linearGradient id="paint2_linear_131_337" x1="5606.78" y1="7746.72" x2="5606.78" y2="-5729.08" gradientUnits="userSpaceOnUse">
<stop offset="0.3033" stop-color="#473788"/>
<stop offset="0.8631" stop-color="#2C2255"/>
</linearGradient>
<clipPath id="clip0_131_337">
<rect width="200" height="188" fill="white" transform="translate(28 34)"/>
</clipPath>
</defs>
</svg>
