<svg width="256" height="256" viewBox="0 0 256 256" fill="none" xmlns="http://www.w3.org/2000/svg">
<rect width="256" height="256" fill="#232932"/>
<g clip-path="url(#clip0_199_68)">
<path d="M208.547 176.828C205.865 178.222 203.099 179.448 200.266 180.5C191.293 183.84 181.792 185.533 172.219 185.5C135.266 185.5 103.078 160.109 103.078 127.453C103.126 123.08 104.339 118.799 106.59 115.051C108.842 111.302 112.053 108.221 115.891 106.125C82.4531 107.531 73.8594 142.375 73.8594 162.766C73.8594 220.578 127.063 226.359 138.547 226.359C144.719 226.359 154.016 224.563 159.641 222.766L160.656 222.453C182.183 215.014 200.534 200.465 212.687 181.203C213.041 180.618 213.192 179.933 213.119 179.253C213.046 178.574 212.752 177.937 212.282 177.44C211.812 176.944 211.192 176.615 210.517 176.505C209.843 176.394 209.151 176.508 208.547 176.828Z" fill="url(#paint0_linear_199_68)"/>
<path opacity="0.35" d="M208.547 176.828C205.865 178.222 203.099 179.448 200.266 180.5C191.293 183.84 181.792 185.533 172.219 185.5C135.266 185.5 103.078 160.109 103.078 127.453C103.126 123.08 104.339 118.799 106.59 115.051C108.842 111.302 112.053 108.221 115.891 106.125C82.4531 107.531 73.8594 142.375 73.8594 162.766C73.8594 220.578 127.063 226.359 138.547 226.359C144.719 226.359 154.016 224.563 159.641 222.766L160.656 222.453C182.183 215.014 200.534 200.465 212.687 181.203C213.041 180.618 213.192 179.933 213.119 179.253C213.046 178.574 212.752 177.937 212.282 177.44C211.812 176.944 211.192 176.615 210.517 176.505C209.843 176.394 209.151 176.508 208.547 176.828Z" fill="url(#paint1_radial_199_68)"/>
<path d="M110.578 216.516C103.624 212.197 97.5962 206.54 92.8437 199.875C87.4167 192.447 83.681 183.921 81.8989 174.896C80.1167 165.87 80.3312 156.565 82.5274 147.631C84.7235 138.698 88.8481 130.353 94.6117 123.183C100.375 116.012 107.638 110.19 115.891 106.125C118.391 104.953 122.531 102.922 128.078 103C131.981 103.03 135.825 103.963 139.308 105.725C142.791 107.486 145.819 110.03 148.156 113.156C151.3 117.383 153.023 122.498 153.078 127.766C153.078 127.609 172.219 65.5781 90.5781 65.5781C56.2812 65.5781 28.0781 98.0781 28.0781 126.672C27.9417 141.776 31.1709 156.721 37.5312 170.422C47.9474 192.602 66.1448 210.185 88.669 219.834C111.193 229.483 136.476 230.527 159.719 222.766C151.576 225.337 142.972 226.11 134.501 225.031C126.03 223.952 117.894 221.047 110.656 216.516H110.578Z" fill="url(#paint2_linear_199_68)"/>
<path opacity="0.41" d="M110.578 216.516C103.624 212.197 97.5962 206.54 92.8437 199.875C87.4167 192.447 83.681 183.921 81.8989 174.896C80.1167 165.87 80.3312 156.565 82.5274 147.631C84.7235 138.698 88.8481 130.353 94.6117 123.183C100.375 116.012 107.638 110.19 115.891 106.125C118.391 104.953 122.531 102.922 128.078 103C131.981 103.03 135.825 103.963 139.308 105.725C142.791 107.486 145.819 110.03 148.156 113.156C151.3 117.383 153.023 122.498 153.078 127.766C153.078 127.609 172.219 65.5781 90.5781 65.5781C56.2812 65.5781 28.0781 98.0781 28.0781 126.672C27.9417 141.776 31.1709 156.721 37.5312 170.422C47.9474 192.602 66.1448 210.185 88.669 219.834C111.193 229.483 136.476 230.527 159.719 222.766C151.576 225.337 142.972 226.11 134.501 225.031C126.03 223.952 117.894 221.047 110.656 216.516H110.578Z" fill="url(#paint3_radial_199_68)"/>
<path d="M147.062 144.25C146.359 145.031 144.406 146.203 144.406 148.625C144.406 150.656 145.734 152.687 148.156 154.328C159.328 162.141 180.5 161.047 180.578 161.047C188.907 161.041 197.081 158.802 204.25 154.562C211.467 150.341 217.456 144.307 221.622 137.057C225.788 129.808 227.986 121.595 228 113.234C228.234 95.7344 221.75 84.0937 219.172 78.9375C202.531 46.5937 166.828 28 128 28C101.72 27.9974 76.4956 38.3398 57.7819 56.7904C39.0682 75.241 28.3696 100.317 28 126.594C28.3906 98.0781 56.75 75.0312 90.5 75.0312C93.2344 75.0312 108.859 75.2656 123.312 82.8437C133.467 87.8895 141.875 95.8627 147.453 105.734C152.219 114.016 153.078 124.562 153.078 128.781C153.078 133 150.969 139.172 146.984 144.328L147.062 144.25Z" fill="url(#paint4_radial_199_68)"/>
<path d="M147.062 144.25C146.359 145.031 144.406 146.203 144.406 148.625C144.406 150.656 145.734 152.687 148.156 154.328C159.328 162.141 180.5 161.047 180.578 161.047C188.907 161.041 197.081 158.802 204.25 154.562C211.467 150.341 217.456 144.307 221.622 137.057C225.788 129.808 227.986 121.595 228 113.234C228.234 95.7344 221.75 84.0937 219.172 78.9375C202.531 46.5937 166.828 28 128 28C101.72 27.9974 76.4956 38.3398 57.7819 56.7904C39.0682 75.241 28.3696 100.317 28 126.594C28.3906 98.0781 56.75 75.0312 90.5 75.0312C93.2344 75.0312 108.859 75.2656 123.312 82.8437C133.467 87.8895 141.875 95.8627 147.453 105.734C152.219 114.016 153.078 124.562 153.078 128.781C153.078 133 150.969 139.172 146.984 144.328L147.062 144.25Z" fill="url(#paint5_radial_199_68)"/>
</g>
<defs>
<linearGradient id="paint0_linear_199_68" x1="73.8594" y1="166.281" x2="213.234" y2="166.281" gradientUnits="userSpaceOnUse">
<stop stop-color="#0C59A4"/>
<stop offset="1" stop-color="#114A8B"/>
</linearGradient>
<radialGradient id="paint1_radial_199_68" cx="0" cy="0" r="1" gradientUnits="userSpaceOnUse" gradientTransform="translate(150.813 167.332) scale(74.5313 70.8047)">
<stop offset="0.7" stop-opacity="0"/>
<stop offset="0.9" stop-opacity="0.5"/>
<stop offset="1"/>
</radialGradient>
<linearGradient id="paint2_linear_199_68" x1="147.297" y1="105.812" x2="60.3437" y2="200.578" gradientUnits="userSpaceOnUse">
<stop stop-color="#1B9DE2"/>
<stop offset="0.2" stop-color="#1595DF"/>
<stop offset="0.7" stop-color="#0680D7"/>
<stop offset="1" stop-color="#0078D4"/>
</linearGradient>
<radialGradient id="paint3_radial_199_68" cx="0" cy="0" r="1" gradientUnits="userSpaceOnUse" gradientTransform="translate(83.1211 183.42) rotate(-81.3844) scale(112.02 90.5012)">
<stop offset="0.8" stop-opacity="0"/>
<stop offset="0.9" stop-opacity="0.5"/>
<stop offset="1"/>
</radialGradient>
<radialGradient id="paint4_radial_199_68" cx="0" cy="0" r="1" gradientUnits="userSpaceOnUse" gradientTransform="translate(48.2266 64.9656) rotate(92.2906) scale(158.251 337.043)">
<stop stop-color="#35C1F1"/>
<stop offset="0.1" stop-color="#34C1ED"/>
<stop offset="0.2" stop-color="#2FC2DF"/>
<stop offset="0.3" stop-color="#2BC3D2"/>
<stop offset="0.7" stop-color="#36C752"/>
</radialGradient>
<radialGradient id="paint5_radial_199_68" cx="0" cy="0" r="1" gradientUnits="userSpaceOnUse" gradientTransform="translate(215.547 88.3906) rotate(73.7398) scale(76.0156 61.8159)">
<stop stop-color="#66EB6E"/>
<stop offset="1" stop-color="#66EB6E" stop-opacity="0"/>
</radialGradient>
<clipPath id="clip0_199_68">
<rect width="200" height="200" fill="white" transform="translate(28 28)"/>
</clipPath>
</defs>
</svg>
