<svg width="256" height="256" viewBox="0 0 256 256" fill="none" xmlns="http://www.w3.org/2000/svg">
<g clip-path="url(#clip0_12_71)">
<rect width="256" height="256" fill="white"/>
<rect width="256" height="256" fill="#2F3243"/>
<path d="M100.768 70.772C74.763 66.036 54.201 70.993 46.006 85.187C39.891 95.779 41.639 109.822 50.246 124.833C50.4593 125.223 50.7666 125.553 51.14 125.795C51.5134 126.036 51.9411 126.18 52.3843 126.214C52.8274 126.248 53.2721 126.17 53.6778 125.989C54.0836 125.808 54.4377 125.528 54.708 125.175C54.9233 124.893 55.0801 124.57 55.1692 124.226C55.2583 123.883 55.2779 123.524 55.227 123.173C55.1751 122.822 55.0544 122.484 54.872 122.18C47.12 108.658 45.611 96.539 50.625 87.854C57.433 76.063 75.773 71.641 99.812 76.019C100.503 76.134 101.211 75.9727 101.784 75.5699C102.357 75.1671 102.748 74.5552 102.874 73.8663C102.999 73.1773 102.849 72.4666 102.455 71.8877C102.061 71.3088 101.455 70.908 100.768 70.772ZM63.769 143.079C74.284 154.634 87.945 165.473 103.525 174.467C141.248 196.247 181.408 202.068 201.2 188.573C201.496 188.379 201.751 188.128 201.949 187.834C202.146 187.54 202.284 187.21 202.352 186.862C202.457 186.339 202.401 185.796 202.194 185.305C201.986 184.813 201.635 184.396 201.187 184.106C200.739 183.815 200.215 183.666 199.682 183.677C199.148 183.688 198.63 183.859 198.195 184.167C180.481 196.245 142.333 190.715 106.192 169.849C91.078 161.123 77.849 150.627 67.714 139.489C67.4785 139.229 67.194 139.017 66.8767 138.867C66.5594 138.717 66.2156 138.63 65.865 138.613C65.5142 138.595 65.1635 138.647 64.8329 138.766C64.5022 138.884 64.1983 139.067 63.9386 139.303C63.6788 139.54 63.4683 139.825 63.3193 140.143C63.1702 140.461 63.0855 140.805 63.07 141.156C63.0543 141.507 63.108 141.857 63.228 142.187C63.3479 142.517 63.5317 142.82 63.769 143.079Z" fill="#9FEAF9"/>
<path d="M194.886 139.835C211.914 119.719 217.859 99.487 209.681 85.323C203.664 74.9 190.943 69.397 174.036 69.177C173.513 69.1773 173.002 69.3313 172.566 69.6198C172.13 69.9082 171.789 70.3185 171.584 70.7995C171.38 71.2805 171.321 71.8111 171.415 72.3252C171.51 72.8393 171.754 73.3142 172.116 73.691C172.602 74.1964 173.266 74.4905 173.967 74.51C189.172 74.708 200.132 79.449 205.063 87.99C211.855 99.755 206.553 117.797 190.815 136.389C190.584 136.655 190.408 136.965 190.297 137.3C190.187 137.636 190.144 137.989 190.172 138.341C190.199 138.693 190.296 139.035 190.457 139.349C190.617 139.664 190.838 139.943 191.107 140.171C191.376 140.399 191.688 140.571 192.025 140.677C192.362 140.784 192.716 140.823 193.067 140.791C193.418 140.759 193.76 140.658 194.072 140.495C194.385 140.331 194.661 140.107 194.886 139.835ZM151.125 71.66C135.729 74.959 119.341 81.409 103.603 90.495C64.661 112.978 39.258 146.131 42.786 170.17C42.8325 170.52 42.9483 170.857 43.1265 171.162C43.3047 171.467 43.5418 171.733 43.824 171.945C44.2482 172.266 44.759 172.452 45.2902 172.48C45.8214 172.507 46.3487 172.375 46.804 172.1C47.1066 171.918 47.3701 171.678 47.579 171.394C47.788 171.109 47.9382 170.786 48.021 170.443C48.1033 170.1 48.1176 169.744 48.063 169.395C44.93 148.051 69.01 116.626 106.27 95.114C121.537 86.299 137.405 80.054 152.242 76.875C152.676 76.7887 153.083 76.5956 153.424 76.3131C153.765 76.0307 154.031 75.6678 154.197 75.2571C154.363 74.8464 154.424 74.4008 154.375 73.9605C154.326 73.5202 154.168 73.0991 153.916 72.735C153.713 72.4449 153.455 72.1978 153.157 72.008C152.858 71.8182 152.525 71.6893 152.176 71.629C151.827 71.5704 151.47 71.5809 151.125 71.66Z" fill="#9FEAF9"/>
<path d="M88.036 186.835C96.94 211.695 111.505 227.002 127.883 227.002C139.828 227.002 150.879 218.859 159.497 204.524C159.683 204.224 159.808 203.889 159.864 203.54C159.92 203.191 159.907 202.835 159.824 202.491C159.742 202.147 159.592 201.823 159.383 201.537C159.174 201.252 158.91 201.011 158.607 200.829C158.304 200.646 157.967 200.527 157.617 200.476C157.267 200.425 156.91 200.445 156.568 200.534C156.226 200.623 155.905 200.778 155.623 200.991C155.341 201.204 155.104 201.471 154.926 201.776C147.181 214.659 137.668 221.668 127.883 221.668C114.278 221.668 101.287 208.016 93.058 185.038C92.9457 184.701 92.7671 184.391 92.5329 184.124C92.2986 183.858 92.0134 183.641 91.694 183.486C91.2135 183.252 90.6734 183.167 90.1444 183.244C89.6153 183.322 89.1217 183.556 88.728 183.918C88.4669 184.158 88.2561 184.448 88.1078 184.77C87.9595 185.092 87.8766 185.441 87.864 185.795C87.852 186.15 87.91 186.504 88.036 186.835ZM169.358 181.972C173.968 167.244 176.443 150.254 176.443 132.549C176.443 88.37 160.98 50.286 138.956 40.507C138.313 40.2375 137.589 40.2308 136.941 40.4884C136.293 40.7459 135.771 41.2472 135.488 41.8847C135.205 42.5222 135.183 43.2453 135.427 43.8988C135.671 44.5524 136.161 45.0845 136.792 45.381C156.435 54.104 171.109 90.247 171.109 132.549C171.109 149.726 168.712 166.179 164.269 180.379C164.103 180.885 164.092 181.429 164.237 181.941C164.383 182.453 164.678 182.91 165.085 183.253C165.493 183.595 165.993 183.807 166.523 183.863C167.052 183.919 167.586 183.815 168.056 183.566C168.368 183.4 168.644 183.173 168.867 182.9C169.091 182.626 169.257 182.311 169.358 181.972ZM219.582 179.36C219.582 172.311 213.868 166.597 206.819 166.597C199.77 166.597 194.056 172.311 194.056 179.36C194.056 186.409 199.77 192.123 206.819 192.123C213.868 192.123 219.582 186.409 219.582 179.36ZM214.249 179.36C214.249 180.336 214.057 181.302 213.683 182.203C213.31 183.105 212.763 183.924 212.073 184.615C211.383 185.305 210.564 185.852 209.662 186.225C208.533 186.692 207.306 186.874 206.091 186.753C204.875 186.633 203.707 186.215 202.692 185.537C201.676 184.858 200.843 183.939 200.267 182.862C199.691 181.784 199.389 180.582 199.389 179.36C199.39 177.891 199.826 176.455 200.643 175.234C201.459 174.012 202.62 173.06 203.977 172.498C205.334 171.936 206.828 171.789 208.269 172.075C209.71 172.361 211.034 173.068 212.073 174.106C212.763 174.796 213.31 175.615 213.684 176.517C214.057 177.418 214.249 178.384 214.249 179.36ZM48.763 192.123C55.813 192.123 61.527 186.409 61.527 179.36C61.527 172.311 55.812 166.597 48.763 166.597C41.714 166.597 36 172.311 36 179.36C36 186.409 41.715 192.123 48.763 192.123ZM48.763 186.79C47.2936 186.79 45.8574 186.354 44.6358 185.537C43.4141 184.721 42.462 183.56 41.8997 182.203C41.3374 180.845 41.1901 179.352 41.4766 177.91C41.763 176.469 42.4703 175.145 43.509 174.106C44.5483 173.067 45.8722 172.36 47.3134 172.074C48.7545 171.787 50.2483 171.934 51.6058 172.497C52.9633 173.059 54.1236 174.011 54.9401 175.233C55.7566 176.454 56.1926 177.891 56.193 179.36C56.193 181.331 55.4102 183.22 54.0168 184.614C52.6234 186.007 50.7336 186.79 48.763 186.79Z" fill="#9FEAF9"/>
<path d="M127.883 53.526C134.932 53.526 140.646 47.812 140.646 40.763C140.646 33.714 134.932 28 127.883 28C120.834 28 115.12 33.714 115.12 40.763C115.12 47.812 120.834 53.526 127.883 53.526ZM127.883 48.193C125.912 48.193 124.022 47.4101 122.629 46.0167C121.235 44.6232 120.452 42.7332 120.452 40.7625C120.452 38.7918 121.235 36.9018 122.629 35.5083C124.022 34.1149 125.912 33.332 127.883 33.332C129.854 33.332 131.744 34.1149 133.137 35.5083C134.531 36.9018 135.313 38.7918 135.313 40.7625C135.313 42.7332 134.531 44.6232 133.137 46.0167C131.744 47.4101 129.854 48.193 127.883 48.193ZM129.832 141.575C124.847 142.652 119.936 139.484 118.857 134.499C118.601 133.314 118.581 132.089 118.797 130.896C119.014 129.703 119.464 128.564 120.121 127.545C120.778 126.526 121.63 125.646 122.627 124.956C123.624 124.266 124.748 123.779 125.933 123.523C130.918 122.446 135.829 125.614 136.909 130.599C137.986 135.584 134.818 140.496 129.832 141.575Z" fill="#9FEAF9"/>
</g>
<defs>
<clipPath id="clip0_12_71">
<rect width="256" height="256" fill="white"/>
</clipPath>
</defs>
</svg>
