<svg width="256" height="256" viewBox="0 0 256 256" fill="none" xmlns="http://www.w3.org/2000/svg">
<g clip-path="url(#clip0_23_569)">
<rect width="256" height="256" fill="white"/>
<rect width="256" height="256" fill="#1B1B1F"/>
<path d="M84.6403 41.3495V136.771H110.018V214.844L169.233 110.747H135.396L169.233 41.3495H84.6403Z" fill="#FFAB00"/>
<path d="M28.7889 157.872C35.6397 177.994 85.6535 181.629 140.44 166.054C195.227 150.48 234.08 121.439 227.213 101.313C222.759 88.2287 200.175 82.1185 169.735 83.7474C176.893 86.8897 184.075 89.9789 191.279 93.0149C194.624 94.285 197.841 95.8507 200.887 97.6908L201.076 97.733C209.683 99.6648 214.268 102.684 214.989 104.837C217.517 112.247 193.857 138.058 136.45 154.428C105.696 163.187 74.48 165.917 54.9098 161.525C46.3024 159.593 41.7172 156.574 40.9927 154.436C39.677 150.595 45.3791 141.874 59.0499 132.05C59.2232 131.793 59.3839 131.518 59.5603 131.246C64.7403 123.529 69.5812 115.999 74.0173 108.876C42.6377 124.245 23.8313 143.353 28.7889 157.872Z" fill="#6988E6"/>
</g>
<defs>
<clipPath id="clip0_23_569">
<rect width="256" height="256" fill="white"/>
</clipPath>
</defs>
</svg>
