<svg width="256" height="256" viewBox="0 0 256 256" fill="none" xmlns="http://www.w3.org/2000/svg">
<g clip-path="url(#clip0_12_2)">
<rect width="256" height="256" fill="#242932"/>
<path d="M136.263 81.8184C136.263 80.0373 136.371 79.9289 138.152 79.9289C139.933 79.9289 140.042 80.0373 140.042 81.8184C140.042 83.5995 139.933 83.7079 138.152 83.7079C136.371 83.7079 136.263 83.6007 136.263 81.8184ZM121.146 72.1004C121.146 70.3181 121.254 70.2109 123.035 70.2109C124.816 70.2109 124.925 70.3194 124.925 72.1004C124.925 73.8815 124.817 73.9899 123.035 73.9899C121.253 73.9899 121.146 73.8827 121.146 72.1004Z" fill="#333333"/>
<path d="M175.728 219.761C180.317 213.012 182.963 203.995 181.667 199.353C180.803 196.167 178.05 193.576 174.649 192.766C169.196 191.471 162.986 193.414 143.281 202.7C132.105 207.991 123.197 211.176 116.017 212.526C110.455 213.551 96.1483 213.389 90.9123 212.201C78.3863 209.448 66.2391 204.104 61.488 199.244C58.7883 196.491 58.7883 196.491 58.7883 185.856C58.7883 177.487 59.004 174.355 59.7605 171.062C60.7327 166.851 60.7327 166.851 62.6222 166.851C64.0256 166.851 64.4568 167.068 64.4568 167.823C64.5117 168.578 64.7273 168.471 65.6995 167.337C73.3647 158.214 75.5246 155.73 75.7951 155.514C75.9571 155.352 78.0635 152.923 80.3842 150.115C84.5409 145.094 84.5945 144.986 83.191 144.824C81.9497 144.662 81.7328 144.393 81.7328 142.772C81.7328 141.476 82.0033 140.936 82.5429 140.936C82.9754 140.936 83.3531 140.721 83.3531 140.45C83.3531 139.857 88.6439 137.535 93.1246 136.185C97.5518 134.835 106.568 133.756 109.645 134.242C111.805 134.566 111.967 134.675 111.914 136.294C111.914 137.697 111.481 138.237 109.43 139.587C108.026 140.505 106.299 142.071 105.542 143.096C103.977 145.201 104.301 145.039 108.782 141.369C112.724 138.183 122.657 131.705 127.3 129.329C131.512 127.169 131.512 127.169 131.241 121.5C131.079 118.37 130.539 114.482 130.053 112.863C129.567 111.243 129.028 108.976 128.866 107.895C128.596 105.844 128.596 105.844 130.486 105.844C131.674 105.844 132.483 106.168 132.699 106.654C132.915 107.194 132.645 107.464 131.889 107.464C131.026 107.464 130.864 107.679 131.134 108.436C132.105 111.027 133.024 116.425 133.348 121.662C133.563 124.848 133.779 127.439 133.832 127.439C133.886 127.439 136.64 126.467 139.988 125.279C149.813 121.771 159.369 120.637 167.36 122.095C171.571 122.85 181.074 125.928 181.074 126.522C181.074 126.846 179.724 126.9 177.942 126.684C171.679 125.982 172.866 126.953 181.991 130.031C190.954 133.108 190.954 133.108 193.598 137.049C201.697 149.035 205.206 163.882 203.802 180.241C203.478 183.911 203.316 187.097 203.478 187.367C203.64 187.583 203.316 188.338 202.777 189.041C202.237 189.743 201.103 192.064 200.293 194.115C196.622 203.402 189.549 212.904 182.153 218.411C180.371 219.761 174.433 223 173.785 223C173.623 223 174.487 221.542 175.728 219.761ZM199.16 154.38C198.026 149.953 192.411 138.345 191.223 137.805C190.954 137.697 190.792 137.319 190.792 136.995C190.792 136.618 190.251 136.023 189.604 135.592C187.659 134.351 173.514 129.599 170.599 129.167C167.846 128.789 167.846 128.789 167.846 126.522C167.846 124.254 167.846 124.254 164.391 123.876C159.478 123.336 152.351 123.93 147.6 125.279C142.579 126.684 135.129 129.599 135.399 130.085C135.83 130.732 146.628 135.754 150.246 136.995C151.596 137.428 155.428 138.993 158.668 140.505C166.28 143.906 166.388 143.96 175.945 147.955C180.426 149.791 185.015 151.735 186.202 152.275C187.39 152.814 190.306 154.002 192.681 154.974C195.057 155.892 197.594 156.971 198.35 157.35C199.105 157.729 199.753 157.997 199.861 157.89C199.97 157.835 199.646 156.269 199.16 154.38Z" fill="url(#paint0_linear_12_2)"/>
<path d="M36.9232 159.346C36.3286 158.214 36.1666 149.575 36.7063 147.577C36.9232 146.875 37.408 146.336 37.7869 146.336C38.3802 146.336 38.5422 147.739 38.5422 153.354C38.5422 160.21 38.1658 161.615 36.9232 159.346ZM37.1924 142.772C38.0561 135.592 42.214 122.688 43.833 122.148C44.9672 121.771 44.5896 124.795 42.8609 129.113C41.2418 133.325 39.0819 142.017 39.0819 144.446C39.0819 145.472 38.8127 145.796 37.9477 145.796C36.8683 145.796 36.8147 145.634 37.1924 142.772ZM45.0208 118.856C45.0208 118.585 46.2622 116.534 47.7205 114.266C50.7978 109.731 55.0093 105.681 59.814 102.713C63.0534 100.715 63.0534 100.715 61.1639 100.391C60.1381 100.175 59.7604 100.013 60.3001 99.9593C60.7862 99.9593 61.2175 99.5268 61.2175 99.0956C61.2175 98.5011 61.812 98.2854 63.3774 98.2854C65.4838 98.2854 65.5374 98.339 65.5374 100.175C65.5374 101.525 65.2669 102.226 64.6188 102.442C64.0791 102.659 63.3226 103.144 62.9449 103.523C62.5673 103.9 61.8656 104.224 61.4331 104.224C61.0018 104.224 60.6778 104.494 60.6778 104.764C60.6778 105.088 60.3537 105.304 59.9212 105.304C59.49 105.304 59.0575 105.681 58.8419 106.114C58.6798 106.545 58.0317 106.924 57.4385 106.924C56.8439 106.924 56.3591 107.247 56.3591 107.626C56.3591 108.489 51.932 112.862 51.0682 112.862C50.6893 112.862 50.4201 113.348 50.4201 113.942C50.4201 114.536 50.2033 115.022 49.8804 115.022C49.61 115.022 49.3395 115.399 49.3395 115.832C49.3395 116.263 49.1239 116.642 48.8534 116.642C48.5842 116.642 48.2053 117.235 48.0433 117.992C47.7741 118.963 47.3428 119.34 46.3707 119.34C45.6154 119.34 45.0208 119.125 45.0208 118.856ZM141.661 106.6C141.661 105.736 142.309 105.412 145.333 104.926C149.975 104.116 155.806 102.497 156.562 101.795C156.887 101.525 158.452 100.661 160.071 99.9045C161.691 99.1492 163.095 98.3939 163.148 98.177C163.257 97.9078 163.581 97.7458 163.851 97.7458C164.122 97.7458 164.769 97.3133 165.308 96.7736C166.118 95.9635 166.172 95.6394 165.632 95.1546C165.255 94.7757 164.445 94.5064 163.796 94.5064C163.203 94.5064 162.717 94.2896 162.717 93.9668C162.717 93.6963 162.231 93.4258 161.691 93.4258C160.071 93.4258 158.938 92.8326 158.938 92.0224C158.938 91.5912 158.398 91.2671 157.642 91.2671C156.887 91.2671 155.968 90.9431 155.59 90.5106C155.159 90.1329 154.294 89.5932 153.647 89.4312C152.999 89.2156 152.459 88.6759 152.459 88.2434C152.459 87.8109 152.027 87.4881 151.487 87.4881C150.408 87.4881 147.6 84.8421 147.6 83.8163C147.6 83.4386 147.384 83.1682 147.06 83.1682C146.79 83.1682 146.52 82.4665 146.52 81.5479C146.52 80.577 146.25 79.9289 145.819 79.9289C145.171 79.9289 142.741 72.9105 142.741 71.021C142.741 70.5886 142.525 70.2109 142.255 70.2109C141.986 70.2109 141.337 69.1315 140.743 67.7805C140.204 66.4319 139.609 65.3525 139.394 65.3525C139.123 65.3525 138.961 64.8665 138.961 64.2719C138.961 63.6787 138.638 63.1926 138.259 63.1926C137.396 63.1926 134.642 60.3857 134.642 59.5208C134.642 59.1431 134.156 58.8726 133.563 58.8726C132.969 58.8726 132.483 58.657 132.483 58.4414C132.483 58.2258 131.619 57.6861 130.593 57.3072C129.567 56.9296 128.704 56.2814 128.704 55.8489C128.704 55.3641 128.11 55.0936 127.084 55.0936C126.221 55.0936 125.464 54.9316 125.464 54.6624C125.464 54.4468 124.223 53.9607 122.657 53.583C119.472 52.8265 116.827 50.6665 116.827 48.8319C116.827 47.9681 116.448 47.5356 115.639 47.4285C114.829 47.32 114.343 46.8339 114.234 46.0786C114.127 45.3757 113.695 44.836 113.263 44.836C112.832 44.836 112.507 44.4583 112.507 44.0259C112.507 43.5946 112.291 43.2157 111.967 43.2157C111.697 43.2157 111.428 42.7296 111.428 42.1364C111.428 40.5161 113.209 40.7878 114.234 42.5688C115.908 45.4305 121.632 51.2062 123.143 51.5303C124.007 51.7471 126.922 52.9885 129.676 54.3383C138.476 58.6034 142.687 64.0563 146.196 75.7174C147.384 79.6061 148.032 80.901 150.299 83.3838C153.323 86.678 159.262 90.3485 165.632 92.941C167.899 93.8583 169.735 94.8841 169.735 95.2081C169.735 96.5031 165.038 100.067 160.395 102.28C155.213 104.764 149.327 106.6 144.522 107.248C141.931 107.571 141.661 107.517 141.661 106.6ZM53.1198 100.013C53.1198 99.7425 53.9299 98.6095 54.9021 97.4217C55.873 96.2875 57.8161 93.7499 59.1659 91.7532C60.5157 89.8089 62.0276 87.9194 62.5137 87.5405C63.269 86.8936 63.3774 87.0556 63.3774 88.8367C63.3774 90.3485 63.1069 90.8882 62.2968 91.1051C61.7035 91.2671 61.2175 91.8604 61.2175 92.4013C61.2175 92.9946 61.0018 93.4258 60.6778 93.4258C60.4073 93.4258 60.1381 93.8047 60.1381 94.236C60.1381 94.6672 59.9225 95.0461 59.5984 95.0461C59.3279 95.0461 59.0575 95.4238 59.0575 95.8563C59.0575 96.2875 58.5714 96.6652 57.9781 96.6652C57.168 96.6652 56.8988 97.044 56.8988 98.015C56.8988 98.7715 56.4663 99.5804 55.873 99.9045C54.5768 100.553 53.1198 100.606 53.1198 100.013ZM65.5374 84.7336C67.8045 82.7369 72.6629 79.3892 73.2026 79.3892C73.473 79.3892 73.6351 79.9837 73.6351 80.739C73.6351 81.6027 73.311 82.0888 72.8249 82.0888C72.3937 82.0888 72.0148 82.358 72.0148 82.6285C72.0148 82.9526 71.6371 83.1682 71.2046 83.1682C70.7734 83.1682 70.3957 83.4387 70.3957 83.7079C70.3957 84.0319 69.8025 84.2488 69.0459 84.2488C68.0737 84.2488 67.6961 84.518 67.6961 85.3281C67.6961 86.2455 67.3184 86.4075 65.6982 86.4075C63.6466 86.3539 63.6479 86.3539 65.5374 84.7336Z" fill="#666666"/>
<path fill-rule="evenodd" clip-rule="evenodd" d="M120.93 70.5349C119.31 74.6916 122.495 79.9289 128.38 82.899C130.593 83.9783 131.889 84.2488 135.291 84.2488C139.502 84.2488 139.502 84.2488 139.502 82.0888C139.502 79.9288 139.502 79.9289 135.075 77.7153C129.622 74.9621 126.383 72.6949 125.464 70.9674C124.601 69.4007 121.47 69.0767 120.93 70.5349ZM75.7952 78.0393C74.9314 78.4718 74.1749 79.1187 74.1749 79.3892C74.1749 79.7132 75.0386 79.9301 76.0644 79.9301C77.3606 79.9301 77.9539 79.6596 77.9539 79.12C77.9539 78.6875 78.2243 78.3098 78.4948 78.3098C78.8176 78.3098 79.0345 77.4461 79.0345 76.4203C79.0345 75.1241 78.764 74.5296 78.2243 74.5296C77.7918 74.5296 77.4142 74.0447 77.4142 73.4502C77.4142 72.8569 77.1986 72.3708 76.8745 72.3708C76.604 72.3708 76.3348 71.9932 76.3348 71.562C76.3348 71.1282 76.1728 70.7518 75.9572 70.7518C75.6867 70.7518 75.0934 69.6712 74.5525 68.3214C73.9592 66.9716 73.3647 65.8922 73.1491 65.8922C72.9335 65.8922 72.4474 64.7044 72.0698 63.1926C71.4752 60.9254 71.1524 60.4929 70.1266 60.4929C69.6401 60.4929 69.3362 60.4929 69.1977 60.6443C68.9674 60.8961 69.1954 61.5671 69.8026 63.3546C71.0386 66.9402 72.7645 70.3376 74.9314 73.4502C76.6112 75.8026 77.225 76.6491 77.0191 77.1743C76.8943 77.4928 76.468 77.6931 75.7952 78.0393Z" fill="#666666"/>
<path d="M59.9213 197.679C57.9246 195.465 57.3301 182.994 58.7884 173.978C62.5138 150.978 82.9755 133.918 106.892 133.918C111.967 133.918 111.967 133.918 111.967 135.808C111.967 137.104 111.59 138.021 110.78 138.669C107.595 141.26 105.489 143.258 105.489 143.798C105.489 144.122 105.866 143.852 106.352 143.205C106.785 142.557 107.487 142.017 107.811 142.017C108.188 142.017 108.782 141.531 109.16 140.936C109.538 140.343 110.024 139.857 110.348 139.857C110.618 139.857 111.481 139.262 112.291 138.507C113.102 137.752 114.074 137.157 114.451 137.157C114.883 137.157 115.207 136.942 115.207 136.671C115.207 135.808 131.134 126.36 132.591 126.36C132.807 126.36 133.024 126.738 133.024 127.17C133.024 128.25 133.401 128.196 137.666 126.467C146.088 123.012 149.76 122.311 159.748 122.311C168.872 122.364 168.98 122.364 174.595 124.308C180.264 126.252 180.264 126.252 174.702 126.305C168.98 126.36 167.684 127.062 172.273 127.601C173.731 127.763 178.536 129.167 182.963 130.787C191.061 133.649 191.061 133.649 193.112 136.618C196.514 141.584 199.862 148.982 201.32 154.919C202.075 157.997 202.615 160.913 202.506 161.398C202.291 162.101 202.237 162.101 202.184 161.291C202.184 160.751 201.859 160.481 201.535 160.643C201.265 160.858 199.753 160.427 198.188 159.671C195.847 158.566 193.47 157.54 191.061 156.593C188.88 155.745 186.72 154.845 184.582 153.894C183.394 153.354 178.805 151.411 174.325 149.575C164.769 145.58 164.66 145.525 157.049 142.124C153.809 140.612 149.975 139.047 148.626 138.616C146.25 137.805 142.417 136.078 135.506 132.73C133.779 131.92 131.998 131.218 131.565 131.218C131.079 131.218 130.864 130.894 131.026 130.463C131.241 129.923 131.079 129.761 130.593 129.977C130.162 130.139 129.946 130.517 130.162 130.841C130.324 131.165 130.216 131.219 129.838 131.003C128.542 130.193 115.207 138.94 105.542 147.037C103.113 149.035 101.062 150.654 100.9 150.654C100.575 150.654 101.115 147.739 101.763 145.418C102.573 142.772 105.273 139.424 107.973 137.752C110.348 136.185 110.348 136.185 108.782 135.97C104.247 135.321 90.5883 138.183 91.128 139.695C91.29 140.073 91.2364 140.397 90.966 140.397C90.7503 140.397 89.4541 141.909 88.1579 143.744C86.0528 146.768 78.2791 156.431 77.4141 157.133C77.2521 157.295 75.6867 159.131 73.9056 161.182C63.7016 173.384 61.8657 175.165 61.7036 172.952C61.65 172.412 61.326 173.546 60.8935 175.49C59.9762 179.917 59.9762 189.688 60.8935 194.818C61.2724 196.923 61.3796 198.704 61.2175 198.704C61.0019 198.704 60.4622 198.273 59.9213 197.679Z" fill="url(#paint1_linear_12_2)"/>
<path d="M37.1925 144.069C37.949 138.399 39.7301 131.435 41.7816 126.09C43.9952 120.475 48.3687 112.863 50.419 110.974C51.5532 109.948 51.5532 109.948 51.3912 112.053C51.284 113.834 51.0135 114.267 50.0426 114.374C49.0704 114.536 48.8 114.915 48.8 116.156C48.8 117.182 48.5307 117.722 47.9898 117.722C47.5586 117.722 47.1797 118.208 47.1797 118.801C47.1797 120.097 44.9674 124.74 44.3728 124.74C44.1572 124.74 43.9416 125.334 43.9416 126.09C43.9416 126.846 43.726 127.439 43.4019 127.439C43.1315 127.439 42.8622 127.817 42.8622 128.25C42.8622 128.681 42.2141 131.165 41.4576 133.756C40.7023 136.402 39.8373 140.397 39.4609 142.719C38.9748 146.227 38.7043 146.875 37.8406 146.875C36.9233 146.875 36.8684 146.606 37.1925 144.069ZM130.864 118.099C130.864 117.128 130.378 114.482 129.784 112.269C129.19 110.055 128.704 107.626 128.704 106.816C128.704 105.304 128.704 105.304 132.753 105.304C136.425 105.304 136.803 105.412 136.803 106.385C136.803 107.355 136.425 107.464 133.563 107.464C130.432 107.464 130.324 107.517 130.864 108.543C131.512 109.731 133.024 117.073 133.024 118.856C133.024 119.504 132.646 119.881 131.943 119.881C131.079 119.881 130.864 119.504 130.864 118.099ZM54.7389 106.654C55.1166 106.221 57.1694 104.711 59.2745 103.306C60.6968 102.398 62.1009 101.463 63.486 100.499C63.7016 100.284 62.2433 100.229 60.1918 100.337C56.8989 100.553 56.4128 100.446 56.1972 99.5818C55.9816 98.6632 55.9267 98.6632 55.8731 99.527C55.8183 100.121 55.387 100.446 54.4697 100.446C52.8494 100.446 52.903 100.284 55.8183 96.5033C56.8453 95.0998 57.9246 93.9669 58.1939 93.9669C58.4107 93.9669 58.5179 94.9378 58.4107 96.1256C58.1939 98.2856 58.1939 98.2856 62.1361 98.2856C66.0784 98.2856 66.0772 98.2856 66.0772 100.175C66.0772 101.471 65.8067 102.065 65.267 102.065C64.8358 102.065 64.4569 102.335 64.4569 102.604C64.4569 102.928 63.8636 103.144 63.1071 103.144C62.2433 103.144 61.7572 103.468 61.7572 103.954C61.7572 104.387 61.3796 104.764 60.9471 104.764C60.5159 104.764 60.137 105.035 60.137 105.304C60.137 105.628 59.6521 105.844 59.0588 105.844C58.4643 105.844 57.9782 106.221 57.9782 106.654C57.9782 107.247 57.385 107.464 56.0339 107.464C54.3613 107.464 54.1457 107.355 54.7389 106.654ZM139.502 106.545C139.502 105.574 139.988 105.412 143.228 105.088C147.169 104.764 157.102 101.795 158.29 100.608C158.668 100.229 159.748 99.9046 160.612 99.9046C161.638 99.9046 162.178 99.6354 162.178 99.0957C162.178 98.6632 162.555 98.2856 162.988 98.2856C163.419 98.2856 163.797 98.07 163.797 97.7459C163.797 97.4754 164.283 97.2062 164.877 97.2062C165.47 97.2062 165.957 96.8822 165.957 96.4497C165.957 96.0184 165.47 95.4787 164.877 95.3167C164.283 95.1547 163.797 94.7222 163.797 94.4517C163.797 94.1813 163.203 93.9669 162.447 93.9669C161.583 93.9669 161.098 93.6428 161.098 93.1568C161.098 92.6707 160.612 92.3466 159.802 92.3466C157.912 92.3466 156.778 91.8069 156.778 90.9432C156.778 90.5107 156.239 90.1879 155.428 90.1879C154.618 90.1879 154.079 89.8638 154.079 89.4313C154.079 88.9453 153.432 88.5676 152.622 88.4592C151.325 88.2971 151.056 88.0279 150.948 86.4625C150.732 84.5717 150.732 84.5717 152.567 85.9764C155.483 88.19 160.828 91.1052 165.146 92.9411C167.36 93.8585 169.304 94.7758 169.466 95.0463C170.06 95.9636 165.308 99.6354 160.288 102.118C154.511 104.926 148.95 106.6 143.119 107.193C139.771 107.571 139.502 107.517 139.502 106.545ZM59.707 91.1588C61.9205 87.9195 66.4 83.8177 70.6663 81.0632C72.9871 79.5513 75.147 78.3087 75.5247 78.3087C75.9036 78.3087 76.4968 77.9323 76.8745 77.4998C77.3606 76.9065 77.2522 76.3656 76.1728 74.9622C72.8263 70.5899 68.2907 60.6551 69.046 59.4137C69.2081 59.0896 69.6941 58.874 70.1266 58.874C70.9368 58.874 73.0955 64.7581 73.0955 67.0801C73.0955 68.2143 73.366 68.592 74.1749 68.592C74.8778 68.592 75.3626 69.0781 75.5795 69.9418C75.7415 70.6971 76.1192 71.2916 76.3897 71.2916C76.6589 71.2916 76.8757 71.6693 76.8757 72.1018C76.8757 72.533 77.145 72.9119 77.4142 72.9119C77.7382 72.9119 77.9551 73.3968 77.9551 73.99C77.9551 74.5845 78.2792 75.0706 78.7104 75.0706C79.6277 75.0706 80.1138 76.2584 80.1138 78.3636C80.1138 79.6598 79.8982 79.929 78.764 79.929C77.4142 79.929 73.4731 81.5493 73.2039 82.251C73.0955 82.4666 72.6643 82.6286 72.2318 82.6286C71.7993 82.6286 71.4765 82.8991 71.4765 83.1683C71.4765 83.4924 71.1524 83.708 70.7199 83.708C70.2887 83.708 69.8562 84.0869 69.6405 84.5181C69.4785 84.9506 68.8304 85.3283 68.2371 85.3283C67.6426 85.3283 67.1565 85.6523 67.1565 86.03C67.1565 87.0558 63.7552 90.1879 62.6758 90.1879C62.0813 90.1879 61.7585 90.6191 61.7585 91.5377C61.7585 92.6719 61.488 92.8863 60.0846 92.8863C58.4643 92.8863 58.4656 92.8863 59.707 91.1588ZM131.836 84.4109C130.972 84.3025 130.324 83.9249 130.324 83.6544C130.324 83.3839 129.729 83.1683 128.974 83.1683C128.218 83.1683 127.624 82.9527 127.624 82.6286C127.624 82.3594 127.247 82.089 126.814 82.089C126.383 82.089 126.004 81.8733 126.004 81.5493C126.004 81.2788 125.681 81.0096 125.302 81.0096C124.547 81.0096 122.225 78.634 122.225 77.8239C122.225 77.5534 121.956 77.2294 121.577 77.1222C121.254 77.0137 120.875 75.4483 120.713 73.5575C120.498 70.211 120.498 70.211 122.982 70.211C124.763 70.211 125.464 70.4267 125.464 70.9676C125.464 71.3988 125.843 71.8313 126.274 72.0469C126.707 72.209 127.085 72.6951 127.085 73.1811C127.085 73.6124 127.571 73.9913 128.164 73.9913C128.759 73.9913 129.243 74.2069 129.243 74.4774C129.243 74.7466 129.838 75.1255 130.593 75.2863C131.565 75.5567 131.943 75.988 131.943 76.9601C131.943 77.7154 131.727 78.31 131.457 78.31C130.431 78.31 124.547 73.9364 123.845 72.6415C122.711 70.5351 121.956 72.3174 122.982 74.6917C124.601 78.6876 130.755 82.6286 135.237 82.6286C138.476 82.6286 138.908 81.9805 136.532 80.8463C134.211 79.767 134.103 78.8496 136.263 78.8496C139.123 78.8496 140.582 79.8754 140.582 81.9269C140.582 83.5472 140.42 83.7092 138.963 83.7092C138.098 83.7092 137.342 83.9785 137.342 84.2489C137.342 84.7886 134.751 84.8422 131.836 84.4109ZM147.06 83.6544C147.06 83.3303 146.683 82.7371 146.25 82.3046C145.819 81.8185 145.441 80.9012 145.441 80.1982C145.441 79.4977 145.279 78.8496 145.009 78.7412C144.415 78.472 142.202 71.1832 142.202 69.4557C142.202 66.4856 143.55 68.43 145.495 74.0985C146.521 77.2842 148.032 80.8476 148.843 82.0341C150.3 84.2489 150.3 84.2489 148.681 84.2489C147.817 84.2489 147.06 83.9785 147.06 83.6544ZM139.502 65.6767C139.502 65.2442 139.232 64.8117 138.908 64.7046C138.584 64.5974 138.422 63.6788 138.53 62.653C138.692 60.7635 138.692 60.7635 140.474 63.1391C142.58 65.9995 142.633 66.432 140.852 66.432C140.042 66.432 139.502 66.1092 139.502 65.6767ZM133.024 58.874C133.024 58.6036 132.646 58.3331 132.213 58.3331C131.781 58.3331 131.403 57.847 131.403 57.2537C131.403 56.4436 131.026 56.1744 129.946 56.1744C129.19 56.1744 126.761 55.5263 124.601 54.7161C121.308 53.4747 120.606 52.9887 120.606 52.0165C120.606 50.7751 120.606 50.7751 124.547 52.1785C128.65 53.6904 135.075 57.2001 136.263 58.55C136.856 59.3053 136.694 59.4137 134.967 59.4137C133.887 59.4137 133.024 59.1968 133.024 58.874ZM91.0196 49.9114C89.6698 48.994 89.3993 47.5358 90.5883 47.5358C91.0196 47.5358 91.4521 47.1581 91.6677 46.7256C91.8297 46.2944 92.261 45.9155 92.6399 45.9155C93.0175 45.9155 93.9897 45.5378 94.8534 45.1602C95.6623 44.7289 96.3104 44.5669 96.3104 44.7825C96.3104 45.0518 97.7139 45.4307 99.4426 45.5927C101.115 45.7547 104.409 46.2408 106.73 46.5648C110.888 47.213 110.888 47.213 110.888 48.994C110.888 50.7751 110.888 50.7751 101.548 50.7751C93.9897 50.7751 91.9918 50.6131 91.0196 49.9114ZM116.125 49.3168C115.908 49.1548 115.746 48.3995 115.746 47.6978C115.746 46.7805 115.424 46.4564 114.613 46.4564C113.965 46.4564 113.371 46.0239 113.21 45.3758C113.048 44.7825 112.724 44.2965 112.453 44.2965C112.183 44.2965 111.967 43.5947 111.967 42.6762C111.967 41.8137 112.183 41.0571 112.4 41.0571C112.669 41.0571 114.074 42.569 115.531 44.4049C120.011 50.127 119.796 49.6957 118.015 49.6957C117.151 49.6957 116.287 49.5325 116.125 49.3168Z" fill="#999999"/>
<path d="M59.9762 197.625C59.2209 196.761 58.356 196.006 58.1403 196.006C57.1682 196.006 54.3613 192.388 53.4976 190.067C51.5533 184.668 50.96 180.673 50.96 172.25C50.96 159.617 53.2284 150.709 59.2745 139.641C64.7274 129.599 74.823 118.261 83.1376 112.755C88.9681 108.867 97.5531 104.926 103.599 103.307C108.35 102.064 110.078 101.902 117.906 101.849C125.087 101.849 127.138 102.011 128.435 102.713C130.917 104.009 136.532 105.304 139.826 105.304C141.985 105.304 142.742 105.521 142.742 106.06C142.742 107.248 139.988 107.626 134.805 107.193C130.378 106.816 130.162 106.816 130.54 107.788C131.836 111.081 132.591 115.561 132.862 121.555C133.186 128.358 133.186 128.358 128.381 130.894C122.009 134.296 115.639 138.561 109.106 143.853C100.846 150.547 101.17 150.331 101.17 149.466C101.17 145.687 104.679 140.019 108.459 137.697C109.485 137.05 110.348 136.294 110.348 136.024C110.348 135.268 103.923 135.43 99.1186 136.347C79.3586 140.127 63.5932 156.107 60.4087 175.598C59.1661 183.264 59.545 193.522 61.2725 197.571C62.0826 199.461 61.5417 199.515 59.9762 197.625ZM37.463 160.427C36.5993 158.753 36.8149 157.674 38.0027 157.674C38.8664 157.674 39.0833 158.051 39.0833 159.563C39.0833 161.668 38.3268 162.046 37.463 160.427ZM36.9233 148.117C36.9233 145.363 38.4888 136.888 39.8922 132.137C41.5125 126.576 44.1573 120.421 44.9674 120.421C46.0468 120.421 45.5607 123.228 43.6712 127.925C41.404 133.594 39.7302 140.397 39.2441 145.687C38.9749 148.982 38.758 149.575 37.9479 149.575C37.1926 149.575 36.9233 149.197 36.9233 148.117ZM45.021 119.557C45.021 118.801 48.3688 113.51 50.0962 111.513C51.9857 109.353 51.9858 109.353 52.0406 111.405C52.0406 113.025 51.8786 113.403 50.96 113.403C50.1498 113.403 49.8806 113.78 49.8806 114.752C49.8806 115.616 49.5566 116.102 49.0705 116.102C48.6392 116.102 48.2603 116.587 48.2603 117.128C48.2603 119.018 47.6122 119.881 46.316 119.881C45.6155 119.881 45.021 119.719 45.021 119.557ZM53.9837 107.409C54.5234 106.762 57.1694 104.818 59.8142 103.09C63.7553 100.499 64.4034 99.9045 63.2156 99.9045C62.4054 99.9045 61.7573 99.6888 61.7573 99.4196C61.7573 98.7715 63.162 98.2854 65.0515 98.2854C66.4549 98.2854 66.6169 98.4474 66.6169 100.121C66.6169 102.011 65.9152 102.604 63.8624 102.604C63.324 102.604 62.8379 102.982 62.8379 103.414C62.8379 103.847 62.4603 104.224 62.0278 104.224C61.5953 104.224 61.2176 104.494 61.2176 104.764C61.2176 105.088 60.84 105.304 60.4075 105.304C59.9762 105.304 59.5973 105.574 59.5973 105.843C59.5973 106.167 59.1661 106.383 58.5728 106.383C58.0332 106.383 57.4386 106.869 57.2766 107.464C57.061 108.327 56.5213 108.543 54.9546 108.543C52.9579 108.543 52.9592 108.543 53.9837 107.409ZM143.821 105.952C143.821 104.872 145.873 104.224 149.382 104.224C150.192 104.224 150.839 104.009 150.839 103.685C150.839 103.414 151.596 103.145 152.46 103.145C153.377 103.145 154.079 102.928 154.079 102.604C154.079 102.335 154.673 102.064 155.428 102.064C156.185 102.064 156.778 101.849 156.778 101.525C156.778 101.254 157.535 100.985 158.399 100.985C159.424 100.985 160.018 100.715 160.018 100.229C160.018 99.3648 161.152 98.8251 163.041 98.8251C163.959 98.8251 164.338 98.501 164.338 97.7457C164.338 96.9356 164.715 96.6651 165.741 96.6651C166.982 96.6651 167.036 96.558 166.281 95.8562C165.848 95.4238 165.201 95.0461 164.822 95.0461C164.391 95.0461 163.041 94.6684 161.8 94.1824C160.233 93.5343 159.478 92.941 159.478 92.2929C159.478 91.4827 159.045 91.2671 157.588 91.2671C156.292 91.2671 155.699 90.9966 155.699 90.457C155.699 89.9709 155.213 89.6468 154.349 89.6468C153.27 89.6468 152.999 89.3776 152.999 88.297C152.999 87.5417 153.108 86.9484 153.27 86.9484C153.432 86.9484 155.428 88.0278 157.75 89.3228C160.018 90.6726 163.527 92.4013 165.579 93.2102C167.577 94.0203 169.196 94.9925 169.196 95.3702C169.196 96.5579 164.822 99.8509 160.342 102.011C155.861 104.171 150.192 106.005 146.143 106.654C144.091 106.978 143.821 106.924 143.821 105.952ZM53.6596 99.9045C53.6596 99.6352 54.3077 98.6095 55.1715 97.6373C55.9816 96.6651 57.5471 94.5064 58.6813 92.8325C59.8155 91.1587 61.2176 89.3228 61.7573 88.8367C62.8379 87.8645 62.8379 87.9193 62.8379 89.8637C62.8379 91.4291 62.6223 91.9688 61.7573 92.1844C61.164 92.3465 60.678 92.941 60.678 93.4807C60.678 94.0739 60.4623 94.5064 60.1919 94.5064C59.9227 94.5064 59.5438 95.0997 59.3817 95.8562C59.1125 96.8272 58.6813 97.2061 57.7091 97.2061C56.9525 97.2061 56.3593 97.4753 56.3593 97.7457C56.3593 98.0698 57.1146 98.2854 57.9796 98.2854C59.9227 98.2854 60.1919 99.6352 58.4108 100.121C56.5213 100.607 53.6596 100.499 53.6596 99.9045ZM64.9966 85.5986C64.9966 85.1125 71.7458 80.3613 74.2821 79.0651C75.8488 78.3098 77.1986 77.9309 77.7931 78.1478C78.7105 78.5254 78.7105 78.4718 77.8467 77.2292C72.6631 69.8881 69.4238 63.0841 68.9389 58.6034C68.8305 57.4156 68.6149 53.1505 68.4528 49.1011C68.1824 41.7051 68.1824 41.7051 73.4732 42.7309C78.8725 43.703 85.8908 45.6997 86.863 46.4563C87.1871 46.7255 88.3748 47.0495 89.5626 47.2664C90.7504 47.482 92.0454 47.9145 92.4231 48.2386C92.802 48.5078 93.6109 48.8319 94.3126 48.8867C94.9607 48.939 95.8244 49.0475 96.2033 49.1011C97.4447 49.2095 96.8502 50.5593 95.1227 51.5851C93.9349 52.2868 91.9918 52.6645 89.0217 52.8265C85.2427 53.0434 84.1634 52.8813 81.1945 51.6923C79.3038 50.8821 77.6847 50.3437 77.5763 50.4509C77.3071 50.7214 82.4359 58.1173 85.7824 62.3824C87.996 65.1905 88.7525 66.5939 88.7525 67.8901C88.7525 69.5628 88.6441 69.6725 86.8082 69.6725C84.541 69.6725 83.1376 70.3193 80.8156 72.5329C79.0881 74.1532 78.4949 75.6102 79.5742 75.6102C79.8983 75.6102 80.1139 76.4203 80.1139 77.4461C80.1139 79.0115 79.8983 79.3904 78.44 79.8753C77.4678 80.1993 76.1193 80.4685 75.4712 80.4685C74.661 80.4685 74.1749 80.7926 74.1749 81.2787C74.1749 81.7112 73.7973 82.0888 73.3648 82.0888C72.9335 82.0888 72.5546 82.358 72.5546 82.6285C72.5546 82.9525 72.1782 83.1682 71.7457 83.1682C71.3133 83.1682 70.9356 83.4386 70.9356 83.7079C70.9356 84.0319 70.4495 84.2488 69.8562 84.2488C69.2617 84.2488 68.7769 84.6264 68.7769 85.0589C68.7769 85.5986 68.1824 85.8691 66.8874 85.8691C65.8604 85.8691 64.9966 85.7606 64.9966 85.5986ZM130.486 84.1939C129.514 83.9247 128.704 83.4386 128.704 83.1682C128.704 82.8441 128.219 82.6285 127.624 82.6285C127.031 82.6285 126.545 82.4129 126.545 82.0888C126.545 81.8183 126.167 81.5491 125.735 81.5491C125.195 81.5491 124.925 81.009 124.925 79.9288C124.925 78.4706 124.763 78.3086 123.306 78.3086C122.063 78.3086 121.685 78.0942 121.685 77.2305C121.685 76.6359 121.47 76.1498 121.146 76.1498C120.875 76.1498 120.606 75.2861 120.606 74.2603C120.606 73.2346 120.875 72.3708 121.146 72.3708C121.47 72.3708 121.685 71.7776 121.685 71.021C121.685 69.8332 121.902 69.6712 123.575 69.6712C125.248 69.6712 125.519 69.8332 125.843 71.2915C126.059 72.4257 126.437 72.9118 127.193 72.9118C127.733 72.9118 128.326 73.2882 128.488 73.7207C128.704 74.1519 129.136 74.5308 129.567 74.5308C130 74.5308 130.324 74.9085 130.324 75.341C130.324 75.7722 130.81 76.1511 131.403 76.1511C132.7 76.1511 137.342 78.3634 137.342 78.9579C137.342 79.1735 137.937 79.3892 138.692 79.3892C139.934 79.3892 140.042 79.6048 140.042 81.7648C140.042 83.7627 139.826 84.1952 138.854 84.4644C137.073 84.8969 132.484 84.7885 130.486 84.1939ZM137.828 82.3593C138.908 82.0352 138.26 81.5491 133.51 79.2271C129.784 77.3912 127.031 75.6102 125.357 73.9363C122.658 71.2366 121.902 71.2915 122.496 74.0983C123.197 77.2305 128.65 81.5491 133.293 82.6833C134.913 83.061 135.506 83.0074 137.828 82.3593ZM146.521 82.0888C146.521 81.0086 146.251 80.4685 145.71 80.4685C145.17 80.4685 144.9 79.9288 144.9 78.8495C144.9 77.9858 144.685 77.2292 144.469 77.2292C144.253 77.2292 143.335 75.0705 142.471 72.3708C141.554 69.726 140.69 67.5125 140.473 67.5125C140.204 67.5125 140.042 67.1336 140.042 66.7023C140.042 66.2711 139.826 65.8922 139.502 65.8922C139.232 65.8922 138.963 65.5146 138.963 65.0821C138.963 64.6508 138.746 64.2719 138.422 64.2719C138.152 64.2719 137.882 63.4082 137.882 62.3288C137.882 61.0874 138.098 60.5465 138.477 60.817C140.096 61.7891 143.443 68.2142 145.171 73.6671C146.25 76.96 147.708 80.577 148.464 81.7112C149.76 83.7091 149.76 83.7091 148.14 83.7091C146.683 83.7091 146.521 83.5471 146.521 82.0888ZM133.563 59.4123C133.563 59.1431 133.186 58.8739 132.753 58.8739C132.322 58.8739 131.944 58.657 131.944 58.4414C131.944 58.2258 131.079 57.6861 130.054 57.3072C129.028 56.9295 128.164 56.3899 128.164 56.1194C128.164 55.8489 127.678 55.6333 127.085 55.6333C126.491 55.6333 126.005 55.4177 126.005 55.0936C126.005 54.8244 125.519 54.554 124.925 54.554C124.331 54.554 122.604 54.0679 121.039 53.4746C118.122 52.3404 110.78 51.3146 105.651 51.3146C103.546 51.3146 102.789 51.099 102.789 50.5593C102.789 50.1268 102.466 49.642 102.142 49.5336C101.763 49.3715 103.275 49.2095 105.489 49.1559C109.538 49.0475 109.538 49.0475 105.759 48.3458C103.305 47.9106 100.838 47.5506 98.362 47.2664C96.3105 47.0495 94.6915 46.6719 94.6915 46.4014C94.6915 46.131 95.2847 44.998 95.9877 43.8651C96.6894 42.7845 97.4447 41.1654 97.6067 40.2468C99.1186 31.8251 98.7945 32.2576 102.249 34.0923C103.977 35.0108 106.893 36.9539 108.675 38.4122C110.51 39.8704 112.184 41.057 112.454 41.057C112.669 41.057 113.533 41.9743 114.289 43.1085C115.045 44.1891 116.827 46.4563 118.339 48.0753C120.606 50.6678 121.685 51.3159 125.573 52.8265C129.892 54.4468 136.263 58.0637 137.018 59.36C137.289 59.7376 136.749 59.9532 135.506 59.9532C134.427 59.9532 133.563 59.7364 133.563 59.4123Z" fill="#CCCCCC"/>
<path d="M55.4405 193.738C49.7184 187.854 39.6228 171.819 39.6228 168.687C39.6228 168.147 39.2987 166.744 38.8662 165.501C37.1388 160.589 36.7599 157.188 37.0839 150.385C37.6785 138.885 39.9456 130.031 44.8588 120.043C48.7998 111.999 53.713 106.816 61.974 101.849C65.2133 99.9058 65.2133 99.9058 59.3815 99.9058C53.4974 99.9058 53.4974 99.9058 54.9544 98.1235C55.711 97.2062 57.1692 95.2082 58.1402 93.6964C62.5673 87.0557 72.016 79.2272 76.4967 78.4719C77.5761 78.3099 78.4947 78.0395 78.4947 77.8238C78.4947 77.6618 77.955 76.7981 77.252 75.9343C76.0106 74.3689 76.0106 74.3689 78.1706 71.9933C80.8154 69.0768 81.8412 68.4835 84.8649 68.0523C87.1333 67.7818 87.1333 67.7818 84.1632 64.0016C78.2778 56.6056 72.3937 46.9961 73.2038 46.1323C73.4194 45.9703 76.0642 46.9961 79.1415 48.4007C84.0547 50.7215 85.1353 51.0455 88.2126 51.0455C90.8038 51.0455 92.2073 50.7751 93.3415 50.0198C94.7449 49.1012 95.555 49.0476 102.465 49.3716C114.829 49.9662 119.148 50.5594 124.223 52.4489C136.263 56.8761 140.852 61.4652 144.847 73.1262C146.034 76.5288 147.276 79.929 147.653 80.5771C149.598 84.4109 158.019 90.4035 165.579 93.4272C167.251 94.074 168.818 94.8842 168.98 95.1546C170.059 96.8821 158.344 103.63 150.839 105.574C145.386 106.978 136.64 107.248 132.16 106.114C130.108 105.628 127.733 104.818 126.814 104.333C125.573 103.685 123.575 103.468 117.906 103.523C108.89 103.576 102.573 105.035 94.2052 109.083C86.5923 112.808 81.7876 116.048 76.1191 121.5C64.7808 132.353 56.4663 146.822 53.6059 160.643C52.3096 166.744 52.256 177.488 53.389 182.508C54.3076 186.449 56.6295 192.982 57.7625 194.818C59.0039 196.708 57.8709 196.222 55.4405 193.738ZM138.53 82.1973C138.8 81.9269 137.234 80.8475 134.318 79.4429C128.866 76.8517 124.6 73.8828 124.114 72.371C123.683 71.0747 122.873 70.9675 122.442 72.1005C121.254 75.0706 126.059 80.3078 131.889 82.4666C133.941 83.2231 137.666 83.0611 138.53 82.1973Z" fill="white"/>
</g>
<defs>
<linearGradient id="paint0_linear_12_2" x1="22.6161" y1="20.811" x2="19.9165" y2="23.2414" gradientUnits="userSpaceOnUse">
<stop stop-color="#8D8E8D"/>
<stop offset="0.01" stop-color="#8B8C8B"/>
<stop offset="0.02" stop-color="#8A8C8A"/>
<stop offset="0.03" stop-color="#8A8B8A"/>
<stop offset="0.04" stop-color="#828382"/>
<stop offset="0.05" stop-color="#878987"/>
<stop offset="0.12" stop-color="#848584"/>
<stop offset="0.13" stop-color="#838583"/>
<stop offset="0.14" stop-color="#838483"/>
<stop offset="0.24" stop-color="#7D7E7D"/>
<stop offset="0.25" stop-color="#7C7E7C"/>
<stop offset="0.26" stop-color="#7C7D7C"/>
<stop offset="0.28" stop-color="#7B7C7B"/>
<stop offset="0.29" stop-color="#7A7C7A"/>
<stop offset="0.3" stop-color="#7A7B7A"/>
<stop offset="0.31" stop-color="#797B79"/>
<stop offset="0.37" stop-color="#777877"/>
<stop offset="0.38" stop-color="#767876"/>
<stop offset="0.92" stop-color="#616261"/>
<stop offset="0.93" stop-color="#5F605E"/>
<stop offset="0.94" stop-color="#5F5F5E"/>
<stop offset="0.98" stop-color="#5D5E5C"/>
<stop offset="1" stop-color="#5D5D5D"/>
</linearGradient>
<linearGradient id="paint1_linear_12_2" x1="22.6161" y1="20.811" x2="19.9165" y2="23.2414" gradientUnits="userSpaceOnUse">
<stop stop-color="#8D8E8D"/>
<stop offset="0.01" stop-color="#8B8C8B"/>
<stop offset="0.02" stop-color="#8A8C8A"/>
<stop offset="0.03" stop-color="#8A8B8A"/>
<stop offset="0.04" stop-color="#828382"/>
<stop offset="0.05" stop-color="#878987"/>
<stop offset="0.12" stop-color="#848584"/>
<stop offset="0.13" stop-color="#838583"/>
<stop offset="0.14" stop-color="#838483"/>
<stop offset="0.24" stop-color="#7D7E7D"/>
<stop offset="0.25" stop-color="#7C7E7C"/>
<stop offset="0.26" stop-color="#7C7D7C"/>
<stop offset="0.28" stop-color="#7B7C7B"/>
<stop offset="0.29" stop-color="#7A7C7A"/>
<stop offset="0.3" stop-color="#7A7B7A"/>
<stop offset="0.31" stop-color="#797B79"/>
<stop offset="0.37" stop-color="#777877"/>
<stop offset="0.38" stop-color="#767876"/>
<stop offset="0.92" stop-color="#616261"/>
<stop offset="0.93" stop-color="#5F605E"/>
<stop offset="0.94" stop-color="#5F5F5E"/>
<stop offset="0.98" stop-color="#5D5E5C"/>
<stop offset="1" stop-color="#5D5D5D"/>
</linearGradient>
<clipPath id="clip0_12_2">
<rect width="256" height="256" fill="white"/>
</clipPath>
</defs>
</svg>
