<svg width="256" height="256" viewBox="0 0 256 256" fill="none" xmlns="http://www.w3.org/2000/svg">
<g clip-path="url(#clip0_12_2)">
<rect width="256" height="256" fill="white"/>
<rect width="256" height="256" fill="#333333"/>
<path d="M201.589 186.719C201.642 185.423 201.859 181.968 202.129 178.999C203.425 164.746 199.753 150.168 191.979 138.669C189.333 134.728 189.333 134.728 180.372 131.758C171.41 128.788 171.409 128.789 171.356 126.791C171.356 124.848 171.301 124.795 168.548 124.2C160.179 122.364 152.027 123.174 141.607 126.9C138.261 128.087 134.751 129.06 133.834 129.06C132.105 129.06 132.105 129.06 131.727 123.174C131.565 119.935 130.917 115.399 130.324 113.132C128.381 105.574 127.948 106.005 137.504 105.681C146.52 105.412 150.623 104.494 157.697 101.254C162.339 99.0955 166.766 96.1803 166.118 95.6394C165.903 95.4237 164.337 94.6684 162.717 94.0203C157.535 91.9688 151.487 88.0278 148.68 85.0041C146.412 82.52 145.765 81.2251 144.577 77.3376C140.635 64.2183 134.967 58.0101 123.035 53.7438C121.578 53.2041 119.418 51.9091 118.284 50.8298C115.207 47.9681 111.967 43.541 111.967 42.2983C111.967 41.2726 112.4 41.1641 116.989 40.8401C134.211 39.6535 144.307 40.516 156.347 44.2427C182.207 52.3404 201.859 69.4007 213.196 93.6427C221.133 110.595 223.509 132.244 219.621 151.735C218.38 158.105 215.248 167.121 212.225 173.329C208.931 180.025 203.209 188.986 202.291 188.986C201.805 188.986 201.589 188.176 201.589 186.719ZM35.8974 155.405C34.3855 147.523 34.0079 143.043 34.0079 132.028C33.953 121.878 34.1699 119.287 35.1421 114.212C38.759 96.5031 47.1272 80.6305 59.5448 68.1057C65.4825 62.0583 69.532 58.3342 70.0716 58.3342C70.1801 58.3342 70.7198 59.6292 71.2594 61.1946C72.4472 64.9213 74.7156 69.2935 77.0912 72.64C78.3874 74.4224 79.0343 75.9342 79.0343 77.0672C79.0343 78.6874 78.7639 78.9579 75.9034 80.4149C69.532 83.6542 64.4031 88.1898 59.652 94.9376C56.8987 98.8251 56.8987 98.8251 60.6777 98.8251C64.4567 98.8251 64.4567 98.8251 64.4567 100.661C64.4567 102.28 64.1327 102.659 62.0276 103.9C60.6777 104.71 58.1401 106.6 56.3055 108.057C45.7238 116.911 38.0573 136.509 38.0025 154.866C38.0025 157.403 37.8405 158.213 37.2472 158.213C36.7075 158.213 36.275 157.241 35.8974 155.405Z" fill="#333333"/>
<path d="M136.263 81.8184C136.263 80.0373 136.371 79.9289 138.152 79.9289C139.933 79.9289 140.042 80.0373 140.042 81.8184C140.042 83.5994 139.933 83.7079 138.152 83.7079C136.371 83.7079 136.263 83.6007 136.263 81.8184ZM121.146 72.1004C121.146 70.3181 121.254 70.2109 123.035 70.2109C124.816 70.2109 124.925 70.3193 124.925 72.1004C124.925 73.8815 124.817 73.9899 123.035 73.9899C121.253 73.9899 121.146 73.8827 121.146 72.1004Z" fill="#333333"/>
<path d="M175.728 219.761C180.317 213.012 182.963 203.995 181.667 199.353C180.803 196.167 178.05 193.576 174.649 192.765C169.196 191.471 162.986 193.414 143.281 202.7C132.105 207.991 123.197 211.176 116.017 212.525C110.455 213.551 96.1483 213.389 90.9123 212.201C78.3862 209.448 66.2391 204.104 61.4879 199.244C58.7883 196.491 58.7883 196.491 58.7883 185.856C58.7883 177.487 59.0039 174.355 59.7604 171.062C60.7326 166.851 60.7326 166.851 62.6221 166.851C64.0255 166.851 64.4568 167.068 64.4568 167.823C64.5116 168.578 64.7272 168.471 65.6994 167.337C73.3646 158.214 75.5246 155.73 75.795 155.514C75.957 155.352 78.0634 152.923 80.3842 150.115C84.5408 145.094 84.5944 144.986 83.191 144.824C81.9496 144.662 81.7327 144.393 81.7327 142.772C81.7327 141.476 82.0032 140.936 82.5429 140.936C82.9754 140.936 83.353 140.721 83.353 140.45C83.353 139.857 88.6439 137.535 93.1246 136.185C97.5517 134.835 106.568 133.756 109.645 134.242C111.805 134.566 111.967 134.675 111.914 136.294C111.914 137.697 111.481 138.237 109.43 139.587C108.026 140.505 106.299 142.071 105.542 143.096C103.977 145.201 104.301 145.039 108.782 141.369C112.724 138.183 122.657 131.704 127.3 129.329C131.512 127.169 131.512 127.169 131.241 121.5C131.079 118.37 130.539 114.482 130.053 112.863C129.567 111.243 129.028 108.976 128.866 107.895C128.596 105.843 128.596 105.843 130.486 105.843C131.674 105.843 132.483 106.168 132.699 106.654C132.915 107.194 132.645 107.464 131.889 107.464C131.026 107.464 130.863 107.679 131.134 108.436C132.105 111.027 133.023 116.425 133.347 121.662C133.563 124.848 133.779 127.439 133.832 127.439C133.886 127.439 136.64 126.467 139.988 125.279C149.813 121.771 159.369 120.637 167.36 122.095C171.571 122.85 181.074 125.928 181.074 126.522C181.074 126.846 179.724 126.9 177.941 126.684C171.678 125.982 172.866 126.953 181.991 130.031C190.954 133.108 190.954 133.108 193.598 137.049C201.697 149.035 205.206 163.882 203.802 180.241C203.478 183.911 203.316 187.097 203.478 187.367C203.64 187.583 203.316 188.338 202.777 189.041C202.237 189.743 201.103 192.064 200.293 194.115C196.622 203.402 189.549 212.904 182.153 218.411C180.371 219.761 174.433 223 173.785 223C173.623 223 174.487 221.542 175.728 219.761ZM199.16 154.38C198.026 149.953 192.411 138.345 191.223 137.805C190.954 137.697 190.792 137.319 190.792 136.995C190.792 136.618 190.251 136.023 189.604 135.592C187.659 134.351 173.514 129.599 170.599 129.167C167.846 128.789 167.846 128.789 167.846 126.522C167.846 124.254 167.846 124.254 164.391 123.876C159.478 123.336 152.351 123.93 147.6 125.279C142.579 126.684 135.129 129.599 135.399 130.085C135.83 130.732 146.628 135.754 150.246 136.995C151.596 137.428 155.428 138.993 158.668 140.505C166.28 143.906 166.388 143.96 175.945 147.955C180.425 149.791 185.015 151.735 186.202 152.275C187.39 152.814 190.305 154.002 192.681 154.974C195.057 155.892 197.594 156.971 198.35 157.35C199.105 157.729 199.753 157.997 199.861 157.89C199.97 157.835 199.646 156.269 199.16 154.38Z" fill="url(#paint0_linear_12_2)"/>
<path d="M36.9231 159.347C36.3286 158.214 36.1665 149.575 36.7062 147.577C36.9231 146.875 37.4079 146.336 37.7868 146.336C38.3801 146.336 38.5421 147.739 38.5421 153.354C38.5421 160.21 38.1657 161.615 36.9231 159.347ZM37.1923 142.772C38.056 135.592 42.2139 122.688 43.833 122.149C44.9672 121.771 44.5895 124.795 42.8608 129.113C41.2418 133.325 39.0818 142.017 39.0818 144.446C39.0818 145.472 38.8126 145.796 37.9476 145.796C36.8683 145.796 36.8147 145.634 37.1923 142.772ZM45.0208 118.856C45.0208 118.585 46.2622 116.534 47.7204 114.266C50.7977 109.731 55.0092 105.681 59.814 102.713C63.0533 100.715 63.0533 100.715 61.1638 100.391C60.138 100.175 59.7604 100.013 60.3001 99.9594C60.7861 99.9594 61.2174 99.5269 61.2174 99.0956C61.2174 98.5011 61.8119 98.2855 63.3774 98.2855C65.4837 98.2855 65.5373 98.3391 65.5373 100.175C65.5373 101.525 65.2669 102.227 64.6187 102.442C64.0791 102.659 63.3225 103.144 62.9449 103.523C62.5672 103.9 61.8655 104.224 61.433 104.224C61.0018 104.224 60.6777 104.494 60.6777 104.764C60.6777 105.088 60.3537 105.304 59.9212 105.304C59.4899 105.304 59.0574 105.681 58.8418 106.114C58.6798 106.545 58.0317 106.924 57.4384 106.924C56.8439 106.924 56.359 107.247 56.359 107.626C56.359 108.49 51.9319 112.862 51.0682 112.862C50.6893 112.862 50.4201 113.348 50.4201 113.942C50.4201 114.536 50.2032 115.022 49.8804 115.022C49.6099 115.022 49.3395 115.399 49.3395 115.832C49.3395 116.263 49.1238 116.642 48.8534 116.642C48.5842 116.642 48.2053 117.235 48.0432 117.992C47.774 118.963 47.3428 119.34 46.3706 119.34C45.6153 119.34 45.0208 119.125 45.0208 118.856ZM141.661 106.6C141.661 105.736 142.309 105.412 145.333 104.926C149.975 104.116 155.806 102.497 156.562 101.795C156.886 101.525 158.452 100.661 160.071 99.9045C161.691 99.1492 163.095 98.3939 163.148 98.1771C163.257 97.9079 163.581 97.7458 163.851 97.7458C164.122 97.7458 164.769 97.3133 165.308 96.7737C166.118 95.9635 166.172 95.6395 165.632 95.1546C165.255 94.7757 164.444 94.5065 163.796 94.5065C163.203 94.5065 162.717 94.2896 162.717 93.9668C162.717 93.6964 162.231 93.4259 161.691 93.4259C160.071 93.4259 158.938 92.8326 158.938 92.0225C158.938 91.5912 158.398 91.2672 157.642 91.2672C156.886 91.2672 155.968 90.9431 155.59 90.5106C155.159 90.133 154.294 89.5933 153.647 89.4313C152.999 89.2156 152.459 88.676 152.459 88.2435C152.459 87.811 152.027 87.4882 151.487 87.4882C150.408 87.4882 147.6 84.8421 147.6 83.8164C147.6 83.4387 147.384 83.1683 147.06 83.1683C146.79 83.1683 146.52 82.4665 146.52 81.548C146.52 80.577 146.25 79.9289 145.819 79.9289C145.171 79.9289 142.741 72.9106 142.741 71.0211C142.741 70.5886 142.524 70.211 142.255 70.211C141.986 70.211 141.337 69.1316 140.743 67.7805C140.204 66.432 139.609 65.3526 139.394 65.3526C139.123 65.3526 138.961 64.8665 138.961 64.272C138.961 63.6787 138.638 63.1926 138.259 63.1926C137.396 63.1926 134.642 60.3858 134.642 59.5208C134.642 59.1432 134.156 58.8727 133.563 58.8727C132.969 58.8727 132.482 58.6571 132.482 58.4415C132.482 58.2258 131.619 57.6862 130.593 57.3073C129.567 56.9296 128.703 56.2815 128.703 55.849C128.703 55.3642 128.11 55.0937 127.084 55.0937C126.221 55.0937 125.464 54.9317 125.464 54.6625C125.464 54.4468 124.223 53.9607 122.657 53.5831C119.472 52.8265 116.827 50.6666 116.827 48.8319C116.827 47.9682 116.448 47.5357 115.639 47.4285C114.829 47.3201 114.343 46.834 114.234 46.0787C114.127 45.3757 113.695 44.8361 113.263 44.8361C112.832 44.8361 112.507 44.4584 112.507 44.0259C112.507 43.5947 112.291 43.2158 111.967 43.2158C111.697 43.2158 111.428 42.7297 111.428 42.1364C111.428 40.5161 113.209 40.7878 114.234 42.5689C115.908 45.4306 121.632 51.2063 123.143 51.5303C124.007 51.7472 126.922 52.9886 129.676 54.3384C138.476 58.6035 142.687 64.0564 146.196 75.7174C147.384 79.6061 148.032 80.9011 150.299 83.3839C153.323 86.678 159.262 90.3486 165.632 92.9411C167.899 93.8584 169.735 94.8841 169.735 95.2082C169.735 96.5032 165.038 100.067 160.395 102.28C155.213 104.764 149.327 106.6 144.522 107.248C141.931 107.571 141.661 107.517 141.661 106.6ZM53.1197 100.013C53.1197 99.7425 53.9298 98.6096 54.902 97.4218C55.8729 96.2876 57.816 93.7499 59.1659 91.7533C60.5157 89.8089 62.0275 87.9194 62.5136 87.5405C63.2689 86.8937 63.3774 87.0557 63.3774 88.8367C63.3774 90.3486 63.1069 90.8883 62.2967 91.1051C61.7035 91.2672 61.2174 91.8604 61.2174 92.4014C61.2174 92.9946 61.0018 93.4259 60.6777 93.4259C60.4073 93.4259 60.138 93.8048 60.138 94.236C60.138 94.6673 59.9224 95.0462 59.5983 95.0462C59.3279 95.0462 59.0574 95.4238 59.0574 95.8563C59.0574 96.2876 58.5713 96.6652 57.9781 96.6652C57.1679 96.6652 56.8987 97.0441 56.8987 98.015C56.8987 98.7716 56.4662 99.5805 55.8729 99.9045C54.5767 100.553 53.1197 100.606 53.1197 100.013ZM65.5373 84.7337C67.8045 82.737 72.6628 79.3892 73.2025 79.3892C73.473 79.3892 73.635 79.9838 73.635 80.7391C73.635 81.6028 73.3109 82.0889 72.8249 82.0889C72.3936 82.0889 72.0147 82.3581 72.0147 82.6286C72.0147 82.9526 71.6371 83.1683 71.2046 83.1683C70.7733 83.1683 70.3957 83.4387 70.3957 83.7079C70.3957 84.032 69.8024 84.2489 69.0459 84.2489C68.0737 84.2489 67.696 84.5181 67.696 85.3282C67.696 86.2455 67.3184 86.4076 65.6981 86.4076C63.6466 86.354 63.6478 86.354 65.5373 84.7337Z" fill="#666666"/>
<path d="M128.38 82.899C122.495 79.9289 119.31 74.6916 120.93 70.535C121.47 69.0767 124.6 69.4008 125.464 70.9675C126.383 72.6949 129.622 74.9621 135.075 77.7153C139.502 79.9289 139.502 79.9289 139.502 82.0888C139.502 84.2488 139.502 84.2488 135.291 84.2488C131.889 84.2488 130.593 83.9783 128.38 82.899ZM74.1747 79.3892C74.1747 79.1187 74.9313 78.4719 75.795 78.0394C77.5773 77.122 77.6297 77.2292 74.9313 73.4502C72.7644 70.3376 71.0384 66.9402 69.8025 63.3546C68.8303 60.4929 68.8303 60.493 70.1265 60.493C71.1523 60.493 71.4751 60.9254 72.0696 63.1926C72.4473 64.7044 72.9334 65.8922 73.149 65.8922C73.3646 65.8922 73.9591 66.9716 74.5524 68.3214C75.0933 69.6712 75.6866 70.7518 75.9571 70.7518C76.1727 70.7518 76.3347 71.1282 76.3347 71.562C76.3347 71.9932 76.6039 72.3709 76.8744 72.3709C77.1984 72.3709 77.4141 72.857 77.4141 73.4502C77.4141 74.0448 77.7917 74.5296 78.2242 74.5296C78.7639 74.5296 79.0344 75.1241 79.0344 76.4203C79.0344 77.4461 78.8175 78.3098 78.4947 78.3098C78.2242 78.3098 77.9538 78.6875 77.9538 79.12C77.9538 79.6597 77.3605 79.9301 76.0643 79.9301C75.0385 79.9301 74.1747 79.7133 74.1747 79.3892ZM195.381 67.9438C192.681 65.0821 192.681 65.0821 195.543 67.7817C197.053 69.24 198.35 70.535 198.35 70.5886C198.35 71.0211 197.864 70.535 195.381 67.9438Z" fill="#666666"/>
<path d="M59.9212 197.679C57.9245 195.465 57.33 182.994 58.7882 173.978C62.5137 150.978 82.9753 133.918 106.892 133.918C111.967 133.918 111.967 133.918 111.967 135.808C111.967 137.104 111.59 138.021 110.779 138.669C107.595 141.26 105.489 143.258 105.489 143.798C105.489 144.122 105.866 143.852 106.352 143.205C106.785 142.557 107.486 142.017 107.811 142.017C108.188 142.017 108.781 141.531 109.16 140.936C109.538 140.343 110.024 139.857 110.348 139.857C110.617 139.857 111.481 139.262 112.291 138.507C113.101 137.752 114.074 137.157 114.451 137.157C114.882 137.157 115.207 136.942 115.207 136.671C115.207 135.808 131.134 126.36 132.591 126.36C132.807 126.36 133.023 126.738 133.023 127.17C133.023 128.25 133.401 128.196 137.666 126.467C146.088 123.012 149.76 122.311 159.748 122.311C168.872 122.364 168.98 122.364 174.595 124.308C180.263 126.252 180.263 126.252 174.702 126.305C168.98 126.36 167.684 127.062 172.273 127.601C173.731 127.763 178.536 129.167 182.963 130.787C191.061 133.649 191.061 133.649 193.112 136.618C196.514 141.584 199.861 148.982 201.32 154.919C202.075 157.997 202.615 160.913 202.506 161.398C202.291 162.101 202.237 162.101 202.183 161.291C202.183 160.751 201.859 160.481 201.535 160.643C201.265 160.858 199.753 160.427 198.188 159.671C195.847 158.566 193.47 157.54 191.061 156.593C188.88 155.745 186.72 154.845 184.582 153.894C183.394 153.354 178.805 151.411 174.324 149.575C164.769 145.58 164.66 145.525 157.049 142.124C153.809 140.612 149.975 139.047 148.626 138.616C146.25 137.805 142.417 136.078 135.506 132.73C133.779 131.92 131.998 131.218 131.565 131.218C131.079 131.218 130.863 130.894 131.025 130.463C131.241 129.923 131.079 129.761 130.593 129.977C130.162 130.139 129.946 130.517 130.162 130.841C130.324 131.165 130.216 131.219 129.838 131.003C128.541 130.193 115.207 138.94 105.542 147.037C103.113 149.035 101.061 150.654 100.899 150.654C100.575 150.654 101.115 147.739 101.763 145.418C102.573 142.772 105.273 139.424 107.973 137.752C110.348 136.185 110.348 136.185 108.781 135.97C104.247 135.321 90.5882 138.183 91.1279 139.695C91.2899 140.073 91.2363 140.397 90.9658 140.397C90.7502 140.397 89.454 141.909 88.1578 143.744C86.0526 146.768 78.279 156.431 77.414 157.133C77.252 157.295 75.6866 159.131 73.9055 161.182C63.7014 173.384 61.8655 175.165 61.7035 172.952C61.6499 172.412 61.3259 173.546 60.8934 175.49C59.976 179.917 59.976 189.688 60.8934 194.818C61.2723 196.923 61.3795 198.704 61.2174 198.704C61.0018 198.704 60.4621 198.273 59.9212 197.679Z" fill="url(#paint1_linear_12_2)"/>
<path d="M37.1924 144.068C37.9489 138.399 39.73 131.435 41.7815 126.09C43.9951 120.475 48.3686 112.863 50.4189 110.974C51.5531 109.948 51.5531 109.948 51.391 112.053C51.2839 113.834 51.0134 114.266 50.0425 114.374C49.0703 114.536 48.7998 114.915 48.7998 116.156C48.7998 117.182 48.5306 117.721 47.9897 117.721C47.5584 117.721 47.1796 118.207 47.1796 118.801C47.1796 120.097 44.9672 124.74 44.3727 124.74C44.1571 124.74 43.9415 125.334 43.9415 126.09C43.9415 126.846 43.7258 127.439 43.4018 127.439C43.1313 127.439 42.8621 127.817 42.8621 128.25C42.8621 128.681 42.214 131.165 41.4575 133.756C40.7022 136.402 39.8372 140.397 39.4608 142.719C38.9747 146.227 38.7042 146.875 37.8405 146.875C36.9232 146.875 36.8683 146.606 37.1924 144.068ZM130.864 118.099C130.864 117.128 130.377 114.482 129.784 112.269C129.19 110.055 128.704 107.626 128.704 106.816C128.704 105.304 128.704 105.304 132.753 105.304C136.425 105.304 136.802 105.412 136.802 106.384C136.802 107.355 136.425 107.464 133.563 107.464C130.432 107.464 130.324 107.517 130.864 108.543C131.512 109.731 133.023 117.073 133.023 118.856C133.023 119.504 132.646 119.881 131.943 119.881C131.079 119.881 130.864 119.504 130.864 118.099ZM54.7388 106.654C55.1165 106.221 57.1692 104.711 59.2744 103.306C60.6967 102.398 62.1008 101.463 63.4858 100.499C63.7015 100.283 62.2432 100.229 60.1917 100.337C56.8988 100.553 56.4127 100.445 56.1971 99.5817C55.9814 98.6631 55.9266 98.6631 55.873 99.5269C55.8182 100.121 55.3869 100.445 54.4696 100.445C52.8493 100.445 52.9029 100.283 55.8182 96.5032C56.8452 95.0998 57.9245 93.9668 58.1937 93.9668C58.4106 93.9668 58.5178 94.9377 58.4106 96.1255C58.1937 98.2855 58.1937 98.2855 62.136 98.2855C66.0783 98.2855 66.0771 98.2855 66.0771 100.175C66.0771 101.471 65.8066 102.064 65.2669 102.064C64.8357 102.064 64.4568 102.335 64.4568 102.604C64.4568 102.928 63.8635 103.144 63.1069 103.144C62.2432 103.144 61.7571 103.468 61.7571 103.954C61.7571 104.386 61.3795 104.764 60.947 104.764C60.5157 104.764 60.1368 105.035 60.1368 105.304C60.1368 105.628 59.652 105.843 59.0587 105.843C58.4642 105.843 57.9781 106.221 57.9781 106.654C57.9781 107.247 57.3848 107.464 56.0338 107.464C54.3611 107.464 54.1455 107.355 54.7388 106.654ZM139.502 106.545C139.502 105.574 139.988 105.412 143.228 105.088C147.169 104.764 157.102 101.795 158.29 100.607C158.668 100.229 159.748 99.9045 160.612 99.9045C161.638 99.9045 162.177 99.6353 162.177 99.0956C162.177 98.6631 162.555 98.2855 162.988 98.2855C163.419 98.2855 163.796 98.0699 163.796 97.7458C163.796 97.4753 164.283 97.2061 164.877 97.2061C165.47 97.2061 165.956 96.8821 165.956 96.4496C165.956 96.0183 165.47 95.4786 164.877 95.3166C164.283 95.1546 163.796 94.7221 163.796 94.4516C163.796 94.1812 163.203 93.9668 162.447 93.9668C161.583 93.9668 161.098 93.6427 161.098 93.1567C161.098 92.6706 160.612 92.3465 159.802 92.3465C157.912 92.3465 156.778 91.8068 156.778 90.9431C156.778 90.5106 156.238 90.1878 155.428 90.1878C154.618 90.1878 154.078 89.8637 154.078 89.4312C154.078 88.9452 153.432 88.5675 152.621 88.4591C151.325 88.297 151.056 88.0278 150.948 86.4624C150.732 84.5716 150.732 84.5716 152.567 85.9763C155.483 88.1899 160.828 91.1051 165.146 92.941C167.36 93.8584 169.304 94.7757 169.466 95.0462C170.059 95.9635 165.308 99.6353 160.288 102.118C154.511 104.926 148.95 106.6 143.119 107.193C139.771 107.571 139.502 107.517 139.502 106.545ZM59.7068 91.1587C61.9204 87.9194 66.3999 83.8176 70.6662 81.0631C72.9869 79.5513 75.1469 78.3086 75.5246 78.3086C75.9035 78.3086 76.4967 77.9322 76.8744 77.4997C77.3605 76.9064 77.252 76.3655 76.1727 74.9621C72.8262 70.5898 68.2906 60.655 69.0459 59.4136C69.2079 59.0896 69.694 58.8739 70.1265 58.8739C70.9367 58.8739 73.0954 64.7581 73.0954 67.08C73.0954 68.2142 73.3658 68.5919 74.1747 68.5919C74.8777 68.5919 75.3625 69.078 75.5794 69.9417C75.7414 70.697 76.1191 71.2915 76.3895 71.2915C76.6588 71.2915 76.8756 71.6692 76.8756 72.1017C76.8756 72.5329 77.1448 72.9118 77.4141 72.9118C77.7381 72.9118 77.955 73.3967 77.955 73.9899C77.955 74.5845 78.279 75.0705 78.7103 75.0705C79.6276 75.0705 80.1137 76.2583 80.1137 78.3635C80.1137 79.6597 79.8981 79.9289 78.7639 79.9289C77.4141 79.9289 73.473 81.5492 73.2038 82.2509C73.0954 82.4665 72.6641 82.6285 72.2316 82.6285C71.7991 82.6285 71.4763 82.899 71.4763 83.1682C71.4763 83.4923 71.1523 83.7079 70.7198 83.7079C70.2885 83.7079 69.8561 84.0868 69.6404 84.5181C69.4784 84.9505 68.8303 85.3282 68.237 85.3282C67.6425 85.3282 67.1564 85.6522 67.1564 86.0299C67.1564 87.0557 63.7551 90.1878 62.6757 90.1878C62.0812 90.1878 61.7584 90.619 61.7584 91.5376C61.7584 92.6718 61.4879 92.8862 60.0845 92.8862C58.4642 92.8862 58.4655 92.8862 59.7068 91.1587ZM131.836 84.4109C130.972 84.3024 130.324 83.9248 130.324 83.6543C130.324 83.3839 129.729 83.1682 128.974 83.1682C128.217 83.1682 127.624 82.9526 127.624 82.6285C127.624 82.3593 127.247 82.0889 126.814 82.0889C126.383 82.0889 126.004 81.8732 126.004 81.5492C126.004 81.2787 125.681 81.0095 125.302 81.0095C124.547 81.0095 122.225 78.6339 122.225 77.8238C122.225 77.5533 121.956 77.2293 121.577 77.1221C121.254 77.0136 120.875 75.4482 120.713 73.5574C120.497 70.2109 120.497 70.2109 122.981 70.2109C124.763 70.2109 125.464 70.4266 125.464 70.9675C125.464 71.3987 125.843 71.8312 126.274 72.0468C126.707 72.2089 127.085 72.695 127.085 73.181C127.085 73.6123 127.571 73.9912 128.164 73.9912C128.758 73.9912 129.243 74.2068 129.243 74.4773C129.243 74.7465 129.838 75.1254 130.593 75.2862C131.565 75.5566 131.943 75.9879 131.943 76.96C131.943 77.7153 131.727 78.3099 131.457 78.3099C130.431 78.3099 124.547 73.9363 123.845 72.6414C122.711 70.535 121.956 72.3173 122.981 74.6916C124.6 78.6875 130.755 82.6285 135.237 82.6285C138.476 82.6285 138.908 81.9804 136.532 80.8462C134.211 79.7669 134.103 78.8495 136.263 78.8495C139.123 78.8495 140.581 79.8753 140.581 81.9268C140.581 83.5471 140.419 83.7092 138.962 83.7092C138.097 83.7092 137.342 83.9784 137.342 84.2488C137.342 84.7885 134.751 84.8421 131.836 84.4109ZM147.06 83.6543C147.06 83.3303 146.682 82.737 146.25 82.3045C145.819 81.8184 145.441 80.9011 145.441 80.1981C145.441 79.4977 145.279 78.8495 145.009 78.7411C144.415 78.4719 142.202 71.1831 142.202 69.4556C142.202 66.4855 143.55 68.4299 145.495 74.0984C146.52 77.2841 148.032 80.8475 148.842 82.034C150.299 84.2488 150.299 84.2488 148.68 84.2488C147.817 84.2488 147.06 83.9784 147.06 83.6543ZM139.502 65.6766C139.502 65.2441 139.232 64.8117 138.908 64.7045C138.584 64.5973 138.422 63.6787 138.53 62.6529C138.692 60.7634 138.692 60.7634 140.474 63.139C142.579 65.9994 142.633 66.4319 140.852 66.4319C140.042 66.4319 139.502 66.1091 139.502 65.6766ZM133.023 58.8739C133.023 58.6035 132.646 58.333 132.213 58.333C131.781 58.333 131.403 57.8469 131.403 57.2537C131.403 56.4435 131.026 56.1743 129.946 56.1743C129.19 56.1743 126.76 55.5262 124.6 54.716C121.308 53.4746 120.606 52.9886 120.606 52.0164C120.606 50.775 120.606 50.775 124.547 52.1784C128.65 53.6903 135.075 57.2001 136.263 58.5499C136.856 59.3052 136.694 59.4136 134.967 59.4136C133.887 59.4136 133.023 59.1967 133.023 58.8739ZM91.0195 49.9113C89.6696 48.9939 89.3992 47.5357 90.5882 47.5357C91.0195 47.5357 91.452 47.158 91.6676 46.7255C91.8296 46.2943 92.2609 45.9154 92.6397 45.9154C93.0174 45.9154 93.9896 45.5377 94.8533 45.1601C95.6622 44.7289 96.3103 44.5668 96.3103 44.7824C96.3103 45.0517 97.7137 45.4306 99.4425 45.5926C101.115 45.7546 104.409 46.2407 106.73 46.5648C110.888 47.2129 110.888 47.2129 110.888 48.9939C110.888 50.775 110.888 50.775 101.548 50.775C93.9896 50.775 91.9916 50.613 91.0195 49.9113ZM116.125 49.3167C115.908 49.1547 115.746 48.3994 115.746 47.6977C115.746 46.7804 115.423 46.4563 114.613 46.4563C113.965 46.4563 113.371 46.0238 113.21 45.3757C113.048 44.7824 112.724 44.2964 112.453 44.2964C112.183 44.2964 111.967 43.5947 111.967 42.6761C111.967 41.8136 112.183 41.057 112.4 41.057C112.669 41.057 114.074 42.5689 115.531 44.4048C120.011 50.1269 119.796 49.6956 118.015 49.6956C117.151 49.6956 116.287 49.5324 116.125 49.3167Z" fill="#999999"/>
<path d="M59.9761 197.625C59.2208 196.761 58.3558 196.006 58.1402 196.006C57.168 196.006 54.3612 192.388 53.4974 190.067C51.5531 184.668 50.9598 180.673 50.9598 172.25C50.9598 159.617 53.2282 150.709 59.2744 139.641C64.7272 129.599 74.8229 118.261 83.1374 112.755C88.9679 108.867 97.553 104.926 103.599 103.307C108.35 102.064 110.078 101.902 117.906 101.849C125.087 101.849 127.138 102.011 128.434 102.713C130.917 104.009 136.532 105.304 139.826 105.304C141.985 105.304 142.741 105.521 142.741 106.06C142.741 107.248 139.988 107.626 134.805 107.193C130.377 106.816 130.162 106.816 130.539 107.788C131.836 111.081 132.591 115.561 132.861 121.555C133.186 128.358 133.186 128.358 128.381 130.894C122.009 134.296 115.639 138.561 109.106 143.853C100.846 150.547 101.17 150.331 101.17 149.466C101.17 145.687 104.678 140.019 108.459 137.697C109.484 137.05 110.348 136.294 110.348 136.024C110.348 135.268 103.923 135.43 99.1184 136.347C79.3584 140.127 63.593 156.107 60.4086 175.598C59.1659 183.264 59.5448 193.522 61.2723 197.571C62.0824 199.461 61.5415 199.515 59.9761 197.625ZM37.4628 160.427C36.5991 158.753 36.8147 157.674 38.0025 157.674C38.8663 157.674 39.0831 158.051 39.0831 159.563C39.0831 161.668 38.3266 162.046 37.4628 160.427ZM36.9232 148.117C36.9232 145.363 38.4886 136.888 39.892 132.137C41.5123 126.576 44.1571 120.421 44.9672 120.421C46.0466 120.421 45.5605 123.228 43.671 127.925C41.4039 133.594 39.73 140.397 39.2439 145.687C38.9747 148.982 38.7578 149.575 37.9477 149.575C37.1924 149.575 36.9232 149.197 36.9232 148.117ZM45.0208 119.557C45.0208 118.801 48.3686 113.51 50.0961 111.513C51.9856 109.353 51.9856 109.353 52.0404 111.405C52.0404 113.025 51.8784 113.403 50.9598 113.403C50.1497 113.403 49.8804 113.78 49.8804 114.752C49.8804 115.616 49.5564 116.102 49.0703 116.102C48.6391 116.102 48.2602 116.587 48.2602 117.128C48.2602 119.018 47.612 119.881 46.3158 119.881C45.6154 119.881 45.0208 119.719 45.0208 119.557ZM53.9835 107.409C54.5232 106.762 57.1692 104.818 59.814 103.09C63.7551 100.499 64.4032 99.9045 63.2154 99.9045C62.4052 99.9045 61.7571 99.6888 61.7571 99.4196C61.7571 98.7715 63.1618 98.2854 65.0513 98.2854C66.4547 98.2854 66.6167 98.4474 66.6167 100.121C66.6167 102.011 65.915 102.604 63.8623 102.604C63.3238 102.604 62.8377 102.982 62.8377 103.414C62.8377 103.847 62.4601 104.224 62.0276 104.224C61.5951 104.224 61.2175 104.494 61.2175 104.764C61.2175 105.088 60.8398 105.304 60.4073 105.304C59.9761 105.304 59.5972 105.574 59.5972 105.843C59.5972 106.167 59.1659 106.383 58.5726 106.383C58.033 106.383 57.4384 106.869 57.2764 107.464C57.0608 108.327 56.5211 108.543 54.9544 108.543C52.9577 108.543 52.959 108.543 53.9835 107.409ZM143.821 105.952C143.821 104.873 145.872 104.224 149.382 104.224C150.192 104.224 150.839 104.009 150.839 103.685C150.839 103.414 151.596 103.145 152.459 103.145C153.377 103.145 154.078 102.928 154.078 102.604C154.078 102.335 154.673 102.064 155.428 102.064C156.185 102.064 156.778 101.849 156.778 101.525C156.778 101.254 157.535 100.985 158.398 100.985C159.424 100.985 160.017 100.715 160.017 100.229C160.017 99.3648 161.152 98.8251 163.041 98.8251C163.958 98.8251 164.337 98.501 164.337 97.7457C164.337 96.9356 164.715 96.6651 165.741 96.6651C166.982 96.6651 167.036 96.558 166.28 95.8562C165.848 95.4238 165.201 95.0461 164.822 95.0461C164.391 95.0461 163.041 94.6684 161.8 94.1824C160.233 93.5343 159.478 92.941 159.478 92.2929C159.478 91.4827 159.045 91.2671 157.588 91.2671C156.292 91.2671 155.699 90.9966 155.699 90.457C155.699 89.9709 155.213 89.6468 154.349 89.6468C153.27 89.6468 152.999 89.3776 152.999 88.297C152.999 87.5417 153.108 86.9484 153.27 86.9484C153.432 86.9484 155.428 88.0278 157.75 89.3228C160.017 90.6726 163.527 92.4013 165.579 93.2102C167.577 94.0203 169.196 94.9925 169.196 95.3702C169.196 96.5579 164.822 99.8509 160.341 102.011C155.861 104.171 150.192 106.005 146.143 106.654C144.091 106.978 143.821 106.924 143.821 105.952ZM53.6594 99.9045C53.6594 99.6352 54.3076 98.6095 55.1713 97.6373C55.9814 96.6651 57.5469 94.5064 58.6811 92.8325C59.8153 91.1587 61.2175 89.3228 61.7571 88.8367C62.8377 87.8645 62.8377 87.9193 62.8377 89.8637C62.8377 91.4291 62.6221 91.9688 61.7571 92.1844C61.1639 92.3465 60.6778 92.941 60.6778 93.4807C60.6778 94.0739 60.4622 94.5064 60.1917 94.5064C59.9225 94.5064 59.5436 95.0997 59.3815 95.8562C59.1123 96.8272 58.6811 97.2061 57.7089 97.2061C56.9524 97.2061 56.3591 97.4753 56.3591 97.7457C56.3591 98.0698 57.1144 98.2854 57.9794 98.2854C59.9225 98.2854 60.1917 99.6352 58.4106 100.121C56.5211 100.607 53.6594 100.499 53.6594 99.9045ZM64.9965 85.5986C64.9965 85.1125 71.7456 80.3613 74.2819 79.0651C75.8486 78.3098 77.1984 77.9309 77.793 78.1478C78.7103 78.5254 78.7103 78.4718 77.8466 77.2292C72.6629 69.8881 69.4236 63.0841 68.9387 58.6034C68.8303 57.4156 68.6147 53.1505 68.4526 49.1011C68.1822 41.7051 68.1822 41.7051 73.473 42.7309C78.8723 43.703 85.8906 45.6997 86.8628 46.4563C87.1869 46.7255 88.3747 47.0495 89.5625 47.2664C90.7503 47.482 92.0452 47.9145 92.4229 48.2386C92.8018 48.5078 93.6107 48.8319 94.3124 48.8867C94.9605 48.939 95.8242 49.0475 96.2031 49.1011C97.4445 49.2095 96.85 50.5593 95.1225 51.5851C93.9347 52.2868 91.9916 52.6645 89.0215 52.8265C85.2425 53.0434 84.1632 52.8813 81.1943 51.6923C79.3036 50.8821 77.6845 50.3437 77.5761 50.4509C77.3069 50.7214 82.4357 58.1173 85.7822 62.3824C87.9958 65.1905 88.7523 66.5939 88.7523 67.8901C88.7523 69.5628 88.6439 69.6725 86.808 69.6725C84.5408 69.6725 83.1374 70.3193 80.8154 72.5329C79.0879 74.1532 78.4947 75.6102 79.574 75.6102C79.8981 75.6102 80.1137 76.4203 80.1137 77.4461C80.1137 79.0115 79.8981 79.3904 78.4398 79.8753C77.4677 80.1993 76.1191 80.4685 75.471 80.4685C74.6608 80.4685 74.1747 80.7926 74.1747 81.2787C74.1747 81.7112 73.7971 82.0888 73.3646 82.0888C72.9334 82.0888 72.5545 82.358 72.5545 82.6285C72.5545 82.9525 72.1781 83.1682 71.7456 83.1682C71.3131 83.1682 70.9354 83.4386 70.9354 83.7079C70.9354 84.0319 70.4493 84.2488 69.8561 84.2488C69.2615 84.2488 68.7767 84.6264 68.7767 85.0589C68.7767 85.5986 68.1822 85.8691 66.8872 85.8691C65.8602 85.8691 64.9965 85.7606 64.9965 85.5986ZM130.486 84.1939C129.514 83.9247 128.704 83.4386 128.704 83.1682C128.704 82.8441 128.219 82.6285 127.624 82.6285C127.031 82.6285 126.545 82.4129 126.545 82.0888C126.545 81.8183 126.167 81.5491 125.735 81.5491C125.195 81.5491 124.925 81.009 124.925 79.9288C124.925 78.4706 124.763 78.3086 123.306 78.3086C122.063 78.3086 121.685 78.0942 121.685 77.2305C121.685 76.6359 121.47 76.1498 121.146 76.1498C120.875 76.1498 120.606 75.2861 120.606 74.2603C120.606 73.2346 120.875 72.3708 121.146 72.3708C121.47 72.3708 121.685 71.7776 121.685 71.021C121.685 69.8332 121.902 69.6712 123.575 69.6712C125.247 69.6712 125.519 69.8332 125.843 71.2915C126.059 72.4257 126.436 72.9118 127.193 72.9118C127.733 72.9118 128.326 73.2882 128.488 73.7207C128.704 74.1519 129.136 74.5308 129.567 74.5308C130 74.5308 130.324 74.9085 130.324 75.3409C130.324 75.7722 130.81 76.1511 131.403 76.1511C132.699 76.1511 137.342 78.3634 137.342 78.9579C137.342 79.1735 137.937 79.3892 138.692 79.3892C139.933 79.3892 140.042 79.6048 140.042 81.7648C140.042 83.7627 139.826 84.1952 138.854 84.4644C137.073 84.8969 132.484 84.7885 130.486 84.1939ZM137.828 82.3593C138.908 82.0352 138.259 81.5491 133.51 79.2271C129.784 77.3912 127.031 75.6102 125.357 73.9363C122.657 71.2366 121.902 71.2915 122.495 74.0983C123.197 77.2305 128.65 81.5491 133.293 82.6833C134.913 83.061 135.506 83.0074 137.828 82.3593ZM146.52 82.0888C146.52 81.0086 146.25 80.4685 145.71 80.4685C145.17 80.4685 144.9 79.9288 144.9 78.8495C144.9 77.9858 144.685 77.2292 144.469 77.2292C144.253 77.2292 143.335 75.0705 142.471 72.3708C141.554 69.726 140.69 67.5125 140.473 67.5125C140.204 67.5125 140.042 67.1336 140.042 66.7023C140.042 66.2711 139.826 65.8922 139.502 65.8922C139.232 65.8922 138.962 65.5146 138.962 65.0821C138.962 64.6508 138.746 64.2719 138.422 64.2719C138.152 64.2719 137.882 63.4082 137.882 62.3288C137.882 61.0874 138.097 60.5465 138.476 60.817C140.095 61.7891 143.443 68.2142 145.171 73.6671C146.25 76.96 147.708 80.577 148.464 81.7112C149.76 83.7091 149.76 83.7091 148.139 83.7091C146.682 83.7091 146.52 83.5471 146.52 82.0888ZM133.563 59.4123C133.563 59.1431 133.186 58.8739 132.753 58.8739C132.322 58.8739 131.944 58.657 131.944 58.4414C131.944 58.2258 131.079 57.6861 130.053 57.3072C129.028 56.9295 128.164 56.3899 128.164 56.1194C128.164 55.8489 127.678 55.6333 127.085 55.6333C126.491 55.6333 126.005 55.4177 126.005 55.0936C126.005 54.8244 125.519 54.554 124.925 54.554C124.331 54.554 122.604 54.0679 121.038 53.4746C118.122 52.3404 110.779 51.3146 105.651 51.3146C103.546 51.3146 102.789 51.099 102.789 50.5593C102.789 50.1268 102.466 49.642 102.142 49.5336C101.763 49.3715 103.275 49.2095 105.489 49.1559C109.538 49.0475 109.538 49.0475 105.759 48.3458C103.305 47.9106 100.838 47.5506 98.3619 47.2664C96.3103 47.0495 94.6913 46.6719 94.6913 46.4014C94.6913 46.131 95.2846 44.998 95.9875 43.8651C96.6892 42.7845 97.4445 41.1654 97.6066 40.2468C99.1184 31.8251 98.7943 32.2576 102.249 34.0923C103.977 35.0108 106.893 36.9539 108.674 38.4122C110.51 39.8704 112.184 41.057 112.453 41.057C112.669 41.057 113.533 41.9743 114.289 43.1085C115.045 44.1891 116.827 46.4563 118.339 48.0753C120.606 50.6678 121.685 51.3159 125.573 52.8265C129.891 54.4468 136.263 58.0637 137.018 59.36C137.289 59.7376 136.749 59.9532 135.506 59.9532C134.427 59.9532 133.563 59.7364 133.563 59.4123Z" fill="#CCCCCC"/>
<path d="M55.4404 193.738C49.7183 187.854 39.6227 171.819 39.6227 168.687C39.6227 168.147 39.2986 166.744 38.8661 165.501C37.1387 160.589 36.7598 157.188 37.0838 150.385C37.6783 138.885 39.9455 130.031 44.8587 120.043C48.7997 111.999 53.7129 106.816 61.9739 101.849C65.2132 99.9058 65.2132 99.9058 59.3814 99.9058C53.4973 99.9058 53.4973 99.9058 54.9543 98.1235C55.7109 97.2061 57.1691 95.2082 58.14 93.6964C62.5671 87.0557 72.0159 79.2272 76.4966 78.4719C77.576 78.3099 78.4945 78.0394 78.4945 77.8238C78.4945 77.6618 77.9549 76.798 77.2519 75.9343C76.0105 74.3689 76.0105 74.3689 78.1705 71.9933C80.8153 69.0768 81.8411 68.4835 84.8648 68.0522C87.1332 67.7818 87.1331 67.7818 84.163 64.0015C78.2777 56.6056 72.3935 46.996 73.2037 46.1323C73.4193 45.9703 76.0641 46.996 79.1414 48.4007C84.0546 50.7214 85.1352 51.0455 88.2125 51.0455C90.8037 51.0455 92.2071 50.775 93.3413 50.0197C94.7448 49.1012 95.5549 49.0476 102.465 49.3716C114.829 49.9661 119.147 50.5594 124.223 52.4489C136.263 56.876 140.852 61.4652 144.846 73.1262C146.034 76.5288 147.276 79.9289 147.653 80.577C149.598 84.4109 158.019 90.4034 165.579 93.4271C167.251 94.074 168.818 94.8841 168.98 95.1546C170.059 96.8821 158.343 103.63 150.839 105.574C145.386 106.978 136.64 107.248 132.16 106.114C130.108 105.628 127.732 104.818 126.814 104.333C125.573 103.685 123.575 103.468 117.906 103.523C108.89 103.576 102.573 105.035 94.2051 109.083C86.5922 112.808 81.7875 116.048 76.119 121.5C64.7807 132.353 56.4662 146.822 53.6057 160.643C52.3095 166.744 52.2559 177.487 53.3889 182.508C54.3074 186.449 56.6294 192.982 57.7624 194.818C59.0038 196.708 57.8708 196.222 55.4404 193.738ZM138.53 82.1973C138.8 81.9269 137.234 80.8475 134.318 79.4428C128.865 76.8516 124.6 73.8828 124.114 72.3709C123.683 71.0747 122.873 70.9675 122.442 72.1005C121.254 75.0706 126.059 80.3078 131.889 82.4665C133.941 83.2231 137.666 83.0611 138.53 82.1973Z" fill="white"/>
</g>
<defs>
<linearGradient id="paint0_linear_12_2" x1="22.616" y1="20.8109" x2="19.9164" y2="23.2414" gradientUnits="userSpaceOnUse">
<stop stop-color="#8D8E8D"/>
<stop offset="0.01" stop-color="#8B8C8B"/>
<stop offset="0.02" stop-color="#8A8C8A"/>
<stop offset="0.03" stop-color="#8A8B8A"/>
<stop offset="0.04" stop-color="#828382"/>
<stop offset="0.05" stop-color="#878987"/>
<stop offset="0.12" stop-color="#848584"/>
<stop offset="0.13" stop-color="#838583"/>
<stop offset="0.14" stop-color="#838483"/>
<stop offset="0.24" stop-color="#7D7E7D"/>
<stop offset="0.25" stop-color="#7C7E7C"/>
<stop offset="0.26" stop-color="#7C7D7C"/>
<stop offset="0.28" stop-color="#7B7C7B"/>
<stop offset="0.29" stop-color="#7A7C7A"/>
<stop offset="0.3" stop-color="#7A7B7A"/>
<stop offset="0.31" stop-color="#797B79"/>
<stop offset="0.37" stop-color="#777877"/>
<stop offset="0.38" stop-color="#767876"/>
<stop offset="0.92" stop-color="#616261"/>
<stop offset="0.93" stop-color="#5F605E"/>
<stop offset="0.94" stop-color="#5F5F5E"/>
<stop offset="0.98" stop-color="#5D5E5C"/>
<stop offset="1" stop-color="#5D5D5D"/>
</linearGradient>
<linearGradient id="paint1_linear_12_2" x1="22.616" y1="20.811" x2="19.9164" y2="23.2414" gradientUnits="userSpaceOnUse">
<stop stop-color="#8D8E8D"/>
<stop offset="0.01" stop-color="#8B8C8B"/>
<stop offset="0.02" stop-color="#8A8C8A"/>
<stop offset="0.03" stop-color="#8A8B8A"/>
<stop offset="0.04" stop-color="#828382"/>
<stop offset="0.05" stop-color="#878987"/>
<stop offset="0.12" stop-color="#848584"/>
<stop offset="0.13" stop-color="#838583"/>
<stop offset="0.14" stop-color="#838483"/>
<stop offset="0.24" stop-color="#7D7E7D"/>
<stop offset="0.25" stop-color="#7C7E7C"/>
<stop offset="0.26" stop-color="#7C7D7C"/>
<stop offset="0.28" stop-color="#7B7C7B"/>
<stop offset="0.29" stop-color="#7A7C7A"/>
<stop offset="0.3" stop-color="#7A7B7A"/>
<stop offset="0.31" stop-color="#797B79"/>
<stop offset="0.37" stop-color="#777877"/>
<stop offset="0.38" stop-color="#767876"/>
<stop offset="0.92" stop-color="#616261"/>
<stop offset="0.93" stop-color="#5F605E"/>
<stop offset="0.94" stop-color="#5F5F5E"/>
<stop offset="0.98" stop-color="#5D5E5C"/>
<stop offset="1" stop-color="#5D5D5D"/>
</linearGradient>
<clipPath id="clip0_12_2">
<rect width="256" height="256" fill="white"/>
</clipPath>
</defs>
</svg>
