<svg width="256" height="256" viewBox="0 0 256 256" fill="none" xmlns="http://www.w3.org/2000/svg">
<rect width="256" height="256" fill="#E24B31"/>
<g clip-path="url(#clip0_88_704)">
<path d="M232.877 138.797C232.385 133.814 228.775 131.608 225.33 131.608C224.208 131.608 223.095 131.815 222.049 132.221L221.393 132.507L220.818 132.915C219.998 133.528 218.604 134.345 217.373 134.794C217.304 133.663 217.345 132.528 217.496 131.404V131.2C218.439 122.459 216.594 117.313 212.041 116.046C211.262 115.842 210.482 115.72 209.703 115.72C206.914 115.72 204.453 117.067 202.854 118.17C201.541 116.536 199.285 115.556 196.496 115.556C192.313 115.556 188.99 117.517 187.76 120.621L187.268 122.051C186.227 119.744 184.521 117.797 182.366 116.459C180.212 115.121 177.706 114.451 175.168 114.535C171.542 114.546 167.991 115.564 164.914 117.476L164.668 117.639C160.561 120.509 157.223 124.338 154.947 128.79C153.695 124.503 150.85 120.852 146.99 118.579L146.908 118.497L146.539 118.334C150.846 110.696 154.701 100.607 152.404 90.9675C149.943 80.7562 143.914 79.2041 140.51 79.2041C139.115 79.2041 137.639 79.49 136.203 80.021H135.998C132.089 81.4008 128.678 83.9022 126.195 87.2097C121.062 95.4161 117.864 104.675 116.844 114.29L116.27 119.559C115.382 118.378 114.231 117.42 112.906 116.761C111.582 116.101 110.121 115.759 108.641 115.76C105.113 115.76 102.242 117.925 100.684 119.355V119.314C100.039 118.351 99.1762 117.554 98.1642 116.986C97.1521 116.418 96.0199 116.096 94.8594 116.046H94.2852C90.5117 116.046 87.5176 117.68 85.3028 119.6C83.9082 117.149 81.3242 115.638 78.3301 115.638H77.0996C72.916 115.638 69.6348 117.639 68.2813 120.907L67.9531 121.887C66.4139 119.919 64.4211 118.35 62.1436 117.312C59.866 116.274 57.3707 115.798 54.8692 115.924H54.336C50.8496 115.965 42.1133 117.435 36.7403 129.403C35.9199 131.282 35.2637 133.16 34.8125 134.998C33.2628 134.286 31.5115 134.138 29.8631 134.578C28.2146 135.018 26.7731 136.02 25.7891 137.408C24.9688 138.634 22.3438 142.882 23.6563 147.089C24.3535 149.335 25.9942 151.051 28.291 151.908C30.2598 152.725 32.8028 153.501 34.7305 154.032C35.9199 156.687 38.0117 159.751 41.7442 162.61C44.6566 164.68 48.1766 165.728 51.752 165.591C58.4375 165.591 64.918 162.732 65.6153 162.406L65.8613 162.283L65.9434 162.201C67.1738 163.549 68.8965 164.489 71.0293 164.897C71.6856 165.02 72.5059 165.142 73.4903 165.142C77.0996 165.142 79.6426 163.304 81.9395 159.832C82.9907 161.347 84.4125 162.569 86.0704 163.384C87.7283 164.199 89.5675 164.579 91.4141 164.489H91.4551C91.7012 164.489 91.9063 164.652 92.1524 164.652C94.3262 164.652 97.0742 163.876 99.2891 160.282C101.176 163.631 104.621 165.591 108.723 165.591C112.332 165.591 115.49 164.08 116.064 163.794L116.188 163.713C117.418 163.1 118.402 162.487 119.223 162.079C123.647 164.428 128.67 165.423 133.66 164.938H134.111C144.775 162.814 151.748 160.282 155.85 158.321C157.881 160.625 160.406 162.446 163.239 163.648C166.071 164.85 169.139 165.402 172.215 165.265C177.629 165.265 181.977 163.713 185.135 162.038C186.242 163.231 187.601 164.165 189.113 164.775C190.074 165.179 191.106 165.387 192.148 165.387C198.793 165.387 201.869 157.504 202.73 154.849L204.371 150.601C205.725 152.072 207.529 153.297 209.785 153.91C211.016 154.277 212.369 154.482 213.723 154.482C221.023 154.482 228.078 149.335 229.145 148.477C231.195 146.844 233.369 143.413 232.877 138.756" fill="white"/>
<path d="M166.021 140.962C166.021 140.962 165.119 137.694 168.564 131.445C171.969 125.237 174.635 128.627 174.635 128.627C174.635 128.627 177.588 131.813 174.225 136.551C170.861 141.289 166.021 140.962 166.021 140.962ZM139.771 145.455C135.834 155.666 126.277 151.5 126.277 151.5C126.277 151.5 125.211 147.865 128.328 137.613C131.404 127.401 138.664 131.404 138.664 131.404C138.664 131.404 143.668 135.244 139.73 145.455M132.635 102.649C132.635 102.649 138.582 87.2507 140.018 94.7253C141.412 102.241 127.59 124.542 127.59 124.542C127.713 119.477 132.635 102.649 132.635 102.649ZM47.8554 140.962C48.1426 131.037 54.623 126.748 56.8789 128.872C59.1347 131.037 58.3144 135.693 54.0488 138.634C49.8242 141.534 47.8965 140.962 47.8965 140.962M227.463 139.328C227.135 135.979 224.141 137.245 224.141 137.245C224.141 137.245 219.301 140.962 214.994 140.553C210.77 140.145 212.123 130.669 212.123 130.669C212.123 130.669 213.025 121.969 210.482 121.275C208.021 120.499 204.904 123.48 204.904 123.48C204.904 123.48 201.049 127.728 199.244 133.161L198.711 133.283C198.711 133.283 199.285 123.807 198.629 121.642C198.137 120.58 193.543 120.662 192.805 122.582C190.602 129.352 189.037 136.312 188.129 143.372C188.129 143.372 180.951 149.417 174.676 150.438C168.4 151.418 166.883 147.497 166.883 147.497C166.883 147.497 183.945 142.8 183.33 129.239C182.756 115.679 169.59 120.703 168.113 121.806C166.678 122.908 159.008 127.524 156.711 140.268L156.506 142.637C156.506 142.637 149.943 147.048 146.252 148.232C146.252 148.232 156.506 130.996 143.996 123.194C138.295 119.763 133.783 126.911 133.783 126.911C133.783 126.911 150.723 108.123 146.99 92.2338C145.186 84.7183 141.412 83.9014 137.844 85.1267C134.968 86.1159 132.436 87.9012 130.543 90.2732C130.543 90.2732 123.693 100.199 122.094 114.903C120.535 129.607 118.197 147.415 118.197 147.415C118.197 147.415 114.916 150.561 111.963 150.724C108.969 150.887 110.322 141.861 110.322 141.861C110.322 141.861 112.619 128.055 112.455 125.727C112.291 123.399 112.127 122.132 109.379 121.315C106.631 120.499 103.596 123.97 103.596 123.97C103.596 123.97 95.6797 135.938 94.9824 137.776L94.5722 138.552L94.1621 138.021C94.1621 138.021 99.7812 121.724 94.4082 121.52C89.0762 121.234 85.5488 127.32 85.5488 127.32C85.5488 127.32 79.4785 137.449 79.2324 138.593L78.8222 138.103C78.8222 138.103 81.3242 126.299 80.832 123.399C80.2988 120.458 77.5508 121.07 77.5508 121.07C77.5508 121.07 74.0644 120.662 73.1211 122.908C72.2187 125.155 68.8554 140.063 68.4453 144.761C68.4453 144.761 59.6679 151.01 53.9258 151.092C48.1836 151.173 48.7578 147.415 48.7578 147.415C48.7578 147.415 69.8808 140.227 64.0976 126.013C61.5136 122.337 58.5195 121.234 54.2539 121.275C49.9883 121.397 44.9844 123.93 41.539 131.608C39.8984 135.244 39.2422 138.715 39.2422 141.33C39.2422 141.33 35.3047 142.106 33.2949 140.431C31.2851 138.797 30.1367 140.431 30.1367 140.431C30.1367 140.431 26.6504 145.414 30.0547 146.721C33.459 148.069 38.75 149.294 38.75 149.294C39.2422 151.459 40.6777 155.013 44.8203 158.117C51.0957 162.855 63.1133 157.382 63.1133 157.382L68.0351 154.482C68.0351 154.482 68.2402 158.893 71.8086 159.546C75.4179 160.2 76.9355 159.506 83.1699 144.393C86.8613 136.632 87.1074 137.041 87.1074 137.041L87.5176 136.959C87.5176 136.959 84.6465 151.745 85.7539 155.748C86.8203 159.751 91.5781 159.342 91.5781 159.342C91.5781 159.342 94.1621 160.241 96.2539 152.93C98.3867 145.577 102.365 137.939 102.365 137.939H102.857C102.857 137.939 101.094 152.644 103.801 157.504C106.467 162.324 113.398 158.934 113.398 158.934C113.398 158.934 118.238 156.361 118.977 155.625C118.977 155.625 124.719 160.445 132.84 159.546C150.969 155.993 157.449 151.173 157.449 151.173C157.449 151.173 160.525 159.015 170.164 159.751C181.197 160.568 187.227 153.624 187.227 153.624C187.227 153.624 187.103 158.117 190.959 159.751C194.814 161.303 197.398 152.93 197.398 152.93L203.838 135.775H204.412C204.412 135.775 204.74 146.721 211.098 148.559C217.537 150.397 225.781 144.066 225.781 144.066C225.781 144.066 227.791 142.718 227.422 139.369" fill="#E24B31"/>
</g>
<defs>
<clipPath id="clip0_88_704">
<rect width="210" height="87" fill="white" transform="translate(23 79)"/>
</clipPath>
</defs>
</svg>
