<svg width="256" height="256" viewBox="0 0 256 256" fill="none" xmlns="http://www.w3.org/2000/svg">
<rect width="256" height="256" fill="#232932"/>
<g clip-path="url(#clip0_201_347)">
<path d="M128 228C183.228 228 228 183.228 228 128C228 72.7715 183.228 28 128 28C72.7715 28 28 72.7715 28 128C28 183.228 72.7715 228 128 228Z" fill="#FFCF00"/>
<path d="M82.1289 73.8711L136.259 128L82.1289 182.129L68.8711 168.871L109.741 128L68.8711 87.1289L82.1289 73.8711ZM142.129 73.8711L196.259 128L142.129 182.129L128.871 168.871L169.741 128L128.871 87.1289L142.129 73.8711Z" fill="#191919"/>
</g>
<defs>
<clipPath id="clip0_201_347">
<rect width="200" height="200" fill="white" transform="translate(28 28)"/>
</clipPath>
</defs>
</svg>
