<svg width="256" height="256" viewBox="0 0 256 256" fill="none" xmlns="http://www.w3.org/2000/svg">
<rect width="256" height="256" fill="#111828"/>
<g clip-path="url(#clip0_49_1307)">
<path d="M88.9113 103.022L126.855 81.0869C127.322 80.8171 127.852 80.675 128.391 80.675C128.93 80.675 129.459 80.8171 129.926 81.0869L167.87 103.022C168.337 103.292 168.724 103.68 168.994 104.147C169.263 104.614 169.405 105.144 169.405 105.684V149.554C169.405 150.651 168.819 151.666 167.87 152.216L129.926 174.151C129.459 174.421 128.93 174.563 128.391 174.563C127.852 174.563 127.322 174.421 126.855 174.151L88.9113 152.216C88.4447 151.946 88.0571 151.558 87.7876 151.091C87.5182 150.624 87.3763 150.094 87.3762 149.554V105.683C87.377 104.585 87.9621 103.572 88.9113 103.022Z" fill="#8080F2"/>
<path d="M226.76 124.024L181.376 44.9671C179.727 42.1089 176.682 40 173.385 40H82.6154C79.3186 40 76.2719 42.1089 74.6235 44.9671L29.2397 123.85C27.5913 126.709 27.5913 130.317 29.2397 133.176L74.6235 211.585C76.2719 214.443 79.3186 215.905 82.6154 215.905H173.385C176.681 215.905 179.727 214.487 181.375 211.628L226.759 133.091C228.409 130.234 228.409 126.882 226.759 124.024M189.179 162.04C189.179 163.202 188.48 164.277 187.474 164.859L129.664 198.255C129.166 198.54 128.603 198.69 128.029 198.69C127.455 198.69 126.892 198.54 126.394 198.255L68.5393 164.859C67.5339 164.277 66.83 163.202 66.83 162.039V95.2468C66.83 94.0836 67.5237 93.0096 68.5299 92.4277L126.337 59.0315C126.834 58.7453 127.398 58.5947 127.971 58.5947C128.545 58.5947 129.109 58.7453 129.606 59.0315L187.464 92.4277C188.471 93.0096 189.179 94.0836 189.179 95.2468V162.04Z" fill="#4B32C3"/>
</g>
<defs>
<clipPath id="clip0_49_1307">
<rect width="200" height="176" fill="white" transform="translate(28 40)"/>
</clipPath>
</defs>
</svg>
