<svg width="256" height="256" viewBox="0 0 256 256" fill="none" xmlns="http://www.w3.org/2000/svg">
<rect width="256" height="256" fill="#6965DB"/>
<g clip-path="url(#clip0_49_1462)">
<path d="M222.549 189.798C222.361 189.657 222.144 189.56 221.914 189.513C221.684 189.467 221.447 189.472 221.219 189.528C211.244 174.843 198.474 160.949 186.235 147.451L184.24 145.203C184.232 144.625 183.71 144.253 183.179 144.016L182.514 143.351C182.118 142.559 181.176 142.028 180.25 142.559C176.529 144.411 173.07 147.19 169.745 149.834C165.359 153.27 160.965 156.722 156.84 160.553C155.152 162.049 153.595 163.685 152.185 165.446C151.52 166.372 152.051 167.164 152.85 167.56C149.921 170.473 146.992 173.386 144.071 176.426C143.813 176.719 143.672 177.097 143.675 177.487C143.675 177.883 143.936 178.279 144.205 178.413L149.391 182.388V182.514C156.706 189.798 169.61 199.717 183.314 210.436C185.301 212.028 187.43 213.619 189.433 215.202C190.36 216.263 191.286 217.458 192.085 218.511C192.481 219.034 193.423 219.176 193.954 218.773C194.215 219.042 194.619 219.303 194.888 219.564C195.129 219.712 195.399 219.804 195.68 219.833C195.888 219.848 196.096 219.807 196.284 219.716C196.472 219.624 196.632 219.484 196.748 219.311C196.893 219.07 196.982 218.799 197.01 218.519C197.144 218.519 197.144 218.646 197.279 218.646C197.669 218.649 198.047 218.508 198.34 218.25L222.549 191.911C223.499 190.993 222.66 189.798 222.549 189.798ZM162.16 188.737L149.921 179.474L148.734 178.683C148.457 178.548 148.195 178.287 147.926 178.152L147 177.361C152.225 172.136 157.529 167.005 162.833 161.876C158.97 165.707 151.251 176.965 152.85 180.662C152.866 180.662 152.993 180.994 153.381 181.327L162.16 188.737ZM194.619 213.484L184.509 205.805C180.502 201.669 176.329 197.697 172.001 193.898C177.463 197.999 182.11 201.578 182.775 202.235C188.103 206.866 187.826 206.074 191.428 209.122L195.814 212.289C195.228 213.104 194.619 213.461 194.619 213.484ZM197.279 215.463L197.01 215.337C197.439 215.067 197.842 214.757 198.213 214.411L197.279 215.463ZM37.655 60.5184C37.9162 62.2363 38.32 63.9622 38.5812 65.5534C40.1725 74.2855 41.7717 82.2259 44.6929 88.1792L45.8962 92.6759C46.2921 94.3938 46.9571 96.5155 47.63 97.0459C56.8007 105.134 66.2483 112.902 75.9558 120.337C76.2046 120.527 76.5093 120.631 76.8227 120.631C77.1361 120.631 77.4408 120.527 77.6896 120.337C77.6896 120.337 77.6896 120.463 77.8162 120.463C77.9331 120.594 78.0774 120.698 78.2389 120.766C78.4005 120.835 78.5751 120.866 78.7504 120.859C79.1407 120.863 79.5185 120.722 79.8112 120.463C94.0454 104.717 104.685 91.7497 112.27 80.8959C112.808 80.3734 112.935 79.5738 112.935 78.9168C113.465 78.3863 113.869 77.7213 114.399 77.3255C114.93 76.7951 114.93 75.8688 114.399 75.4651L114.265 75.3384C114.265 75.0772 114.13 74.6734 113.869 74.5468C110.544 71.3722 108.153 69.1238 105.62 66.7409C99.309 60.8512 93.1014 54.8521 86.9996 48.7463C86.865 48.6118 86.7304 48.4772 86.4692 48.4772C83.8092 47.5509 78.3546 46.6247 71.57 45.4293C61.4604 43.7193 47.7567 41.3363 35.3908 37.6234C35.3908 37.6234 34.5912 37.6234 34.4567 37.758L34.0608 38.1538C33.3958 38.6526 33.1742 38.5972 33 38.6843C33.1346 39.4759 33.1346 40.0063 33.3958 40.9326C33.3958 41.1938 33.9342 43.3155 33.9342 43.5768L37.655 60.5184ZM94.5758 98.3601L94.3146 98.6292C94.3182 98.5604 94.3466 98.4951 94.3947 98.4456C94.4427 98.3961 94.5071 98.3657 94.5758 98.3601ZM84.8779 50.7176C85.6775 51.5093 89.0025 54.6917 89.8021 55.3488C86.3425 53.7655 77.6975 49.7913 73.6996 48.4693C77.6975 49.2609 83.1521 50.0605 84.8779 50.7176ZM39.2542 44.1072C41.2492 47.543 42.8483 59.4576 44.4396 71.103C43.5054 67.3901 42.8483 63.693 42.0487 60.2413C40.8533 54.1613 39.65 48.7384 38.0508 43.9726C39.0325 43.9726 39.2542 44.1388 39.2542 44.1072ZM36.99 41.1859C36.99 41.0593 36.99 40.9247 36.8554 40.9247C37.5283 40.9247 37.9242 41.0593 38.4546 41.3205C38.4546 41.368 37.3067 41.1859 36.99 41.1859ZM220.419 39.468C220.554 38.9455 217.759 36.5626 218.685 36.428C220.688 36.2934 220.688 33.2534 218.685 33.2534C216.033 33.388 213.239 34.0451 210.705 34.4409C206.058 35.3672 201.269 36.2934 196.614 37.3463C186.132 39.5542 175.707 42.0276 165.351 44.7643C162.16 45.6905 158.566 46.3476 155.51 47.9388C154.442 48.4693 154.576 49.5222 155.115 50.1872C154.845 50.3218 154.711 50.3218 154.442 50.4563C153.515 50.5909 152.716 50.7255 151.79 50.8522C150.982 50.9868 150.586 51.6438 150.721 52.4355C150.721 52.5701 150.855 52.8313 150.855 52.9659C145.266 60.3759 139.012 68.1897 132.228 76.5259C125.577 84.1972 118.532 92.2722 111.486 100.608C89.0025 126.813 63.59 156.579 35.5333 182.783C35.4063 182.902 35.305 183.045 35.2357 183.205C35.1664 183.364 35.1307 183.536 35.1307 183.71C35.1307 183.883 35.1664 184.055 35.2357 184.215C35.305 184.374 35.4063 184.517 35.5333 184.636C35.66 184.763 35.7946 184.897 35.9292 184.897C35.5333 185.293 35.1296 185.57 34.7258 185.958C34.4619 186.222 34.33 186.486 34.33 186.75C34.1241 186.946 33.9457 187.17 33.7996 187.415C33.2692 187.945 33.2692 188.871 33.9342 189.267C34.4646 189.79 35.3987 189.79 35.7946 189.133C35.9292 188.998 35.9292 188.871 36.0558 188.871C36.4476 188.489 36.9732 188.275 37.5204 188.275C38.0676 188.275 38.5932 188.489 38.985 188.871C40.5842 190.589 42.1833 192.315 43.64 193.764L40.315 190.993C39.7846 190.463 38.8583 190.597 38.4625 191.12C37.9242 191.642 38.0587 192.576 38.5892 192.972L73.9688 222.478C74.2379 222.747 74.4992 222.747 74.9029 222.747C75.0769 222.753 75.25 222.72 75.4101 222.652C75.5702 222.584 75.7132 222.481 75.8292 222.351L76.6287 221.559C76.7633 221.686 77.0246 221.686 77.1592 221.686C77.555 221.686 77.8242 221.559 78.0933 221.29C125.981 173.394 164.559 137.263 208.718 104.97C209.114 104.709 209.249 104.179 209.249 103.783C209.779 103.783 210.183 103.387 210.436 102.857C218.559 78.1172 220.158 56.1484 220.688 45.3026C220.688 44.8355 220.815 45.0018 220.815 44.7643C220.95 44.503 220.95 44.3684 220.95 44.3684C221.31 42.7207 221.124 41.0004 220.419 39.468ZM134.761 78.3784C136.882 75.9955 139.012 73.478 141.142 71.2297C127.446 89.2243 104.701 116.885 72.5042 149.834C94.4571 125.617 116.537 100.608 134.761 78.3784ZM73.6917 218.773C73.565 218.638 73.565 218.638 73.6917 218.638V218.773ZM93.515 201.704C94.5837 200.517 95.6525 199.456 96.84 198.268C96.84 198.268 96.84 198.395 96.9746 198.395C95.2013 199.963 93.5467 201.704 93.515 201.704ZM98.9775 196.416C99.7612 195.624 100.086 195.046 101.226 193.898C109.079 185.823 117.194 177.748 125.443 169.547L125.57 169.42C127.565 167.837 129.963 166.111 132.093 164.52C120.917 175.011 109.883 185.644 98.9775 196.416ZM150.578 63.9543C146.192 69.6463 141.268 77.183 137.144 83.1363C124.113 101.931 82.2021 147.847 81.2758 148.639C68.5403 160.806 55.7707 172.937 42.9671 185.032L42.1754 185.823C41.5025 185.032 41.5025 183.844 42.3021 183.179C101.495 127.731 137.421 81.553 151.916 61.3101C151.52 62.2284 151.243 63.0201 150.578 63.9543ZM173.584 91.0847C168.272 88.0288 165.747 83.2709 167.203 78.6397L167.599 77.0563C167.771 76.5908 167.997 76.1471 168.272 75.7342C169.715 73.3623 171.787 71.4361 174.257 70.1688C174.384 70.1688 174.518 70.1688 174.653 70.0422C174.518 69.773 174.518 69.3772 174.518 68.9813C174.653 68.1897 175.191 67.6592 176.117 67.6592C177.717 67.6592 182.641 69.1159 184.501 70.6992C185.032 71.0951 185.562 71.6255 186.1 72.1559C186.765 72.9476 187.826 74.2776 188.357 75.3305C188.626 75.4651 188.887 76.7872 189.291 77.4522C189.552 78.513 189.821 79.7005 189.687 80.7613C189.552 80.888 189.687 81.6797 189.552 81.6797C189.322 83.4148 188.734 85.0834 187.826 86.5801C187.589 86.8176 187.874 86.6751 187.43 87.1105C186.765 88.1478 185.905 89.0459 184.897 89.7547C183.477 90.7861 181.845 91.4876 180.119 91.8081C178.393 92.1286 176.618 92.06 174.922 91.6072C174.484 91.4128 174.038 91.2385 173.584 91.0847ZM208.18 102.192C208.18 102.326 208.045 102.588 208.18 102.722C207.911 102.722 207.784 102.857 207.507 102.991C196.998 110.741 186.664 118.725 176.513 126.939C185.301 119.133 194.072 111.193 203.256 103.387C205.916 101.004 207.776 97.9563 208.307 94.5205L209.637 86.5801V86.3188C210.31 84.7276 212.835 85.3847 212.431 87.1105C212.4 87.1026 211.062 93.4043 208.18 102.192Z" fill="white"/>
</g>
<defs>
<clipPath id="clip0_49_1462">
<rect width="190" height="190" fill="white" transform="translate(33 33)"/>
</clipPath>
</defs>
</svg>
