<svg width="256" height="256" viewBox="0 0 256 256" fill="none" xmlns="http://www.w3.org/2000/svg">
<g clip-path="url(#clip0_23_543)">
<rect width="256" height="256" fill="white"/>
<rect width="256" height="256" fill="black"/>
<path d="M122.772 104.38C124.414 101.983 126.205 101.681 127.658 101.681C129.111 101.681 131.525 101.983 133.169 104.38C146.056 121.938 167.333 156.925 183.031 182.742C193.273 199.566 201.134 212.497 202.753 214.141C208.806 220.316 217.111 216.467 221.938 209.461C226.686 202.567 228 197.723 228 192.559C228 189.039 159.169 62.0672 152.241 51.4969C145.578 41.3344 143.4 38.7656 132 38.7656H123.455C112.08 38.7656 110.438 41.3344 103.769 51.4969C96.8406 62.0672 28 189.039 28 192.552C28 197.723 29.3234 202.567 34.0812 209.461C38.9062 216.467 47.2109 220.316 53.2656 214.133C54.875 212.488 62.7359 199.566 72.9766 182.734C88.675 156.925 109.883 121.938 122.78 104.37L122.772 104.38Z" fill="white"/>
</g>
<defs>
<clipPath id="clip0_23_543">
<rect width="256" height="256" fill="white"/>
</clipPath>
</defs>
</svg>
