<svg width="256" height="256" viewBox="0 0 256 256" fill="none" xmlns="http://www.w3.org/2000/svg">
<rect width="256" height="256" fill="#242932"/>
<path d="M122.772 102.38C124.414 99.9828 126.205 99.6812 127.658 99.6812C129.111 99.6812 131.525 99.9828 133.169 102.38C146.056 119.938 167.333 154.925 183.031 180.742C193.273 197.566 201.134 210.497 202.753 212.141C208.806 218.316 217.111 214.467 221.938 207.461C226.686 200.567 228 195.723 228 190.559C228 187.039 159.169 60.0672 152.241 49.4969C145.578 39.3344 143.4 36.7656 132 36.7656H123.455C112.08 36.7656 110.438 39.3344 103.769 49.4969C96.8406 60.0672 28 187.039 28 190.552C28 195.723 29.3234 200.567 34.0812 207.461C38.9062 214.467 47.2109 218.316 53.2656 212.133C54.875 210.488 62.7359 197.566 72.9766 180.734C88.675 154.925 109.883 119.938 122.78 102.37L122.772 102.38Z" fill="white"/>
</svg>
