<svg width="256" height="256" viewBox="0 0 256 256" fill="none" xmlns="http://www.w3.org/2000/svg">
<rect width="256" height="256" fill="#232932"/>
<path d="M228 182.969C220.725 184.819 216.225 183.05 212.188 176.988L183.475 137.263L179.325 131.763L145.794 177.119C141.963 182.575 137.944 184.95 130.794 183.019L173.731 125.381L133.756 73.319C140.631 71.9815 145.381 72.6627 149.6 78.819L179.381 119.038L209.381 79.0377C213.225 73.5815 217.356 71.5065 224.256 73.519L208.756 94.069L187.756 121.413C185.256 124.538 185.6 126.675 187.9 129.694L228 182.969ZM28.05 124.419L31.5625 107.144C41.125 72.9565 80.3125 58.7502 107.338 79.8752C123.131 92.3002 127.056 109.875 126.275 129.563H37.25C35.9125 165 61.4188 186.388 93.9375 175.475C105.344 171.644 112.062 162.713 115.425 151.538C117.131 145.938 119.956 145.063 125.219 146.663C122.531 160.638 116.469 172.313 103.656 179.619C84.5125 190.556 57.1875 187.019 42.8125 171.819C34.25 163 30.7125 151.825 29.125 139.875C28.875 137.9 28.375 136.019 28 134.125C28.0333 130.892 28.05 127.659 28.05 124.425V124.419ZM37.4125 122.044H117.863C117.338 96.419 101.381 78.219 79.575 78.0627C55.6375 77.8752 38.45 95.644 37.4125 122.044Z" fill="white"/>
</svg>
