<svg width="256" height="256" viewBox="0 0 256 256" fill="none" xmlns="http://www.w3.org/2000/svg">
<rect width="256" height="256" fill="#232526"/>
<path d="M223.547 80.6009L230 63.9504L229.719 62.9192L165.883 79.6768C172.689 69.8674 170.352 62 170.352 62C170.352 62 149.966 74.9706 134.549 74.6312C119.133 74.2919 114.163 70.1919 90.5256 77.7067C66.8878 85.2133 60.2071 108.262 53.3545 113.214C46.5019 118.165 25 134.29 25 134.29L25.0463 134.577L44.4304 128.428C44.4304 128.428 39.1136 133.419 27.8187 148.587L27.2914 148.101L27.3112 148.208C27.3112 148.208 36.3891 162.032 45.2983 159.475C46.1927 159.215 47.2012 158.79 48.3039 158.23C51.8914 160.22 56.5733 162.177 61.7429 162.716C61.7429 162.716 58.2431 158.662 55.3235 154.051C56.1121 153.545 56.9205 153.02 57.7421 152.488L57.3619 152.755L64.7435 155.456L63.9285 148.541C63.955 148.528 63.9748 148.508 64.0012 148.495L71.2556 151.15L70.3546 144.861C71.2607 144.388 72.1785 143.937 73.1072 143.51L80.6691 115.012L111.937 93.761L109.448 99.9893C103.11 115.523 91.2067 119.19 91.2067 119.19L86.2371 121.066C82.5438 125.418 80.9865 126.491 79.7185 141.098C82.6976 140.352 85.5428 140.173 88.1218 140.866C101.482 144.454 106.109 160.493 102.51 164.933C101.609 166.045 99.4646 167.941 96.7583 170.171H91.334L91.2613 174.551C91.0739 174.696 90.8893 174.841 90.7075 174.984H85.1906L85.1245 179.257C84.6368 179.63 84.1491 179.989 83.6812 180.343C78.4984 180.45 71.9318 175.943 71.9318 175.943C71.9318 180.043 75.3589 186.352 75.3589 186.352C75.3589 186.352 75.5854 186.245 75.9673 186.059C75.6333 186.304 75.4465 186.438 75.4465 186.438C75.4465 186.438 89.3204 195.656 98.056 192.241C105.825 189.207 125.936 173.406 143.297 165.926L195.831 152.137L202.758 134.254L162.722 144.764V128.704L209.698 116.371L216.625 98.4886L162.735 112.639V96.5729L223.547 80.6009ZM128.204 114.643L140.668 111.369L140.835 111.988L136.948 122.025L124.03 125.42L128.204 114.643ZM132.506 136.127L119.588 139.522L123.762 128.741L136.226 125.466L136.393 126.085L132.506 136.127ZM149.339 132.526L136.421 135.921L140.595 125.14L153.059 121.865L153.226 122.484L149.339 132.526Z" fill="white"/>
</svg>
