<svg width="256" height="256" viewBox="0 0 256 256" fill="none" xmlns="http://www.w3.org/2000/svg">
<rect width="256" height="256" fill="#232932"/>
<g clip-path="url(#clip0_167_10)">
<path d="M222.733 128.006C222.733 75.6816 180.318 33.2671 128 33.2671C75.6994 33.2671 33.3012 75.646 33.2671 127.936V201.249C33.2968 213.12 42.9215 222.733 54.8024 222.733H128.034C180.342 222.71 222.733 180.312 222.733 128.006Z" fill="#294172"/>
<path d="M87.8818 134.116H121.929V168.167C121.929 186.959 106.68 202.214 87.8818 202.214C69.0896 202.214 53.8391 186.959 53.8391 168.167C53.8391 149.375 69.0896 134.119 87.8818 134.119V134.116Z" stroke="#3C6EB4" stroke-width="14.003"/>
<path d="M155.814 134.181H121.767V100.14C121.767 81.3477 137.022 66.0913 155.814 66.0913C174.606 66.0913 189.863 81.3418 189.863 100.14C189.863 118.932 174.606 134.181 155.814 134.181Z" stroke="#3C6EB4" stroke-width="14.003"/>
<path d="M132.343 123.75V168.118C132.343 192.67 112.438 212.579 87.8863 212.579C84.159 212.579 81.5094 212.156 78.0642 211.258C73.0321 209.942 68.9263 205.82 68.9204 201.024C68.9204 195.226 73.1301 191.01 79.4209 191.01C82.4134 191.01 83.4985 191.584 87.8878 191.584C100.829 191.584 111.33 181.1 111.353 168.154V147.76C111.353 145.934 109.868 144.45 108.037 144.456L92.6185 144.45C86.8784 144.45 82.2338 139.869 82.2338 134.111C82.2338 128.313 86.9244 123.75 92.7283 123.75" fill="white"/>
<path d="M111.353 144.548V100.186C111.353 75.6296 131.258 55.7241 155.814 55.7241C159.537 55.7241 162.187 56.1397 165.636 57.0452C170.664 58.3619 174.776 62.484 174.776 67.28C174.776 73.078 170.566 77.2936 164.281 77.2936C161.283 77.2936 160.199 76.7191 155.814 76.7191C142.868 76.7191 132.366 87.2033 132.343 100.144V120.544C132.347 121.421 132.698 122.261 133.319 122.881C133.941 123.5 134.782 123.848 135.659 123.848L151.078 123.854C156.824 123.854 161.462 128.435 161.462 134.193C161.468 139.991 156.772 144.554 150.968 144.554" fill="white"/>
</g>
<defs>
<clipPath id="clip0_167_10">
<rect width="190" height="190" fill="white" transform="translate(33 33)"/>
</clipPath>
</defs>
</svg>
