<svg width="256" height="256" viewBox="0 0 256 256" fill="none" xmlns="http://www.w3.org/2000/svg">
<rect width="256" height="256" fill="#232932"/>
<g clip-path="url(#clip0_199_76)">
<path d="M221.776 93.2967C217.425 82.8303 208.601 71.5296 201.69 67.9575C206.619 77.502 210.039 87.7522 211.83 98.3436L211.848 98.5115C200.527 70.2923 181.33 58.9144 165.652 34.1384C164.842 32.8754 164.056 31.5976 163.294 30.3054C162.901 29.6305 162.533 28.9413 162.191 28.2393C161.54 26.9802 161.039 25.6496 160.697 24.2743C160.697 24.2108 160.674 24.1493 160.632 24.1017C160.591 24.054 160.533 24.0234 160.47 24.0157C160.408 23.9993 160.343 23.9993 160.281 24.0157C160.269 24.0157 160.248 24.0392 160.232 24.0446C160.216 24.0493 160.183 24.0727 160.16 24.0829L160.198 24.0157C135.05 38.7393 126.516 65.9945 125.731 79.6276C115.688 80.3178 106.086 84.018 98.1773 90.2456C97.3521 89.5469 96.4897 88.8934 95.5937 88.288C93.3126 80.304 93.2155 71.8542 95.3125 63.8199C86.0768 68.2932 77.8704 74.6346 71.2125 82.4428H71.1656C67.1977 77.4139 67.4766 60.8313 67.7039 57.3669C66.5301 57.839 65.4095 58.4338 64.3609 59.1417C60.8582 61.6416 57.5835 64.4464 54.575 67.5232C51.1473 70.9984 48.0165 74.7545 45.2156 78.752V78.7668V78.7489C38.7788 87.8737 34.2131 98.1827 31.782 109.081L31.6484 109.742C31.2789 111.819 30.9507 113.903 30.6641 115.993C30.6641 116.068 30.6484 116.138 30.6406 116.213C29.7641 120.767 29.221 125.38 29.0156 130.013V130.53C29.0828 207.597 112.566 255.691 179.284 217.099C191.982 209.754 202.91 199.71 211.297 187.676C219.683 175.642 225.322 161.912 227.816 147.459C227.984 146.168 228.12 144.889 228.27 143.584C230.332 126.543 228.1 109.256 221.776 93.2967ZM106.377 171.658C106.845 171.883 107.284 172.126 107.764 172.34L107.834 172.385C107.344 172.15 106.859 171.908 106.377 171.658ZM211.855 98.5349V98.4389L211.873 98.5451L211.855 98.5349Z" fill="url(#paint0_linear_199_76)"/>
<path d="M221.776 93.2967C217.425 82.8303 208.601 71.5296 201.69 67.9575C206.619 77.502 210.039 87.7522 211.83 98.3436V98.4389L211.848 98.5451C219.565 120.626 218.448 144.834 208.732 166.111C197.257 190.729 169.48 215.962 126.002 214.735C79.0242 213.404 37.6516 178.55 29.9172 132.898C28.5094 125.7 29.9172 122.05 30.625 116.199C29.6593 120.744 29.1205 125.368 29.0156 130.013V130.53C29.0828 207.597 112.566 255.691 179.284 217.099C191.982 209.754 202.91 199.71 211.297 187.676C219.683 175.642 225.322 161.912 227.816 147.459C227.984 146.168 228.12 144.889 228.27 143.584C230.332 126.543 228.1 109.256 221.776 93.2967Z" fill="url(#paint1_radial_199_76)"/>
<path d="M221.776 93.2967C217.425 82.8303 208.601 71.5296 201.69 67.9575C206.619 77.502 210.039 87.7522 211.83 98.3436V98.4389L211.848 98.5451C219.565 120.626 218.448 144.834 208.732 166.111C197.257 190.729 169.48 215.962 126.002 214.735C79.0242 213.404 37.6516 178.55 29.9172 132.898C28.5094 125.7 29.9172 122.05 30.625 116.199C29.6593 120.744 29.1205 125.368 29.0156 130.013V130.53C29.0828 207.597 112.566 255.691 179.284 217.099C191.982 209.754 202.91 199.71 211.297 187.676C219.683 175.642 225.322 161.912 227.816 147.459C227.984 146.168 228.12 144.889 228.27 143.584C230.332 126.543 228.1 109.256 221.776 93.2967Z" fill="url(#paint2_radial_199_76)"/>
<path d="M173.12 105.064C173.337 105.217 173.539 105.369 173.743 105.521C171.228 101.062 168.097 96.9798 164.443 93.3942C133.324 62.2747 156.287 25.9192 160.16 24.0726L160.198 24.0156C135.05 38.7392 126.516 65.9944 125.731 79.6275C126.899 79.5471 128.056 79.4487 129.25 79.4487C138.173 79.4652 146.933 81.844 154.639 86.3433C162.344 90.8426 168.721 97.3019 173.12 105.064Z" fill="url(#paint3_radial_199_76)"/>
<path d="M129.315 111.279C129.149 113.769 120.35 122.357 117.273 122.357C88.8023 122.357 84.1804 139.578 84.1804 139.578C85.4414 154.079 95.5476 166.022 107.764 172.34C108.322 172.63 108.888 172.891 109.454 173.146C110.422 173.576 111.402 173.977 112.394 174.35C116.586 175.834 120.977 176.681 125.421 176.863C175.324 179.203 184.991 117.197 148.979 99.2036C157.474 98.0982 166.078 100.187 173.12 105.064C168.721 97.3019 162.344 90.8427 154.639 86.3434C146.933 81.8441 138.173 79.4652 129.25 79.4487C128.062 79.4487 126.899 79.5472 125.731 79.6276C115.688 80.3178 106.086 84.0179 98.1773 90.2455C99.7039 91.5375 101.427 93.2631 105.057 96.8399C111.851 103.533 129.276 110.465 129.315 111.279Z" fill="url(#paint4_radial_199_76)"/>
<path d="M129.315 111.279C129.149 113.769 120.35 122.357 117.273 122.357C88.8023 122.357 84.1804 139.578 84.1804 139.578C85.4414 154.079 95.5476 166.022 107.764 172.34C108.322 172.63 108.888 172.891 109.454 173.146C110.422 173.576 111.402 173.977 112.394 174.35C116.586 175.834 120.977 176.681 125.421 176.863C175.324 179.203 184.991 117.197 148.979 99.2036C157.474 98.0982 166.078 100.187 173.12 105.064C168.721 97.3019 162.344 90.8427 154.639 86.3434C146.933 81.8441 138.173 79.4652 129.25 79.4487C128.062 79.4487 126.899 79.5472 125.731 79.6276C115.688 80.3178 106.086 84.0179 98.1773 90.2455C99.7039 91.5375 101.427 93.2631 105.057 96.8399C111.851 103.533 129.276 110.465 129.315 111.279Z" fill="url(#paint5_radial_199_76)"/>
<path d="M93.5093 86.9163C94.207 87.3601 94.8959 87.8174 95.5758 88.288C93.2942 80.304 93.1971 71.8541 95.2945 63.8198C86.0587 68.2933 77.8521 74.6347 71.1937 82.4428C71.682 82.4295 86.2062 82.1686 93.5093 86.9163Z" fill="url(#paint6_radial_199_76)"/>
<path d="M29.9304 132.899C37.657 178.55 79.0374 213.404 126.016 214.735C169.494 215.964 197.269 190.729 208.745 166.111C218.462 144.834 219.578 120.626 211.861 98.5452V98.4499C211.861 98.3749 211.845 98.3303 211.861 98.3538L211.879 98.5217C215.431 121.709 203.635 144.173 185.195 159.363L185.138 159.493C149.209 188.75 114.824 177.145 107.865 172.407C107.375 172.173 106.889 171.931 106.408 171.682C85.4593 161.67 76.8054 142.587 78.6601 126.221C73.6874 126.295 68.8001 124.925 64.5904 122.277C60.3807 119.63 57.0293 115.818 54.9421 111.305C60.4411 107.937 66.7112 106.032 73.1548 105.774C79.5985 105.515 86.001 106.911 91.7523 109.828C103.61 115.21 117.102 115.74 129.345 111.305C129.307 110.491 111.882 103.556 105.087 96.8665C101.458 93.2889 99.7351 91.5657 98.2085 90.2722C97.3835 89.573 96.521 88.9193 95.6249 88.3139C95.0304 87.9085 94.3617 87.4695 93.5585 86.9422C86.2554 82.1945 71.7312 82.4554 71.2507 82.4687H71.2046C67.2367 77.4397 67.5156 60.8571 67.7429 57.3936C66.5689 57.8648 65.4483 58.4595 64.3999 59.1675C60.8971 61.6673 57.6223 64.4721 54.614 67.5491C51.1742 71.0148 48.0304 74.7622 45.2156 78.7521V78.7669V78.7489C38.7788 87.8737 34.2131 98.1827 31.782 109.081C31.7335 109.285 28.1757 124.834 29.9304 132.899Z" fill="url(#paint7_radial_199_76)"/>
<path d="M164.448 93.3943C168.103 96.9843 171.234 101.071 173.748 105.535C174.268 105.921 174.768 106.331 175.249 106.764C197.949 127.686 186.055 157.261 185.169 159.366C203.609 144.176 215.394 121.712 211.853 98.524C200.527 70.2923 181.33 58.9144 165.652 34.1384C164.842 32.8754 164.056 31.5976 163.294 30.3054C162.901 29.6305 162.533 28.9413 162.191 28.2393C161.54 26.9802 161.039 25.6496 160.697 24.2743C160.697 24.2108 160.674 24.1493 160.632 24.1017C160.591 24.054 160.533 24.0234 160.469 24.0157C160.408 23.9993 160.343 23.9993 160.281 24.0157C160.269 24.0157 160.248 24.0392 160.232 24.0446C160.216 24.0493 160.183 24.0727 160.16 24.0829C156.287 25.9193 133.324 62.2748 164.448 93.3943Z" fill="url(#paint8_radial_199_76)"/>
<path d="M175.234 106.751C174.753 106.318 174.252 105.908 173.733 105.521C173.529 105.369 173.327 105.217 173.11 105.064C166.068 100.187 157.464 98.0983 148.969 99.2035C184.98 117.207 175.319 179.203 125.411 176.863C120.967 176.681 116.576 175.834 112.384 174.35C111.392 173.978 110.411 173.577 109.444 173.146C108.877 172.888 108.312 172.63 107.754 172.34L107.823 172.385C114.783 177.135 149.157 188.74 185.097 159.469L185.154 159.341C186.05 157.248 197.944 127.666 175.234 106.751Z" fill="url(#paint9_radial_199_76)"/>
<path d="M84.1804 139.578C84.1804 139.578 88.8023 122.357 117.273 122.357C120.35 122.357 129.157 113.769 129.315 111.279C117.072 115.714 103.579 115.183 91.7218 109.801C85.9703 106.884 79.5676 105.489 73.1239 105.748C66.6802 106.006 60.41 107.911 54.9109 111.279C56.998 115.792 60.3495 119.604 64.5592 122.251C68.7689 124.899 73.6562 126.269 78.6289 126.195C76.7742 142.564 85.4281 161.647 106.377 171.656C106.844 171.881 107.284 172.124 107.764 172.338C95.5375 166.022 85.4414 154.079 84.1804 139.578Z" fill="url(#paint10_radial_199_76)"/>
<path d="M221.776 93.2967C217.425 82.8303 208.601 71.5296 201.69 67.9575C206.619 77.502 210.039 87.7522 211.83 98.3436L211.848 98.5115C200.527 70.2923 181.33 58.9144 165.652 34.1384C164.842 32.8754 164.056 31.5976 163.294 30.3054C162.901 29.6305 162.533 28.9413 162.191 28.2393C161.54 26.9802 161.039 25.6496 160.697 24.2743C160.697 24.2108 160.674 24.1493 160.632 24.1017C160.591 24.054 160.533 24.0234 160.47 24.0157C160.408 23.9993 160.343 23.9993 160.281 24.0157C160.269 24.0157 160.248 24.0392 160.232 24.0446C160.216 24.0493 160.183 24.0727 160.16 24.0829L160.198 24.0157C135.05 38.7393 126.516 65.9945 125.731 79.6276C126.899 79.5472 128.056 79.4488 129.25 79.4488C138.173 79.4653 146.933 81.8441 154.639 86.3434C162.345 90.8427 168.721 97.302 173.12 105.064C166.078 100.187 157.474 98.0982 148.979 99.2036C184.991 117.207 175.33 179.203 125.421 176.863C120.977 176.681 116.586 175.834 112.394 174.35C111.402 173.978 110.422 173.577 109.454 173.146C108.888 172.888 108.322 172.63 107.764 172.34L107.834 172.385C107.344 172.15 106.859 171.908 106.377 171.658C106.845 171.883 107.284 172.126 107.764 172.34C95.5375 166.022 85.4414 154.079 84.1805 139.578C84.1805 139.578 88.8023 122.357 117.273 122.357C120.35 122.357 129.157 113.769 129.315 111.279C129.276 110.465 111.851 103.53 105.057 96.8399C101.427 93.2631 99.7039 91.5399 98.1773 90.2456C97.3521 89.5469 96.4897 88.8934 95.5937 88.288C93.3126 80.304 93.2155 71.8542 95.3125 63.8199C86.0768 68.2932 77.8704 74.6346 71.2125 82.4428H71.1656C67.1977 77.4139 67.4766 60.8313 67.7039 57.3669C66.5301 57.839 65.4095 58.4338 64.3609 59.1417C60.8582 61.6416 57.5835 64.4464 54.575 67.5232C51.1473 70.9984 48.0165 74.7545 45.2156 78.752V78.7668V78.7489C38.7788 87.8737 34.2131 98.1827 31.782 109.081L31.6484 109.742C31.4594 110.623 30.6148 115.096 30.493 116.057C30.493 115.982 30.493 116.13 30.493 116.057C29.7205 120.675 29.2272 125.336 29.0156 130.013V130.53C29.0828 207.597 112.566 255.691 179.284 217.099C191.982 209.754 202.91 199.71 211.297 187.676C219.683 175.642 225.322 161.912 227.816 147.459C227.984 146.168 228.12 144.889 228.27 143.584C230.332 126.543 228.1 109.256 221.776 93.2967Z" fill="url(#paint11_linear_199_76)"/>
</g>
<defs>
<linearGradient id="paint0_linear_199_76" x1="208.523" y1="56.003" x2="42.3361" y2="216.366" gradientUnits="userSpaceOnUse">
<stop offset="0.048" stop-color="#FFF44F"/>
<stop offset="0.111" stop-color="#FFE847"/>
<stop offset="0.225" stop-color="#FFC830"/>
<stop offset="0.368" stop-color="#FF980E"/>
<stop offset="0.401" stop-color="#FF8B16"/>
<stop offset="0.462" stop-color="#FF672A"/>
<stop offset="0.534" stop-color="#FF3647"/>
<stop offset="0.705" stop-color="#E31587"/>
</linearGradient>
<radialGradient id="paint1_radial_199_76" cx="0" cy="0" r="1" gradientUnits="userSpaceOnUse" gradientTransform="translate(200.846 46.9297) scale(208.728 208.696)">
<stop offset="0.129" stop-color="#FFBD4F"/>
<stop offset="0.186" stop-color="#FFAC31"/>
<stop offset="0.247" stop-color="#FF9D17"/>
<stop offset="0.283" stop-color="#FF980E"/>
<stop offset="0.403" stop-color="#FF563B"/>
<stop offset="0.467" stop-color="#FF3750"/>
<stop offset="0.71" stop-color="#F5156C"/>
<stop offset="0.782" stop-color="#EB0878"/>
<stop offset="0.86" stop-color="#E50080"/>
</radialGradient>
<radialGradient id="paint2_radial_199_76" cx="0" cy="0" r="1" gradientUnits="userSpaceOnUse" gradientTransform="translate(124.575 132.25) scale(208.728 208.696)">
<stop offset="0.3" stop-color="#960E18"/>
<stop offset="0.351" stop-color="#B11927" stop-opacity="0.74"/>
<stop offset="0.435" stop-color="#DB293D" stop-opacity="0.343"/>
<stop offset="0.497" stop-color="#F5334B" stop-opacity="0.094"/>
<stop offset="0.53" stop-color="#FF3750" stop-opacity="0"/>
</radialGradient>
<radialGradient id="paint3_radial_199_76" cx="0" cy="0" r="1" gradientUnits="userSpaceOnUse" gradientTransform="translate(149.739 -0.431672) scale(151.214 151.192)">
<stop offset="0.132" stop-color="#FFF44F"/>
<stop offset="0.252" stop-color="#FFDC3E"/>
<stop offset="0.506" stop-color="#FF9D12"/>
<stop offset="0.526" stop-color="#FF980E"/>
</radialGradient>
<radialGradient id="paint4_radial_199_76" cx="0" cy="0" r="1" gradientUnits="userSpaceOnUse" gradientTransform="translate(101.487 186.764) scale(99.3844 99.3694)">
<stop offset="0.353" stop-color="#3A8EE6"/>
<stop offset="0.472" stop-color="#5C79F0"/>
<stop offset="0.669" stop-color="#9059FF"/>
<stop offset="1" stop-color="#C139E6"/>
</radialGradient>
<radialGradient id="paint5_radial_199_76" cx="0" cy="0" r="1" gradientUnits="userSpaceOnUse" gradientTransform="translate(136.012 115.149) rotate(-13.5895) scale(52.6925 61.6815)">
<stop offset="0.206" stop-color="#9059FF" stop-opacity="0"/>
<stop offset="0.278" stop-color="#8C4FF3" stop-opacity="0.064"/>
<stop offset="0.747" stop-color="#7716A8" stop-opacity="0.45"/>
<stop offset="0.975" stop-color="#6E008B" stop-opacity="0.6"/>
</radialGradient>
<radialGradient id="paint6_radial_199_76" cx="0" cy="0" r="1" gradientUnits="userSpaceOnUse" gradientTransform="translate(121.94 38.3904) scale(71.4971 71.4863)">
<stop stop-color="#FFE226"/>
<stop offset="0.121" stop-color="#FFDB27"/>
<stop offset="0.295" stop-color="#FFC82A"/>
<stop offset="0.502" stop-color="#FFA930"/>
<stop offset="0.732" stop-color="#FF7E37"/>
<stop offset="0.792" stop-color="#FF7139"/>
</radialGradient>
<radialGradient id="paint7_radial_199_76" cx="0" cy="0" r="1" gradientUnits="userSpaceOnUse" gradientTransform="translate(178.138 -6.95092) scale(305.046 305)">
<stop offset="0.113" stop-color="#FFF44F"/>
<stop offset="0.456" stop-color="#FF980E"/>
<stop offset="0.622" stop-color="#FF5634"/>
<stop offset="0.716" stop-color="#FF3647"/>
<stop offset="0.904" stop-color="#E31587"/>
</radialGradient>
<radialGradient id="paint8_radial_199_76" cx="0" cy="0" r="1" gradientUnits="userSpaceOnUse" gradientTransform="translate(152.477 10.0022) rotate(83.9752) scale(223.542 146.73)">
<stop stop-color="#FFF44F"/>
<stop offset="0.06" stop-color="#FFE847"/>
<stop offset="0.168" stop-color="#FFC830"/>
<stop offset="0.304" stop-color="#FF980E"/>
<stop offset="0.356" stop-color="#FF8B16"/>
<stop offset="0.455" stop-color="#FF672A"/>
<stop offset="0.57" stop-color="#FF3647"/>
<stop offset="0.737" stop-color="#E31587"/>
</radialGradient>
<radialGradient id="paint9_radial_199_76" cx="0" cy="0" r="1" gradientUnits="userSpaceOnUse" gradientTransform="translate(120.255 64.8684) scale(190.445 190.416)">
<stop offset="0.137" stop-color="#FFF44F"/>
<stop offset="0.48" stop-color="#FF980E"/>
<stop offset="0.592" stop-color="#FF5634"/>
<stop offset="0.655" stop-color="#FF3647"/>
<stop offset="0.904" stop-color="#E31587"/>
</radialGradient>
<radialGradient id="paint10_radial_199_76" cx="0" cy="0" r="1" gradientUnits="userSpaceOnUse" gradientTransform="translate(170.528 76.0138) scale(208.441 208.409)">
<stop offset="0.094" stop-color="#FFF44F"/>
<stop offset="0.231" stop-color="#FFE141"/>
<stop offset="0.509" stop-color="#FFAF1E"/>
<stop offset="0.626" stop-color="#FF980E"/>
</radialGradient>
<linearGradient id="paint11_linear_199_76" x1="206.526" y1="55.1455" x2="65.1185" y2="196.571" gradientUnits="userSpaceOnUse">
<stop offset="0.167" stop-color="#FFF44F" stop-opacity="0.8"/>
<stop offset="0.266" stop-color="#FFF44F" stop-opacity="0.634"/>
<stop offset="0.489" stop-color="#FFF44F" stop-opacity="0.217"/>
<stop offset="0.6" stop-color="#FFF44F" stop-opacity="0"/>
</linearGradient>
<clipPath id="clip0_199_76">
<rect width="200" height="207" fill="white" transform="translate(28 24)"/>
</clipPath>
</defs>
</svg>
