<svg width="256" height="256" viewBox="0 0 256 256" fill="none" xmlns="http://www.w3.org/2000/svg">
<rect width="256" height="256" fill="#232932"/>
<g clip-path="url(#clip0_88_278)">
<mask id="mask0_88_278" style="mask-type:luminance" maskUnits="userSpaceOnUse" x="61" y="28" width="139" height="198">
<path d="M61 28.3076H199.005V225.231H61V28.3076Z" fill="white"/>
</mask>
<g mask="url(#mask0_88_278)">
<path d="M157.726 102.769C158.959 102.769 160.499 103.385 162.655 103.692L182.986 116.923L116.756 156.308C115.832 156.615 114.6 156.923 113.368 157.539C111.828 157.846 109.979 158.154 108.747 158.462H104.435L78.8667 128L132.159 107.385C137.703 105.231 142.324 104.308 146.021 103.692C150.025 103.077 153.722 102.462 158.035 102.769H157.726Z" fill="#FFC400"/>
<path d="M156.494 52.3076C156.186 50.4615 155.57 48.6153 154.954 47.0768C154.03 43.9999 151.565 37.8461 145.713 31.9999C144.788 31.0768 143.248 29.5384 141.4 28.3076C134.315 36.923 127.846 43.0768 123.533 46.7692C112.444 56.923 94.2689 70.7692 82.5632 81.5384C80.4069 83.3845 76.4023 87.3845 72.7057 93.8461C72.0896 95.0768 71.1655 96.6153 70.2414 98.1538C70.2414 98.1538 70.2414 98.7692 69.9333 99.0769C69.6253 99.9999 69.3172 100.615 68.7011 101.538C67.1609 104.923 65.3126 109.538 65.0046 115.385C64.3885 120.615 65.0046 124.615 65.3126 126.461C65.3126 127.077 65.3126 127.692 65.6207 128.308C66.2368 130.461 66.8529 132.615 67.777 134.461C71.7816 143.692 78.2506 148.923 79.4827 149.846C86.5678 155.385 93.6529 156.923 95.8092 157.538C98.8896 158.154 101.662 158.154 103.818 158.154C103.51 156.615 102.894 154.461 102.586 152C101.662 143.077 104.743 136.308 105.975 132.615C107.207 130.154 109.671 124 115.524 118.461C118.297 116 121.069 113.846 123.841 112C126.922 109.846 129.694 108.308 131.234 107.385C136.779 103.385 147.561 94.1538 153.106 79.6922C153.722 77.8461 154.338 76.3076 154.338 76.3076C156.186 70.7692 157.726 62.4615 155.57 52.6153L156.494 52.3076Z" fill="url(#paint0_linear_88_278)"/>
<path d="M104.126 158.154C102.278 158.154 99.5058 158.154 96.1173 157.539C93.961 157.231 86.8759 155.385 79.7908 149.846C78.2506 148.615 68.3931 140.615 65.6207 126.154C65.3127 124.308 64.6966 120.308 65.3127 115.077C65.9288 109.231 67.7771 104.923 69.0092 101.231C70.2414 97.8463 71.7816 95.3847 72.7058 93.5386C73.0138 94.7693 73.938 96.6155 75.1702 98.4617C77.9426 102.769 81.3311 104.923 83.7954 106.769C85.0276 107.385 90.2644 110.769 98.2736 112.615C103.818 113.846 108.131 113.846 109.363 113.846C112.752 113.846 117.681 113.231 123.841 111.077C127.23 109.846 130.002 108 131.851 107.077C130.31 108.308 127.538 109.846 124.149 112C121.377 113.846 118.297 116 115.832 118.462C109.979 124 107.515 130.154 106.283 132.616C104.743 136 101.97 142.769 102.894 152C102.894 154.769 103.51 156.923 104.126 158.154Z" fill="#FF9100"/>
<path d="M190.379 155.385C192.844 150.461 193.768 145.231 193.768 145.231C193.768 144 194.384 141.846 194.692 139.692C194.692 137.538 194.692 134.154 194.384 131.384C192.844 122.461 186.067 115.385 185.143 114.461C185.143 114.461 180.522 109.846 173.745 106.461C172.821 105.846 170.972 105.231 168.508 104.308C166.044 103.692 164.195 103.384 162.347 103.077C160.191 103.077 158.651 102.769 157.418 102.461H158.651C159.883 102.461 160.499 103.077 161.115 103.385C161.731 103.385 162.655 104 163.579 104.923C163.887 105.231 164.503 105.538 164.812 106.154C165.12 106.769 165.736 107.385 166.044 108.615C166.968 112 164.812 115.077 164.195 116.308C158.959 124.308 130.002 141.231 113.06 158.769C108.747 163.385 105.667 167.385 103.202 172.308C97.9655 184 99.8138 195.077 100.43 197.538C103.51 213.846 115.524 222.769 118.297 224.615C126.614 215.385 134.007 208.308 139.552 203.077C153.414 190.461 171.28 176.615 171.28 176.615C171.28 176.615 185.143 165.538 190.379 154.769V155.385Z" fill="url(#paint1_linear_88_278)"/>
</g>
</g>
<defs>
<linearGradient id="paint0_linear_88_278" x1="79.1747" y1="144.923" x2="145.907" y2="32.548" gradientUnits="userSpaceOnUse">
<stop stop-color="#F8682F"/>
<stop offset="1" stop-color="#DD2C00"/>
</linearGradient>
<linearGradient id="paint1_linear_88_278" x1="150.333" y1="112.615" x2="142.65" y2="246.462" gradientUnits="userSpaceOnUse">
<stop stop-color="#F8682F"/>
<stop offset="0.6" stop-color="#E92A4E"/>
<stop offset="1" stop-color="#C447FF"/>
</linearGradient>
<clipPath id="clip0_88_278">
<rect width="134" height="200" fill="white" transform="translate(61 28)"/>
</clipPath>
</defs>
</svg>
