<svg width="256" height="256" viewBox="0 0 256 256" fill="none" xmlns="http://www.w3.org/2000/svg">
<rect width="256" height="256" fill="#3AA6BD"/>
<path d="M117.494 84.4249C119.681 80.5499 108.475 79.2062 116.025 83.0562C116.725 83.2874 116.569 84.6937 117.494 84.4249ZM56.3874 51.5062C51.6249 45.2874 65.3375 52.5499 60.5062 46.0374C56.4312 42.7937 52.5187 49.6937 56.3874 51.5062ZM66.3625 59.3187C73.125 58.4187 64.6437 56.4062 65.0062 59.2374L66.3625 59.3187ZM61.0187 58.0374C62.4687 56.0687 58.475 59.0374 61.0187 58.0374ZM71.8 69.9062C76 70.0062 69.9937 64.2687 74.9937 66.8624C74.175 64.1812 69.1687 63.6812 66.7124 62.6124C65.3374 65.0624 69.525 69.9374 71.7875 69.9062H71.8ZM58.725 69.3687C62.3187 66.6562 71.1249 70.9749 65.4749 66.6749C64.9312 66.1937 53.0875 69.9374 58.725 69.3687ZM55.0375 76.4187C61.3312 74.2812 69.9312 71.8812 72.9 77.4749C69.875 73.8374 71.6812 70.2562 74.5375 75.5749C78.5687 80.9562 80.5875 73.1312 77.9562 71.3187C80.95 75.0374 84.35 76.7874 79.9625 71.5499C84.725 65.8187 70.4125 72.3062 67.1562 72.2374C65.5937 72.9374 50.975 75.9624 55.0375 76.4187ZM66.7499 96.0062C68.2874 94.1062 64.6437 95.4999 66.7499 96.0062ZM63.0812 105.825C62.7062 103.562 61.9875 107.025 63.0812 105.825ZM59.975 104.25C63.4875 104.019 65.4875 100.369 59.2937 100.581C49.6875 99.5874 67.7625 103.862 58.0625 102.644C56.7562 103.5 59.9062 104.494 59.975 104.262V104.25ZM209.975 199.531C214.325 199.531 223.156 198.181 213.687 198.181C212.206 198.419 205.031 198.369 209.975 199.531ZM189.125 187.287C189.594 184.1 187.019 187.575 189.125 187.287ZM205.469 198.456C205.562 195.681 203.094 199.706 205.469 198.456ZM44.5625 97.7812C47.6812 95.3999 40.8812 96.8749 44.5625 97.7812ZM56.4312 106.219C58.3437 104.187 52.2874 105.394 56.4312 106.219ZM52.4125 105.094C57.8562 101.756 46.625 102.206 52.4125 105.094ZM92.6749 79.7499C94.4937 74.9687 99.7499 77.8374 93.5187 78.7874C93.6499 79.2937 93.3312 81.2562 92.6749 79.7499ZM87.675 79.7812C96.4125 83.1562 87.2437 70.2999 87.675 79.7812ZM70.1 82.4874C72.9875 79.0187 86.4625 80.2749 76.6 82.1499C73.9625 80.1562 71.9312 83.3187 70.1 82.4874ZM68.8812 83.2999C70.6125 81.2687 69.3812 85.0937 68.8812 83.2999ZM64.1375 85.2124C64.3875 81.9999 72.0875 86.9124 65.4125 86.3687L64.1375 85.2124ZM60.6624 85.1499C63.3937 83.1187 62.1124 86.2874 60.6624 85.1499ZM60.2937 88.5437C62.1937 81.5624 70.45 94.2812 63.4 89.4624C62.6437 88.8687 61.6812 88.5124 60.6312 88.5124C60.5125 88.5124 60.3937 88.5187 60.275 88.5249H60.2875L60.2937 88.5437ZM40.8125 98.4624C40.0875 94.2812 40.1875 86.9499 47.1562 89.4312C37.8562 91.2749 53.5937 100.987 51.6062 93.3187C55.5125 93.5062 59.2625 91.0062 57.2 94.7999C64.9062 93.9437 70.2437 87.2687 77.6937 88.1999C84.4562 87.6374 90.7062 86.3312 96.65 84.3562L96.0812 84.5187C101.219 84.1437 106.156 78.6124 103.344 75.3437C101.981 75.2624 100.387 75.2124 98.7812 75.2124C92.5749 75.2124 86.5312 75.9249 80.7312 77.2687L81.2687 77.1624C72.6937 78.9437 64.9 82.3312 56.2375 83.7937C47.8 84.9249 57.9312 86.9187 55.5187 87.3562C51.1125 88.8874 60.7687 89.9187 54.9499 91.5249C51.3562 90.8374 47.6062 89.6062 49.15 85.8249C41.0687 86.8624 33.9562 90.2249 40.35 98.4437H40.8187L40.8125 98.4624ZM54.3749 107.537C54.8062 104.569 51.1749 108.125 54.3749 107.537ZM196.381 199.325C197.412 196.262 193.775 199.712 196.381 199.325ZM180.962 191.331C183.537 188.962 177.681 190.6 180.962 191.331ZM53.3874 112.537C57.4312 110.95 46.0437 109.256 52.575 112.225L53.3874 112.537ZM43.8625 106.844C43.5875 104.344 42.3812 107.156 43.8625 106.844ZM42.1437 108.144C41.9875 106.037 41.0187 108.937 42.1437 108.144ZM53.75 115.675C53.2062 111.106 47.1875 114.987 53.75 115.675ZM76.2437 132.294C77.1937 131.419 73.9812 131.644 76.2437 132.294ZM55.8937 119.25C55.1624 120.2 54.9562 118.494 55.8937 119.25ZM52.6625 117.669C52.7312 115.719 47.4812 115.919 52.6625 117.669ZM47.0062 116.244C45.9312 110.194 42.9062 115.325 47.0062 116.244ZM70.725 132.712C70.7937 129.531 68.25 132.594 70.725 132.712ZM177.906 199.475C181.906 198.662 191.012 201.506 192.481 198.412C187.637 198.294 175.687 194.994 175.125 199.194L176.187 199.375L177.906 199.475ZM67.8624 131.994C67.8062 130.956 66.9124 132.381 67.8624 131.994ZM58.8312 127.619C61.95 126.562 55.9625 126.919 58.8312 127.619ZM130.919 176.281C130.862 173.15 127.831 177.062 130.919 176.281ZM60.7562 132.062C65.6 130.187 55.5687 130.737 60.7562 132.062ZM154.556 192.356C156.244 191.106 152.45 192.2 154.556 192.356ZM136.969 181.269C136.656 180.056 135.744 181.5 136.969 181.269ZM134.831 179.712C133.987 177.544 131.487 179.662 134.831 179.712ZM90.4625 151.725C90.4625 148.562 84.8 150.444 90.4625 151.725ZM85.3374 150.537C85.2374 150.287 83.2624 148.794 85.3374 150.537ZM51.5687 129.719C52.2875 126.725 44.9062 113.262 48.0875 122.969C49.225 125 49.1 128.856 51.5687 129.719ZM69.9687 144.244C74.0062 145.15 86.1062 154.194 78.9687 144.869C75.3124 143.794 77.5062 134.85 73.775 136.431C76.275 140.612 75.8374 142.387 70.5749 139.756C63.9749 136.531 66.875 141.35 68.1562 142.675C66.4062 143.081 70.4937 144.206 69.975 144.237L69.9687 144.244ZM171.069 209.325C174.081 207.312 167.406 208.675 171.069 209.325ZM160.287 202.156C164.769 198.394 155.544 203.819 160.287 202.156ZM162.394 203.175C167.9 199.194 159.05 202.412 161.237 203.925L162.394 203.175ZM100.744 166.587C99.6125 164.269 98.9937 166.956 100.744 166.587ZM97.15 164.506C96.9937 162.631 94.875 164.662 97.15 164.506ZM155.494 201.294C159.8 198.519 154.512 198.95 154.712 201.544L155.494 201.294ZM67.1999 145.612C68.4749 143.725 63.9187 145.369 67.1999 145.612ZM156.906 203.112C161.356 199.3 154.094 202.312 156.906 203.112ZM150.144 200.456C159.006 194.725 146.506 197.956 150.144 200.456ZM56.1875 141.612C52.0812 135.756 53.6312 133.112 49.6687 128.337C48.9187 124.669 42.875 116.362 46.5437 125.169C49.9 130.312 50.9 138.281 56.1875 141.619V141.612ZM151.65 202.081C156.469 196.975 146.981 202.387 151.65 202.081ZM151.644 203.719C151.669 202.55 149.769 204.231 151.644 203.719ZM142.581 197.506C146.937 193.85 138.362 199.131 142.581 197.506ZM102.775 172.906C105.6 175.406 115.756 174.75 106.212 173.219C104.794 171.112 97.2249 171.625 102.775 172.906ZM73.7937 155.437C71.9062 152.3 67.0437 152.594 73.7937 155.437ZM68.7062 152.094C67.925 149.025 63.2375 149.05 68.7062 152.094ZM144.4 199.637C146.937 197.175 144.5 203.569 148.619 199.037C148.656 195.794 148.487 193.881 143.887 197.819C142.625 198.519 142.062 201.512 144.4 199.637ZM139.631 197.631C139.787 195.444 138.125 199.506 139.631 197.631ZM93.2374 169.525C104.25 173.069 87.8374 165.181 93.2374 169.525ZM84.175 164.319C86.8312 166.294 94.175 169.931 87.9562 165.069C90.0562 162.631 83.9437 161.337 85.975 159.712C80.8187 156.556 81.9125 156.837 85.525 156.931C79.325 154.169 86.4125 154.369 86.0687 152.95C83.6875 152.481 74.2 148.731 79.7875 153.262C74.1187 150.375 78.4375 154.337 76.725 153.919C70.925 152.344 81.8812 158.331 75.8062 156.85C79.125 159.481 84.7562 163.6 77.2125 159.637C76.2125 161.069 82.6 163.231 84.1812 164.325L84.175 164.319ZM101.287 175.675C106.094 176.925 106.069 174.931 101.719 174.35C99.375 172.162 91.9875 169.856 98.5937 174.075C99.0375 175.181 100.431 175.162 101.281 175.681L101.287 175.675ZM92.6187 171.3C92.7437 171.844 91.6187 170.431 92.6187 171.3ZM96.8312 88.4124C97.5624 87.5124 96.9874 89.4999 96.8312 88.4124ZM94.3124 103.431C92.6249 100.462 96.4375 90.3624 96.8562 96.6374C95.0812 101.519 96.35 104.25 97.5812 97.6999C99.8687 92.5437 97.0874 107.875 94.2999 103.437L94.3124 103.431ZM91.8625 107.412C93.2687 110.569 91.45 104.912 91.8625 107.412ZM93.3687 111.394C95.6499 114.594 90.9124 105.331 93.3687 111.394ZM94.3937 113.662C94.7312 115.55 94.375 112.356 94.3937 113.662ZM76.7187 103.825C79.6875 107.6 78.325 100.437 76.7187 103.825ZM70.4562 100.094C71.4625 99.6624 70.9875 101.437 70.4562 100.094ZM97.225 120.994C98.1375 113.619 98.0312 125.312 97.225 120.994ZM73.2125 106.906C74.5312 104.969 69.6999 98.1562 73.9062 104.462C75.7187 105.906 79.1562 106.881 76.1187 107.487C80.8812 111.7 74.95 108.625 73.2125 106.912V106.906ZM98.5999 123.019C98.9437 116.537 100.537 119.15 98.6125 123.937L98.5999 123.019ZM70.8 109.156C74.0437 108.469 84.2187 114.85 74.8625 110.981C73.8312 109.825 71.6125 110.362 70.8 109.156ZM100.412 129.631C101.425 126.025 100.487 132.012 100.412 129.631ZM87.275 121.206C88.425 122.25 86.7625 114.881 87.275 121.206ZM69.9687 112.025C64.525 104.506 85.8 119.625 73.4625 113.931C72.175 113.594 70.6187 113.462 69.9687 112.025ZM100.006 132.387C100.425 130.669 100.062 134.4 100.006 132.387ZM101.569 133.937C102.344 136.669 101.944 129.931 101.569 133.937ZM92.5874 128.625C88.9187 126.425 91.625 113.131 92.875 122.219C96.4437 121.062 92.6812 126.906 95.3375 126.856C94.925 130.55 93.7312 131.881 92.6062 128.619L92.5874 128.625ZM68.3 114.506C59.8187 106.962 78.9625 118.456 69.6812 115.912L68.3 114.506ZM73.7437 119.712C76.8687 121.725 71.1812 114.894 73.7437 119.712ZM71.0062 118.831C72.7 117.15 71.9062 120.487 71.0062 118.831ZM66.5562 118.95C63.6375 116.062 61.525 113.381 66.6875 117.156C68.6812 117.231 62.2687 111.081 67.1562 115.206C72.3124 116.144 69.7125 123.656 66.5562 118.956V118.95ZM75.025 125.506C77.8812 130.456 76.7125 121.95 75.025 125.506ZM71.5062 124.3C73.3 127.525 71.8187 119.587 71.5062 124.3ZM79.3437 129.694C77.7062 126.894 76.7375 123.525 76.7375 119.931C76.7375 119.925 76.7375 119.919 76.7375 119.912C77.3312 122.862 83.0187 132.619 79.525 123.956C75.6687 116.694 84.1312 126.312 85.0062 128.125C85.3937 129.919 82.625 127.631 84.5062 131.856C81.0687 127.037 82.475 134.519 79.3437 129.694ZM104.694 146.606C101.944 140.437 106.644 143.231 105.3 147.619L104.694 146.606ZM89.9937 141.887C92.5187 143.919 88.7812 139.719 89.9937 141.887ZM107.112 153.8C108.35 157.112 108.162 149.862 107.112 153.8ZM82.8749 140.662C84.5874 140.194 83.7187 143.581 82.8749 140.662ZM113.331 161.687C117 163.281 110.425 156.062 113.331 161.687ZM115.85 165.069C116.687 167.881 115.775 161.412 115.85 165.069ZM144.794 187.062C146.237 186.975 144.844 188.156 144.794 187.062ZM119.5 170.994C117.187 168.575 116.587 164.044 119.087 167.987C120.369 168.5 123.187 175.381 119.5 170.994ZM127.269 192.925C133.306 189.319 131.312 201.375 137.506 193.937C143.612 189.487 132.237 199.456 139.769 194.744C145.206 191.094 153.25 196.462 158.325 198.219C161.981 198.037 165.531 201.381 169.281 199.35C176.487 197.4 155.175 196.462 160.769 193.025C159.906 193.219 158.912 193.331 157.894 193.331C152.862 193.331 148.462 190.612 146.081 186.569L146.044 186.506C137.925 185.162 131.031 180.756 126.444 174.544L126.387 174.462C124.887 172 128.575 174.806 125.094 170.794C121.306 166.981 118.075 162.6 115.55 157.8L115.406 157.506C111.837 155.6 111.425 149.987 111.056 157.319C111.087 152.687 106.737 149.569 105.681 150.869C105.669 146.406 110.331 148.644 107.056 145.344C106.356 140.719 104.044 135.894 103.344 130.681C102.269 128.169 103.187 122.787 99.6499 128.481C98.3624 134.494 99.2187 121.087 101.225 125.512C103.856 120.981 100.287 121.531 100.131 122.156C101.85 118.344 101.225 112.937 99.6875 115C100.6 110.962 101.131 100.144 98.3187 102.069C100.019 97.8499 101.55 82.7562 94.1499 88.5124C90.2749 88.6687 86.6374 89.5062 83.2999 90.8999L83.5062 90.8249C91.2062 95.0687 82.7249 92.3562 79.5999 91.6812C79.1937 95.5999 76.0875 93.9062 72.2125 93.9437C78.4062 94.7062 69.1999 100.269 65.6437 98.1124C61.0374 100.312 69.625 105.819 65.7375 107.525C66.2062 110.087 58.6687 106.587 59.2562 112.525C54.7812 110.644 58.65 119.556 60.8875 116.537C68.5 118.6 66.2437 123.3 66.4312 127.762C65.2 130.362 60.3062 121.65 65.3375 122.05C61.375 115.594 60.9562 119.706 57.65 122.712C56.8687 122.931 66.075 126.987 60.3062 128.981C65.3812 129.762 65.525 134.212 66.5562 137.025C69.6 140.206 68.975 133.512 72.6375 137.337C70.325 133.931 60.4 127.744 68.3875 129.731C68.35 126.294 66.9437 123.537 69.3937 123.606C71.8125 119.219 66.8562 134.437 72.325 128.856C73.8312 128.194 74.2 124.456 76.9312 129.206C80.875 133.094 78.35 135.906 72.7812 132.356C73.775 135.737 80.2312 136.944 79.0187 142.237C80.3062 146.887 82.1062 145.175 83.675 144.906C84.9062 149.419 85.6062 146.1 85.6687 143.944C91.2937 145.156 89.9812 148.475 91.7437 150.819C95.625 152.569 86.1812 138.931 92.85 146.712C99.8625 153.037 95.4812 155.694 89.1812 154.681C93.1624 154.362 94.4562 160.069 99.4375 159.869C103.981 162.031 107.05 170.337 99.225 166.875C96.5062 164.431 86.8875 161.406 94.75 166.062C102.762 169.344 109.344 172.556 115.687 176.131L114.75 175.65C119.75 179.225 121.919 183.319 123.812 184.131C119.612 186.137 111.137 182.525 117.431 181.412C113.5 180.7 109.087 178.719 112.844 183.6C116.044 186.281 124.169 185.987 125.631 186.294C124.387 189.012 122.275 189.231 125.681 189.444C121.887 191.475 126.9 191.787 127.25 192.944L127.269 192.925ZM104.806 179.119C111.262 179.944 97.1124 174.719 103.394 178.65L104.806 179.119ZM122.031 190.812C127.637 188.587 116.562 189.719 122.031 190.812ZM88.9125 170.212C92.5062 169.825 83.1312 167.781 88.9125 170.212ZM108.481 182.65C108.95 180.656 104.356 182.05 108.481 182.65ZM137.1 201.181C137.025 199.644 135.669 201.769 137.1 201.181ZM110.812 185.056C110.387 185.275 109.925 184.044 110.812 185.056ZM68.5812 158.225C67.9812 155.906 63.3187 154.056 68.5812 158.225ZM84.6687 168.631C89.5125 168.344 78.0437 166.5 84.6687 168.631ZM98.2437 178.425C97.7437 176.931 95.6187 178.362 98.2437 178.425ZM134.406 200.731C134.625 197.894 131.65 202.837 134.406 200.731ZM83.8749 169.606C83.5499 168.044 81.7999 169.75 83.8749 169.606ZM120.144 192.725C128.581 192.8 112.531 191.575 120.144 192.725ZM104.731 183.819C113.637 186.344 97.2499 178.194 102.537 182.9L103.706 183.431L104.719 183.819H104.731ZM112.419 189.937C113.925 187.362 106.056 188.456 112.419 189.937ZM87.1125 174.487C90.75 177.281 101.794 174.844 92.6875 172.825C88.55 170.612 79.2 169.106 85.5625 174.15L87.1125 174.487ZM107.294 188.331C110.65 187.069 101.856 187.056 107.294 188.331ZM99.7499 183.7C102.094 182.062 94.8999 182.45 99.7499 183.7ZM90.7687 178.469C90.4562 177.162 85.9562 177.025 90.7687 178.469ZM121.394 202.325C124.494 204.275 139.512 206.619 130.1 203.131C128.537 203.456 112.681 198.65 121.381 202.325H121.394ZM102.1 190.281C101.994 188.987 100.725 190.869 102.1 190.281ZM98.2437 188.356C102.05 185.894 93.325 188.325 98.2437 188.356ZM115.169 200.175C116.662 197.975 110.406 199.337 115.169 200.175ZM106.362 195.256C108.8 192.912 102.581 193.787 106.362 195.256ZM101.212 193.106C100.794 191.037 99.3374 194.262 101.212 193.106ZM97.0999 191.606C98.7812 190.856 94.6812 190.669 97.0999 191.606ZM66.2187 164.294C67.5999 166.769 66.4749 163.156 66.2187 164.294ZM88.0375 188.25C95.6125 191.056 88.0062 182.925 84.5249 183.394C82.9937 180.731 78.6624 179.044 81.7125 177.612C76.2125 179.519 75.9562 170.35 73.3562 171.656C67.5437 169.819 71.0937 163.3 64.1687 159.319C63.5375 155.1 57.2812 151.444 55.2812 145.087C54.3999 141.837 48.2125 132.487 52.0187 141.181C56.0687 149.844 60.6312 157.3 65.9 164.181L65.6875 163.887C69.0937 171.256 74.1 177.375 80.2875 182L80.4124 182.087C82.6749 184.262 84.85 187.581 88.0437 188.256L88.0375 188.25ZM102.906 198.762C109.844 202.331 117.894 205.112 126.362 206.687L126.912 206.775C135.056 208.644 144.406 209.712 154.012 209.712C159 209.712 163.925 209.425 168.762 208.862L168.175 208.919C162.006 206.131 155.619 210.012 149.469 206.925C147.281 207.175 144.744 207.312 142.175 207.312C136.681 207.312 131.337 206.669 126.219 205.45L126.687 205.544C116.494 201.831 108.019 198.006 99.8625 193.656L100.981 194.2C91.0062 190.562 106.137 198.869 108.831 199.55C115.062 203.087 101.981 197.731 100.131 196.262C94.9125 193.331 94.2437 193.944 99.6187 196.919C100.706 197.544 101.775 198.212 102.9 198.756L102.906 198.762ZM90.2937 193.294C82.6187 188.012 76.0437 181.869 70.475 174.887L70.3312 174.706C59.8562 161.85 51.325 146.887 45.5125 130.637L45.1812 129.587C41.7 119.006 40.4937 107.656 36.0125 97.4874C35.1062 95.8249 34.575 93.8437 34.575 91.7374C34.575 85.6624 39.0187 80.6187 44.8312 79.6874L44.9 79.6812C48.4937 78.9999 54.8375 75.6062 47.1875 78.0312C40.3312 83.0624 39.6687 73.4624 46.6937 72.8624C49.75 72.8312 52.2187 70.3499 52.2187 67.2874C52.2187 66.3687 51.9937 65.4999 51.6 64.7312L51.6125 64.7624C46.4562 61.4062 64.1062 57.7124 55.2312 52.7062C45.9937 42.7187 68.175 40.8062 62.7062 52.1312C61.4 60.8374 78.2 50.5312 74.3062 60.5874C78.2687 65.4249 89.1437 61.6812 88.8749 68.4687C94.6562 68.8562 96.6312 73.7187 102.05 74.0937C107.675 76.6312 117.844 78.6249 119.75 84.9499C114.181 89.3687 101.287 75.8499 100.669 88.0562C100.812 107.275 103.669 125.769 108.869 143.256L108.512 141.85C112.7 152.25 118.637 161.131 126.037 168.544C132.781 176.056 140.887 182.181 150 186.569L150.462 186.769C157.712 190.194 166.137 192.894 174.95 194.444L175.556 194.531C179.056 191.85 185.244 181.9 190.694 186.094C190.95 190.812 179.85 195.956 190.169 195.437C196.231 193.612 200.431 200.125 205.425 194.25C210.019 199.694 224.531 190.769 221.256 201.906C216.837 204.75 210.387 203.031 205.956 206.95C198.656 203.3 192.837 210.212 184.75 209.337C176.806 210.781 167.662 211.606 158.325 211.606C158.05 211.606 157.769 211.606 157.494 211.606H157.537C141.612 211.325 126.375 208.831 111.975 204.425L113.144 204.731C104.431 201.787 96.875 197.912 90.0187 193.106L90.3062 193.3L90.2937 193.294Z" fill="white"/>
</svg>
