<svg width="256" height="256" viewBox="0 0 256 256" fill="none" xmlns="http://www.w3.org/2000/svg">
<rect width="256" height="256" fill="#242932"/>
<path d="M130.547 89.2344L145.453 63.6094" stroke="#FFCE6F" stroke-width="2"/>
<path d="M145.453 63.6093L154.399 48.9764C154.428 48.9211 154.437 48.8572 154.423 48.796C154.41 48.7348 154.376 48.6803 154.326 48.642C154.277 48.6036 154.215 48.5841 154.153 48.5867C154.09 48.5892 154.031 48.6139 153.984 48.6561C150.667 52.1978 147.987 55.1796 145.945 57.6014C140.539 64.0311 135.649 68.8124 129.602 75.2421C128.169 76.7629 126.966 78.1353 125.992 79.3593C125.159 80.4113 123.932 81.7655 122.313 83.4218C121.281 84.4738 119.828 86.1718 117.953 88.5155C116.438 90.4061 114.414 92.1639 112.938 94.2577C112.792 94.4653 112.622 94.6567 112.43 94.828C111.721 95.4478 110.899 96.2603 109.961 97.2655C105.784 101.75 99.034 109.193 89.711 119.594C87.8465 121.672 85.5522 124.377 82.8282 127.711C82.7853 127.764 82.7582 127.828 82.7503 127.895C82.7423 127.963 82.7537 128.031 82.7832 128.093C82.8127 128.154 82.859 128.206 82.9168 128.242C82.9745 128.278 83.0414 128.297 83.1095 128.297L140.328 128.086C140.349 128.086 140.37 128.086 140.391 128.086C141.12 127.956 141.818 127.969 142.484 128.125C142.637 128.162 142.779 128.236 142.896 128.341C143.013 128.445 143.103 128.577 143.157 128.724C143.211 128.871 143.228 129.028 143.206 129.183C143.184 129.337 143.124 129.484 143.031 129.609L88.5548 202.476C88.5319 202.507 88.5181 202.542 88.5153 202.578C88.5125 202.615 88.5208 202.65 88.5392 202.68L88.547 202.687C88.5971 202.732 88.6627 202.756 88.7298 202.753C88.797 202.75 88.8603 202.721 88.9063 202.672L110.664 180.023" stroke="#FFCE2A" stroke-width="2"/>
<path d="M110.664 180.023L117.969 172.062" stroke="#FFCE6F" stroke-width="2"/>
<path d="M117.969 172.062C119.026 171.458 120.326 170.352 121.867 168.742C132.956 157.164 147.833 142.169 166.5 123.758C166.697 123.566 166.875 123.356 167.031 123.133C168.089 121.617 169.557 120.018 171.438 118.336" stroke="#FFCE2A" stroke-width="2"/>
<path d="M171.438 118.336L142.016 118.875" stroke="#FFE729" stroke-width="2"/>
<path d="M130.547 89.2341L114.742 116.828C114.644 116.997 114.591 117.189 114.59 117.384C114.589 117.579 114.639 117.772 114.736 117.942C114.832 118.112 114.972 118.254 115.14 118.353C115.308 118.452 115.5 118.505 115.695 118.508L142.016 118.875" stroke="#FFE76E" stroke-width="2"/>
<path d="M142.016 118.875L163.047 119.492C163.285 119.497 163.52 119.463 163.742 119.391C164.503 119.135 165.326 119.073 166.211 119.203C166.321 119.219 166.427 119.257 166.522 119.315C166.617 119.372 166.7 119.448 166.766 119.538C166.832 119.628 166.88 119.73 166.907 119.839C166.934 119.948 166.939 120.061 166.922 120.172C166.813 120.911 166.409 121.581 165.711 122.18C163.305 124.237 161.286 126.206 159.656 128.086C158.328 129.622 157 130.982 155.672 132.164C151.273 136.086 148.266 139.672 142.875 145.547C142.156 146.323 139.172 149.372 133.922 154.695C128.417 160.268 123.099 166.057 117.969 172.062" stroke="#FFFF97" stroke-width="2"/>
<path d="M145.453 63.6092C144.646 63.0154 143.779 62.7237 142.852 62.7342C142.726 62.734 142.601 62.7595 142.486 62.8092C142.37 62.8589 142.266 62.9318 142.18 63.0232C140.253 65.0388 138.945 66.4842 138.258 67.3592C134.914 71.5779 131.297 75.7003 127.406 79.7263C124.99 82.2211 123.636 83.7394 123.344 84.281C123.292 84.38 121.87 85.8305 119.078 88.6326C116.776 90.9451 115.039 92.8409 113.867 94.3201C108.669 100.872 105.964 104.221 105.75 104.367C105.448 104.581 103.242 106.89 99.133 111.297C95.6408 115.047 92.3595 119.64 88.7736 123.336C88.2684 123.857 87.7736 124.612 87.2892 125.601C87.2303 125.724 87.2036 125.86 87.2116 125.996C87.2196 126.132 87.2621 126.264 87.335 126.378C87.4079 126.493 87.5088 126.586 87.628 126.65C87.7472 126.714 87.8807 126.745 88.0158 126.742C92.5678 126.648 97.172 126.601 101.828 126.601C102.391 126.601 103.06 126.594 103.836 126.578C111.201 126.448 115.761 126.372 117.516 126.351C120.787 126.315 124.909 126.388 129.883 126.57C133.638 126.711 137.763 126.817 142.258 126.89C143.404 126.906 144.073 127.393 144.266 128.351C144.312 128.582 144.296 128.819 144.219 129.039C143.761 130.377 143.255 131.44 142.703 132.226C142.188 132.956 139.982 135.802 136.086 140.765C133.07 144.601 129.844 149.476 127.703 152.508C127.62 152.622 127.461 152.677 127.227 152.672C127.145 152.669 127.064 152.692 126.996 152.736C126.927 152.781 126.874 152.846 126.844 152.922C126.521 153.713 125.875 154.63 124.906 155.672C124.735 155.858 124.593 156.072 124.485 156.304C124.141 157.015 123.75 157.937 123.07 158.804C119.091 163.846 115.175 168.849 111.32 173.812C109.836 175.719 108.102 178.414 110.664 180.023" stroke="#FFFF97" stroke-width="2"/>
<path d="M148.516 69.2656C144.729 73.6562 141.443 78.4635 138.656 83.6875C136.505 87.7135 135.05 90.2239 134.289 91.2187C132.497 93.5417 130.643 95.7943 128.727 97.9766C128.671 98.0371 128.597 98.0772 128.516 98.0905C128.435 98.1038 128.351 98.0895 128.279 98.0499C128.207 98.0103 128.151 97.9476 128.118 97.872C128.086 97.7964 128.08 97.7122 128.102 97.6328L130.547 89.2344L145.453 63.6094L154.398 48.9766C154.428 48.9212 154.437 48.8573 154.423 48.7961C154.41 48.7349 154.376 48.6804 154.326 48.6421C154.277 48.6038 154.215 48.5842 154.153 48.5868C154.09 48.5894 154.031 48.614 153.984 48.6562C150.667 52.1979 147.987 55.1797 145.945 57.6016C140.539 64.0312 135.649 68.8125 129.602 75.2422C128.169 76.763 126.966 78.1354 125.992 79.3594C125.159 80.4114 123.932 81.7656 122.313 83.4219C121.281 84.474 119.828 86.1719 117.953 88.5156C116.438 90.4062 114.414 92.1641 112.938 94.2578C112.792 94.4654 112.622 94.6568 112.43 94.8281C111.721 95.4479 110.899 96.2604 109.961 97.2656C105.784 101.75 99.0339 109.193 89.711 119.594C87.8464 121.672 85.5522 124.378 82.8282 127.711C82.7852 127.764 82.7582 127.828 82.7502 127.895C82.7423 127.963 82.7537 128.032 82.7832 128.093C82.8126 128.154 82.859 128.206 82.9167 128.242C82.9745 128.278 83.0413 128.297 83.1094 128.297L140.328 128.086C140.349 128.086 140.37 128.086 140.391 128.086C141.12 127.956 141.818 127.969 142.484 128.125C142.637 128.162 142.779 128.236 142.896 128.341C143.013 128.445 143.103 128.577 143.157 128.724C143.211 128.871 143.228 129.028 143.206 129.183C143.184 129.338 143.124 129.484 143.031 129.609L88.5548 202.477C88.5318 202.507 88.5181 202.542 88.5153 202.578C88.5125 202.615 88.5208 202.65 88.5391 202.68L88.5469 202.688C88.5971 202.732 88.6627 202.756 88.7298 202.753C88.7969 202.75 88.8603 202.721 88.9063 202.672L110.664 180.023L117.969 172.062C119.026 171.458 120.326 170.352 121.867 168.742C132.956 157.164 147.833 142.169 166.5 123.758C166.698 123.566 166.875 123.356 167.031 123.133C168.089 121.617 169.557 120.018 171.438 118.336C170.807 118.445 170.891 118.279 171.688 117.836C171.716 117.822 171.748 117.815 171.779 117.816C171.811 117.818 171.841 117.827 171.867 117.844C172.029 117.937 172.13 117.964 172.172 117.922C172.192 117.899 172.205 117.871 172.21 117.842C172.214 117.813 172.209 117.783 172.195 117.758C170.216 114.216 167.234 112.406 163.25 112.328C154.453 112.151 146.641 111.776 139.813 111.203C136.875 110.953 134.359 109.872 132.266 107.961C152.656 107.935 173.044 107.945 193.43 107.992C194.862 107.992 196.255 108.107 197.609 108.336C197.695 108.352 197.775 108.391 197.839 108.449C197.904 108.507 197.951 108.582 197.975 108.666C197.999 108.749 198 108.838 197.977 108.922C197.954 109.006 197.908 109.081 197.844 109.141L69.961 226.336C69.9077 226.385 69.8421 226.419 69.7712 226.433C69.7003 226.448 69.6267 226.443 69.5584 226.419C69.4901 226.395 69.4297 226.352 69.3837 226.296C69.3376 226.241 69.3076 226.173 69.2969 226.102C69.2344 225.669 69.3907 225.12 69.7657 224.453C71.3907 221.552 74.6381 216.469 79.5079 209.203C104.768 171.557 120.503 148.083 126.711 138.781C126.754 138.716 126.778 138.641 126.782 138.563C126.786 138.485 126.769 138.408 126.733 138.34C126.696 138.272 126.643 138.215 126.577 138.176C126.511 138.137 126.436 138.116 126.359 138.117C85.4272 138.07 64.3594 138.055 63.1563 138.07C62.0261 138.086 60.9766 137.984 60.0079 137.766C59.8908 137.74 59.7809 137.688 59.6859 137.615C59.5909 137.542 59.5131 137.449 59.458 137.342C59.4029 137.236 59.3718 137.118 59.3669 136.998C59.362 136.879 59.3835 136.759 59.4298 136.648C60.1173 135.008 62.7266 133.133 64.7344 131.141C67.1876 128.719 100.604 95.3411 164.984 31.0078C165.771 30.2214 166.581 29.6432 167.414 29.2734C167.56 29.2069 167.723 29.1861 167.882 29.2139C168.04 29.2417 168.186 29.3167 168.301 29.4291C168.416 29.5414 168.494 29.686 168.526 29.8436C168.557 30.0013 168.54 30.1647 168.477 30.3125C167.393 32.8698 166.802 34.2474 166.703 34.4453C160.802 46.2839 154.74 57.8906 148.516 69.2656Z" fill="#FF9D02"/>
<path d="M145.453 63.6093C144.646 63.0155 143.779 62.7238 142.852 62.7343C142.726 62.734 142.601 62.7596 142.486 62.8093C142.37 62.859 142.266 62.9318 142.18 63.0233C140.253 65.0389 138.945 66.4843 138.258 67.3593C134.914 71.578 131.297 75.7004 127.406 79.7264C124.99 82.2212 123.636 83.7395 123.344 84.2811C123.292 84.3801 121.87 85.8306 119.078 88.6327C116.776 90.9452 115.039 92.841 113.867 94.3202C108.669 100.872 105.964 104.221 105.75 104.367C105.448 104.581 103.242 106.891 99.1329 111.297C95.6407 115.047 92.3595 119.641 88.7735 123.336C88.2683 123.857 87.7735 124.612 87.2892 125.601C87.2303 125.724 87.2035 125.86 87.2116 125.996C87.2196 126.132 87.2621 126.264 87.335 126.378C87.4079 126.493 87.5088 126.586 87.6279 126.65C87.7471 126.714 87.8807 126.745 88.0157 126.742C92.5678 126.648 97.172 126.601 101.828 126.601C102.391 126.601 103.06 126.594 103.836 126.578C111.201 126.448 115.761 126.372 117.516 126.351C120.787 126.315 124.909 126.388 129.883 126.57C133.638 126.711 137.763 126.818 142.258 126.891C143.404 126.906 144.073 127.393 144.266 128.351C144.312 128.582 144.296 128.819 144.219 129.039C143.761 130.377 143.255 131.44 142.703 132.226C142.188 132.956 139.982 135.802 136.086 140.766C133.07 144.601 129.844 149.476 127.703 152.508C127.62 152.622 127.461 152.677 127.227 152.672C127.145 152.669 127.064 152.692 126.996 152.736C126.927 152.781 126.874 152.846 126.844 152.922C126.521 153.713 125.875 154.63 124.906 155.672C124.735 155.858 124.593 156.072 124.484 156.305C124.141 157.015 123.75 157.937 123.07 158.805C119.091 163.846 115.175 168.849 111.32 173.812C109.836 175.719 108.102 178.414 110.664 180.023L88.9063 202.672C88.8603 202.721 88.797 202.75 88.7298 202.753C88.6627 202.756 88.5971 202.732 88.547 202.687L88.5392 202.68C88.5208 202.65 88.5125 202.615 88.5153 202.578C88.5181 202.542 88.5319 202.507 88.5548 202.476L143.031 129.609C143.124 129.484 143.184 129.337 143.206 129.183C143.228 129.028 143.211 128.871 143.157 128.724C143.103 128.577 143.013 128.445 142.896 128.341C142.779 128.236 142.637 128.162 142.484 128.125C141.818 127.969 141.12 127.956 140.391 128.086C140.37 128.086 140.349 128.086 140.328 128.086L83.1095 128.297C83.0414 128.297 82.9745 128.278 82.9168 128.242C82.859 128.206 82.8127 128.154 82.7832 128.093C82.7537 128.031 82.7423 127.963 82.7503 127.895C82.7582 127.828 82.7853 127.764 82.8282 127.711C85.5522 124.377 87.8465 121.672 89.711 119.594C99.034 109.193 105.784 101.75 109.961 97.2655C110.899 96.2603 111.721 95.4478 112.43 94.828C112.622 94.6567 112.792 94.4653 112.938 94.2577C114.414 92.1639 116.438 90.4061 117.953 88.5155C119.828 86.1718 121.281 84.4738 122.313 83.4218C123.932 81.7655 125.159 80.4113 125.992 79.3593C126.966 78.1353 128.169 76.7629 129.602 75.2421C135.649 68.8124 140.539 64.0311 145.945 57.6014C147.987 55.1796 150.667 52.1978 153.984 48.6561C154.031 48.6139 154.09 48.5892 154.153 48.5867C154.215 48.5841 154.277 48.6036 154.326 48.642C154.376 48.6803 154.41 48.7348 154.423 48.796C154.437 48.8572 154.428 48.9211 154.399 48.9764L145.453 63.6093Z" fill="#FFFF52"/>
<path d="M145.453 63.6094L130.547 89.2344L114.742 116.828C114.644 116.997 114.591 117.189 114.59 117.384C114.589 117.58 114.639 117.772 114.736 117.942C114.832 118.112 114.971 118.254 115.14 118.353C115.308 118.452 115.5 118.506 115.695 118.508L142.016 118.875L163.047 119.492C163.285 119.497 163.52 119.463 163.742 119.391C164.503 119.135 165.325 119.073 166.211 119.203C166.321 119.219 166.426 119.257 166.522 119.315C166.617 119.372 166.7 119.448 166.766 119.538C166.832 119.628 166.88 119.73 166.907 119.839C166.933 119.948 166.939 120.061 166.922 120.172C166.812 120.911 166.409 121.581 165.711 122.18C163.305 124.237 161.286 126.206 159.656 128.086C158.328 129.622 157 130.982 155.672 132.164C151.273 136.086 148.266 139.672 142.875 145.547C142.156 146.323 139.172 149.372 133.922 154.695C128.417 160.268 123.099 166.057 117.969 172.063L110.664 180.023C108.101 178.414 109.836 175.719 111.32 173.813C115.174 168.849 119.091 163.846 123.07 158.805C123.75 157.938 124.141 157.016 124.484 156.305C124.593 156.072 124.735 155.858 124.906 155.672C125.875 154.63 126.521 153.714 126.844 152.922C126.874 152.846 126.927 152.781 126.996 152.737C127.064 152.692 127.145 152.669 127.226 152.672C127.461 152.677 127.62 152.622 127.703 152.508C129.844 149.477 133.07 144.602 136.086 140.766C139.982 135.802 142.187 132.956 142.703 132.227C143.255 131.44 143.76 130.378 144.219 129.039C144.295 128.819 144.312 128.582 144.266 128.352C144.073 127.393 143.404 126.906 142.258 126.891C137.763 126.818 133.638 126.711 129.883 126.57C124.909 126.388 120.786 126.315 117.516 126.352C115.76 126.372 111.2 126.448 103.836 126.578C103.06 126.594 102.391 126.602 101.828 126.602C97.1718 126.602 92.5676 126.648 88.0155 126.742C87.8805 126.746 87.7469 126.714 87.6277 126.65C87.5086 126.587 87.4077 126.493 87.3348 126.379C87.2619 126.264 87.2194 126.133 87.2114 125.997C87.2033 125.86 87.2301 125.725 87.289 125.602C87.7733 124.612 88.2681 123.857 88.7733 123.336C92.3593 119.641 95.6405 115.047 99.1327 111.297C103.242 106.891 105.448 104.581 105.75 104.367C105.963 104.221 108.669 100.872 113.867 94.3203C115.039 92.8412 116.776 90.9453 119.078 88.6328C121.87 85.8308 123.292 84.3802 123.344 84.2813C123.635 83.7396 124.989 82.2214 127.406 79.7266C131.297 75.7005 134.914 71.5782 138.258 67.3594C138.945 66.4844 140.252 65.0391 142.18 63.0235C142.266 62.932 142.37 62.8592 142.486 62.8094C142.601 62.7597 142.726 62.7342 142.851 62.7344C143.779 62.724 144.646 63.0157 145.453 63.6094Z" fill="#FFFFDB"/>
<path d="M148.516 69.2656L128.781 107.312C128.755 107.362 128.742 107.418 128.743 107.475C128.744 107.531 128.759 107.587 128.787 107.636C128.815 107.685 128.855 107.726 128.903 107.756C128.951 107.785 129.006 107.802 129.063 107.805L132.266 107.961C134.36 109.872 136.875 110.953 139.813 111.203C146.641 111.776 154.453 112.151 163.25 112.328C167.234 112.406 170.216 114.216 172.195 117.758C172.209 117.783 172.214 117.813 172.21 117.842C172.205 117.871 172.192 117.899 172.172 117.922C172.13 117.964 172.029 117.938 171.867 117.844C171.841 117.827 171.811 117.818 171.779 117.816C171.748 117.815 171.716 117.822 171.688 117.836C170.891 118.279 170.807 118.445 171.438 118.336L142.016 118.875L115.695 118.508C115.5 118.506 115.308 118.452 115.14 118.353C114.972 118.254 114.832 118.112 114.736 117.942C114.639 117.772 114.589 117.58 114.59 117.384C114.591 117.189 114.644 116.997 114.742 116.828L130.547 89.2344L128.102 97.6328C128.08 97.7122 128.086 97.7964 128.118 97.872C128.151 97.9477 128.207 98.0103 128.279 98.0499C128.351 98.0895 128.435 98.1038 128.516 98.0905C128.597 98.0772 128.671 98.0371 128.727 97.9766C130.643 95.7943 132.498 93.5417 134.289 91.2187C135.05 90.224 136.505 87.7135 138.656 83.6875C141.443 78.4635 144.729 73.6562 148.516 69.2656Z" fill="#FECE00"/>
<path d="M171.438 118.336C169.557 120.018 168.089 121.617 167.031 123.133C166.875 123.356 166.697 123.566 166.5 123.758C147.833 142.169 132.956 157.164 121.867 168.742C120.326 170.352 119.026 171.458 117.969 172.062C123.099 166.057 128.417 160.268 133.922 154.695C139.172 149.372 142.156 146.323 142.875 145.547C148.266 139.672 151.273 136.086 155.672 132.164C157 130.982 158.328 129.622 159.656 128.086C161.286 126.206 163.305 124.237 165.711 122.18C166.409 121.581 166.813 120.911 166.922 120.172C166.939 120.061 166.934 119.948 166.907 119.839C166.88 119.73 166.832 119.628 166.766 119.538C166.7 119.448 166.617 119.372 166.522 119.315C166.427 119.257 166.321 119.219 166.211 119.203C165.326 119.073 164.503 119.135 163.742 119.391C163.52 119.463 163.285 119.497 163.047 119.492L142.016 118.875L171.438 118.336Z" fill="#FFFF52"/>
</svg>
