<svg width="256" height="256" viewBox="0 0 256 256" fill="none" xmlns="http://www.w3.org/2000/svg">
<rect width="256" height="256" fill="#232932"/>
<path fill-rule="evenodd" clip-rule="evenodd" d="M137.604 56C132.274 56 127.953 60.3128 127.953 65.6328V190.172C127.953 195.492 132.274 199.805 137.604 199.805H165.178C170.507 199.805 174.828 195.492 174.828 190.172V65.6328C174.828 60.3128 170.507 56 165.178 56H137.604ZM85.6024 56.6881C82.9827 56.6881 80.6082 57.7322 78.876 59.4252C78.8642 59.4367 78.8445 59.4245 78.8499 59.4089C78.8557 59.3921 78.8333 59.3803 78.8225 59.3945L78.5361 59.7746C78.1001 60.2461 77.7111 60.7614 77.3767 61.3131C76.4621 62.5266 75.6598 63.82 74.9796 65.1775L31.3601 152.23L28.8888 157.763C28.8444 157.858 28.8014 157.955 28.7601 158.052L28.4923 158.651C28.4885 158.659 28.4979 158.668 28.5059 158.663C28.5135 158.659 28.5228 158.666 28.5199 158.674C28.1829 159.649 28 160.695 28 161.784L28 190.446C28 195.722 32.2982 200 37.6004 200H66.4016C71.7038 200 76.002 195.722 76.002 190.446V152.23L76.0021 142.675C76.0024 121.569 93.1952 104.459 114.404 104.459C119.706 104.459 124.004 100.181 124.004 94.9046V66.2422C124.004 60.9656 119.706 56.6881 114.404 56.6881H85.6024ZM179.998 176.115C179.998 162.923 190.744 152.229 203.999 152.229C217.255 152.229 228 162.923 228 176.115C228 189.306 217.255 200 203.999 200C190.744 200 179.998 189.306 179.998 176.115Z" fill="white"/>
</svg>
