<svg width="256" height="256" viewBox="0 0 256 256" fill="none" xmlns="http://www.w3.org/2000/svg">
<rect width="256" height="256" fill="#232932"/>
<g clip-path="url(#clip0_88_728)">
<path d="M181.25 108.892C180.783 112.083 178.679 116.417 176.267 120.183C174.758 122.538 172.796 124.568 170.493 126.154C168.191 127.741 165.595 128.853 162.858 129.425L138.5 134.521C134.585 135.338 131.034 137.387 128.367 140.367L112.396 158.221C109.396 161.579 107.296 160.775 107.296 156.275C107.258 156.442 99.3668 176.796 120.279 188.858C128.317 193.492 139.883 191.825 147.917 187.192L190.492 162.633C198.362 158.096 205.183 151.945 210.508 144.586C215.834 137.226 219.543 128.823 221.392 119.929C221.538 119.221 221.654 118.504 221.775 117.792L181.25 108.892Z" fill="url(#paint0_linear_88_728)"/>
<path d="M170.208 84.3624C178.242 88.9957 181.525 95.8957 181.525 105.167C181.525 106.425 181.425 107.667 181.246 108.892L198.4 116.262L221.775 117.792C224.771 100.467 218.9 82.6374 208.388 68.4666C200.235 57.4862 189.91 48.3013 178.054 41.4832C168.535 35.9726 158.177 32.0596 147.392 29.8999L135.725 45.0041L132.042 62.3499L170.208 84.3624Z" fill="url(#paint1_linear_88_728)"/>
<path d="M32.8958 97.0749C32.8958 97.0874 32.9041 97.0916 32.9083 97.0749C33.8083 94.3791 34.9374 91.3666 36.3458 88.1457C43.7083 71.3374 57.8916 60.1291 75.3457 54.4124C83.9744 51.5914 93.1006 50.6198 102.13 51.561C111.159 52.5022 119.889 55.335 127.75 59.8749L132.042 62.3541L147.392 29.8957C98.5666 20.1457 48.6666 48.8333 32.9583 96.8874L32.8958 97.0749Z" fill="url(#paint2_linear_88_728)"/>
<path d="M146.25 187.192C141.75 189.785 136.576 190.971 131.396 190.596C126.216 190.221 121.267 188.302 117.188 185.088L103.054 194.804L90.875 214.488C104.396 225.738 121.95 229.354 139.492 227.342C153.083 225.778 166.208 221.435 178.05 214.583C187.585 209.106 196.157 202.102 203.425 193.85L196.167 176.208L184.417 165.179L146.25 187.192Z" fill="url(#paint3_linear_88_728)"/>
<path d="M117.188 185.088C114.106 182.662 111.615 179.569 109.902 176.041C108.188 172.513 107.297 168.643 107.296 164.721V97.2085C107.296 93.4335 108.404 92.7918 111.675 94.6793C106.638 91.7752 95.0001 81.8002 80.6334 90.0877C72.5959 94.721 65.9792 104.95 65.9792 114.221V163.333C65.9792 181.704 75.4959 200.863 89.2167 213.083C89.7584 213.571 90.3209 214.025 90.8751 214.492L117.188 185.088Z" fill="url(#paint4_linear_88_728)"/>
<path d="M202.442 61.204C202.429 61.1915 202.421 61.204 202.429 61.2124C204.321 63.3374 206.367 65.8207 208.454 68.6499C213.838 75.9522 217.618 84.3099 219.546 93.1751C221.474 102.04 221.506 111.213 219.642 120.092C217.771 128.97 214.049 137.355 208.718 144.698C203.387 152.04 196.567 158.176 188.704 162.704L184.413 165.175L203.425 193.85C236.292 156.483 236.375 98.9748 202.571 61.3499L202.442 61.204Z" fill="url(#paint5_linear_88_728)"/>
<path d="M67.6459 114.217C67.6486 109.026 69.2085 103.955 72.1241 99.6599C75.0396 95.365 79.1766 92.0435 84.0001 90.125L82.6459 73.0417L73.1167 53.4917C64.9326 56.4959 57.443 61.1294 51.1011 67.1117C44.7593 73.094 39.6971 80.3007 36.2209 88.2959C30.7808 100.837 27.9824 114.364 28.0001 128.033C28.0001 139.508 29.8917 150.338 33.2834 160.358L52.2126 162.896L67.6459 158.242V114.217Z" fill="url(#paint6_linear_88_728)"/>
<path d="M84 90.1248C87.6459 88.6711 91.5737 88.0621 95.4886 88.3435C99.4035 88.6249 103.204 89.7895 106.604 91.7498L107.296 92.1456L162.892 124.216C166.792 126.466 166.433 128.675 162.029 129.6L165.238 128.929C169.458 128.047 173.306 125.888 176.258 122.746C180.731 117.986 183.212 111.694 183.192 105.162C183.19 100.607 181.989 96.1321 179.709 92.1883C177.429 88.2444 174.151 84.9704 170.204 82.6956L127.633 58.1414C119.759 53.6001 111.015 50.7731 101.973 49.8454C92.9307 48.9177 83.7945 49.9102 75.1625 52.7581C74.4709 52.9831 73.7959 53.2414 73.1167 53.4914L84 90.1248Z" fill="url(#paint7_linear_88_728)"/>
<path d="M148.762 225.829C148.779 225.825 148.775 225.813 148.762 225.817C145.971 226.388 142.796 226.917 139.304 227.304C130.285 228.313 121.154 227.407 112.508 224.645C103.863 221.884 95.8981 217.328 89.1343 211.276C82.3706 205.225 76.9603 197.814 73.2574 189.528C69.5544 181.242 67.6422 172.267 67.6457 163.192V158.242L33.2791 160.354C49.2374 207.475 99.0499 236.304 148.567 225.867C148.587 225.867 148.671 225.846 148.758 225.825L148.762 225.829Z" fill="url(#paint8_linear_88_728)"/>
</g>
<defs>
<linearGradient id="paint0_linear_88_728" x1="153.375" y1="176.562" x2="173.046" y2="108.042" gradientUnits="userSpaceOnUse">
<stop stop-color="#1724C9"/>
<stop offset="1" stop-color="#1C64F2"/>
</linearGradient>
<linearGradient id="paint1_linear_88_728" x1="198.683" y1="93.0041" x2="146.938" y2="41.4374" gradientUnits="userSpaceOnUse">
<stop stop-color="#1C64F2"/>
<stop offset="1" stop-color="#0092FF"/>
</linearGradient>
<linearGradient id="paint2_linear_88_728" x1="129.029" y1="59.3832" x2="50.9624" y2="64.3166" gradientUnits="userSpaceOnUse">
<stop stop-color="#0092FF"/>
<stop offset="1" stop-color="#45B2FF"/>
</linearGradient>
<linearGradient id="paint3_linear_88_728" x1="123.75" y1="207.142" x2="193.854" y2="188.225" gradientUnits="userSpaceOnUse">
<stop stop-color="#1C64F2"/>
<stop offset="1" stop-color="#0092FF"/>
</linearGradient>
<linearGradient id="paint4_linear_88_728" x1="73.4292" y1="126.017" x2="123.204" y2="177.592" gradientUnits="userSpaceOnUse">
<stop stop-color="#1724C9"/>
<stop offset="1" stop-color="#1C64F2"/>
</linearGradient>
<linearGradient id="paint5_linear_88_728" x1="187.067" y1="163.221" x2="221.792" y2="93.2165" gradientUnits="userSpaceOnUse">
<stop stop-color="#0092FF"/>
<stop offset="1" stop-color="#45B2FF"/>
</linearGradient>
<linearGradient id="paint6_linear_88_728" x1="61.5251" y1="85.0667" x2="42.9417" y2="154.917" gradientUnits="userSpaceOnUse">
<stop stop-color="#1C64F2"/>
<stop offset="1" stop-color="#0092FF"/>
</linearGradient>
<linearGradient id="paint7_linear_88_728" x1="156.396" y1="81.7456" x2="88.4875" y2="98.6539" gradientUnits="userSpaceOnUse">
<stop stop-color="#1724C9"/>
<stop offset="1" stop-color="#1C64F2"/>
</linearGradient>
<linearGradient id="paint8_linear_88_728" x1="68.0416" y1="161.479" x2="111.329" y2="226.592" gradientUnits="userSpaceOnUse">
<stop stop-color="#0092FF"/>
<stop offset="1" stop-color="#45B2FF"/>
</linearGradient>
<clipPath id="clip0_88_728">
<rect width="200" height="200" fill="white" transform="translate(28 28)"/>
</clipPath>
</defs>
</svg>
