<svg width="256" height="256" viewBox="0 0 256 256" fill="none" xmlns="http://www.w3.org/2000/svg">
<g clip-path="url(#clip0_12_37)">
<rect width="256" height="256" fill="#242932"/>
<path d="M135.934 38.062L191.709 38L98.134 131.526L73.747 155.777L46 127.996L135.934 38.062ZM135.415 121.569C136.139 120.613 137.471 121.085 138.482 120.962L191.661 120.975L143.194 169.395L115.303 141.675L135.415 121.569Z" fill="#44D1FD"/>
<path d="M87.501 169.442L115.303 141.675L143.194 169.395L143.31 169.518L115.31 197.258L87.501 169.442Z" fill="#1FBCFD"/>
<path d="M115.31 197.258L143.31 169.518L191.681 217.937C173.461 217.978 155.247 217.923 137.034 217.964C135.996 218.196 135.354 217.247 134.691 216.66L115.31 197.258Z" fill="#08589C"/>
</g>
<defs>
<clipPath id="clip0_12_37">
<rect width="256" height="256" fill="white"/>
</clipPath>
</defs>
</svg>
