<svg width="256" height="256" viewBox="0 0 256 256" fill="none" xmlns="http://www.w3.org/2000/svg">
<rect width="256" height="256" fill="#734F96"/>
<path d="M19.187 219.619L30.714 218.913C54.122 217.384 53.887 217.502 55.063 199.152C56.122 181.743 54.788 45.4398 54.004 42.7068C52.714 38.2058 47.869 35.6168 33.419 35.6198L19.187 35.5318V10.0068H237.974V107.755L212.213 107.373C211.978 107.138 211.272 100.227 210.802 93.8748C208.096 63.9978 201.392 46.8078 188.453 40.1028C181.63 36.5738 170.977 35.5328 136.855 35.5228L105.055 35.5318V108.814H110.701C120.229 108.696 132.344 106.461 136.344 103.991C141.519 100.815 145.871 91.6398 147.401 80.5828C148.553 72.5128 149.443 66.4758 149.443 66.4758L174.455 66.4678V182.92H148.577V178.333C148.577 170.805 145.048 153.278 142.578 147.985C138.696 139.869 132.109 137.046 113.406 135.281L104.819 134.458L105.29 172.216C105.643 208.093 105.878 210.092 108.113 213.151C110.936 216.915 113.994 217.621 132.697 219.032L145.251 219.629L145.166 245.263H19.186V219.62L19.187 219.619Z" fill="white"/>
</svg>
