<svg width="256" height="256" viewBox="0 0 256 256" fill="none" xmlns="http://www.w3.org/2000/svg">
<rect width="256" height="256" fill="#734F96"/>
<path d="M39.0008 202.289L48.3262 201.719C67.2633 200.484 67.0732 200.579 68.0246 185.759C68.8813 171.699 67.8021 61.6168 67.1678 59.4095C66.1242 55.7744 62.2046 53.6834 50.5145 53.6858L39.0008 53.6148V33H216V111.944L195.159 111.636C194.969 111.446 194.398 105.864 194.018 100.734C191.829 76.6048 186.405 62.7216 175.937 57.3065C170.418 54.4563 161.799 53.6156 134.194 53.6075L108.468 53.6148V112.8H113.036C120.744 112.704 130.545 110.899 133.781 108.904C137.968 106.339 141.488 98.9293 142.726 89.9994C143.658 83.4818 144.378 78.6061 144.378 78.6061L164.613 78.5996V172.65H143.678V168.945C143.678 162.865 140.823 148.71 138.824 144.435C135.684 137.881 130.355 135.601 115.224 134.175L108.277 133.51L108.658 164.005C108.944 192.98 109.134 194.595 110.942 197.065C113.226 200.105 115.7 200.675 130.831 201.815L140.987 202.297L140.918 223H39V202.29L39.0008 202.289Z" fill="white"/>
</svg>
