<svg width="256" height="256" viewBox="0 0 256 256" fill="none" xmlns="http://www.w3.org/2000/svg">
<rect width="256" height="256" fill="#232932"/>
<g clip-path="url(#clip0_88_743)">
<path d="M215.5 59.4307C245.187 130.63 215.5 168.968 191.281 190.093C197.531 211.218 173.312 215.912 163.937 204.959C137.375 214.347 82.6875 214.347 43.625 175.227C22.5312 154.102 38.9375 107.158 94.4062 75.0789C142.844 48.477 191.281 32.8289 215.5 59.4307Z" fill="#FFDB1E"/>
<path d="M94.4063 75.0786C135.813 48.4767 185.031 36.7406 205.344 54.736C236.594 81.3378 139.719 142.366 103.781 157.231C64.7188 172.879 85.8125 208.088 64.7188 208.088C45.9688 208.088 49.0938 183.833 33.4688 161.143C23.3125 147.842 47.5313 106.375 94.4063 75.0786Z" fill="white"/>
<path d="M92.8437 72.7313L70.1875 89.9443L67.0625 93.0739C37.375 119.676 20.9687 150.19 30.3437 163.491C33.8099 168.072 36.6965 173.065 38.9375 178.356L40.5 181.486L44.4062 193.222C49.875 205.741 54.5625 211.217 64.7187 211.217C73.3125 211.217 76.4375 207.305 78.7812 195.569L79.5625 190.092L80.3437 186.963L81.125 185.398V183.833L81.9062 183.051V181.486L82.6875 179.921C85.8125 171.315 92.0625 165.055 103 160.361L104.562 159.579C125.656 151.754 158.469 131.412 181.906 112.634L185.031 110.287L188.937 106.375L192.062 103.245C213.937 82.9026 220.969 64.9073 208.469 53.1711L207.687 52.3887C186.594 33.611 136.594 43.7823 92.8437 72.7313ZM203.781 56.3008C213.937 65.6897 207.687 80.5554 188.156 99.3332L185.031 101.68L184.25 102.463L181.125 105.592L178 107.94C156.125 125.935 124.875 144.713 104.562 153.319L102.219 154.102C88.9375 159.579 81.125 167.403 77.2187 177.574L76.4375 179.921L75.6562 181.486V183.051L74.875 183.833V186.18L74.0937 189.31L73.3125 194.787L72.5312 197.134C70.9687 203.393 69.4062 204.958 64.7187 204.958C57.6875 204.958 54.5625 201.829 50.6562 192.44L46.75 179.921L45.9687 178.356C43.3013 171.733 39.8942 165.434 35.8125 159.579C30.3437 152.537 37.375 136.106 51.4375 118.111L53.7812 114.981C64.7187 102.463 79.5625 89.1619 95.9687 78.2082C138.156 50.0415 185.031 40.6526 203.781 56.3008Z" fill="#FFDB1E"/>
<path d="M181.906 58.6483C210.031 66.4724 180.344 93.0742 156.125 110.287C133.469 126.718 116.281 136.107 108.469 140.019C106.125 140.801 99.0938 125.935 99.0938 133.759C99.0938 136.107 94.4062 147.06 92.8437 147.843C85.0312 150.972 67.8437 155.667 57.6875 155.667C36.5937 155.667 45.9687 126.718 76.4375 100.116C81.125 95.4215 85.0312 96.2039 89.7187 96.2039C86.5937 91.5094 86.5937 90.727 92.0625 86.815C117.844 70.3844 149.094 58.6483 162.375 57.0835C164.719 57.0835 167.063 58.6483 167.063 60.2131C169.406 59.4307 179.563 57.8659 181.906 58.6483Z" fill="#FFE600"/>
<path d="M96.75 105.592C102.219 100.898 106.125 99.3332 109.25 89.9443C112.375 90.7267 113.938 89.9443 117.062 86.0322C118.625 89.1619 127.219 89.9443 131.906 89.9443C127.219 93.0739 124.875 95.4211 122.531 103.245C113.938 99.3332 103.781 100.898 96.75 105.592Z" fill="white"/>
</g>
<defs>
<clipPath id="clip0_88_743">
<rect width="200" height="169" fill="white" transform="translate(28 43)"/>
</clipPath>
</defs>
</svg>
