<svg width="256" height="256" viewBox="0 0 256 256" fill="none" xmlns="http://www.w3.org/2000/svg">
<rect width="256" height="256" fill="#232932"/>
<path d="M128 228C183.228 228 228 183.228 228 128C228 72.7715 183.228 28 128 28C72.7715 28 28 72.7715 28 128C28 183.228 72.7715 228 128 228Z" fill="white"/>
<path d="M88.7059 88.7532C88.7059 77.9415 97.4706 69.1768 108.282 69.1768H171.059V97.0356C171.059 102.441 166.676 106.824 161.271 106.824H135.765C130.567 106.824 126.353 111.038 126.353 116.236V177.036C126.353 182.441 121.971 186.824 116.565 186.824H88.7059V88.7532Z" fill="#001B38"/>
<path d="M110.588 116.47C110.588 130.505 121.965 141.882 136 141.882C150.035 141.882 161.412 130.505 161.412 116.47C161.412 102.436 150.035 91.0586 136 91.0586C121.965 91.0586 110.588 102.436 110.588 116.47Z" fill="url(#paint0_linear_131_357)"/>
<path opacity="0.5" d="M110.588 116.47C110.588 130.505 121.965 141.882 136 141.882C150.035 141.882 161.412 130.505 161.412 116.47C161.412 102.436 150.035 91.0586 136 91.0586C121.965 91.0586 110.588 102.436 110.588 116.47Z" fill="url(#paint1_linear_131_357)"/>
<defs>
<linearGradient id="paint0_linear_131_357" x1="118.104" y1="97.4212" x2="156.318" y2="135.9" gradientUnits="userSpaceOnUse">
<stop stop-color="#FF0057" stop-opacity="0.16"/>
<stop offset="0.861354" stop-color="#FF0057"/>
</linearGradient>
<linearGradient id="paint1_linear_131_357" x1="118.104" y1="97.4212" x2="156.318" y2="135.9" gradientUnits="userSpaceOnUse">
<stop stop-color="#FF0057" stop-opacity="0.16"/>
<stop offset="0.861354" stop-color="#FF0057"/>
</linearGradient>
</defs>
</svg>
