<svg width="256" height="256" viewBox="0 0 256 256" fill="none" xmlns="http://www.w3.org/2000/svg">
<rect width="256" height="256" fill="#242932"/>
<path d="M176.94 109.713L156.73 109.67" stroke="#467583" stroke-width="2"/>
<path d="M156.73 109.67C154.165 109.642 151.665 109.622 149.231 109.611C146.773 109.599 145.045 110.235 144.046 111.517" stroke="#466F7D" stroke-width="2"/>
<path d="M144.046 111.518C136.061 109.582 127.673 108.998 118.883 109.764C116.334 109.985 114.169 110.754 112.387 112.071" stroke="#2E3042" stroke-width="2"/>
<path d="M112.387 112.071C110.957 110.198 109.042 109.378 106.641 109.611" stroke="#758794" stroke-width="2"/>
<path d="M106.641 109.611L82.3798 109.628" stroke="#848C98" stroke-width="2"/>
<path d="M112.387 112.071L127.727 127.445C127.798 127.521 127.896 127.567 128 127.573C128.176 127.584 128.235 127.561 128.179 127.504" stroke="#70818C" stroke-width="2"/>
<path d="M128.179 127.504C128.428 127.947 128.684 128.299 128.945 128.56C134.938 134.615 139.614 139.295 142.974 142.598C146.243 145.81 148.164 148.233 148.737 149.868C149.98 153.397 149.983 156.854 148.745 160.236C148.104 161.984 146.107 164.535 142.752 167.889C138.014 172.628 133.187 177.44 128.272 182.327" stroke="#88C0C7" stroke-width="2"/>
<path d="M128.272 182.327C122.552 188.008 116.709 193.828 110.744 199.787C110.08 200.445 108.942 200.726 107.331 200.629" stroke="#70818C" stroke-width="2"/>
<path d="M127.881 161.947C137.321 161.292 136.811 148.088 127.523 148.242" stroke="#DBECEF" stroke-width="2"/>
<path d="M82.3798 109.628C85.8955 113.45 87.6492 118.311 90.1179 122.805C90.9805 124.378 91.6133 126.04 92.0162 127.794" stroke="#E1EAED" stroke-width="2"/>
<path d="M92.0162 127.794C80.4785 127.794 68.9352 127.797 57.3862 127.802C53.4589 127.802 50.8909 128.109 49.6821 128.722C47.4063 129.868 46.2543 132.056 46.2259 135.285C46.1805 140.495 46.1777 153.477 46.2174 174.231C46.2231 177.029 47.0204 179.206 48.6095 180.761" stroke="#91CCCF" stroke-width="2"/>
<path d="M48.6095 180.76C51.1974 182.911 54.2705 184.044 57.8289 184.157C72.1218 184.617 79.5195 184.489 90.2966 186.404C90.6456 186.467 90.9573 186.661 91.1678 186.948C91.3783 187.234 91.4717 187.591 91.4288 187.945C90.8727 192.344 89.5986 196.555 87.6066 200.578" stroke="#E1EAED" stroke-width="2"/>
<path d="M181.162 182.335C181.832 182.437 182.249 182.301 182.414 181.927C182.425 181.899 182.431 181.872 182.431 181.85V160.125C182.431 160.008 182.384 159.895 182.301 159.812C182.218 159.729 182.105 159.683 181.988 159.683L160.97 159.649" stroke="#ADE1E3" stroke-width="2"/>
<path d="M182.303 155.035L182.439 132.817C182.439 132.761 182.428 132.705 182.407 132.654C182.386 132.602 182.356 132.555 182.317 132.516C182.278 132.476 182.232 132.445 182.182 132.423C182.131 132.402 182.077 132.391 182.022 132.391L162.664 132.425" stroke="#ADE1E3" stroke-width="2"/>
<path d="M106.641 109.611L127.523 148.242" stroke="#C6DDE2" stroke-width="2"/>
<path d="M127.523 148.242C123.181 148.829 120.636 152.132 121.36 156.474C121.871 159.567 124.044 161.391 127.881 161.947" stroke="#EAF1F3" stroke-width="2"/>
<path d="M127.881 161.947C122.671 175.934 115.384 188.133 107.331 200.629" stroke="#C6DDE2" stroke-width="2"/>
<path d="M107.331 200.629L101.968 200.672" stroke="#7F8690" stroke-width="2"/>
<path d="M48.6095 180.76C50.068 181.833 52.1139 182.372 54.7472 182.378C62.4258 182.383 74.8857 182.383 92.1269 182.378C95.847 182.378 97.9071 181.85 99.8395 179.041C100.464 178.127 100.779 175.99 100.784 172.631C100.796 167.358 100.804 155.335 100.81 136.562C100.81 130.478 97.8787 127.555 92.0162 127.794" stroke="#85C5C8" stroke-width="2"/>
<path d="M156.731 109.67C152.372 121.937 149.639 131.778 149.673 143.296C149.679 145.952 149.915 154.226 150.38 168.119C150.755 179.152 152.959 189.154 155.76 199.982C155.79 200.102 155.856 200.21 155.951 200.291C156.045 200.372 156.163 200.422 156.288 200.434L157.148 200.519" stroke="#59AFB6" stroke-width="2"/>
<path d="M157.148 200.519C154.151 200.524 151.152 200.51 148.15 200.476C146.663 200.459 145.508 200.042 144.685 199.225C142.239 196.796 139.864 194.412 137.56 192.074" stroke="#466F7D" stroke-width="2"/>
<path d="M137.56 192.074L128.272 182.327" stroke="#416975" stroke-width="2"/>
<path d="M128.179 127.504L144.046 111.517" stroke="#416975" stroke-width="2"/>
<path d="M176.94 109.713C171.707 117.056 166.949 124.627 162.664 132.425" stroke="#5ABCC2" stroke-width="2"/>
<path d="M162.664 132.425L160.221 132.459C160.098 132.461 159.981 132.511 159.895 132.599C159.809 132.687 159.761 132.804 159.761 132.927V154.839C159.761 154.873 159.768 154.906 159.78 154.937C159.793 154.968 159.812 154.996 159.836 155.02C159.859 155.043 159.888 155.062 159.919 155.075C159.95 155.088 159.983 155.094 160.016 155.094L182.303 155.035" stroke="#ACDADE" stroke-width="2"/>
<path d="M182.303 155.035C179.301 156.664 176.687 157.47 174.463 157.453C170.036 157.41 164.996 157.614 160.97 159.649" stroke="#5ABCC2" stroke-width="2"/>
<path d="M160.97 159.649C160.187 159.552 159.795 159.748 159.795 160.236C159.778 167.466 159.772 174.66 159.778 181.816C159.778 181.947 159.83 182.072 159.923 182.165C160.015 182.258 160.141 182.31 160.272 182.31L181.162 182.335" stroke="#ACDADE" stroke-width="2"/>
<path d="M181.162 182.335C178.804 184.983 173.407 185.366 170.351 185.775C170.057 185.815 169.775 185.919 169.524 186.078C169.274 186.238 169.061 186.45 168.901 186.699C168.741 186.948 168.637 187.229 168.596 187.522C168.555 187.815 168.579 188.114 168.665 188.397L172.368 200.51" stroke="#5ABCC2" stroke-width="2"/>
<path d="M172.368 200.51L157.148 200.519" stroke="#467583" stroke-width="2"/>
<path d="M100.672 73.846C100.674 72.5995 100.431 71.3648 99.9556 70.2124C99.4806 69.0599 98.7833 68.0124 97.9034 67.1294C97.0235 66.2465 95.9784 65.5455 94.8276 65.0665C93.6769 64.5875 92.443 64.3398 91.1965 64.3377L73.9667 64.3076C72.7203 64.3054 71.4856 64.5488 70.3331 65.0238C69.1807 65.4988 68.1331 66.1961 67.2502 67.076C66.3672 67.9558 65.6663 69.001 65.1872 70.1517C64.7082 71.3025 64.4606 72.5363 64.4584 73.7828L64.4282 91.0467C64.4261 92.2932 64.6694 93.5279 65.1444 94.6803C65.6194 95.8328 66.3168 96.8803 67.1966 97.7633C68.0765 98.6462 69.1216 99.3472 70.2724 99.8262C71.4232 100.305 72.657 100.553 73.9035 100.555L91.1333 100.585C92.3798 100.587 93.6145 100.344 94.7669 99.8689C95.9193 99.3939 96.9669 98.6966 97.8498 97.8167C98.7328 96.9369 99.4338 95.8917 99.9128 94.741C100.392 93.5902 100.639 92.3564 100.642 91.1099L100.672 73.846Z" stroke="#2E3042" stroke-width="2"/>
<path d="M146.047 73.8057C146.047 71.2884 145.047 68.8741 143.267 67.094C141.487 65.314 139.072 64.314 136.555 64.314H119.376C116.859 64.314 114.445 65.314 112.665 67.094C110.885 68.8741 109.885 71.2884 109.885 73.8057V91.1037C109.885 92.3502 110.13 93.5845 110.607 94.7361C111.084 95.8877 111.783 96.934 112.665 97.8154C113.546 98.6968 114.592 99.396 115.744 99.873C116.896 100.35 118.13 100.595 119.376 100.595H136.555C137.802 100.595 139.036 100.35 140.187 99.873C141.339 99.396 142.385 98.6968 143.267 97.8154C144.148 96.934 144.847 95.8877 145.324 94.7361C145.801 93.5845 146.047 92.3502 146.047 91.1037V73.8057Z" stroke="#2E3042" stroke-width="2"/>
<path d="M191.522 73.8823C191.522 72.6247 191.275 71.3793 190.793 70.2174C190.312 69.0555 189.607 67.9997 188.717 67.1104C187.828 66.2211 186.772 65.5157 185.61 65.0344C184.448 64.5531 183.203 64.3054 181.945 64.3054H164.784C163.526 64.3054 162.281 64.5531 161.119 65.0344C159.957 65.5157 158.901 66.2211 158.012 67.1104C157.122 67.9997 156.417 69.0555 155.936 70.2174C155.454 71.3793 155.207 72.6247 155.207 73.8823V91.0611C155.207 92.3188 155.454 93.5641 155.936 94.726C156.417 95.888 157.122 96.9437 158.012 97.833C158.901 98.7223 159.957 99.4277 161.119 99.909C162.281 100.39 163.526 100.638 164.784 100.638H181.945C183.203 100.638 184.448 100.39 185.61 99.909C186.772 99.4277 187.828 98.7223 188.717 97.833C189.607 96.9437 190.312 95.888 190.793 94.726C191.275 93.5641 191.522 92.3188 191.522 91.0611V73.8823Z" stroke="#2E3042" stroke-width="2"/>
<path d="M211.743 144.026C211.778 143.991 211.807 143.948 211.826 143.902C211.845 143.855 211.855 143.806 211.855 143.755C211.855 143.705 211.845 143.655 211.826 143.609C211.807 143.562 211.778 143.52 211.743 143.484L198.62 130.362C198.585 130.326 198.543 130.298 198.496 130.279C198.45 130.26 198.4 130.25 198.35 130.25C198.299 130.25 198.249 130.26 198.203 130.279C198.157 130.298 198.114 130.326 198.079 130.362L184.956 143.484C184.921 143.52 184.893 143.562 184.873 143.609C184.854 143.655 184.844 143.705 184.844 143.755C184.844 143.806 184.854 143.855 184.873 143.902C184.893 143.948 184.921 143.991 184.956 144.026L198.079 157.148C198.114 157.184 198.157 157.212 198.203 157.232C198.249 157.251 198.299 157.261 198.35 157.261C198.4 157.261 198.45 157.251 198.496 157.232C198.543 157.212 198.585 157.184 198.62 157.148L211.743 144.026Z" stroke="#ADE1E3" stroke-width="2"/>
<path d="M187.036 182.259C190.106 184.041 193.608 184.441 197.541 183.459C197.603 183.444 197.661 183.413 197.709 183.37C197.757 183.327 197.794 183.273 197.815 183.212C197.837 183.151 197.844 183.086 197.835 183.022C197.825 182.959 197.8 182.898 197.762 182.846C197.637 182.676 197.334 182.506 196.851 182.335" stroke="#5ABCC2" stroke-width="2"/>
<path d="M196.851 182.335L209.288 182.301C209.397 182.301 209.501 182.258 209.577 182.182C209.654 182.105 209.697 182.001 209.697 181.893V160.032C209.697 159.919 209.652 159.811 209.572 159.731C209.493 159.651 209.384 159.606 209.271 159.606H187.462C187.342 159.606 187.227 159.654 187.143 159.738C187.058 159.823 187.01 159.938 187.01 160.057L187.036 182.259" stroke="#ADE1E3" stroke-width="2"/>
<path d="M196.851 182.335L187.036 182.259" stroke="#ACDADE" stroke-width="2"/>
<path d="M53.1212 144.411L53.2489 152.353C53.2511 152.471 53.2997 152.584 53.384 152.667C53.4684 152.75 53.5819 152.796 53.7001 152.796H72.8624C72.9911 152.796 73.1145 152.745 73.2055 152.654C73.2965 152.563 73.3476 152.439 73.3476 152.311L73.3306 142.955" stroke="#91CCCF" stroke-width="2"/>
<path d="M73.3306 142.955L73.3817 139.652C73.3828 139.589 73.3715 139.526 73.3485 139.467C73.3255 139.408 73.2912 139.355 73.2476 139.31C73.204 139.264 73.152 139.229 73.0946 139.204C73.0373 139.18 72.9757 139.167 72.9135 139.167H53.6064C53.4823 139.167 53.3632 139.216 53.2754 139.304C53.1876 139.392 53.1382 139.511 53.1382 139.635L53.1212 144.411" stroke="#85C5C8" stroke-width="2"/>
<path d="M73.3306 142.955C67.3887 141.604 61.6056 141.426 55.9815 142.419C54.5911 142.663 53.6377 143.327 53.1212 144.411" stroke="#E1EAED" stroke-width="2"/>
<path d="M93.8635 139.584C93.8635 139.48 93.8223 139.381 93.7488 139.307C93.6754 139.234 93.5758 139.192 93.4719 139.192H80.7368C80.6329 139.192 80.5333 139.234 80.4599 139.307C80.3865 139.381 80.3452 139.48 80.3452 139.584V175.082C80.3452 175.186 80.3865 175.286 80.4599 175.359C80.5333 175.433 80.6329 175.474 80.7368 175.474H93.4719C93.5758 175.474 93.6754 175.433 93.7488 175.359C93.8223 175.286 93.8635 175.186 93.8635 175.082V139.584Z" stroke="#91CCCF" stroke-width="2"/>
<path d="M53.1553 175.346L72.9645 175.431C73.0782 175.431 73.1874 175.387 73.2686 175.307C73.3497 175.228 73.3965 175.119 73.3987 175.006L73.4327 165.327" stroke="#9AD3D5" stroke-width="2"/>
<path d="M73.4327 165.327L73.3986 162.177C73.3986 162.105 73.3699 162.035 73.3189 161.984C73.2678 161.933 73.1985 161.905 73.1262 161.905H53.5979C53.5346 161.905 53.4719 161.917 53.4135 161.942C53.3551 161.966 53.3021 162.002 53.2578 162.047C53.2134 162.092 53.1784 162.146 53.155 162.205C53.1315 162.264 53.12 162.326 53.1212 162.39L53.1552 175.346" stroke="#85C5C8" stroke-width="2"/>
<path d="M73.4327 165.327C66.929 164.143 60.1443 163.939 53.7427 165.803C53.6264 165.838 53.5241 165.908 53.4506 166.005C53.3771 166.101 53.3363 166.219 53.334 166.34L53.1553 175.346" stroke="#EAF1F3" stroke-width="2"/>
<path d="M227.387 118.549C224.39 112.652 220.182 109.698 214.762 109.687C202.095 109.67 189.488 109.679 176.94 109.713L156.73 109.67C154.165 109.642 151.665 109.622 149.231 109.61C146.773 109.599 145.045 110.235 144.046 111.517C136.061 109.582 127.673 108.998 118.883 109.764C116.334 109.985 114.169 110.754 112.387 112.071C110.957 110.198 109.042 109.378 106.641 109.61L82.3797 109.628C70.4107 109.605 58.4389 109.588 46.4642 109.576C41.3622 109.571 37.8635 109.991 35.968 110.836C32.8182 112.238 30.4261 114.758 28.7917 118.396L28.5789 117.442C31.0589 96.8243 38.5785 79.0127 51.1378 64.0075C93.208 13.7309 171.219 16.4465 209.374 70.009C219.663 84.4524 225.667 100.632 227.387 118.549ZM100.672 73.8458C100.674 72.5993 100.431 71.3646 99.9555 70.2122C99.4805 69.0598 98.7832 68.0122 97.9033 67.1293C97.0235 66.2463 95.9783 65.5454 94.8276 65.0663C93.6768 64.5873 92.443 64.3397 91.1965 64.3375L73.9667 64.3075C72.7202 64.3053 71.4855 64.5486 70.3331 65.0236C69.1806 65.4986 68.1331 66.1959 67.2501 67.0758C66.3672 67.9556 65.6662 69.0008 65.1872 70.1515C64.7082 71.3023 64.4605 72.5361 64.4583 73.7826L64.4282 91.0466C64.426 92.293 64.6694 93.5277 65.1444 94.6802C65.6194 95.8326 66.3167 96.8802 67.1966 97.7631C68.0764 98.646 69.1216 99.347 70.2723 99.826C71.4231 100.305 72.657 100.553 73.9034 100.555L91.1332 100.585C92.3797 100.587 93.6144 100.344 94.7668 99.8687C95.9193 99.3937 96.9669 98.6964 97.8498 97.8166C98.7327 96.9367 99.4337 95.8916 99.9127 94.7408C100.392 93.59 100.639 92.3562 100.642 91.1097L100.672 73.8458ZM146.047 73.8057C146.047 71.2883 145.047 68.8741 143.267 67.094C141.487 65.314 139.072 64.3139 136.555 64.3139H119.376C116.859 64.3139 114.445 65.314 112.665 67.094C110.885 68.8741 109.885 71.2883 109.885 73.8057V91.1037C109.885 92.3502 110.13 93.5844 110.607 94.736C111.084 95.8876 111.783 96.934 112.665 97.8154C113.546 98.6968 114.592 99.3959 115.744 99.8729C116.896 100.35 118.13 100.595 119.376 100.595H136.555C137.802 100.595 139.036 100.35 140.187 99.8729C141.339 99.3959 142.385 98.6968 143.267 97.8154C144.148 96.934 144.847 95.8876 145.324 94.736C145.801 93.5844 146.047 92.3502 146.047 91.1037V73.8057ZM191.522 73.8823C191.522 72.6247 191.274 71.3793 190.793 70.2174C190.312 69.0555 189.607 67.9997 188.717 67.1104C187.828 66.2211 186.772 65.5157 185.61 65.0344C184.448 64.5531 183.203 64.3054 181.945 64.3054H164.784C163.526 64.3054 162.281 64.5531 161.119 65.0344C159.957 65.5157 158.901 66.2211 158.012 67.1104C157.122 67.9997 156.417 69.0555 155.936 70.2174C155.454 71.3793 155.207 72.6247 155.207 73.8823V91.0611C155.207 92.3188 155.454 93.5641 155.936 94.726C156.417 95.888 157.122 96.9437 158.012 97.833C158.901 98.7223 159.957 99.4277 161.119 99.909C162.281 100.39 163.526 100.638 164.784 100.638H181.945C183.203 100.638 184.448 100.39 185.61 99.909C186.772 99.4277 187.828 98.7223 188.717 97.833C189.607 96.9437 190.312 95.888 190.793 94.726C191.274 93.5641 191.522 92.3188 191.522 91.0611V73.8823Z" fill="#333549"/>
<path d="M91.1966 64.3374L73.9667 64.3073C68.7246 64.2982 64.4676 68.5404 64.4584 73.7825L64.4283 91.0464C64.4191 96.2886 68.6613 100.546 73.9035 100.555L91.1333 100.585C96.3755 100.594 100.632 96.3518 100.642 91.1096L100.672 73.8457C100.681 68.6036 96.4387 64.3466 91.1966 64.3374Z" fill="#292A3A"/>
<path d="M136.555 64.314H119.376C114.134 64.314 109.885 68.5636 109.885 73.8057V91.1037C109.885 96.3459 114.134 100.595 119.376 100.595H136.555C141.797 100.595 146.047 96.3459 146.047 91.1037V73.8057C146.047 68.5636 141.797 64.314 136.555 64.314Z" fill="#292A3A"/>
<path d="M181.945 64.3054H164.784C159.494 64.3054 155.207 68.5931 155.207 73.8823V91.0611C155.207 96.3503 159.494 100.638 164.784 100.638H181.945C187.235 100.638 191.522 96.3503 191.522 91.0611V73.8823C191.522 68.5931 187.235 64.3054 181.945 64.3054Z" fill="#292A3A"/>
<path d="M82.3797 109.628C85.8955 113.45 87.6491 118.311 90.1179 122.805C90.9805 124.377 91.6133 126.04 92.0162 127.794C80.4785 127.794 68.9352 127.797 57.3862 127.802C53.4589 127.802 50.8909 128.109 49.6821 128.722C47.4063 129.868 46.2543 132.056 46.2259 135.285C46.1805 140.495 46.1777 153.477 46.2174 174.231C46.2231 177.029 47.0204 179.205 48.6095 180.76C51.1974 182.911 54.2705 184.044 57.8288 184.157C72.1218 184.617 79.5194 184.489 90.2966 186.404C90.6455 186.467 90.9573 186.661 91.1678 186.948C91.3783 187.234 91.4717 187.591 91.4288 187.945C90.8726 192.344 89.5986 196.555 87.6066 200.578L59.5399 200.561L54.3556 200.57L58.8844 200.365C59.1599 200.355 59.4235 200.253 59.6335 200.076C62.3321 197.829 67.7803 192.551 63.6175 189.018C62.6357 188.178 61.8355 187.656 61.2169 187.451C56.8584 186.004 54.0719 185.028 52.8574 184.523C44.966 181.246 45.4597 173.635 44.4552 166.663C42.5484 153.409 32.2905 161.113 28.5193 167.208C28.5031 167.231 28.4803 167.248 28.4539 167.258C28.4276 167.267 28.399 167.268 28.372 167.261C28.345 167.253 28.321 167.238 28.3032 167.216C28.2854 167.194 28.2746 167.168 28.2724 167.14L28.0341 161.487L28.5789 118.677C28.7208 118.535 28.7917 118.441 28.7917 118.396C30.4262 114.758 32.8182 112.238 35.968 110.836C37.8635 109.991 41.3623 109.571 46.4643 109.576C58.4389 109.588 70.4107 109.605 82.3797 109.628Z" fill="#EDF1F3"/>
<path d="M106.641 109.611L127.523 148.242C123.182 148.829 120.636 152.132 121.36 156.474C121.871 159.567 124.044 161.391 127.881 161.947C122.671 175.934 115.384 188.133 107.331 200.629L101.968 200.672L87.6066 200.578C89.5986 196.555 90.8727 192.344 91.4288 187.945C91.4717 187.591 91.3783 187.234 91.1678 186.948C90.9573 186.661 90.6456 186.467 90.2966 186.405C79.5194 184.489 72.1218 184.617 57.8288 184.157C54.2705 184.044 51.1974 182.911 48.6095 180.761C50.068 181.833 52.1139 182.372 54.7472 182.378C62.4258 182.384 74.8857 182.384 92.1269 182.378C95.847 182.378 97.9071 181.85 99.8395 179.041C100.464 178.127 100.779 175.991 100.784 172.631C100.796 167.359 100.804 155.336 100.81 136.562C100.81 130.478 97.8787 127.556 92.0162 127.794C91.6133 126.04 90.9805 124.377 90.1179 122.805C87.6492 118.311 85.8955 113.45 82.3797 109.628L106.641 109.611Z" fill="#D5E2E6"/>
<path d="M112.387 112.071L127.727 127.445C127.798 127.521 127.896 127.567 128 127.573C128.176 127.584 128.235 127.561 128.179 127.504C128.428 127.947 128.684 128.299 128.945 128.56C134.938 134.616 139.614 139.295 142.974 142.598C146.243 145.81 148.164 148.233 148.737 149.868C149.98 153.398 149.983 156.854 148.746 160.236C148.104 161.984 146.107 164.535 142.753 167.889C138.014 172.628 133.187 177.441 128.272 182.327C122.552 188.008 116.709 193.828 110.744 199.787C110.08 200.445 108.943 200.726 107.331 200.629C115.384 188.133 122.671 175.934 127.881 161.947C137.321 161.292 136.811 148.088 127.523 148.242L106.641 109.611C109.042 109.378 110.957 110.198 112.387 112.071Z" fill="#B7D8DE"/>
<path d="M156.731 109.67C152.372 121.937 149.639 131.778 149.673 143.296C149.679 145.952 149.915 154.226 150.38 168.119C150.755 179.152 152.959 189.154 155.76 199.982C155.79 200.102 155.856 200.21 155.951 200.291C156.045 200.372 156.163 200.422 156.288 200.433L157.148 200.519C154.151 200.524 151.152 200.51 148.15 200.476C146.663 200.459 145.508 200.042 144.685 199.225C142.239 196.796 139.864 194.412 137.56 192.074L128.272 182.327C133.187 177.44 138.014 172.628 142.752 167.889C146.107 164.535 148.104 161.984 148.746 160.236C149.983 156.854 149.98 153.397 148.737 149.868C148.164 148.233 146.243 145.81 142.974 142.598C139.614 139.295 134.938 134.615 128.945 128.56C128.684 128.299 128.428 127.947 128.179 127.504L144.046 111.517C145.045 110.235 146.773 109.599 149.231 109.611C151.665 109.622 154.165 109.642 156.731 109.67Z" fill="#59A8B0"/>
<path d="M176.94 109.713C171.707 117.056 166.949 124.627 162.664 132.425L160.221 132.459C160.098 132.461 159.981 132.511 159.895 132.599C159.809 132.687 159.761 132.804 159.761 132.927V154.839C159.761 154.873 159.768 154.906 159.781 154.937C159.793 154.968 159.812 154.996 159.836 155.02C159.86 155.043 159.888 155.062 159.919 155.075C159.95 155.088 159.983 155.094 160.016 155.094L182.303 155.035C179.301 156.664 176.687 157.469 174.463 157.452C170.036 157.41 164.996 157.614 160.97 159.649C160.187 159.552 159.795 159.748 159.795 160.236C159.778 167.466 159.772 174.66 159.778 181.816C159.778 181.947 159.83 182.073 159.923 182.165C160.015 182.258 160.141 182.31 160.272 182.31L181.162 182.335C178.804 184.983 173.407 185.366 170.351 185.775C170.057 185.815 169.775 185.919 169.524 186.078C169.274 186.238 169.061 186.45 168.901 186.699C168.741 186.948 168.637 187.229 168.596 187.522C168.555 187.815 168.579 188.114 168.665 188.396L172.369 200.51L157.148 200.519L156.288 200.434C156.163 200.422 156.045 200.372 155.951 200.291C155.856 200.21 155.79 200.102 155.76 199.982C152.959 189.154 150.755 179.152 150.38 168.119C149.915 154.226 149.679 145.952 149.673 143.296C149.639 131.778 152.372 121.937 156.731 109.67L176.94 109.713Z" fill="#59B5BC"/>
<path d="M227.387 118.549C227.807 120.847 228.011 122.95 228 124.857C227.914 153.426 227.895 173.164 227.94 184.072C227.951 187.994 227.58 190.755 226.825 192.355C225.247 195.686 222.829 198.081 219.572 199.54C218.04 200.226 214.947 200.553 210.293 200.519C205.594 200.485 200.974 200.505 196.434 200.578L172.368 200.51L168.665 188.397C168.579 188.114 168.555 187.815 168.596 187.522C168.637 187.229 168.741 186.948 168.901 186.699C169.061 186.45 169.274 186.238 169.524 186.078C169.775 185.919 170.057 185.815 170.351 185.775C173.407 185.366 178.804 184.983 181.162 182.335C181.832 182.438 182.249 182.301 182.414 181.927C182.425 181.899 182.431 181.873 182.431 181.85V160.126C182.431 160.008 182.384 159.896 182.301 159.813C182.218 159.729 182.105 159.683 181.988 159.683L160.97 159.649C164.996 157.614 170.036 157.41 174.463 157.452C176.687 157.47 179.301 156.664 182.303 155.035L182.439 132.816C182.439 132.761 182.428 132.705 182.407 132.654C182.386 132.602 182.356 132.555 182.317 132.516C182.278 132.476 182.232 132.445 182.182 132.423C182.131 132.402 182.077 132.391 182.022 132.391L162.664 132.425C166.949 124.627 171.707 117.056 176.94 109.713C189.488 109.679 202.095 109.67 214.762 109.687C220.182 109.699 224.39 112.653 227.387 118.549ZM211.743 144.026C211.778 143.991 211.807 143.948 211.826 143.902C211.845 143.856 211.855 143.806 211.855 143.755C211.855 143.705 211.845 143.655 211.826 143.609C211.807 143.562 211.778 143.52 211.743 143.485L198.62 130.362C198.585 130.327 198.543 130.298 198.496 130.279C198.45 130.26 198.4 130.25 198.35 130.25C198.299 130.25 198.249 130.26 198.203 130.279C198.156 130.298 198.114 130.327 198.079 130.362L184.956 143.485C184.921 143.52 184.892 143.562 184.873 143.609C184.854 143.655 184.844 143.705 184.844 143.755C184.844 143.806 184.854 143.856 184.873 143.902C184.892 143.948 184.921 143.991 184.956 144.026L198.079 157.149C198.114 157.184 198.156 157.212 198.203 157.232C198.249 157.251 198.299 157.261 198.35 157.261C198.4 157.261 198.45 157.251 198.496 157.232C198.543 157.212 198.585 157.184 198.62 157.149L211.743 144.026ZM187.036 182.259C190.106 184.041 193.608 184.441 197.541 183.459C197.603 183.444 197.661 183.413 197.709 183.37C197.757 183.327 197.794 183.272 197.815 183.212C197.837 183.151 197.844 183.086 197.835 183.022C197.825 182.959 197.8 182.898 197.762 182.846C197.637 182.676 197.334 182.506 196.851 182.335L209.288 182.301C209.397 182.301 209.501 182.258 209.577 182.182C209.654 182.105 209.697 182.001 209.697 181.893V160.032C209.697 159.919 209.652 159.811 209.572 159.731C209.493 159.651 209.384 159.606 209.271 159.606H187.462C187.342 159.606 187.227 159.654 187.143 159.738C187.058 159.823 187.01 159.938 187.01 160.057L187.036 182.259Z" fill="#5BC2C7"/>
<path d="M144.046 111.518L128.179 127.505C128.235 127.561 128.176 127.584 128 127.573C127.896 127.567 127.798 127.521 127.727 127.445L112.387 112.071C114.169 110.754 116.334 109.985 118.883 109.764C127.673 108.998 136.061 109.582 144.046 111.518Z" fill="#292A3A"/>
<path d="M28.7917 118.396C28.7917 118.441 28.7207 118.535 28.5789 118.677V117.442L28.7917 118.396Z" fill="#292A3A"/>
<path d="M92.0162 127.794C97.8787 127.555 100.81 130.478 100.81 136.562C100.804 155.335 100.796 167.358 100.784 172.631C100.779 175.99 100.464 178.127 99.8395 179.041C97.9071 181.85 95.847 182.378 92.1269 182.378C74.8856 182.383 62.4257 182.383 54.7472 182.378C52.1139 182.372 50.068 181.833 48.6095 180.76C47.0204 179.205 46.2231 177.029 46.2174 174.231C46.1777 153.477 46.1805 140.495 46.2259 135.285C46.2543 132.056 47.4063 129.868 49.6821 128.722C50.8909 128.109 53.4589 127.802 57.3862 127.802C68.9352 127.797 80.4785 127.794 92.0162 127.794ZM53.1213 144.411L53.249 152.353C53.2512 152.471 53.2997 152.584 53.3841 152.667C53.4684 152.749 53.5819 152.796 53.7001 152.796H72.8624C72.9911 152.796 73.1145 152.745 73.2055 152.654C73.2965 152.563 73.3477 152.439 73.3477 152.311L73.3306 142.955L73.3817 139.652C73.3828 139.589 73.3716 139.526 73.3485 139.467C73.3255 139.408 73.2912 139.355 73.2476 139.309C73.204 139.264 73.152 139.228 73.0947 139.204C73.0373 139.179 72.9757 139.167 72.9135 139.167H53.6065C53.4823 139.167 53.3632 139.216 53.2754 139.304C53.1876 139.392 53.1383 139.511 53.1383 139.635L53.1213 144.411ZM93.8635 139.584C93.8635 139.48 93.8222 139.381 93.7488 139.307C93.6754 139.234 93.5757 139.192 93.4719 139.192H80.7368C80.6329 139.192 80.5333 139.234 80.4599 139.307C80.3864 139.381 80.3452 139.48 80.3452 139.584V175.082C80.3452 175.186 80.3864 175.286 80.4599 175.359C80.5333 175.433 80.6329 175.474 80.7368 175.474H93.4719C93.5757 175.474 93.6754 175.433 93.7488 175.359C93.8222 175.286 93.8635 175.186 93.8635 175.082V139.584ZM53.1553 175.346L72.9646 175.431C73.0783 175.431 73.1874 175.387 73.2686 175.307C73.3498 175.228 73.3965 175.119 73.3987 175.006L73.4328 165.327L73.3987 162.177C73.3987 162.105 73.37 162.035 73.3189 161.984C73.2679 161.933 73.1986 161.905 73.1263 161.905H53.598C53.5347 161.905 53.472 161.917 53.4136 161.942C53.3552 161.966 53.3022 162.002 53.2578 162.047C53.2135 162.092 53.1785 162.146 53.1551 162.205C53.1316 162.264 53.1201 162.326 53.1213 162.39L53.1553 175.346Z" fill="#34A7AA"/>
<path d="M211.743 143.485L198.62 130.362C198.471 130.213 198.228 130.213 198.079 130.362L184.956 143.485C184.807 143.634 184.807 143.877 184.956 144.026L198.079 157.149C198.228 157.298 198.471 157.298 198.62 157.149L211.743 144.026C211.892 143.877 211.892 143.634 211.743 143.485Z" fill="white"/>
<path d="M162.664 132.425L182.022 132.391C182.077 132.391 182.131 132.402 182.182 132.423C182.232 132.445 182.278 132.476 182.317 132.516C182.356 132.555 182.386 132.602 182.407 132.654C182.428 132.705 182.439 132.761 182.439 132.817L182.303 155.035L160.016 155.094C159.983 155.094 159.95 155.088 159.919 155.075C159.888 155.062 159.859 155.043 159.836 155.02C159.812 154.996 159.793 154.968 159.78 154.937C159.768 154.906 159.761 154.873 159.761 154.839V132.927C159.761 132.804 159.809 132.687 159.895 132.599C159.981 132.512 160.098 132.461 160.221 132.459L162.664 132.425Z" fill="white"/>
<path d="M73.3306 142.955C67.3887 141.604 61.6056 141.426 55.9815 142.419C54.5911 142.663 53.6377 143.327 53.1212 144.411L53.1382 139.635C53.1382 139.511 53.1876 139.392 53.2754 139.304C53.3632 139.216 53.4823 139.167 53.6064 139.167H72.9135C72.9757 139.167 73.0373 139.18 73.0946 139.204C73.152 139.229 73.204 139.264 73.2476 139.31C73.2912 139.355 73.3255 139.408 73.3485 139.467C73.3715 139.526 73.3828 139.589 73.3817 139.652L73.3306 142.955Z" fill="#D5E2E6"/>
<path d="M93.4719 139.192H80.7368C80.5205 139.192 80.3452 139.368 80.3452 139.584V175.082C80.3452 175.299 80.5205 175.474 80.7368 175.474H93.4719C93.6882 175.474 93.8635 175.299 93.8635 175.082V139.584C93.8635 139.368 93.6882 139.192 93.4719 139.192Z" fill="#EDF1F3"/>
<path d="M73.3306 142.955L73.3476 152.311C73.3476 152.439 73.2965 152.563 73.2055 152.654C73.1145 152.745 72.9911 152.796 72.8624 152.796H53.7001C53.5819 152.796 53.4684 152.75 53.384 152.667C53.2997 152.584 53.2511 152.471 53.2489 152.353L53.1212 144.411C53.6377 143.327 54.5911 142.663 55.9815 142.419C61.6056 141.426 67.3887 141.604 73.3306 142.955Z" fill="#EDF1F3"/>
<path d="M127.523 148.242C136.81 148.088 137.321 161.292 127.881 161.947C124.044 161.391 121.871 159.566 121.36 156.473C120.636 152.132 123.181 148.829 127.523 148.242Z" fill="white"/>
<path d="M54.3556 200.57L39.986 200.493C39.7485 200.493 39.5113 200.464 39.2795 200.408C34.4045 199.239 31.0249 196.608 29.1407 192.517C28.3859 190.876 28.0057 187.871 28 183.501C28 176.163 28.0114 168.825 28.0341 161.487L28.2724 167.14C28.2746 167.168 28.2853 167.194 28.3032 167.216C28.321 167.238 28.345 167.253 28.372 167.261C28.3989 167.268 28.4276 167.267 28.4539 167.258C28.4803 167.248 28.5031 167.231 28.5193 167.208C32.2904 161.113 42.5484 153.409 44.4552 166.663C45.4597 173.635 44.966 181.246 52.8574 184.523C54.0718 185.028 56.8584 186.004 61.2169 187.451C61.8355 187.656 62.6357 188.178 63.6175 189.018C67.7803 192.551 62.3321 197.829 59.6335 200.076C59.4235 200.253 59.1599 200.355 58.8844 200.365L54.3556 200.57Z" fill="white"/>
<path d="M160.97 159.649L181.988 159.683C182.105 159.683 182.218 159.729 182.301 159.812C182.384 159.895 182.431 160.008 182.431 160.125V181.85C182.431 181.872 182.425 181.899 182.414 181.927C182.249 182.301 181.832 182.437 181.162 182.335L160.272 182.31C160.141 182.31 160.015 182.258 159.923 182.165C159.83 182.072 159.778 181.947 159.778 181.816C159.772 174.66 159.778 167.466 159.795 160.236C159.795 159.748 160.187 159.552 160.97 159.649Z" fill="white"/>
<path d="M196.851 182.335L187.036 182.259L187.01 160.057C187.01 159.938 187.058 159.823 187.143 159.738C187.227 159.654 187.342 159.606 187.462 159.606H209.271C209.384 159.606 209.493 159.651 209.572 159.731C209.652 159.811 209.697 159.919 209.697 160.032V181.893C209.697 182.001 209.654 182.105 209.577 182.182C209.501 182.258 209.397 182.301 209.288 182.301L196.851 182.335Z" fill="white"/>
<path d="M73.4327 165.327C66.9289 164.143 60.1442 163.939 53.7426 165.803C53.6263 165.838 53.524 165.908 53.4506 166.005C53.3771 166.101 53.3363 166.218 53.334 166.34L53.1552 175.346L53.1212 162.39C53.12 162.326 53.1315 162.264 53.155 162.205C53.1784 162.146 53.2134 162.092 53.2578 162.047C53.3021 162.002 53.3551 161.966 53.4135 161.942C53.4719 161.917 53.5346 161.905 53.5979 161.905H73.1262C73.1985 161.905 73.2678 161.933 73.3189 161.984C73.3699 162.035 73.3986 162.105 73.3986 162.177L73.4327 165.327Z" fill="#D5E2E6"/>
<path d="M73.4327 165.327L73.3987 175.006C73.3965 175.119 73.3497 175.228 73.2686 175.307C73.1874 175.387 73.0782 175.431 72.9645 175.431L53.1553 175.346L53.334 166.34C53.3363 166.219 53.3771 166.101 53.4506 166.005C53.5241 165.908 53.6264 165.838 53.7427 165.803C60.1443 163.939 66.929 164.143 73.4327 165.327Z" fill="white"/>
<path d="M128.272 182.327L137.56 192.074C132.077 191.274 124.952 190.346 120.364 193.7C117.614 195.701 115.273 198.561 112.047 200.34C107.143 203.064 95.251 202.664 91.0797 201.157C91.0457 201.146 91.4316 201.211 92.2374 201.353C92.3445 201.376 92.4565 201.381 92.5694 201.37L101.968 200.672L107.331 200.629C108.942 200.726 110.08 200.445 110.744 199.787C116.709 193.828 122.551 188.008 128.272 182.327Z" fill="#292A3A"/>
<path d="M196.851 182.335C197.334 182.506 197.637 182.676 197.762 182.846C197.8 182.898 197.825 182.959 197.835 183.022C197.844 183.086 197.837 183.151 197.815 183.212C197.794 183.273 197.757 183.327 197.709 183.37C197.661 183.413 197.603 183.444 197.541 183.459C193.608 184.441 190.106 184.041 187.036 182.259L196.851 182.335Z" fill="#59B5BC"/>
<path d="M137.56 192.074C139.864 194.412 142.239 196.796 144.685 199.225C145.508 200.042 146.663 200.459 148.15 200.476C151.152 200.51 154.151 200.524 157.148 200.519L172.368 200.51L196.434 200.578C157.718 236.4 98.0773 237.089 59.5399 200.561L87.6066 200.578L101.968 200.672L92.5696 201.37C92.4566 201.381 92.3447 201.375 92.2376 201.353C91.4317 201.211 91.0458 201.146 91.0798 201.157C95.2511 202.664 107.143 203.064 112.047 200.34C115.273 198.561 117.614 195.7 120.364 193.7C124.952 190.346 132.077 191.274 137.56 192.074Z" fill="#333549"/>
</svg>
