<svg width="256" height="256" viewBox="0 0 256 256" fill="none" xmlns="http://www.w3.org/2000/svg">
<rect width="256" height="256" fill="#64328B"/>
<g clip-path="url(#clip0_88_762)">
<path d="M128 28C72.8438 28 28 72.8438 28 128C28 183.156 72.8438 228 128 228C183.156 228 228 183.156 228 128C228 72.8438 183.156 28 128 28ZM48.625 128L128 207.375C84.0938 207.375 48.625 171.906 48.625 128ZM145.812 205.344L50.6562 110.031C58.7812 74.875 90.3438 48.625 128 48.625C153.938 48.625 176.906 60.9688 191.281 80.1875L179.562 91.4375C168.156 75.1875 149.406 64.7188 128 64.7188C100.5 64.7188 77.2188 82.2188 68.4688 106.594C79.7188 117.062 145.812 182.375 150.031 187.375C169.875 180.031 184.875 163.156 189.719 142.219H155.969V127.531L207.531 127.844C207.375 165.812 181.125 197.375 145.812 205.344Z" fill="white"/>
</g>
<defs>
<clipPath id="clip0_88_762">
<rect width="200" height="200" fill="white" transform="translate(28 28)"/>
</clipPath>
</defs>
</svg>
