<svg width="256" height="256" viewBox="0 0 256 256" fill="none" xmlns="http://www.w3.org/2000/svg">
<rect width="256" height="256" fill="#232932"/>
<g clip-path="url(#clip0_282_24)">
<path fill-rule="evenodd" clip-rule="evenodd" d="M204.016 162.727C204.016 167.287 201.95 171.803 197.938 176.016C193.925 180.229 188.044 184.057 180.63 187.282C173.216 190.507 164.414 193.065 154.727 194.81C145.04 196.555 134.657 197.453 124.172 197.453C113.687 197.453 103.304 196.555 93.617 194.81C83.9299 193.065 75.128 190.507 67.7138 187.282C60.2996 184.057 54.4184 180.229 50.4059 176.016C46.3933 171.803 44.3281 167.287 44.3281 162.727C44.3281 158.166 46.3933 153.65 50.4059 149.437C54.4184 145.224 60.2996 141.396 67.7138 138.171C75.128 134.947 83.9299 132.389 93.617 130.643C103.304 128.898 113.687 128 124.172 128C134.657 128 145.04 128.898 154.727 130.643C164.414 132.389 173.216 134.947 180.63 138.171C188.044 141.396 193.925 145.224 197.938 149.437C201.95 153.65 204.016 158.166 204.016 162.727Z" fill="url(#paint0_radial_282_24)"/>
<path fill-rule="evenodd" clip-rule="evenodd" d="M68.3879 77.547C68.3879 77.547 80.9639 103.48 110.385 102.749C172.039 101.202 182.851 69.0397 184.398 64.3993C185.944 59.7589 188.311 60.4618 188.858 64.7504C208.967 247.272 49.3093 168.959 43.6392 137.872C75.3485 128.591 67.6145 110.803 67.6145 110.803L68.3879 77.547Z" fill="url(#paint1_radial_282_24)" stroke="#2E3436" stroke-miterlimit="10"/>
<path fill-rule="evenodd" clip-rule="evenodd" d="M91.853 154.539C121.336 160.436 136.35 154.968 145.137 148.183C142.817 145.186 138.853 141.899 138.853 141.899C138.853 141.899 149.149 144.76 152.774 149.44C156.389 154.106 154.117 156.981 153.17 162.952C151.064 157.708 147.133 155.741 146.601 153.658C138.698 164.582 119.01 164.128 91.853 154.539Z" fill="url(#paint2_linear_282_24)"/>
<path opacity="0.185393" d="M184.738 74.8164C182.28 78.8716 178.585 83.7115 172.98 88.3516C161.466 97.8849 142.134 106.562 110.5 107.355C92.0184 107.815 80.0818 98.8936 72.7656 90.9492L72.2188 110.5C72.8142 112.332 74.0364 116.583 71.9453 122.395C69.6952 128.648 62.5193 135.044 50.207 139.895C51.3022 142.178 52.3748 144.46 55.6758 147.688C60.1731 152.084 66.4253 156.823 73.8594 161.086C88.7275 169.612 107.991 176.369 125.949 176.672C143.907 176.975 160.324 171.271 171.613 154.797C182.02 139.61 187.724 113.9 184.738 74.8164Z" stroke="url(#paint3_linear_282_24)" stroke-miterlimit="10"/>
<path fill-rule="evenodd" clip-rule="evenodd" d="M100.484 116.604C100.485 118.94 100.025 121.254 99.1313 123.412C98.2376 125.571 96.9274 127.532 95.2756 129.185C93.6238 130.837 91.6626 132.148 89.5041 133.042C87.3457 133.936 85.0322 134.396 82.6959 134.396C80.3595 134.396 78.0461 133.936 75.8876 133.042C73.7292 132.148 71.768 130.837 70.1162 129.185C68.4643 127.532 67.1542 125.571 66.2605 123.412C65.3668 121.254 64.9071 118.94 64.9077 116.604C64.9071 114.267 65.3668 111.954 66.2605 109.795C67.1542 107.636 68.4643 105.675 70.1162 104.023C71.768 102.37 73.7292 101.06 75.8876 100.166C78.0461 99.2713 80.3595 98.811 82.6959 98.811C85.0322 98.811 87.3457 99.2713 89.5041 100.166C91.6626 101.06 93.6238 102.37 95.2756 104.023C96.9274 105.675 98.2376 107.636 99.1313 109.795C100.025 111.954 100.485 114.267 100.484 116.604Z" fill="url(#paint4_radial_282_24)" stroke="#888A85" stroke-miterlimit="10"/>
<path fill-rule="evenodd" clip-rule="evenodd" d="M65.049 123.306C69.1893 129.045 71.541 135.717 71.5868 141.854C71.6326 147.991 69.3687 153.09 65.2932 156.031C61.2177 158.971 55.6644 159.511 49.8549 157.532C44.0455 155.553 38.4558 151.217 34.3155 145.478C30.1752 139.739 27.8235 133.067 27.7777 126.93C27.7319 120.793 29.9958 115.693 34.0713 112.753C38.1468 109.813 43.7001 109.273 49.5096 111.252C55.319 113.231 60.9087 117.567 65.049 123.306Z" fill="url(#paint5_radial_282_24)" stroke="black" stroke-miterlimit="10"/>
<path fill-rule="evenodd" clip-rule="evenodd" d="M95.4199 119.239C95.4202 120.364 95.1989 121.478 94.7686 122.517C94.3384 123.557 93.7076 124.501 92.9122 125.297C92.1169 126.092 91.1726 126.724 90.1333 127.154C89.0941 127.585 87.9801 127.806 86.8552 127.806C85.7303 127.806 84.6163 127.585 83.5771 127.154C82.5378 126.724 81.5935 126.092 80.7982 125.297C80.0028 124.501 79.372 123.557 78.9418 122.517C78.5115 121.478 78.2902 120.364 78.2905 119.239C78.2902 118.114 78.5115 117 78.9418 115.961C79.372 114.921 80.0028 113.977 80.7982 113.181C81.5935 112.386 82.5378 111.755 83.5771 111.324C84.6163 110.893 85.7303 110.672 86.8552 110.672C87.9801 110.672 89.0941 110.893 90.1333 111.324C91.1726 111.755 92.1169 112.386 92.9122 113.181C93.7076 113.977 94.3384 114.921 94.7686 115.961C95.1989 117 95.4202 118.114 95.4199 119.239Z" fill="#2E3436" stroke="black" stroke-miterlimit="10"/>
<path opacity="0.280899" d="M35.6228 116.662C32.8275 118.755 31.3544 122.298 31.4871 127.104C31.6198 131.911 33.5168 137.797 37.4104 142.995C41.3039 148.193 46.4182 151.669 50.9936 153.148C55.5691 154.628 59.3827 154.21 62.1779 152.116C64.9731 150.023 66.4516 146.312 66.3411 141.482C66.2305 136.653 64.3848 130.888 60.4997 125.701C56.6146 120.514 51.6015 117.122 46.9984 115.657C42.3954 114.193 38.418 114.568 35.6228 116.662Z" stroke="url(#paint6_linear_282_24)" stroke-miterlimit="10"/>
<path fill-rule="evenodd" clip-rule="evenodd" d="M48.5222 124.724C48.5224 125.943 48.3225 127.15 47.934 128.277C47.5454 129.403 46.9758 130.426 46.2576 131.288C45.5394 132.15 44.6867 132.834 43.7483 133.301C42.8098 133.767 41.804 134.007 40.7882 134.007C39.7724 134.007 38.7665 133.767 37.8281 133.301C36.8896 132.834 36.037 132.15 35.3188 131.288C34.6006 130.426 34.0309 129.403 33.6424 128.277C33.2538 127.15 33.054 125.943 33.0542 124.724C33.054 123.505 33.2538 122.298 33.6424 121.172C34.0309 120.046 34.6006 119.022 35.3188 118.16C36.037 117.298 36.8896 116.615 37.8281 116.148C38.7665 115.682 39.7724 115.441 40.7882 115.441C41.804 115.441 42.8098 115.682 43.7483 116.148C44.6867 116.615 45.5394 117.298 46.2576 118.16C46.9758 119.022 47.5454 120.046 47.934 121.172C48.3225 122.298 48.5224 123.505 48.5222 124.724Z" fill="white"/>
<path fill-rule="evenodd" clip-rule="evenodd" d="M89.4906 115.286C89.4906 116.064 89.3372 116.836 89.0392 117.555C88.7413 118.274 88.3045 118.928 87.7539 119.479C87.2033 120.029 86.5497 120.466 85.8303 120.764C85.1109 121.062 84.3399 121.215 83.5612 121.215C82.7826 121.215 82.0115 121.062 81.2921 120.764C80.5728 120.466 79.9191 120.029 79.3685 119.479C78.8179 118.928 78.3812 118.274 78.0832 117.555C77.7852 116.836 77.6318 116.064 77.6318 115.286C77.6318 114.507 77.7852 113.736 78.0832 113.017C78.3812 112.297 78.8179 111.644 79.3685 111.093C79.9191 110.543 80.5728 110.106 81.2921 109.808C82.0115 109.51 82.7826 109.356 83.5612 109.356C84.3399 109.356 85.1109 109.51 85.8303 109.808C86.5497 110.106 87.2033 110.543 87.7539 111.093C88.3045 111.644 88.7413 112.297 89.0392 113.017C89.3372 113.736 89.4906 114.507 89.4906 115.286Z" fill="white"/>
<path fill-rule="evenodd" clip-rule="evenodd" d="M140.314 118.537C140.315 121.28 139.775 123.996 138.726 126.53C137.677 129.064 136.139 131.367 134.2 133.306C132.26 135.246 129.958 136.785 127.424 137.834C124.891 138.884 122.175 139.424 119.432 139.424C116.689 139.424 113.974 138.884 111.44 137.834C108.906 136.785 106.604 135.246 104.665 133.306C102.725 131.367 101.187 129.064 100.138 126.53C99.0892 123.996 98.5496 121.28 98.5503 118.537C98.5496 115.795 99.0892 113.079 100.138 110.545C101.187 108.011 102.725 105.708 104.665 103.768C106.604 101.829 108.906 100.29 111.44 99.2404C113.974 98.1907 116.689 97.6504 119.432 97.6504C122.175 97.6504 124.891 98.1907 127.424 99.2404C129.958 100.29 132.26 101.829 134.2 103.768C136.139 105.708 137.677 108.011 138.726 110.545C139.775 113.079 140.315 115.795 140.314 118.537Z" fill="url(#paint7_radial_282_24)" stroke="#888A85" stroke-miterlimit="10"/>
<path fill-rule="evenodd" clip-rule="evenodd" d="M134.369 121.631C134.369 122.951 134.11 124.259 133.605 125.479C133.1 126.7 132.359 127.808 131.425 128.742C130.492 129.676 129.383 130.417 128.163 130.922C126.943 131.428 125.636 131.688 124.315 131.688C122.994 131.688 121.687 131.428 120.467 130.922C119.247 130.417 118.138 129.676 117.204 128.742C116.271 127.808 115.53 126.7 115.025 125.479C114.52 124.259 114.26 122.951 114.261 121.631C114.26 120.31 114.52 119.003 115.025 117.782C115.53 116.562 116.271 115.454 117.204 114.52C118.138 113.586 119.247 112.845 120.467 112.339C121.687 111.834 122.994 111.574 124.315 111.574C125.636 111.574 126.943 111.834 128.163 112.339C129.383 112.845 130.492 113.586 131.425 114.52C132.359 115.454 133.1 116.562 133.605 117.782C134.11 119.003 134.369 120.31 134.369 121.631Z" fill="#2E3436" stroke="black" stroke-width="1.17391" stroke-miterlimit="10"/>
<path fill-rule="evenodd" clip-rule="evenodd" d="M127.409 116.99C127.409 117.904 127.229 118.81 126.879 119.654C126.529 120.499 126.017 121.266 125.37 121.912C124.724 122.559 123.957 123.071 123.112 123.421C122.268 123.771 121.362 123.951 120.448 123.951C119.534 123.951 118.629 123.771 117.785 123.421C116.94 123.071 116.173 122.559 115.527 121.912C114.88 121.266 114.367 120.499 114.018 119.654C113.668 118.81 113.488 117.904 113.488 116.99C113.488 116.076 113.668 115.171 114.018 114.327C114.367 113.482 114.88 112.715 115.527 112.068C116.173 111.422 116.94 110.909 117.785 110.56C118.629 110.21 119.534 110.03 120.448 110.03C121.362 110.03 122.268 110.21 123.112 110.56C123.957 110.909 124.724 111.422 125.37 112.068C126.017 112.715 126.529 113.482 126.879 114.327C127.229 115.171 127.409 116.076 127.409 116.99Z" fill="white"/>
<path d="M183.068 180.9L187.121 172.829C172.043 161.798 144.249 153.772 144.249 153.772C139.431 151.528 137.911 155.856 141.247 158.669C141.247 158.669 165.016 175.71 183.068 180.9Z" fill="url(#paint8_linear_282_24)" stroke="#673907" stroke-linecap="round"/>
<path d="M202.398 188.34L204.568 183.537L187.735 172.753L186.393 172.638L185.812 170.781C183.367 172.312 179.814 178 180.756 181.199L182.574 180.511L183.559 181.463L202.398 188.34Z" fill="url(#paint9_linear_282_24)" stroke="#888A85" stroke-linecap="round"/>
<path d="M191.489 179.23L202.665 184.029" stroke="white" stroke-linecap="round" stroke-linejoin="round"/>
<path d="M226.862 208.737C221.614 190.923 219.753 176.779 206.039 178.037C194.987 179.052 194.213 194.887 205.633 199.257C216.635 203.466 226.862 208.737 226.862 208.737Z" fill="url(#paint10_radial_282_24)"/>
<path opacity="0.527778" d="M206.86 179.481C207.44 179.31 208.047 179.255 208.648 179.319C209.249 179.382 209.832 179.564 210.362 179.853C210.893 180.142 211.361 180.533 211.741 181.003C212.121 181.473 212.404 182.014 212.575 182.593C212.745 183.173 212.8 183.781 212.736 184.381C212.672 184.982 212.49 185.565 212.201 186.095C211.912 186.626 211.521 187.094 211.051 187.474C210.58 187.853 210.04 188.136 209.46 188.307C208.881 188.478 208.273 188.533 207.672 188.469C207.071 188.405 206.489 188.223 205.958 187.934C205.428 187.645 204.959 187.255 204.579 186.784C204.2 186.314 203.917 185.774 203.746 185.194C203.575 184.615 203.52 184.007 203.584 183.406C203.648 182.805 203.83 182.223 204.119 181.692C204.409 181.162 204.799 180.693 205.27 180.314C205.74 179.934 206.28 179.651 206.86 179.481Z" fill="white"/>
<path d="M186.8 172.934C187.191 172.819 187.601 172.782 188.006 172.825C188.412 172.868 188.805 172.99 189.163 173.185C189.521 173.38 189.837 173.644 190.093 173.961C190.349 174.279 190.54 174.643 190.656 175.034C190.771 175.425 190.808 175.835 190.765 176.241C190.721 176.646 190.599 177.039 190.404 177.397C190.208 177.755 189.945 178.071 189.627 178.327C189.31 178.583 188.945 178.774 188.554 178.89C188.163 179.005 187.753 179.042 187.348 178.999C186.942 178.956 186.549 178.833 186.191 178.638C185.833 178.443 185.517 178.179 185.261 177.862C185.005 177.545 184.814 177.18 184.698 176.789C184.583 176.398 184.546 175.988 184.589 175.583C184.633 175.177 184.755 174.784 184.951 174.426C185.146 174.068 185.409 173.752 185.727 173.496C186.044 173.24 186.409 173.049 186.8 172.934Z" fill="white"/>
<path opacity="0.427778" d="M220.273 198.077C220.273 198.077 218.564 191.682 214.791 188.354C213.457 187.177 215.138 185.442 216.398 186.966C219.118 190.256 220.273 198.077 220.273 198.077Z" fill="url(#paint11_linear_282_24)"/>
<path fill-rule="evenodd" clip-rule="evenodd" d="M123.638 161.847C130.189 162.473 136.105 160.657 138.565 159.773C138.995 157.344 140.913 152.681 147.517 152.373L145.197 148.313C145.197 148.313 136.593 154.21 127.409 155.95L123.638 161.847Z" fill="url(#paint12_linear_282_24)"/>
</g>
<defs>
<radialGradient id="paint0_radial_282_24" cx="0" cy="0" r="1" gradientUnits="userSpaceOnUse" gradientTransform="translate(124.172 162.727) scale(79.8438 34.7266)">
<stop/>
<stop offset="1" stop-opacity="0"/>
</radialGradient>
<radialGradient id="paint1_radial_282_24" cx="0" cy="0" r="1" gradientUnits="userSpaceOnUse" gradientTransform="translate(95.4397 120.563) scale(149.137 109.087)">
<stop stop-color="#857C63"/>
<stop offset="1" stop-color="#221F19"/>
</radialGradient>
<linearGradient id="paint2_linear_282_24" x1="147.747" y1="147.379" x2="99.0231" y2="157.046" gradientUnits="userSpaceOnUse">
<stop/>
<stop offset="1" stop-opacity="0"/>
</linearGradient>
<linearGradient id="paint3_linear_282_24" x1="88.4883" y1="106.609" x2="195.92" y2="228.562" gradientUnits="userSpaceOnUse">
<stop stop-color="white"/>
<stop offset="1" stop-color="white" stop-opacity="0"/>
</linearGradient>
<radialGradient id="paint4_radial_282_24" cx="0" cy="0" r="1" gradientUnits="userSpaceOnUse" gradientTransform="translate(82.6959 104.086) scale(25.9104 25.9104)">
<stop stop-color="white"/>
<stop offset="1" stop-color="#B9B9B0"/>
</radialGradient>
<radialGradient id="paint5_radial_282_24" cx="0" cy="0" r="1" gradientUnits="userSpaceOnUse" gradientTransform="translate(42.5728 125.095) rotate(-30) scale(19.4636 22.7173)">
<stop stop-color="#5B676B"/>
<stop offset="1" stop-color="#141718"/>
</radialGradient>
<linearGradient id="paint6_linear_282_24" x1="39.5265" y1="120.331" x2="59.9304" y2="149.912" gradientUnits="userSpaceOnUse">
<stop stop-color="white"/>
<stop offset="1" stop-color="white" stop-opacity="0"/>
</linearGradient>
<radialGradient id="paint7_radial_282_24" cx="0" cy="0" r="1" gradientUnits="userSpaceOnUse" gradientTransform="translate(119.432 103.843) scale(30.4166 30.4165)">
<stop stop-color="white"/>
<stop offset="1" stop-color="#B9B9B0"/>
</radialGradient>
<linearGradient id="paint8_linear_282_24" x1="173.322" y1="163.238" x2="164.234" y2="183.088" gradientUnits="userSpaceOnUse">
<stop stop-color="#6E3D09"/>
<stop offset="0.242424" stop-color="#EA8113"/>
<stop offset="0.621212" stop-color="#5C3307"/>
<stop offset="1" stop-color="#E07C12"/>
</linearGradient>
<linearGradient id="paint9_linear_282_24" x1="192.798" y1="184.796" x2="196.795" y2="176.733" gradientUnits="userSpaceOnUse">
<stop stop-color="#BDBDBD"/>
<stop offset="0.333333" stop-color="#E2E2E2"/>
<stop offset="0.666667" stop-color="#A3A3A3"/>
<stop offset="1" stop-color="#DDDDDD"/>
</linearGradient>
<radialGradient id="paint10_radial_282_24" cx="0" cy="0" r="1" gradientUnits="userSpaceOnUse" gradientTransform="translate(202.765 189.481) rotate(-106.415) scale(21.1948 20.6549)">
<stop stop-color="#696969"/>
<stop offset="1"/>
</radialGradient>
<linearGradient id="paint11_linear_282_24" x1="215.312" y1="185.248" x2="220.431" y2="194.735" gradientUnits="userSpaceOnUse">
<stop stop-color="white"/>
<stop offset="1" stop-color="white" stop-opacity="0"/>
</linearGradient>
<linearGradient id="paint12_linear_282_24" x1="137.463" y1="156.627" x2="129.439" y2="158.561" gradientUnits="userSpaceOnUse">
<stop/>
<stop offset="1" stop-opacity="0"/>
</linearGradient>
<clipPath id="clip0_282_24">
<rect width="210" height="210" fill="white" transform="translate(23 23)"/>
</clipPath>
</defs>
</svg>
