<svg width="256" height="256" viewBox="0 0 256 256" fill="none" xmlns="http://www.w3.org/2000/svg">
<rect width="256" height="256" fill="#171221"/>
<g clip-path="url(#clip0_47_956)">
<path d="M128.059 220.058L164.858 107.031H91.2585L128.059 220.058Z" fill="#E24329"/>
<path d="M128.059 220.058L91.2585 107.03H39.686L128.059 220.058Z" fill="#FC6D26"/>
<path d="M39.686 107.03L28.5034 141.379C28.0059 142.906 28.0057 144.551 28.5028 146.078C28.9999 147.605 29.9688 148.936 31.2705 149.88L128.059 220.059L39.686 107.03Z" fill="#FCA326"/>
<path d="M39.686 107.031H91.2585L69.0956 38.9549C67.955 35.4518 62.9895 35.4526 61.8497 38.9549L39.686 107.031Z" fill="#E24329"/>
<path d="M128.059 220.058L164.858 107.03H216.431L128.059 220.058Z" fill="#FC6D26"/>
<path d="M216.431 107.03L227.614 141.379C228.111 142.906 228.111 144.551 227.614 146.078C227.117 147.605 226.148 148.936 224.846 149.88L128.059 220.059L216.431 107.03Z" fill="#FCA326"/>
<path d="M216.431 107.031H164.858L187.022 38.9549C188.162 35.4518 193.128 35.4526 194.268 38.9549L216.431 107.031Z" fill="#E24329"/>
</g>
<defs>
<clipPath id="clip0_47_956">
<rect width="200" height="184" fill="white" transform="translate(28 36)"/>
</clipPath>
</defs>
</svg>
