<svg width="256" height="256" viewBox="0 0 256 256" fill="none" xmlns="http://www.w3.org/2000/svg">
<rect width="256" height="256" fill="#FFAFF3"/>
<g clip-path="url(#clip0_155_563)">
<path d="M118.55 41.5377C122.698 34.1678 133.301 34.1678 137.45 41.5377L159.192 80.1653C161.882 84.9449 166.515 88.3143 171.882 89.3988L215.287 98.1688C223.574 99.843 226.839 109.933 221.127 116.156L191.16 148.799C189.328 150.794 187.946 153.162 187.109 155.741C186.273 158.32 186 161.049 186.311 163.744L191.394 207.791C192.363 216.184 183.796 222.433 176.105 218.908L135.841 200.455C133.38 199.327 130.706 198.743 128 198.743C125.294 198.743 122.62 199.327 120.159 200.455L79.8961 218.908C72.2045 222.432 63.6381 216.184 64.6061 207.791L69.6898 163.744C70.319 158.292 68.5485 152.837 64.841 148.799L34.873 116.156C29.1612 109.934 32.4267 99.8431 40.7133 98.1688L84.1183 89.3988C89.4857 88.3143 94.1183 84.9449 96.8083 80.1653L118.55 41.5377Z" fill="#FFAFF3"/>
<path d="M128 32.1293C122.929 32.1293 117.858 34.6084 115.067 39.567L93.3251 78.1946C91.2053 81.9606 87.5597 84.6128 83.3282 85.4679L39.9231 94.2377C28.7851 96.4882 24.2441 110.5 31.9299 118.872L61.8979 151.515C63.3411 153.086 64.4293 154.95 65.0882 156.981C65.7472 159.012 65.9614 161.161 65.7162 163.283L60.6326 207.33C59.3284 218.631 71.2197 227.293 81.5587 222.556L81.5588 222.556L121.823 204.103L121.823 204.102C123.762 203.213 125.869 202.753 128.001 202.753C130.132 202.753 132.239 203.213 134.178 204.102L134.178 204.103L174.442 222.556C184.78 227.294 196.672 218.631 195.367 207.33L195.367 207.33L190.284 163.283V163.282C190.039 161.161 190.253 159.011 190.912 156.981C191.571 154.95 192.659 153.085 194.103 151.515L194.103 151.514L224.07 118.87V118.87C231.756 110.498 227.215 96.4868 216.077 94.2359L172.672 85.4661C168.441 84.6111 164.794 81.9588 162.675 78.1931L140.933 39.5645C138.142 34.6061 133.07 32.127 127.999 32.127M127.999 39.8898C130.304 39.8898 132.608 41.0955 133.966 43.507L155.708 82.1346C158.968 87.9281 164.588 92.0147 171.091 93.3287L214.496 102.099C219.931 103.197 221.921 109.366 218.183 113.438L188.216 146.082C183.722 150.976 181.575 157.596 182.337 164.203L187.42 208.251C188.053 213.736 182.811 217.571 177.767 215.26H177.767L137.503 196.807C131.47 194.041 124.528 194.041 118.494 196.807L78.2312 215.26C73.1866 217.571 67.9452 213.736 68.5777 208.251L73.6615 164.204C74.4242 157.595 72.2755 150.976 67.7822 146.082L37.8142 113.439C34.0764 109.367 36.0666 103.198 41.5016 102.099L84.9066 93.3288C91.4098 92.0148 97.0296 87.9283 100.291 82.1347V82.1345L122.033 43.5069C123.39 41.0956 125.694 39.8899 127.999 39.8899" fill="#151515"/>
<path d="M95.8571 140.851C100.196 140.851 103.714 137.324 103.714 132.973C103.714 128.623 100.196 125.096 95.8571 125.096C91.5177 125.096 88 128.623 88 132.973C88 137.324 91.5177 140.851 95.8571 140.851Z" fill="#151515"/>
<path d="M160.14 140.851C164.479 140.851 167.997 137.324 167.997 132.973C167.997 128.623 164.479 125.096 160.14 125.096C155.8 125.096 152.283 128.623 152.283 132.973C152.283 137.324 155.8 140.851 160.14 140.851Z" fill="#151515"/>
<path d="M120.925 143.499C120.409 143.6 119.919 143.802 119.481 144.094C119.044 144.385 118.668 144.76 118.375 145.198C118.082 145.635 117.878 146.126 117.774 146.642C117.67 147.158 117.669 147.69 117.77 148.207C118.034 149.554 118.561 150.836 119.319 151.98L119.319 151.98L119.319 151.981C120.077 153.124 121.053 154.106 122.191 154.872L122.191 154.872C123.328 155.637 124.603 156.17 125.945 156.441L125.946 156.442L125.948 156.442C127.29 156.712 128.671 156.715 130.014 156.45H130.015C131.358 156.186 132.637 155.658 133.777 154.898L133.778 154.898L133.779 154.898C134.918 154.137 135.897 153.16 136.66 152.02C137.425 150.88 137.957 149.599 138.227 148.252C138.435 147.209 138.222 146.126 137.634 145.24C137.047 144.355 136.132 143.74 135.092 143.531C134.577 143.427 134.046 143.426 133.531 143.528C133.016 143.63 132.525 143.833 132.088 144.125C131.651 144.417 131.275 144.792 130.983 145.229C130.69 145.667 130.487 146.158 130.383 146.674C130.321 146.986 130.197 147.282 130.021 147.546L130.019 147.548L130.018 147.55C129.841 147.815 129.613 148.042 129.348 148.219C129.083 148.396 128.786 148.518 128.473 148.58L128.472 148.58L128.471 148.58C128.158 148.642 127.837 148.641 127.524 148.578C127.212 148.515 126.915 148.391 126.65 148.213L126.649 148.212L126.648 148.211C126.384 148.033 126.157 147.805 125.981 147.54L125.981 147.54L125.981 147.539C125.804 147.273 125.682 146.975 125.621 146.661C125.519 146.144 125.318 145.652 125.027 145.214C124.736 144.775 124.362 144.398 123.926 144.105C123.49 143.811 123 143.606 122.485 143.502C121.97 143.398 121.44 143.397 120.925 143.499Z" fill="#151515"/>
</g>
<defs>
<clipPath id="clip0_155_563">
<rect width="200" height="192" fill="white" transform="translate(28 32)"/>
</clipPath>
</defs>
</svg>
