<svg width="256" height="256" viewBox="0 0 256 256" fill="none" xmlns="http://www.w3.org/2000/svg">
<g clip-path="url(#clip0_1_10)">
<rect width="256" height="256" fill="white"/>
<rect width="256" height="256" fill="#00ACD7"/>
<path fill-rule="evenodd" clip-rule="evenodd" d="M41.3028 112.954C40.9041 112.954 40.8057 112.754 41.0042 112.457L43.0927 109.771C43.2896 109.472 43.7884 109.274 44.1854 109.274H79.6836C80.0823 109.274 80.1807 109.572 79.9822 109.871L78.2923 112.457C78.0938 112.754 77.5967 113.052 77.2981 113.052L41.3028 112.954ZM26.2878 122.1C25.8908 122.1 25.7907 121.903 25.9892 121.603L28.0777 118.919C28.2762 118.62 28.7734 118.422 29.172 118.422H74.5123C74.9094 118.422 75.1095 118.721 75.0095 119.019L74.2137 121.405C74.1153 121.803 73.7166 122.002 73.3196 122.002L26.2878 122.1ZM50.3492 131.248C49.9522 131.248 49.8537 130.95 50.0523 130.651L51.4435 128.166C51.6437 127.867 52.0407 127.57 52.4394 127.57H72.3237C72.7224 127.57 72.9209 127.867 72.9209 128.266L72.7241 130.651C72.7241 131.05 72.3254 131.348 72.0268 131.348L50.3492 131.248ZM153.561 111.164C147.295 112.755 143.02 113.948 136.856 115.538C135.363 115.936 135.265 116.035 133.972 114.544C132.481 112.854 131.386 111.759 129.299 110.765C123.034 107.684 116.968 108.578 111.302 112.258C104.541 116.632 101.061 123.094 101.159 131.148C101.258 139.104 106.728 145.666 114.583 146.76C121.344 147.655 127.012 145.268 131.486 140.198C132.38 139.104 133.176 137.911 134.17 136.518H114.98C112.893 136.518 112.396 135.225 113.092 133.535C114.384 130.453 116.77 125.283 118.161 122.697C118.461 122.1 119.157 121.106 120.648 121.106H156.841C156.644 123.792 156.644 126.476 156.245 129.162C155.151 136.32 152.467 142.882 148.091 148.649C140.931 158.096 131.586 163.961 119.753 165.552C110.009 166.845 100.961 164.955 93.0071 158.99C85.6489 153.421 81.4735 146.063 80.3792 136.917C79.0864 126.079 82.2676 116.333 88.8301 107.783C95.8897 98.536 105.236 92.6691 116.671 90.5806C126.018 88.8907 134.966 89.985 143.02 95.4532C148.29 98.933 152.068 103.706 154.554 109.472C155.151 110.368 154.754 110.865 153.559 111.162L153.561 111.164Z" fill="white"/>
<path d="M186.472 166.149C177.424 165.949 169.17 163.365 162.21 157.398C156.343 152.329 152.665 145.865 151.472 138.208C149.683 126.973 152.764 117.029 159.526 108.181C166.784 98.6344 175.534 93.6633 187.368 91.5748C197.508 89.7865 207.055 90.7808 215.705 96.646C223.56 102.016 228.431 109.274 229.724 118.819C231.414 132.243 227.537 143.181 218.289 152.527C211.726 159.188 203.672 163.365 194.426 165.254C191.742 165.751 189.056 165.851 186.472 166.149ZM210.136 125.979C210.038 124.686 210.038 123.692 209.838 122.697C208.049 112.854 199 107.285 189.555 109.474C180.306 111.561 174.341 117.428 172.154 126.774C170.364 134.53 174.143 142.385 181.301 145.566C186.77 147.953 192.239 147.655 197.508 144.971C205.364 140.894 209.639 134.53 210.136 125.979Z" fill="white"/>
</g>
<defs>
<clipPath id="clip0_1_10">
<rect width="256" height="256" fill="white"/>
</clipPath>
</defs>
</svg>
