<svg width="256" height="256" viewBox="0 0 256 256" fill="none" xmlns="http://www.w3.org/2000/svg">
<rect width="256" height="256" fill="#232932"/>
<g clip-path="url(#clip0_241_27)">
<path d="M128 216.642C135.73 216.642 141.992 210.377 141.992 202.642V81.314H114.008V202.642C114.008 210.377 120.27 216.642 128 216.642Z" fill="#F9AB00"/>
<path d="M183.747 125.587C168.659 110.503 146.12 107.446 128 116.406L187.898 176.336C190.37 178.808 194.626 177.829 195.675 174.503C200.945 157.809 196.97 138.828 183.747 125.587Z" fill="#5BB974"/>
<path d="M72.2532 125.587C87.3415 110.503 109.881 107.446 128 116.406L68.1024 176.336C65.6305 178.808 61.3743 177.829 60.3251 174.503C55.0548 157.809 59.0305 138.828 72.2532 125.587Z" fill="#129EAF"/>
<path d="M179.305 79.0747C155.471 79.0747 135.241 94.7079 128 116.407H222.727C226.609 116.407 229.198 112.3 227.437 108.835C218.435 91.1607 200.269 79.0747 179.305 79.0747Z" fill="#AF5CF7"/>
<path d="M137.899 53.7122C121.039 70.5812 117.786 95.932 128 116.406L194.987 49.3842C197.739 46.6311 196.666 41.8943 192.97 40.6929C174.104 34.5678 152.72 38.8849 137.899 53.7122Z" fill="#FF8BCB"/>
<path d="M118.101 53.7122C134.961 70.5812 138.214 95.932 128 116.406L61.0132 49.3842C58.2609 46.6311 59.3335 41.8943 63.0304 40.6929C81.896 34.5678 103.28 38.8849 118.101 53.7122Z" fill="#FA7B17"/>
<path d="M76.6954 79.0747C100.529 79.0747 120.759 94.7079 128 116.407H33.2735C29.3907 116.407 26.8024 112.3 28.5626 108.835C37.5657 91.1607 55.7321 79.0747 76.6954 79.0747Z" fill="#4285F4"/>
</g>
<defs>
<clipPath id="clip0_241_27">
<rect width="200" height="179" fill="white" transform="translate(28 38)"/>
</clipPath>
</defs>
</svg>
