<svg width="256" height="256" viewBox="0 0 256 256" fill="none" xmlns="http://www.w3.org/2000/svg">
<rect width="256" height="256" fill="#E10098"/>
<path fill-rule="evenodd" clip-rule="evenodd" d="M128 41.8062L202.646 84.903V171.097L128 214.194L53.354 171.097V84.903L128 41.8062ZM61.7294 89.7386V153.05L116.559 58.0828L61.7294 89.7386ZM128 55.0172L64.795 164.491H191.205L128 55.0172ZM182.83 172.867H73.1704L128 204.523L182.83 172.867ZM194.271 153.05L139.441 58.0828L194.271 89.7386V153.05Z" fill="white"/>
<path d="M128 64.282C137.742 64.282 145.64 56.3843 145.64 46.642C145.64 36.8996 137.742 29.002 128 29.002C118.258 29.002 110.36 36.8996 110.36 46.642C110.36 56.3843 118.258 64.282 128 64.282Z" fill="white"/>
<path d="M198.458 104.961C208.201 104.961 216.098 97.0635 216.098 87.3212C216.098 77.5788 208.201 69.6812 198.458 69.6812C188.716 69.6812 180.818 77.5788 180.818 87.3212C180.818 97.0635 188.716 104.961 198.458 104.961Z" fill="white"/>
<path d="M198.458 186.319C208.201 186.319 216.098 178.421 216.098 168.679C216.098 158.937 208.201 151.039 198.458 151.039C188.716 151.039 180.818 158.937 180.818 168.679C180.818 178.421 188.716 186.319 198.458 186.319Z" fill="white"/>
<path d="M128 226.998C137.742 226.998 145.64 219.101 145.64 209.358C145.64 199.616 137.742 191.718 128 191.718C118.258 191.718 110.36 199.616 110.36 209.358C110.36 219.101 118.258 226.998 128 226.998Z" fill="white"/>
<path d="M57.5316 186.319C67.2739 186.319 75.1716 178.421 75.1716 168.679C75.1716 158.937 67.2739 151.039 57.5316 151.039C47.7893 151.039 39.8916 158.937 39.8916 168.679C39.8916 178.421 47.7893 186.319 57.5316 186.319Z" fill="white"/>
<path d="M57.5316 104.961C67.2739 104.961 75.1716 97.0635 75.1716 87.3212C75.1716 77.5788 67.2739 69.6812 57.5316 69.6812C47.7893 69.6812 39.8916 77.5788 39.8916 87.3212C39.8916 97.0635 47.7893 104.961 57.5316 104.961Z" fill="white"/>
</svg>
