<svg width="256" height="256" viewBox="0 0 256 256" fill="none" xmlns="http://www.w3.org/2000/svg">
<rect width="256" height="256" fill="#242932"/>
<path fill-rule="evenodd" clip-rule="evenodd" d="M105.25 155.417L171.733 106.275C174.992 103.858 179.65 104.8 181.208 108.542C189.375 128.283 185.725 152 169.458 168.283C153.2 184.567 130.567 188.133 109.883 180L87.2917 190.475C119.7 212.65 159.05 207.167 183.642 182.533C203.15 163 209.192 136.375 203.542 112.367L203.592 112.425C195.4 77.1584 205.608 63.0584 226.508 34.2334C227.008 33.5501 227.508 32.8667 228 32.1667L200.492 59.7084V59.6251L105.225 155.433M91.525 167.358C68.2583 145.108 72.275 110.683 92.1167 90.8251C106.792 76.1334 130.842 70.1334 151.833 78.9501L174.375 68.5334C169.69 65.0869 164.564 62.2841 159.133 60.2001C145.482 54.6126 130.482 53.1867 116.022 56.1018C101.562 59.017 88.2872 66.1429 77.8667 76.5834C56.7583 97.7167 50.1167 130.217 61.5167 157.95C70.0333 178.675 56.075 193.333 42.0167 208.133C37.025 213.383 32.025 218.625 28 224.175L91.5 167.383" fill="white"/>
</svg>
