<svg width="256" height="256" viewBox="0 0 256 256" fill="none" xmlns="http://www.w3.org/2000/svg">
<rect width="256" height="256" fill="#F54F35"/>
<path d="M173.657 44.4412L176.736 46.9074C187.202 56.2663 194.134 69.5746 196.405 83.3825C196.563 86.3404 196.646 89.3016 196.667 92.2644L196.716 97.5328L196.735 103.183L196.763 109.045C196.779 113.137 196.789 117.229 196.795 121.32C196.812 127.55 196.862 133.781 196.912 140.013C196.924 143.996 196.932 147.98 196.938 151.961L197 157.571C196.946 176.582 191.519 192.991 178.354 207.135C170.958 213.998 163.49 219.096 154.158 222.922L150.279 224.634C135.208 230.078 117.294 228.523 102.541 222.801C94.3905 218.939 87.6633 214.412 81.037 208.319C87.0134 200.976 93.0775 194.7 100.536 188.849L105.513 192.702C114.567 199.124 123.606 201.157 134.659 200.207C145.968 197.961 154.897 192.902 162.282 183.981C169.065 172.974 169.741 164.15 169.645 151.377L169.664 145.742C169.669 141.825 169.656 137.91 169.628 133.993C169.596 128.022 169.628 122.051 169.671 116.08C169.666 112.262 169.658 108.446 169.645 104.628L169.685 99.2544C169.526 86.2804 166.871 77.8204 158.829 67.6632C147.803 58.8073 137.535 54.3404 123.221 55.0202C111.315 56.9478 101.646 62.6462 94.3352 72.2209C88.3036 81.7794 85.6842 91.6089 87.5366 102.853C91.0968 115.099 95.692 125.485 107.035 132.059C116.538 137.026 124.734 137.775 135.371 138.043L139.911 138.21C143.576 138.343 147.242 138.449 150.908 138.549V164.51C123.801 165.602 102.786 165.571 81.2775 146.909C67.8232 133.448 59.6045 115.188 59 96.1601C59.6402 80.1455 65.3859 67.1261 74.5374 54.1765L77.2802 50.0179C103.295 22.6389 144.49 20.8102 173.657 44.4412Z" fill="#FEFBFB"/>
</svg>
