<svg width="256" height="256" viewBox="0 0 256 256" fill="none" xmlns="http://www.w3.org/2000/svg">
<g clip-path="url(#clip0_17_326)">
<rect width="256" height="256" fill="white"/>
<rect width="256" height="256" fill="#254C5A"/>
<path d="M77.2916 91.2402L68.7866 99.8076L77.3556 108.313L85.859 99.7436L77.2916 91.2402Z" fill="url(#paint0_linear_17_326)"/>
<path d="M37.4998 85.3931L23 100.003L37.6623 114.503L52.1063 99.8946L37.4998 85.3931Z" fill="url(#paint1_linear_17_326)"/>
<path d="M45.6208 91.1187L38.1395 91.1482L29.3589 99.9944L38.2035 108.775L45.6864 108.747L37.8409 100.962L76.5908 100.818L73.1947 104.237L76.9354 104.224L81.3257 99.8008L76.9026 95.4105L73.1619 95.4253L76.5826 98.8197L37.8327 98.9625L45.6208 91.1187ZM212.477 94.9315C208.352 94.9315 204.526 95.6632 200.999 97.1266C195.71 99.3218 194.421 100.611 191.835 103.197C189.249 105.781 187.226 108.849 185.765 112.401C184.301 115.952 183.57 119.843 183.571 124.072C183.57 128.304 184.301 132.196 185.763 135.747C187.225 139.298 189.249 142.366 191.835 144.951C194.419 147.538 197.474 149.561 200.999 151.021C204.525 152.482 208.351 153.214 212.477 153.215C214.774 153.215 216.954 152.954 219.017 152.432C221.012 151.935 222.944 151.212 224.775 150.278C226.491 149.406 228.084 148.313 229.515 147.026C230.838 145.845 232.009 144.503 233 143.031L228.378 139.742C227.333 141.361 226.197 142.705 224.972 143.776C223.797 144.811 222.477 145.669 221.054 146.322C219.67 146.949 218.26 147.393 216.825 147.653C215.39 147.912 213.935 148.043 212.477 148.045C208.925 148.045 205.739 147.392 202.919 146.086C200.098 144.781 197.709 143.031 195.751 140.836C193.793 138.644 192.292 136.099 191.246 133.201C190.197 130.272 189.668 127.183 189.681 124.072C189.681 120.888 190.202 117.847 191.246 114.947C192.292 112.049 193.793 109.502 195.751 107.308C197.709 105.114 200.098 103.365 202.919 102.06C205.739 100.755 208.925 100.103 212.477 100.103C213.937 100.103 215.4 100.312 216.864 100.729C218.324 101.148 219.695 101.697 220.976 102.375C222.256 103.053 223.392 103.836 224.383 104.724C225.375 105.612 226.159 106.5 226.734 107.387L231.668 103.706C229.213 100.573 226.263 98.327 222.816 96.9675C219.371 95.6112 215.925 94.9315 212.477 94.9315ZM95.1283 96.3424V151.805H100.769V126.031H110.17L125.367 151.805H132.261L116.279 125.483C120.874 125.065 124.387 123.538 126.817 120.901C129.245 118.265 130.459 115.014 130.459 111.149C130.459 106.188 128.827 102.479 125.563 100.024C122.3 97.5685 117.847 96.3413 112.206 96.3424H95.1283ZM141.973 96.3424V151.805H147.615V126.031H158.112C163.751 126.031 168.203 124.791 171.467 122.31C174.73 119.83 176.362 116.109 176.362 111.149C176.361 103.707 174.731 102.48 171.468 100.024C168.203 97.5696 163.751 96.3424 158.112 96.3424H141.973ZM100.769 101.514H110.796C113.302 101.514 115.43 101.761 117.18 102.255C118.93 102.753 120.327 103.445 121.372 104.332C122.416 105.221 123.173 106.253 123.642 107.426C124.113 108.602 124.348 109.843 124.348 111.149C124.348 112.506 124.113 113.772 123.642 114.947C123.159 116.143 122.377 117.194 121.372 118.002C120.326 118.864 118.929 119.556 117.18 120.079C115.43 120.601 113.302 120.862 110.796 120.862H100.769V101.514ZM147.615 101.514H156.701C159.207 101.514 161.335 101.761 163.085 102.255C164.835 102.753 166.232 103.445 167.276 104.332C168.32 105.221 169.077 106.253 169.549 107.426C170.023 108.61 170.262 109.874 170.254 111.149C170.254 112.506 170.019 113.772 169.549 114.947C169.065 116.143 168.282 117.195 167.276 118.002C166.231 118.864 164.833 119.556 163.085 120.079C161.335 120.601 159.207 120.862 156.701 120.862H147.615V101.514ZM60.1912 114.202C57.4754 114.202 54.9816 114.686 52.7099 115.653C50.4962 116.582 48.4966 117.956 46.8348 119.688C45.1749 121.437 43.8591 123.482 42.9564 125.718C42.0158 128.016 41.5454 130.497 41.5454 133.161C41.5454 135.826 42.042 138.306 43.0351 140.603C43.9786 142.83 45.3639 144.842 47.1072 146.518C48.8659 148.185 50.9268 149.501 53.1791 150.394C55.5033 151.335 57.9971 151.805 60.6604 151.805C63.2747 151.815 65.8625 151.282 68.2597 150.239C70.6616 149.194 72.6982 147.418 74.3694 144.911H74.5253V151.492C74.5253 153.476 74.2781 155.343 73.7837 157.093C73.3182 158.78 72.4889 160.344 71.354 161.675C70.2307 162.98 68.7552 164.012 66.9276 164.771C65.0988 165.526 62.879 165.903 60.2683 165.903C57.2922 165.903 54.5895 165.291 52.1603 164.066C49.7322 162.839 47.7607 161.206 46.2458 159.168L42.4068 163.242C44.7583 165.748 47.3702 167.602 50.2424 168.804C53.1146 170.005 56.3783 170.605 60.0337 170.605C64.1582 170.605 67.5007 169.979 70.0612 168.727C72.6205 167.472 74.6183 165.905 76.0544 164.026C77.4637 162.202 78.453 160.089 78.9517 157.838C79.4483 155.591 79.6965 153.476 79.6965 151.492V115.142H74.5253V121.254H74.3694C73.326 119.843 72.2033 118.681 71.0012 117.767C69.8803 116.902 68.657 116.179 67.359 115.613C66.1786 115.104 64.9423 114.736 63.6758 114.516C62.5248 114.316 61.3593 114.211 60.1912 114.202ZM60.8179 118.903C62.9594 118.903 64.8915 119.282 66.6142 120.04C68.3379 120.796 69.8003 121.815 71.0012 123.094C72.2063 124.383 73.1393 125.901 73.7444 127.559C74.3797 129.304 74.6981 131.148 74.6844 133.005C74.7347 135.146 74.4077 137.077 73.7033 138.8C73.0309 140.477 72.002 141.988 70.6879 143.228C69.3796 144.455 67.8518 145.425 66.1844 146.086C64.4777 146.768 62.6555 147.113 60.8179 147.103C58.8841 147.103 57.0953 146.726 55.4514 145.971C53.8337 145.236 52.3714 144.199 51.1431 142.915C49.9052 141.621 48.9218 140.106 48.2441 138.449C47.5345 136.722 47.1749 134.871 47.1859 133.004C47.1859 131.072 47.5387 129.257 48.2441 127.559C48.9222 125.902 49.9056 124.389 51.1431 123.096C52.374 121.815 53.8357 120.778 55.4514 120.04C57.0964 119.283 58.8847 118.904 60.8162 118.903H60.8179Z" fill="white"/>
</g>
<defs>
<linearGradient id="paint0_linear_17_326" x1="68.7879" y1="108.311" x2="85.8601" y2="107.508" gradientUnits="userSpaceOnUse">
<stop stop-color="#00B5B2"/>
<stop offset="0.13" stop-color="#00B9B6"/>
<stop offset="0.275" stop-color="#1CBCBA"/>
<stop offset="0.486" stop-color="#44C1BF"/>
<stop offset="0.646" stop-color="#57C4C3"/>
<stop offset="0.79" stop-color="#63C7C6"/>
<stop offset="0.901" stop-color="#6CC9C8"/>
<stop offset="1" stop-color="#72CBCA"/>
</linearGradient>
<linearGradient id="paint1_linear_17_326" x1="23.0001" y1="100.001" x2="52.1066" y2="102.994" gradientUnits="userSpaceOnUse">
<stop stop-color="#71CACA"/>
<stop offset="0.122" stop-color="#66C7C7"/>
<stop offset="0.243" stop-color="#57C4C3"/>
<stop offset="0.4" stop-color="#34BEBD"/>
<stop offset="0.52" stop-color="#00BAB7"/>
<stop offset="0.595" stop-color="#00B6B3"/>
<stop offset="0.679" stop-color="#00B2AE"/>
<stop offset="1" stop-color="#00B0AD"/>
</linearGradient>
<clipPath id="clip0_17_326">
<rect width="256" height="256" fill="white"/>
</clipPath>
</defs>
</svg>
