<svg width="256" height="256" viewBox="0 0 256 256" fill="none" xmlns="http://www.w3.org/2000/svg">
<g clip-path="url(#clip0_17_326)">
<rect width="256" height="256" fill="white"/>
<rect width="256" height="256" fill="#254C5A"/>
<g clip-path="url(#clip1_17_326)">
<path d="M77.2916 91.2402L68.7866 99.8075L77.3556 108.313L85.859 99.7435L77.2916 91.2402Z" fill="url(#paint0_linear_17_326)"/>
<path d="M37.4998 85.3929L23 100.003L37.6623 114.503L52.1063 99.8944L37.4998 85.3929Z" fill="url(#paint1_linear_17_326)"/>
<path d="M45.621 91.1188L38.1398 91.1483L29.3591 99.9946L38.2037 108.775L45.6866 108.747L37.8412 100.963L76.5911 100.818L73.195 104.237L76.9356 104.224L81.3259 99.801L76.9028 95.4107L73.1622 95.4254L76.5829 98.8199L37.833 98.9626L45.621 91.1188ZM212.477 94.9316C208.352 94.9316 204.526 95.6633 201 97.1267C195.71 99.3219 194.421 100.611 191.835 103.197C189.25 105.782 187.226 108.85 185.765 112.401C184.301 115.952 183.57 119.843 183.571 124.072C183.57 128.304 184.301 132.196 185.763 135.747C187.226 139.298 189.25 142.366 191.835 144.951C194.42 147.538 197.475 149.561 201 151.021C204.525 152.483 208.351 153.214 212.477 153.215C214.774 153.215 216.954 152.954 219.017 152.432C221.012 151.935 222.944 151.212 224.776 150.278C226.491 149.406 228.085 148.313 229.515 147.026C230.839 145.845 232.009 144.503 233 143.031L228.378 139.742C227.333 141.361 226.197 142.705 224.972 143.776C223.798 144.811 222.478 145.669 221.055 146.323C219.67 146.949 218.26 147.393 216.825 147.653C215.39 147.912 213.935 148.044 212.477 148.045C208.925 148.045 205.739 147.392 202.919 146.086C200.098 144.781 197.709 143.031 195.751 140.836C193.794 138.644 192.292 136.099 191.246 133.201C190.197 130.272 189.668 127.183 189.681 124.072C189.681 120.888 190.203 117.847 191.246 114.947C192.292 112.049 193.794 109.503 195.751 107.308C197.709 105.114 200.098 103.365 202.919 102.06C205.739 100.755 208.925 100.103 212.477 100.103C213.938 100.103 215.4 100.312 216.865 100.73C218.325 101.148 219.695 101.697 220.976 102.375C222.257 103.053 223.393 103.836 224.384 104.724C225.376 105.613 226.159 106.5 226.735 107.387L231.668 103.706C229.214 100.573 226.263 98.3271 222.817 96.9676C219.371 95.6114 215.925 94.9316 212.477 94.9316ZM95.1285 96.3425V151.805H100.769V126.031H110.17L125.367 151.805H132.261L116.279 125.483C120.874 125.065 124.387 123.538 126.817 120.901C129.245 118.265 130.459 115.014 130.459 111.149C130.459 106.188 128.827 102.48 125.564 100.024C122.3 97.5686 117.847 96.3414 112.206 96.3425H95.1285ZM141.973 96.3425V151.805H147.615V126.031H158.112C163.751 126.031 168.203 124.791 171.467 122.31C174.731 119.83 176.362 116.109 176.362 111.149C176.361 103.707 174.732 102.48 171.468 100.024C168.204 97.5697 163.751 96.3425 158.112 96.3425H141.973ZM100.769 101.514H110.796C113.302 101.514 115.43 101.761 117.18 102.255C118.93 102.753 120.327 103.445 121.372 104.332C122.416 105.222 123.173 106.253 123.643 107.427C124.113 108.602 124.348 109.843 124.348 111.149C124.348 112.507 124.113 113.773 123.643 114.947C123.159 116.143 122.377 117.194 121.372 118.002C120.326 118.864 118.929 119.556 117.18 120.079C115.43 120.601 113.302 120.862 110.796 120.862H100.769V101.514ZM147.615 101.514H156.701C159.207 101.514 161.335 101.761 163.085 102.255C164.835 102.753 166.232 103.445 167.277 104.332C168.32 105.222 169.077 106.253 169.549 107.427C170.023 108.61 170.262 109.874 170.254 111.149C170.254 112.507 170.019 113.773 169.549 114.947C169.065 116.143 168.283 117.195 167.277 118.002C166.231 118.864 164.834 119.556 163.085 120.079C161.335 120.601 159.207 120.862 156.701 120.862H147.615V101.514ZM60.1914 114.202C57.4756 114.202 54.9819 114.686 52.7101 115.653C50.4964 116.582 48.4968 117.956 46.8351 119.689C45.1751 121.437 43.8593 123.482 42.9566 125.718C42.016 128.016 41.5457 130.497 41.5457 133.161C41.5457 135.826 42.0423 138.306 43.0354 140.603C43.9789 142.83 45.3641 144.842 47.1074 146.518C48.8661 148.185 50.927 149.501 53.1794 150.395C55.5036 151.335 57.9973 151.805 60.6606 151.805C63.2749 151.815 65.8628 151.282 68.26 150.239C70.6619 149.194 72.6984 147.418 74.3697 144.912H74.5255V151.492C74.5255 153.476 74.2784 155.343 73.784 157.093C73.3185 158.78 72.4891 160.344 71.3542 161.675C70.2309 162.98 68.7555 164.012 66.9278 164.771C65.0991 165.526 62.8793 165.903 60.2685 165.903C57.2924 165.903 54.5898 165.291 52.1605 164.066C49.7324 162.839 47.7609 161.206 46.2461 159.169L42.407 163.242C44.7586 165.748 47.3705 167.602 50.2426 168.804C53.1148 170.005 56.3786 170.605 60.0339 170.605C64.1584 170.605 67.5009 169.979 70.0614 168.727C72.6208 167.472 74.6185 165.906 76.0546 164.027C77.4639 162.202 78.4532 160.089 78.9519 157.838C79.4485 155.592 79.6968 153.476 79.6968 151.492V115.142H74.5255V121.254H74.3697C73.3262 119.843 72.2035 118.681 71.0015 117.767C69.8806 116.902 68.6573 116.179 67.3593 115.613C66.1788 115.104 64.9426 114.736 63.6761 114.516C62.525 114.317 61.3595 114.211 60.1914 114.202ZM60.8181 118.903C62.9597 118.903 64.8918 119.282 66.6144 120.04C68.3382 120.797 69.8005 121.815 71.0015 123.095C72.2066 124.383 73.1396 125.901 73.7446 127.559C74.38 129.304 74.6983 131.148 74.6847 133.006C74.735 135.146 74.408 137.078 73.7036 138.8C73.0311 140.477 72.0022 141.988 70.6881 143.228C69.3799 144.455 67.852 145.425 66.1846 146.086C64.4779 146.768 62.6557 147.113 60.8181 147.103C58.8844 147.103 57.0955 146.726 55.4516 145.971C53.8339 145.236 52.3716 144.199 51.1433 142.915C49.9055 141.621 48.922 140.106 48.2444 138.449C47.5348 136.722 47.1751 134.871 47.1862 133.004C47.1862 131.072 47.5389 129.257 48.2444 127.559C48.9224 125.903 49.9058 124.389 51.1433 123.096C52.3742 121.815 53.8359 120.778 55.4516 120.04C57.0966 119.283 58.8849 118.904 60.8165 118.903H60.8181Z" fill="white"/>
</g>
</g>
<defs>
<linearGradient id="paint0_linear_17_326" x1="68.7879" y1="108.311" x2="85.8601" y2="107.508" gradientUnits="userSpaceOnUse">
<stop stop-color="#00B5B2"/>
<stop offset="0.13" stop-color="#00B9B6"/>
<stop offset="0.275" stop-color="#1CBCBA"/>
<stop offset="0.486" stop-color="#44C1BF"/>
<stop offset="0.646" stop-color="#57C4C3"/>
<stop offset="0.79" stop-color="#63C7C6"/>
<stop offset="0.901" stop-color="#6CC9C8"/>
<stop offset="1" stop-color="#72CBCA"/>
</linearGradient>
<linearGradient id="paint1_linear_17_326" x1="23.0001" y1="100.001" x2="52.1066" y2="102.993" gradientUnits="userSpaceOnUse">
<stop stop-color="#71CACA"/>
<stop offset="0.122" stop-color="#66C7C7"/>
<stop offset="0.243" stop-color="#57C4C3"/>
<stop offset="0.4" stop-color="#34BEBD"/>
<stop offset="0.52" stop-color="#00BAB7"/>
<stop offset="0.595" stop-color="#00B6B3"/>
<stop offset="0.679" stop-color="#00B2AE"/>
<stop offset="1" stop-color="#00B0AD"/>
</linearGradient>
<clipPath id="clip0_17_326">
<rect width="256" height="256" fill="white"/>
</clipPath>
<clipPath id="clip1_17_326">
<rect width="210" height="210" fill="white" transform="translate(23 23)"/>
</clipPath>
</defs>
</svg>
