<svg width="256" height="256" viewBox="0 0 256 256" fill="none" xmlns="http://www.w3.org/2000/svg">
<rect width="256" height="256" fill="#232932"/>
<g clip-path="url(#clip0_84_12705)">
<path d="M83.9767 125.884V125.918L81.2237 137.867C81.0752 138.543 80.3991 139.038 79.6205 139.038H76.2938C76.1739 139.038 76.0573 139.077 75.9614 139.149C75.8655 139.221 75.7952 139.322 75.7611 139.437C72.6931 149.845 68.5392 156.998 63.0536 161.292C58.3875 164.95 52.6355 166.655 44.95 166.655C38.0457 166.655 33.3898 164.435 29.4408 160.05C24.2215 154.257 22.0652 144.772 23.3713 133.345C25.7274 111.891 36.8548 90.2433 58.2799 90.2433C64.7976 90.187 69.9144 92.1974 73.4742 96.2104C77.2388 100.457 79.1493 106.849 79.1596 115.218C79.1502 115.585 78.9981 115.934 78.7355 116.19C78.4729 116.446 78.1206 116.59 77.7536 116.591H62.0548C61.7797 116.582 61.5183 116.469 61.3244 116.273C61.1305 116.078 61.0189 115.816 61.0125 115.541C60.8844 109.753 59.1686 106.936 55.7574 106.936C49.7391 106.936 46.1896 115.105 44.3072 119.633C41.6771 125.959 40.3377 132.83 40.6015 139.673C40.727 142.859 41.2392 147.338 44.2637 149.194C46.945 150.839 50.7711 149.748 53.0888 147.927C55.4039 146.103 57.2683 142.951 58.052 140.075C58.1621 139.675 58.1698 139.365 58.0648 139.227C57.9547 139.084 57.6499 139.05 57.4169 139.05H53.3859C53.1725 139.051 52.9616 139.005 52.7678 138.916C52.5741 138.826 52.4022 138.696 52.2642 138.533C52.1583 138.406 52.0831 138.256 52.0444 138.096C52.0058 137.935 52.0048 137.767 52.0414 137.606L54.797 125.636C54.9327 125.024 55.4885 124.56 56.1722 124.478V124.448H82.6271C82.6886 124.448 82.7526 124.448 82.8115 124.461C83.4978 124.55 83.9819 125.188 83.9691 125.884H83.9767Z" fill="#FFFCE1"/>
<g clip-path="url(#clip1_84_12705)">
<path d="M129.524 112.152C129.512 112.517 129.359 112.862 129.097 113.115C128.835 113.368 128.485 113.51 128.12 113.51H113.661C112.714 113.51 111.922 112.741 111.922 111.807C111.922 107.589 110.463 105.535 107.476 105.535C104.49 105.535 102.564 107.369 102.508 110.572C102.444 114.145 104.465 117.392 110.217 122.97C117.789 130.074 120.824 136.366 120.678 144.685C120.44 158.135 111.295 166.829 97.3785 166.829C90.2718 166.829 84.8425 164.929 81.2315 161.18C77.5668 157.372 75.8868 151.784 76.2376 144.572C76.2496 144.207 76.4031 143.862 76.6655 143.608C76.928 143.355 77.2788 143.214 77.6436 143.215H92.5997C92.808 143.218 93.013 143.267 93.1999 143.359C93.3868 143.452 93.5509 143.584 93.6804 143.747C93.7934 143.882 93.8762 144.04 93.923 144.209C93.9698 144.379 93.9797 144.557 93.9519 144.731C93.7854 147.333 94.2387 149.276 95.2631 150.352C95.9187 151.049 96.833 151.402 97.9726 151.402C100.736 151.402 102.354 149.45 102.416 146.05C102.467 143.11 101.538 140.533 96.4719 135.322C89.9286 128.929 84.0614 122.325 84.2432 111.94C84.3508 105.916 86.7428 100.408 90.9812 96.428C95.4629 92.2229 101.591 90 108.706 90C115.833 90.0512 121.234 92.0846 124.76 96.0439C128.1 99.7957 129.706 105.215 129.529 112.152H129.524Z" fill="#FFFCE1"/>
<path d="M174.341 164.299L174.436 92.7632C174.438 92.5841 174.405 92.4062 174.338 92.24C174.271 92.0739 174.172 91.9227 174.046 91.7956C173.919 91.6684 173.769 91.5678 173.603 91.4995C173.438 91.4313 173.26 91.3968 173.081 91.3982H150.703C149.95 91.3982 149.62 92.0462 149.405 92.4738L117.003 163.861V163.874L116.99 163.892C116.632 164.77 117.313 165.71 118.263 165.71H133.906C134.751 165.71 135.312 165.454 135.586 164.921L138.692 157.456C139.074 156.46 139.145 156.368 140.231 156.368H155.177C156.217 156.368 156.237 156.388 156.222 157.405L155.887 164.345C155.884 164.524 155.917 164.702 155.984 164.868C156.05 165.034 156.15 165.185 156.276 165.312C156.402 165.439 156.552 165.54 156.717 165.608C156.882 165.676 157.06 165.711 157.239 165.71H173.042C173.238 165.712 173.432 165.672 173.61 165.591C173.789 165.511 173.947 165.392 174.075 165.244C174.185 165.115 174.265 164.964 174.311 164.801C174.357 164.638 174.367 164.466 174.341 164.299ZM146.657 140.415C146.539 140.416 146.421 140.412 146.303 140.403C146.249 140.398 146.195 140.381 146.148 140.354C146.1 140.327 146.059 140.289 146.027 140.245C145.995 140.2 145.974 140.148 145.964 140.094C145.954 140.04 145.956 139.984 145.97 139.931C146.001 139.829 146.045 139.688 146.109 139.516L157.316 111.786C157.416 111.513 157.533 111.245 157.664 110.985C157.846 110.611 158.066 110.585 158.135 110.862C158.194 111.092 156.849 139.335 156.849 139.335C156.744 140.392 156.696 140.436 155.653 140.523L146.667 140.42H146.647L146.657 140.415Z" fill="#FFFCE1"/>
<path d="M206.22 91.3983H194.339C193.712 91.3983 193.008 91.7312 192.844 92.479L176.31 164.263C176.274 164.425 176.276 164.593 176.315 164.754C176.354 164.915 176.429 165.065 176.536 165.193C176.673 165.355 176.845 165.485 177.038 165.575C177.231 165.664 177.442 165.71 177.655 165.71H192.503C193.302 165.71 193.848 165.318 193.996 164.64L195.799 156.503C195.927 155.868 195.707 155.377 195.138 155.08C194.872 154.942 194.605 154.804 194.339 154.665L191.766 153.325L189.205 151.988L188.214 151.474C188.133 151.433 188.065 151.371 188.019 151.294C187.972 151.217 187.948 151.128 187.95 151.038C187.953 150.905 188.009 150.778 188.104 150.685C188.2 150.592 188.329 150.541 188.462 150.541L196.598 150.577C199.031 150.59 201.467 150.419 203.861 149.978C220.712 146.866 231.904 133.37 232.226 115.005C232.503 99.3322 223.755 91.3906 206.233 91.3906L206.22 91.3983ZM202.176 134.115H201.858C201.144 134.115 201.018 134.039 200.998 134.013C200.985 133.995 205.69 113.338 205.692 113.31C205.813 112.713 205.807 112.37 205.439 112.168C204.967 111.907 198.099 108.285 198.099 108.285C198.019 108.243 197.952 108.18 197.907 108.102C197.861 108.024 197.838 107.935 197.84 107.845C197.844 107.713 197.898 107.588 197.992 107.496C198.087 107.405 198.213 107.353 198.345 107.353H209.206C212.586 107.456 214.471 110.48 214.382 115.646C214.225 124.586 209.974 133.8 202.176 134.115Z" fill="#FFFCE1"/>
</g>
</g>
<defs>
<clipPath id="clip0_84_12705">
<rect width="210" height="76.8293" fill="white" transform="translate(23 90)"/>
</clipPath>
<clipPath id="clip1_84_12705">
<rect width="210" height="76.8293" fill="white" transform="translate(23 90)"/>
</clipPath>
</defs>
</svg>
