<svg width="256" height="256" viewBox="0 0 256 256" fill="none" xmlns="http://www.w3.org/2000/svg">
<rect width="256" height="256" fill="#232932"/>
<g clip-path="url(#clip0_84_12705)">
<path d="M83.9767 125.884V125.918L81.2237 137.867C81.0752 138.543 80.3991 139.038 79.6205 139.038H76.2938C76.1739 139.038 76.0573 139.077 75.9614 139.149C75.8655 139.221 75.7952 139.322 75.7611 139.437C72.6931 149.845 68.5392 156.998 63.0536 161.292C58.3875 164.95 52.6355 166.655 44.95 166.655C38.0457 166.655 33.3898 164.435 29.4408 160.05C24.2215 154.257 22.0652 144.772 23.3713 133.345C25.7274 111.891 36.8548 90.2433 58.2799 90.2433C64.7976 90.187 69.9144 92.1974 73.4742 96.2104C77.2388 100.457 79.1493 106.849 79.1596 115.218C79.1502 115.585 78.9981 115.934 78.7355 116.19C78.4729 116.446 78.1206 116.59 77.7536 116.591H62.0548C61.7797 116.582 61.5183 116.469 61.3244 116.273C61.1305 116.078 61.0189 115.816 61.0125 115.541C60.8844 109.753 59.1686 106.936 55.7574 106.936C49.7391 106.936 46.1896 115.105 44.3072 119.633C41.6771 125.959 40.3377 132.83 40.6015 139.673C40.727 142.859 41.2392 147.338 44.2637 149.194C46.945 150.839 50.7711 149.748 53.0888 147.927C55.4039 146.103 57.2683 142.951 58.052 140.075C58.1621 139.675 58.1698 139.365 58.0648 139.227C57.9547 139.084 57.6499 139.05 57.4169 139.05H53.3859C53.1725 139.051 52.9616 139.005 52.7678 138.916C52.5741 138.826 52.4022 138.696 52.2642 138.533C52.1583 138.406 52.0831 138.256 52.0444 138.096C52.0058 137.935 52.0048 137.767 52.0414 137.606L54.797 125.636C54.9327 125.024 55.4885 124.56 56.1722 124.478V124.448H82.6271C82.6886 124.448 82.7526 124.448 82.8115 124.461C83.4978 124.55 83.9819 125.188 83.9691 125.884H83.9767Z" fill="#FFFCE1"/>
<g clip-path="url(#clip1_84_12705)">
<path d="M129.524 112.152C129.512 112.517 129.359 112.862 129.097 113.115C128.835 113.368 128.485 113.51 128.12 113.51H113.661C112.713 113.51 111.922 112.741 111.922 111.807C111.922 107.589 110.462 105.535 107.476 105.535C104.49 105.535 102.564 107.369 102.508 110.572C102.444 114.145 104.464 117.392 110.216 122.97C117.789 130.074 120.824 136.366 120.678 144.685C120.44 158.135 111.295 166.829 97.3782 166.829C90.2715 166.829 84.8423 164.929 81.2313 161.18C77.5665 157.372 75.8865 151.784 76.2374 144.572C76.2494 144.207 76.4028 143.862 76.6653 143.608C76.9278 143.355 77.2786 143.214 77.6434 143.215H92.5995C92.8078 143.218 93.0128 143.267 93.1997 143.359C93.3865 143.452 93.5507 143.584 93.6802 143.747C93.7932 143.882 93.8759 144.04 93.9228 144.209C93.9696 144.379 93.9794 144.557 93.9517 144.731C93.7852 147.333 94.2385 149.276 95.2629 150.352C95.9185 151.049 96.8328 151.402 97.9724 151.402C100.736 151.402 102.354 149.45 102.416 146.05C102.467 143.11 101.537 140.533 96.4716 135.322C89.9284 128.929 84.0612 122.325 84.243 111.94C84.3506 105.916 86.7425 100.408 90.9809 96.428C95.4626 92.2229 101.591 90 108.705 90C115.833 90.0512 121.234 92.0846 124.76 96.0439C128.1 99.7957 129.705 105.215 129.529 112.152H129.524Z" fill="#FFFCE1"/>
<path d="M174.341 164.299L174.435 92.7635C174.438 92.5843 174.405 92.4064 174.338 92.2403C174.271 92.0741 174.172 91.923 174.045 91.7958C173.919 91.6687 173.769 91.568 173.603 91.4998C173.437 91.4315 173.26 91.3971 173.081 91.3985H150.703C149.95 91.3985 149.62 92.0464 149.404 92.4741L117.003 163.861V163.874L116.99 163.892C116.632 164.77 117.313 165.71 118.263 165.71H133.905C134.751 165.71 135.311 165.454 135.585 164.922L138.692 157.456C139.073 156.46 139.145 156.368 140.231 156.368H155.177C156.217 156.368 156.237 156.388 156.222 157.405L155.886 164.345C155.884 164.524 155.917 164.702 155.983 164.868C156.05 165.034 156.15 165.185 156.275 165.312C156.401 165.439 156.551 165.54 156.717 165.608C156.882 165.677 157.06 165.711 157.238 165.71H173.042C173.238 165.713 173.432 165.672 173.61 165.592C173.788 165.511 173.947 165.393 174.074 165.244C174.184 165.115 174.265 164.964 174.311 164.801C174.357 164.638 174.367 164.467 174.341 164.299ZM146.657 140.416C146.539 140.416 146.421 140.412 146.303 140.403C146.248 140.398 146.195 140.382 146.147 140.354C146.1 140.327 146.058 140.29 146.027 140.245C145.995 140.2 145.973 140.149 145.964 140.094C145.954 140.04 145.956 139.985 145.97 139.932C146.001 139.829 146.044 139.688 146.108 139.517L157.315 111.786C157.416 111.513 157.532 111.245 157.664 110.985C157.845 110.611 158.066 110.585 158.135 110.862C158.194 111.092 156.849 139.335 156.849 139.335C156.744 140.393 156.696 140.436 155.653 140.523L146.667 140.421H146.646L146.657 140.416Z" fill="#FFFCE1"/>
<path d="M206.22 91.3983H194.339C193.712 91.3983 193.008 91.7312 192.844 92.479L176.31 164.263C176.274 164.425 176.276 164.593 176.315 164.754C176.354 164.915 176.429 165.065 176.536 165.193C176.673 165.355 176.845 165.485 177.038 165.575C177.231 165.664 177.442 165.71 177.655 165.71H192.503C193.302 165.71 193.848 165.318 193.996 164.64L195.799 156.503C195.927 155.868 195.707 155.377 195.138 155.08C194.872 154.942 194.605 154.804 194.339 154.665L191.766 153.325L189.205 151.988L188.214 151.474C188.133 151.433 188.065 151.371 188.019 151.294C187.972 151.217 187.948 151.128 187.95 151.038C187.953 150.905 188.009 150.778 188.104 150.685C188.2 150.592 188.329 150.541 188.462 150.541L196.598 150.577C199.031 150.59 201.467 150.419 203.861 149.978C220.712 146.866 231.904 133.37 232.226 115.005C232.503 99.3322 223.755 91.3906 206.233 91.3906L206.22 91.3983ZM202.176 134.115H201.858C201.144 134.115 201.018 134.039 200.998 134.013C200.985 133.995 205.69 113.338 205.692 113.31C205.813 112.713 205.807 112.37 205.439 112.168C204.967 111.907 198.099 108.285 198.099 108.285C198.019 108.243 197.952 108.18 197.907 108.102C197.861 108.024 197.838 107.935 197.84 107.845C197.844 107.713 197.898 107.588 197.992 107.496C198.087 107.405 198.213 107.353 198.345 107.353H209.206C212.586 107.456 214.471 110.48 214.382 115.646C214.225 124.586 209.974 133.8 202.176 134.115Z" fill="#FFFCE1"/>
</g>
</g>
<defs>
<clipPath id="clip0_84_12705">
<rect width="210" height="76.8293" fill="white" transform="translate(23 90)"/>
</clipPath>
<clipPath id="clip1_84_12705">
<rect width="210" height="76.8293" fill="white" transform="translate(23 90)"/>
</clipPath>
</defs>
</svg>
