<svg width="256" height="256" viewBox="0 0 256 256" fill="none" xmlns="http://www.w3.org/2000/svg">
<rect width="256" height="256" fill="#232932"/>
<g clip-path="url(#clip0_178_81)">
<path fill-rule="evenodd" clip-rule="evenodd" d="M41.7385 94.8321C23.4205 113.15 23.4205 142.849 41.7385 161.167L94.8321 214.261C113.15 232.578 142.849 232.578 161.167 214.26L214.261 161.167C232.578 142.849 232.578 113.15 214.26 94.8321L161.167 41.7385C142.849 23.4205 113.15 23.4205 94.8321 41.7385L41.7385 94.8321ZM127.999 160.844C146.138 160.844 160.842 146.14 160.842 128.001C160.842 109.862 146.138 95.1577 127.999 95.1577C109.86 95.1577 95.1557 109.862 95.1557 128.001C95.1557 146.14 109.86 160.844 127.999 160.844Z" fill="#2563EB"/>
</g>
<defs>
<clipPath id="clip0_178_81">
<rect width="200" height="200" fill="white" transform="translate(28 28)"/>
</clipPath>
</defs>
</svg>
