<svg width="256" height="256" viewBox="0 0 256 256" fill="none" xmlns="http://www.w3.org/2000/svg">
<rect width="256" height="256" fill="#232932"/>
<g clip-path="url(#clip0_131_406)">
<path opacity="0.5" d="M153.005 202.995H178.011V228H153.005V202.995Z" fill="url(#paint0_linear_131_406)"/>
<path opacity="0.7" d="M128 202.995H153.005V228H128V202.995Z" fill="url(#paint1_linear_131_406)"/>
<path opacity="0.7" d="M103.005 202.995H128.011V228H103.005V202.995Z" fill="url(#paint2_linear_131_406)"/>
<path opacity="0.5" d="M78 202.995H103.005V228H78V202.995Z" fill="url(#paint3_linear_131_406)"/>
<path opacity="0.7" d="M178 178H202.995V203.005H178V178Z" fill="url(#paint4_linear_131_406)"/>
<path opacity="0.8" d="M153.005 178H178.011V203.005H153.005V178Z" fill="url(#paint5_linear_131_406)"/>
<path d="M128 178H153.005V203.005H128V178Z" fill="url(#paint6_linear_131_406)"/>
<path d="M103.005 178H128.011V203.005H103.005V178Z" fill="url(#paint7_linear_131_406)"/>
<path opacity="0.8" d="M78 178H103.005V203.005H78V178Z" fill="url(#paint8_linear_131_406)"/>
<path opacity="0.7" d="M53.0055 178H78.011V203.005H53.0055V178Z" fill="url(#paint9_linear_131_406)"/>
<path opacity="0.5" d="M202.995 153.005H228V178H202.995V153.005Z" fill="url(#paint10_linear_131_406)"/>
<path opacity="0.8" d="M178 153.005H202.995V178H178V153.005Z" fill="url(#paint11_linear_131_406)"/>
<path d="M153.005 153.005H178.011V178H153.005V153.005ZM128 153.005H153.005V178H128V153.005Z" fill="url(#paint12_linear_131_406)"/>
<path d="M103.005 153.005H128.011V178H103.005V153.005ZM78 153.005H103.005V178H78V153.005Z" fill="url(#paint13_linear_131_406)"/>
<path opacity="0.8" d="M53.0055 153.005H78.011V178H53.0055V153.005Z" fill="url(#paint14_linear_131_406)"/>
<path opacity="0.5" d="M28 153.005H53.0055V178H28V153.005Z" fill="url(#paint15_linear_131_406)"/>
<path opacity="0.7" d="M202.995 128H228V153.005H202.995V128Z" fill="url(#paint16_linear_131_406)"/>
<path d="M178 128H202.995V153.005H178V128Z" fill="url(#paint17_linear_131_406)"/>
<path d="M153.005 128H178.011V153.005H153.005V128ZM128 128H153.005V153.005H128V128Z" fill="url(#paint18_linear_131_406)"/>
<path d="M103.005 128H128.011V153.005H103.005V128ZM78 128H103.005V153.005H78V128Z" fill="url(#paint19_linear_131_406)"/>
<path d="M53.0055 128H78.011V153.005H53.0055V128Z" fill="url(#paint20_linear_131_406)"/>
<path opacity="0.7" d="M28 128H53.0055V153.005H28V128Z" fill="url(#paint21_linear_131_406)"/>
<path opacity="0.7" d="M202.995 103.005H228V128.011H202.995V103.005Z" fill="url(#paint22_linear_131_406)"/>
<path d="M178 103.005H202.995V128.011H178V103.005Z" fill="url(#paint23_linear_131_406)"/>
<path d="M153.005 103.005H178.011V128.011H153.005V103.005ZM128 103.005H153.005V128.011H128V103.005Z" fill="url(#paint24_linear_131_406)"/>
<path d="M103.005 103.005H128.011V128.011H103.005V103.005ZM78 103.005H103.005V128.011H78V103.005Z" fill="url(#paint25_linear_131_406)"/>
<path d="M53.0055 103.005H78.011V128.011H53.0055V103.005Z" fill="url(#paint26_linear_131_406)"/>
<path opacity="0.7" d="M28 103.005H53.0055V128.011H28V103.005Z" fill="url(#paint27_linear_131_406)"/>
<path opacity="0.5" d="M202.995 78H228V103.005H202.995V78Z" fill="url(#paint28_linear_131_406)"/>
<path opacity="0.8" d="M178 78H202.995V103.005H178V78Z" fill="url(#paint29_linear_131_406)"/>
<path d="M153.005 78H178.011V103.005H153.005V78ZM128 78H153.005V103.005H128V78Z" fill="url(#paint30_linear_131_406)"/>
<path d="M103.005 78H128.011V103.005H103.005V78ZM78 78H103.005V103.005H78V78Z" fill="url(#paint31_linear_131_406)"/>
<path opacity="0.8" d="M53.0055 78H78.011V103.005H53.0055V78Z" fill="url(#paint32_linear_131_406)"/>
<path opacity="0.5" d="M28 78H53.0055V103.005H28V78Z" fill="url(#paint33_linear_131_406)"/>
<path opacity="0.7" d="M178 53.0054H202.995V78.0108H178V53.0054Z" fill="url(#paint34_linear_131_406)"/>
<path opacity="0.8" d="M153.005 53.0054H178.011V78.0108H153.005V53.0054Z" fill="url(#paint35_linear_131_406)"/>
<path d="M128 53.0054H153.005V78.0108H128V53.0054Z" fill="url(#paint36_linear_131_406)"/>
<path d="M103.005 53.0054H128.011V78.0108H103.005V53.0054Z" fill="url(#paint37_linear_131_406)"/>
<path opacity="0.8" d="M78 53.0054H103.005V78.0108H78V53.0054Z" fill="url(#paint38_linear_131_406)"/>
<path opacity="0.7" d="M53.0055 53.0054H78.011V78.0108H53.0055V53.0054Z" fill="url(#paint39_linear_131_406)"/>
<path opacity="0.5" d="M153.005 28H178.011V53.0055H153.005V28Z" fill="url(#paint40_linear_131_406)"/>
<path opacity="0.7" d="M128 28H153.005V53.0055H128V28Z" fill="url(#paint41_linear_131_406)"/>
<path opacity="0.7" d="M103.005 28H128.011V53.0055H103.005V28Z" fill="url(#paint42_linear_131_406)"/>
<path opacity="0.5" d="M78 28H103.005V53.0055H78V28Z" fill="url(#paint43_linear_131_406)"/>
<path d="M93.8203 120.063L100.783 104.476C103.323 100.476 102.984 95.5873 100.201 92.8358C99.8294 92.4634 99.4181 92.1333 98.9742 91.8514C98.0204 91.2709 96.9518 90.9049 95.8424 90.7789C94.7331 90.6529 93.6096 90.7699 92.5499 91.1217C90.1429 91.8765 88.0881 93.4728 86.7617 95.6186C86.7617 95.6186 77.2382 117.841 73.6718 127.872C70.1054 137.905 71.5554 156.212 85.2171 169.926C99.714 184.423 120.741 187.767 134.127 177.693C134.691 177.401 135.22 177.046 135.704 176.635L176.973 142.148C178.984 140.465 181.958 137.069 179.28 133.174C176.603 129.28 171.757 131.958 169.757 133.248L145.989 150.53C145.878 150.623 145.75 150.693 145.611 150.735C145.472 150.776 145.327 150.789 145.183 150.772C145.039 150.755 144.9 150.709 144.775 150.636C144.65 150.563 144.541 150.466 144.455 150.349C144.111 149.82 143.948 149.194 143.99 148.564C144.032 147.935 144.277 147.336 144.687 146.857L181.122 115.937C184.296 113.101 184.709 108.983 182.18 106.158C179.651 103.333 175.735 103.471 172.571 106.338L139.767 131.989C139.613 132.116 139.434 132.21 139.242 132.266C139.049 132.321 138.848 132.336 138.649 132.311C138.451 132.285 138.26 132.219 138.088 132.116C137.916 132.013 137.767 131.876 137.651 131.714C137.297 131.365 137.084 130.898 137.053 130.403C137.022 129.907 137.174 129.417 137.481 129.026L174.635 92.9733C176.041 91.6607 176.869 89.8446 176.938 87.9228C177.007 86.001 176.313 84.1299 175.005 82.7194C174.351 82.0429 173.567 81.5065 172.699 81.1427C171.831 80.7789 170.899 80.5953 169.958 80.603C168.008 80.5944 166.133 81.3552 164.741 82.7202L126.826 118.328C125.916 119.238 124.138 118.328 123.926 117.269C123.848 116.884 123.971 116.485 124.254 116.212L153.312 83.1217C154.026 82.4694 154.601 81.6794 155.001 80.7991C155.402 79.9188 155.62 78.9666 155.643 77.9997C155.665 77.0329 155.492 76.0715 155.133 75.1735C154.774 74.2755 154.237 73.4595 153.554 72.7746C152.871 72.0897 152.057 71.5501 151.16 71.1884C150.263 70.8267 149.302 70.6503 148.335 70.6699C147.368 70.6895 146.416 70.9047 145.534 71.3024C144.653 71.7001 143.861 72.2722 143.206 72.9842L99.1218 121.662C97.5453 123.238 95.2171 123.312 94.1062 122.402C93.9321 122.269 93.7864 122.102 93.6775 121.911C93.5687 121.721 93.4989 121.51 93.4723 121.293C93.4457 121.075 93.4627 120.854 93.5225 120.643C93.5822 120.432 93.6835 120.235 93.8203 120.063Z" fill="white"/>
</g>
<defs>
<linearGradient id="paint0_linear_131_406" x1="1402.75" y1="-17355.9" x2="1402.75" y2="2652.76" gradientUnits="userSpaceOnUse">
<stop stop-color="#00D4BF"/>
<stop offset="1" stop-color="#0074BF"/>
</linearGradient>
<linearGradient id="paint1_linear_131_406" x1="1377.75" y1="-17355.9" x2="1377.75" y2="2652.76" gradientUnits="userSpaceOnUse">
<stop stop-color="#00D4BF"/>
<stop offset="1" stop-color="#0074BF"/>
</linearGradient>
<linearGradient id="paint2_linear_131_406" x1="1352.75" y1="-17355.9" x2="1352.75" y2="2652.76" gradientUnits="userSpaceOnUse">
<stop stop-color="#00D4BF"/>
<stop offset="1" stop-color="#0074BF"/>
</linearGradient>
<linearGradient id="paint3_linear_131_406" x1="1327.75" y1="-17355.9" x2="1327.75" y2="2652.76" gradientUnits="userSpaceOnUse">
<stop stop-color="#00D4BF"/>
<stop offset="1" stop-color="#0074BF"/>
</linearGradient>
<linearGradient id="paint4_linear_131_406" x1="1427.73" y1="-14881.4" x2="1427.73" y2="5127.23" gradientUnits="userSpaceOnUse">
<stop stop-color="#00D4BF"/>
<stop offset="1" stop-color="#0074BF"/>
</linearGradient>
<linearGradient id="paint5_linear_131_406" x1="1402.75" y1="-14881.4" x2="1402.75" y2="5127.23" gradientUnits="userSpaceOnUse">
<stop stop-color="#00D4BF"/>
<stop offset="1" stop-color="#0074BF"/>
</linearGradient>
<linearGradient id="paint6_linear_131_406" x1="1377.75" y1="-14881.4" x2="1377.75" y2="5127.23" gradientUnits="userSpaceOnUse">
<stop stop-color="#00D4BF"/>
<stop offset="1" stop-color="#0074BF"/>
</linearGradient>
<linearGradient id="paint7_linear_131_406" x1="1352.75" y1="-14881.4" x2="1352.75" y2="5127.23" gradientUnits="userSpaceOnUse">
<stop stop-color="#00D4BF"/>
<stop offset="1" stop-color="#0074BF"/>
</linearGradient>
<linearGradient id="paint8_linear_131_406" x1="1327.75" y1="-14881.4" x2="1327.75" y2="5127.23" gradientUnits="userSpaceOnUse">
<stop stop-color="#00D4BF"/>
<stop offset="1" stop-color="#0074BF"/>
</linearGradient>
<linearGradient id="paint9_linear_131_406" x1="1302.75" y1="-14881.4" x2="1302.75" y2="5127.23" gradientUnits="userSpaceOnUse">
<stop stop-color="#00D4BF"/>
<stop offset="1" stop-color="#0074BF"/>
</linearGradient>
<linearGradient id="paint10_linear_131_406" x1="1453.79" y1="-12406.7" x2="1453.79" y2="7601.63" gradientUnits="userSpaceOnUse">
<stop stop-color="#00D4BF"/>
<stop offset="1" stop-color="#0074BF"/>
</linearGradient>
<linearGradient id="paint11_linear_131_406" x1="1427.73" y1="-12406.7" x2="1427.73" y2="7601.63" gradientUnits="userSpaceOnUse">
<stop stop-color="#00D4BF"/>
<stop offset="1" stop-color="#0074BF"/>
</linearGradient>
<linearGradient id="paint12_linear_131_406" x1="2627.5" y1="-12406.7" x2="2627.5" y2="7601.63" gradientUnits="userSpaceOnUse">
<stop stop-color="#00D4BF"/>
<stop offset="1" stop-color="#0074BF"/>
</linearGradient>
<linearGradient id="paint13_linear_131_406" x1="2577.5" y1="-12406.7" x2="2577.5" y2="7601.63" gradientUnits="userSpaceOnUse">
<stop stop-color="#00D4BF"/>
<stop offset="1" stop-color="#0074BF"/>
</linearGradient>
<linearGradient id="paint14_linear_131_406" x1="1302.75" y1="-12406.7" x2="1302.75" y2="7601.63" gradientUnits="userSpaceOnUse">
<stop stop-color="#00D4BF"/>
<stop offset="1" stop-color="#0074BF"/>
</linearGradient>
<linearGradient id="paint15_linear_131_406" x1="1277.75" y1="-12406.7" x2="1277.75" y2="7601.63" gradientUnits="userSpaceOnUse">
<stop stop-color="#00D4BF"/>
<stop offset="1" stop-color="#0074BF"/>
</linearGradient>
<linearGradient id="paint16_linear_131_406" x1="1453.79" y1="-9931.33" x2="1453.79" y2="10077.3" gradientUnits="userSpaceOnUse">
<stop stop-color="#00D4BF"/>
<stop offset="1" stop-color="#0074BF"/>
</linearGradient>
<linearGradient id="paint17_linear_131_406" x1="1427.73" y1="-9931.33" x2="1427.73" y2="10077.3" gradientUnits="userSpaceOnUse">
<stop stop-color="#00D4BF"/>
<stop offset="1" stop-color="#0074BF"/>
</linearGradient>
<linearGradient id="paint18_linear_131_406" x1="2627.5" y1="-9931.33" x2="2627.5" y2="10077.3" gradientUnits="userSpaceOnUse">
<stop stop-color="#00D4BF"/>
<stop offset="1" stop-color="#0074BF"/>
</linearGradient>
<linearGradient id="paint19_linear_131_406" x1="2577.5" y1="-9931.33" x2="2577.5" y2="10077.3" gradientUnits="userSpaceOnUse">
<stop stop-color="#00D4BF"/>
<stop offset="1" stop-color="#0074BF"/>
</linearGradient>
<linearGradient id="paint20_linear_131_406" x1="1302.75" y1="-9931.33" x2="1302.75" y2="10077.3" gradientUnits="userSpaceOnUse">
<stop stop-color="#00D4BF"/>
<stop offset="1" stop-color="#0074BF"/>
</linearGradient>
<linearGradient id="paint21_linear_131_406" x1="1277.75" y1="-9931.33" x2="1277.75" y2="10077.3" gradientUnits="userSpaceOnUse">
<stop stop-color="#00D4BF"/>
<stop offset="1" stop-color="#0074BF"/>
</linearGradient>
<linearGradient id="paint22_linear_131_406" x1="1453.79" y1="-7456.85" x2="1453.79" y2="12551.8" gradientUnits="userSpaceOnUse">
<stop stop-color="#00D4BF"/>
<stop offset="1" stop-color="#0074BF"/>
</linearGradient>
<linearGradient id="paint23_linear_131_406" x1="1427.73" y1="-7456.85" x2="1427.73" y2="12551.8" gradientUnits="userSpaceOnUse">
<stop stop-color="#00D4BF"/>
<stop offset="1" stop-color="#0074BF"/>
</linearGradient>
<linearGradient id="paint24_linear_131_406" x1="2627.5" y1="-7456.85" x2="2627.5" y2="12551.8" gradientUnits="userSpaceOnUse">
<stop stop-color="#00D4BF"/>
<stop offset="1" stop-color="#0074BF"/>
</linearGradient>
<linearGradient id="paint25_linear_131_406" x1="2577.5" y1="-7456.85" x2="2577.5" y2="12551.8" gradientUnits="userSpaceOnUse">
<stop stop-color="#00D4BF"/>
<stop offset="1" stop-color="#0074BF"/>
</linearGradient>
<linearGradient id="paint26_linear_131_406" x1="1302.75" y1="-7456.85" x2="1302.75" y2="12551.8" gradientUnits="userSpaceOnUse">
<stop stop-color="#00D4BF"/>
<stop offset="1" stop-color="#0074BF"/>
</linearGradient>
<linearGradient id="paint27_linear_131_406" x1="1277.75" y1="-7456.85" x2="1277.75" y2="12551.8" gradientUnits="userSpaceOnUse">
<stop stop-color="#00D4BF"/>
<stop offset="1" stop-color="#0074BF"/>
</linearGradient>
<linearGradient id="paint28_linear_131_406" x1="1453.79" y1="-4981.31" x2="1453.79" y2="15027.3" gradientUnits="userSpaceOnUse">
<stop stop-color="#00D4BF"/>
<stop offset="1" stop-color="#0074BF"/>
</linearGradient>
<linearGradient id="paint29_linear_131_406" x1="1427.73" y1="-4981.31" x2="1427.73" y2="15027.3" gradientUnits="userSpaceOnUse">
<stop stop-color="#00D4BF"/>
<stop offset="1" stop-color="#0074BF"/>
</linearGradient>
<linearGradient id="paint30_linear_131_406" x1="2627.5" y1="-4981.31" x2="2627.5" y2="15027.3" gradientUnits="userSpaceOnUse">
<stop stop-color="#00D4BF"/>
<stop offset="1" stop-color="#0074BF"/>
</linearGradient>
<linearGradient id="paint31_linear_131_406" x1="2577.5" y1="-4981.31" x2="2577.5" y2="15027.3" gradientUnits="userSpaceOnUse">
<stop stop-color="#00D4BF"/>
<stop offset="1" stop-color="#0074BF"/>
</linearGradient>
<linearGradient id="paint32_linear_131_406" x1="1302.75" y1="-4981.31" x2="1302.75" y2="15027.3" gradientUnits="userSpaceOnUse">
<stop stop-color="#00D4BF"/>
<stop offset="1" stop-color="#0074BF"/>
</linearGradient>
<linearGradient id="paint33_linear_131_406" x1="1277.75" y1="-4981.31" x2="1277.75" y2="15027.3" gradientUnits="userSpaceOnUse">
<stop stop-color="#00D4BF"/>
<stop offset="1" stop-color="#0074BF"/>
</linearGradient>
<linearGradient id="paint34_linear_131_406" x1="1427.73" y1="-2506.8" x2="1427.73" y2="17501.8" gradientUnits="userSpaceOnUse">
<stop stop-color="#00D4BF"/>
<stop offset="1" stop-color="#0074BF"/>
</linearGradient>
<linearGradient id="paint35_linear_131_406" x1="1402.75" y1="-2506.8" x2="1402.75" y2="17501.8" gradientUnits="userSpaceOnUse">
<stop stop-color="#00D4BF"/>
<stop offset="1" stop-color="#0074BF"/>
</linearGradient>
<linearGradient id="paint36_linear_131_406" x1="1377.75" y1="-2506.8" x2="1377.75" y2="17501.8" gradientUnits="userSpaceOnUse">
<stop stop-color="#00D4BF"/>
<stop offset="1" stop-color="#0074BF"/>
</linearGradient>
<linearGradient id="paint37_linear_131_406" x1="1352.75" y1="-2506.8" x2="1352.75" y2="17501.8" gradientUnits="userSpaceOnUse">
<stop stop-color="#00D4BF"/>
<stop offset="1" stop-color="#0074BF"/>
</linearGradient>
<linearGradient id="paint38_linear_131_406" x1="1327.75" y1="-2506.8" x2="1327.75" y2="17501.8" gradientUnits="userSpaceOnUse">
<stop stop-color="#00D4BF"/>
<stop offset="1" stop-color="#0074BF"/>
</linearGradient>
<linearGradient id="paint39_linear_131_406" x1="1302.75" y1="-2506.8" x2="1302.75" y2="17501.8" gradientUnits="userSpaceOnUse">
<stop stop-color="#00D4BF"/>
<stop offset="1" stop-color="#0074BF"/>
</linearGradient>
<linearGradient id="paint40_linear_131_406" x1="1402.75" y1="-31.263" x2="1402.75" y2="19977.3" gradientUnits="userSpaceOnUse">
<stop stop-color="#00D4BF"/>
<stop offset="1" stop-color="#0074BF"/>
</linearGradient>
<linearGradient id="paint41_linear_131_406" x1="1377.75" y1="-31.263" x2="1377.75" y2="19977.3" gradientUnits="userSpaceOnUse">
<stop stop-color="#00D4BF"/>
<stop offset="1" stop-color="#0074BF"/>
</linearGradient>
<linearGradient id="paint42_linear_131_406" x1="1352.75" y1="-31.263" x2="1352.75" y2="19977.3" gradientUnits="userSpaceOnUse">
<stop stop-color="#00D4BF"/>
<stop offset="1" stop-color="#0074BF"/>
</linearGradient>
<linearGradient id="paint43_linear_131_406" x1="1327.75" y1="-31.263" x2="1327.75" y2="19977.3" gradientUnits="userSpaceOnUse">
<stop stop-color="#00D4BF"/>
<stop offset="1" stop-color="#0074BF"/>
</linearGradient>
<clipPath id="clip0_131_406">
<rect width="200" height="200" fill="white" transform="translate(28 28)"/>
</clipPath>
</defs>
</svg>
