<svg width="256" height="256" viewBox="0 0 256 256" fill="none" xmlns="http://www.w3.org/2000/svg">
<rect width="256" height="256" fill="#74D4FF"/>
<path d="M67.6069 152.32L189.658 111.565C187.219 96.3091 185.481 86.1176 183.468 78.3394C181.298 69.9734 179.579 67.735 178.903 66.9597C176.55 64.2661 173.62 62.1375 170.331 60.7321C169.381 60.3257 166.717 59.3815 158.101 59.9005C148.985 60.4507 137.017 62.314 118.066 65.3152C99.1203 68.3165 87.1588 70.2485 78.3239 72.537C69.9642 74.7066 67.7195 76.4324 66.9442 77.1076C64.2556 79.4649 62.1297 82.3911 60.7228 85.68C60.3164 86.6304 59.3723 89.294 59.8912 97.9161C60.4415 107.032 62.3047 119.006 65.306 137.958C66.1438 143.272 66.9004 148.024 67.6069 152.32Z" fill="#242932"/>
<path fill-rule="evenodd" clip-rule="evenodd" d="M33.9568 142.922C28.1544 106.257 25.247 87.9244 31.5371 73.2058C34.816 65.5294 39.7828 58.6905 46.0681 53.1975C58.1169 42.6744 76.4433 39.7732 113.096 33.9645C149.761 28.1495 168.094 25.2483 182.813 31.5385C190.485 34.8185 197.319 39.7852 202.808 46.0695C213.338 58.1245 216.239 76.4572 222.041 113.129C227.85 149.794 230.751 168.133 224.461 182.845C221.184 190.521 216.22 197.36 209.936 202.853C197.888 213.383 179.555 216.284 142.896 222.093C106.243 227.901 87.9106 230.803 73.1982 224.512C65.526 221.232 58.6915 216.266 53.2024 209.981C42.673 197.926 39.7655 179.594 33.9568 142.922ZM98.615 208.037C108.432 207.443 121.074 205.461 139.788 202.497C158.509 199.533 171.133 197.507 180.662 195.038C189.884 192.643 194.136 190.311 196.881 187.91C200.919 184.378 204.11 179.982 206.216 175.048C207.654 171.697 208.561 166.932 207.986 157.416C207.392 147.599 205.409 134.95 202.446 116.23C199.482 97.5096 197.462 84.8732 194.993 75.3505C192.598 66.1216 190.259 61.8699 187.865 59.125C184.336 55.085 179.942 51.8921 175.009 49.7836C171.658 48.3455 166.893 47.4388 157.377 48.0141C147.56 48.6081 134.924 50.5902 116.21 53.5539C97.4896 56.5239 84.8593 58.5435 75.3366 61.0132C66.1077 63.408 61.8622 65.7465 59.1173 68.1412C55.0768 71.6722 51.884 76.0683 49.7759 81.0028C48.3441 84.3542 47.4375 89.1187 48.0127 98.635C48.6067 108.458 50.5825 121.101 53.5525 139.821C56.5162 158.541 58.5358 171.178 61.0056 180.7C63.4004 189.929 65.7326 194.181 68.1336 196.926C71.6626 200.966 76.0566 204.159 80.9889 206.267C84.3403 207.705 89.0923 208.612 98.615 208.037Z" fill="#242932"/>
</svg>
