<svg width="256" height="256" viewBox="0 0 256 256" fill="none" xmlns="http://www.w3.org/2000/svg">
<rect width="256" height="256" fill="#232932"/>
<g clip-path="url(#clip0_88_292)">
<path d="M227.684 152.41V101.53H232.829V152.41H227.684Z" fill="white"/>
<path d="M197.504 153.47C193.654 153.47 190.247 152.669 187.284 151.067C184.344 149.465 182.034 147.204 180.354 144.283C178.674 141.362 177.834 137.947 177.834 134.036V101.565L183.014 101.53V133.365C183.014 136.003 183.457 138.288 184.344 140.22C185.23 142.128 186.385 143.706 187.809 144.954C189.255 146.179 190.83 147.086 192.534 147.675C194.238 148.264 195.894 148.558 197.504 148.558C199.137 148.558 200.805 148.264 202.509 147.675C204.212 147.086 205.775 146.179 207.199 144.954C208.623 143.706 209.778 142.128 210.664 140.22C211.55 138.288 211.994 136.003 211.994 133.365V101.53H217.174V134.036C217.174 137.947 216.334 141.362 214.654 144.283C212.974 147.18 210.653 149.442 207.689 151.067C204.749 152.669 201.354 153.47 197.504 153.47Z" fill="white"/>
<path d="M152.193 153.47C148.437 153.47 145.228 152.61 142.568 150.891C139.908 149.171 137.867 146.792 136.443 143.753C135.02 140.715 134.308 137.228 134.308 133.295C134.308 129.29 135.032 125.78 136.478 122.765C137.925 119.75 139.978 117.406 142.638 115.734C145.322 114.038 148.507 113.19 152.193 113.19C155.973 113.19 159.193 114.05 161.853 115.769C164.537 117.465 166.578 119.833 167.978 122.871C169.402 125.886 170.113 129.361 170.113 133.295C170.113 137.299 169.402 140.821 167.978 143.859C166.555 146.874 164.502 149.23 161.818 150.926C159.135 152.622 155.927 153.47 152.193 153.47ZM152.193 148.488C156.393 148.488 159.52 147.086 161.573 144.283C163.627 141.457 164.653 137.794 164.653 133.295C164.653 128.678 163.615 125.003 161.538 122.271C159.485 119.538 156.37 118.172 152.193 118.172C149.37 118.172 147.037 118.82 145.193 120.115C143.373 121.387 142.008 123.166 141.098 125.451C140.212 127.712 139.768 130.327 139.768 133.295C139.768 137.888 140.818 141.574 142.918 144.354C145.018 147.11 148.11 148.488 152.193 148.488Z" fill="white"/>
<path d="M111.867 152.41V114.25H116.487V123.437L115.577 122.235C115.997 121.105 116.546 120.068 117.222 119.126C117.899 118.16 118.634 117.371 119.427 116.759C120.407 115.887 121.551 115.228 122.857 114.78C124.164 114.309 125.482 114.038 126.812 113.967C128.142 113.873 129.356 113.967 130.452 114.25V119.126C129.076 118.773 127.571 118.69 125.937 118.879C124.304 119.067 122.799 119.727 121.422 120.857C120.162 121.847 119.217 123.036 118.587 124.426C117.957 125.792 117.537 127.253 117.327 128.807C117.117 130.339 117.012 131.858 117.012 133.365V152.41H111.867Z" fill="white"/>
<path d="M86.9148 153.47C83.2283 153.47 80.0313 152.646 77.3248 150.997C74.6415 149.348 72.5532 147.028 71.0598 144.036C69.5665 141.044 68.8198 137.535 68.8198 133.507C68.8198 129.337 69.5548 125.733 71.0248 122.695C72.4948 119.656 74.5598 117.312 77.2198 115.663C79.9033 114.014 83.0648 113.19 86.7048 113.19C90.4383 113.19 93.6233 114.062 96.2598 115.805C98.8963 117.524 100.891 119.998 102.245 123.225C103.598 126.452 104.216 130.303 104.1 134.779H98.8498V132.941C98.7563 127.995 97.6948 124.261 95.6648 121.741C93.6583 119.22 90.7183 117.96 86.8448 117.96C82.7848 117.96 79.6698 119.291 77.4998 121.953C75.3532 124.614 74.2798 128.407 74.2798 133.33C74.2798 138.135 75.3532 141.869 77.4998 144.531C79.6698 147.169 82.7383 148.488 86.7048 148.488C89.4113 148.488 91.7683 147.864 93.7748 146.615C95.8048 145.343 97.4033 143.518 98.5698 141.139L103.365 143.011C101.871 146.333 99.6663 148.912 96.7498 150.749C93.8563 152.563 90.5783 153.47 86.9148 153.47ZM77.1405 134.779V130.433H101.335V134.779H77.1405Z" fill="white"/>
<path d="M23 152.41V101.53H28.145V124.461H56.005V101.53H61.115V152.41H56.005V129.443H28.145V152.41H23Z" fill="white"/>
</g>
<defs>
<clipPath id="clip0_88_292">
<rect width="210" height="53" fill="white" transform="translate(23 101)"/>
</clipPath>
</defs>
</svg>
