<svg width="256" height="256" viewBox="0 0 256 256" fill="none" xmlns="http://www.w3.org/2000/svg">
<rect width="256" height="256" fill="#232932"/>
<path d="M223 206.937C223 213.468 217.656 218.812 211.125 218.812H44.875C38.3438 218.812 33 213.468 33 206.937V135.687C33 129.155 36.7762 120.036 41.3996 115.413L119.6 37.2121C124.216 32.5966 131.776 32.5966 136.392 37.2121L214.6 115.42C219.216 120.035 223 129.163 223 135.695V206.945V206.937Z" fill="#F2F4F9"/>
<path d="M214.6 115.413L136.4 37.2121C131.784 32.5966 124.224 32.5966 119.608 37.2121L41.3996 115.413C36.7842 120.028 33 129.155 33 135.687V206.937C33 213.468 38.3438 218.812 44.875 218.812H117.922L85.7567 186.646C84.1021 187.216 82.3367 187.541 80.5 187.541C71.5542 187.541 64.2708 180.258 64.2708 171.312C64.2708 162.366 71.5542 155.083 80.5 155.083C89.4458 155.083 96.7292 162.366 96.7292 171.312C96.7292 173.156 96.4046 174.922 95.8346 176.576L120.875 201.617V109.878C115.492 107.234 111.771 101.708 111.771 95.3196C111.771 86.3738 119.054 79.0904 128 79.0904C136.946 79.0904 144.229 86.3738 144.229 95.3196C144.229 101.708 140.508 107.234 135.125 109.878V174.217L160.031 149.311C159.54 147.76 159.271 146.113 159.271 144.403C159.271 135.457 166.554 128.174 175.5 128.174C184.446 128.174 191.729 135.457 191.729 144.403C191.729 153.349 184.446 160.632 175.5 160.632C173.521 160.632 171.637 160.26 169.887 159.611L135.125 194.373V218.82H211.125C217.656 218.82 223 213.476 223 206.945V135.695C223 129.163 219.224 120.043 214.6 115.42V115.413Z" fill="#18BCF2"/>
</svg>
