<svg width="256" height="256" viewBox="0 0 256 256" fill="none" xmlns="http://www.w3.org/2000/svg">
<rect width="256" height="256" fill="#FAAF41"/>
<g clip-path="url(#clip0_131_557)">
<path d="M161.978 94.2947C162.525 80.0096 158.921 74.2424 156.215 70.1197C153.47 66.2736 146.884 60.2291 138.792 59.976C131.139 59.7369 129.299 63.9705 122.239 64.226C121.081 51.3572 130.784 44.2963 130.784 44.2963C130.784 44.2963 128.13 40.5424 125.936 39.6268C123.41 41.8736 117.354 48.3268 116.059 56.9908C114.695 44.2291 108.321 36.0682 94.1908 30.3799C90.1775 44.433 103.429 57.5627 112.037 62.7479C107.474 61.2135 103.514 59.1854 98.1947 60.233C88.8991 62.065 81.2347 67.6908 76.8679 80.0361C72.501 92.3814 78.4101 106.784 79.694 110.897C80.9795 115.014 90.4866 132.501 97.9379 135.074C105.388 137.648 105.391 136.488 109.374 134.946C113.356 133.404 119.393 130.574 128.26 133.79C137.121 137.004 138.277 137.774 143.799 134.174C149.328 130.574 156.519 119.388 158.188 116.172C159.859 112.959 160.758 111.285 161.275 109.614C161.917 104.721 161.484 107.099 161.977 94.2939" fill="#D1D2D3"/>
<path d="M162.509 114.064V121.049C162.509 121.835 162.821 122.588 163.376 123.144C163.931 123.699 164.684 124.011 165.469 124.012H176.45C179.983 124.012 183.371 125.417 185.869 127.917C188.367 130.418 189.77 133.809 189.77 137.345V170.634L189.769 177.89V183.604L189.768 185.37C189.768 188.915 188.36 192.313 185.85 194.815C184.608 196.053 183.134 197.034 181.512 197.701C179.891 198.368 178.153 198.708 176.4 198.702C172.69 198.712 168.787 198.705 165.531 198.66C165.138 198.652 164.746 198.722 164.38 198.867C164.014 199.012 163.68 199.229 163.399 199.505C163.117 199.781 162.894 200.11 162.741 200.473C162.588 200.837 162.509 201.227 162.509 201.621V205.578L162.508 207.332V208.652C162.505 211.133 162.502 213.482 162.496 214.898C162.496 215.776 162.106 216.608 161.431 217.168C158.039 219.733 146.186 225.418 119.676 225.418C93.7132 225.418 81.3495 221.173 77.4923 218.937C77.0736 218.67 76.7288 218.302 76.4894 217.866C76.2501 217.431 76.1239 216.942 76.1225 216.445C76.1108 210.684 76.0679 190.172 76.0219 169.005L76.0156 166.116L75.9048 114.301V114.064H162.509ZM175.637 135.882H166.209C165.295 135.882 164.414 136.221 163.735 136.833L163.594 136.967C162.948 137.614 162.563 138.477 162.515 139.391L162.509 139.587V182.687C162.509 183.604 162.85 184.486 163.459 185.164L163.593 185.306C164.239 185.953 165.101 186.337 166.013 186.385L166.208 186.391H175.636C176.55 186.391 177.431 186.052 178.11 185.441L178.252 185.306C178.898 184.659 179.281 183.796 179.33 182.883L179.336 182.688V139.586C179.335 138.671 178.997 137.789 178.387 137.109L178.252 136.966C177.606 136.32 176.744 135.935 175.832 135.886L175.637 135.881V135.882Z" fill="#FEFEFE"/>
<path d="M84.4425 113.206V205.047C84.4425 206.106 85.0068 207.086 85.9254 207.615C89.6694 209.402 100.535 213.667 119.584 213.667C138.759 213.667 149.3 208.484 152.832 206.348C153.247 206.08 153.587 205.713 153.823 205.28C154.059 204.846 154.183 204.36 154.182 203.866C154.19 191.688 154.19 113.206 154.19 113.206H84.4425Z" fill="#FAAF41"/>
<path d="M94.695 124.652C96.8803 124.652 98.6676 126.363 98.7933 128.519L98.8003 128.761V199.735C98.8046 200.807 98.3903 201.838 97.646 202.608C96.9017 203.379 95.8862 203.827 94.816 203.859C93.7458 203.891 92.7056 203.502 91.9173 202.777C91.1289 202.052 90.6547 201.048 90.5958 199.977L90.5896 199.735V128.76C90.5896 127.67 91.0221 126.625 91.792 125.854C92.5619 125.084 93.6062 124.652 94.695 124.652Z" fill="#FFDA95"/>
<path d="M134.102 132.052C134.102 130.571 133.231 128.802 131.8 127.913C129.455 126.49 127.648 124.328 126.665 121.765C107.725 122.403 90.4406 119.074 81.7319 116.724C79.4965 116.089 77.2318 115.562 74.9456 115.146C69.7343 114.11 65.7733 109.529 65.7733 104.021C65.7733 97.9588 70.5788 93.0314 76.5831 92.8158C77.7398 86.4041 83.3319 81.5361 90.0722 81.5361C97.6508 81.5361 103.796 87.6861 103.796 95.2729C103.792 96.8234 103.526 98.3621 103.009 99.8236L103.048 99.8307C104.742 94.5314 109.697 90.6916 115.552 90.6916C121.369 90.6916 126.299 94.4861 128.02 99.7361C127.969 99.2568 127.944 98.7752 127.945 98.2932C127.945 90.4025 134.334 84.008 142.216 84.008C148.596 84.008 153.997 88.1994 155.824 93.9799L157.066 93.6541C158.744 92.7046 160.639 92.2059 162.566 92.2064C168.76 92.2064 173.781 97.233 173.778 103.431C173.778 109.109 169.567 113.801 164.101 114.55C162.862 114.725 161.648 115.041 160.481 115.492C157.234 116.709 153.919 117.737 150.553 118.572C150.39 120.189 149.909 121.757 149.14 123.188C147.779 125.745 147.168 128.635 147.379 131.525C147.377 131.699 147.384 132.617 147.384 132.793C147.384 136.463 144.411 138.697 140.74 138.697C139.868 138.697 139.005 138.525 138.199 138.191C137.394 137.857 136.662 137.368 136.046 136.751C135.429 136.134 134.941 135.401 134.607 134.595C134.273 133.789 134.102 132.924 134.102 132.052Z" fill="#FEFEFE"/>
<path d="M131.436 115.838L131.514 116.078L131.489 115.838H131.436Z" fill="#010202"/>
<path d="M93.0279 28L94.8527 28.7336C106.581 33.4547 113.409 39.9375 116.371 49.4992C118.243 45.3437 121.087 41.6492 124.392 38.6305L125.591 37.5602L126.619 37.9883C127.09 38.1916 127.537 38.4462 127.952 38.7477C128.647 39.243 129.352 39.8852 130.066 40.6438C130.605 41.2185 131.118 41.8172 131.604 42.4383L131.867 42.7789L132.162 43.175L133.242 44.7016L131.826 45.732L131.632 45.8813L131.366 46.1L131.038 46.3891L130.654 46.7453C129.639 47.7132 128.718 48.7746 127.903 49.9156C125.451 53.3359 123.977 57.2906 123.916 61.7789L123.915 62.3016L124.298 62.2391C125.619 61.9969 126.86 61.5344 128.677 60.707L129.715 60.2305C133.225 58.6398 135.326 58.093 138.846 58.2023C146.324 58.4367 153.516 63.2867 157.697 69.1469C157.79 69.2891 157.884 69.432 157.975 69.5766L158.513 70.4297L159.026 71.2773C162.22 76.7078 163.759 81.9805 163.814 90.4961C170.402 91.1242 175.554 96.675 175.551 103.43C175.551 109.948 170.733 115.432 164.349 116.307L164.281 116.32V121.049C164.281 121.705 164.813 122.238 165.469 122.238H176.45C178.432 122.238 180.395 122.629 182.226 123.388C184.057 124.147 185.721 125.26 187.122 126.663C188.523 128.066 189.635 129.731 190.393 131.564C191.152 133.397 191.542 135.361 191.542 137.345L191.541 185.37C191.541 189.386 189.943 193.238 187.101 196.07C185.695 197.473 184.027 198.584 182.192 199.34C180.357 200.096 178.39 200.483 176.406 200.477L174.743 200.48L171.514 200.479L167.589 200.457L165.494 200.434C165.336 200.43 165.179 200.459 165.032 200.517C164.885 200.575 164.752 200.662 164.639 200.773C164.526 200.883 164.436 201.015 164.375 201.161C164.313 201.307 164.281 201.463 164.281 201.621L164.277 211.334L164.268 214.898C164.268 216.305 163.643 217.634 162.498 218.583C160.885 219.802 158.744 220.958 156.087 222.002L155.183 222.345C153.692 222.89 152.178 223.37 150.646 223.783L149.534 224.075L148.386 224.356C147.219 224.632 145.996 224.892 144.719 225.134L143.422 225.37L142.09 225.592C140.963 225.772 139.801 225.94 138.601 226.092L137.141 226.268L135.646 226.43L134.116 226.577L132.549 226.71L130.946 226.827L129.308 226.929C129.033 226.945 128.756 226.96 128.477 226.975L126.786 227.052L125.061 227.113C124.479 227.129 123.894 227.145 123.301 227.157L121.506 227.183C120.901 227.189 120.292 227.192 119.676 227.192H118.74C118.119 227.188 117.502 227.183 116.892 227.177L115.08 227.147L113.301 227.104C112.714 227.088 112.133 227.068 111.557 227.048L109.85 226.977C109.567 226.964 109.288 226.952 109.008 226.937L107.352 226.847L105.733 226.745L104.148 226.63C103.889 226.611 103.629 226.59 103.369 226.568L101.84 226.436C101.588 226.413 101.337 226.389 101.088 226.364L99.6121 226.215L98.1737 226.053C97.9364 226.025 97.7007 225.998 97.4673 225.968L96.0835 225.789L94.7364 225.602L93.4283 225.404C92.7836 225.302 92.1522 225.198 91.5356 225.088L90.3219 224.866C90.1243 224.828 89.9268 224.79 89.7296 224.751L88.5721 224.515L87.4544 224.27L86.3758 224.016L85.3354 223.756C84.3671 223.506 83.4057 223.229 82.4523 222.927L81.5703 222.636C81.1521 222.494 80.7365 222.344 80.3239 222.187L79.5434 221.882C78.4039 221.416 77.4018 220.932 76.5401 220.434C75.8708 220.006 75.3195 219.417 74.9371 218.72C74.5547 218.024 74.3534 217.242 74.3516 216.448L74.1378 116.773C68.2654 115.384 64 110.144 64 104.021C64 98.0523 68.0359 93.0188 73.5493 91.5078C73.4814 89.6922 73.5227 87.9 73.7108 86.132C73.9606 83.793 74.45 81.5602 75.1984 79.443C79.4911 67.3055 87.1321 60.6039 97.8537 58.4922C99.6664 58.125 101.528 58.0671 103.36 58.3211C101.966 57.02 100.651 55.6373 99.4201 54.1805C92.9787 46.5078 90.1463 38.0883 92.487 29.8906L93.0279 28ZM160.736 117.287L159.885 117.6C159.706 117.666 159.514 117.72 159.331 117.784C157.669 118.37 155.963 118.902 154.227 119.398C153.153 119.707 153.153 119.707 152.13 119.998L152.05 120.402C151.809 121.484 151.441 122.534 150.955 123.53L150.485 124.449C150.398 124.627 150.34 124.815 150.263 124.996C149.368 127.049 148.986 129.29 149.15 131.524L149.151 131.784L149.155 132.792C149.155 137.375 145.498 140.472 140.74 140.472C139.592 140.472 138.457 140.236 137.404 139.779C136.351 139.322 135.403 138.653 134.619 137.813C133.476 136.598 132.721 135.069 132.45 133.421C132.373 132.969 132.332 132.511 132.329 132.052C132.329 131.102 131.707 129.944 130.882 129.43C128.611 128.053 126.774 126.063 125.58 123.689L125.523 123.572L124.357 123.598C110.914 123.827 97.2316 122.18 85.9996 119.608C84.7212 119.317 83.4473 119.007 82.1783 118.677L81.2488 118.43C81.223 118.423 81.1949 118.417 81.1684 118.409C80.0144 118.086 78.8527 117.791 77.6843 117.524L77.895 216.441C77.895 216.845 78.1034 217.224 78.3805 217.402C78.8948 217.7 79.4716 217.993 80.1124 218.281L80.7727 218.566C81.4548 218.848 82.1979 219.124 83.0041 219.395L83.8283 219.66C84.2645 219.795 84.7024 219.924 85.1419 220.048L86.0675 220.298L87.0338 220.543L88.0382 220.781L89.0841 221.011C89.2597 221.05 89.4392 221.087 89.6203 221.124L90.7231 221.343C91.0962 221.415 91.4771 221.487 91.865 221.556L93.0451 221.759C93.4447 221.825 93.8505 221.891 94.2634 221.953L95.52 222.138L96.8148 222.316C97.0334 222.344 97.2527 222.373 97.4751 222.4L98.8254 222.564L100.215 222.716L101.638 222.856C101.879 222.88 102.122 222.902 102.364 222.924L103.844 223.051L105.36 223.166L106.911 223.268L108.5 223.359L110.123 223.438C110.396 223.451 110.672 223.462 110.947 223.473L112.625 223.534C112.906 223.544 113.189 223.552 113.476 223.56L115.205 223.602L116.081 223.617L117.862 223.638C118.46 223.641 119.064 223.644 119.676 223.644L120.565 223.643C122.04 223.635 123.479 223.611 124.881 223.568L126.547 223.511C126.821 223.502 127.095 223.489 127.366 223.476L128.978 223.396L130.555 223.3C130.814 223.283 131.074 223.266 131.33 223.247L132.855 223.128L133.602 223.066L135.074 222.927L135.796 222.852L137.21 222.695L137.905 222.611L139.266 222.434L140.592 222.243L141.881 222.043C142.305 221.973 142.723 221.902 143.134 221.83L144.35 221.607C144.748 221.529 145.142 221.452 145.528 221.373L146.672 221.127L147.775 220.873C148.5 220.702 149.198 220.522 149.873 220.338L150.866 220.057C151.028 220.009 151.188 219.96 151.348 219.912L152.285 219.62L153.182 219.319C156.262 218.253 158.642 217.056 160.299 215.802C160.567 215.579 160.723 215.248 160.723 214.891L160.736 201.621C160.736 200.348 161.249 199.128 162.157 198.238C162.605 197.798 163.137 197.452 163.72 197.219C164.304 196.987 164.928 196.874 165.556 196.887L167.631 196.909L170.708 196.928L174.748 196.932L176.407 196.928C177.927 196.933 179.433 196.638 180.839 196.06C182.245 195.482 183.522 194.632 184.599 193.559C185.676 192.485 186.53 191.209 187.113 189.804C187.696 188.399 187.996 186.892 187.996 185.371L187.998 137.345C187.998 134.28 186.781 131.34 184.616 129.172C182.45 127.004 179.513 125.787 176.45 125.787H165.469C164.214 125.787 163.01 125.288 162.122 124.399C161.235 123.511 160.736 122.306 160.736 121.049V117.287ZM175.636 134.109C177.088 134.109 178.479 134.686 179.506 135.713C180.532 136.741 181.108 138.134 181.108 139.587V182.688C181.108 183.407 180.967 184.119 180.692 184.783C180.417 185.448 180.014 186.052 179.506 186.56C178.997 187.069 178.394 187.472 177.73 187.747C177.066 188.023 176.355 188.164 175.636 188.164H166.21C165.491 188.164 164.779 188.023 164.115 187.748C163.451 187.473 162.848 187.069 162.339 186.561C161.831 186.052 161.428 185.448 161.153 184.784C160.878 184.119 160.736 183.407 160.736 182.688V139.588C160.736 138.135 161.313 136.741 162.339 135.714C163.366 134.687 164.758 134.109 166.21 134.109L175.636 134.109ZM175.636 137.658H166.21C165.698 137.658 165.208 137.861 164.847 138.22C164.485 138.583 164.282 139.075 164.281 139.588V182.687C164.281 183.198 164.484 183.689 164.846 184.051C165.207 184.413 165.697 184.616 166.209 184.616H175.636C176.148 184.616 176.638 184.412 176.997 184.051C177.36 183.69 177.564 183.199 177.564 182.687V139.587C177.564 139.333 177.515 139.082 177.418 138.848C177.321 138.614 177.179 138.401 177 138.222C176.821 138.043 176.608 137.9 176.374 137.803C176.14 137.707 175.89 137.657 175.636 137.657V137.658ZM90.0714 83.3094C84.2747 83.3094 79.3475 87.4789 78.3259 93.132L78.073 94.5375L77.3339 94.5656L76.647 94.5891C75.6847 94.6238 74.7334 94.8062 73.8263 95.1297C70.1604 96.4305 67.5442 99.925 67.5442 104.021C67.5442 108.198 70.279 111.82 74.13 113.093C74.4991 113.215 74.8745 113.323 75.264 113.4C76.5409 113.634 77.8092 113.907 79.0697 114.205C80.1186 114.453 81.1614 114.719 82.194 115.011C82.638 115.13 83.1118 115.241 83.5692 115.359C84.2006 115.519 84.8195 115.683 85.4673 115.838C97.2823 118.674 112.198 120.477 126.604 119.992L127.864 119.949L128.317 121.128C129.164 123.329 130.719 125.185 132.735 126.405C134.635 127.585 135.874 129.893 135.874 132.052L135.881 132.31C135.929 133.148 136.195 133.959 136.652 134.662C137.518 136.016 139.017 136.924 140.74 136.924C143.659 136.924 145.611 135.27 145.611 132.791L145.605 131.775L145.611 131.655C145.377 128.428 146.059 125.201 147.578 122.345L147.788 121.934C148.326 120.822 148.665 119.623 148.788 118.393L148.912 117.152L150.122 116.851C151.358 116.541 152.553 116.189 153.75 115.838C154.8 115.53 155.837 115.212 156.862 114.879C157.864 114.554 158.858 114.206 159.844 113.836L160.4 113.63C160.821 113.49 161.246 113.365 161.675 113.255C162.393 113.062 163.119 112.898 163.86 112.792L164.174 112.744C164.212 112.738 164.246 112.728 164.281 112.721C166.45 112.32 168.41 111.17 169.822 109.473C171.233 107.776 172.006 105.638 172.006 103.43C172.008 98.6172 168.408 94.6523 163.76 94.0641C163.364 94.0115 162.965 93.9838 162.566 93.9813C160.945 93.9838 159.351 94.4035 157.938 95.2L157.737 95.3133L154.641 96.1203L154.134 94.5148C153.331 91.9809 151.744 89.7685 149.601 88.1982C147.458 86.628 144.871 85.7814 142.216 85.7812C135.313 85.7812 129.717 91.3828 129.717 98.293C129.717 98.7172 129.74 99.1367 129.783 99.5508L131.117 112.289L131.489 115.838H131.436L130.271 112.289L126.335 100.288C125.59 98.0137 124.146 96.0329 122.209 94.6283C120.273 93.2237 117.943 92.4671 115.551 92.4664C113.145 92.4669 110.8 93.2327 108.856 94.6533C106.913 96.0739 105.47 98.0758 104.737 100.37L104.271 101.828L100.635 101.232L101.335 99.2359C101.787 97.9437 102.021 96.6148 102.021 95.2719C102.021 88.6656 96.6712 83.3094 90.0714 83.3094ZM126.158 41.8359L125.724 42.2617C121.764 46.2187 118.054 52.8453 117.829 56.9266C117.602 61.0078 118.267 66.075 118.267 66.075L115.767 65.5961C114.694 65.3915 113.635 65.1244 112.594 64.7961L111.819 64.5477C111.684 64.5039 111.548 64.457 111.408 64.4109L111.263 64.3602L110.532 64.107L107.612 63.0617L106.811 62.7891C103.55 61.7227 101.239 61.443 98.5381 61.975C89.0552 63.8422 82.4195 69.6625 78.5405 80.6266C77.8864 82.475 77.4572 84.4375 77.2347 86.5094C77.2308 86.5437 77.2308 86.5797 77.2269 86.6156C79.9547 82.5602 84.5268 79.8984 89.671 79.7664L90.0722 79.7617C97.7085 79.7617 104.054 85.2906 105.333 92.568L105.392 92.9273L105.774 92.5797C108.381 90.3072 111.697 89.0144 115.152 88.9234L115.552 88.9187C117.632 88.9181 119.689 89.354 121.59 90.1985C123.491 91.0429 125.194 92.277 126.59 93.8211L126.75 94.0039L126.852 93.6547C128.803 87.1695 134.742 82.4125 141.814 82.2375L142.216 82.2336C145.28 82.2334 148.28 83.1113 150.861 84.7635C153.442 86.4157 155.497 88.7731 156.783 91.557L156.871 91.7563L157.041 91.6719C158.069 91.1918 159.155 90.8493 160.272 90.6531C160.238 82.5336 158.81 77.7797 155.769 72.732L155.283 71.9453L154.773 71.1508C151.217 66.1695 144.951 61.9438 138.736 61.7492C135.707 61.6547 134.05 62.1281 130.668 63.6961L130.105 63.9547C127.006 65.3625 125.204 65.893 122.303 65.9984L120.625 66.0602L120.475 64.3852C119.902 58.0297 121.696 52.4867 125.025 47.8461C126.151 46.275 127.282 45.0211 128.273 44.093L128.332 44.0359L127.945 43.5797L127.487 43.0773C127.144 42.7085 126.78 42.359 126.398 42.0305L126.158 41.8359ZM95.4537 32.8375L95.4084 33.1266C94.4991 39.3375 97.0029 45.7891 102.134 51.8977C105.266 55.6266 109.293 58.9977 112.738 61.1133C113.274 61.443 113.797 61.7461 114.299 62.0117L114.588 62.1625L114.587 61.8828C114.571 60.15 114.463 58.4192 114.265 56.6977C112.913 45.2563 107.278 38.1117 95.6394 32.9203L95.4537 32.8375Z" fill="#010202"/>
</g>
<defs>
<clipPath id="clip0_131_557">
<rect width="128" height="200" fill="white" transform="translate(64 28)"/>
</clipPath>
</defs>
</svg>
