<svg width="256" height="256" viewBox="0 0 256 256" fill="none" xmlns="http://www.w3.org/2000/svg">
<rect width="256" height="256" fill="#232932"/>
<g clip-path="url(#clip0_93_88)">
<path opacity="0.993" d="M131.211 28.0179C131.741 27.9494 132.21 28.0833 132.615 28.4191C147.523 46.6311 161.58 65.5255 174.739 85.0415C184.484 99.727 192.775 115.254 199.613 131.625C210.534 160.781 204.85 186.148 182.563 207.724C163.061 224.221 140.596 230.646 115.163 227C84.7641 220.795 64.1031 203.194 53.1798 174.192C50.3347 164.751 49.3986 155.113 50.3716 145.279C51.9919 128.352 56.0037 112.02 62.4071 96.2864C65.0754 89.867 68.5526 83.9773 72.8381 78.6173C76.3311 82.7814 79.6764 87.0675 82.8677 91.4676C84.3451 93.013 85.883 94.4857 87.4814 95.8851C99.6846 71.6427 114.261 49.0215 131.211 28.0179H131.211Z" fill="#FF5B11"/>
<path d="M128.402 60.5455C143.123 77.6364 156.429 95.8413 168.321 115.16C172.042 121.537 175.132 128.261 177.548 135.239C182.596 155.12 177.181 171.518 161.3 184.432C145.941 195.25 129.091 198.462 110.75 194.07C90.972 187.927 79.5384 174.607 76.4487 154.113C75.6991 147.651 76.3681 141.359 78.4552 135.239C81.4166 127.704 85.0415 120.447 89.287 113.554L101.323 95.8843C110.428 84.1649 119.455 72.3848 128.403 60.5449L128.402 60.5455Z" fill="#FF9758"/>
</g>
<defs>
<clipPath id="clip0_93_88">
<rect width="155" height="200" fill="white" transform="translate(50 28)"/>
</clipPath>
</defs>
</svg>
