<svg width="256" height="256" viewBox="0 0 256 256" fill="none" xmlns="http://www.w3.org/2000/svg">
<rect width="256" height="256" fill="#232932"/>
<g clip-path="url(#clip0_131_614)">
<path opacity="0.6" d="M156.698 187.523C140.652 196.477 121.148 197.567 103.803 189.826C86.4572 182.086 74.2013 166.812 70.108 148.881C82.2179 156.567 96.481 164.113 112.124 171.094C127.766 178.075 142.888 183.641 156.698 187.523Z" fill="#00B381"/>
<path d="M135.78 145.125C133.781 149.625 127.628 151.251 122.037 148.756C116.447 146.261 113.535 140.59 115.534 136.09C117.533 131.59 123.686 129.964 129.276 132.459C134.867 134.954 137.779 140.625 135.78 145.125Z" fill="url(#paint0_linear_131_614)"/>
<path style="mix-blend-mode:soft-light" d="M135.78 145.125C133.781 149.625 127.628 151.251 122.037 148.756C116.447 146.261 113.535 140.59 115.534 136.09C117.533 131.59 123.686 129.964 129.276 132.459C134.867 134.954 137.779 140.625 135.78 145.125Z" fill="url(#paint1_radial_131_614)"/>
<path d="M169.269 164.552C175.122 166.235 180.96 163.78 182.307 159.07C183.655 154.359 180.002 149.177 174.149 147.495C168.296 145.813 162.459 148.268 161.111 152.978C159.764 157.688 163.416 162.87 169.269 164.552Z" fill="url(#paint2_linear_131_614)"/>
<path style="mix-blend-mode:soft-light" d="M169.269 164.552C175.122 166.235 180.96 163.78 182.307 159.07C183.655 154.359 180.002 149.177 174.149 147.495C168.296 145.813 162.459 148.268 161.111 152.978C159.764 157.688 163.416 162.87 169.269 164.552Z" fill="url(#paint3_radial_131_614)"/>
<path d="M88.1003 109.095C93.2639 112.33 95.35 118.32 92.7594 122.476C90.1687 126.631 83.8826 127.378 78.719 124.144C73.5551 120.91 71.4693 114.919 74.0599 110.764C76.6505 106.608 82.9366 105.862 88.1003 109.095Z" fill="url(#paint4_linear_131_614)"/>
<path style="mix-blend-mode:soft-light" d="M88.1003 109.095C93.2639 112.33 95.35 118.32 92.7594 122.476C90.1687 126.631 83.8826 127.378 78.719 124.144C73.5551 120.91 71.4693 114.919 74.0599 110.764C76.6505 106.608 82.9366 105.862 88.1003 109.095Z" fill="url(#paint5_radial_131_614)"/>
<path fill-rule="evenodd" clip-rule="evenodd" d="M158.139 67.4797C184.555 79.2682 201.517 104.977 202.201 133.699C217.753 145.962 233.209 163.127 226.027 179.294C214.38 205.514 159.56 192.252 112.12 171.082C64.6786 149.91 18.1646 117.951 29.8114 91.7308C36.9931 75.5632 60.0612 75.5907 79.5599 78.9686C101.313 60.2595 131.723 55.6913 158.139 67.4797ZM43.5029 97.8409C39.5901 106.65 60.6257 131.658 118.216 157.358C175.805 183.058 208.423 181.993 212.336 173.185C215.574 165.894 202.16 150.319 186.975 141.015C186.51 140.73 185.862 140.326 185.05 139.821C177.657 135.22 156.719 122.189 137.597 113.656C131.821 111.078 129.564 104.202 131.991 98.7387C134.418 93.2752 139.752 89.6229 150.984 89.106C156.271 89.0912 156.964 87.6227 157.205 86.3636C157.504 84.421 154.756 82.4135 152.044 81.203C130 71.3659 103.02 75.4816 84.3235 95.2051C66.0505 91.0996 46.7413 90.5505 43.5029 97.8409Z" fill="url(#paint6_linear_131_614)"/>
<path style="mix-blend-mode:soft-light" fill-rule="evenodd" clip-rule="evenodd" d="M158.139 67.4797C184.555 79.2682 201.517 104.977 202.201 133.699C217.753 145.962 233.209 163.127 226.027 179.294C214.38 205.514 159.56 192.252 112.12 171.082C64.6786 149.91 18.1646 117.951 29.8114 91.7308C36.9931 75.5632 60.0612 75.5907 79.5599 78.9686C101.313 60.2595 131.723 55.6913 158.139 67.4797ZM43.5029 97.8409C39.5901 106.65 60.6257 131.658 118.216 157.358C175.805 183.058 208.423 181.993 212.336 173.185C215.574 165.894 202.16 150.319 186.975 141.015C186.51 140.73 185.862 140.326 185.05 139.821C177.657 135.22 156.719 122.189 137.597 113.656C131.821 111.078 129.564 104.202 131.991 98.7387C134.418 93.2752 139.752 89.6229 150.984 89.106C156.271 89.0912 156.964 87.6227 157.205 86.3636C157.504 84.421 154.756 82.4135 152.044 81.203C130 71.3659 103.02 75.4816 84.3235 95.2051C66.0505 91.0996 46.7413 90.5505 43.5029 97.8409Z" fill="url(#paint7_radial_131_614)"/>
</g>
<defs>
<linearGradient id="paint0_linear_131_614" x1="127.919" y1="61.0002" x2="127.919" y2="193.831" gradientUnits="userSpaceOnUse">
<stop stop-color="#00D196"/>
<stop offset="1" stop-color="#00B381"/>
</linearGradient>
<radialGradient id="paint1_radial_131_614" cx="0" cy="0" r="1" gradientUnits="userSpaceOnUse" gradientTransform="translate(220.864 134.955) rotate(-168.223) scale(208.123 101.62)">
<stop stop-color="white"/>
<stop offset="1" stop-color="white" stop-opacity="0"/>
</radialGradient>
<linearGradient id="paint2_linear_131_614" x1="127.919" y1="60.9998" x2="127.919" y2="193.83" gradientUnits="userSpaceOnUse">
<stop stop-color="#00D196"/>
<stop offset="1" stop-color="#00B381"/>
</linearGradient>
<radialGradient id="paint3_radial_131_614" cx="0" cy="0" r="1" gradientUnits="userSpaceOnUse" gradientTransform="translate(220.864 134.955) rotate(-168.223) scale(208.123 101.62)">
<stop stop-color="white"/>
<stop offset="1" stop-color="white" stop-opacity="0"/>
</radialGradient>
<linearGradient id="paint4_linear_131_614" x1="127.919" y1="61.0002" x2="127.919" y2="193.831" gradientUnits="userSpaceOnUse">
<stop stop-color="#00D196"/>
<stop offset="1" stop-color="#00B381"/>
</linearGradient>
<radialGradient id="paint5_radial_131_614" cx="0" cy="0" r="1" gradientUnits="userSpaceOnUse" gradientTransform="translate(220.864 134.955) rotate(-168.223) scale(208.123 101.62)">
<stop stop-color="white"/>
<stop offset="1" stop-color="white" stop-opacity="0"/>
</radialGradient>
<linearGradient id="paint6_linear_131_614" x1="127.919" y1="61" x2="127.919" y2="193.83" gradientUnits="userSpaceOnUse">
<stop stop-color="#00D196"/>
<stop offset="1" stop-color="#00B381"/>
</linearGradient>
<radialGradient id="paint7_radial_131_614" cx="0" cy="0" r="1" gradientUnits="userSpaceOnUse" gradientTransform="translate(220.864 134.955) rotate(-168.224) scale(208.123 101.62)">
<stop stop-color="white"/>
<stop offset="1" stop-color="white" stop-opacity="0"/>
</radialGradient>
<clipPath id="clip0_131_614">
<rect width="200" height="134" fill="white" transform="translate(28 61)"/>
</clipPath>
</defs>
</svg>
