<svg width="256" height="256" viewBox="0 0 256 256" fill="none" xmlns="http://www.w3.org/2000/svg">
<rect width="256" height="256" fill="#242932"/>
<path d="M39.3594 123.687C39.3594 92.7133 56.1508 64.1033 83.397 48.612C96.8244 41.0008 111.995 37 127.43 37C142.865 37 158.036 41.0008 171.463 48.612C198.709 64.1033 215.501 92.7133 215.501 123.687C215.501 171.561 176.072 210.371 127.435 210.371C78.7969 210.371 39.3594 171.552 39.3594 123.687Z" fill="#FF9D0B"/>
<path d="M127.435 201.426C171.045 201.426 206.41 166.616 206.41 123.688C206.41 80.759 171.045 45.958 127.435 45.958C83.8153 45.958 48.4507 80.759 48.4507 123.688C48.4507 166.616 83.8153 201.417 127.435 201.417V201.426Z" fill="#FFD21E"/>
<path d="M126.861 156.216C149.198 156.216 156.408 136.616 156.408 126.552C156.408 121.315 152.835 122.97 147.107 125.742C141.816 128.315 134.698 131.879 126.889 131.879C110.543 131.879 97.3423 116.488 97.3423 126.552C97.3423 136.616 104.524 156.216 126.889 156.216H126.861Z" fill="#FF323D"/>
<path d="M153.093 102.549C156.002 103.53 157.138 109.394 160.066 107.867C164.129 105.749 166.493 101.43 166.057 96.9211C165.83 94.7045 164.95 92.6055 163.527 90.891C162.103 89.1766 160.203 87.9243 158.066 87.2936C155.921 86.6444 153.632 86.6378 151.484 87.2743C149.335 87.9109 147.42 89.1628 145.974 90.8755C143.047 94.3665 142.547 99.2394 144.702 103.239C146.092 105.812 150.502 101.63 153.111 102.521L153.093 102.549ZM99.573 102.549C96.6638 103.53 95.5001 109.394 92.591 107.867C90.6161 106.847 88.9913 105.26 87.9254 103.309C86.8594 101.359 86.401 99.1341 86.609 96.9211C87.0453 92.421 90.2 88.6209 94.591 87.2936C96.736 86.6444 99.0241 86.6378 101.173 87.2743C103.322 87.9109 105.237 89.1628 106.682 90.8755C109.61 94.3665 110.11 99.2394 107.955 103.239C106.573 105.812 102.137 101.63 99.5457 102.521L99.573 102.549ZM109.755 151.095C110.967 148.683 112.661 146.546 114.733 144.816C116.805 143.087 119.211 141.801 121.801 141.041C122.437 140.859 123.11 141.586 123.792 142.595L125.537 145.377C126.165 146.286 126.801 146.968 127.437 146.968C128.11 146.968 128.801 146.295 129.465 145.404L131.328 142.659C132.056 141.659 132.756 140.95 133.456 141.159C138.338 142.686 142.42 146.032 144.82 150.486C153.293 143.904 156.411 133.168 156.411 126.549C156.411 121.931 153.629 122.676 149.047 124.822L143.447 127.513C138.72 129.695 133.01 131.877 126.865 131.877C120.719 131.877 115.028 129.695 110.291 127.513L104.937 124.94C100.209 122.685 97.3184 121.831 97.3184 126.549C97.3184 132.94 100.228 143.195 108.11 149.823L109.746 151.095H109.755Z" fill="#3A3B45"/>
<path d="M180.838 113.058C181.801 113.067 182.756 112.885 183.649 112.524C184.542 112.163 185.355 111.629 186.041 110.954C186.728 110.278 187.274 109.474 187.65 108.587C188.025 107.7 188.222 106.748 188.229 105.785C188.229 101.776 184.92 98.5122 180.838 98.5122C179.876 98.5051 178.921 98.6875 178.03 99.0491C177.138 99.4107 176.326 99.9444 175.641 100.62C174.955 101.295 174.409 102.099 174.034 102.985C173.66 103.871 173.463 104.823 173.456 105.785C173.456 109.803 176.765 113.058 180.838 113.058ZM75.1621 113.058C76.1244 113.065 77.0786 112.883 77.9704 112.521C78.8622 112.16 79.674 111.626 80.3595 110.951C81.0449 110.275 81.5907 109.471 81.9655 108.585C82.3404 107.699 82.537 106.747 82.5441 105.785C82.5441 101.776 79.235 98.5122 75.1621 98.5122C74.1991 98.5039 73.2439 98.6854 72.351 99.0465C71.4582 99.4075 70.6453 99.9411 69.9589 100.617C69.2724 101.292 68.7259 102.096 68.3504 102.983C67.975 103.87 67.7781 104.822 67.771 105.785C67.771 109.803 71.0802 113.058 75.1621 113.058ZM59.9526 137.668C56.2707 137.668 52.9978 139.141 50.7069 141.85C48.7526 144.217 47.6824 147.19 47.6795 150.259C46.2473 149.835 44.7638 149.609 43.2703 149.586C39.752 149.586 36.5701 150.914 34.3155 153.305C32.3123 155.339 31.0456 157.984 30.7162 160.82C30.3869 163.656 31.0137 166.52 32.4972 168.96C30.4942 170.566 29.0679 172.781 28.4335 175.269C27.888 177.287 27.3426 181.542 30.2517 185.869C29.1602 187.513 28.5091 189.41 28.3611 191.377C28.2131 193.345 28.5729 195.317 29.4063 197.106C31.5699 201.952 36.7701 205.815 46.5886 209.879L48.7704 210.752C55.7525 213.479 62.1617 215.225 62.2072 215.243C70.2983 217.452 78.644 218.652 87.0443 218.825C100.363 218.825 109.89 214.797 115.363 206.879C123.818 194.679 123.018 183.469 112.872 172.669L111.5 171.269C105.208 165.051 100.999 155.905 100.136 153.887C98.3628 147.932 93.6808 141.313 85.9352 141.313C81.7532 141.377 77.8531 143.432 75.4803 146.814C73.2075 143.995 70.9802 141.786 68.9801 140.504C66.3 138.724 63.1696 137.74 59.9526 137.668ZM196.047 137.668C199.729 137.668 203.02 139.141 205.293 141.85C207.257 144.232 208.32 147.195 208.32 150.259C209.757 149.832 211.248 149.614 212.748 149.586C216.275 149.586 219.457 150.914 221.703 153.305C223.706 155.339 224.973 157.984 225.302 160.82C225.631 163.656 225.005 166.52 223.521 168.96C225.521 170.578 226.948 172.796 227.566 175.269C228.112 177.287 228.657 181.542 225.748 185.869C227.967 189.233 228.285 193.47 226.594 197.106C224.43 201.952 219.23 205.815 209.421 209.879L207.248 210.752C200.248 213.479 193.838 215.225 193.793 215.243C185.702 217.452 177.356 218.652 168.956 218.825C155.637 218.825 146.11 214.797 140.637 206.879C132.182 194.679 132.982 183.469 143.128 172.669L144.5 171.269C150.819 165.051 155.019 155.905 155.883 153.887C157.655 147.932 162.319 141.313 170.065 141.313C174.247 141.377 178.147 143.432 180.52 146.814C182.792 143.995 185.02 141.786 187.047 140.504C189.265 139.032 191.802 138.095 194.447 137.777L196.047 137.668Z" fill="#FF9D0B"/>
<path d="M107.863 201.843C114.117 192.806 113.663 186.024 105.09 177.597C96.4986 169.16 91.4985 156.796 91.4985 156.796C91.4985 156.796 89.6348 149.632 85.3892 150.305C81.1346 150.978 78.0254 161.669 86.9347 168.224C95.8168 174.779 85.162 179.224 81.7255 173.079C78.3163 166.924 68.9524 151.114 64.0886 148.069C59.2521 145.05 55.8429 146.723 56.9793 152.987C58.1157 159.233 78.4072 174.351 76.4344 177.597C74.4526 180.888 67.4978 173.779 67.4978 173.779C67.4978 173.779 45.7517 154.278 40.9971 159.369C36.2697 164.442 44.6153 168.697 56.4521 175.76C68.3433 182.833 69.2706 184.715 67.5887 187.397C65.8887 190.079 39.6788 168.306 37.2242 177.551C34.7696 186.743 63.9795 189.406 62.1795 195.788C60.3613 202.152 41.588 183.752 37.7697 190.906C33.9059 198.088 64.2523 206.525 64.4977 206.589C74.2707 209.098 99.1624 214.398 107.863 201.843ZM148.155 201.843C141.909 192.806 142.336 186.024 150.927 177.597C159.5 169.16 164.501 156.796 164.501 156.796C164.501 156.796 166.364 149.632 170.637 150.305C174.865 150.978 177.974 161.669 169.092 168.224C160.182 174.779 170.864 179.224 174.274 173.079C177.701 166.924 187.065 151.114 191.91 148.069C196.747 145.05 200.183 146.723 199.02 152.987C197.883 159.233 177.61 174.351 179.592 177.597C181.547 180.888 188.501 173.779 188.501 173.779C188.501 173.779 210.275 154.278 215.002 159.369C219.729 164.442 211.411 168.697 199.547 175.76C187.656 182.833 186.747 184.715 188.41 187.397C190.11 190.079 216.32 168.306 218.775 177.551C221.23 186.743 192.047 189.406 193.838 195.788C195.656 202.152 214.411 183.752 218.248 190.906C222.093 198.088 191.774 206.525 191.52 206.589C181.728 209.098 156.837 214.398 148.155 201.843Z" fill="#FFD21E"/>
</svg>
