<svg width="256" height="256" viewBox="0 0 256 256" fill="none" xmlns="http://www.w3.org/2000/svg">
<rect width="256" height="256" fill="#232932"/>
<path d="M42.3986 132.746C32.3422 135.055 26.0842 144.565 28.5299 154.758C30.8392 164.951 40.6222 170.936 50.5422 168.627C60.5985 166.318 66.7199 156.808 64.4106 146.615C62.1015 136.408 52.3185 130.437 42.3986 132.746Z" fill="#FFB5D6"/>
<path d="M51.0819 94.2786C59.1025 100.673 70.375 99.5802 76.9061 91.4228C83.4236 83.2655 81.9343 71.9933 74.0506 65.5986C66.1666 59.2041 54.7438 60.297 48.2263 68.4544C41.7086 76.6114 43.1981 87.8839 51.0819 94.2786Z" fill="#D2A7E9"/>
<path d="M99.7456 190.915C90.3724 186.433 79.6326 190.232 75.1512 199.482C70.6694 208.719 74.3313 219.459 83.7183 224.076C93.0915 228.559 103.831 224.76 108.313 215.51C112.658 206.136 109.132 195.397 99.7456 190.915Z" fill="#FFDCDC"/>
<path d="M156.28 190.907C146.907 195.388 143.23 206.265 147.713 215.501C152.194 224.738 162.797 228.686 172.307 224.068C181.681 219.587 185.356 208.711 180.874 199.474C176.392 190.237 165.667 186.288 156.28 190.907Z" fill="#FFD1A4"/>
<path d="M213.645 132.745C203.589 130.436 193.942 136.421 191.633 146.614C189.324 156.807 195.445 166.453 205.501 168.626C215.558 170.935 225.205 164.95 227.513 154.758C229.824 144.565 223.701 135.055 213.645 132.745Z" fill="url(#paint0_linear_241_31)"/>
<path d="M207.525 94.2945C215.546 87.8998 216.899 76.6273 210.381 68.47C203.864 60.3129 192.577 59.2335 184.557 65.6145C176.536 72.0092 175.184 83.2814 181.701 91.4387C188.232 99.5958 199.505 100.675 207.525 94.2945Z" fill="#A0B0F6"/>
<path d="M128.017 30C117.413 30 109.529 38.1571 109.529 48.4868C109.529 58.8165 117.413 66.9738 128.017 66.9738C138.482 66.9738 146.503 58.8165 146.503 48.4868C146.489 38.1434 138.482 30 128.017 30Z" fill="#BBABED"/>
<defs>
<linearGradient id="paint0_linear_241_31" x1="204.314" y1="168.394" x2="214.517" y2="134.04" gradientUnits="userSpaceOnUse">
<stop offset="0.2656" stop-color="#FFB7B2"/>
<stop offset="0.5781" stop-color="#AB9EFC"/>
</linearGradient>
</defs>
</svg>
