<svg width="256" height="256" viewBox="0 0 256 256" fill="none" xmlns="http://www.w3.org/2000/svg">
<rect width="256" height="256" fill="#009889"/>
<path d="M152.467 48.725V86.3667L194.767 195C194.767 195 207.683 221.533 170.75 228H86.5C86.5 228 52.0666 224.408 60.325 197.15L104.775 86.3667V48.725H152.467ZM169.883 157.958C132.967 146.508 101.925 152.65 86.7583 157.3L71.4583 194.125C64.9333 214.95 90.4 218.633 93.1 218.958L93.3333 218.992H163.7C193.2 214.008 184.625 194.225 183.825 192.517L183.767 192.4L169.883 157.958ZM104.767 164.433C111.35 164.433 116.683 167.65 116.683 171.642C116.683 175.608 111.35 178.842 104.767 178.842C98.2 178.842 92.875 175.608 92.875 171.642C92.875 167.65 98.2 164.433 104.767 164.433ZM147.133 164.433C153.692 164.433 159.025 167.65 159.025 171.642C159.025 175.608 153.692 178.842 147.133 178.842C140.55 178.842 135.225 175.608 135.225 171.642C135.225 167.65 140.542 164.433 147.142 164.433M109.642 120.992C105.042 120.992 101.308 125.492 101.308 131.033C101.308 136.583 105.042 141.075 109.642 141.075C114.242 141.075 117.975 136.575 117.975 131.033C117.975 125.483 114.242 120.992 109.642 120.992ZM139.983 110.183C134.525 110.183 130.1 115.5 130.1 122.1C130.1 128.65 134.525 133.983 139.983 133.983C145.425 133.983 149.875 128.65 149.875 122.092C149.875 115.508 145.433 110.183 139.983 110.183ZM190.292 87.3667C190.292 87.3667 172.608 100.25 156.242 83.8667V65.9667C156.242 65.9667 178.942 60.9667 190.292 87.3667ZM66.5916 87.3667C77.925 60.9667 100.633 65.9667 100.633 65.9667V83.8667C84.2583 100.25 66.5916 87.3667 66.5916 87.3667ZM153.367 28C157.492 28 160.825 31.6583 160.825 36.175C160.825 40.6917 157.492 44.3417 153.367 44.3417H102.617C98.5167 44.3417 95.1666 40.6917 95.1666 36.175C95.1666 31.6583 98.5166 28 102.625 28H153.367Z" fill="white"/>
</svg>
