<svg width="256" height="256" viewBox="0 0 256 256" fill="none" xmlns="http://www.w3.org/2000/svg">
<rect width="256" height="256" fill="#232932"/>
<g clip-path="url(#clip0_115_22)">
<path d="M59.6406 169.094L30.2656 145.812L47.5313 113.781L73.5469 122.453L59.6406 169.094Z" fill="url(#paint0_linear_115_22)"/>
<path d="M228 81.2812L224.406 197.141L147.375 228L105.422 200.891L228 81.2812Z" fill="#087CFA"/>
<path d="M228 81.2812L189.875 118.469L140.891 58.4687L165.109 31.2812L228 81.2812Z" fill="url(#paint1_linear_115_22)"/>
<path d="M105.422 200.891L44.0938 223.078L56.9844 178.156L73.5469 122.453L28 107.219L56.9844 28L122.453 35.7344L189.875 118.469L105.422 200.891Z" fill="url(#paint2_linear_115_22)"/>
<path d="M66.3594 65.5H191.359V190.5H66.3594V65.5Z" fill="black"/>
<path d="M81.9062 166.906H128.781V174.719H81.9062V166.906ZM105.344 89.7188V81.125H82.0625V89.7188H88.625V119.172H82.0625V127.766H105.344V119.172H98.8594V89.7188H105.344ZM127.609 128.312L127.766 128.391C124.562 128.547 121.438 127.766 118.547 126.359C116.254 125.106 114.214 123.437 112.531 121.437L118.938 114.25C120.109 115.578 121.437 116.672 123 117.609C124.328 118.469 125.891 118.938 127.453 118.859C129.172 119.016 130.813 118.313 131.984 117.062C133.255 115.386 133.867 113.301 133.703 111.203V81.125H144.094V111.594C144.141 114.092 143.744 116.578 142.922 118.938C141.594 122.844 138.469 125.969 134.484 127.219C132.297 128 129.953 128.391 127.609 128.312Z" fill="white"/>
</g>
<defs>
<linearGradient id="paint0_linear_115_22" x1="1631.67" y1="2934.72" x2="7748.48" y2="2626.03" gradientUnits="userSpaceOnUse">
<stop offset="0.09" stop-color="#FC801D"/>
<stop offset="0.23" stop-color="#B07F61"/>
<stop offset="0.41" stop-color="#577DB3"/>
<stop offset="0.53" stop-color="#1E7CE6"/>
<stop offset="0.59" stop-color="#087CFA"/>
</linearGradient>
<linearGradient id="paint1_linear_115_22" x1="6552.14" y1="10040.4" x2="3236.64" y2="128.975" gradientUnits="userSpaceOnUse">
<stop stop-color="#FE2857"/>
<stop offset="0.08" stop-color="#CB3979"/>
<stop offset="0.16" stop-color="#9E4997"/>
<stop offset="0.25" stop-color="#7557B2"/>
<stop offset="0.34" stop-color="#5362C8"/>
<stop offset="0.44" stop-color="#386CDA"/>
<stop offset="0.54" stop-color="#2373E8"/>
<stop offset="0.66" stop-color="#1478F2"/>
<stop offset="0.79" stop-color="#0B7BF8"/>
<stop offset="1" stop-color="#087CFA"/>
</linearGradient>
<linearGradient id="paint2_linear_115_22" x1="4657.62" y1="4631.84" x2="16124.1" y2="23625.8" gradientUnits="userSpaceOnUse">
<stop stop-color="#FE2857"/>
<stop offset="0.08" stop-color="#FE295F"/>
<stop offset="0.21" stop-color="#FF2D76"/>
<stop offset="0.3" stop-color="#FF318C"/>
<stop offset="0.38" stop-color="#EA3896"/>
<stop offset="0.55" stop-color="#B248AE"/>
<stop offset="0.79" stop-color="#5A63D6"/>
<stop offset="1" stop-color="#087CFA"/>
</linearGradient>
<clipPath id="clip0_115_22">
<rect width="200" height="200" fill="white" transform="translate(28 28)"/>
</clipPath>
</defs>
</svg>
