<svg width="256" height="256" viewBox="0 0 256 256" fill="none" xmlns="http://www.w3.org/2000/svg">
<rect width="256" height="256" fill="#340000"/>
<path d="M128.401 165.312H84.1717L75.1728 193.266C75.0503 193.776 74.7536 194.227 74.3341 194.541C73.9146 194.856 73.3987 195.014 72.8752 194.989H50.4734C49.1958 194.989 48.7491 194.287 49.1332 192.883L87.4263 82.5981C87.8096 81.4495 88.1926 80.1412 88.5756 78.673C89.0765 76.1183 89.3329 73.522 89.3415 70.9186C89.3155 70.7367 89.3322 70.551 89.3902 70.3767C89.4487 70.2021 89.5464 70.0438 89.6765 69.9137C89.8066 69.7836 89.9652 69.6855 90.1395 69.6274C90.3141 69.569 90.4995 69.5523 90.6818 69.5784H121.125C122.017 69.5784 122.527 69.8973 122.657 70.5357L166.12 193.075C166.503 194.352 166.12 194.99 164.971 194.989H140.08C139.653 195.037 139.222 194.927 138.87 194.68C138.518 194.434 138.267 194.067 138.166 193.649L128.401 165.312ZM91.0645 141.187H121.316C120.551 138.635 119.657 135.763 118.636 132.571C117.613 129.382 116.528 125.967 115.381 122.327C114.232 118.69 113.083 115.052 111.934 111.414C110.786 107.776 109.733 104.266 108.775 100.883C107.818 97.5025 106.956 94.4073 106.191 91.597H105.999C104.921 96.7682 103.579 101.881 101.978 106.914C100.189 112.658 98.3701 118.53 96.5212 124.529C94.6693 130.531 92.8503 136.083 91.0645 141.187Z" fill="#FF9A00"/>
<path d="M191.964 89.8736C190.012 89.9522 188.064 89.6176 186.25 88.8916C184.435 88.1656 182.794 87.065 181.434 85.6614C180.078 84.197 179.024 82.4789 178.334 80.6061C177.644 78.7329 177.331 76.7422 177.413 74.7479C177.343 72.7732 177.691 70.8061 178.433 68.975C179.175 67.1439 180.296 65.4899 181.721 64.1214C183.132 62.7669 184.798 61.7056 186.622 60.9991C188.446 60.2922 190.392 59.9545 192.347 60.0049C196.943 60.0049 200.549 61.3769 203.165 64.1214C204.486 65.5476 205.513 67.2201 206.186 69.0435C206.86 70.8669 207.167 72.8055 207.09 74.7479C207.17 76.7498 206.847 78.7479 206.14 80.6225C205.433 82.4974 204.356 84.2109 202.974 85.6614C201.529 87.0855 199.805 88.1952 197.91 88.9201C196.015 89.645 193.991 89.9696 191.964 89.8736ZM178.753 193.074V101.553C178.753 100.404 179.262 99.8298 180.285 99.8298H203.835C204.856 99.8298 205.366 100.404 205.367 101.553V193.074C205.367 194.352 204.857 194.99 203.835 194.989H180.476C179.328 194.989 178.753 194.351 178.753 193.074Z" fill="#FF9A00"/>
</svg>
