<svg width="256" height="256" viewBox="0 0 256 256" fill="none" xmlns="http://www.w3.org/2000/svg">
<rect width="256" height="256" fill="#49021F"/>
<path d="M87.9075 71.6495V191.238C87.9075 192.491 87.3444 193.116 86.2182 193.116H63.5014C62.4987 193.116 61.9983 192.49 62 191.238V71.6495C62 70.6492 62.5631 70.1485 63.6894 70.1474H86.4057C86.6097 70.1184 86.8174 70.1376 87.0132 70.2027C87.2086 70.2678 87.386 70.3777 87.5316 70.5233C87.6776 70.6693 87.7874 70.8466 87.8526 71.0421C87.9177 71.2375 87.9365 71.4456 87.9075 71.6495Z" fill="#FF3366"/>
<path d="M155.119 194.993C146.478 195.125 137.916 193.329 130.056 189.736C122.734 186.348 116.613 180.816 112.503 173.873C108.246 166.803 106.118 157.948 106.12 147.308C106.049 138.691 108.251 130.209 112.503 122.714C116.883 115.08 123.324 108.835 131.089 104.692C139.223 100.186 149.048 97.9328 160.564 97.9328C161.188 97.9328 162.002 97.9642 163.004 98.0269C164.004 98.0914 165.193 98.1852 166.571 98.3083V61.3242C166.571 60.45 166.947 60.01 167.698 60.01H191.352C191.505 59.9882 191.662 60.0022 191.808 60.0513C191.955 60.1 192.088 60.1822 192.197 60.2914C192.307 60.4009 192.389 60.5339 192.438 60.6806C192.487 60.8272 192.501 60.9834 192.479 61.1362V172.089C192.479 174.219 192.573 176.534 192.76 179.035C192.948 181.54 193.105 183.793 193.23 185.794C193.253 186.184 193.158 186.572 192.957 186.907C192.756 187.242 192.458 187.508 192.104 187.671C186.001 190.217 179.645 192.104 173.142 193.303C167.197 194.401 161.165 194.966 155.119 194.993ZM166.571 171.714V120.462C165.556 120.187 164.52 119.998 163.474 119.898C162.195 119.769 160.91 119.707 159.625 119.71C155.069 119.665 150.567 120.694 146.483 122.714C142.506 124.691 139.11 127.667 136.627 131.35C134.06 135.105 132.778 140.049 132.778 146.181C132.687 150.274 133.355 154.348 134.749 158.196C135.884 161.298 137.678 164.116 140.006 166.457C142.236 168.611 144.935 170.218 147.891 171.15C151.014 172.162 154.277 172.669 157.56 172.652C159.311 172.652 160.938 172.59 162.441 172.465C163.84 172.359 165.224 172.107 166.571 171.714Z" fill="#FF3366"/>
</svg>
