<svg width="256" height="256" viewBox="0 0 256 256" fill="none" xmlns="http://www.w3.org/2000/svg">
<rect width="256" height="256" fill="#232932"/>
<path d="M102.813 221.75C99 221.75 96.75 219.337 96.75 215.312V213.187C96.75 209.175 98.5375 207.3 101.856 205.963L109.25 203.281C114.356 201.156 116.131 198.725 116.131 193.1V62.9C116.131 57.275 114.356 54.8625 109.25 52.7125L101.806 50.0375C98.4938 48.7 96.75 46.85 96.75 42.8062V40.6813C96.75 36.6625 99.0438 34.25 102.869 34.25H153.119C156.956 34.25 159.25 36.6625 159.25 40.6875V42.8125C159.25 46.825 157.463 48.7 154.144 50.0375L146.706 52.6937C141.344 54.8187 139.55 57.25 139.55 62.8812V193.056C139.55 198.681 141.344 201.094 146.7 203.244L154.094 205.919C157.406 207.256 159.2 209.106 159.2 213.15V215.275C159.2 219.294 156.906 221.712 153.075 221.712L102.813 221.75Z" fill="white"/>
</svg>
