<svg width="256" height="256" viewBox="0 0 256 256" fill="none" xmlns="http://www.w3.org/2000/svg">
<rect width="256" height="256" fill="#167DB7"/>
<path d="M101.686 179.62C101.444 181.316 99.9898 182.528 98.051 182.528H71.1505C69.4541 182.528 68 181.559 68 179.862L68.2423 179.378L85.449 35.6658C85.6913 33.9694 85.9337 33.2423 87.8725 33H116.954C118.408 33 119.135 33.9694 119.135 35.4235V35.9082L101.686 179.62ZM170.27 184.467C166.393 215.73 146.763 223 123.255 223C109.441 223 107.503 222.515 103.867 222.031C102.171 221.788 100.232 221.546 100.232 218.88V217.668L101.686 206.036C102.171 202.643 103.383 201.916 106.533 201.916C109.441 201.673 113.077 201.673 117.439 201.431C127.86 200.946 135.13 199.977 137.069 185.194L155.245 35.9082C155.487 34.2117 156.941 33.2423 158.638 33L186.023 33.4847H186.508C188.204 33.4847 188.931 34.4541 188.931 35.9082L170.27 184.467Z" fill="white"/>
</svg>
