<svg width="256" height="256" viewBox="0 0 256 256" fill="none" xmlns="http://www.w3.org/2000/svg">
<g clip-path="url(#clip0_17_214)">
<rect width="256" height="256" fill="white"/>
<rect width="256" height="256" fill="black"/>
<path fill-rule="evenodd" clip-rule="evenodd" d="M217.791 66.5419V197.451H194.652V66.5419H217.791ZM108.103 197.451V139.922C108.103 135.192 108.977 131.165 110.723 127.841C112.513 124.518 114.964 121.982 118.074 120.235C121.228 118.445 124.829 117.55 128.877 117.55C134.843 117.55 139.509 119.404 142.876 123.111C146.285 126.819 147.989 131.954 147.989 138.516V197.451H171.128V134.936C171.171 127.095 169.786 120.426 166.974 114.929C164.204 109.432 160.284 105.235 155.213 102.337C150.184 99.4395 144.282 97.9906 137.506 97.9906C130.177 97.9906 124.019 99.6096 119.033 102.848C114.09 106.087 110.489 110.455 108.231 115.952H107.08V99.2687H84.9641V197.451H108.103ZM38.0308 197.451V99.2687H61.1706V197.451H38.0308ZM49.6648 85.3344C46.0001 85.3344 42.8465 84.1199 40.2041 81.6907C37.5622 79.219 36.241 76.2578 36.241 72.8058C36.241 69.3113 37.5622 66.3501 40.2041 63.921C42.8465 61.4493 46.0001 60.2138 49.6648 60.2138C53.372 60.2138 56.5256 61.4493 59.1249 63.921C61.7667 66.3501 63.088 69.3113 63.088 72.8058C63.088 76.2578 61.7667 79.219 59.1249 81.6907C56.5256 84.1199 53.372 85.3344 49.6648 85.3344Z" fill="white"/>
</g>
<defs>
<clipPath id="clip0_17_214">
<rect width="256" height="256" fill="white"/>
</clipPath>
</defs>
</svg>
