<svg width="256" height="256" viewBox="0 0 256 256" fill="none" xmlns="http://www.w3.org/2000/svg">
<g clip-path="url(#clip0_17_214)">
<rect width="256" height="256" fill="white"/>
<rect width="256" height="256" fill="black"/>
<path fill-rule="evenodd" clip-rule="evenodd" d="M64.5214 41.1218H194.92C207.86 41.1218 218.35 51.6121 218.35 64.5527V194.951C218.35 207.891 207.86 218.382 194.92 218.382H64.5214C51.5809 218.382 41.0905 207.891 41.0905 194.951V64.5526C41.0905 51.6121 51.5809 41.1218 64.5214 41.1218ZM31.9219 64.5526C31.9219 46.5484 46.5172 31.9531 64.5214 31.9531H194.92C212.924 31.9531 227.519 46.5484 227.519 64.5527V194.951C227.519 212.955 212.924 227.55 194.92 227.55H64.5214C46.5172 227.55 31.9219 212.955 31.9219 194.951V64.5526ZM184.604 172.203V92.186H170.461V172.203H184.604ZM117.559 137.039V172.203H103.415V112.19H116.934V122.388H117.637C119.017 119.028 121.218 116.358 124.24 114.378C127.287 112.398 131.051 111.409 135.531 111.409C139.673 111.409 143.28 112.294 146.354 114.066C149.454 115.837 151.85 118.402 153.543 121.762C155.262 125.122 156.108 129.199 156.082 133.992V172.203H141.939V136.18C141.939 132.168 140.897 129.03 138.813 126.764C136.756 124.498 133.903 123.364 130.257 123.364C127.782 123.364 125.581 123.911 123.654 125.005C121.752 126.073 120.254 127.623 119.16 129.655C118.093 131.686 117.559 134.148 117.559 137.039ZM74.7276 112.19V172.203H88.8716V112.19H74.7276ZM76.056 101.446C77.6712 102.93 79.5988 103.673 81.8388 103.673C84.1048 103.673 86.0324 102.93 87.6212 101.446C89.236 99.9348 90.0436 98.1248 90.0436 96.0148C90.0436 93.8788 89.236 92.0688 87.6212 90.584C86.0324 89.0732 84.1048 88.318 81.8388 88.318C79.5988 88.318 77.6712 89.0732 76.056 90.584C74.4412 92.0688 73.6336 93.8788 73.6336 96.0148C73.6336 98.1248 74.4412 99.9348 76.056 101.446Z" fill="white"/>
</g>
<defs>
<clipPath id="clip0_17_214">
<rect width="256" height="256" fill="white"/>
</clipPath>
</defs>
</svg>
