<svg width="256" height="256" viewBox="0 0 256 256" fill="none" xmlns="http://www.w3.org/2000/svg">
<g clip-path="url(#clip0_334_57)">
<rect width="256" height="256" fill="#232932"/>
<path fill-rule="evenodd" clip-rule="evenodd" d="M45 63.5089C45 54.3913 52.3824 47 61.4891 47H151.263C160.37 47 167.753 54.3913 167.753 63.5089C167.753 72.6265 160.37 80.0178 151.263 80.0178H61.4891C52.3824 80.0178 45 72.6265 45 63.5089ZM61.4891 111.201C52.3824 111.201 45 118.592 45 127.71C45 136.828 52.3824 144.219 61.4891 144.219H200.731C209.838 144.219 217.22 136.828 217.22 127.71C217.22 118.592 209.838 111.201 200.731 111.201H61.4891ZM61.4891 174.669C52.3824 174.669 45 182.06 45 191.178C45 200.295 52.3824 207.686 61.4891 207.686H127.446C136.552 207.686 143.935 200.295 143.935 191.178C143.935 182.06 136.552 174.669 127.446 174.669H61.4891ZM351.515 60.574V194.479H378.264V60.574H351.515ZM406.374 99.0947V194.479H431.656V138.349C431.656 134.314 432.572 130.828 434.404 127.893C436.361 124.836 439.047 122.452 442.465 120.74C445.888 118.905 449.794 117.988 454.191 117.988C460.054 117.988 464.33 119.822 467.016 123.491C469.705 127.038 471.047 132.785 471.047 140.734V194.479H496.147V135.781C496.147 122.452 493.398 112.73 487.902 106.615C482.53 100.379 474.103 97.2604 462.619 97.2604C455.781 97.2604 449.735 98.3609 444.481 100.562C439.351 102.641 434.833 105.882 430.923 110.284H430.557L430.373 99.0947H406.374ZM534.735 189.343C539.865 193.99 548.172 196.314 559.652 196.314C563.683 196.314 567.592 196.008 571.378 195.396C575.163 194.907 579.135 194.051 583.286 192.828L581.271 172.834C578.827 173.69 576.141 174.363 573.21 174.852C570.399 175.341 567.713 175.586 565.148 175.586C560.385 175.586 557.087 174.485 555.255 172.284C553.423 169.961 552.507 165.925 552.507 160.178V118.722H583.47V99.0947H552.507V67.9112H527.223V99.0947H506.52V118.722H527.223V166.414C527.223 177.053 529.726 184.696 534.735 189.343ZM606.258 60.574V194.479H631.907V60.574H606.258ZM659.199 188.426C664.695 193.684 672.144 196.314 681.551 196.314C687.78 196.314 693.888 195.152 699.872 192.828C705.856 190.505 710.561 187.387 713.979 183.473H714.162L714.529 194.479H738.53V134.314C738.53 125.142 737.247 117.866 734.682 112.485C732.117 106.982 728.024 103.069 722.407 100.746C716.79 98.4222 709.095 97.2604 699.322 97.2604C691.627 97.2604 683.87 97.9328 676.054 99.2781C668.359 100.501 661.335 102.274 654.985 104.598L658.099 124.041C663.962 121.718 670.191 119.945 676.787 118.722C683.383 117.377 689.733 116.704 695.841 116.704C700.484 116.704 704.023 117.193 706.468 118.172C709.033 119.027 710.802 120.617 711.781 122.941C712.88 125.264 713.43 128.566 713.43 132.846H700.788C684.911 132.846 672.635 135.842 663.962 141.834C655.413 147.826 651.137 156.325 651.137 167.331C651.137 176.136 653.823 183.168 659.199 188.426ZM702.254 175.036C698.835 176.503 694.987 177.237 690.711 177.237C685.702 177.237 681.796 176.136 678.986 173.935C676.3 171.734 674.955 168.677 674.955 164.763C674.955 159.505 677.399 155.653 682.283 153.207C687.168 150.639 694.559 149.355 704.452 149.355H713.43V160.178C713.43 163.357 712.393 166.292 710.315 168.982C708.362 171.55 705.672 173.568 702.254 175.036ZM785.22 193.929L769.463 233H796.029L848.428 99.0947H821.313L798.045 169.716H797.678L774.593 99.0947L747.661 99.2781L785.22 193.929ZM868.16 183.473C877.442 192.033 890.633 196.314 907.734 196.314C913.842 196.314 919.888 195.763 925.872 194.663C931.98 193.684 937.294 192.278 941.812 190.444L938.88 171.183C934.362 172.896 929.17 174.241 923.307 175.219C917.444 176.197 911.886 176.686 906.635 176.686C897.353 176.686 890.45 174.669 885.932 170.633C882.191 167.292 879.999 162.401 879.354 155.959H946.209C946.33 154.858 946.392 153.207 946.392 151.006C946.513 148.805 946.575 146.848 946.575 145.136C946.575 129.85 942.665 118.049 934.85 109.734C927.155 101.418 916.162 97.2604 901.871 97.2604C887.093 97.2604 875.489 101.663 867.061 110.467C858.633 119.272 854.419 131.379 854.419 146.787C854.419 162.684 858.999 174.913 868.16 183.473ZM879.42 138.533C880.065 131.873 881.868 126.676 884.832 122.941C888.618 118.049 894.297 115.604 901.871 115.604C909.079 115.604 914.392 117.927 917.811 122.574C920.662 126.312 922.362 131.631 922.922 138.533H879.42ZM989.678 99.0947H965.494V194.479H990.96V150.456C990.96 144.586 992.792 139.266 996.457 134.497C1000.12 129.606 1005.07 125.754 1011.3 122.941C1017.53 120.128 1024.43 118.722 1032 118.722V97.2604C1026.5 97.2604 1021.13 98.0553 1015.88 99.645C1010.75 101.112 1005.98 103.314 1001.59 106.249C997.314 109.061 993.588 112.607 990.411 116.888H989.861L989.678 99.0947Z" fill="white"/>
</g>
<defs>
<clipPath id="clip0_334_57">
<rect width="256" height="256" fill="white"/>
</clipPath>
</defs>
</svg>
