<svg width="256" height="256" viewBox="0 0 256 256" fill="none" xmlns="http://www.w3.org/2000/svg">
<rect width="256" height="256" fill="#8A4182"/>
<g clip-path="url(#clip0_93_96)">
<path d="M120.188 109.941H135.812L139.719 105.259V63.8979H116.281V105.259L120.188 109.941ZM110.812 128.671L115.5 113.843L111.594 108.38L71.75 95.894L64.7188 117.745L104.562 130.231L110.812 128.671ZM124.875 143.498L112.375 134.914L106.125 136.474L81.9062 170.031L100.656 183.298L124.875 150.521V143.498ZM143.625 134.914L131.125 143.498V150.521L155.344 183.298L174.094 170.031L149.875 136.474L143.625 134.914ZM141.281 113.843L145.969 128.671L152.219 130.231L191.281 117.745L184.25 95.894L145.188 108.38L141.281 113.843Z" fill="white"/>
<path d="M128 28C73.3125 28 28 72.4824 28 127.11C28 153.602 38.5357 179.01 57.2893 197.743C76.043 216.476 101.478 227 128 227C154.522 227 179.957 216.476 198.711 197.743C217.464 179.01 228 153.602 228 127.11C228 72.4824 183.469 28 128 28ZM128 48.2902C171.75 48.2902 207.688 83.4078 207.688 127.11C207.688 170.812 171.75 206.71 128 206.71C84.25 206.71 48.3125 170.812 48.3125 127.11C48.3125 83.4078 84.25 48.2902 128 48.2902Z" fill="white"/>
<path d="M188.938 148.961L158.469 139.596L160.812 133.353L190.5 143.498L188.938 148.961ZM150.656 101.357L145.188 97.455L163.938 72.4824L168.625 76.3844L150.656 101.357ZM106.125 101.357L87.375 75.604L92.8438 72.4824L111.594 97.455L106.125 101.357ZM67.8438 148.961L65.5 142.718L95.1875 133.353L97.5312 139.596L67.8438 148.961ZM124.875 190.322H131.125V159.106H124.875V190.322Z" fill="white"/>
</g>
<defs>
<clipPath id="clip0_93_96">
<rect width="200" height="199" fill="white" transform="translate(28 28)"/>
</clipPath>
</defs>
</svg>
