<svg width="256" height="256" viewBox="0 0 256 256" fill="none" xmlns="http://www.w3.org/2000/svg">
<rect width="256" height="256" fill="#1BDF16"/>
<g clip-path="url(#clip0_49_1329)">
<path d="M133.949 102.659L110.342 33H210.634L186.946 102.862C185.926 103.105 184.924 103.416 183.946 103.791L160.546 56.0572L137.077 103.509C136.055 103.155 135.01 102.871 133.949 102.659ZM56.8219 216.689C88.3667 238.845 123.356 195.973 171.017 190.572C198.386 188.95 216.989 172.196 206.389 146.26C186.681 158.398 168.263 142.492 168.392 126.532H153.416C152.924 140.781 142.206 151.992 125.591 150.325C112.585 169.78 97.5124 180.711 80.4094 186.267C68.8496 180.932 57.9713 167.938 62.9033 150.583C60.7572 150.343 58.6532 149.815 56.6482 149.013C40.7491 178.7 38.7844 202.162 56.8219 216.689ZM80.3062 126.534C80.3062 115.258 68.0154 108.173 58.2362 113.81C48.4571 119.448 48.4563 133.619 58.2362 139.257C68.0154 144.895 80.3062 137.81 80.3062 126.534ZM143.918 126.394C143.918 115.119 131.626 108.033 121.847 113.671C112.068 119.309 112.068 133.48 121.847 139.117C131.627 144.755 143.917 137.67 143.917 126.394M207.29 126.394C207.29 115.119 194.998 108.033 185.219 113.671C175.44 119.309 175.44 133.48 185.219 139.117C194.999 144.755 207.289 137.67 207.289 126.394" fill="#232526"/>
</g>
<defs>
<clipPath id="clip0_49_1329">
<rect width="167" height="190" fill="white" transform="translate(44 33)"/>
</clipPath>
</defs>
</svg>
