<svg width="256" height="256" viewBox="0 0 256 256" fill="none" xmlns="http://www.w3.org/2000/svg">
<rect width="256" height="256" fill="#232932"/>
<g clip-path="url(#clip0_115_32)">
<path d="M115.607 119.362L60.6485 72.8248C58.4051 70.9753 55.7844 69.6402 52.9704 68.9132C50.1564 68.1862 47.2176 68.0851 44.3604 68.6169C41.5032 69.1487 38.7971 70.3006 36.4322 71.9915C34.0672 73.6824 32.101 75.8714 30.6716 78.4045C29.2421 80.9376 28.3843 83.7534 28.1582 86.654C27.9322 89.5545 28.3435 92.4695 29.3633 95.1939C30.383 97.9183 31.9864 100.386 34.0608 102.424C36.1351 104.461 38.6301 106.019 41.3703 106.988H41.6035L42.1477 107.144L111.331 128.233C111.828 128.425 112.354 128.53 112.886 128.545C113.954 128.522 114.986 128.157 115.831 127.502C116.675 126.846 117.286 125.936 117.574 124.907C117.861 123.877 117.81 122.781 117.428 121.783C117.046 120.784 116.353 119.935 115.451 119.362H115.607Z" fill="url(#paint0_linear_115_32)"/>
<path d="M126.567 42.5527C126.588 39.9324 125.898 37.3557 124.57 35.0973C123.243 32.839 121.328 30.9838 119.03 29.7296C116.731 28.4754 114.136 27.8693 111.521 27.9758C108.906 28.0824 106.368 28.8977 104.18 30.3348L37.1727 71.113C34.9638 72.6313 33.084 74.5806 31.646 76.8439C30.2079 79.1072 29.2412 81.6379 28.8038 84.2843C28.3664 86.9307 28.4674 89.6383 29.1006 92.2447C29.7338 94.8511 30.8863 97.3026 32.4889 99.4523C34.0915 101.602 36.1112 103.405 38.427 104.755C40.7427 106.104 43.3068 106.971 45.9655 107.304C48.6241 107.637 51.3226 107.43 53.8991 106.693C56.4756 105.957 58.877 104.708 60.9594 103.02L121.048 53.9924L121.514 53.6032C124.702 50.8017 126.567 46.8328 126.567 42.5527Z" fill="url(#paint1_linear_115_32)"/>
<path d="M224.046 130.335L122.37 32.2802C120.976 30.9823 119.341 29.9719 117.557 29.3067C115.774 28.6414 113.877 28.3343 111.975 28.403C108.134 28.5416 104.505 30.2022 101.887 33.0195C99.2682 35.8368 97.8751 39.58 98.0136 43.4256C98.0821 45.3297 98.5247 47.2017 99.3159 48.9346C100.107 50.6675 101.232 52.2275 102.625 53.5254L102.78 53.7588L210.831 144.809C212.754 146.53 215.277 147.421 217.852 147.291C220.428 147.16 222.848 146.019 224.587 144.113C226.327 142.207 227.246 139.692 227.144 137.113C227.043 134.533 225.93 132.098 224.046 130.335Z" fill="url(#paint2_linear_115_32)"/>
<path d="M227 137.416C227.015 135.602 226.526 133.819 225.589 132.266C224.651 130.712 223.302 129.45 221.69 128.619C220.079 127.789 218.269 127.422 216.461 127.56C214.654 127.698 212.92 128.335 211.453 129.401L88.5551 189.634C86.1107 190.872 83.9479 192.601 82.202 194.715C80.4562 196.828 79.1649 199.279 78.4091 201.915C77.6533 204.551 77.4492 207.314 77.8096 210.033C78.17 212.751 79.0871 215.366 80.5035 217.713C81.92 220.061 83.8052 222.09 86.0412 223.674C88.2772 225.258 90.8158 226.363 93.498 226.919C96.1803 227.476 98.9484 227.472 101.629 226.908C104.31 226.344 106.845 225.232 109.077 223.642L222.88 145.432C225.523 143.564 227.078 140.607 227.078 137.416H227Z" fill="url(#paint3_linear_115_32)"/>
<path d="M86.9227 87.8442H166.6V167.533H86.9227V87.8442Z" fill="black"/>
<path d="M95.6289 152.592H125.479V157.572H95.6289V152.592ZM94.3851 108.389L96.5617 106.288C97.0281 106.989 97.7277 107.378 98.5828 107.455C99.3601 107.455 99.982 106.833 99.982 105.666V97.8835H103.402V105.666C103.48 106.989 103.014 108.312 102.159 109.245C101.324 110.06 100.214 110.532 99.0492 110.568H98.7383C97.1836 110.568 95.6289 109.868 94.5406 108.623L94.3851 108.389ZM104.957 97.8057H114.907V100.763H108.3V102.631H114.207V105.276H108.3V107.3H114.985V110.179H104.879V97.8057H104.957ZM119.727 100.841H116.073V97.8057H126.956V100.841H123.225V110.257H119.804V100.841H119.727ZM95.8621 115.16H101.692C102.306 115.106 102.924 115.175 103.511 115.362C104.098 115.549 104.642 115.851 105.112 116.249C105.657 116.794 105.89 117.572 105.89 118.273C105.89 119.518 105.112 120.607 103.946 121.074C105.501 121.385 106.512 122.631 106.434 124.187C106.434 126.366 104.724 127.689 101.77 127.689H95.8621V115.238V115.16ZM102.47 119.051C102.47 118.273 101.925 117.961 100.915 117.961H99.2047V120.14H100.837C101.925 120.14 102.47 119.751 102.47 119.051ZM101.303 122.553H99.2047V124.887H101.381C102.392 124.887 102.936 124.42 102.936 123.72C102.936 123.02 102.547 122.631 101.537 122.553H101.303ZM114.596 127.689L112.109 123.954H110.943V127.689H107.522V115.238H113.041C113.764 115.165 114.494 115.237 115.188 115.451C115.882 115.665 116.527 116.016 117.084 116.483C117.769 117.194 118.158 118.14 118.172 119.129V119.44C118.25 121.074 117.239 122.631 115.607 123.253L118.094 126.911L122.991 115.082H126.334L131.62 127.611H127.889L127.034 125.354H122.214L121.359 127.689H114.596ZM124.702 119.129L123.225 122.708H126.023L124.624 119.206L124.702 119.129ZM112.73 118.273H110.943V121.23H112.808C113.896 121.23 114.674 120.685 114.674 119.751C114.674 118.74 113.896 118.195 112.73 118.195V118.273ZM132.164 115.16H135.507V127.611H132.164V115.16ZM136.828 115.16H140.093L144.524 121.852V115.16H147.944V127.611H144.912L140.248 120.763V127.611H136.828V115.16ZM148.488 125.821L150.432 123.487C151.539 124.44 152.937 124.988 154.396 125.043C155.329 125.043 155.873 124.732 155.873 124.187C155.873 123.798 155.64 123.487 154.785 123.253L154.474 123.097H154.241L153.696 122.942H153.463L152.919 122.786L152.453 122.631C150.432 122.008 149.032 121.152 149.032 119.051C149.032 116.716 150.898 115.082 153.852 115.082C155.718 115.004 157.505 115.627 158.982 116.716L157.272 119.051C156.277 118.323 155.084 117.916 153.852 117.883C152.997 117.883 152.608 118.195 152.608 118.662C152.608 119.129 152.841 119.362 153.619 119.596L154.007 119.673L154.241 119.751L154.785 119.907C157.583 120.529 159.371 121.463 159.371 123.798C159.371 126.21 157.505 127.689 154.707 127.689H154.318C152.375 127.845 150.432 127.222 148.877 126.133L148.488 125.821Z" fill="white"/>
</g>
<defs>
<linearGradient id="paint0_linear_115_32" x1="2287.52" y1="2677.69" x2="8230.72" y2="5557.4" gradientUnits="userSpaceOnUse">
<stop offset="0.21" stop-color="#FE2857"/>
<stop offset="1" stop-color="#293896"/>
</linearGradient>
<linearGradient id="paint1_linear_115_32" x1="254.008" y1="6157" x2="7871.17" y2="525.285" gradientUnits="userSpaceOnUse">
<stop stop-color="#FE2857"/>
<stop offset="0.01" stop-color="#FE2857"/>
<stop offset="0.86" stop-color="#FF318C"/>
</linearGradient>
<linearGradient id="paint2_linear_115_32" x1="911.636" y1="1681.24" x2="11531" y2="11320.9" gradientUnits="userSpaceOnUse">
<stop offset="0.02" stop-color="#FF318C"/>
<stop offset="0.21" stop-color="#FE2857"/>
<stop offset="0.86" stop-color="#FDB60D"/>
</linearGradient>
<linearGradient id="paint3_linear_115_32" x1="13691.7" y1="2892.07" x2="2743.3" y2="10417.4" gradientUnits="userSpaceOnUse">
<stop offset="0.01" stop-color="#FDB60D"/>
<stop offset="0.86" stop-color="#FCF84A"/>
</linearGradient>
<clipPath id="clip0_115_32">
<rect width="199" height="200" fill="white" transform="translate(28 28)"/>
</clipPath>
</defs>
</svg>
