<svg width="256" height="256" viewBox="0 0 256 256" fill="none" xmlns="http://www.w3.org/2000/svg">
<rect width="256" height="256" fill="#0868AC"/>
<path d="M40.7014 77.2488C22.994 102.699 25.1982 135.81 38.7232 162.851C39.045 163.503 39.3841 164.138 39.7145 164.777C39.9318 165.181 40.1275 165.594 40.3492 165.994C40.4753 166.233 40.6101 166.468 40.7405 166.694C41.3828 167.866 42.0481 169.026 42.736 170.172L43.4751 171.385C43.962 172.168 44.4663 172.95 44.9749 173.728C45.1923 174.059 45.3966 174.389 45.614 174.715C46.3183 175.767 47.04 176.811 47.7834 177.845L47.8443 177.932C47.9617 178.098 48.0921 178.254 48.2138 178.419C48.8572 179.311 49.5181 180.184 50.1876 181.05L50.9353 181.997C52.5724 184.07 54.2805 186.086 56.0567 188.04L56.1567 188.149C57.9261 190.071 59.7564 191.936 61.6432 193.74C61.9258 194.014 62.2084 194.288 62.4866 194.544C63.43 195.435 64.3908 196.305 65.3647 197.161C65.5255 197.305 65.6951 197.444 65.8559 197.579C66.6994 198.313 67.5645 199.039 68.4253 199.752L69.4948 200.6C70.1991 201.165 70.9164 201.731 71.6381 202.278L72.7858 203.148C73.5814 203.735 74.3814 204.313 75.19 204.878C75.49 205.087 75.7726 205.296 76.0682 205.495C76.1552 205.552 76.2247 205.613 76.3073 205.669C77.0768 206.195 77.8637 206.704 78.6463 207.213C78.9854 207.439 79.3158 207.669 79.6592 207.887C80.8635 208.652 82.0851 209.404 83.3198 210.13L84.3284 210.699C85.2414 211.225 86.1544 211.738 87.0761 212.243C87.576 212.512 88.0934 212.764 88.5977 213.025C89.2498 213.369 89.9019 213.717 90.5627 214.047L91.0192 214.264C91.2801 214.395 91.554 214.517 91.8192 214.656C94.2493 215.826 96.7202 216.909 99.2273 217.903C99.5229 218.025 99.8185 218.138 100.114 218.251C102.644 219.227 105.206 220.117 107.796 220.92C108.101 221.007 108.405 221.107 108.718 221.199C110.022 221.59 111.318 222.064 112.661 222.312C198.298 237.928 223.174 170.85 223.174 170.85C202.285 198.066 165.2 205.243 130.064 197.253C128.734 196.948 127.443 196.535 126.143 196.153C124.548 195.681 122.963 195.173 121.391 194.631L120.869 194.44C119.755 194.045 118.646 193.633 117.543 193.205C117.235 193.079 116.922 192.966 116.609 192.84C115.403 192.363 114.206 191.864 113.018 191.344C112.774 191.24 112.539 191.127 112.296 191.031C110.985 190.437 109.682 189.825 108.387 189.197C107.605 188.814 106.822 188.405 106.04 188.006C105.522 187.732 104.996 187.471 104.475 187.184C103.529 186.675 102.593 186.148 101.666 185.606L100.718 185.08C99.4881 184.349 98.2665 183.602 97.0579 182.836C96.7275 182.619 96.3971 182.402 96.071 182.176C95.1928 181.61 94.3233 181.037 93.4625 180.445C93.1799 180.254 92.906 180.045 92.6235 179.858C91.7974 179.271 90.9758 178.68 90.1628 178.076C88.7114 176.979 87.2765 175.86 85.8588 174.72C84.9245 173.956 84.0013 173.179 83.0894 172.389L82.7851 172.133C81.8025 171.263 80.8287 170.385 79.8723 169.49L79.0549 168.698C78.3477 168.028 77.652 167.345 76.9681 166.651L76.1421 165.833C75.2726 164.938 74.4205 164.033 73.5771 163.12L73.4554 162.986C72.5685 162.016 71.699 161.029 70.8512 160.025L70.1687 159.212C69.5339 158.451 68.9079 157.677 68.2992 156.899C68.0645 156.617 67.8384 156.334 67.6123 156.043C66.8733 155.086 66.1559 154.134 65.4473 153.165C45.9401 126.558 38.9406 89.8652 54.522 59.7197" fill="white"/>
<path d="M95.6667 55.8075C82.8633 74.2365 83.5589 98.9042 93.5451 118.394C95.2189 121.668 97.1101 124.828 99.2099 127.85C101.127 130.597 103.253 133.867 105.801 136.08C106.727 137.097 107.692 138.088 108.674 139.062C108.927 139.318 109.179 139.558 109.431 139.81C110.387 140.74 111.361 141.653 112.37 142.54C112.413 142.57 112.448 142.61 112.487 142.644L112.518 142.67C113.626 143.644 114.778 144.583 115.943 145.505L116.726 146.114C117.891 147.009 119.087 147.892 120.308 148.731L120.413 148.813C120.952 149.187 121.499 149.531 122.052 149.892C122.312 150.061 122.56 150.239 122.825 150.405C123.699 150.965 124.582 151.509 125.482 152.031L125.86 152.248C126.634 152.696 127.425 153.139 128.208 153.561C128.486 153.717 128.764 153.852 129.047 153.996C129.59 154.283 130.134 154.574 130.69 154.848C130.773 154.891 130.855 154.926 130.938 154.961C132.068 155.517 133.199 156.052 134.364 156.561C134.612 156.669 134.868 156.769 135.12 156.869C136.051 157.261 136.99 157.652 137.929 158.008C138.329 158.161 138.737 158.308 139.133 158.452C139.989 158.769 140.85 159.06 141.715 159.352L142.88 159.726C144.115 160.108 145.328 160.591 146.615 160.804C212.732 171.759 228 120.85 228 120.85C214.236 140.671 187.59 150.122 159.157 142.74C157.518 142.31 155.897 141.827 154.288 141.297C152.048 140.562 149.839 139.736 147.667 138.819C147.411 138.705 147.154 138.605 146.906 138.492C145.745 137.988 144.593 137.449 143.459 136.893C142.876 136.606 142.302 136.306 141.728 136.01L140.728 135.497C139.994 135.097 139.263 134.684 138.542 134.262L138.02 133.967C137.126 133.444 136.242 132.905 135.368 132.349C135.098 132.176 134.838 131.993 134.572 131.815C133.995 131.442 133.421 131.064 132.851 130.68C131.64 129.835 130.448 128.962 129.277 128.063L128.473 127.432C116.026 117.607 106.162 104.173 101.471 88.9484C96.5579 73.154 97.6144 55.4293 106.131 41.0391" fill="white"/>
<path d="M141.894 39.7864C134.346 50.8942 133.607 64.6975 138.842 76.9661C144.367 89.9869 155.688 100.203 168.896 105.051C169.439 105.251 169.983 105.433 170.535 105.62C170.774 105.694 171.013 105.777 171.261 105.847C172.039 106.09 172.809 106.377 173.613 106.529C210.123 113.581 220.022 87.7914 222.661 83.996C213.988 96.4863 199.407 99.4861 181.525 95.143C178.267 94.2899 175.098 93.1282 172.061 91.6737C168.882 90.1441 165.863 88.3018 163.048 86.1741C147.041 74.0316 137.098 50.8681 147.541 32" fill="white"/>
</svg>
