<svg width="256" height="256" viewBox="0 0 256 256" fill="none" xmlns="http://www.w3.org/2000/svg">
<rect width="256" height="256" fill="#FAEFE6"/>
<g clip-path="url(#clip0_88_601)">
<path fill-rule="evenodd" clip-rule="evenodd" d="M127.831 176.875C172.079 237.194 215.381 160.039 215.318 113.641C215.243 58.7835 159.641 28.1235 127.795 28.1235C76.68 28.1235 28 70.3685 28 128.169C28 192.414 83.8 228 127.795 228C117.839 226.566 84.6625 219.457 84.2162 143.041C83.9162 91.3573 101.076 70.7085 127.723 79.7923C128.319 80.0135 157.115 91.3735 157.115 128.481C157.115 165.431 127.831 176.875 127.831 176.875Z" fill="url(#paint0_linear_88_601)"/>
<path fill-rule="evenodd" clip-rule="evenodd" d="M127.779 79.7514C98.5413 69.6739 62.7251 93.7714 62.7251 142.038C62.7251 220.848 121.126 228 128.205 228C179.32 228 228 185.755 228 127.955C228 63.7102 172.2 28.1239 128.205 28.1239C140.39 26.4364 193.881 41.3114 193.881 114.42C193.881 162.096 153.94 188.051 127.963 176.961C127.366 176.74 98.5701 165.381 98.5701 128.273C98.5701 91.3227 127.779 79.7514 127.779 79.7514Z" fill="url(#paint1_linear_88_601)"/>
</g>
<defs>
<linearGradient id="paint0_linear_88_601" x1="57.5784" y1="57.5786" x2="198.457" y2="198.502" gradientUnits="userSpaceOnUse">
<stop/>
<stop offset="1" stop-color="white"/>
</linearGradient>
<linearGradient id="paint1_linear_88_601" x1="198.477" y1="198.483" x2="57.5982" y2="57.5717" gradientUnits="userSpaceOnUse">
<stop/>
<stop offset="1" stop-color="white"/>
</linearGradient>
<clipPath id="clip0_88_601">
<rect width="200" height="200" fill="white" transform="translate(28 28)"/>
</clipPath>
</defs>
</svg>
