<svg width="256" height="256" viewBox="0 0 256 256" fill="none" xmlns="http://www.w3.org/2000/svg">
<rect width="256" height="256" fill="#232932"/>
<path d="M66.7588 171.042C66.7588 176.078 66.1922 180.146 65.0591 183.242C63.926 186.342 62.315 188.746 60.2237 190.459C58.135 192.172 55.6285 193.318 52.7069 193.898C49.7853 194.475 46.5348 194.764 42.9604 194.764C38.1225 194.764 34.4202 194.01 31.8537 192.498C29.2846 190.986 28 189.174 28 187.057C28 185.295 28.7154 183.809 30.1514 182.6C31.5874 181.391 33.5142 180.788 35.9319 180.788C37.7465 180.788 39.1955 181.279 40.2764 182.261C41.36 183.242 42.2555 184.214 42.9604 185.169C43.7646 186.227 44.446 186.932 44.9996 187.284C45.5531 187.637 46.057 187.814 46.5113 187.814C47.4669 187.814 48.1979 187.248 48.7018 186.114C49.2057 184.981 49.4564 182.778 49.4564 179.504V117.396L66.7588 112.636V171.042ZM91.4004 114.297V154.267C91.4004 155.376 91.6145 156.421 92.0427 157.402C92.4709 158.384 93.0636 159.23 93.8181 159.935C94.5753 160.64 95.4552 161.207 96.463 161.635C97.4708 162.063 98.5543 162.277 99.7135 162.277C101.022 162.277 102.51 161.543 104.322 160.274C107.191 158.264 108.93 156.883 108.93 155.248V114.297H126.157V171.042H108.93V165.752C106.664 167.666 104.246 169.201 101.677 170.36C99.1078 171.52 96.6144 172.099 94.1967 172.099C91.3769 172.099 88.7556 171.632 86.3379 170.7C83.9202 169.768 81.8054 168.496 79.9934 166.885C78.1788 165.274 76.7559 163.384 75.722 161.217C74.6907 159.053 74.1737 156.734 74.1737 154.267V114.297H91.4004ZM150.315 171.042H133.164V91.4799L150.315 86.7202V171.042ZM157.48 117.396L174.706 112.636V171.042H157.48V117.396ZM210.7 141.724C209.037 142.432 207.361 143.249 205.674 144.181C203.988 145.113 202.45 146.134 201.066 147.241C199.68 148.348 198.56 149.533 197.703 150.792C196.847 152.05 196.419 153.361 196.419 154.721C196.419 155.778 196.557 156.799 196.834 157.781C197.11 158.763 197.502 159.606 198.006 160.311C198.51 161.016 199.063 161.582 199.669 162.011C200.272 162.439 200.928 162.653 201.633 162.653C203.042 162.653 204.465 162.225 205.901 161.368C207.337 160.512 208.935 159.431 210.7 158.12V141.724ZM228 171.042H210.7V166.507C209.742 167.313 208.81 168.058 207.904 168.736C206.998 169.415 205.977 170.008 204.844 170.512C203.711 171.016 202.439 171.405 201.027 171.684C199.617 171.961 197.954 172.099 196.043 172.099C193.421 172.099 191.066 171.721 188.978 170.966C186.886 170.209 185.111 169.178 183.651 167.867C182.189 166.559 181.069 165.008 180.288 163.22C179.508 161.434 179.116 159.481 179.116 157.366C179.116 155.199 179.531 153.235 180.364 151.47C181.194 149.708 182.328 148.123 183.764 146.711C185.2 145.301 186.873 144.042 188.787 142.933C190.701 141.826 192.755 140.805 194.946 139.873C197.137 138.941 199.416 138.087 201.784 137.306C204.149 136.526 206.494 135.782 208.81 135.077L210.7 134.622V129.032C210.7 125.406 210.006 122.837 208.622 121.325C207.236 119.813 205.384 119.059 203.069 119.059C200.348 119.059 198.458 119.714 197.4 121.022C196.343 122.333 195.813 123.918 195.813 125.782C195.813 126.839 195.701 127.873 195.473 128.881C195.249 129.889 194.857 130.769 194.304 131.526C193.75 132.28 192.957 132.886 191.923 133.338C190.891 133.792 189.594 134.019 188.032 134.019C185.615 134.019 183.651 133.325 182.14 131.941C180.628 130.555 179.873 128.805 179.873 126.688C179.873 124.724 180.539 122.899 181.873 121.213C183.21 119.524 185.009 118.074 187.278 116.868C189.544 115.657 192.163 114.701 195.134 113.996C198.105 113.291 201.254 112.939 204.578 112.939C208.658 112.939 212.173 113.304 215.12 114.033C218.066 114.764 220.496 115.808 222.41 117.169C224.324 118.529 225.734 120.166 226.64 122.08C227.548 123.993 228 126.137 228 128.502V171.042Z" fill="white" stroke="#232932" stroke-width="2"/>
<path d="M178.649 98.0381C178.649 104.5 173.411 109.735 166.952 109.735C160.49 109.735 155.255 104.5 155.255 98.0381C155.255 91.5788 160.49 86.3413 166.952 86.3413C173.411 86.3413 178.649 91.5788 178.649 98.0381Z" fill="#CB3C33" stroke="#232932" stroke-width="2"/>
<path d="M70.1555 98.0381C70.1555 104.5 64.9181 109.735 58.4587 109.735C51.9994 109.735 46.7619 104.5 46.7619 98.0381C46.7619 91.5788 51.9994 86.3413 58.4587 86.3413C64.9181 86.3413 70.1555 91.5788 70.1555 98.0381Z" fill="#4063D8" stroke="#232932" stroke-width="2"/>
<path d="M206.753 98.0381C206.753 104.5 201.515 109.735 195.056 109.735C188.596 109.735 183.359 104.5 183.359 98.0381C183.359 91.5788 188.596 86.3413 195.056 86.3413C201.515 86.3413 206.753 91.5788 206.753 98.0381Z" fill="#9558B2" stroke="#232932" stroke-width="2"/>
<path d="M192.703 73.6968C192.703 80.1562 187.466 85.3936 181.006 85.3936C174.544 85.3936 169.31 80.1562 169.31 73.6968C169.31 67.2375 174.544 62 181.006 62C187.466 62 192.703 67.2375 192.703 73.6968Z" fill="#389826" stroke="#232932" stroke-width="2"/>
</svg>
