<svg width="256" height="256" viewBox="0 0 256 256" fill="none" xmlns="http://www.w3.org/2000/svg">
<rect width="256" height="256" fill="#232932"/>
<g clip-path="url(#clip0_98_390)">
<path d="M142.57 81.7518L142.37 28H112.43L112.63 81.7518L127.6 102.334L142.57 81.7518ZM112.63 173.869V227.821H142.57V173.869L127.6 153.288L112.63 173.869Z" fill="white"/>
<path d="M142.57 173.869L174.106 217.43L198.258 199.846L166.721 156.285L142.57 148.492V173.869ZM112.63 81.7515L80.8936 38.1904L56.7423 55.7749L88.2791 99.336L112.63 107.129V81.7515Z" fill="#00F2E6"/>
<path d="M88.2791 99.3362L37.1812 82.751L28 111.125L79.0971 127.911L103.248 119.918L88.2791 99.3362ZM151.752 135.704L166.721 156.286L217.819 172.87L227 144.496L175.903 127.911L151.752 135.704Z" fill="#00B9F1"/>
<path d="M175.903 127.911L227 111.125L217.819 82.751L166.721 99.3362L151.752 119.918L175.903 127.911ZM79.0971 127.911L28 144.496L37.1812 172.87L88.2791 156.286L103.248 135.704L79.0971 127.911Z" fill="#D63AFF"/>
<path d="M88.2791 156.285L56.7423 199.846L80.8936 217.43L112.63 173.869V148.492L88.2791 156.285ZM166.721 99.336L198.258 55.7749L174.106 38.1904L142.57 81.7515V107.129L166.721 99.336Z" fill="#FB015B"/>
</g>
<defs>
<clipPath id="clip0_98_390">
<rect width="199" height="200" fill="white" transform="translate(28 28)"/>
</clipPath>
</defs>
</svg>
