<svg width="256" height="256" viewBox="0 0 256 256" fill="none" xmlns="http://www.w3.org/2000/svg">
<rect width="256" height="256" fill="#242932"/>
<path d="M216.281 39.302H132.531C132.301 39.302 132.115 39.4885 132.115 39.7187V123.469C132.115 123.699 132.301 123.885 132.531 123.885H216.281C216.511 123.885 216.698 123.699 216.698 123.469V39.7187C216.698 39.4885 216.511 39.302 216.281 39.302Z" fill="white"/>
<path d="M123.521 132.115H39.6667C39.4653 132.115 39.3021 132.278 39.3021 132.479V216.333C39.3021 216.535 39.4653 216.698 39.6667 216.698H123.521C123.722 216.698 123.885 216.535 123.885 216.333V132.479C123.885 132.278 123.722 132.115 123.521 132.115Z" fill="white"/>
</svg>
