<svg width="256" height="256" viewBox="0 0 256 256" fill="none" xmlns="http://www.w3.org/2000/svg">
<rect width="256" height="256" fill="#242932"/>
<path d="M227.53 28H133.109C132.849 28 132.639 28.2103 132.639 28.4698V122.891C132.639 123.151 132.849 123.361 133.109 123.361H227.53C227.79 123.361 228 123.151 228 122.891V28.4698C228 28.2103 227.79 28 227.53 28Z" fill="white"/>
<path d="M122.95 132.639H28.411C28.184 132.639 28 132.823 28 133.05V227.589C28 227.816 28.184 228 28.411 228H122.95C123.177 228 123.361 227.816 123.361 227.589V133.05C123.361 132.823 123.177 132.639 122.95 132.639Z" fill="white"/>
</svg>
