<svg width="256" height="256" viewBox="0 0 256 256" fill="none" xmlns="http://www.w3.org/2000/svg">
<rect width="256" height="256" fill="#232932"/>
<mask id="mask0_193_21" style="mask-type:luminance" maskUnits="userSpaceOnUse" x="28" y="44" width="200" height="168">
<path d="M228 44H28V211.081H228V44Z" fill="white"/>
</mask>
<g mask="url(#mask0_193_21)">
<path d="M95.4643 147.289L85.0718 153.536L47.7583 175.896C45.409 177.278 43.9717 179.821 43.9717 182.557V203.342C43.9717 207.626 47.4819 211.109 51.7661 211.109H72.6063C75.3427 211.109 77.8855 209.672 79.2951 207.35L116.332 146.018L116.47 145.852L118.322 142.756L119.787 139.495C121.28 135.68 122.082 131.701 122.082 127.555C122.082 123.409 121.335 119.456 119.732 115.476L118.295 112.353L79.2951 47.759C77.8855 45.4096 75.3427 44 72.6063 44H51.7937C47.5096 44 43.9993 47.455 43.9993 51.7668V72.5517C43.9993 75.2604 45.4366 77.8032 47.786 79.2129L85.0718 101.546L95.5749 107.848L96.7358 108.538L99.8591 110.445C101.794 111.634 103.507 113.071 104.972 114.674C107.128 117.107 105.443 120.976 102.181 121.197L86.0668 122.22C77.4709 122.773 69.0685 119.595 62.9601 113.541L54.4748 105.084C52.4571 103.093 49.2232 103.093 47.2608 105.084L29.5162 122.635C27.4985 124.625 27.4985 127.859 29.5162 129.821L47.2056 147.427C49.2232 149.417 52.4571 149.417 54.4195 147.427L62.9048 138.97C69.0132 132.889 77.388 129.738 86.0115 130.291L104.033 131.424C106.935 131.59 108.759 134.741 107.294 137.229C105.553 140.186 103.01 142.784 99.8315 144.691L96.6529 146.598" fill="white"/>
<path d="M159.472 108.483L156.349 110.39C154.414 111.579 152.7 113.016 151.236 114.619C149.08 117.051 150.765 120.921 154.027 121.142L170.141 122.165C178.737 122.718 187.139 119.539 193.247 113.486L201.733 105.029C203.75 103.038 206.984 103.038 208.947 105.029L226.637 122.635C228.654 124.625 228.654 127.859 226.637 129.821L208.947 147.427C206.929 149.417 203.695 149.417 201.733 147.427L193.247 138.97C187.139 132.889 178.764 129.738 170.141 130.291L152.12 131.424C149.218 131.59 147.393 134.741 148.858 137.229C150.6 140.186 153.143 142.784 156.321 144.691L159.5 146.598L160.661 147.289L171.053 153.536L208.366 175.896C210.716 177.278 212.153 179.821 212.153 182.557V203.342C212.153 207.626 208.643 211.109 204.359 211.109H183.519C180.782 211.109 178.239 209.672 176.83 207.35L139.793 146.018L139.655 145.852L137.803 142.756L136.338 139.495C134.845 135.68 134.043 131.701 134.043 127.555C134.043 123.409 134.79 119.456 136.393 115.476L137.83 112.353L176.802 47.759C178.212 45.4096 180.754 44 183.491 44H204.331C208.615 44 212.125 47.455 212.125 51.7668V72.5517C212.125 75.2604 210.688 77.8032 208.339 79.2129L171.053 101.546L160.55 107.848" fill="white"/>
</g>
</svg>
