<svg width="256" height="256" viewBox="0 0 256 256" fill="none" xmlns="http://www.w3.org/2000/svg">
<rect width="256" height="256" fill="#232932"/>
<g clip-path="url(#clip0_93_114)">
<path d="M128 22.0151L28 70.9852V186.655L128 235.781L228 186.733V71.0633L128 22.0151Z" fill="#0081C2"/>
<path d="M203.86 165.958C203.547 163.849 202.688 161.818 201.516 160.178C200.434 158.629 199.115 157.259 197.61 156.117C194.635 153.915 191.227 152.371 187.61 151.587C189.999 148.424 191.847 144.888 193.078 141.121C193.875 138.519 194.141 135.783 193.86 133.077C193.469 130.343 192.453 127.688 190.891 125.579C190.11 124.563 189.328 123.548 188.313 122.689L187.61 122.142L186.828 121.517L186.125 120.971L185.344 120.502C185.257 120.43 185.156 120.376 185.048 120.343C184.94 120.311 184.827 120.299 184.714 120.31C184.602 120.321 184.493 120.354 184.393 120.407C184.293 120.46 184.205 120.532 184.133 120.619C184.061 120.706 184.007 120.807 183.974 120.915C183.941 121.023 183.93 121.136 183.941 121.249C183.952 121.361 183.985 121.47 184.038 121.57C184.091 121.67 184.163 121.758 184.25 121.83L184.875 122.455L185.422 123.08L185.969 123.704L186.438 124.407C187.141 125.344 187.688 126.282 188.078 127.219C189.016 129.172 189.328 131.202 189.172 133.233C189.016 135.185 188.391 137.138 187.453 139.012C185.926 142.038 183.8 144.722 181.203 146.901L180.891 147.135H180.813C178.773 148.526 176.496 149.532 174.094 150.103C170.497 150.965 166.727 150.775 163.235 149.556H163C164.529 149.316 166.023 148.897 167.453 148.307C169.7 147.387 171.687 145.931 173.239 144.065C174.792 142.2 175.863 139.982 176.36 137.607L176.828 134.639C176.992 132.82 176.992 130.99 176.828 129.172V128.39L176.75 127.766L176.672 127.141L176.594 126.516V126.282L176.516 126.126V125.891L176.36 125.345L176.203 124.251L175.578 119.799L175.422 117.612L175.266 115.426V108.787L175.5 106.678C175.678 105.252 175.966 103.842 176.36 102.461C176.75 101.133 177.297 99.8051 177.922 98.5555C178.703 97.3839 179.485 96.2905 180.5 95.4314C181.281 94.8048 182.187 94.3521 183.156 94.1036L183.625 94.0255L184.172 93.9474C184.4 93.9474 184.619 93.8569 184.78 93.6958C184.941 93.5347 185.031 93.3162 185.031 93.0883C185.031 92.8604 184.941 92.6419 184.78 92.4808C184.619 92.3197 184.4 92.2292 184.172 92.2292L183.625 92.1511H182.922C181.558 92.1777 180.22 92.5255 179.016 93.1664C177.453 93.9474 176.125 95.1189 175.031 96.4467C173.898 97.7568 172.928 99.1992 172.141 100.742C171.36 102.304 170.813 103.866 170.266 105.428L169.485 107.772L169.016 110.271C167.996 115.07 167.524 119.97 167.61 124.876V128.781L167.531 129.25C167.387 131.065 166.992 132.852 166.36 134.561C166.125 135.029 165.969 135.42 165.656 135.732C165.188 136.435 164.719 136.747 164.25 136.982C163.604 137.24 162.915 137.372 162.219 137.372C161.06 137.404 159.903 137.273 158.781 136.982C158.781 136.982 154.875 135.576 156.125 131.046C156.654 130.009 157.429 129.118 158.382 128.451C159.336 127.784 160.439 127.361 161.594 127.219C161.594 127.219 168 77.7803 128 45.9927C87.8439 77.7803 94.2502 127.219 94.2502 127.219C97.3752 127.688 99.0939 129.562 99.8752 131.358C100.891 135.342 97.6095 136.826 97.2189 136.982L96.672 137.06C95.5783 137.294 94.5627 137.372 93.7033 137.372C93.0075 137.372 92.3181 137.24 91.672 136.982C91.2033 136.747 90.7345 136.435 90.1877 135.732L89.5627 134.561L89.0158 132.999C88.7033 131.827 88.547 130.577 88.3908 129.25V126.907L88.3127 126.75V124.876C88.2176 119.979 87.7475 115.096 86.9064 110.271L86.3595 107.85L85.6564 105.428L83.7814 100.742C83.0002 99.1803 82.0627 97.7744 80.8908 96.4467C79.76 95.1025 78.3807 93.9887 76.8283 93.1664C75.6145 92.5508 74.2821 92.2044 72.922 92.1511H71.7502C71.5119 92.1511 71.2834 92.2457 71.1149 92.4141C70.9464 92.5826 70.8517 92.811 70.8517 93.0492C70.8517 93.2875 70.9464 93.5159 71.1149 93.6843C71.2834 93.8528 71.5119 93.9474 71.7502 93.9474H72.3752L72.8439 94.1036C73.8192 94.3375 74.7279 94.7917 75.5002 95.4314C76.5158 96.2905 77.3752 97.3839 78.0002 98.5555C78.6722 99.7915 79.1966 101.102 79.5627 102.461C79.9829 103.84 80.2963 105.25 80.5002 106.678L80.6564 108.787L80.8127 110.974V115.426C80.6564 116.128 80.6564 116.831 80.5783 117.612C80.4006 119.834 80.14 122.049 79.797 124.251L79.6408 125.345L79.5627 125.891V126.126L79.4845 126.204V126.516L79.3283 127.141V127.766L79.172 128.469V129.093C78.9262 131.939 79.084 134.805 79.6408 137.607C80.2397 139.829 81.2463 141.921 82.6095 143.777C84.1601 145.778 86.2069 147.34 88.547 148.307C89.975 148.886 91.4717 149.28 93.0002 149.478L92.7658 149.556C89.2689 150.887 85.4405 151.079 81.8283 150.103C79.4741 149.502 77.2319 148.526 75.1877 147.213L75.1095 147.135L74.8752 146.901C73.8483 146.086 72.906 145.17 72.0627 144.167C70.702 142.574 69.5471 140.816 68.6252 138.934C67.6877 137.06 67.0627 135.107 66.9064 133.155C66.7502 131.124 67.0627 129.093 68.0002 127.141C68.3908 126.204 68.9377 125.188 69.5627 124.329L70.1095 123.626L70.6564 123.001L71.2033 122.377L71.8283 121.674C71.9155 121.597 71.9867 121.503 72.0378 121.399C72.0889 121.295 72.119 121.181 72.1262 121.065C72.1335 120.949 72.1178 120.833 72.0801 120.723C72.0424 120.613 71.9834 120.511 71.9064 120.424C71.8295 120.337 71.7361 120.266 71.6316 120.215C71.5272 120.163 71.4137 120.133 71.2976 120.126C71.1815 120.119 71.0652 120.135 70.9551 120.172C70.8451 120.21 70.7436 120.269 70.6564 120.346L69.8752 120.893L69.172 121.439L68.3908 121.986L67.7658 122.611C66.8283 123.47 65.9689 124.485 65.1877 125.501C63.6252 127.609 62.6095 130.187 62.297 132.999C61.9064 135.732 62.297 138.466 63.0783 141.043C64.2192 144.847 66.0753 148.399 68.547 151.509C64.9086 152.3 61.4759 153.843 58.4689 156.039C56.9638 157.181 55.646 158.552 54.5627 160.1C53.0471 162.194 52.1799 164.687 52.0688 167.27C51.9577 169.852 52.6076 172.41 53.9377 174.627C54.7843 176.097 55.8366 177.438 57.0627 178.61L57.4533 179.079L57.6877 179.313L57.922 179.547L58.7033 180.25C61.9932 183.085 65.6775 185.426 69.6408 187.201C71.9845 188.295 74.3283 189.154 76.672 190.013V190.169L76.8283 190.56L77.0627 191.028L77.5314 191.809L77.6095 192.044L77.7658 192.2L78.0783 192.59L78.6252 193.293C80.1877 195.168 82.2189 196.417 84.2502 197.199C86.2289 197.896 88.3279 198.188 90.422 198.058H91.2033L91.9064 197.98L92.6877 197.823L93.3127 197.667L94.0939 197.511H94.4064L94.797 197.355L95.5783 197.12L95.8908 196.964L96.2033 196.886L97.297 196.417L97.3752 196.339H97.6095V196.261L97.922 196.105L98.3908 195.871L99.3283 195.48L100.266 195.09C104.1 193.64 108.22 193.105 112.297 193.528C113.703 193.684 114.953 194.074 116.203 194.621C117.375 195.168 118.469 195.871 119.328 196.73L119.641 197.12L119.953 197.511L120.11 197.667L120.266 197.901L120.5 198.292C120.813 198.839 121.125 199.463 121.281 200.088L121.36 200.557L121.438 201.104V201.338L121.516 201.572V203.134L121.438 204.228C121.412 204.341 121.409 204.457 121.428 204.571C121.448 204.685 121.49 204.794 121.551 204.892C121.613 204.99 121.693 205.075 121.788 205.142C121.882 205.209 121.989 205.256 122.102 205.282C122.215 205.308 122.331 205.311 122.445 205.291C122.56 205.272 122.669 205.23 122.767 205.169C122.865 205.107 122.949 205.027 123.016 204.932C123.083 204.838 123.131 204.731 123.156 204.618L123.469 203.525L123.703 202.197L123.781 201.572V199.854C123.703 198.917 123.469 198.058 123.235 197.277L122.922 196.652L122.844 196.339L122.688 196.027L122.375 195.402L121.985 194.855L121.203 193.762L120.735 193.293L120.266 192.825C118.284 191.1 115.972 189.798 113.469 188.998C108.553 187.455 103.302 187.319 98.3127 188.607L97.0627 188.92L95.8908 189.232L95.2658 189.466H94.9533L94.8752 189.544L93.7033 189.857H93.3127L92.922 190.013H90.5002C89.5191 189.948 88.5619 189.682 87.6877 189.232C86.9064 188.763 86.3595 188.217 86.1252 187.67C85.7345 187.045 85.7345 186.577 85.7345 185.952C85.8127 185.405 86.047 184.78 86.5158 183.999C86.9064 183.218 87.5314 182.437 88.3127 181.656C89.8752 180.25 91.9845 178.844 94.3283 177.673L94.797 177.439L95.1877 177.204L96.1252 176.814L98.0002 176.033L100.11 175.174L101.203 174.705H101.36L101.516 174.627L101.828 174.471L102.375 174.158L104.641 173.065C109.328 170.956 119.25 167.051 128.078 167.051C136.906 167.051 146.828 170.956 151.516 173.065L153.781 174.158L154.328 174.471L154.641 174.627H154.797L154.953 174.705L156.047 175.174L158.156 176.033L160.031 176.814L160.891 177.204L161.36 177.439L161.828 177.673C164.172 178.844 166.281 180.25 167.844 181.734C168.625 182.515 169.25 183.296 169.719 183.999C170.11 184.78 170.344 185.405 170.422 185.952C170.422 186.577 170.422 187.045 170.11 187.67C169.797 188.217 169.25 188.763 168.469 189.232C167.688 189.623 166.75 189.935 165.656 190.013H163.156L162.766 189.935H162.375L161.281 189.544H161.125C161.125 189.544 160.969 189.466 161.203 189.544H161.125L160.813 189.466L160.188 189.232L159.016 188.92L157.766 188.607C152.776 187.319 147.526 187.455 142.61 188.998C140.106 189.796 137.793 191.098 135.813 192.825L135.344 193.293L134.875 193.762L134.094 194.855L133.703 195.402L133.391 196.027L133.235 196.339L133.156 196.652L132.844 197.277C132.61 198.058 132.375 198.917 132.297 199.854V201.728L132.375 202.353C132.375 202.822 132.531 203.212 132.61 203.681L132.922 204.774C133.078 205.165 133.469 205.399 133.86 205.399C134.328 205.321 134.641 204.931 134.641 204.384L134.563 203.29V201.182L134.719 200.635L134.797 200.166C134.953 199.542 135.266 198.917 135.578 198.37L135.813 197.98L135.969 197.745L136.125 197.589L136.438 197.199C136.438 197.042 136.594 196.964 136.75 196.808C137.61 195.949 138.703 195.246 139.875 194.699C141.125 194.153 142.453 193.762 143.781 193.606C147.859 193.031 152.017 193.571 155.813 195.168L156.75 195.558L157.688 195.949L158.156 196.183L158.391 196.339H158.469L158.703 196.417H158.781L159.875 196.964L160.188 197.042L160.578 197.199L161.36 197.433L161.672 197.511L162.063 197.589L162.766 197.745L163.469 197.901L164.25 198.058H164.953L165.735 198.136C167.803 198.256 169.874 197.964 171.828 197.277C173.86 196.496 175.891 195.246 177.453 193.372L178.078 192.59L178.313 192.278L178.469 192.122L178.547 191.888L179.016 191.107L179.25 190.638L179.406 190.247V190.091C186.003 188.065 192.117 184.717 197.375 180.25L198.156 179.626L198.391 179.391L198.625 179.157L199.094 178.688C200.281 177.481 201.329 176.145 202.219 174.705L203.313 172.128C203.979 170.143 204.166 168.029 203.86 165.958ZM86.9845 167.832L86.4377 168.223L85.8908 168.613L84.797 169.394L84.2502 169.863L83.7033 170.253L82.6877 171.19L81.672 172.206L81.2033 172.674L80.7345 173.221L79.797 174.315C78.547 175.877 77.4533 177.673 76.672 179.782C76.2033 180.719 75.8908 181.89 75.7345 183.062L75.5783 183.921V184.077C72.4663 182.07 69.5148 179.824 66.7502 177.361C65.8127 176.58 65.0314 175.642 64.2502 174.705L63.6252 174.08L63.547 173.846L63.3908 173.69L63.2345 173.455C62.6685 172.625 62.1968 171.735 61.8283 170.8L61.5158 169.707C61.4377 168.926 61.5158 168.379 61.672 167.91C61.9064 167.442 62.2189 166.973 62.6877 166.504C63.1564 166.036 63.7814 165.567 64.5627 165.177C66.1252 164.396 68.0783 163.771 70.0314 163.458C74.6953 162.886 79.4216 163.787 83.547 166.036L84.2502 166.348L84.797 166.661L85.1877 166.817L85.5783 167.051L87.1408 167.676L86.9845 167.832ZM115.891 133.467C115.465 133.467 115.043 133.383 114.65 133.22C114.257 133.058 113.899 132.819 113.598 132.518C113.297 132.217 113.058 131.86 112.895 131.466C112.732 131.073 112.649 130.652 112.649 130.226C112.649 129.8 112.732 129.379 112.895 128.986C113.058 128.592 113.297 128.235 113.598 127.934C113.899 127.633 114.257 127.394 114.65 127.231C115.043 127.068 115.465 126.985 115.891 126.985C116.74 126.985 117.555 127.322 118.156 127.923C118.756 128.523 119.094 129.338 119.094 130.187C119.094 131.036 118.756 131.851 118.156 132.451C117.555 133.052 116.74 133.389 115.891 133.389V133.467ZM140.11 133.467C139.684 133.467 139.262 133.383 138.869 133.22C138.475 133.058 138.118 132.819 137.817 132.518C137.516 132.217 137.277 131.86 137.114 131.466C136.951 131.073 136.867 130.652 136.867 130.226C136.867 129.8 136.951 129.379 137.114 128.986C137.277 128.592 137.516 128.235 137.817 127.934C138.118 127.633 138.475 127.394 138.869 127.231C139.262 127.068 139.684 126.985 140.11 126.985C140.959 126.985 141.774 127.322 142.374 127.923C142.975 128.523 143.313 129.338 143.313 130.187C143.313 131.036 142.975 131.851 142.374 132.451C141.774 133.052 140.959 133.389 140.11 133.389V133.467ZM194.485 169.707C194.34 170.533 194.049 171.326 193.625 172.05L192.844 173.455L192.61 173.69L192.453 173.846L192.375 174.002L191.75 174.783C189.352 177.544 186.562 179.939 183.469 181.89C182.444 182.593 181.402 183.271 180.344 183.921V182.906C179.659 179.747 178.271 176.784 176.281 174.236L175.266 173.065L174.797 172.518L174.328 172.05L173.313 171.034L172.297 170.097L171.75 169.707C171.575 169.542 171.393 169.386 171.203 169.238L170.11 168.457L169.563 168.066L169.016 167.676L168.781 167.52L170.422 166.895L170.813 166.661L171.203 166.504L171.75 166.192L172.453 165.88L173.781 165.099C176.561 163.874 179.564 163.234 182.601 163.221C185.639 163.208 188.647 163.82 191.438 165.02C192.219 165.411 192.844 165.801 193.313 166.348C193.781 166.817 194.094 167.285 194.328 167.754C194.485 168.223 194.563 168.769 194.485 169.55V169.707Z" fill="white"/>
</g>
<defs>
<clipPath id="clip0_93_114">
<rect width="200" height="214" fill="white" transform="translate(28 21)"/>
</clipPath>
</defs>
</svg>
