<svg width="256" height="256" viewBox="0 0 256 256" fill="none" xmlns="http://www.w3.org/2000/svg">
<rect width="256" height="256" fill="#232932"/>
<g clip-path="url(#clip0_93_114)">
<path d="M128 22.0151L28 70.9852V186.655L128 235.781L228 186.733V71.0633L128 22.0151Z" fill="#0081C2"/>
<path d="M203.859 165.958C203.547 163.849 202.688 161.818 201.516 160.178C200.433 158.629 199.115 157.259 197.609 156.117C194.635 153.915 191.226 152.371 187.609 151.587C189.998 148.424 191.846 144.888 193.078 141.121C193.875 138.519 194.141 135.783 193.859 133.077C193.469 130.343 192.453 127.688 190.891 125.579C190.109 124.563 189.328 123.548 188.313 122.689L187.609 122.142L186.828 121.517L186.125 120.971L185.344 120.502C185.257 120.43 185.156 120.376 185.048 120.343C184.94 120.311 184.827 120.299 184.714 120.31C184.602 120.321 184.492 120.354 184.393 120.407C184.293 120.46 184.205 120.532 184.133 120.619C184.061 120.706 184.007 120.807 183.974 120.915C183.941 121.023 183.93 121.136 183.941 121.249C183.952 121.361 183.984 121.47 184.038 121.57C184.091 121.67 184.163 121.758 184.25 121.83L184.875 122.455L185.422 123.08L185.969 123.704L186.438 124.407C187.141 125.344 187.688 126.282 188.078 127.219C189.016 129.172 189.328 131.202 189.172 133.233C189.016 135.185 188.391 137.138 187.453 139.012C185.926 142.038 183.8 144.722 181.203 146.901L180.891 147.135H180.813C178.773 148.526 176.496 149.532 174.094 150.103C170.496 150.965 166.727 150.775 163.234 149.556H163C164.528 149.316 166.023 148.897 167.453 148.307C169.7 147.387 171.686 145.931 173.239 144.065C174.792 142.2 175.863 139.982 176.359 137.607L176.828 134.639C176.992 132.82 176.992 130.99 176.828 129.172V128.39L176.75 127.766L176.672 127.141L176.594 126.516V126.282L176.516 126.126V125.891L176.359 125.345L176.203 124.251L175.578 119.799L175.422 117.612L175.266 115.426V108.787L175.5 106.678C175.678 105.252 175.966 103.842 176.359 102.461C176.75 101.133 177.297 99.8051 177.922 98.5555C178.703 97.3839 179.484 96.2905 180.5 95.4314C181.281 94.8048 182.186 94.3521 183.156 94.1036L183.625 94.0255L184.172 93.9474C184.4 93.9474 184.618 93.8569 184.78 93.6958C184.941 93.5347 185.031 93.3162 185.031 93.0883C185.031 92.8604 184.941 92.6419 184.78 92.4808C184.618 92.3197 184.4 92.2292 184.172 92.2292L183.625 92.1511H182.922C181.558 92.1777 180.22 92.5255 179.016 93.1664C177.453 93.9474 176.125 95.1189 175.031 96.4467C173.898 97.7568 172.927 99.1992 172.141 100.742C171.359 102.304 170.813 103.866 170.266 105.428L169.484 107.772L169.016 110.271C167.996 115.07 167.524 119.97 167.609 124.876V128.781L167.531 129.25C167.386 131.065 166.992 132.852 166.359 134.561C166.125 135.029 165.969 135.42 165.656 135.732C165.188 136.435 164.719 136.747 164.25 136.982C163.604 137.24 162.915 137.372 162.219 137.372C161.06 137.404 159.903 137.273 158.781 136.982C158.781 136.982 154.875 135.576 156.125 131.046C156.654 130.009 157.429 129.118 158.382 128.451C159.336 127.784 160.439 127.361 161.594 127.219C161.594 127.219 168 77.7803 128 45.9927C87.8438 77.7803 94.25 127.219 94.25 127.219C97.375 127.688 99.0938 129.562 99.875 131.358C100.891 135.342 97.6094 136.826 97.2188 136.982L96.6719 137.06C95.5782 137.294 94.5625 137.372 93.7032 137.372C93.0074 137.372 92.318 137.24 91.6719 136.982C91.2032 136.747 90.7344 136.435 90.1875 135.732L89.5625 134.561L89.0157 132.999C88.7032 131.827 88.5469 130.577 88.3907 129.25V126.907L88.3125 126.75V124.876C88.2175 119.979 87.7474 115.096 86.9063 110.271L86.3594 107.85L85.6563 105.428L83.7813 100.742C83 99.1803 82.0625 97.7744 80.8907 96.4467C79.7599 95.1025 78.3806 93.9887 76.8282 93.1664C75.6144 92.5508 74.2819 92.2044 72.9219 92.1511H71.75C71.5118 92.1511 71.2832 92.2457 71.1148 92.4141C70.9463 92.5826 70.8516 92.811 70.8516 93.0492C70.8516 93.2875 70.9463 93.5159 71.1148 93.6843C71.2832 93.8528 71.5118 93.9474 71.75 93.9474H72.375L72.8438 94.1036C73.8191 94.3375 74.7277 94.7917 75.5 95.4314C76.5157 96.2905 77.375 97.3839 78 98.5555C78.672 99.7915 79.1965 101.102 79.5625 102.461C79.9828 103.84 80.2962 105.25 80.5 106.678L80.6563 108.787L80.8125 110.974V115.426C80.6563 116.128 80.6563 116.831 80.5782 117.612C80.4005 119.834 80.1399 122.049 79.7969 124.251L79.6407 125.345L79.5625 125.891V126.126L79.4844 126.204V126.516L79.3282 127.141V127.766L79.1719 128.469V129.093C78.9261 131.939 79.0839 134.805 79.6407 137.607C80.2396 139.829 81.2462 141.921 82.6094 143.777C84.16 145.778 86.2068 147.34 88.5469 148.307C89.9749 148.886 91.4716 149.28 93 149.478L92.7657 149.556C89.2688 150.887 85.4404 151.079 81.8282 150.103C79.4739 149.502 77.2318 148.526 75.1875 147.213L75.1094 147.135L74.875 146.901C73.8482 146.086 72.9059 145.17 72.0625 144.167C70.7019 142.574 69.547 140.816 68.625 138.934C67.6875 137.06 67.0625 135.107 66.9063 133.155C66.75 131.124 67.0625 129.093 68 127.141C68.3907 126.204 68.9375 125.188 69.5625 124.329L70.1094 123.626L70.6563 123.001L71.2032 122.377L71.8282 121.674C71.9154 121.597 71.9866 121.503 72.0377 121.399C72.0888 121.295 72.1189 121.181 72.1261 121.065C72.1334 120.949 72.1177 120.833 72.08 120.723C72.0423 120.613 71.9832 120.511 71.9063 120.424C71.8294 120.337 71.736 120.266 71.6315 120.215C71.5271 120.163 71.4136 120.133 71.2975 120.126C71.1814 120.119 71.065 120.135 70.955 120.172C70.845 120.21 70.7435 120.269 70.6563 120.346L69.875 120.893L69.1719 121.439L68.3907 121.986L67.7657 122.611C66.8282 123.47 65.9688 124.485 65.1875 125.501C63.625 127.609 62.6094 130.187 62.2969 132.999C61.9063 135.732 62.2969 138.466 63.0782 141.043C64.2191 144.847 66.0751 148.399 68.5469 151.509C64.9085 152.3 61.4757 153.843 58.4688 156.039C56.9637 157.181 55.6458 158.552 54.5625 160.1C53.047 162.194 52.1798 164.687 52.0687 167.27C51.9576 169.852 52.6074 172.41 53.9375 174.627C54.7842 176.097 55.8365 177.438 57.0625 178.61L57.4532 179.079L57.6875 179.313L57.9219 179.547L58.7032 180.25C61.9931 183.085 65.6774 185.426 69.6407 187.201C71.9844 188.295 74.3282 189.154 76.6719 190.013V190.169L76.8282 190.56L77.0625 191.028L77.5313 191.809L77.6094 192.044L77.7657 192.2L78.0782 192.59L78.625 193.293C80.1875 195.168 82.2188 196.417 84.25 197.199C86.2288 197.896 88.3278 198.188 90.4219 198.058H91.2032L91.9063 197.98L92.6875 197.823L93.3125 197.667L94.0938 197.511H94.4063L94.7969 197.355L95.5782 197.12L95.8907 196.964L96.2032 196.886L97.2969 196.417L97.375 196.339H97.6094V196.261L97.9219 196.105L98.3907 195.871L99.3282 195.48L100.266 195.09C104.1 193.64 108.22 193.105 112.297 193.528C113.703 193.684 114.953 194.074 116.203 194.621C117.375 195.168 118.469 195.871 119.328 196.73L119.641 197.12L119.953 197.511L120.109 197.667L120.266 197.901L120.5 198.292C120.813 198.839 121.125 199.463 121.281 200.088L121.359 200.557L121.438 201.104V201.338L121.516 201.572V203.134L121.438 204.228C121.412 204.341 121.409 204.457 121.428 204.571C121.448 204.685 121.489 204.794 121.551 204.892C121.613 204.99 121.693 205.075 121.788 205.142C121.882 205.209 121.989 205.256 122.102 205.282C122.214 205.308 122.331 205.311 122.445 205.291C122.559 205.272 122.669 205.23 122.766 205.169C122.864 205.107 122.949 205.027 123.016 204.932C123.083 204.838 123.131 204.731 123.156 204.618L123.469 203.525L123.703 202.197L123.781 201.572V199.854C123.703 198.917 123.469 198.058 123.234 197.277L122.922 196.652L122.844 196.339L122.688 196.027L122.375 195.402L121.984 194.855L121.203 193.762L120.734 193.293L120.266 192.825C118.284 191.1 115.971 189.798 113.469 188.998C108.552 187.455 103.302 187.319 98.3125 188.607L97.0625 188.92L95.8907 189.232L95.2657 189.466H94.9532L94.875 189.544L93.7032 189.857H93.3125L92.9219 190.013H90.5C89.519 189.948 88.5617 189.682 87.6875 189.232C86.9063 188.763 86.3594 188.217 86.125 187.67C85.7344 187.045 85.7344 186.577 85.7344 185.952C85.8125 185.405 86.0469 184.78 86.5157 183.999C86.9063 183.218 87.5313 182.437 88.3125 181.656C89.875 180.25 91.9844 178.844 94.3282 177.673L94.7969 177.439L95.1875 177.204L96.125 176.814L98 176.033L100.109 175.174L101.203 174.705H101.359L101.516 174.627L101.828 174.471L102.375 174.158L104.641 173.065C109.328 170.956 119.25 167.051 128.078 167.051C136.906 167.051 146.828 170.956 151.516 173.065L153.781 174.158L154.328 174.471L154.641 174.627H154.797L154.953 174.705L156.047 175.174L158.156 176.033L160.031 176.814L160.891 177.204L161.359 177.439L161.828 177.673C164.172 178.844 166.281 180.25 167.844 181.734C168.625 182.515 169.25 183.296 169.719 183.999C170.109 184.78 170.344 185.405 170.422 185.952C170.422 186.577 170.422 187.045 170.109 187.67C169.797 188.217 169.25 188.763 168.469 189.232C167.688 189.623 166.75 189.935 165.656 190.013H163.156L162.766 189.935H162.375L161.281 189.544H161.125C161.125 189.544 160.969 189.466 161.203 189.544H161.125L160.813 189.466L160.188 189.232L159.016 188.92L157.766 188.607C152.776 187.319 147.526 187.455 142.609 188.998C140.106 189.796 137.793 191.098 135.813 192.825L135.344 193.293L134.875 193.762L134.094 194.855L133.703 195.402L133.391 196.027L133.234 196.339L133.156 196.652L132.844 197.277C132.609 198.058 132.375 198.917 132.297 199.854V201.728L132.375 202.353C132.375 202.822 132.531 203.212 132.609 203.681L132.922 204.774C133.078 205.165 133.469 205.399 133.859 205.399C134.328 205.321 134.641 204.931 134.641 204.384L134.563 203.29V201.182L134.719 200.635L134.797 200.166C134.953 199.542 135.266 198.917 135.578 198.37L135.813 197.98L135.969 197.745L136.125 197.589L136.438 197.199C136.438 197.042 136.594 196.964 136.75 196.808C137.609 195.949 138.703 195.246 139.875 194.699C141.125 194.153 142.453 193.762 143.781 193.606C147.859 193.031 152.017 193.571 155.813 195.168L156.75 195.558L157.688 195.949L158.156 196.183L158.391 196.339H158.469L158.703 196.417H158.781L159.875 196.964L160.188 197.042L160.578 197.199L161.359 197.433L161.672 197.511L162.063 197.589L162.766 197.745L163.469 197.901L164.25 198.058H164.953L165.734 198.136C167.803 198.256 169.874 197.964 171.828 197.277C173.859 196.496 175.891 195.246 177.453 193.372L178.078 192.59L178.313 192.278L178.469 192.122L178.547 191.888L179.016 191.107L179.25 190.638L179.406 190.247V190.091C186.002 188.065 192.116 184.717 197.375 180.25L198.156 179.626L198.391 179.391L198.625 179.157L199.094 178.688C200.281 177.481 201.329 176.145 202.219 174.705L203.313 172.128C203.979 170.143 204.166 168.029 203.859 165.958ZM86.9844 167.832L86.4375 168.223L85.8907 168.613L84.7969 169.394L84.25 169.863L83.7032 170.253L82.6875 171.19L81.6719 172.206L81.2032 172.674L80.7344 173.221L79.7969 174.315C78.5469 175.877 77.4532 177.673 76.6719 179.782C76.2032 180.719 75.8907 181.89 75.7344 183.062L75.5782 183.921V184.077C72.4662 182.07 69.5147 179.824 66.75 177.361C65.8125 176.58 65.0313 175.642 64.25 174.705L63.625 174.08L63.5469 173.846L63.3907 173.69L63.2344 173.455C62.6684 172.625 62.1967 171.735 61.8282 170.8L61.5157 169.707C61.4375 168.926 61.5157 168.379 61.6719 167.91C61.9063 167.442 62.2188 166.973 62.6875 166.504C63.1563 166.036 63.7813 165.567 64.5625 165.177C66.125 164.396 68.0782 163.771 70.0313 163.458C74.6952 162.886 79.4215 163.787 83.5469 166.036L84.25 166.348L84.7969 166.661L85.1875 166.817L85.5782 167.051L87.1407 167.676L86.9844 167.832ZM115.891 133.467C115.465 133.467 115.043 133.383 114.65 133.22C114.257 133.058 113.899 132.819 113.598 132.518C113.297 132.217 113.058 131.86 112.895 131.466C112.732 131.073 112.648 130.652 112.648 130.226C112.648 129.8 112.732 129.379 112.895 128.986C113.058 128.592 113.297 128.235 113.598 127.934C113.899 127.633 114.257 127.394 114.65 127.231C115.043 127.068 115.465 126.985 115.891 126.985C116.74 126.985 117.555 127.322 118.156 127.923C118.756 128.523 119.094 129.338 119.094 130.187C119.094 131.036 118.756 131.851 118.156 132.451C117.555 133.052 116.74 133.389 115.891 133.389V133.467ZM140.109 133.467C139.684 133.467 139.262 133.383 138.869 133.22C138.475 133.058 138.118 132.819 137.817 132.518C137.516 132.217 137.277 131.86 137.114 131.466C136.951 131.073 136.867 130.652 136.867 130.226C136.867 129.8 136.951 129.379 137.114 128.986C137.277 128.592 137.516 128.235 137.817 127.934C138.118 127.633 138.475 127.394 138.869 127.231C139.262 127.068 139.684 126.985 140.109 126.985C140.959 126.985 141.774 127.322 142.374 127.923C142.975 128.523 143.313 129.338 143.313 130.187C143.313 131.036 142.975 131.851 142.374 132.451C141.774 133.052 140.959 133.389 140.109 133.389V133.467ZM194.484 169.707C194.34 170.533 194.049 171.326 193.625 172.05L192.844 173.455L192.609 173.69L192.453 173.846L192.375 174.002L191.75 174.783C189.352 177.544 186.562 179.939 183.469 181.89C182.444 182.593 181.402 183.271 180.344 183.921V182.906C179.659 179.747 178.271 176.784 176.281 174.236L175.266 173.065L174.797 172.518L174.328 172.05L173.313 171.034L172.297 170.097L171.75 169.707C171.575 169.542 171.393 169.386 171.203 169.238L170.109 168.457L169.563 168.066L169.016 167.676L168.781 167.52L170.422 166.895L170.813 166.661L171.203 166.504L171.75 166.192L172.453 165.88L173.781 165.099C176.561 163.874 179.563 163.234 182.601 163.221C185.639 163.208 188.647 163.82 191.438 165.02C192.219 165.411 192.844 165.801 193.313 166.348C193.781 166.817 194.094 167.285 194.328 167.754C194.484 168.223 194.563 168.769 194.484 169.55V169.707Z" fill="white"/>
</g>
<defs>
<clipPath id="clip0_93_114">
<rect width="200" height="214" fill="white" transform="translate(28 21)"/>
</clipPath>
</defs>
</svg>
