<svg width="256" height="256" viewBox="0 0 256 256" fill="none" xmlns="http://www.w3.org/2000/svg">
<rect width="256" height="256" fill="#336CE5"/>
<path d="M128.073 30C126.499 30.1095 125.032 30.8336 123.986 32.0164C122.941 33.1992 122.401 34.746 122.484 36.3234V37.9308C122.637 39.7506 122.91 41.5533 123.269 43.3389C123.792 46.7594 123.981 50.2231 123.832 53.6804C123.504 54.8199 122.859 55.8423 121.972 56.6278L121.844 59.0384C118.388 59.3288 114.958 59.8586 111.579 60.6277C97.3571 63.8377 84.4187 71.233 74.4259 81.8634L72.3789 80.4113C71.8222 80.5789 71.2381 80.6349 70.6598 80.5762C70.0815 80.5174 69.5205 80.345 69.0089 80.0688C66.2386 78.0161 63.6748 75.6976 61.3539 73.1464C60.1886 71.7511 58.9435 70.4245 57.6249 69.1735L56.3619 68.165C55.2364 67.2606 53.8534 66.7371 52.4119 66.6698C51.5514 66.6239 50.6923 66.7826 49.9048 67.133C49.1173 67.4834 48.4238 68.0155 47.881 68.6858C46.9561 69.9863 46.5841 71.6011 46.8465 73.176C47.109 74.7508 47.9845 76.1571 49.281 77.0863L50.458 78.0267C51.9733 79.0373 53.5459 79.9589 55.1679 80.7868C58.2105 82.4726 61.0652 84.4778 63.6839 86.7688C64.3608 87.7347 64.7537 88.8713 64.8179 90.0497L66.6779 91.7592C56.6367 106.855 52.5108 125.13 55.0909 143.084L52.7009 143.768C52.082 144.761 51.2481 145.602 50.261 146.229C46.9278 147.12 43.5156 147.684 40.073 147.912C38.2464 147.95 36.4234 148.093 34.613 148.34L33.102 148.681H32.932C32.148 148.79 31.395 149.061 30.7208 149.476C30.0466 149.891 29.4659 150.442 29.0155 151.094C28.5651 151.746 28.2548 152.485 28.1043 153.263C27.9538 154.041 27.9663 154.842 28.1411 155.616C28.3735 156.65 28.8887 157.598 29.6291 158.356C30.3759 159.109 31.3171 159.64 32.3476 159.889C33.3781 160.137 34.4574 160.095 35.465 159.765H35.576L37.112 159.595C38.8482 159.075 40.5521 158.453 42.215 157.732C45.4176 156.442 48.7384 155.469 52.13 154.826C53.3038 154.893 54.4344 155.293 55.3899 155.979L57.9499 155.552C63.4927 172.786 75.1497 187.389 90.7158 196.597L89.6748 198.776C90.153 199.775 90.3309 200.891 90.1868 201.989C88.7768 205.259 87.0534 208.384 85.0408 211.321C83.9371 212.78 82.9174 214.3 81.9868 215.876L81.2608 217.414C80.8676 218.098 80.6197 218.856 80.5327 219.64C80.4457 220.424 80.5215 221.218 80.7553 221.972C80.9891 222.726 81.3758 223.423 81.8913 224.02C82.4068 224.617 83.0399 225.1 83.7508 225.441C84.7015 225.896 85.7597 226.079 86.8078 225.969C87.8583 225.85 88.8553 225.442 89.6883 224.79C90.5214 224.138 91.1577 223.268 91.5268 222.276L92.2338 220.824C92.8805 219.12 93.4277 217.379 93.8728 215.611C95.3828 211.877 96.2028 207.869 98.2668 205.39C98.9416 204.754 99.7924 204.337 100.708 204.194L101.988 201.861C118.859 208.355 137.528 208.401 154.431 201.989L155.565 204.168C156.725 204.345 157.768 204.975 158.466 205.92C160.066 208.978 161.369 212.183 162.357 215.491C162.81 217.262 163.362 219.005 164.012 220.713L164.72 222.165C164.999 222.904 165.428 223.577 165.979 224.142C166.53 224.707 167.192 225.152 167.923 225.449C168.654 225.745 169.438 225.887 170.227 225.866C171.015 225.844 171.791 225.66 172.504 225.324C173.459 224.874 174.271 224.169 174.849 223.285C175.423 222.396 175.739 221.366 175.763 220.309C175.787 219.251 175.518 218.208 174.985 217.295L174.243 215.756C173.314 214.186 172.294 212.671 171.188 211.219C169.226 208.381 167.536 205.356 166.068 202.186C165.931 201.606 165.912 201.005 166.012 200.417C166.111 199.83 166.328 199.269 166.649 198.767C166.286 198.021 165.97 197.254 165.701 196.469C181.235 187.191 192.839 172.539 198.323 155.279L200.746 155.706C201.615 154.915 202.756 154.492 203.929 154.527C207.316 155.176 210.635 156.236 213.844 157.432C215.502 158.195 217.206 158.852 218.946 159.398C219.356 159.509 219.953 159.603 220.414 159.714H220.525C221.532 160.04 222.61 160.08 223.638 159.829C224.666 159.578 225.605 159.045 226.348 158.291C227.093 157.537 227.614 156.591 227.852 155.557C228.092 154.525 228.039 153.446 227.701 152.442C227.356 151.438 226.739 150.55 225.92 149.877C225.1 149.204 224.11 148.772 223.059 148.63L221.404 148.238C219.594 147.991 217.77 147.848 215.943 147.81C212.5 147.589 209.087 147.025 205.755 146.126C204.725 145.549 203.874 144.697 203.297 143.666L200.993 142.982C203.451 125.036 199.242 106.811 189.167 91.7682L191.181 89.9055C191.099 88.7315 191.479 87.5719 192.239 86.6746C194.857 84.4244 197.686 82.4325 200.686 80.7267C202.307 79.8969 203.88 78.9754 205.396 77.9666L206.642 76.9581C207.328 76.5314 207.915 75.9643 208.366 75.294C208.817 74.6237 209.122 73.8654 209.259 73.0689C209.397 72.2725 209.364 71.4559 209.164 70.6728C208.964 69.8898 208.601 69.158 208.098 68.5255C207.595 67.8934 206.965 67.3751 206.248 67.0046C205.53 66.6341 204.743 66.42 203.937 66.3762C203.131 66.3324 202.326 66.4599 201.573 66.7505C200.82 67.041 200.136 67.4879 199.568 68.0618L198.306 69.0703C196.989 70.3233 195.744 71.65 194.577 73.0443C192.325 75.6228 189.83 77.9781 187.127 80.0778C186.036 80.5234 184.842 80.6535 183.68 80.4533L181.521 81.9916C169.057 68.909 152.275 60.8014 134.293 59.1746C134.293 58.3203 134.182 57.0384 134.165 56.6368C133.198 55.9714 132.53 54.9527 132.305 53.7995C132.185 50.3481 132.402 46.8933 132.953 43.4841C133.32 41.6905 133.576 39.8958 133.738 38.0761V36.3665C133.821 34.7888 133.282 33.2414 132.236 32.0584C131.191 30.8754 129.722 30.1515 128.149 30.0431L128.073 30ZM120.956 74.1459L119.25 103.996H119.122C119.036 105.842 117.953 107.415 116.289 108.304C114.625 109.192 112.654 108.928 111.169 107.842L86.7218 90.4943C94.5031 82.8407 104.265 77.5162 114.906 75.1214C116.899 74.6941 118.912 74.3689 120.939 74.1469L120.956 74.1459ZM135.189 74.1459C148.028 75.7465 159.989 81.5229 169.234 90.5885L145.019 107.825C144.285 108.411 143.402 108.779 142.469 108.888C141.537 108.997 140.593 108.842 139.745 108.44C138.896 108.037 138.178 107.404 137.671 106.612C137.165 105.821 136.89 104.903 136.878 103.962L135.189 74.1459ZM77.8488 101.723L100.204 121.703V121.831C100.886 122.429 101.394 123.201 101.673 124.065C101.952 124.928 101.993 125.851 101.791 126.736C101.587 127.62 101.149 128.432 100.523 129.086C99.8967 129.741 99.1054 130.213 98.2328 130.454V130.539L69.5459 138.802C68.1258 125.859 71.0495 112.81 77.8558 101.715L77.8488 101.723ZM178.134 101.723C184.927 112.788 187.929 125.771 186.684 138.7L157.954 130.411V130.3C157.079 130.065 156.284 129.594 155.656 128.939C155.029 128.284 154.593 127.468 154.396 126.582C154.197 125.697 154.239 124.775 154.519 123.912C154.798 123.049 155.304 122.278 155.983 121.678L178.168 101.792L178.134 101.723ZM123.49 123.258H132.638L138.227 130.368L136.196 139.256L127.979 143.212L119.744 139.256L117.807 130.368L123.49 123.258ZM152.792 147.51C153.174 147.469 153.561 147.469 153.944 147.51L183.527 152.51C179.26 164.815 170.838 175.327 159.848 182.36L148.415 154.638C148.099 153.895 147.967 153.086 148.032 152.281C148.127 151.066 148.658 149.927 149.527 149.074C150.396 148.22 151.543 147.711 152.758 147.639L152.792 147.51ZM103.105 147.639C103.928 147.653 104.735 147.869 105.455 148.268C106.175 148.668 106.786 149.238 107.235 149.929C107.683 150.619 107.954 151.409 108.024 152.229C108.094 153.049 107.96 153.873 107.636 154.629V154.74L96.2708 182.24C85.3933 175.255 77.1211 164.871 72.7369 152.698L102.064 147.716C102.39 147.682 102.72 147.682 103.054 147.716L103.105 147.639ZM127.885 159.603C128.817 159.574 129.739 159.805 130.547 160.269C131.356 160.734 132.021 161.414 132.467 162.234H132.578L147.033 188.358L141.256 190.068C130.62 192.504 119.517 191.93 109.189 188.411L123.695 162.287C124.574 160.748 126.195 159.808 127.962 159.765L127.885 159.603Z" fill="white" stroke="white" stroke-width="0.055"/>
</svg>
