<svg width="256" height="256" viewBox="0 0 256 256" fill="none" xmlns="http://www.w3.org/2000/svg">
<rect width="256" height="256" fill="#FF2D20"/>
<g clip-path="url(#clip0_93_125)">
<path d="M224.924 73.1515L225 73.9848V116.864C225 117.924 224.394 118.985 223.484 119.515L187.413 140.273V181.333C187.413 182.394 186.882 183.455 185.897 183.985L110.798 227.167L110.267 227.47L110.04 227.545C109.509 227.697 108.979 227.697 108.449 227.545L108.145 227.47L107.691 227.242L32.5157 184.061C31.5306 183.455 30.9243 182.394 30.9243 181.333V52.7727L31.0001 51.9394L31.1517 51.6364L31.379 51.1818L31.5306 50.8788L31.8337 50.5L32.1368 50.2727C32.2884 50.2727 32.3642 50.1212 32.5157 50.0455L70.1032 28.4545C71.0884 27.8485 72.3009 27.8485 73.2103 28.4545L110.798 49.9697C110.949 49.9697 111.025 50.1212 111.101 50.197L111.48 50.4242C111.48 50.5758 111.631 50.7273 111.707 50.803L111.934 51.1061L112.162 51.5606L112.238 51.8636L112.389 52.6212V132.924L143.611 114.97V73.9848C143.611 73.6818 143.611 73.4545 143.763 73.2273L143.838 72.9242L144.066 72.3939L144.293 72.1667L144.52 71.7879L144.899 71.5606L145.202 71.2576L182.79 49.6667C183.699 49.1364 184.912 49.1364 185.821 49.6667L223.484 71.1818L223.863 71.4848L224.166 71.7121L224.47 72.0909L224.621 72.3182C224.773 72.4697 224.773 72.697 224.849 72.8485L225 73.0758L224.924 73.1515ZM218.71 115.045V79.4394L205.6 87.0152L187.413 97.3939V133L218.71 115.045ZM181.199 179.439V143.833L163.314 154.061L112.389 183.152V219.136L181.199 179.515V179.439ZM37.2142 58.2273V179.515L106.099 219.136V183.152L70.1032 162.773L69.8001 162.47C69.6485 162.47 69.5728 162.394 69.497 162.242L69.1938 161.939L68.9665 161.636L68.8149 161.258L68.6634 160.879V160.424L68.5118 160.045V76.1818L50.4001 65.7273L37.2899 58.1515L37.2142 58.2273ZM71.6946 34.7424L40.397 52.8485L71.6946 70.803L102.916 52.8485L71.6946 34.7424ZM87.836 147.167L106.024 136.712V58.1515L92.9134 65.7273L74.7259 76.1818V154.667L87.836 147.091V147.167ZM184.306 55.9545L153.008 73.9848L184.306 92.0152L215.603 73.9848L184.306 55.9545ZM181.199 97.3939L163.011 86.9394L149.901 79.3636V114.97L168.088 125.5L181.199 133.076V97.4697V97.3939ZM109.206 177.697L155.13 151.561L178.016 138.455L146.794 120.424L110.798 141.182L77.9845 160.045L109.206 177.697Z" fill="#232932"/>
</g>
<defs>
<clipPath id="clip0_93_125">
<rect width="194" height="200" fill="white" transform="translate(31 28)"/>
</clipPath>
</defs>
</svg>
