<svg width="256" height="256" viewBox="0 0 256 256" fill="none" xmlns="http://www.w3.org/2000/svg">
<rect width="256" height="256" fill="#242932"/>
<g clip-path="url(#clip0_23_555)">
<path d="M81.2205 157.924C78.1219 157.924 74.5916 157.924 70.6297 157.924C64.6868 157.924 43.6629 153.027 43.6629 131.715C43.6629 117.506 43.6629 97.3829 43.6629 71.3442C43.6629 65.5674 44.6705 61.134 46.6855 58.0442C49.7081 53.4095 55.8617 44.9976 68.8749 44.9976C81.8881 44.9976 89.0994 52.9642 91.998 58.0442C93.9304 61.4309 94.8965 65.8642 94.8965 71.3442V182.937C94.8965 185.284 94.8618 189.469 96.7519 194.643C98.642 199.818 103.02 204.072 105.731 205.762C108.441 207.453 117.637 208.948 124.08 208.948H190.204C193.894 208.871 197.348 207.81 200.566 205.762C205.394 202.692 211.876 195.379 211.876 183.959C211.876 172.539 205.385 164.955 200.566 161.44C197.354 159.096 193.9 157.924 190.204 157.924H108.441" stroke="white" stroke-width="10"/>
</g>
<defs>
<clipPath id="clip0_23_555">
<rect width="180" height="175" fill="white" transform="translate(38 40)"/>
</clipPath>
</defs>
</svg>
