<svg width="256" height="256" viewBox="0 0 256 256" fill="none" xmlns="http://www.w3.org/2000/svg">
<rect width="256" height="256" fill="#011E36"/>
<path d="M131.926 184.984H62.7692C61.5985 184.984 61.0134 184.34 61.014 183.053V71.5938C60.9834 71.3792 61.0032 71.1604 61.0717 70.9547C61.1403 70.749 61.2557 70.5622 61.4091 70.4088C61.5625 70.2557 61.7494 70.14 61.955 70.0714C62.1604 70.0032 62.3795 69.9834 62.5941 70.014H84.0082C84.175 69.9904 84.345 70.006 84.5048 70.0596C84.6648 70.1129 84.8099 70.2028 84.9292 70.3221C85.0481 70.441 85.1381 70.5864 85.1913 70.7462C85.2449 70.9059 85.2605 71.0759 85.2369 71.243V162.868H135.613C136.666 162.868 137.075 163.394 136.841 164.447L133.682 183.404C133.675 183.663 133.608 183.916 133.486 184.145C133.364 184.373 133.191 184.57 132.98 184.721C132.654 184.89 132.293 184.98 131.926 184.984Z" fill="#31A8FF"/>
<path d="M149.302 97.7474H168.435C168.954 97.7522 169.458 97.926 169.87 98.2427C170.282 98.5597 170.579 99.002 170.716 99.5029C171.134 100.272 171.43 101.101 171.594 101.96C171.839 103.089 172.015 104.232 172.121 105.383C172.236 106.612 172.295 107.928 172.296 109.332C175.577 105.512 179.534 102.329 183.969 99.942C188.95 97.2484 194.543 95.888 200.205 95.9926C200.42 95.962 200.638 95.9814 200.844 96.05C201.05 96.1185 201.237 96.2343 201.39 96.3874C201.543 96.5408 201.658 96.7276 201.727 96.9333C201.796 97.139 201.815 97.3578 201.784 97.5724V118.811C201.784 119.631 201.199 120.04 200.029 120.039C192.959 119.602 185.886 120.866 179.405 123.726C177.202 124.678 175.206 126.049 173.525 127.763V183.405C173.525 184.458 173.057 184.984 172.121 184.984H150.882C150.643 185.019 150.4 184.997 150.172 184.921C149.943 184.844 149.735 184.716 149.565 184.546C149.395 184.375 149.266 184.168 149.19 183.939C149.114 183.71 149.093 183.467 149.127 183.229V122.848C149.127 120.275 149.098 117.555 149.039 114.686C148.979 111.82 148.891 108.982 148.776 106.173C148.698 103.761 148.463 101.358 148.074 98.9764C148.03 98.8065 148.031 98.6282 148.077 98.4589C148.123 98.2896 148.213 98.1352 148.337 98.0108C148.461 97.8868 148.615 97.7972 148.785 97.7509C148.954 97.7047 149.132 97.7038 149.302 97.7474Z" fill="#31A8FF"/>
</svg>
