<svg width="256" height="256" viewBox="0 0 256 256" fill="none" xmlns="http://www.w3.org/2000/svg">
<rect width="256" height="256" fill="#4338CA"/>
<g clip-path="url(#clip0_74_494)">
<path fill-rule="evenodd" clip-rule="evenodd" d="M51.6664 44.6667C50.2728 44.6667 48.8928 44.9412 47.6052 45.4746C46.3176 46.0079 45.1477 46.7896 44.1623 47.7751C43.1768 48.7605 42.3951 49.9305 41.8618 51.218C41.3284 52.5056 41.0539 53.8856 41.0539 55.2792C41.0539 56.6729 41.3284 58.0529 41.8618 59.3405C42.3951 60.628 43.1768 61.798 44.1623 62.7834C45.1477 63.7689 46.3176 64.5506 47.6052 65.0839C48.8928 65.6172 50.2728 65.8917 51.6664 65.8917H169.225C172.039 65.8917 174.739 64.7736 176.729 62.7834C178.719 60.7932 179.837 58.0939 179.837 55.2792C179.837 52.4646 178.719 49.7653 176.729 47.7751C174.739 45.7848 172.039 44.6667 169.225 44.6667H51.6664ZM94.1248 72.4167C91.3091 72.4167 88.6087 73.5353 86.6177 75.5263C84.6266 77.5173 83.5081 80.2177 83.5081 83.0334C83.5081 85.8491 84.6266 88.5495 86.6177 90.5405C88.6087 92.5315 91.3091 93.6501 94.1248 93.6501H211.666C214.43 93.5726 217.054 92.4206 218.981 90.4388C220.908 88.457 221.986 85.8018 221.986 83.0376C221.986 80.2734 220.908 77.6181 218.981 75.6364C217.054 73.6546 214.43 72.5025 211.666 72.4251L94.1248 72.4167ZM58.1998 110.792C58.1998 104.925 62.9498 100.175 68.8164 100.175H186.366C189.13 100.253 191.754 101.405 193.681 103.386C195.608 105.368 196.686 108.023 196.686 110.788C196.686 113.552 195.608 116.207 193.681 118.189C191.754 120.171 189.13 121.323 186.366 121.4H68.8164C62.9581 121.4 58.1998 116.65 58.1998 110.792ZM38.6081 129.567C35.7935 129.567 33.0942 130.685 31.1039 132.675C29.1137 134.665 27.9956 137.365 27.9956 140.179C27.9956 142.994 29.1137 145.693 31.1039 147.683C33.0942 149.674 35.7935 150.792 38.6081 150.792H156.166C158.93 150.714 161.554 149.562 163.481 147.58C165.408 145.599 166.486 142.943 166.486 140.179C166.486 137.415 165.408 134.76 163.481 132.778C161.554 130.796 158.93 129.644 156.166 129.567H38.6081ZM58.1998 167.933C58.1998 162.067 62.9498 157.317 68.8164 157.317H186.366C189.181 157.317 191.88 158.435 193.871 160.425C195.861 162.415 196.979 165.115 196.979 167.929C196.979 170.744 195.861 173.443 193.871 175.433C191.88 177.424 189.181 178.542 186.366 178.542H68.8164C62.9581 178.542 58.1998 173.792 58.1998 167.933ZM136.575 185.075C133.76 185.075 131.061 186.193 129.071 188.183C127.08 190.174 125.962 192.873 125.962 195.688C125.962 198.502 127.08 201.202 129.071 203.192C131.061 205.182 133.76 206.3 136.575 206.3H217.391C220.206 206.3 222.905 205.182 224.896 203.192C226.886 201.202 228.004 198.502 228.004 195.688C228.004 192.873 226.886 190.174 224.896 188.183C222.905 186.193 220.206 185.075 217.391 185.075H136.575Z" fill="black" fill-opacity="0.3"/>
<path fill-rule="evenodd" clip-rule="evenodd" d="M51.6664 44.6667C50.2728 44.6667 48.8928 44.9412 47.6052 45.4746C46.3176 46.0079 45.1477 46.7896 44.1623 47.7751C43.1768 48.7605 42.3951 49.9305 41.8618 51.218C41.3284 52.5056 41.0539 53.8856 41.0539 55.2792C41.0539 56.6729 41.3284 58.0529 41.8618 59.3405C42.3951 60.628 43.1768 61.798 44.1623 62.7834C45.1477 63.7689 46.3176 64.5506 47.6052 65.0839C48.8928 65.6172 50.2728 65.8917 51.6664 65.8917H137.391C140.155 65.8143 142.779 64.6623 144.706 62.6805C146.633 60.6987 147.711 58.0435 147.711 55.2792C147.711 52.515 146.633 49.8598 144.706 47.878C142.779 45.8962 140.155 44.7442 137.391 44.6667H51.6664ZM94.1248 72.4167C91.3091 72.4167 88.6087 73.5353 86.6177 75.5263C84.6266 77.5173 83.5081 80.2177 83.5081 83.0334C83.5081 85.8491 84.6266 88.5495 86.6177 90.5405C88.6087 92.5315 91.3091 93.6501 94.1248 93.6501H179.833C182.596 93.5726 185.22 92.4206 187.147 90.4388C189.074 88.457 190.152 85.8018 190.152 83.0376C190.152 80.2734 189.074 77.6181 187.147 75.6364C185.22 73.6546 182.596 72.5025 179.833 72.4251L94.1248 72.4167ZM58.1998 110.792C58.1998 104.925 62.9498 100.175 68.8164 100.175H154.533C157.348 100.175 160.047 101.293 162.037 103.283C164.028 105.274 165.146 107.973 165.146 110.788C165.146 113.602 164.028 116.302 162.037 118.292C160.047 120.282 157.348 121.4 154.533 121.4H68.8164C62.9581 121.4 58.1998 116.65 58.1998 110.792ZM38.6081 129.567C35.7935 129.567 33.0942 130.685 31.1039 132.675C29.1137 134.665 27.9956 137.365 27.9956 140.179C27.9956 142.994 29.1137 145.693 31.1039 147.683C33.0942 149.674 35.7935 150.792 38.6081 150.792H124.333C127.096 150.714 129.72 149.562 131.647 147.58C133.574 145.599 134.652 142.943 134.652 140.179C134.652 137.415 133.574 134.76 131.647 132.778C129.72 130.796 127.096 129.644 124.333 129.567H38.6081ZM58.1998 167.933C58.1998 162.067 62.9498 157.317 68.8164 157.317H154.533C157.348 157.317 160.047 158.435 162.037 160.425C164.028 162.415 165.146 165.115 165.146 167.929C165.146 170.744 164.028 173.443 162.037 175.433C160.047 177.424 157.348 178.542 154.533 178.542H68.8164C62.9581 178.542 58.1998 173.792 58.1998 167.933ZM136.575 185.075C133.76 185.075 131.061 186.193 129.071 188.183C127.08 190.174 125.962 192.873 125.962 195.688C125.962 198.502 127.08 201.202 129.071 203.192C131.061 205.182 133.76 206.3 136.575 206.3H184.741C187.556 206.3 190.255 205.182 192.246 203.192C194.236 201.202 195.354 198.502 195.354 195.688C195.354 192.873 194.236 190.174 192.246 188.183C190.255 186.193 187.556 185.075 184.741 185.075H136.575Z" fill="#EDEBFC"/>
</g>
<defs>
<clipPath id="clip0_74_494">
<rect width="200" height="200" fill="white" transform="translate(28 28)"/>
</clipPath>
</defs>
</svg>
