<svg width="256" height="256" viewBox="0 0 256 256" fill="none" xmlns="http://www.w3.org/2000/svg">
<rect width="256" height="256" fill="#232932"/>
<path d="M128 228C183.228 228 228 183.228 228 128C228 72.7715 183.228 28 128 28C72.7715 28 28 72.7715 28 128C28 183.228 72.7715 228 128 228Z" fill="#457EFF"/>
<path fill-rule="evenodd" clip-rule="evenodd" d="M102.894 71.4042C101.192 79.4893 92.6809 124.596 90.9788 133.957C89.2767 143.319 96.9363 151.404 104.17 151.404H115.66C118.638 151.404 123.319 153.532 121.617 161.617C119.915 169.277 118.213 177.362 116.511 185.021C114.809 192.681 123.745 195.66 127.575 189.702C131.404 183.745 159.915 138.213 162.894 132.255C165.872 126.298 160.766 116.936 152.681 116.936H136.936C132.681 116.936 132.255 113.957 133.532 107.574C135.234 101.191 136.936 93.1063 139.915 81.1914C142.894 69.2765 131.404 62.8936 125.447 62.8936H110.979C109.277 62.8936 104.596 63.3191 102.894 71.4042Z" fill="white"/>
</svg>
