<svg width="256" height="256" viewBox="0 0 256 256" fill="none" xmlns="http://www.w3.org/2000/svg">
<rect width="256" height="256" fill="#625DF5"/>
<g clip-path="url(#clip0_131_635)">
<path d="M228 116.879H169.517L220.166 87.6367L209.043 68.3656L158.395 97.6078L187.63 46.9633L168.359 35.8336L139.123 86.4789V28H116.877V86.4844L87.6297 35.8336L68.3648 46.9578L97.6063 97.6016L46.957 68.3656L35.8336 87.6313L86.482 116.873H28V139.121H86.4766L35.8336 168.363L46.957 187.634L97.6008 158.398L68.3586 209.042L87.6297 220.166L116.871 169.516V228H139.118V169.521L168.354 220.166L187.623 209.042L158.383 158.392L209.031 187.634L220.156 168.363L169.512 139.127H227.988V116.879H228ZM128 158.258C111.225 158.258 97.6281 144.662 97.6281 127.886C97.6281 111.111 111.225 97.5141 128 97.5141C144.775 97.5141 158.371 111.111 158.371 127.886C158.371 144.662 144.775 158.258 128 158.258Z" fill="white"/>
</g>
<defs>
<clipPath id="clip0_131_635">
<rect width="200" height="200" fill="white" transform="translate(28 28)"/>
</clipPath>
</defs>
</svg>
