<svg width="256" height="256" viewBox="0 0 256 256" fill="none" xmlns="http://www.w3.org/2000/svg">
<rect width="256" height="256" fill="#232932"/>
<path d="M228 100.341C228 112.631 223.117 124.418 214.427 133.109C205.736 141.8 193.949 146.682 181.659 146.682C169.368 146.682 157.581 141.8 148.891 133.109C140.2 124.418 135.318 112.631 135.318 100.341C135.318 88.0506 140.2 76.2636 148.891 67.573C157.581 58.8823 169.368 54 181.659 54C193.949 54 205.736 58.8823 214.427 67.573C223.117 76.2636 228 88.0506 228 100.341ZM208.487 100.332C208.487 93.2171 205.66 86.3932 200.629 81.362C195.598 76.3308 188.774 73.5042 181.659 73.5042C174.544 73.5042 167.72 76.3308 162.689 81.362C157.657 86.3932 154.831 93.2171 154.831 100.332C154.831 107.448 157.657 114.271 162.689 119.303C167.72 124.334 174.544 127.16 181.659 127.16C188.774 127.16 195.598 124.334 200.629 119.303C205.66 114.271 208.487 107.448 208.487 100.332Z" fill="white"/>
<path d="M181.659 127.161C196.476 127.161 208.487 115.149 208.487 100.332C208.487 85.5157 196.476 73.5044 181.659 73.5044C166.842 73.5044 154.831 85.5157 154.831 100.332C154.831 115.149 166.842 127.161 181.659 127.161Z" fill="#232932"/>
<path d="M110.764 111.439V183.694C110.764 183.738 110.781 183.781 110.813 183.812C110.844 183.843 110.887 183.861 110.931 183.861H150.26C150.304 183.861 150.347 183.879 150.378 183.91C150.41 183.941 150.427 183.984 150.427 184.028V201.302C150.427 201.346 150.41 201.389 150.378 201.42C150.347 201.452 150.304 201.469 150.26 201.469H90.4774C90.433 201.469 90.3905 201.452 90.3591 201.42C90.3277 201.389 90.3101 201.346 90.3101 201.302V111.439C90.3101 111.395 90.3277 111.352 90.3591 111.321C90.3905 111.29 90.433 111.272 90.4774 111.272H110.596C110.641 111.272 110.683 111.29 110.715 111.321C110.746 111.352 110.764 111.395 110.764 111.439Z" fill="white"/>
<path d="M70.0529 111.437H28.1241C28.0556 111.437 28 111.492 28 111.561V128.73C28 128.799 28.0556 128.854 28.1241 128.854H70.0529C70.1214 128.854 70.177 128.799 70.177 128.73V111.561C70.177 111.492 70.1214 111.437 70.0529 111.437Z" fill="white"/>
</svg>
