<svg width="256" height="256" viewBox="0 0 256 256" fill="none" xmlns="http://www.w3.org/2000/svg">
<rect width="256" height="256" fill="#F490B1"/>
<path d="M76.5925 128.337L41.5684 93.2033C39.7486 91.3767 38.7228 88.9059 38.7138 86.3275V86.2223C38.7138 83.6833 39.6654 81.2495 41.5684 79.2366L79.2367 41.5684C81.2496 39.6653 83.7886 38.7138 86.2223 38.7138H86.3275C88.9075 38.7215 91.3802 39.7474 93.2079 41.5684L128.337 76.5925M128.337 76.5925L163.357 41.5684C164.276 40.6567 165.367 39.9353 166.565 39.4455C167.764 38.9557 169.047 38.707 170.342 38.7138C172.881 38.7138 175.42 39.6653 177.328 41.5684L214.996 79.2366C216.899 81.2495 217.851 83.7885 217.851 86.2223C217.851 88.7612 216.899 91.3002 214.996 93.2079L128.337 179.972M128.337 76.5925L41.5684 163.352C39.6654 165.26 38.7138 167.799 38.7138 170.338C38.7071 171.633 38.9557 172.916 39.4456 174.115C39.9354 175.313 40.6568 176.404 41.5684 177.323L79.2367 214.996C81.1158 216.804 83.6149 217.825 86.2223 217.851C87.5164 217.857 88.799 217.608 89.9969 217.118C91.1947 216.628 92.2843 215.907 93.2033 214.996L128.337 179.972M128.337 179.972L163.357 214.996C165.264 216.899 167.803 217.851 170.342 217.851C171.637 217.857 172.921 217.609 174.119 217.119C175.318 216.629 176.408 215.908 177.328 214.996L214.996 177.328C216.899 175.42 217.851 172.881 217.851 170.342C217.851 167.803 216.899 165.264 214.996 163.357L179.972 128.337" stroke="white" stroke-width="12"/>
<rect x="33" y="170.883" width="194.996" height="73.7042" transform="rotate(-45 33 170.883)" fill="white"/>
<path d="M104.251 123.09C102.894 124.456 102.132 126.304 102.132 128.23C102.132 130.156 102.894 132.003 104.251 133.369C107.083 136.197 111.708 136.197 114.535 133.369C115.893 132.003 116.655 130.156 116.655 128.23C116.655 126.304 115.893 124.456 114.535 123.09C113.169 121.731 111.32 120.969 109.393 120.969C107.466 120.969 105.618 121.731 104.251 123.09ZM123.09 152.313C126 155.141 130.547 155.141 133.369 152.313C134.728 150.947 135.491 149.098 135.491 147.171C135.491 145.244 134.728 143.396 133.369 142.029C132.003 140.672 130.156 139.91 128.23 139.91C126.304 139.91 124.456 140.672 123.09 142.029C121.731 143.396 120.968 145.244 120.968 147.171C120.968 149.098 121.731 150.947 123.09 152.313ZM152.313 133.475C153.671 132.109 154.433 130.261 154.433 128.335C154.433 126.409 153.671 124.561 152.313 123.195C150.947 121.836 149.098 121.074 147.171 121.074C145.244 121.074 143.396 121.836 142.029 123.195C140.672 124.561 139.91 126.409 139.91 128.335C139.91 130.261 140.672 132.109 142.029 133.475C144.857 136.306 149.486 136.306 152.313 133.475ZM133.475 104.251C132.108 102.894 130.261 102.132 128.335 102.132C126.409 102.132 124.561 102.894 123.195 104.251C121.836 105.618 121.074 107.466 121.074 109.393C121.074 111.32 121.836 113.169 123.195 114.535C126.022 117.363 130.652 117.363 133.475 114.535C134.833 113.169 135.596 111.32 135.596 109.393C135.596 107.466 134.833 105.618 133.475 104.251Z" fill="#F490B1"/>
</svg>
