<svg width="256" height="256" viewBox="0 0 256 256" fill="none" xmlns="http://www.w3.org/2000/svg">
<g clip-path="url(#clip0_17_288)">
<rect width="256" height="256" fill="#242932"/>
<mask id="mask0_17_288" style="mask-type:luminance" maskUnits="userSpaceOnUse" x="28" y="28" width="200" height="200">
<path d="M28 28H228V228H28V28Z" fill="white"/>
</mask>
<g mask="url(#mask0_17_288)">
<path d="M204.453 128.02C204.453 85.8238 170.195 51.5698 128 51.5698C85.8054 51.5698 51.5474 85.8238 51.5474 128.02C51.5474 170.219 85.8054 204.473 128 204.473C170.195 204.473 204.453 170.219 204.453 128.02Z" fill="#0D09EB"/>
<path d="M182.066 96.3438C182.066 83.9878 172.035 73.9568 159.68 73.9568C147.324 73.9568 137.293 83.9878 137.293 96.3438C137.293 108.695 147.324 118.73 159.68 118.73C172.036 118.73 182.066 108.695 182.066 96.3438Z" fill="white"/>
<path d="M226.84 51.5469C226.84 39.1909 216.809 29.1599 204.453 29.1599C192.097 29.1599 182.066 39.1909 182.066 51.5469C182.066 63.9029 192.098 73.9339 204.453 73.9339C216.808 73.9339 226.84 63.9259 226.84 51.5469Z" fill="#0D09EB"/>
<path d="M82.5084 160.586H107.281V166.227H76.1094V116.066H82.5084V160.586ZM136.871 166.227V161.199C133.492 165.953 130.133 167.809 124.832 167.809C117.82 167.809 113.344 163.965 113.344 157.969V130.176H119.047V155.707C119.047 160.039 121.937 162.805 126.48 162.805C132.457 162.805 136.32 157.988 136.32 150.617V130.176H142.023V166.227H136.871ZM183.945 167.199C182.086 167.684 181.199 167.809 180.016 167.809C176.301 167.809 174.504 166.164 174.102 162.508C170.047 166.227 166.395 167.809 161.855 167.809C154.566 167.809 150.027 163.691 150.027 157.145C150.027 152.457 152.16 149.227 156.363 147.516C158.559 146.629 159.805 146.352 167.914 145.316C172.457 144.77 173.891 143.734 173.891 141.328V139.805C173.891 136.363 171 134.441 165.848 134.441C160.48 134.441 157.863 136.426 157.379 140.84H151.59C151.738 137.27 152.414 135.203 154.062 133.344C156.469 130.66 160.797 129.141 166.035 129.141C174.906 129.141 179.594 132.582 179.594 138.98V160.188C179.594 161.98 180.691 163.016 182.699 163.016C183.035 163.016 183.313 163.016 183.945 162.867V167.199ZM173.891 148.402C171.969 149.289 170.723 149.562 164.664 150.387C158.539 151.273 155.984 153.215 155.984 156.996C155.984 160.652 158.602 162.785 163.078 162.785C166.457 162.785 169.266 161.684 171.613 159.551C173.32 157.969 173.891 156.809 173.891 154.863V148.402Z" fill="white"/>
<path d="M216.09 83.1209C223.169 97.0219 226.859 112.4 226.859 128C226.859 182.574 182.574 226.859 128 226.859C73.4261 226.859 29.1401 182.574 29.1401 128C29.1401 73.4259 73.4271 29.1399 128 29.1399C145.53 29.14 162.745 33.7979 177.883 42.6369" stroke="white" stroke-width="1.147" stroke-miterlimit="10" stroke-dasharray="4.32 4.32"/>
</g>
</g>
<defs>
<clipPath id="clip0_17_288">
<rect width="256" height="256" fill="white"/>
</clipPath>
</defs>
</svg>
