<svg width="256" height="256" viewBox="0 0 256 256" fill="none" xmlns="http://www.w3.org/2000/svg">
<rect width="256" height="256" fill="#242932"/>
<path fill-rule="evenodd" clip-rule="evenodd" d="M81.739 72.2572L55.1373 90.2605C52.2464 92.217 50.2448 95.1575 49.5417 98.48L46.9409 110.771C46.803 111.423 46.4973 112.031 46.0514 112.54L33.9804 128.088C32.3552 129.945 32.3944 134.881 36.8458 138.042C38.5528 139.504 40.835 142.78 43.4309 146.508C48.9273 154.4 55.83 164.312 61.6565 163.283C69.9015 160.437 79.994 159.527 87.743 163.283C111.857 182.659 93.7175 193.561 87.743 228C90.9375 209.585 107.83 178.11 143.541 161.104C138.255 156.861 124.51 153.702 114.965 152.753C114.965 152.753 144.29 128.088 180.456 116.754C155.209 57.7293 113.533 29.5221 113.533 29.5221C111.409 26.9414 107.12 27.7881 106.235 30.9627C105.524 40.2938 104.346 46.6389 102.401 52.62L87.743 36.0021C86.212 34.1886 83.151 35.2358 83.1665 37.5679C85.648 51.123 85.2995 58.7318 81.739 72.2572ZM111.887 40.584C121.932 57.6371 126.482 67.3251 128.026 85.405C117.341 79.4415 112.685 77.924 104.828 77.9617C109.411 64.2672 110.812 56.0209 111.887 40.584Z" fill="white"/>
<path d="M176.385 165.031C135.47 174.229 110.399 189.996 89.505 227.998C121.413 175.402 223.001 184.808 223.001 184.808C217.472 175.455 202.027 158.125 189.362 149.785C189.362 149.785 194.672 139.933 223.001 131.817C223.001 131.817 176.385 128.097 149.492 147.933C159.227 151.468 170.195 157.457 176.385 165.031Z" fill="white"/>
</svg>
