<svg width="256" height="256" viewBox="0 0 256 256" fill="none" xmlns="http://www.w3.org/2000/svg">
<rect width="256" height="256" fill="#05AF9B"/>
<path d="M118.475 151.483C118.475 151.483 119.766 159.158 118.191 176.083C116.225 197.3 126.275 231 126.275 231C126.275 231 139.983 197.233 137.591 175.417C135.625 157.483 138.483 151.217 137.875 152.058C127.341 166.608 118.475 151.483 118.475 151.483ZM144.158 169.692C145.875 182.95 143.966 190.208 141.491 204.392C140.241 211.567 167.058 182.817 177.341 165.683C179.058 162.825 167.508 176.825 156.091 166.825C148.158 159.892 146.8 157.783 140.641 151.758C138.566 149.725 142.95 160.208 144.166 169.683L144.158 169.692ZM114.891 152.817C108.733 158.842 107.366 160.95 99.4498 167.883C88.0248 177.883 76.4748 163.883 78.1914 166.742C88.4748 183.883 115.291 212.625 114.041 205.45C111.566 191.258 109.658 184 111.375 170.75C112.6 161.275 116.983 150.792 114.9 152.833L114.891 152.817ZM141.275 129.158C153.808 132.775 158.675 150.183 171.325 152.333C173.941 152.775 176.883 153.567 180.325 153.4C186.741 153.092 194.85 149.467 205.691 134.083C208.9 129.533 197.733 163.367 169.75 163.775C149.25 164.075 146.858 143.708 133.191 143.092C128.258 142.867 127.95 133.458 127.95 133.458C127.95 133.458 133.833 127.008 141.266 129.15L141.275 129.158ZM114.725 129.058C102.191 132.675 97.3248 150.083 84.6748 152.233C82.0581 152.675 79.1164 153.467 75.6748 153.3C69.2581 152.992 61.1498 149.367 50.3081 133.983C47.0998 129.433 58.2664 163.267 86.2498 163.675C106.75 163.975 109.141 143.608 122.808 142.992C127.741 142.767 128.05 133.358 128.05 133.358C128.05 133.358 122.166 126.908 114.733 129.05L114.725 129.058ZM161.608 128.892C174.216 138.442 170.458 148.958 177.533 145.958C201.366 135.858 197.2 84.0082 195.266 90.2749C184.408 125.625 160.741 127.608 137.966 111.342C133.516 108.175 154.508 123.517 161.608 128.892ZM117.941 111.342C95.1664 127.6 71.4998 125.625 60.6414 90.2749C58.7164 84.0082 54.5498 135.858 78.3748 145.958C85.4498 148.958 81.6914 138.442 94.2914 128.892C101.4 123.508 122.391 108.175 117.941 111.35V111.342ZM163.991 116.208C191.491 115.075 196.575 69.9999 194.408 75.4999C184.7 100.192 147.958 90.8999 144.45 106.483C143.758 109.542 150.675 116.758 163.991 116.208ZM111.458 106.483C107.95 90.8999 71.1998 100.192 61.4998 75.4999C59.3331 69.9999 64.4164 115.083 91.9164 116.208C105.241 116.758 112.15 109.542 111.458 106.483ZM142.733 99.6166C142.733 99.6166 157.683 91.5832 170.483 88.0832C182.441 84.8082 191.416 76.7582 192.408 68.2499C193.158 61.9166 183.158 49.9416 183.158 49.9416C183.158 49.9416 176.158 69.3916 166.95 79.1166C156.95 89.6999 160.741 88.2832 142.733 99.6166ZM88.9581 79.1166C79.7581 69.3916 72.7498 49.9499 72.7498 49.9499C72.7498 49.9499 62.7498 61.8999 63.4998 68.2499C64.4998 76.7582 73.4664 84.8082 85.4164 88.0832C98.2248 91.5916 113.175 99.6166 113.175 99.6166C95.1581 88.2832 98.9664 89.6999 88.9581 79.1166ZM140.916 98.3832C157.108 85.0999 165.716 67.7749 179.725 48.8082C182.366 45.2332 167.9 36.5999 162.183 36.0332C156.466 35.4666 151.666 56.4749 151.125 68.8332C150.633 80.1166 138.741 100.175 140.925 98.3916L140.916 98.3832ZM104.783 68.8332C104.241 56.4666 99.4414 35.4582 93.7248 36.0249C87.9998 36.5916 73.5414 45.2249 76.1831 48.7999C90.1831 67.7666 98.7914 85.0999 114.991 98.3832C117.166 100.158 105.283 80.0999 104.791 68.8166L104.783 68.8332ZM142.541 55.4832C143.683 46.3332 147.8 39.6499 155.983 34.0332C148.75 31.6166 142.725 29.6499 139.583 32.2249C136.441 34.7999 127.891 43.4082 129.033 57.4166C130.175 71.4249 129.091 123.767 131.575 122.8C132.908 86.9499 144.258 76.6416 142.541 55.4832ZM124.325 122.792C126.8 123.758 125.716 71.4166 126.866 57.4082C128.016 43.3999 119.466 34.7916 116.316 32.2166C113.175 29.6416 107.15 31.6082 99.9164 34.0249C108.108 39.6416 112.216 46.3249 113.358 55.4749C111.641 76.6416 122.991 86.9332 124.325 122.783V122.792Z" fill="white"/>
</svg>
