<svg width="256" height="256" viewBox="0 0 256 256" fill="none" xmlns="http://www.w3.org/2000/svg">
<rect width="256" height="256" fill="#05AF9B"/>
<path d="M118.475 151.483C118.475 151.483 119.767 159.158 118.192 176.083C116.225 197.3 126.275 231 126.275 231C126.275 231 139.983 197.233 137.592 175.417C135.625 157.483 138.483 151.217 137.875 152.058C127.342 166.608 118.475 151.483 118.475 151.483ZM144.158 169.692C145.875 182.95 143.967 190.208 141.492 204.392C140.242 211.567 167.058 182.817 177.342 165.683C179.058 162.825 167.508 176.825 156.092 166.825C148.158 159.892 146.8 157.783 140.642 151.758C138.567 149.725 142.95 160.208 144.167 169.683L144.158 169.692ZM114.892 152.817C108.733 158.842 107.367 160.95 99.45 167.883C88.025 177.883 76.475 163.883 78.1917 166.742C88.475 183.883 115.292 212.625 114.042 205.45C111.567 191.258 109.658 184 111.375 170.75C112.6 161.275 116.983 150.792 114.9 152.833L114.892 152.817ZM141.275 129.158C153.808 132.775 158.675 150.183 171.325 152.333C173.942 152.775 176.883 153.567 180.325 153.4C186.742 153.092 194.85 149.467 205.692 134.083C208.9 129.533 197.733 163.367 169.75 163.775C149.25 164.075 146.858 143.708 133.192 143.092C128.258 142.867 127.95 133.458 127.95 133.458C127.95 133.458 133.833 127.008 141.267 129.15L141.275 129.158ZM114.725 129.058C102.192 132.675 97.325 150.083 84.675 152.233C82.0584 152.675 79.1167 153.467 75.675 153.3C69.2584 152.992 61.15 149.367 50.3084 133.983C47.1 129.433 58.2667 163.267 86.25 163.675C106.75 163.975 109.142 143.608 122.808 142.992C127.742 142.767 128.05 133.358 128.05 133.358C128.05 133.358 122.167 126.908 114.733 129.05L114.725 129.058ZM161.608 128.892C174.217 138.442 170.458 148.958 177.533 145.958C201.367 135.858 197.2 84.0082 195.267 90.2749C184.408 125.625 160.742 127.608 137.967 111.342C133.517 108.175 154.508 123.517 161.608 128.892ZM117.942 111.342C95.1667 127.6 71.5 125.625 60.6417 90.2749C58.7167 84.0082 54.55 135.858 78.375 145.958C85.45 148.958 81.6917 138.442 94.2917 128.892C101.4 123.508 122.392 108.175 117.942 111.35V111.342ZM163.992 116.208C191.492 115.075 196.575 69.9999 194.408 75.4999C184.7 100.192 147.958 90.8999 144.45 106.483C143.758 109.542 150.675 116.758 163.992 116.208ZM111.458 106.483C107.95 90.8999 71.2 100.192 61.5 75.4999C59.3334 69.9999 64.4167 115.083 91.9167 116.208C105.242 116.758 112.15 109.542 111.458 106.483ZM142.733 99.6166C142.733 99.6166 157.683 91.5832 170.483 88.0832C182.442 84.8082 191.417 76.7582 192.408 68.2499C193.158 61.9166 183.158 49.9416 183.158 49.9416C183.158 49.9416 176.158 69.3916 166.95 79.1166C156.95 89.6999 160.742 88.2832 142.733 99.6166ZM88.9584 79.1166C79.7584 69.3916 72.75 49.9499 72.75 49.9499C72.75 49.9499 62.75 61.8999 63.5 68.2499C64.5 76.7582 73.4667 84.8082 85.4167 88.0832C98.225 91.5916 113.175 99.6166 113.175 99.6166C95.1584 88.2832 98.9667 89.6999 88.9584 79.1166ZM140.917 98.3832C157.108 85.0999 165.717 67.7749 179.725 48.8082C182.367 45.2332 167.9 36.5999 162.183 36.0332C156.467 35.4666 151.667 56.4749 151.125 68.8332C150.633 80.1166 138.742 100.175 140.925 98.3916L140.917 98.3832ZM104.783 68.8332C104.242 56.4666 99.4417 35.4582 93.725 36.0249C88 36.5916 73.5417 45.2249 76.1834 48.7999C90.1834 67.7666 98.7917 85.0999 114.992 98.3832C117.167 100.158 105.283 80.0999 104.792 68.8166L104.783 68.8332ZM142.542 55.4832C143.683 46.3332 147.8 39.6499 155.983 34.0332C148.75 31.6166 142.725 29.6499 139.583 32.2249C136.442 34.7999 127.892 43.4082 129.033 57.4166C130.175 71.4249 129.092 123.767 131.575 122.8C132.908 86.9499 144.258 76.6416 142.542 55.4832ZM124.325 122.792C126.8 123.758 125.717 71.4166 126.867 57.4082C128.017 43.3999 119.467 34.7916 116.317 32.2166C113.175 29.6416 107.15 31.6082 99.9167 34.0249C108.108 39.6416 112.217 46.3249 113.358 55.4749C111.642 76.6416 122.992 86.9332 124.325 122.783V122.792Z" fill="white"/>
</svg>
