<svg width="256" height="256" viewBox="0 0 256 256" fill="none" xmlns="http://www.w3.org/2000/svg">
<rect width="256" height="256" fill="#339AF0"/>
<path d="M99.9731 28.1642C101.944 27.8714 103.954 27.971 105.887 28.4572C107.819 28.9434 109.637 29.8067 111.234 30.9973C117.843 35.9189 123.94 41.4912 129.434 47.6303L130.796 49.1761H173.817C182.206 49.1761 189 55.985 189 64.3957C189 72.6195 182.493 79.3132 174.372 79.6059L173.815 79.6168H150.053C156.693 94.8859 160.102 111.361 160.066 128.009C160.099 144.055 156.932 159.946 150.75 174.756L150.052 176.396H173.801C182.194 176.396 188.989 183.208 188.989 191.618C188.989 199.84 182.479 206.537 174.358 206.829L173.801 206.84H130.769C124.931 213.584 118.376 219.673 111.22 225C109.62 226.192 107.801 227.056 105.865 227.543C103.93 228.029 101.918 228.129 99.9441 227.835C97.9703 227.542 96.0741 226.862 94.3644 225.834C92.6547 224.806 91.1653 223.45 89.982 221.845C88.795 220.237 87.9358 218.412 87.4531 216.473C86.4714 212.554 87.0855 208.407 89.1608 204.94C90.1829 203.229 91.5339 201.737 93.1358 200.55C116.368 183.26 129.705 156.823 129.705 128.006C129.705 99.1888 116.367 72.7534 93.1358 55.4619C91.5322 54.2755 90.1796 52.7835 89.1562 51.0721C87.671 48.58 86.9246 45.7178 87.0037 42.8185C87.0829 39.9192 87.9844 37.1019 89.6034 34.6944L89.982 34.1558C92.3883 30.918 95.9814 28.7638 99.9731 28.1642ZM97.2369 101.966C100.008 103.145 102.514 104.87 104.604 107.038C106.704 109.211 108.348 111.782 109.442 114.598C110.537 117.423 111.064 120.436 110.993 123.465C110.856 129.383 108.426 135.017 104.214 139.181C100.031 143.316 94.3862 145.638 88.5017 145.644C82.615 145.64 76.9674 143.317 72.7827 139.181C68.5717 135.017 66.1423 129.383 66.0062 123.465C65.9359 120.436 66.4644 117.423 67.5613 114.598C68.655 111.782 70.2997 109.211 72.3994 107.038C74.4887 104.871 76.9931 103.147 79.7634 101.967C82.5257 100.791 85.4974 100.185 88.5002 100.185C91.5029 100.185 94.4746 100.79 97.2369 101.966Z" fill="white"/>
</svg>
