<svg width="256" height="256" viewBox="0 0 256 256" fill="none" xmlns="http://www.w3.org/2000/svg">
<rect width="256" height="256" fill="#242932"/>
<g clip-path="url(#clip0_77_16)">
<path fill-rule="evenodd" clip-rule="evenodd" d="M95.0584 37.6917C94.7974 36.6938 94.7369 35.6541 94.8804 34.6327C95.0239 33.6113 95.3686 32.6285 95.8944 31.7412C96.4203 30.8539 97.1169 30.0797 97.944 29.4634C98.771 28.8471 99.7121 28.401 100.713 28.1509C101.713 27.9007 102.754 27.8515 103.773 28.0061C104.793 28.1606 105.772 28.5159 106.654 29.0514C107.535 29.5868 108.302 30.2918 108.909 31.1255C109.517 31.9592 109.952 32.9051 110.192 33.9084C110.717 36.0417 111.292 38.1417 111.858 40.2417L111.9 40.375C113.217 45.2083 114.525 50.0417 115.367 55.1334C115.534 56.144 115.5 57.1776 115.267 58.1752C115.035 59.1727 114.608 60.1147 114.011 60.9473C113.415 61.78 112.66 62.4869 111.79 63.0279C110.92 63.5688 109.952 63.9331 108.942 64.1C107.931 64.2669 106.897 64.2331 105.9 64.0005C104.902 63.768 103.96 63.3412 103.128 62.7446C101.446 61.5396 100.312 59.7161 99.975 57.675C99.2667 53.3667 98.2834 49.7667 97.0917 45.4V45.3834C96.4667 43.1 95.7834 40.6083 95.0584 37.6917ZM58.5834 50.9417C57.6737 52.7983 57.5384 54.9402 58.2072 56.8966C58.876 58.853 60.2942 60.4638 62.15 61.375C67.7084 64.1 72.525 66.7917 77.3 72.1667C78.6868 73.6599 80.603 74.5511 82.6385 74.6496C84.674 74.7481 86.6673 74.046 88.1917 72.6936C89.7162 71.3411 90.6509 69.4458 90.7957 67.413C90.9405 65.3803 90.284 63.3716 88.9667 61.8167C82.1667 54.15 75.1667 50.3917 69.0167 47.375C67.16 46.4654 65.0182 46.3301 63.0618 46.9988C61.1054 47.6676 59.4946 49.0858 58.5834 50.9417Z" fill="white"/>
<path fill-rule="evenodd" clip-rule="evenodd" d="M158.6 205.367C157.183 205.067 155.633 204.742 154.05 204.392C148.217 203.125 140.3 201.35 136.575 200.117L136.3 200.025L136.033 199.925C134.383 199.308 131.583 198.625 126.95 197.567L126.092 197.375C122.092 196.458 117.175 195.342 112.508 193.933C107.692 192.467 101.725 190.292 96.6499 186.75C91.3333 183.033 85.2833 176.483 84.95 166.65C84.903 165.233 84.928 163.815 85.025 162.4C82.3474 159.488 80.4798 155.925 79.6083 152.067C78.8193 148.558 78.9052 144.909 79.8583 141.442C80.55 138.8 81.6083 136.492 82.4916 134.775C82.7916 134.192 83.1 133.608 83.4083 133.058C80.4916 132.133 77.1833 130.992 73.9666 129.625C69.7749 127.833 63.8166 124.875 59.3666 120.117C56.4215 117.04 54.3752 113.216 53.4499 109.058C52.4629 104.314 53.1274 99.3738 55.3333 95.0584C60.3666 84.9917 69.9749 81.4334 78.5166 81.1251C86.2333 80.8501 94.45 83.0084 101.808 85.5917C108.508 87.9417 118.1 92.3167 126.25 96.1251C128.933 91.7167 132.475 86.7417 135.825 82.7251L136.492 81.9334L137.258 81.2334C141.991 76.9154 148.036 74.3123 154.425 73.8417C157.383 73.6213 160.358 73.8461 163.25 74.5084L163.55 74.5751L163.742 74.6334H163.767L163.783 74.6417C163.783 74.6417 163.8 74.6417 159.808 89.5251L163.8 74.6417L165.533 75.1251L167.117 75.9751C175.15 80.2751 177.433 87.6917 178.033 91.6084C178.404 94.1048 178.382 96.6439 177.967 99.1334L177.942 99.2834V99.3251L162.458 96.2417L177.933 99.3334L177.85 99.7834L175.35 109.7C174.867 112.133 174.808 113.525 174.833 114.258C174.821 114.561 174.866 114.864 174.967 115.15C175.075 115.4 175.325 115.95 176.25 117.35C176.608 117.9 176.983 118.442 177.45 119.133L177.933 119.833C178.6 120.817 179.383 121.975 180.217 123.267C185.408 131.35 185.917 139.117 185.883 144.092V144.308L187.867 144.958L188.725 145.225L190 145.633C190.633 145.833 191.442 146.1 192.225 146.383C193.142 144.7 195.617 141.083 200.1 141.083C205.95 141.083 208.35 149.308 208.35 149.308C210.642 164.625 200.183 216.083 185.067 225.675C173.517 233.008 164.958 222.117 158.6 205.367ZM100.667 135.233C101.65 134.242 104.583 132.15 110.133 131.525C116.482 130.882 122.888 131.932 128.7 134.567C133.892 136.867 137.475 142.133 138.975 148.458C139.708 151.55 139.842 154.55 139.525 157C139.192 159.583 138.458 160.875 138.117 161.258C137.7 161.742 136.217 162.567 132.108 161.7C129.906 161.216 127.769 160.472 125.742 159.483L125.692 159.458C123.859 158.544 121.74 158.388 119.793 159.022C117.846 159.657 116.226 161.032 115.284 162.85C114.342 164.669 114.153 166.785 114.758 168.742C115.363 170.698 116.713 172.339 118.517 173.308L118.55 173.325L118.617 173.358L118.817 173.458C119.745 173.916 120.69 174.339 121.65 174.725C123.442 175.442 125.983 176.342 128.867 176.95C133.992 178.033 143.45 178.867 149.867 171.517C152.95 167.983 154.433 163.35 154.992 159.008C155.559 154.283 155.277 149.493 154.158 144.867C151.925 135.467 146.025 125.183 135.017 120.3C126.676 116.546 117.488 115.071 108.392 116.025C103.233 116.608 98.2999 118.042 94.3083 120.225L94.1416 120.175H94.1083C84.25 117.358 64.6416 111.758 69.475 102.092C73.1416 94.7584 83.1666 95.3667 96.7666 100.142C102.292 102.075 109.967 105.533 117.208 108.9C119.458 109.942 121.658 110.983 123.742 111.958L131.858 115.742C137.633 108.808 139.875 104.992 141.858 101.617C143.217 99.3001 144.458 97.2001 146.633 94.4334L146.842 94.1667C147.241 93.662 147.647 93.162 148.058 92.6667C148.113 92.6187 148.169 92.5715 148.225 92.5251C153.575 87.8001 159.8 89.5251 159.8 89.5251C163.358 91.4251 162.458 96.2417 162.458 96.2417L159.983 106.058C157.617 117.608 160.233 121.433 164.542 127.725C165.292 128.833 166.108 130.017 166.958 131.333C170.392 136.692 170.225 141.833 170.1 146.042C170.017 148.742 169.942 151.058 170.85 152.783C172.717 156.325 179.683 158.533 184.267 159.967C185.367 160.317 186.325 160.617 187.042 160.883L187.533 161.075C186.883 163.075 186.3 165.15 185.717 167.217C183.108 176.408 180.525 185.567 172.8 188.3C167.533 190.175 162.275 190.083 158.55 189.6C152 188.183 144.25 186.442 141.333 185.475C138.308 184.35 134.075 183.392 129.467 182.333C118.5 179.833 105.442 176.867 101.708 170.15C101.066 169.01 100.709 167.732 100.667 166.425C100.45 160.258 102.617 154.725 102.617 154.725C102.617 154.725 99.2583 154.742 96.9083 152.475C95.9085 151.499 95.2187 150.25 94.9249 148.883C94.6749 147.8 94.5749 146.55 94.7166 145.217C94.7833 145.217 94.8166 145.15 94.8166 144.983C94.8166 143.033 96.7666 139.133 100.667 135.233Z" fill="white"/>
<path fill-rule="evenodd" clip-rule="evenodd" d="M145.308 33.0334C147.076 34.106 148.345 35.8363 148.837 37.8442C149.329 39.8521 149.004 41.9733 147.933 43.7417C144.975 48.6084 143.258 53.5833 141.383 61.0833C141.144 62.0866 140.708 63.0325 140.101 63.8662C139.494 64.6999 138.727 65.4049 137.845 65.9403C136.964 66.4758 135.985 66.8311 134.965 66.9856C133.945 67.1402 132.905 67.091 131.904 66.8408C130.904 66.5907 129.963 66.1446 129.136 65.5283C128.308 64.912 127.612 64.1378 127.086 63.2505C126.56 62.3632 126.215 61.3804 126.072 60.359C125.928 59.3376 125.989 58.2979 126.25 57.3C128.275 49.2083 130.45 42.4833 134.6 35.65C135.674 33.8841 137.405 32.6167 139.413 32.126C141.42 31.6354 143.541 31.9617 145.308 33.0334Z" fill="white"/>
</g>
<defs>
<clipPath id="clip0_77_16">
<rect width="200" height="200" fill="white" transform="translate(28 28)"/>
</clipPath>
</defs>
</svg>
