<svg width="256" height="256" viewBox="0 0 256 256" fill="none" xmlns="http://www.w3.org/2000/svg">
<rect width="256" height="256" fill="#232932"/>
<g clip-path="url(#clip0_262_43)">
<path d="M228.406 57.9999C225.125 58.0816 226.191 59.0628 219.137 60.7799C212.082 62.4969 203.469 61.9246 195.84 65.1134C173.035 74.6799 168.441 107.222 147.77 118.833C132.266 127.582 116.68 128.236 102.652 132.651C92.4837 136.121 83.0931 141.537 75.0078 148.595C68.4453 154.155 68.3633 159.061 61.5547 166.093C54.3359 173.533 32.8438 166.175 23 177.622C26.1172 180.81 27.5117 181.71 33.6641 180.892C32.4336 183.345 24.8867 185.308 26.2812 188.905C27.9219 192.666 46.2148 195.201 62.8672 185.226C70.5781 180.565 76.8125 173.779 88.8711 172.143C104.457 170.099 122.504 173.533 140.551 176.15C137.844 184.081 132.43 189.396 128.164 195.773C126.77 197.163 130.789 197.409 135.383 196.509C143.586 194.465 149.574 192.83 155.809 189.15C163.438 184.735 164.586 173.37 173.938 170.917C179.188 178.93 193.379 180.81 202.238 174.433C194.527 172.225 192.395 155.79 194.938 148.595C197.398 141.727 199.859 130.77 202.32 121.776C205.027 111.965 206.012 99.7816 209.293 94.794C214.215 87.4352 219.547 84.8187 224.223 80.6487C228.898 76.3969 233.164 72.3087 233 62.6605C233 59.6352 231.359 57.9181 228.406 57.9999Z" fill="#002B64"/>
<path d="M221.516 63.7236C222.254 66.3401 223.402 67.5666 228.734 68.0572C227.914 74.6801 223.484 78.3595 218.48 81.7936C214.133 84.9007 209.293 87.8442 206.176 92.6683C203.059 97.5742 201.008 114.336 196.086 130.934C191.902 145.243 185.422 159.47 174.266 165.684C173.117 162.741 174.43 157.344 172.133 155.545C170.574 159.797 168.852 163.885 166.883 167.728C163.9 174.174 159.381 179.793 153.718 184.098C148.056 188.402 141.423 191.259 134.398 192.421C142.109 182.037 149.41 171.326 149.574 153.42C144.16 154.564 144.324 167.32 138.746 170.754C135.137 171.162 131.527 171.162 127.918 170.917C112.906 170.018 97.5664 165.521 83.6211 170.018C74.0234 173.043 66.2305 180.238 58.1914 183.754C48.6758 187.842 41.5391 189.478 29.7266 187.842C28.168 185.798 38.3398 183.264 37.7656 178.848C33.0898 178.358 30.3828 179.421 26.4453 177.622C26.8555 176.804 27.5117 176.15 28.332 175.578C35.7148 170.508 56.6328 174.351 62.2109 168.873C65.6562 165.521 67.9531 162.005 70.25 158.571C73.4877 153.46 77.7974 149.108 82.8828 145.815C88.9531 141.727 96.5 137.884 103.965 135.268C114.137 131.752 124.391 131.425 135.137 127.337C141.863 124.802 149.082 121.613 154.988 117.28C156.383 116.217 157.777 115.072 159.008 113.927C175.906 97.5742 179.188 68.5478 205.52 65.8495C208.801 65.5225 211.344 65.686 213.723 65.6042C216.43 65.5225 218.891 65.1954 221.516 63.7236ZM189.359 156.363C189.605 161.351 192.559 171.326 195.102 173.697C190.098 174.924 181.402 172.88 179.188 169.364C180.336 164.212 186.242 159.552 189.359 156.281V156.363Z" fill="#C49A6C"/>
<path d="M223.32 69.2835C222.336 71.4094 220.367 74.1894 220.367 79.5859C220.367 80.4853 219.629 81.1394 219.629 79.7494C219.711 74.4347 221.105 72.1453 222.582 69.12C223.32 67.8935 223.73 68.3841 223.402 69.2835H223.32ZM222.336 68.4659C221.105 70.51 218.234 74.1894 217.742 79.5859C217.742 80.5671 216.922 81.1394 217.004 79.6676C217.578 74.4347 219.875 71.1641 221.598 68.2206C222.418 67.1576 222.746 67.6482 222.336 68.5476V68.4659ZM221.352 67.4847C220.039 69.3653 215.609 73.7806 214.625 79.0953C214.461 80.0765 213.723 80.5671 213.887 79.0953C214.871 73.9441 218.727 69.8559 220.695 67.1576C221.516 66.0947 221.926 66.6671 221.352 67.4847ZM220.531 66.2582L220.121 66.7488C218.152 68.8747 213.559 74.1076 211.918 78.7682C211.672 79.5859 210.77 80.0765 211.262 78.6865C212.902 73.6988 217.578 68.3023 219.875 65.8494C220.941 64.95 221.188 65.5223 220.531 66.2582ZM196.742 76.9694C197.727 72.5541 201.172 70.5918 207.078 71.0823C208.555 77.6235 200.516 80.3218 196.742 76.9694Z" fill="#002B64"/>
</g>
<defs>
<clipPath id="clip0_262_43">
<rect width="210" height="139" fill="white" transform="translate(23 58)"/>
</clipPath>
</defs>
</svg>
