<svg width="256" height="256" viewBox="0 0 256 256" fill="none" xmlns="http://www.w3.org/2000/svg">
<rect width="256" height="256" fill="#232932"/>
<g clip-path="url(#clip0_178_97)">
<path d="M221.242 72.2769C218.345 50.7877 199.585 33.8554 177.349 30.5723C173.595 30.0185 159.381 28 126.45 28H126.204C93.2668 28 86.2029 30.0185 82.4491 30.5723C60.8291 33.7631 41.086 48.9846 36.2966 70.7262C33.9913 81.4338 33.7447 93.3046 34.1731 104.194C34.7834 119.809 34.9036 135.4 36.3213 150.954C37.3038 161.285 39.0176 171.535 41.4497 181.625C46.0017 200.258 64.435 215.766 82.4922 222.092C101.827 228.69 122.619 229.785 142.541 225.255C144.728 224.748 146.894 224.157 149.035 223.483C153.88 221.945 159.554 220.231 163.724 217.212C163.781 217.17 163.827 217.115 163.861 217.052C163.894 216.99 163.912 216.92 163.915 216.849V201.775C163.913 201.71 163.897 201.645 163.868 201.586C163.839 201.527 163.797 201.475 163.745 201.434C163.693 201.392 163.632 201.363 163.567 201.348C163.502 201.333 163.434 201.333 163.369 201.348C150.605 204.392 137.524 205.919 124.401 205.895C101.816 205.895 95.7447 195.194 94.0034 190.742C92.6049 186.892 91.717 182.876 91.3621 178.797C91.3584 178.728 91.371 178.659 91.3989 178.596C91.4268 178.534 91.4692 178.478 91.5227 178.435C91.5762 178.391 91.6392 178.361 91.7067 178.346C91.7741 178.332 91.844 178.333 91.9107 178.351C104.463 181.373 117.329 182.899 130.241 182.895C133.345 182.895 136.442 182.895 139.549 182.815C152.533 182.449 166.22 181.788 178.998 179.295C179.315 179.234 179.633 179.178 179.907 179.095C200.06 175.234 219.239 163.108 221.187 132.4C221.261 131.191 221.443 119.738 221.443 118.483C221.452 114.218 222.817 88.24 221.242 72.2769Z" fill="url(#paint0_linear_178_97)"/>
<path d="M189.313 96.4216V149.806H168.127V97.997C168.127 87.0893 163.572 81.5262 154.311 81.5262C144.131 81.5262 139.03 88.1078 139.03 101.108V129.468H117.965V101.108C117.965 88.1078 112.858 81.5262 102.678 81.5262C93.4695 81.5262 88.8712 87.0893 88.8712 97.997V149.812H67.6858V96.4216C67.6858 85.5139 70.475 76.8462 76.0533 70.4216C81.8104 64.0155 89.3582 60.7231 98.7304 60.7231C109.576 60.7231 117.771 64.8893 123.235 73.2062L128.508 82.0401L133.791 73.2062C139.255 64.8862 147.45 60.7262 158.277 60.7262C167.64 60.7262 175.188 64.0155 180.96 70.4247C186.539 76.8401 189.319 85.5078 189.313 96.4216Z" fill="white"/>
</g>
<defs>
<linearGradient id="paint0_linear_178_97" x1="128.001" y1="28" x2="128.001" y2="228" gradientUnits="userSpaceOnUse">
<stop stop-color="#6364FF"/>
<stop offset="1" stop-color="#563ACC"/>
</linearGradient>
<clipPath id="clip0_178_97">
<rect width="188" height="200" fill="white" transform="translate(34 28)"/>
</clipPath>
</defs>
</svg>
