<svg width="256" height="256" viewBox="0 0 256 256" fill="none" xmlns="http://www.w3.org/2000/svg">
<rect width="256" height="256" fill="#242932"/>
<path d="M28 138.789L84.9268 115.789C90.7053 108.151 97.214 101.094 104.361 94.718C109.068 92.2198 117.927 93.5734 134.146 73.4359C149.854 53.793 154.855 37.002 162.214 37.002C173.857 37.002 182.429 62.1484 195.432 100.222C204.698 129.301 215.571 157.844 228 185.718C214.425 173.072 202.861 159.436 189.643 159.789C177.357 160.077 163.714 174.648 148.786 193.364C136.929 208.361 121.214 218.65 115.077 218.432C115.077 218.432 99.2143 173.573 85.9339 166.289C83.1774 165.161 80.1928 164.702 77.2245 164.949C74.2563 165.197 71.3889 166.144 68.8571 167.713L28 138.718V138.789Z" fill="#4499DD"/>
<path d="M155.143 42.1428C150.357 48.575 144.571 60.3625 134.143 73.4357C117.925 93.5732 109.143 92.2214 104.357 94.7178C97.1785 101.061 90.6672 108.122 84.9249 115.789L108.496 133.004C128.5 105.718 139.214 76.15 147.571 57.0018C149.666 51.8427 152.198 46.8722 155.139 42.1446L155.143 42.1428Z" fill="url(#paint0_linear_77_20)"/>
<path d="M162.286 37.0036C146.714 37.0036 136.071 119.005 78.5714 164.793C94.7143 162.15 108.714 202.216 115.143 218.434C143.714 213.571 166.575 158.934 189.643 159.791C202.861 160.286 214.425 173.071 228 185.72C197 120.575 182.5 37 162.286 37V37.0036Z" fill="url(#paint1_linear_77_20)"/>
<defs>
<linearGradient id="paint0_linear_77_20" x1="133.736" y1="123.211" x2="120.95" y2="81.925" gradientUnits="userSpaceOnUse">
<stop stop-color="#551122"/>
<stop offset="0.23" stop-color="#552233"/>
<stop offset="0.36" stop-color="#553344"/>
<stop offset="0.51" stop-color="#664455"/>
<stop offset="0.66" stop-color="#556688"/>
<stop offset="0.84" stop-color="#2299DD"/>
</linearGradient>
<linearGradient id="paint1_linear_77_20" x1="225.929" y1="149.025" x2="97.3571" y2="117.454" gradientUnits="userSpaceOnUse">
<stop offset="0.081" stop-color="#CC3333"/>
<stop offset="0.189" stop-color="#DE5239"/>
<stop offset="0.313" stop-color="#F06E3E"/>
<stop offset="0.421" stop-color="#FA8042"/>
<stop offset="0.5" stop-color="#FE8643"/>
<stop offset="0.58" stop-color="#FA7F42"/>
<stop offset="0.696" stop-color="#EF6C3E"/>
<stop offset="0.833" stop-color="#DC4C37"/>
<stop offset="0.916" stop-color="#CF3633"/>
</linearGradient>
</defs>
</svg>
