<svg width="256" height="256" viewBox="0 0 256 256" fill="none" xmlns="http://www.w3.org/2000/svg">
<rect width="256" height="256" fill="#232932"/>
<path d="M37.5238 37C36.324 37 35.1734 37.4767 34.325 38.3253C33.4766 39.1739 33 40.3249 33 41.525V213.475C33 214.675 33.4766 215.826 34.325 216.675C35.1734 217.523 36.324 218 37.5238 218H51.0952C52.295 218 53.4457 217.523 54.2941 216.675C55.1424 215.826 55.619 214.675 55.619 213.475C55.619 212.275 55.1424 211.124 54.2941 210.275C53.4457 209.427 52.295 208.95 51.0952 208.95H42.0476V46.05H51.0952C52.295 46.05 53.4457 45.5733 54.2941 44.7247C55.1424 43.8761 55.619 42.7251 55.619 41.525C55.619 40.3249 55.1424 39.1739 54.2941 38.3253C53.4457 37.4767 52.295 37 51.0952 37H37.5238ZM204.905 37C203.705 37 202.554 37.4767 201.706 38.3253C200.858 39.1739 200.381 40.3249 200.381 41.525C200.381 42.7251 200.858 43.8761 201.706 44.7247C202.554 45.5733 203.705 46.05 204.905 46.05H213.952V208.95H204.905C203.705 208.95 202.554 209.427 201.706 210.275C200.858 211.124 200.381 212.275 200.381 213.475C200.381 214.675 200.858 215.826 201.706 216.675C202.554 217.523 203.705 218 204.905 218H218.476C219.676 218 220.827 217.523 221.675 216.675C222.523 215.826 223 214.675 223 213.475V41.525C223 40.3249 222.523 39.1739 221.675 38.3253C220.827 37.4767 219.676 37 218.476 37H204.905ZM155.478 93.6078C150.51 93.5082 145.498 94.739 141.476 97.5128C138.893 99.2957 136.668 101.585 134.103 103.78C130.212 96.006 123.155 93.929 115.116 93.7933C106.973 93.653 100.5 97.368 94.8405 104.156V95.825H78.2381V159.175H94.8133C94.8133 159.175 94.7862 135.491 94.8314 123.726C94.8405 121.636 94.9264 119.5 95.3517 117.459C96.6636 111.174 103.291 107.291 109.71 107.807C115.826 108.305 119.405 111.644 119.703 118.893C119.753 120.156 119.703 159.175 119.703 159.175H136.288V124.011C136.315 121.296 136.604 118.527 137.26 115.907C138.735 110.024 144.245 107.128 150.71 107.843C156.41 108.477 160.748 111.549 161.169 117.771V159.175H177.762V113.925C177.762 109.4 176.613 107.092 175.242 104.332C171.931 97.6576 163.761 93.7752 155.478 93.6078Z" fill="white"/>
</svg>
