<svg width="256" height="256" viewBox="0 0 256 256" fill="none" xmlns="http://www.w3.org/2000/svg">
<rect width="256" height="256" fill="#232932"/>
<g clip-path="url(#clip0_131_653)">
<path d="M122.212 28.2794C82.97 30.994 49.5568 55.2255 35.2654 91.2734C22.491 123.609 27.4411 160.255 48.4391 188.08C64.3273 209.238 87.2415 222.81 114.028 226.802C120.615 227.88 133.19 228.08 139.377 227.281C158.818 224.766 176.184 217.461 190.874 205.645C196.064 201.453 204.048 193.19 207.721 188.2C218.259 174.028 224.806 157.94 227.281 140.176C227.92 135.265 227.92 120.735 227.281 115.824C225.685 104.527 222.491 93.9481 217.621 84.0878C212.511 73.7086 207.042 66.004 198.938 57.8204C194.786 53.5489 187.76 47.5609 187.042 47.5609C186.802 47.5609 186.882 51.7525 187.162 57.9401L187.681 68.3194L190.475 71.7924C198.06 81.2535 203.569 93.1497 205.725 104.926C206.723 110.515 206.922 122.092 206.124 127.202C204.327 138.299 200.056 148.758 193.748 157.741C190.315 162.611 182.571 170.355 177.701 173.788C168.12 180.575 157.74 184.806 145.764 186.962C141.772 187.681 126.204 187.681 122.212 186.962C105.046 183.888 90.7545 176.583 79.4171 165.086C67.7205 153.23 60.8543 139.537 58.499 123.409C57.7006 117.82 57.9002 106.643 58.8982 101.453C63.9281 76.4631 80.6946 56.7425 104.647 47.8403C107.84 46.6427 111.992 45.5249 116.423 44.5669C117.102 44.4072 130.156 29.3972 130.515 28.3593C130.635 27.9601 126.443 27.9601 122.212 28.1996V28.2794Z" fill="white"/>
<path d="M156.623 37.8201C156.104 38.1395 153.27 41.5327 150.236 45.2852C147.281 49.0776 141.293 56.4628 136.982 61.7323C116.623 86.5626 110.635 94.3072 108.798 98.0597C106.403 102.85 105.445 106.443 105.206 111.233C104.727 119.137 107.202 125.605 112.79 131.193C116.623 134.986 119.816 136.982 125.006 138.658C128.599 139.856 129.158 139.936 134.587 139.936C140.096 139.936 140.575 139.936 143.609 138.738C152.87 135.145 159.178 127.401 161.573 116.503C162.371 113.229 162.371 105.046 161.733 84.6864L160.934 55.9439C160.535 41.2533 160.375 39.2573 159.737 38.379C158.938 37.1814 157.82 36.9419 156.623 37.8201Z" fill="white"/>
</g>
<defs>
<clipPath id="clip0_131_653">
<rect width="200" height="200" fill="white" transform="translate(28 28)"/>
</clipPath>
</defs>
</svg>
