<svg width="256" height="256" viewBox="0 0 256 256" fill="none" xmlns="http://www.w3.org/2000/svg">
<rect width="256" height="256" fill="#232932"/>
<g clip-path="url(#clip0_241_39)">
<path fill-rule="evenodd" clip-rule="evenodd" d="M158.733 47.525C154.707 43.6063 149.31 41.4137 143.692 41.4137C138.073 41.4137 132.676 43.6063 128.65 47.525L48.4333 126.192C47.091 127.496 45.2928 128.226 43.4208 128.226C41.5489 128.226 39.7507 127.496 38.4083 126.192C37.7511 125.553 37.2287 124.788 36.872 123.944C36.5153 123.099 36.3315 122.192 36.3315 121.275C36.3315 120.358 36.5153 119.451 36.872 118.606C37.2287 117.762 37.7511 116.997 38.4083 116.358L118.625 37.6917C125.335 31.1616 134.329 27.5078 143.692 27.5078C153.055 27.5078 162.048 31.1616 168.758 37.6917C172.641 41.4675 175.574 46.1091 177.318 51.2366C179.062 56.364 179.567 61.8315 178.792 67.1917C184.223 66.4192 189.759 66.9041 194.973 68.6089C200.188 70.3138 204.941 73.1931 208.867 77.025L209.283 77.4417C212.569 80.6373 215.181 84.4593 216.965 88.6818C218.748 92.9042 219.667 97.4413 219.667 102.025C219.667 106.609 218.748 111.146 216.965 115.368C215.181 119.591 212.569 123.413 209.283 126.608L136.733 197.75C136.514 197.963 136.34 198.217 136.221 198.499C136.103 198.78 136.041 199.082 136.041 199.387C136.041 199.693 136.103 199.995 136.221 200.276C136.34 200.558 136.514 200.812 136.733 201.025L151.633 215.642C152.291 216.281 152.813 217.045 153.17 217.89C153.526 218.734 153.71 219.642 153.71 220.558C153.71 221.475 153.526 222.382 153.17 223.227C152.813 224.071 152.291 224.836 151.633 225.475C150.291 226.78 148.493 227.51 146.621 227.51C144.749 227.51 142.951 226.78 141.608 225.475L126.708 210.867C125.174 209.375 123.954 207.592 123.121 205.621C122.288 203.65 121.858 201.531 121.858 199.392C121.858 197.252 122.288 195.134 123.121 193.163C123.954 191.192 125.174 189.408 126.708 187.917L199.258 116.767C201.229 114.849 202.795 112.555 203.865 110.022C204.934 107.489 205.485 104.767 205.485 102.017C205.485 99.2668 204.934 96.5448 203.865 94.0114C202.795 91.478 201.229 89.1846 199.258 87.2667L198.842 86.8583C194.82 82.9438 189.43 80.7514 183.818 80.7467C178.205 80.742 172.812 82.9255 168.783 86.8333L109.017 145.45L109 145.467L108.183 146.275C106.841 147.582 105.041 148.314 103.167 148.314C101.293 148.314 99.4927 147.582 98.15 146.275C97.4928 145.636 96.9704 144.871 96.6137 144.027C96.257 143.182 96.0732 142.275 96.0732 141.358C96.0732 140.442 96.257 139.534 96.6137 138.69C96.9704 137.845 97.4928 137.081 98.15 136.442L158.758 77C160.723 75.0807 162.285 72.7875 163.35 70.2556C164.415 67.7236 164.962 65.0041 164.96 62.2572C164.957 59.5104 164.405 56.7918 163.336 54.2616C162.267 51.7314 160.702 49.4409 158.733 47.525Z" fill="white"/>
<path fill-rule="evenodd" clip-rule="evenodd" d="M148.708 67.1919C149.365 66.5527 149.888 65.7883 150.244 64.9438C150.601 64.0993 150.785 63.1919 150.785 62.2752C150.785 61.3585 150.601 60.451 150.244 59.6065C149.888 58.7621 149.365 57.9977 148.708 57.3585C147.365 56.0513 145.565 55.3198 143.691 55.3198C141.817 55.3198 140.018 56.0513 138.675 57.3585L79.3498 115.542C76.0638 118.738 73.4518 122.56 71.6683 126.782C69.8848 131.004 68.9658 135.542 68.9658 140.125C68.9658 144.709 69.8848 149.246 71.6683 153.468C73.4518 157.691 76.0638 161.513 79.3498 164.709C86.0609 171.237 95.054 174.889 104.416 174.889C113.779 174.889 122.772 171.237 129.483 164.709L188.816 106.525C189.474 105.886 189.996 105.122 190.353 104.277C190.709 103.433 190.893 102.525 190.893 101.609C190.893 100.692 190.709 99.7844 190.353 98.9399C189.996 98.0954 189.474 97.331 188.816 96.6919C187.474 95.3846 185.674 94.6532 183.8 94.6532C181.926 94.6532 180.126 95.3846 178.783 96.6919L119.458 154.875C115.432 158.794 110.035 160.986 104.416 160.986C98.7979 160.986 93.4012 158.794 89.3748 154.875C87.4042 152.957 85.838 150.664 84.7685 148.13C83.699 145.597 83.148 142.875 83.148 140.125C83.148 137.375 83.699 134.653 84.7685 132.12C85.838 129.587 87.4042 127.293 89.3748 125.375L148.708 67.1919Z" fill="white"/>
</g>
<defs>
<clipPath id="clip0_241_39">
<rect width="200" height="200" fill="white" transform="translate(28 28)"/>
</clipPath>
</defs>
</svg>
