<svg width="256" height="256" viewBox="0 0 256 256" fill="none" xmlns="http://www.w3.org/2000/svg">
<rect width="256" height="256" fill="#232932"/>
<g clip-path="url(#clip0_199_192)">
<path opacity="0.65" d="M95.2002 57.7038C94.5977 65.633 96.8038 73.5215 101.432 79.9878C104.806 84.4279 109.682 87.4855 115.148 88.5878C115.999 88.7011 116.864 88.6325 117.686 88.3867C118.509 88.1409 119.269 87.7234 119.918 87.1618C122.848 84.4468 125.049 81.0394 126.318 77.2524C127.588 73.4654 127.887 69.4201 127.186 65.4878C124.672 50.4078 114.806 40.6278 102.386 31.4878C98.1682 39.6216 95.7192 48.556 95.2002 57.7038Z" fill="url(#paint0_linear_199_192)"/>
<path opacity="0.65" d="M78.2342 68.5677C79.704 76.3826 83.8762 83.4314 90.0202 88.4797C94.4274 91.8975 99.9299 93.5907 105.496 93.2417C106.347 93.1309 107.165 92.8407 107.895 92.3905C108.626 91.9402 109.253 91.3401 109.734 90.6297C111.861 87.2487 113.105 83.3876 113.352 79.4007C113.598 75.4138 112.839 71.4288 111.144 67.8117C104.812 53.9037 92.7522 47.0017 78.4002 41.3877C76.4281 50.3345 76.3715 59.5974 78.2342 68.5677Z" fill="url(#paint1_linear_199_192)"/>
<path opacity="0.65" d="M64.6582 83.4578C68.1013 90.6271 73.9573 96.3563 81.2002 99.6418C86.3408 101.804 92.0936 102.017 97.3802 100.242C98.1736 99.9145 98.8885 99.4226 99.4777 98.7986C100.067 98.1746 100.517 97.4326 100.798 96.6218C101.977 92.8064 102.179 88.756 101.386 84.8422C100.592 80.9284 98.8282 77.2766 96.2562 74.2218C86.5382 62.4218 73.1042 58.8818 57.7822 57.1758C58.1954 66.3233 60.5387 75.2799 64.6582 83.4578Z" fill="url(#paint2_linear_199_192)"/>
<path opacity="0.65" d="M55.4 101.356C60.5807 107.387 67.7178 111.404 75.562 112.704C81.0872 113.46 86.6984 112.175 91.344 109.09C92.0261 108.568 92.5896 107.907 92.9971 107.151C93.4046 106.394 93.6469 105.56 93.708 104.704C93.8599 100.712 93.0069 96.7465 91.2271 93.1706C89.4474 89.5947 86.7979 86.523 83.522 84.2377C71.08 75.3517 57.188 75.4137 41.948 77.7297C44.7147 86.466 49.2992 94.5177 55.4 101.356Z" fill="url(#paint3_linear_199_192)"/>
<path opacity="0.65" d="M51.0862 121.04C57.6521 125.527 65.5874 127.561 73.5022 126.786C79.0352 126.086 84.1231 123.393 87.8122 119.21C88.3356 118.53 88.7087 117.746 88.9069 116.911C89.1051 116.076 89.124 115.209 88.9622 114.366C88.0759 110.471 86.2255 106.861 83.5808 103.868C80.9362 100.875 77.582 98.5935 73.8262 97.2339C59.5062 91.8719 46.1042 95.5259 31.9802 101.704C36.9134 109.425 43.4247 116.015 51.0862 121.04Z" fill="url(#paint4_linear_199_192)"/>
<path opacity="0.65" d="M52.0161 141.168C59.5193 143.802 67.7101 143.713 75.1541 140.916C80.3174 138.808 84.5349 134.89 87.0161 129.896C87.3454 129.103 87.5029 128.25 87.4781 127.392C87.4532 126.534 87.2467 125.692 86.8721 124.92C85.0079 121.387 82.2862 118.38 78.957 116.173C75.6278 113.966 71.7977 112.631 67.8181 112.29C52.6001 110.816 40.6001 117.814 28.5581 127.442C35.3217 133.62 43.3161 138.298 52.0161 141.168Z" fill="url(#paint5_linear_199_192)"/>
<path opacity="0.65" d="M58.1241 160.372C66.0507 160.972 73.936 158.766 80.4001 154.14C84.8402 150.766 87.8979 145.89 89.0001 140.424C89.1134 139.573 89.0449 138.708 88.7991 137.886C88.5532 137.063 88.1357 136.303 87.5741 135.654C84.8591 132.724 81.4517 130.523 77.6648 129.254C73.8778 127.984 69.8325 127.685 65.9001 128.386C50.8201 130.9 41.0401 140.766 31.9001 153.186C40.0364 157.405 48.9736 159.854 58.1241 160.372Z" fill="url(#paint6_linear_199_192)"/>
<path opacity="0.65" d="M69.0001 177.34C76.815 175.87 83.8638 171.698 88.9121 165.554C92.3299 161.147 94.023 155.644 93.6741 150.078C93.5632 149.227 93.2731 148.409 92.8229 147.679C92.3726 146.948 91.7725 146.321 91.0621 145.84C87.681 143.713 83.8199 142.469 79.833 142.223C75.8462 141.976 71.8613 142.735 68.2441 144.43C54.3281 150.762 47.4441 162.83 41.8201 177.182C50.7675 179.151 60.0304 179.205 69.0001 177.34Z" fill="url(#paint7_linear_199_192)"/>
<path opacity="0.65" d="M83.886 190.916C91.0546 187.473 96.7836 181.619 100.07 174.378C102.232 169.237 102.446 163.484 100.67 158.198C100.343 157.404 99.8508 156.689 99.2268 156.1C98.6028 155.511 97.8609 155.061 97.05 154.78C93.2346 153.601 89.1842 153.399 85.2704 154.192C81.3567 154.986 77.7049 156.75 74.65 159.322C62.85 169.04 59.31 182.474 57.604 197.796C66.7518 197.381 75.7085 195.037 83.886 190.916Z" fill="url(#paint8_linear_199_192)"/>
<path opacity="0.65" d="M101.782 200.174C107.816 194.993 111.834 187.855 113.134 180.01C113.89 174.485 112.605 168.874 109.52 164.228C108.999 163.546 108.338 162.983 107.583 162.576C106.828 162.168 105.994 161.925 105.138 161.864C101.147 161.712 97.1808 162.566 93.6048 164.346C90.0289 166.126 86.9574 168.776 84.6722 172.052C75.7862 184.494 75.8482 198.386 78.1642 213.626C86.8977 210.858 94.9467 206.274 101.782 200.174Z" fill="url(#paint9_linear_199_192)"/>
<path opacity="0.65" d="M121.466 204.486C125.953 197.921 127.987 189.986 127.212 182.072C126.512 176.539 123.819 171.451 119.636 167.762C118.956 167.238 118.172 166.865 117.337 166.667C116.502 166.469 115.635 166.45 114.792 166.612C110.897 167.498 107.288 169.349 104.294 171.993C101.301 174.638 99.0196 177.992 97.66 181.748C92.298 196.066 95.952 209.468 102.134 223.59C109.854 218.657 116.442 212.146 121.466 204.486Z" fill="url(#paint10_linear_199_192)"/>
<path opacity="0.65" d="M141.6 203.556C144.235 196.053 144.147 187.862 141.35 180.418C139.242 175.254 135.323 171.037 130.328 168.556C129.536 168.226 128.682 168.069 127.825 168.094C126.967 168.119 126.124 168.325 125.352 168.7C121.819 170.564 118.812 173.286 116.605 176.616C114.398 179.945 113.063 183.776 112.722 187.756C111.248 202.974 118.246 214.974 127.874 227.014C134.053 220.25 138.731 212.256 141.6 203.556Z" fill="url(#paint11_linear_199_192)"/>
<path opacity="0.65" d="M160.8 197.448C161.403 189.519 159.197 181.63 154.568 175.164C151.195 170.724 146.318 167.666 140.852 166.564C140.002 166.451 139.136 166.519 138.314 166.765C137.492 167.011 136.731 167.428 136.082 167.99C133.153 170.705 130.952 174.112 129.682 177.899C128.412 181.686 128.114 185.731 128.814 189.664C131.328 204.744 141.194 214.524 153.614 223.664C157.832 215.53 160.281 206.596 160.8 197.448Z" fill="url(#paint12_linear_199_192)"/>
<path opacity="0.65" d="M177.766 186.578C176.296 178.763 172.124 171.714 165.98 166.666C161.573 163.248 156.07 161.555 150.504 161.904C149.653 162.015 148.835 162.305 148.105 162.755C147.374 163.205 146.748 163.805 146.266 164.516C144.139 167.897 142.895 171.758 142.649 175.745C142.402 179.732 143.161 183.717 144.856 187.334C151.188 201.25 163.256 208.134 177.606 213.758C179.576 204.811 179.631 195.548 177.766 186.578Z" fill="url(#paint13_linear_199_192)"/>
<path opacity="0.65" d="M191.342 171.688C187.899 164.519 182.043 158.789 174.8 155.504C169.659 153.342 163.907 153.128 158.62 154.904C157.827 155.231 157.113 155.723 156.524 156.347C155.935 156.971 155.485 157.713 155.204 158.524C154.025 162.339 153.823 166.39 154.617 170.303C155.41 174.217 157.174 177.869 159.746 180.924C169.464 192.724 182.898 196.264 198.22 197.97C197.806 188.822 195.462 179.866 191.342 171.688Z" fill="url(#paint14_linear_199_192)"/>
<path opacity="0.65" d="M200.6 153.79C195.42 147.756 188.282 143.738 180.436 142.438C174.911 141.682 169.3 142.967 164.654 146.052C163.972 146.573 163.409 147.234 163.002 147.989C162.594 148.744 162.352 149.578 162.29 150.434C162.138 154.426 162.991 158.393 164.771 161.969C166.551 165.546 169.201 168.618 172.478 170.904C184.92 179.79 198.812 179.728 214.052 177.412C211.285 168.677 206.7 160.626 200.6 153.79Z" fill="url(#paint15_linear_199_192)"/>
<path opacity="0.65" d="M204.914 134.104C198.349 129.617 190.414 127.583 182.5 128.358C176.967 129.058 171.879 131.751 168.19 135.934C167.667 136.614 167.294 137.398 167.096 138.233C166.898 139.068 166.88 139.935 167.042 140.778C167.929 144.671 169.78 148.28 172.424 151.272C175.068 154.264 178.422 156.545 182.176 157.904C196.492 163.266 209.896 159.612 224.018 153.43C219.084 145.713 212.574 139.126 204.914 134.104Z" fill="url(#paint16_linear_199_192)"/>
<path opacity="0.65" d="M203.984 113.976C196.481 111.341 188.29 111.431 180.846 114.228C175.682 116.336 171.465 120.255 168.984 125.25C168.655 126.042 168.497 126.896 168.522 127.753C168.547 128.611 168.753 129.454 169.128 130.226C170.992 133.758 173.714 136.766 177.043 138.973C180.372 141.179 184.202 142.515 188.182 142.856C203.4 144.33 215.4 137.332 227.442 127.704C220.679 121.524 212.684 116.846 203.984 113.976Z" fill="url(#paint17_linear_199_192)"/>
<path opacity="0.65" d="M197.876 94.7736C189.95 94.173 182.064 96.379 175.6 101.006C171.16 104.379 168.102 109.256 167 114.722C166.887 115.572 166.956 116.438 167.202 117.26C167.448 118.082 167.866 118.843 168.428 119.492C171.143 122.421 174.55 124.622 178.337 125.892C182.124 127.162 186.17 127.46 190.102 126.76C205.182 124.246 214.962 114.38 224.102 101.96C215.965 97.7401 207.027 95.2911 197.876 94.7736Z" fill="url(#paint18_linear_199_192)"/>
<path opacity="0.65" d="M187 77.8061C179.185 79.2759 172.136 83.4481 167.088 89.5921C163.67 93.9993 161.977 99.5018 162.326 105.068C162.438 105.919 162.729 106.737 163.18 107.467C163.632 108.197 164.233 108.823 164.944 109.304C168.325 111.431 172.186 112.675 176.173 112.922C180.16 113.168 184.145 112.409 187.762 110.714C201.678 104.382 208.562 92.3141 214.186 77.9641C205.237 75.9938 195.972 75.9399 187 77.8061Z" fill="url(#paint19_linear_199_192)"/>
<path opacity="0.65" d="M172.114 64.2296C164.946 67.6719 159.217 73.5263 155.93 80.7676C153.768 85.9082 153.555 91.661 155.33 96.9476C155.657 97.741 156.149 98.4559 156.773 99.0451C157.397 99.6343 158.139 100.084 158.95 100.366C162.766 101.545 166.816 101.746 170.73 100.953C174.643 100.159 178.295 98.3956 181.35 95.8236C193.15 86.1056 196.69 72.6716 198.396 57.3496C189.248 57.7641 180.292 60.1088 172.114 64.2296Z" fill="url(#paint20_linear_199_192)"/>
<path opacity="0.65" d="M154.218 54.9718C148.185 60.1522 144.166 67.2903 142.866 75.1358C142.11 80.661 143.395 86.2722 146.48 90.9178C147.002 91.5994 147.662 92.1626 148.417 92.5701C149.173 92.9776 150.006 93.2202 150.862 93.2818C154.853 93.4346 158.818 92.5828 162.394 90.8045C165.97 89.0261 169.042 86.3783 171.328 83.1038C180.214 70.6618 180.152 56.7698 177.836 41.5298C169.103 44.2944 161.055 48.8754 154.218 54.9718Z" fill="url(#paint21_linear_199_192)"/>
<path opacity="0.65" d="M134.534 50.6597C130.047 57.2249 128.013 65.1595 128.788 73.0737C129.488 78.6067 132.181 83.6947 136.364 87.3837C137.044 87.9071 137.828 88.2803 138.663 88.4785C139.498 88.6768 140.365 88.6956 141.208 88.5337C145.103 87.6473 148.713 85.7969 151.706 83.1523C154.699 80.5076 156.981 77.1535 158.34 73.3977C163.702 59.0797 160.048 45.6777 153.866 31.5557C146.147 36.4886 139.558 42.9992 134.534 50.6597Z" fill="url(#paint22_linear_199_192)"/>
<path opacity="0.65" d="M114.4 51.5898C111.766 59.093 111.855 67.2838 114.652 74.7278C116.76 79.8915 120.679 84.109 125.674 86.5898C126.467 86.9192 127.32 87.0766 128.178 87.0518C129.035 87.027 129.878 86.8204 130.65 86.4458C134.183 84.5814 137.191 81.8595 139.397 78.5299C141.604 75.2003 142.939 71.3698 143.28 67.3898C144.758 52.1718 137.76 40.1718 128.132 28.1318C121.951 34.8949 117.271 42.8893 114.4 51.5898Z" fill="url(#paint23_linear_199_192)"/>
</g>
<defs>
<linearGradient id="paint0_linear_199_192" x1="28.0002" y1="228.104" x2="228" y2="28.1038" gradientUnits="userSpaceOnUse">
<stop stop-color="#0A00B2"/>
<stop offset="0.5" stop-color="#FF0000"/>
<stop offset="1" stop-color="#FFFC00"/>
</linearGradient>
<linearGradient id="paint1_linear_199_192" x1="28.0002" y1="228.104" x2="228" y2="28.1037" gradientUnits="userSpaceOnUse">
<stop stop-color="#0A00B2"/>
<stop offset="0.5" stop-color="#FF0000"/>
<stop offset="1" stop-color="#FFFC00"/>
</linearGradient>
<linearGradient id="paint2_linear_199_192" x1="28.0002" y1="228.104" x2="228" y2="28.1038" gradientUnits="userSpaceOnUse">
<stop stop-color="#0A00B2"/>
<stop offset="0.5" stop-color="#FF0000"/>
<stop offset="1" stop-color="#FFFC00"/>
</linearGradient>
<linearGradient id="paint3_linear_199_192" x1="28" y1="228.104" x2="228" y2="28.1036" gradientUnits="userSpaceOnUse">
<stop stop-color="#0A00B2"/>
<stop offset="0.5" stop-color="#FF0000"/>
<stop offset="1" stop-color="#FFFC00"/>
</linearGradient>
<linearGradient id="paint4_linear_199_192" x1="28.0002" y1="228.104" x2="228" y2="28.1039" gradientUnits="userSpaceOnUse">
<stop stop-color="#0A00B2"/>
<stop offset="0.5" stop-color="#FF0000"/>
<stop offset="1" stop-color="#FFFC00"/>
</linearGradient>
<linearGradient id="paint5_linear_199_192" x1="28.0001" y1="228.104" x2="228" y2="28.1036" gradientUnits="userSpaceOnUse">
<stop stop-color="#0A00B2"/>
<stop offset="0.5" stop-color="#FF0000"/>
<stop offset="1" stop-color="#FFFC00"/>
</linearGradient>
<linearGradient id="paint6_linear_199_192" x1="28.0001" y1="228.104" x2="228" y2="28.1038" gradientUnits="userSpaceOnUse">
<stop stop-color="#0A00B2"/>
<stop offset="0.5" stop-color="#FF0000"/>
<stop offset="1" stop-color="#FFFC00"/>
</linearGradient>
<linearGradient id="paint7_linear_199_192" x1="28.0001" y1="228.104" x2="228" y2="28.1038" gradientUnits="userSpaceOnUse">
<stop stop-color="#0A00B2"/>
<stop offset="0.5" stop-color="#FF0000"/>
<stop offset="1" stop-color="#FFFC00"/>
</linearGradient>
<linearGradient id="paint8_linear_199_192" x1="28" y1="228.104" x2="228" y2="28.1037" gradientUnits="userSpaceOnUse">
<stop stop-color="#0A00B2"/>
<stop offset="0.5" stop-color="#FF0000"/>
<stop offset="1" stop-color="#FFFC00"/>
</linearGradient>
<linearGradient id="paint9_linear_199_192" x1="28.0002" y1="228.104" x2="228" y2="28.1039" gradientUnits="userSpaceOnUse">
<stop stop-color="#0A00B2"/>
<stop offset="0.5" stop-color="#FF0000"/>
<stop offset="1" stop-color="#FFFC00"/>
</linearGradient>
<linearGradient id="paint10_linear_199_192" x1="28" y1="228.104" x2="228" y2="28.1038" gradientUnits="userSpaceOnUse">
<stop stop-color="#0A00B2"/>
<stop offset="0.5" stop-color="#FF0000"/>
<stop offset="1" stop-color="#FFFC00"/>
</linearGradient>
<linearGradient id="paint11_linear_199_192" x1="28" y1="228.104" x2="228" y2="28.1038" gradientUnits="userSpaceOnUse">
<stop stop-color="#0A00B2"/>
<stop offset="0.5" stop-color="#FF0000"/>
<stop offset="1" stop-color="#FFFC00"/>
</linearGradient>
<linearGradient id="paint12_linear_199_192" x1="28.0002" y1="228.104" x2="228" y2="28.1038" gradientUnits="userSpaceOnUse">
<stop stop-color="#0A00B2"/>
<stop offset="0.5" stop-color="#FF0000"/>
<stop offset="1" stop-color="#FFFC00"/>
</linearGradient>
<linearGradient id="paint13_linear_199_192" x1="28.0001" y1="228.104" x2="228" y2="28.1039" gradientUnits="userSpaceOnUse">
<stop stop-color="#0A00B2"/>
<stop offset="0.5" stop-color="#FF0000"/>
<stop offset="1" stop-color="#FFFC00"/>
</linearGradient>
<linearGradient id="paint14_linear_199_192" x1="28" y1="228.104" x2="228" y2="28.1039" gradientUnits="userSpaceOnUse">
<stop stop-color="#0A00B2"/>
<stop offset="0.5" stop-color="#FF0000"/>
<stop offset="1" stop-color="#FFFC00"/>
</linearGradient>
<linearGradient id="paint15_linear_199_192" x1="28" y1="228.104" x2="228" y2="28.1036" gradientUnits="userSpaceOnUse">
<stop stop-color="#0A00B2"/>
<stop offset="0.5" stop-color="#FF0000"/>
<stop offset="1" stop-color="#FFFC00"/>
</linearGradient>
<linearGradient id="paint16_linear_199_192" x1="28.0002" y1="228.104" x2="228" y2="28.104" gradientUnits="userSpaceOnUse">
<stop stop-color="#0A00B2"/>
<stop offset="0.5" stop-color="#FF0000"/>
<stop offset="1" stop-color="#FFFC00"/>
</linearGradient>
<linearGradient id="paint17_linear_199_192" x1="28" y1="228.104" x2="228" y2="28.1038" gradientUnits="userSpaceOnUse">
<stop stop-color="#0A00B2"/>
<stop offset="0.5" stop-color="#FF0000"/>
<stop offset="1" stop-color="#FFFC00"/>
</linearGradient>
<linearGradient id="paint18_linear_199_192" x1="28" y1="228.104" x2="228" y2="28.1036" gradientUnits="userSpaceOnUse">
<stop stop-color="#0A00B2"/>
<stop offset="0.5" stop-color="#FF0000"/>
<stop offset="1" stop-color="#FFFC00"/>
</linearGradient>
<linearGradient id="paint19_linear_199_192" x1="28.0002" y1="228.104" x2="228" y2="28.1041" gradientUnits="userSpaceOnUse">
<stop stop-color="#0A00B2"/>
<stop offset="0.5" stop-color="#FF0000"/>
<stop offset="1" stop-color="#FFFC00"/>
</linearGradient>
<linearGradient id="paint20_linear_199_192" x1="28.0002" y1="228.104" x2="228" y2="28.1036" gradientUnits="userSpaceOnUse">
<stop stop-color="#0A00B2"/>
<stop offset="0.5" stop-color="#FF0000"/>
<stop offset="1" stop-color="#FFFC00"/>
</linearGradient>
<linearGradient id="paint21_linear_199_192" x1="28.0001" y1="228.104" x2="228" y2="28.1038" gradientUnits="userSpaceOnUse">
<stop stop-color="#0A00B2"/>
<stop offset="0.5" stop-color="#FF0000"/>
<stop offset="1" stop-color="#FFFC00"/>
</linearGradient>
<linearGradient id="paint22_linear_199_192" x1="28.0002" y1="228.104" x2="228" y2="28.1037" gradientUnits="userSpaceOnUse">
<stop stop-color="#0A00B2"/>
<stop offset="0.5" stop-color="#FF0000"/>
<stop offset="1" stop-color="#FFFC00"/>
</linearGradient>
<linearGradient id="paint23_linear_199_192" x1="28.0001" y1="228.104" x2="228" y2="28.1038" gradientUnits="userSpaceOnUse">
<stop stop-color="#0A00B2"/>
<stop offset="0.5" stop-color="#FF0000"/>
<stop offset="1" stop-color="#FFFC00"/>
</linearGradient>
<clipPath id="clip0_199_192">
<rect width="200" height="200" fill="white" transform="translate(28 28)"/>
</clipPath>
</defs>
</svg>
