<svg width="256" height="256" viewBox="0 0 256 256" fill="none" xmlns="http://www.w3.org/2000/svg">
<rect width="256" height="256" fill="#242932"/>
<path d="M117.788 96.9745C124.729 103.067 129.957 110.5 135.379 117.924C137.608 120.968 139.903 123.914 142.327 126.805C143.511 128.249 144.638 129.722 145.758 131.215C152.052 139.578 158.993 145.542 169.335 148.234C169.764 148.346 170.193 148.458 170.634 148.573C179.131 149.862 187.938 149.311 195.311 144.649C199.612 141.375 202.99 136.66 203.872 131.259C204.422 124.56 203.955 119.526 199.664 114.137C195.786 109.977 190.92 107.981 185.291 107.758C181.111 107.693 176.991 107.838 172.848 108.43C173.147 102.711 174.33 97.2214 175.518 91.6377C175.713 90.7083 175.908 89.7788 176.103 88.8492C176.575 86.595 177.051 84.3418 177.53 82.089C191.773 81.7824 204.99 86.7542 215.419 96.5903C215.858 97.0204 216.297 97.4505 216.749 97.8937C217.116 98.2393 217.483 98.5848 217.861 98.9409C225.378 106.662 228.106 118.101 227.997 128.549C227.258 141.034 221.955 152.67 212.652 161.112C200.797 171.029 186.287 173.785 171.261 172.524C154.923 170.824 140.825 162.222 130.117 149.99C127.429 146.665 124.923 143.201 122.408 139.745C120.764 137.502 119.078 135.294 117.385 133.088C117.075 132.684 116.765 132.279 116.445 131.862C115.54 130.684 114.634 129.508 113.727 128.332C113.437 127.956 113.147 127.58 112.848 127.193C105.045 117.094 97.2342 108.148 83.8735 106.089C74.8173 105.317 66.2808 105.688 58.7946 111.364C54.5614 115.267 52.0378 120.713 51.5394 126.416C51.4062 131.616 52.239 137.022 55.9707 140.972C62.8005 146.73 68.7256 147.435 77.4346 147.064C79.3886 146.893 81.3385 146.693 83.2881 146.478C81.6973 155.298 80.0622 164.091 78.0199 172.819C64.4701 173.759 51.0734 167.799 40.923 159.137C33.3818 151.991 28.4639 142.229 28.0108 131.778C27.9971 130.569 27.9966 129.359 28.0085 128.149C28.0134 127.51 28.0183 126.871 28.0233 126.213C28.2426 115.682 31.9257 106.475 38.801 98.479C39.4801 97.6267 39.4801 97.6267 40.173 96.7573C59.4801 73.6482 97.2171 79.9601 117.788 96.9745ZM82.7028 84.4305C83.0891 84.8168 83.4754 85.2031 83.8735 85.6012C84.453 85.408 85.0325 85.2148 85.6295 85.0158C84.6637 84.8227 83.6979 84.6295 82.7028 84.4305ZM85.6295 85.6012C87.4613 87.1317 89.3307 88.4554 91.3706 89.6941C96.0296 92.536 99.8801 95.8494 103.776 99.6497C104.418 100.228 104.418 100.228 105.074 100.818C110.862 106.185 115.621 113.069 119.807 119.728C120.115 120.215 120.424 120.703 120.742 121.205C121.321 122.131 121.886 123.066 122.437 124.009C123.177 125.198 123.825 126.205 124.848 127.161C127.034 127.541 127.034 127.541 128.946 127.161C128.207 125.147 127.366 123.509 126.095 121.784C125.762 121.33 125.429 120.877 125.086 120.409C124.73 119.933 124.374 119.457 124.007 118.966C123.639 118.472 123.272 117.977 122.893 117.468C119.796 113.335 116.562 109.369 113.141 105.503C112.751 105.055 112.751 105.055 112.354 104.597C105.336 96.5291 97.2104 89.9678 87.3856 85.6012C86.8061 85.6012 86.2266 85.6012 85.6295 85.6012ZM125.434 127.747C135.301 144.36 150.695 164.336 169.921 170.478C170.5 170.285 171.08 170.092 171.677 169.892C171.125 169.616 170.572 169.339 170.003 169.053C154.071 160.913 141.705 147.526 132.947 132.004C131.476 129.027 131.476 129.027 128.834 127.365C127.38 127.297 127.38 127.297 125.434 127.747Z" fill="white"/>
<path d="M100.263 127.161C102.733 128.062 103.976 129.887 105.495 131.917C106.067 132.663 106.639 133.409 107.212 134.153C107.511 134.543 107.81 134.932 108.117 135.334C109.66 137.321 111.256 139.263 112.849 141.21C113.485 141.992 114.12 142.775 114.756 143.558C115.71 144.733 116.665 145.907 117.627 147.076C118.552 148.202 119.469 149.333 120.385 150.466C120.668 150.806 120.95 151.145 121.241 151.496C122.009 152.453 122.009 152.453 123.092 154.088C122.367 156.265 121.771 156.441 119.818 157.556C119.263 157.878 118.707 158.2 118.135 158.531C117.257 159.03 117.257 159.03 116.361 159.539C114.656 160.517 112.954 161.499 111.26 162.496C110.198 163.119 109.128 163.73 108.05 164.325C105.092 166.033 105.092 166.033 103.764 169.09C103.804 169.849 103.844 170.609 103.885 171.392C103.916 172.005 103.916 172.005 103.947 172.629C104.382 178.895 106.35 184.263 110.215 189.209C110.756 189.94 110.756 189.94 111.307 190.686C115.08 195.066 120.76 197.572 126.44 198.152C133.19 198.389 139.303 196.096 144.3 191.527C149.729 185.762 151.452 179.24 152.946 171.648C153.646 171.89 154.346 172.131 155.067 172.38C161.118 174.384 167.112 176.037 173.433 176.916C171.398 188.503 166.986 197.615 158.799 206.184C158.315 206.734 158.315 206.734 157.82 207.295C151.238 214.497 140.887 218.684 131.253 219.211C119.376 219.639 108.361 216.048 99.3557 208.132C88.2949 197.618 82.6171 184.195 82.1197 168.93C81.9419 154.484 86.9035 140.922 96.9159 130.447C98.0176 129.336 99.1302 128.24 100.263 127.161Z" fill="white"/>
<path d="M155.433 46.1627C165.979 55.491 172.281 68.5801 173.38 82.6285C173.398 83.0299 173.415 83.4314 173.433 83.845C173.456 84.3188 173.48 84.7927 173.504 85.2809C173.871 100.035 168.68 114.302 158.593 125.126C157.51 126.217 156.415 127.287 155.287 128.332C152.932 126.599 151.184 124.648 149.433 122.332C148.868 121.598 148.302 120.864 147.734 120.13C147.44 119.748 147.145 119.366 146.841 118.972C145.285 116.981 143.681 115.031 142.08 113.076C139.662 110.11 137.26 107.133 134.909 104.113C134.435 103.505 133.96 102.897 133.471 102.27C132.458 100.82 132.458 100.82 132.458 99.6496C133.557 98.8739 133.557 98.8739 135.09 97.9941C135.647 97.6704 136.204 97.3467 136.778 97.0132C137.369 96.6759 137.959 96.3386 138.568 95.9911C142.327 93.8268 146.021 91.6477 149.575 89.1572C150.604 88.5278 150.604 88.5278 151.775 88.5278C151.445 78.7107 150.187 69.7647 142.617 62.6487C136.446 57.9611 130.038 56.8191 122.507 57.5039C116.157 59.0321 111.371 63.1991 107.571 68.3696C105.041 72.5239 103.625 77.3587 102.605 82.0889C101.917 81.8474 101.229 81.606 100.52 81.3572C94.7023 79.4212 88.7374 77.8998 82.7028 76.8207C83.0177 73.5245 83.6326 70.6853 84.8247 67.6013C84.9803 67.196 85.1358 66.7906 85.2961 66.373C90.1269 54.1887 99.0424 44.3671 111.086 39.0401C126.598 33.1561 142.449 35.9631 155.433 46.1627Z" fill="white"/>
</svg>
