<svg width="256" height="256" viewBox="0 0 256 256" fill="none" xmlns="http://www.w3.org/2000/svg">
<rect width="256" height="256" fill="#232932"/>
<path d="M121.405 69.4286C113.243 57.187 111.478 40.8265 111.093 34.1033C90.3588 38.5871 69.7595 46.6299 70.9491 52.5532C71.0991 53.298 72.0388 54.1928 73.5984 55.0626L71.1591 59.4264C68.1799 57.7568 66.5054 55.8323 66.0505 53.533C64.7059 46.8298 72.2988 40.7665 89.2541 34.9931C97.039 32.4014 104.969 30.2667 113.003 28.5998L115.987 28V31.0542C115.987 31.2641 116.117 52.4883 125.564 66.6594L121.405 69.4286ZM129.738 228H128.483C87.5346 228 41.9621 215.139 36.5786 193.614C33.2945 180.468 44.0365 165.942 67.64 151.621L70.2393 155.89C49.0002 168.781 38.768 181.743 41.4323 192.405C46.106 211.09 89.2941 222.736 127.174 222.996C131.677 216.263 155.876 176.709 142.065 123.659L146.898 122.399C162.639 182.842 130.813 226.555 130.493 226.99L129.738 228Z" fill="#CFD8DC"/>
<path d="M55.6583 209.536C52.9641 209.536 51.6294 209.241 51.4095 209.186C50.9768 209.082 50.5797 208.865 50.2595 208.556C49.9393 208.247 49.7076 207.859 49.5887 207.43C49.4698 207.001 49.468 206.548 49.5834 206.119C49.6987 205.689 49.9271 205.298 50.2448 204.987C50.6047 204.627 86.2199 168.957 91.0286 140.115L95.9572 140.935C91.8234 165.748 67.3901 194.035 57.6878 204.452C67.3801 203.897 91.8533 199.358 138.835 173.061C102.171 169.042 96.3721 139.69 96.3121 139.375L101.226 138.47C101.461 139.7 107.354 168.517 147.433 168.517H147.473C148.024 168.516 148.559 168.697 148.996 169.031C149.434 169.366 149.748 169.835 149.891 170.367C150.034 170.899 149.998 171.463 149.788 171.971C149.577 172.48 149.205 172.905 148.728 173.181C92.5682 205.717 65.3356 209.531 55.6583 209.536Z" fill="#CFD8DC"/>
<path d="M78.6172 221.504C78.0857 221.508 77.5669 221.342 77.1363 221.03C76.7057 220.719 76.3859 220.278 76.2235 219.771C76.0611 219.265 76.0647 218.721 76.2336 218.217C76.4025 217.713 76.728 217.276 77.1626 216.97C77.3326 216.845 86.2251 210.282 95.6875 195.836C91.9142 194.171 88.2482 192.273 84.7105 190.152C80.2718 187.488 76.9177 184.629 74.4134 181.7C61.5669 185.089 49.7102 186.428 39.298 185.544L39.7179 180.565C49.0953 181.36 59.7574 180.25 71.3142 177.366C63.4514 163.93 70.6694 150.593 70.7694 150.413L75.1382 152.848C74.8033 153.457 68.8149 164.694 76.3828 176.006C87.3848 172.847 99.1216 168.173 111.268 162.1C114.346 151.872 116.397 141.363 117.392 130.729C117.431 130.333 117.565 129.952 117.781 129.618C117.997 129.284 118.29 129.006 118.635 128.808C118.98 128.609 119.367 128.496 119.765 128.477C120.162 128.458 120.558 128.534 120.921 128.699C121.081 128.774 137.236 136.152 148.933 140.966C149.35 141.137 149.714 141.419 149.984 141.781C150.255 142.142 150.422 142.57 150.469 143.019C150.515 143.468 150.44 143.922 150.249 144.331C150.059 144.741 149.761 145.091 149.388 145.345C138.531 152.787 127.215 159.535 115.507 165.549C112.473 175.297 108.349 184.672 103.215 193.496C121.72 200.41 137.781 200.514 137.986 200.514C138.541 200.512 139.081 200.695 139.521 201.034C139.961 201.374 140.275 201.849 140.415 202.387C140.554 202.925 140.51 203.493 140.29 204.003C140.07 204.513 139.687 204.935 139.201 205.203C116.507 217.81 80.3817 221.359 78.8572 221.504H78.6172ZM100.536 197.845C95.3376 205.913 90.229 211.706 86.4101 215.49C96.3973 214.021 113.908 210.802 128.439 204.798C118.89 203.621 109.521 201.286 100.536 197.845ZM79.8319 180.17C81.7963 182.13 84.2457 184.044 87.2798 185.868C90.9588 188.078 94.6928 189.952 98.3768 191.542C102.674 184.294 106.26 176.647 109.084 168.708C98.9816 173.517 89.1743 177.356 79.8319 180.17ZM121.995 134.673C121.064 142.854 119.539 150.956 117.432 158.916C126.099 154.275 134.543 149.228 142.735 143.79C135.788 140.827 128.875 137.787 121.995 134.673ZM95.6125 66.0465C95.0172 66.0448 94.4416 65.8323 93.988 65.4466C85.9402 58.5585 76.4678 44.5424 76.0679 43.9475C75.7561 43.4833 75.609 42.9278 75.6501 42.3701C75.6913 41.8123 75.9184 41.2845 76.295 40.871C76.6716 40.4575 77.176 40.1823 77.7275 40.0894C78.279 39.9965 78.8457 40.0913 79.337 40.3585C79.392 40.3735 84.0257 42.283 115.412 47.5116C115.856 47.5831 116.271 47.7731 116.616 48.0614C116.96 48.3497 117.22 48.7256 117.369 49.1495C117.517 49.5734 117.549 50.0295 117.459 50.4697C117.37 50.9099 117.164 51.3178 116.862 51.6504C108.074 61.4127 96.9722 65.7116 96.5023 65.8865C96.2171 65.9907 95.9161 66.0448 95.6125 66.0465ZM84.2307 46.7818C87.3848 51.0256 91.9286 56.759 96.0874 60.623C101.076 58.3175 105.698 55.2891 109.804 51.6354C96.8922 49.431 89.0144 47.8615 84.2307 46.7818Z" fill="#CFD8DC"/>
<path d="M115.202 135.028C114.852 135.027 114.506 134.954 114.186 134.811C113.867 134.669 113.58 134.461 113.346 134.201C113.112 133.941 112.935 133.634 112.827 133.301C112.719 132.968 112.681 132.617 112.718 132.268C114.177 118.527 93.0932 113.014 92.8783 112.964C92.4507 112.855 92.0597 112.634 91.7449 112.325C91.43 112.016 91.2027 111.629 91.0859 111.203C90.9691 110.778 90.9671 110.329 91.0799 109.903C91.1928 109.476 91.4166 109.087 91.7286 108.775C92.7633 107.74 117.417 83.2919 148.348 69.8656C148.768 69.6833 149.229 69.6198 149.682 69.6817C150.136 69.7437 150.563 69.9289 150.918 70.2171C151.274 70.5053 151.543 70.8855 151.697 71.3162C151.851 71.7469 151.884 72.2117 151.792 72.6598C145.864 101.372 118.251 132.863 117.082 134.188C116.844 134.451 116.554 134.661 116.23 134.806C115.907 134.951 115.557 135.026 115.202 135.028ZM98.2668 109.46C104.185 111.684 114.552 116.833 117.177 126.235C124.42 117.198 139.88 96.3783 145.654 76.5787C123.725 87.1258 105.26 103.031 98.2668 109.46Z" fill="#B71C1C"/>
<path d="M71.3941 154.822L69.0198 150.423C78.4322 145.349 89.2142 136.012 98.0468 125.16C90.5289 130.308 86.225 133.832 86.0901 133.947L82.896 130.098C83.0909 129.938 91.7135 122.865 106.045 114.003C109.979 107.675 113.003 101.166 114.557 94.928C114.822 93.8683 115.052 92.8436 115.237 91.8539C105.615 88.4198 96.7372 86.3854 90.6388 85.5106C90.1868 85.447 89.7608 85.2607 89.4071 84.972C89.0534 84.6834 88.7855 84.3034 88.6325 83.8733C88.4795 83.4431 88.4473 82.9793 88.5392 82.5322C88.6312 82.085 88.8439 81.6716 89.1542 81.3368C89.5791 80.8769 99.7313 69.9999 112.418 64.0265C112.9 63.7998 113.441 63.7328 113.963 63.8353C114.486 63.9378 114.962 64.2045 115.322 64.5964C115.657 64.9613 122.52 72.6691 120.776 88.6147C126.549 90.8641 132.497 93.5984 138.226 96.8525C152.017 90.6542 167.678 85.0757 184.358 81.7066C184.797 81.6235 185.251 81.6574 185.673 81.8048C186.095 81.9522 186.47 82.2079 186.762 82.5464C187.347 83.2462 187.507 84.211 187.177 85.0607C180.679 101.716 163.254 119.506 162.514 120.256C162.265 120.506 161.965 120.701 161.635 120.827C161.305 120.954 160.953 121.01 160.6 120.991C160.247 120.972 159.902 120.879 159.588 120.718C159.273 120.557 158.997 120.331 158.775 120.056C153.177 113.018 145.859 107.19 137.966 102.446C128.206 106.967 118.719 112.056 109.554 117.687C99.4564 133.447 84.2156 147.918 71.3941 154.822ZM143.439 100.017C149.888 104.175 155.891 109.064 160.855 114.753C164.993 110.264 174.926 98.9169 180.559 87.65C167.313 90.6992 154.776 95.113 143.439 100.017ZM119.981 93.6484C119.816 94.4631 119.626 95.2979 119.416 96.1477C118.366 100.342 116.697 104.65 114.557 108.949C120.469 105.568 126.501 102.404 132.642 99.4618C128.531 97.2944 124.304 95.3537 119.981 93.6484ZM96.2323 81.4017C101.786 82.4914 108.629 84.2709 115.932 86.8302C116.692 77.6178 114.202 71.9743 112.698 69.475C105.82 73.064 99.7963 78.1126 96.2323 81.4017Z" fill="#B71C1C"/>
<path d="M96.2424 105.534C96.2424 127.428 77.9974 144.823 64.851 157.519C62.6516 159.669 55.2037 160.019 55.2037 160.019C57.0532 158.119 59.1526 156.12 61.402 153.97C73.8985 141.874 91.2438 125.328 91.2438 105.534C91.2438 82.09 81.7964 72.8426 74.3484 65.4446C71.0493 62.0955 68.2501 58.8964 66.5506 54.9975L68.1001 54.3477C69.7997 55.0975 71.7491 55.9472 73.2487 56.597C74.4484 58.3466 76.0479 60.0461 77.8974 61.8956C85.5453 69.5435 96.2424 80.0406 96.2424 105.534Z" fill="#B71C1C"/>
<path d="M220.633 112.003C220.633 112.003 217.609 112.433 216.759 112.533C172.971 117.382 127.784 129.979 101.941 140.326C92.5933 144.075 82.896 148.623 74.0484 153.722C73.9985 153.772 73.9485 153.772 73.8485 153.822C68.6499 156.821 56.0034 163.019 45.7562 168.468C60.7521 152.522 88.8444 140.226 100.041 135.727C125.384 125.58 168.922 113.333 211.761 108.085C206.712 102.186 194.365 89.6896 170.072 80.3922C155.876 74.8937 134.282 71.7945 115.237 69.0453C84.9454 64.6965 67.7002 61.7973 66.0506 53.5495C65.7007 51.9 65.9507 50.2504 66.7005 48.6509C68.35 51.3501 70.6994 53.2496 72.2489 54.3493C72.9987 54.8492 73.5486 55.1491 73.7485 55.2491L73.7985 55.2991C80.8966 59.048 100.041 61.7973 115.987 64.0966C135.282 66.8959 157.126 70.045 171.872 75.6934C206.212 88.9398 218.059 107.885 218.559 108.684C219.009 109.434 220.633 112.003 220.633 112.003Z" fill="#B71C1C"/>
</svg>
