<svg width="256" height="256" viewBox="0 0 256 256" fill="none" xmlns="http://www.w3.org/2000/svg">
<rect width="256" height="256" fill="#232932"/>
<path fill-rule="evenodd" clip-rule="evenodd" d="M123.652 28C108.591 28.644 94.3924 32.6154 81.772 39.1993L123.652 111.737V28ZM123.652 144.267L81.7742 216.802C94.3939 223.385 108.592 227.356 123.652 228V144.267ZM132.356 227.999V144.219L174.253 216.788C161.629 223.378 147.424 227.355 132.356 227.999ZM132.356 111.785V28C147.424 28.6454 161.63 32.6227 174.255 39.2125L132.356 111.785ZM43.5721 181.786L116.124 139.897L74.2401 212.445C61.9108 204.575 51.4451 194.113 43.5721 181.786ZM212.443 74.2381L139.904 116.119L181.788 43.5729C194.113 51.4455 204.575 61.9101 212.443 74.2381ZM43.564 74.2271C51.4374 61.8953 61.9052 51.4287 74.2379 43.5568L116.137 116.127L43.564 74.2271ZM39.2051 81.7612C32.6168 94.3875 28.6418 108.595 28 123.665H111.785L39.2051 81.7612ZM39.2124 174.253C32.6242 161.632 28.6483 147.432 28.0015 132.368H111.758L39.2124 174.253ZM144.241 123.665H228C227.358 108.599 223.386 94.3956 216.801 81.7722L144.241 123.665ZM216.793 174.242L144.268 132.368H227.999C227.352 147.427 223.378 161.624 216.793 174.242ZM139.915 139.906L181.786 212.428C194.108 204.559 204.567 194.098 212.434 181.775L139.915 139.906Z" fill="white"/>
</svg>
