<svg width="256" height="256" viewBox="0 0 256 256" fill="none" xmlns="http://www.w3.org/2000/svg">
<rect width="256" height="256" fill="#232932"/>
<path d="M80.6718 100.938C80.8116 81.9023 88.361 63.6691 101.719 50.106H101.694L50.1231 101.677H50.1477C49.9558 101.828 49.7749 101.992 49.6062 102.169C37.0643 114.695 29.4601 131.324 28.1895 149.003C26.919 166.683 32.0672 184.228 42.6892 198.419L94.7771 146.331L95.3186 145.814C85.6105 132.886 80.4597 117.104 80.6718 100.938Z" fill="#0C8C5E"/>
<path d="M205.895 154.306C196.024 163.979 183.634 170.685 170.138 173.657C156.641 176.63 142.581 175.75 129.56 171.119C122.617 168.655 116.092 165.143 110.211 160.707L109.67 161.248L57.5816 213.311C71.7778 223.907 89.3135 229.039 106.982 227.769C124.651 226.498 141.272 218.911 153.807 206.394L154.323 205.877L205.895 154.306Z" fill="#0C8C5E"/>
<path d="M228 101.677V28H154.324C144.648 27.9904 135.065 29.8927 126.126 33.5974C117.187 37.3021 109.068 42.7367 102.236 49.5887L101.719 50.1056C92.7131 59.2482 86.2695 70.5983 83.0349 83.0174C88.8902 81.5012 94.9075 80.6994 100.956 80.6297C117.123 80.4392 132.899 85.5973 145.831 95.301C157.454 103.969 166.25 115.883 171.112 129.542C176.067 143.503 176.718 158.63 172.983 172.965C185.404 169.736 196.755 163.292 205.895 154.281L206.412 153.789C213.267 146.954 218.703 138.831 222.408 129.888C226.112 120.944 228.013 111.357 228 101.677Z" fill="#18E299"/>
</svg>
