<svg width="256" height="256" viewBox="0 0 256 256" fill="none" xmlns="http://www.w3.org/2000/svg">
<rect width="256" height="256" fill="#242932"/>
<path d="M56.5667 56.3333H85.1416V84.8999H56.5667V56.3333ZM170.85 56.3333H199.433V84.8999H170.85V56.3333Z" fill="#FFD700"/>
<path d="M56.5667 84.8999H113.708V113.475H56.575L56.5667 84.8999ZM142.283 84.8999H199.425V113.475H142.283V84.8999Z" fill="#FFAF00"/>
<path d="M56.5667 113.483H199.433V142.05H56.5667V113.483Z" fill="#FF8205"/>
<path d="M56.5667 142.05H85.1416V170.617H56.5667V142.05ZM113.717 142.05H142.292V170.617H113.717V142.05ZM170.85 142.05H199.433V170.617H170.85V142.05Z" fill="#FA500F"/>
<path d="M28 170.617H113.717V199.192H28V170.617ZM142.283 170.617H228V199.192H142.283V170.617Z" fill="#E10500"/>
</svg>
