<svg width="256" height="256" viewBox="0 0 256 256" fill="none" xmlns="http://www.w3.org/2000/svg">
<rect width="256" height="256" fill="#242932"/>
<path d="M56.5669 56.3333H85.1419V84.8999H56.5669V56.3333ZM170.85 56.3333H199.434V84.8999H170.85V56.3333Z" fill="#FFD700"/>
<path d="M56.5669 84.8999H113.709V113.475H56.5752L56.5669 84.8999ZM142.284 84.8999H199.425V113.475H142.284V84.8999Z" fill="#FFAF00"/>
<path d="M56.5669 113.483H199.434V142.05H56.5669V113.483Z" fill="#FF8205"/>
<path d="M56.5669 142.05H85.1419V170.617H56.5669V142.05ZM113.717 142.05H142.292V170.617H113.717V142.05ZM170.85 142.05H199.434V170.617H170.85V142.05Z" fill="#FA500F"/>
<path d="M28 170.617H113.717V199.192H28V170.617ZM142.283 170.617H228V199.192H142.283V170.617Z" fill="#E10500"/>
</svg>
