<svg width="256" height="256" viewBox="0 0 256 256" fill="none" xmlns="http://www.w3.org/2000/svg">
<g clip-path="url(#clip0_23_522)">
<rect width="256" height="256" fill="#242932"/>
<g clip-path="url(#clip1_23_522)">
<path d="M144.8 50.2615C136.441 40.3158 129.243 30.2141 127.772 28.1165C127.737 28.0797 127.695 28.0504 127.649 28.0304C127.602 28.0103 127.552 28 127.501 28C127.45 28 127.4 28.0103 127.354 28.0304C127.307 28.0504 127.265 28.0797 127.23 28.1165C125.76 30.2145 118.561 40.3158 110.202 50.2615C38.4511 142.027 121.503 203.955 121.503 203.955L122.199 204.422C122.818 213.979 124.366 227.733 124.366 227.733H130.559C130.559 227.733 132.106 214.057 132.725 204.422L133.422 203.878C133.5 203.956 216.551 142.027 144.8 50.2615ZM127.462 202.557C127.462 202.557 123.747 199.371 122.741 197.74V197.584L127.23 97.6597C127.23 97.3489 127.695 97.3489 127.695 97.6597L132.184 197.584V197.74C131.178 199.371 127.462 202.557 127.462 202.557V202.557Z" fill="#01EC64"/>
</g>
</g>
<defs>
<clipPath id="clip0_23_522">
<rect width="256" height="256" fill="white"/>
</clipPath>
<clipPath id="clip1_23_522">
<rect width="93" height="200" fill="white" transform="translate(81 28)"/>
</clipPath>
</defs>
</svg>
