<svg width="256" height="256" viewBox="0 0 256 256" fill="none" xmlns="http://www.w3.org/2000/svg">
<rect width="256" height="256" fill="#232932"/>
<path fill-rule="evenodd" clip-rule="evenodd" d="M128 228C183.225 228 228 183.225 228 128C228 72.775 183.225 28 128 28C72.775 28 28 72.775 28 128C28 183.225 72.775 228 128 228ZM128 198.308C172.875 198.308 209.25 166.833 209.25 128C209.25 89.1667 172.875 57.6833 128 57.6833C83.125 57.6833 46.75 89.1667 46.75 128C46.75 166.833 83.125 198.308 128 198.308Z" fill="white"/>
<path fill-rule="evenodd" clip-rule="evenodd" d="M163.058 112.958C163.792 112.178 164.675 111.552 165.655 111.12C166.635 110.687 167.692 110.455 168.763 110.439C169.835 110.422 170.898 110.621 171.891 111.024C172.884 111.426 173.786 112.024 174.544 112.781C175.301 113.539 175.899 114.441 176.301 115.434C176.703 116.426 176.902 117.49 176.886 118.561C176.869 119.632 176.638 120.689 176.205 121.67C175.772 122.65 175.147 123.533 174.367 124.267L165.083 133.55L177.358 140.633C178.297 141.143 179.124 141.836 179.791 142.67C180.458 143.505 180.951 144.465 181.241 145.493C181.53 146.521 181.611 147.597 181.479 148.657C181.346 149.717 181.002 150.74 180.468 151.665C179.934 152.59 179.219 153.399 178.368 154.043C177.516 154.688 176.543 155.155 175.508 155.418C174.472 155.681 173.395 155.733 172.338 155.573C171.282 155.412 170.269 155.042 169.358 154.483L148.992 142.725C148.786 142.606 148.586 142.478 148.392 142.342C147.28 141.759 146.321 140.924 145.591 139.902C144.861 138.881 144.381 137.703 144.19 136.463C143.998 135.223 144.101 133.955 144.489 132.761C144.877 131.568 145.54 130.482 146.425 129.592L163.058 112.958ZM92.0665 110.808C88.7513 110.808 85.5719 112.125 83.2277 114.469C80.8835 116.814 79.5665 119.993 79.5665 123.308V142.058C79.5665 145.373 80.8835 148.553 83.2277 150.897C85.5719 153.241 88.7513 154.558 92.0665 154.558C95.3817 154.558 98.5612 153.241 100.905 150.897C103.25 148.553 104.567 145.373 104.567 142.058V123.308C104.567 119.993 103.25 116.814 100.905 114.469C98.5612 112.125 95.3817 110.808 92.0665 110.808Z" fill="white"/>
</svg>
