<svg width="256" height="256" viewBox="0 0 256 256" fill="none" xmlns="http://www.w3.org/2000/svg">
<rect width="256" height="256" fill="#F8EB2F"/>
<g clip-path="url(#clip0_88_260)">
<path d="M102.292 91L60.8 163.936H23L55.3986 106.985C60.4209 98.1566 72.9539 91 83.3922 91H102.292ZM194.988 109.234C194.988 99.1635 203.45 91 213.888 91C224.327 91 232.788 99.1635 232.788 109.234C232.788 119.304 224.327 127.468 213.888 127.468C203.45 127.468 194.988 119.304 194.988 109.234ZM109.38 91H147.18L105.687 163.936H67.8875L109.38 91ZM154.025 91H191.825L159.426 147.951C154.404 156.779 141.87 163.936 131.432 163.936H112.532L154.025 91Z" fill="#010101"/>
</g>
<defs>
<clipPath id="clip0_88_260">
<rect width="210" height="73" fill="white" transform="translate(23 91)"/>
</clipPath>
</defs>
</svg>
