<svg width="256" height="256" viewBox="0 0 256 256" fill="none" xmlns="http://www.w3.org/2000/svg">
<rect width="256" height="256" fill="#0074E6"/>
<path d="M196.575 162.608C197.411 162.113 198.11 161.417 198.608 160.583C199.086 159.735 199.344 158.781 199.358 157.808L199.458 125.658C199.473 124.685 199.731 123.731 200.208 122.883C200.709 122.049 201.411 121.352 202.25 120.858L219.667 110.833C220.516 110.362 221.47 110.11 222.442 110.1C223.415 110.115 224.369 110.372 225.217 110.85C226.052 111.345 226.751 112.041 227.25 112.875C227.725 113.724 227.98 114.678 227.992 115.65V174.1C227.988 175.077 227.729 176.036 227.239 176.881C226.749 177.726 226.046 178.428 225.2 178.917L159.425 216.7C158.584 217.178 157.634 217.429 156.667 217.429C155.7 217.429 154.749 217.178 153.908 216.7L102.292 187.183C101.442 186.697 100.735 185.996 100.242 185.15C99.7509 184.301 99.4923 183.339 99.4917 182.358V152.883C99.4972 152.844 99.5194 152.833 99.5583 152.85C99.6139 152.867 99.6361 152.853 99.625 152.808V152.775C99.625 152.753 99.6361 152.733 99.6583 152.717L142.175 128.3C142.208 128.275 142.192 128.217 142.15 128.217L142.117 128.2L142.108 128.167L142.192 99.275C142.193 98.2969 141.937 97.3356 141.45 96.4873C140.963 95.6391 140.262 94.9337 139.417 94.4417C138.571 93.9563 137.613 93.7009 136.637 93.7009C135.662 93.7009 134.704 93.9563 133.858 94.4417L102.267 112.658C101.423 113.141 100.468 113.394 99.4958 113.394C98.5239 113.394 97.5688 113.141 96.725 112.658L65.025 94.4084C64.1807 93.9238 63.2241 93.6695 62.2506 93.6709C61.2772 93.6722 60.3212 93.9292 59.4783 94.416C58.6354 94.9029 57.9351 95.6025 57.4476 96.445C56.96 97.2875 56.7022 98.2433 56.7 99.2167V151.442C56.6978 152.415 56.4414 153.37 55.9561 154.214C55.4708 155.057 54.7735 155.759 53.9333 156.25C53.0878 156.726 52.1369 156.984 51.1667 157C50.195 156.991 49.2412 156.738 48.3917 156.267L30.8 146.208C29.9502 145.722 29.2432 145.021 28.75 144.175C28.2579 143.324 27.9991 142.358 28 141.375L28.1583 50.1C28.1614 49.1278 28.4193 48.1734 28.9065 47.3321C29.3936 46.4908 30.0929 45.7919 30.9346 45.3053C31.7762 44.8187 32.7308 44.5614 33.703 44.559C34.6752 44.5566 35.631 44.8092 36.475 45.2917L96.725 79.9C97.5688 80.3824 98.5239 80.6361 99.4958 80.6361C100.468 80.6361 101.423 80.3824 102.267 79.9L162.5 45.2917C163.349 44.8199 164.303 44.5679 165.275 44.5583C166.248 44.573 167.202 44.8308 168.05 45.3083C168.887 45.8058 169.586 46.5048 170.083 47.3417C170.555 48.1912 170.807 49.145 170.817 50.1167V141.417C170.817 142.392 170.567 143.35 170.075 144.2C169.584 145.045 168.88 145.746 168.033 146.233L136.492 164.4C135.644 164.89 134.94 165.594 134.45 166.442C133.964 167.289 133.708 168.248 133.708 169.225C133.71 170.202 133.969 171.162 134.458 172.008C134.954 172.855 135.664 173.557 136.517 174.042L153.917 183.95C154.759 184.415 155.704 184.664 156.667 184.675C157.636 184.662 158.587 184.407 159.433 183.933L196.575 162.608ZM200.225 80.7084C200.226 81.6886 200.484 82.6514 200.975 83.5C201.473 84.3479 202.186 85.0494 203.042 85.5334C203.896 86.0133 204.862 86.2598 205.842 86.2481C206.822 86.2364 207.782 85.9669 208.625 85.4667L225.3 75.4667C226.114 74.9639 226.793 74.2685 227.275 73.4417C227.739 72.6013 227.988 71.6596 228 70.7V50.3333C227.997 49.3523 227.735 48.3895 227.242 47.5417C226.744 46.696 226.032 45.9966 225.177 45.5138C224.323 45.031 223.356 44.7819 222.375 44.7917C221.395 44.8039 220.435 45.074 219.592 45.575L202.925 55.575C202.107 56.0767 201.426 56.7722 200.942 57.6C200.481 58.4411 200.235 59.3828 200.225 60.3417V80.7084Z" fill="white"/>
</svg>
