<svg width="256" height="256" viewBox="0 0 256 256" fill="none" xmlns="http://www.w3.org/2000/svg">
<g clip-path="url(#clip0_23_479)">
<rect width="256" height="256" fill="white"/>
<rect width="256" height="256" fill="#3D6E94"/>
<mask id="mask0_23_479" style="mask-type:luminance" maskUnits="userSpaceOnUse" x="38" y="38" width="180" height="180">
<path d="M38 38H218V218H38V38Z" fill="white"/>
</mask>
<g mask="url(#mask0_23_479)">
<path fill-rule="evenodd" clip-rule="evenodd" d="M203.801 178.21C194.011 177.938 186.416 178.941 180.051 181.619C178.218 182.355 175.277 182.355 175.035 184.662C176.015 185.63 176.133 187.214 176.992 188.556C178.459 190.991 181.033 194.271 183.357 195.973L191.191 201.571C195.965 204.488 201.351 206.193 206.002 209.113C208.696 210.817 211.388 213.007 214.082 214.834C215.454 215.807 216.285 217.392 218 217.997V217.629C217.144 216.538 216.897 214.957 216.044 213.735L212.367 210.209C208.82 205.465 204.41 201.325 199.636 197.922C195.718 195.245 187.152 191.596 185.56 187.097L185.319 186.824C188.008 186.552 191.191 185.605 193.764 184.875C197.929 183.784 201.721 184.024 206.002 182.93L211.882 181.226V180.135C209.678 177.946 208.087 175.025 205.763 172.959C199.521 167.606 192.661 162.373 185.56 157.994C181.766 155.562 176.868 153.977 172.829 151.913C171.356 151.182 168.911 150.817 168.055 149.601C165.846 146.929 164.625 143.397 163.034 140.232L152.997 119.064C150.794 114.319 149.444 109.574 146.755 105.195C134.144 84.5119 120.431 71.9829 99.375 59.6929C94.848 57.1379 89.462 56.0389 83.735 54.7029L74.555 54.2129C72.593 53.3619 70.636 51.0489 68.922 49.9529C61.944 45.5729 43.948 36.0849 38.802 48.5899C35.497 56.4969 43.701 64.2819 46.486 68.2989C48.571 71.0969 51.26 74.2589 52.733 77.4229C53.556 79.4899 53.831 81.6819 54.69 83.8719C56.646 89.2239 58.484 95.1879 61.055 100.178C62.427 102.733 63.868 105.413 65.582 107.723C66.562 109.086 68.277 109.67 68.642 111.859C66.927 114.294 66.809 117.94 65.829 120.986C61.42 134.734 63.135 151.766 69.377 161.888C71.339 164.928 75.962 171.622 82.235 169.065C87.744 166.875 86.515 159.941 88.106 153.857C88.476 152.399 88.23 151.425 88.962 150.449V150.722L93.983 160.819C97.778 166.78 104.391 172.986 109.897 177.125C112.833 179.315 115.16 183.089 118.831 184.425V184.057H118.59C117.854 182.966 116.751 182.475 115.772 181.624C113.569 179.435 111.121 176.757 109.406 174.325C104.267 167.513 99.74 159.968 95.698 152.183C93.737 148.412 92.022 144.275 90.436 140.504C89.695 139.043 89.695 136.85 88.474 136.125C86.635 138.797 83.947 141.115 82.594 144.398C80.267 149.628 80.026 156.077 79.17 162.769C78.676 162.891 78.895 162.769 78.676 163.041C74.763 162.071 73.413 158.051 71.946 154.648C68.274 146.01 67.659 132.141 70.842 122.164C71.698 119.609 75.375 111.579 73.907 109.146C73.167 106.834 70.724 105.498 69.374 103.671C67.783 101.359 66.074 98.4409 64.971 95.8859C62.035 89.0689 60.567 81.5289 57.381 74.7159C55.908 71.5519 53.34 68.2659 51.257 65.3489C48.93 62.0629 46.365 59.7499 44.527 55.8589C43.915 54.4959 43.059 52.3309 44.038 50.8689C44.28 49.8959 44.773 49.5059 45.748 49.2879C47.338 47.9239 51.872 49.6529 53.463 50.3779C57.99 52.2049 61.785 53.9069 65.58 56.4589C67.295 57.6749 69.133 59.9879 71.336 60.5989H73.91C77.828 61.4489 82.232 60.8709 85.9 61.9619C92.39 64.0339 98.264 67.0719 103.532 70.3599C119.567 80.4579 132.792 94.8139 141.725 111.971C143.193 114.769 143.805 117.324 145.155 120.244C147.729 126.208 150.912 132.289 153.477 138.132C156.051 143.85 158.498 149.694 162.17 154.438C164.008 156.993 171.35 158.329 174.654 159.668C177.104 160.759 180.896 161.741 183.105 163.077C187.264 165.632 191.427 168.552 195.342 171.35C197.298 172.806 203.423 175.849 203.787 178.276L203.801 178.21ZM78.958 72.4869C77.2671 72.4724 75.5815 72.6767 73.943 73.0949V73.3679H74.184C75.164 75.3149 76.879 76.6539 78.102 78.3579L80.92 84.1979L81.162 83.9259C82.876 82.7099 83.735 80.7629 83.735 77.8459C83 76.9949 82.879 76.1409 82.267 75.2899C81.532 74.0739 79.941 73.4629 78.958 72.4929V72.4869Z" fill="white"/>
</g>
</g>
<defs>
<clipPath id="clip0_23_479">
<rect width="256" height="256" fill="white"/>
</clipPath>
</defs>
</svg>
