<svg width="256" height="256" viewBox="0 0 256 256" fill="none" xmlns="http://www.w3.org/2000/svg">
<rect width="256" height="256" fill="#232932"/>
<g clip-path="url(#clip0_262_49)">
<path d="M33 65.7594C33 47.6671 47.6671 33 65.7594 33H190.24C208.333 33 223 47.6671 223 65.7594V171.632C223 190.347 199.313 198.469 187.829 183.697L151.913 137.495V193.518C151.913 209.801 138.714 223 122.432 223H65.7587C47.6679 223 33 208.333 33 190.241V65.7594ZM65.7594 59.2096C62.1383 59.2096 59.2096 62.1383 59.2096 65.7542V190.241C59.2096 193.862 62.1383 196.796 65.7542 196.796H123.413C125.224 196.796 125.704 195.328 125.704 193.518V118.394C125.704 99.6744 149.391 91.5519 160.88 106.33L196.796 152.526V65.7602C196.796 62.139 197.133 59.2104 193.518 59.2104H65.7602L65.7594 59.2096Z" fill="#00E0D9"/>
<path d="M33 65.7594C33 47.6671 47.6671 33 65.7594 33H190.24C208.333 33 223 47.6671 223 65.7594V171.632C223 190.347 199.313 198.469 187.829 183.697L151.913 137.495V193.518C151.913 209.801 138.714 223 122.432 223H65.7587C47.6679 223 33 208.333 33 190.241V65.7594ZM65.7594 59.2096C62.1383 59.2096 59.2096 62.1383 59.2096 65.7542V190.241C59.2096 193.862 62.1383 196.796 65.7542 196.796H123.413C125.224 196.796 125.704 195.328 125.704 193.518V118.394C125.704 99.6744 149.391 91.5519 160.88 106.33L196.796 152.526V65.7602C196.796 62.139 197.133 59.2104 193.518 59.2104H65.7602L65.7594 59.2096Z" fill="url(#paint0_linear_262_49)"/>
<path d="M33 65.7594C33 47.6671 47.6671 33 65.7594 33H190.24C208.333 33 223 47.6671 223 65.7594V171.632C223 190.347 199.313 198.469 187.829 183.697L151.913 137.495V193.518C151.913 209.801 138.714 223 122.432 223H65.7587C47.6679 223 33 208.333 33 190.241V65.7594ZM65.7594 59.2096C62.1383 59.2096 59.2096 62.1383 59.2096 65.7542V190.241C59.2096 193.862 62.1383 196.796 65.7542 196.796H123.413C125.224 196.796 125.704 195.328 125.704 193.518V118.394C125.704 99.6744 149.391 91.5519 160.88 106.33L196.796 152.526V65.7602C196.796 62.139 197.133 59.2104 193.518 59.2104H65.7602L65.7594 59.2096Z" fill="url(#paint1_linear_262_49)" fill-opacity="0.4"/>
<path d="M190.241 33C208.333 33 223 47.6671 223 65.7594V171.632C223 190.347 199.313 198.469 187.829 183.697L151.913 137.495V193.518C151.913 209.801 138.714 223 122.432 223C123.3 223 124.132 222.655 124.746 222.042C125.36 221.428 125.704 220.596 125.704 219.728V118.395C125.704 99.6744 149.391 91.5519 160.88 106.33L196.796 152.526V39.5498C196.796 35.9346 193.862 33 190.241 33Z" fill="#63F655"/>
</g>
<defs>
<linearGradient id="paint0_linear_262_49" x1="19033" y1="19033" x2="2326.11" y2="32.9997" gradientUnits="userSpaceOnUse">
<stop stop-color="#62F755"/>
<stop offset="1" stop-color="#8FF986" stop-opacity="0"/>
</linearGradient>
<linearGradient id="paint1_linear_262_49" x1="19033" y1="19033" x2="7747.57" y2="14643.4" gradientUnits="userSpaceOnUse">
<stop stop-opacity="0.9"/>
<stop offset="1" stop-color="#1A1A1A" stop-opacity="0"/>
</linearGradient>
<clipPath id="clip0_262_49">
<rect width="190" height="190" fill="white" transform="translate(33 33)"/>
</clipPath>
</defs>
</svg>
