<svg width="256" height="256" viewBox="0 0 256 256" fill="none" xmlns="http://www.w3.org/2000/svg">
<g clip-path="url(#clip0_17_401)">
<rect width="256" height="256" fill="white"/>
<rect width="256" height="256" fill="#0E0E10"/>
<path d="M145.762 26C144.316 26 142.973 26.3178 141.734 26.7425C144.368 28.5443 145.814 30.9297 146.537 33.6329C146.589 34.0036 146.692 34.2685 146.743 34.6392C146.795 34.958 146.847 35.2758 146.847 35.5936C147.054 40.2584 145.659 40.8411 144.678 43.5972C143.18 47.1488 143.593 50.9643 145.401 54.0392C145.556 54.41 145.762 54.8337 146.02 55.2054C144.058 41.7954 154.956 39.7808 156.971 35.5936C157.125 31.936 154.181 29.4977 151.857 27.8018C149.636 26.4237 147.621 26 145.762 26ZM162.187 29.021C161.98 30.2402 162.135 29.9224 162.084 30.558C162.032 30.9826 162.032 31.5123 161.98 31.9361C161.883 32.3667 161.762 32.7917 161.619 33.2091C161.516 33.6329 161.36 34.0566 161.206 34.4803C160.999 34.905 160.845 35.2758 160.637 35.6995C160.483 35.9114 160.379 36.1233 160.225 36.336L159.914 36.8128C159.656 37.1845 159.398 37.5552 159.139 37.8721C158.83 38.1908 158.572 38.5616 158.21 38.8264V38.8803C157.9 39.1452 157.59 39.463 157.229 39.7278C156.145 40.5762 154.905 41.2118 153.768 42.0073C153.407 42.2721 153.045 42.484 152.735 42.8018C152.374 43.0675 152.064 43.3314 151.754 43.6502C151.392 43.968 151.134 44.2858 150.825 44.6575C150.566 44.9753 150.256 45.3461 150.05 45.7168C149.791 46.0885 149.533 46.4602 149.327 46.8301C149.119 47.2547 148.965 47.6255 148.758 48.0492C148.604 48.4739 148.448 48.8447 148.345 49.2684C148.19 49.7461 148.087 50.1698 147.984 50.5935C147.932 50.8054 147.932 51.0712 147.88 51.283C147.829 51.4949 147.829 51.7068 147.777 51.9186C147.777 52.3424 147.726 52.82 147.726 53.2438C147.726 53.5616 147.726 53.8803 147.777 54.1981C147.777 54.6218 147.829 55.0456 147.932 55.5232C147.984 55.9469 148.087 56.3707 148.19 56.7954C148.345 57.2191 148.448 57.6428 148.604 58.0675C148.707 58.3323 148.862 58.5972 148.965 58.809L137.086 54.0922C135.102 53.5129 133.104 52.9828 131.094 52.5022L127.84 51.7068C124.732 51.0712 121.595 50.5936 118.439 50.2757C118.336 50.2757 118.285 50.2228 118.181 50.2228C115.109 49.9053 112.024 49.7459 108.936 49.7451C106.663 49.7451 104.391 49.8511 102.17 50.0109C99.0198 50.2228 95.8687 50.6465 92.7176 51.1771C91.9426 51.283 91.1686 51.4419 90.3936 51.6008C88.7925 51.9186 87.2434 52.2894 85.7445 52.6602L83.4214 53.2967C82.6455 53.6145 81.9225 53.9862 81.2005 54.304L79.4953 55.0985C79.3922 55.1515 79.289 55.1515 79.237 55.2045C78.7203 55.4702 78.2557 55.6821 77.7911 55.9469C77.6667 55.9913 77.5456 56.0444 77.4287 56.1058C76.8618 56.3707 76.2931 56.6885 75.8285 56.9543C75.4661 57.1122 75.1046 57.325 74.7952 57.4839C74.64 57.5899 74.4328 57.6958 74.3306 57.7488C73.8659 58.0145 73.4013 58.2784 72.9869 58.5442C72.5222 58.8087 72.109 59.0736 71.7472 59.3387C71.3858 59.6045 71.0243 59.8163 70.7148 60.0812C70.6628 60.1341 70.6117 60.1341 70.5597 60.1871C70.2502 60.399 69.8887 60.6638 69.5784 60.9296L69.4752 61.0355L68.7002 61.6711C68.598 61.7241 68.4939 61.83 68.3908 61.883C68.1325 62.0949 67.8741 62.3606 67.6158 62.5725C67.5638 62.6784 67.4606 62.7305 67.4095 62.7844C67.0991 63.1022 66.7897 63.367 66.4802 63.6857C66.4273 63.6857 66.4273 63.7387 66.3762 63.7917C66.0658 64.0565 65.7564 64.3743 65.4469 64.693C65.3949 64.7451 65.3949 64.7981 65.3428 64.7981C65.0845 65.0629 64.8271 65.3277 64.5688 65.6465C64.4656 65.7524 64.3105 65.8583 64.2064 65.9643C63.949 66.2821 63.6395 66.6008 63.3292 66.9186C63.2771 67.0245 63.174 67.0775 63.1219 67.1834C62.7094 67.6072 62.3469 68.0318 61.9344 68.4556L61.7792 68.6145C60.9521 69.5159 60.0749 70.4172 59.1447 71.2117C58.2155 72.0601 57.2342 72.8547 56.2529 73.5442C55.2523 74.2639 54.2181 74.9359 53.1539 75.5578C52.1004 76.1496 51.0139 76.6805 49.8996 77.1478C48.8022 77.6274 47.6817 78.0522 46.5423 78.4209C44.3734 78.8976 42.1525 79.798 40.2419 79.9569C39.8275 79.9569 39.3629 80.0628 38.9503 80.1167C38.4857 80.2227 38.0721 80.3286 37.6586 80.4345L36.419 80.9113C36.0055 81.0702 35.592 81.283 35.1794 81.4948C34.817 81.7597 34.4044 81.9715 34.0429 82.2364C33.6747 82.5081 33.3294 82.8095 33.0105 83.1377C32.6481 83.4026 32.2866 83.7733 31.9772 84.0911C31.6668 84.4628 31.3574 84.7806 31.099 85.1514C30.8407 85.5761 30.5313 85.9469 30.3241 86.3706C30.0657 86.7423 29.8074 87.166 29.6011 87.5898C29.3948 88.0665 29.1876 88.4911 29.0333 88.9679C28.8781 89.3916 28.723 89.8692 28.5687 90.3459C28.4646 90.7697 28.3615 91.1943 28.3104 91.6181C28.3104 91.671 28.2583 91.724 28.2583 91.777C28.1552 92.2546 28.1552 92.8902 28.1031 93.208C28.0511 93.5797 28 93.8975 28 94.2683C28 94.4802 28 94.745 28.052 94.9578C28.1031 95.3286 28.1543 95.6464 28.2583 95.9642C28.3615 96.2829 28.4656 96.6007 28.6207 96.9185V96.9715C28.775 97.2893 28.9813 97.6071 29.1876 97.9258C29.3948 98.2436 29.6011 98.5614 29.8594 98.8792C30.1178 99.145 30.4281 99.4628 30.7376 99.7276C31.0393 100.038 31.3677 100.322 31.7189 100.576C32.9585 101.688 33.2688 102.06 34.869 102.908C35.1283 103.067 35.3857 103.173 35.696 103.332C35.7481 103.332 35.7992 103.385 35.8512 103.385C35.8512 103.491 35.8512 103.544 35.9023 103.65C35.9544 104.074 36.0575 104.498 36.1607 104.922C36.2638 105.399 36.419 105.824 36.5742 106.194C36.7294 106.512 36.8325 106.83 36.9877 107.149C37.0388 107.255 37.0899 107.36 37.142 107.413C37.3492 107.837 37.5555 108.208 37.7618 108.58L38.5368 109.693C38.7951 110.011 39.1055 110.381 39.4149 110.699C39.7253 111.018 40.0347 111.283 40.3962 111.601C40.3962 111.601 40.4482 111.654 40.4993 111.654C40.8097 111.918 41.1192 112.184 41.4286 112.396C41.791 112.661 42.1525 112.873 42.566 113.085C42.9458 113.31 43.3429 113.505 43.7536 113.668C44.063 113.827 44.4245 113.933 44.7869 114.039C44.838 114.092 44.8891 114.092 44.9932 114.145C45.1995 114.198 45.4578 114.251 45.665 114.304C45.5099 117.166 45.4578 119.869 45.8713 120.823C46.336 121.884 48.6089 118.65 50.8819 114.939C50.5715 118.597 50.3652 122.89 50.8819 124.162C51.4487 125.487 54.5487 121.353 57.2342 116.795C93.8541 108.102 127.272 134.075 130.784 170.753C130.113 165.028 123.243 161.848 120.092 162.643C118.543 166.565 115.909 171.6 111.673 174.727C112.036 171.23 111.881 167.625 111.158 164.127C110.021 169.003 107.8 173.562 104.752 177.484C99.8459 177.855 94.9395 175.417 92.3561 171.759C92.1499 171.6 92.0987 171.283 91.9436 171.071C91.7884 170.699 91.6332 170.328 91.53 169.958C91.3791 169.601 91.275 169.227 91.2206 168.844C91.1686 168.474 91.1686 168.103 91.1686 167.678V166.884C91.2206 166.512 91.3238 166.141 91.4269 165.77C91.5291 165.4 91.6332 165.028 91.7884 164.657C91.9947 164.286 92.1499 163.916 92.4082 163.544C93.2863 161 93.2863 158.933 91.6852 157.714C91.3757 157.506 91.0471 157.329 90.7039 157.184C90.4967 157.13 90.2393 157.024 90.0321 156.971C89.8769 156.918 89.7738 156.865 89.6195 156.812C89.2571 156.706 88.8956 156.601 88.5341 156.548C88.1822 156.443 87.817 156.389 87.4497 156.389C87.0737 156.328 86.694 156.292 86.3132 156.283C86.0549 156.283 85.7966 156.336 85.5382 156.336C85.1257 156.336 84.7642 156.389 84.4027 156.495C84.0403 156.548 83.6788 156.601 83.3173 156.706C82.9559 156.812 82.5944 156.919 82.2329 157.078C81.8714 157.237 81.562 157.396 81.2005 157.555C80.8901 157.714 80.5798 157.926 80.2183 158.085C68.1845 166.141 75.3639 185.011 83.5757 190.47C80.4766 191.053 77.3265 191.742 76.4483 192.431L76.3452 192.537C78.5661 193.916 80.8901 195.082 83.3183 196.088C86.0846 197.009 88.8745 197.857 91.6852 198.632V198.685C95.9614 199.586 100.339 199.907 104.701 199.64C127.582 197.997 146.331 180.135 149.74 156.601C149.843 157.078 149.946 157.502 150.05 157.979C150.205 158.933 150.411 159.94 150.515 160.947V161.001C150.618 161.477 150.669 161.954 150.721 162.379V162.59C150.773 163.067 150.825 163.545 150.825 163.969C150.877 164.551 150.928 165.135 150.928 165.717V166.566C150.928 166.831 150.98 167.148 150.98 167.413C150.98 167.732 150.928 168.05 150.928 168.368V169.11C150.928 169.481 150.877 169.799 150.877 170.17C150.877 170.382 150.877 170.594 150.825 170.859C150.825 171.23 150.773 171.601 150.773 172.025C150.72 172.184 150.72 172.343 150.72 172.502C150.669 172.927 150.617 173.297 150.566 173.721C150.566 173.88 150.566 174.039 150.514 174.199C150.462 174.728 150.359 175.205 150.308 175.736V175.842C150.205 176.318 150.101 176.849 149.998 177.326V177.485L149.688 178.916C149.688 178.969 149.636 179.074 149.636 179.127C149.539 179.61 149.419 180.088 149.275 180.559V180.718C149.119 181.248 148.964 181.725 148.861 182.202C148.81 182.255 148.81 182.308 148.81 182.308L148.344 183.898C148.138 184.428 147.983 184.906 147.777 185.435C147.57 185.965 147.415 186.495 147.209 186.972C147.002 187.503 146.795 187.979 146.589 188.509H146.537C146.33 188.987 146.123 189.516 145.865 189.993C145.822 190.121 145.771 190.245 145.71 190.365C145.659 190.418 145.659 190.471 145.607 190.524C142.249 197.467 137.292 203.562 131.094 208.333C130.68 208.598 130.267 208.915 129.854 209.234C129.751 209.339 129.596 209.393 129.493 209.499C129.13 209.764 128.769 210.029 128.356 210.294L128.51 210.612H128.563L130.732 210.294H130.783C132.126 210.082 133.47 209.817 134.813 209.552C135.197 209.489 135.577 209.4 135.949 209.287C136.207 209.233 136.414 209.181 136.672 209.127C137.034 209.074 137.395 208.968 137.757 208.915C138.066 208.81 138.376 208.757 138.686 208.651C143.851 207.378 148.861 205.63 153.664 203.562C145.453 215.064 134.451 224.34 121.59 230.435C127.53 230.011 133.47 229.004 139.202 227.308C160.018 221 177.528 206.636 188.012 187.29C185.894 199.534 181.142 211.195 174.118 221.371C179.137 217.972 183.762 214.026 187.909 209.605C199.478 197.202 207.071 181.46 209.654 164.552C211.417 172.946 211.921 181.556 211.151 190.099C248.443 136.725 214.251 81.3889 199.944 66.8136C199.892 66.7077 199.841 66.6538 199.841 66.5478C199.789 66.6017 199.789 66.6017 199.789 66.6538C199.789 66.6008 199.789 66.6008 199.737 66.5478C199.737 67.1844 199.685 67.8209 199.633 68.4565C199.491 69.6441 199.318 70.8281 199.117 72.0072C198.858 73.1734 198.549 74.3396 198.239 75.5058C197.871 76.6527 197.458 77.7842 196.999 78.8976C196.524 79.995 196.008 81.0738 195.45 82.1314C194.881 83.1387 194.261 84.198 193.591 85.1523C192.926 86.1367 192.22 87.0916 191.473 88.0144C190.698 88.9688 189.872 89.8172 189.046 90.6647C188.529 91.1423 188.063 91.566 187.548 91.9898C187.134 92.3615 186.773 92.6793 186.359 93.0491C185.43 93.7925 184.5 94.4802 183.467 95.1167C182.486 95.7532 181.453 96.3898 180.419 96.9194C179.345 97.436 178.26 97.9308 177.166 98.4035C176.066 98.829 174.945 99.2005 173.809 99.5167C172.667 99.8315 171.513 100.097 170.348 100.311C169.16 100.524 167.972 100.63 166.836 100.736C166.009 100.789 165.182 100.842 164.356 100.842C163.169 100.842 161.98 100.736 160.844 100.629C159.656 100.523 158.469 100.364 157.332 100.099C156.144 99.8875 155.008 99.5697 153.872 99.198H153.82C154.956 99.092 156.092 98.9861 157.229 98.7742C158.395 98.5658 159.55 98.3003 160.689 97.9788C161.826 97.6625 162.946 97.291 164.046 96.8655C165.182 96.4418 166.267 95.9121 167.3 95.3815C168.385 94.8519 169.366 94.2692 170.399 93.6327C171.381 92.9441 172.362 92.2546 173.292 91.5131C174.221 90.7709 175.099 89.9758 175.925 89.1277C176.804 88.3322 177.579 87.4318 178.354 86.5304C179.109 85.6016 179.833 84.647 180.522 83.6683C180.626 83.5094 180.73 83.2966 180.833 83.1387C181.351 82.3015 181.851 81.4529 182.331 80.5934C182.899 79.5414 183.416 78.4625 183.88 77.3606C184.346 76.2502 184.76 75.1184 185.119 73.9688C185.481 72.8556 185.739 71.6894 185.998 70.5232C186.205 69.304 186.411 68.1378 186.514 66.9725C186.617 65.7533 186.721 64.5341 186.721 63.367C186.721 62.5195 186.669 61.6721 186.617 60.8236C186.514 59.6045 186.359 58.4383 186.205 57.2721C186 56.0774 185.742 54.8926 185.43 53.7214C185.068 52.6082 184.707 51.4419 184.293 50.3296C183.88 49.2155 183.364 48.1031 182.847 47.0429C182.279 45.9835 181.711 44.9223 181.091 43.9159C180.432 42.9232 179.744 41.9507 179.025 41C178.25 40.0986 177.475 39.1981 176.649 38.2968C176.236 37.873 175.771 37.3954 175.307 36.9726C172.995 35.1312 170.599 33.3978 168.127 31.7781C167.794 31.5802 167.449 31.4032 167.094 31.2484C165.39 30.1342 163.789 29.5516 162.187 29.0219" fill="#E0234E"/>
</g>
<defs>
<clipPath id="clip0_17_401">
<rect width="256" height="256" fill="white"/>
</clipPath>
</defs>
</svg>
