<svg width="256" height="256" viewBox="0 0 256 256" fill="none" xmlns="http://www.w3.org/2000/svg">
<rect width="256" height="256" fill="#242932"/>
<path d="M121.244 40L120.1 41.144V82.2845L121.244 83.4465H134.99L136.125 82.2755V41.153L134.99 40.009L121.244 40ZM80.1665 69.0334L70.7349 78.447V80.3387L85.148 94.7518H95.1291L96.4623 93.4186V83.4465L82.0492 69.0334H80.1665ZM29.144 119.975L28 121.119V134.883L29.144 136.027H84.004L85.148 134.883V121.119L84.004 119.975H29.144ZM171.996 119.975L170.852 121.119V134.883L171.996 136.027H226.856L228 134.883V121.119L226.856 119.975H171.996ZM85.157 161.232L70.7439 175.645V177.537L80.1575 186.96H82.0492L96.4623 172.547V162.557L95.1291 161.241L85.157 161.232ZM121.235 172.547L120.091 173.718V214.849L121.235 215.993H134.981L136.116 214.849V173.709L134.981 172.547H121.235Z" fill="#35E7E2"/>
<path d="M153.718 156.566H139.999L138.855 155.422V123.308C138.855 117.597 136.612 113.174 129.729 113.02C126.18 112.93 122.127 113.02 117.794 113.192L117.145 113.858V155.386L116.001 156.539H102.291L101.137 155.395V100.571L102.291 99.427H133.144C138.901 99.427 144.423 101.714 148.495 105.786C152.566 109.857 154.853 115.379 154.853 121.137V155.422L153.718 156.566Z" fill="white"/>
</svg>
