<svg width="256" height="256" viewBox="0 0 256 256" fill="none" xmlns="http://www.w3.org/2000/svg">
<rect width="256" height="256" fill="#060B0F"/>
<path d="M121.75 46.6L120.692 47.6583V85.7166L121.75 86.7916H134.467L135.517 85.7083V47.6666L134.467 46.6083L121.75 46.6ZM83.75 73.4583L75.025 82.1666V83.9166L88.3584 97.25H97.5917L98.825 96.0166V86.7916L85.4917 73.4583H83.75ZM36.55 120.583L35.4917 121.642V134.375L36.55 135.433H87.3L88.3584 134.375V121.642L87.3 120.583H36.55ZM168.7 120.583L167.642 121.642V134.375L168.7 135.433H219.45L220.508 134.375V121.642L219.45 120.583H168.7ZM88.3667 158.75L75.0334 172.083V173.833L83.7417 182.55H85.4917L98.825 169.217V159.975L97.5917 158.758L88.3667 158.75ZM121.742 169.217L120.683 170.3V208.35L121.742 209.408H134.458L135.508 208.35V170.292L134.458 169.217H121.742Z" fill="#35E7E2"/>
<path d="M151.792 154.433H139.1L138.042 153.375V123.667C138.042 118.383 135.967 114.292 129.6 114.15C126.317 114.067 122.567 114.15 118.558 114.308L117.958 114.925V153.342L116.9 154.408H104.217L103.15 153.35V102.633L104.217 101.575H132.758C138.085 101.575 143.193 103.691 146.959 107.457C150.726 111.224 152.842 116.332 152.842 121.658V153.375L151.792 154.433Z" fill="white"/>
</svg>
