<svg width="256" height="256" viewBox="0 0 256 256" fill="none" xmlns="http://www.w3.org/2000/svg">
<rect width="256" height="256" fill="#232932"/>
<path d="M207.156 39.8602L199.605 47.412C160.047 86.962 95.9123 86.962 56.3566 47.412L48.8031 39.8602C47.6045 38.7071 46.0013 38.0701 44.338 38.0861C42.6747 38.1021 41.084 38.7698 39.9079 39.9458C38.7317 41.1217 38.0638 42.712 38.0478 44.375C38.0318 46.0379 38.6689 47.6408 39.8222 48.8391L47.3757 56.391C86.9341 95.941 86.9341 160.062 47.3757 199.609L39.8222 207.158C38.648 208.352 37.993 209.962 38.0001 211.637C38.0071 213.311 38.6754 214.915 39.8597 216.1C41.0439 217.284 42.6482 217.953 44.3232 217.96C45.9982 217.968 47.6083 217.314 48.8031 216.14L56.3566 208.588C95.915 169.038 160.047 169.038 199.605 208.588L207.156 216.14C207.746 216.73 208.446 217.197 209.217 217.517C209.987 217.836 210.813 218 211.648 218C212.482 218 213.308 217.836 214.079 217.517C214.849 217.197 215.55 216.73 216.139 216.14C216.729 215.55 217.197 214.85 217.516 214.079C217.836 213.309 218 212.483 218 211.649C218 210.815 217.836 209.989 217.516 209.219C217.197 208.448 216.729 207.748 216.139 207.158L208.586 199.609C169.028 160.059 169.028 95.9383 208.586 56.391L216.139 48.8418C217.331 47.6507 218 46.0354 218 44.351C218 42.6666 217.331 41.0512 216.139 39.8602C214.948 38.6691 213.332 38 211.648 38C209.963 38 208.347 38.6691 207.156 39.8602Z" fill="white" stroke="black" stroke-width="2"/>
</svg>
