<svg width="256" height="256" viewBox="0 0 256 256" fill="none" xmlns="http://www.w3.org/2000/svg">
<g clip-path="url(#clip0_12_58)">
<rect width="256" height="256" fill="white"/>
<rect width="256" height="256" fill="black"/>
<path d="M121.777 33.0501C121.369 33.0871 120.068 33.2173 118.898 33.3094C91.9123 35.742 66.6348 50.3015 50.6244 72.6784C41.7106 85.1207 36.0077 99.2337 33.8541 114.184C33.0931 119.402 33 120.944 33 128.018C33 135.094 33.0931 136.636 33.855 141.853C39.0173 177.526 64.407 207.499 98.8407 218.604C105.007 220.591 111.507 221.947 118.899 222.763C121.778 223.079 134.222 223.079 137.101 222.763C149.86 221.352 160.67 218.196 171.33 212.754C172.964 211.919 173.281 211.696 173.058 211.51C172.909 211.398 165.944 202.057 157.587 190.767L142.394 170.247L123.356 142.076C112.882 126.589 104.264 113.923 104.189 113.923C104.115 113.905 104.041 126.422 104.004 141.705C103.948 168.465 103.93 169.542 103.595 170.172C103.113 171.082 102.741 171.454 101.961 171.863C101.367 172.16 100.846 172.216 98.0418 172.216H94.8288L93.9738 171.677C93.4445 171.345 93.0145 170.877 92.7294 170.322L92.3398 169.486L92.3778 132.253L92.4329 95.0012L93.0086 94.2764C93.306 93.887 93.9377 93.3854 94.3833 93.1442C95.1442 92.7728 95.4416 92.7357 98.6545 92.7357C102.444 92.7357 103.075 92.8839 104.06 93.9611C104.338 94.2584 114.646 109.783 126.979 128.483C139.464 147.411 151.957 166.334 164.458 185.251L179.502 208.038L180.264 207.536C187.005 203.154 194.138 196.914 199.784 190.414C211.8 176.616 219.546 159.792 222.146 141.853C222.907 136.636 223 135.094 223 128.018C223 120.943 222.907 119.402 222.146 114.184C216.983 78.5106 191.593 48.5386 157.159 37.4337C151.086 35.4647 144.623 34.1092 137.379 33.2923C135.596 33.1061 123.319 32.9029 121.778 33.0511M160.67 90.5073C161.561 90.9528 162.286 91.8068 162.546 92.6977C162.694 93.1812 162.731 103.506 162.694 126.774L162.638 160.164L156.751 151.138L150.845 142.113V117.843C150.845 102.151 150.919 93.3294 151.03 92.902C151.327 91.8628 151.977 91.0459 152.869 90.5624C153.63 90.173 153.909 90.135 156.825 90.135C159.574 90.135 160.057 90.173 160.67 90.5073Z" fill="white"/>
</g>
<defs>
<clipPath id="clip0_12_58">
<rect width="256" height="256" fill="white"/>
</clipPath>
</defs>
</svg>
