<svg width="256" height="256" viewBox="0 0 256 256" fill="none" xmlns="http://www.w3.org/2000/svg">
<g clip-path="url(#clip0_12_58)">
<rect width="256" height="256" fill="white"/>
<rect width="256" height="256" fill="black"/>
<g clip-path="url(#clip1_12_58)">
<path d="M128 256C198.692 256 256 198.692 256 128C256 57.3075 198.692 0 128 0C57.3075 0 0 57.3075 0 128C0 198.692 57.3075 256 128 256Z" fill="black"/>
<path d="M212.634 224.028L98.334 76.8H76.8V179.158H94.028V98.678L199.108 234.446C203.844 231.278 208.362 227.798 212.634 224.028Z" fill="url(#paint0_linear_12_58)"/>
<path d="M163.556 76.8H180.622V179.2H163.556V76.8Z" fill="url(#paint1_linear_12_58)"/>
</g>
</g>
<defs>
<linearGradient id="paint0_linear_12_58" x1="155.022" y1="165.689" x2="205.511" y2="228.266" gradientUnits="userSpaceOnUse">
<stop stop-color="white"/>
<stop offset="1" stop-color="white" stop-opacity="0"/>
</linearGradient>
<linearGradient id="paint1_linear_12_58" x1="172.089" y1="76.7999" x2="171.803" y2="152" gradientUnits="userSpaceOnUse">
<stop stop-color="white"/>
<stop offset="1" stop-color="white" stop-opacity="0"/>
</linearGradient>
<clipPath id="clip0_12_58">
<rect width="256" height="256" fill="white"/>
</clipPath>
<clipPath id="clip1_12_58">
<rect width="256" height="256" fill="white"/>
</clipPath>
</defs>
</svg>
