<svg width="256" height="256" viewBox="0 0 256 256" fill="none" xmlns="http://www.w3.org/2000/svg">
<rect width="256" height="256" fill="#232932"/>
<g clip-path="url(#clip0_220_2)">
<path fill-rule="evenodd" clip-rule="evenodd" d="M204.083 63.1008C168.239 21.0841 105.12 16.0801 63.1038 51.924C21.0872 87.768 16.0832 150.886 51.9271 192.903C87.771 234.919 150.89 239.923 192.906 204.08C234.923 168.236 239.927 105.117 204.083 63.1008ZM154.262 115.587C158.116 115.587 160.577 119.763 158.643 123.097L158.087 124.055L120.348 186.147C119.646 187.301 118.394 188.005 117.044 188.005H113.441C110.973 188.005 109.168 185.674 109.786 183.284L120.027 143.692C120.845 140.526 118.456 137.44 115.186 137.44H99.457C96.1875 137.44 93.798 134.354 94.616 131.188L110.068 71.4144C110.63 69.4028 112.452 67.9867 114.54 68.0104C114.793 68.0133 115.023 68.0175 115.213 68.0235L131.054 68.0232C134.085 68.0218 136.42 70.6948 136.011 73.6974L135.914 74.4123L129.873 109.745C129.351 112.799 131.703 115.587 134.801 115.587H154.262Z" fill="url(#paint0_radial_220_2)"/>
</g>
<defs>
<radialGradient id="paint0_radial_220_2" cx="0" cy="0" r="1" gradientUnits="userSpaceOnUse" gradientTransform="translate(48.0034 128.002) scale(195.004 1988.55)">
<stop stop-color="#31B2F3"/>
<stop offset="0.473958" stop-color="#F27CEC"/>
<stop offset="1" stop-color="#FD6641"/>
</radialGradient>
<clipPath id="clip0_220_2">
<rect width="200" height="200" fill="white" transform="translate(28 28)"/>
</clipPath>
</defs>
</svg>
