<svg width="256" height="256" viewBox="0 0 256 256" fill="none" xmlns="http://www.w3.org/2000/svg">
<g clip-path="url(#clip0_17_247)">
<rect width="256" height="256" fill="white"/>
<rect width="256" height="256" fill="#030617"/>
<path d="M138.787 189.333H207.559C209.743 189.334 211.889 188.764 213.781 187.681C215.669 186.601 217.239 185.044 218.335 183.166C219.426 181.294 220 179.166 219.999 176.999C219.997 174.833 219.421 172.705 218.329 170.834L172.144 91.548C171.048 89.6702 169.478 88.1135 167.591 87.034C165.697 85.9505 163.552 85.3806 161.37 85.3806C159.188 85.3806 157.043 85.9505 155.149 87.034C153.262 88.1135 151.692 89.6702 150.596 91.548L138.787 111.835L115.697 72.165C114.601 70.2873 113.03 68.7309 111.142 67.652C109.247 66.5691 107.102 65.9995 104.92 65.9995C102.738 65.9995 100.593 66.5691 98.698 67.652C96.8103 68.7309 95.2394 70.2873 94.143 72.165L36.67 170.834C35.5778 172.705 35.0019 174.833 35.001 176.999C35.0001 179.166 35.5743 181.294 36.665 183.166C37.7609 185.044 39.3314 186.601 41.219 187.681C43.1132 188.765 45.2584 189.335 47.441 189.333H90.611C107.715 189.333 120.329 181.887 129.008 167.36L150.08 131.191L161.367 111.835L195.24 169.977H150.08L138.787 189.333ZM89.907 169.957L59.78 169.95L104.94 92.432L127.473 131.191L112.386 157.097C106.622 166.523 100.075 169.957 89.907 169.957Z" fill="#00DC82"/>
</g>
<defs>
<clipPath id="clip0_17_247">
<rect width="256" height="256" fill="white"/>
</clipPath>
</defs>
</svg>
