<svg width="256" height="256" viewBox="0 0 256 256" fill="none" xmlns="http://www.w3.org/2000/svg">
<g clip-path="url(#clip0_17_247)">
<rect width="256" height="256" fill="white"/>
<rect width="256" height="256" fill="#030617"/>
<path d="M140.813 198.002H218.879C221.358 198.003 223.794 197.356 225.942 196.127C228.085 194.901 229.868 193.134 231.112 191.002C232.35 188.876 233.001 186.461 233 184.001C232.999 181.542 232.345 179.127 231.105 177.003L178.678 87.0013C177.434 84.8698 175.652 83.1027 173.51 81.8773C171.359 80.6474 168.925 80.0004 166.448 80.0004C163.971 80.0004 161.536 80.6474 159.386 81.8773C157.244 83.1027 155.462 84.8698 154.218 87.0013L140.813 110.03L114.602 64.9987C113.358 62.8673 111.574 61.1006 109.432 59.8758C107.281 58.6466 104.846 58 102.369 58C99.8912 58 97.4567 58.6466 95.3057 59.8758C93.1628 61.1006 91.3797 62.8673 90.1351 64.9987L24.8946 177.003C23.6548 179.127 23.001 181.542 23 184.001C22.999 186.461 23.6508 188.876 24.8889 191.002C26.1329 193.134 27.9157 194.901 30.0584 196.127C32.2086 197.358 34.6437 198.004 37.1213 198.002H86.1257C105.541 198.002 119.86 189.55 129.712 173.059L153.632 132.002L166.444 110.03L204.895 176.03H153.632L140.813 198.002ZM85.3266 176.007L51.1279 175.999L102.391 88.0048L127.97 132.002L110.844 161.409C104.301 172.109 96.8688 176.007 85.3266 176.007Z" fill="#00DC82"/>
</g>
<defs>
<clipPath id="clip0_17_247">
<rect width="256" height="256" fill="white"/>
</clipPath>
</defs>
</svg>
