<svg width="256" height="256" viewBox="0 0 256 256" fill="none" xmlns="http://www.w3.org/2000/svg">
<rect width="256" height="256" fill="#232932"/>
<path d="M128 223.467C180.725 223.467 223.467 180.725 223.467 128C223.467 75.2751 180.725 32.5332 128 32.5332C75.2752 32.5332 32.5333 75.2751 32.5333 128C32.5333 180.725 75.2752 223.467 128 223.467Z" fill="#232932" stroke="white" stroke-width="3.47"/>
<path d="M79.4667 77.8665C82.4 63.7065 92 50.9332 104.907 44.5332C102.661 46.8132 99.9467 48.5599 97.8667 51.0399C89.36 60.2132 85.52 73.4932 87.8667 85.7065C90.8267 104.347 108.347 119.573 127.333 119.307C142.053 119.965 156.4 111.493 163.6 98.7199C179.013 99.2425 194 107.2 202.8 119.973C207.307 126.64 210.827 134.453 211.067 142.587C208.213 131.787 201.04 122.187 191.253 116.773C181.787 111.44 170.16 110.08 159.787 113.227C146.773 116.96 136.027 127.6 132.32 140.693C129.173 151.12 130.52 162.613 135.467 172.16C128.587 184.08 116.16 192.587 102.667 195.147C92.2933 197.323 81.3867 195.643 71.7333 191.28C80.3733 193.8 89.76 194.24 98.3467 191.187C109.867 187.373 119.387 178.12 123.573 166.707C128.213 154.28 126.453 139.507 118.64 128.84C112.8 120.44 103.6 114.52 93.6 112.413C90.4267 111.848 87.2267 111.592 84.0267 111.299C78.9333 101.032 77.0667 89.1119 79.6267 77.9652L79.4667 77.8665Z" fill="#C4C2C4"/>
</svg>
