<svg width="256" height="256" viewBox="0 0 256 256" fill="none" xmlns="http://www.w3.org/2000/svg">
<rect width="256" height="256" fill="#242932"/>
<g clip-path="url(#clip0_74_450)">
<path d="M164.342 113.5C163.336 113.792 162.403 114.292 161.602 114.966C160.801 115.641 160.15 116.475 159.692 117.417L159.092 118.65L159.1 120.375C159.1 121.983 159.133 122.183 159.592 123.317C160.225 124.925 160.858 125.917 162.017 127.05C164.017 129.033 166.267 129.55 169.283 128.758C170.21 128.475 171.069 128.008 171.81 127.383C172.55 126.759 173.156 125.99 173.592 125.125C174.286 123.86 174.522 122.394 174.258 120.975C173.725 117.2 171.508 114.458 168.225 113.5C166.945 113.223 165.621 113.223 164.342 113.5ZM87.65 113.542C85.1083 114.342 83.2083 116.208 82.2333 118.867C81.7498 120.257 81.5791 121.736 81.7333 123.2C82.2083 125.775 84.3166 128.117 86.7166 128.758C89.7333 129.55 91.9833 129.033 93.9833 127.05C95.15 125.917 95.775 124.925 96.4083 123.317C96.8666 122.183 96.9 121.983 96.9 120.375L96.9083 118.65L96.3083 117.417C95.8451 116.466 95.1862 115.625 94.3747 114.947C93.5633 114.269 92.6177 113.77 91.6 113.483C90.2977 113.186 88.9429 113.206 87.65 113.542ZM122.517 130.208C121.425 130.8 120.658 132.292 120.892 133.4C121.15 134.592 122.2 135.8 123.833 136.792C124.708 137.317 124.767 137.392 124.808 137.925C124.842 138.242 124.725 139.142 124.567 139.95C124.4 140.733 124.267 141.567 124.267 141.8C124.283 142.417 124.85 143.425 125.458 143.908C125.992 144.342 126.092 144.358 127.583 144.4C128.95 144.442 129.233 144.408 129.783 144.15C131.192 143.467 131.55 142.2 131.033 139.775C130.6 137.75 130.683 137.442 131.758 136.817C132.9 136.15 134.1 134.992 134.458 134.2C134.787 133.475 134.818 132.65 134.546 131.902C134.273 131.155 133.718 130.543 133 130.2C132.525 129.992 132.009 129.898 131.492 129.925C130.442 129.925 129.767 130.175 128.533 130.958L127.825 131.4L127.383 131.133C125.558 130.05 125.225 129.925 124.125 129.942C123.575 129.896 123.022 129.988 122.517 130.208ZM125.767 111.917C122.658 112.217 121.808 112.333 120.317 112.633C117.581 113.245 114.923 114.162 112.392 115.367C104.558 119.2 99.15 125.583 97.5 132.983C97.1666 134.45 97.125 134.933 97.125 137.4C97.125 139.85 97.1666 140.375 97.4833 141.767C99.6833 151.433 108.583 158.575 120.1 159.875C122.6 160.15 133.4 160.15 135.9 159.875C145.15 158.833 153.1 153.817 156.675 146.783C157.625 144.9 158.083 143.683 158.508 141.767C158.833 140.375 158.875 139.85 158.875 137.408C158.875 134.933 158.833 134.45 158.5 132.983C156.1 122.233 145.675 113.783 132.9 112.175C130.532 111.944 128.145 111.858 125.767 111.917ZM131.142 119.725C135.422 120.194 139.532 121.661 143.142 124.008C145 125.242 147.617 127.825 148.733 129.525C150.117 131.617 150.9 133.758 151.258 136.358C151.425 137.55 151.342 138.45 150.9 140.375C150.233 143.25 148.133 146.25 145.3 148.35C143.519 149.56 141.589 150.535 139.558 151.25C136.375 152.267 134.292 152.45 126.85 152.4C122 152.35 121.133 152.317 119.742 152.05C114.986 151.161 111.236 149.272 108.492 146.383C106.292 144.05 105.283 141.925 104.742 138.5C104.492 136.9 104.95 134.258 105.883 132.033C107.017 129.317 109.95 125.95 112.85 124.008C116.208 121.767 120.633 120.175 124.7 119.742C126.258 119.575 129.583 119.575 131.142 119.725ZM85.2833 28.0584C83.2215 28.4413 81.2747 29.2908 79.5916 30.5418C74.8083 34.1668 71.1083 41.8834 69.5416 51.4918C68.9583 55.1251 68.55 60.1584 68.55 64.0168C68.55 68.5501 69.0833 74.3501 69.8416 78.3584C70.0083 79.2501 70.1 80.0418 70.0333 80.0918L68.475 81.3584C65.4763 83.8314 62.8173 86.6894 60.5666 89.8584C56.4817 95.6616 53.8002 102.334 52.7333 109.35C52.281 113.103 52.2168 116.892 52.5416 120.658C53.3 127.158 55.25 132.642 58.6 137.658L59.6833 139.283L59.375 139.817C57.1333 143.583 55.225 149.025 54.3333 154.25C53.6333 158.383 53.5416 159.492 53.5416 165.033C53.5416 170.617 53.6166 171.725 54.275 175.583C55.0666 180.208 56.675 185.108 58.4666 188.367C59.0583 189.433 60.4916 191.642 60.6666 191.758C60.725 191.783 60.55 192.317 60.2833 192.933C58.0787 197.912 56.5432 203.16 55.7166 208.542C55.2457 211.268 55.0475 214.035 55.125 216.8C55.125 221.467 55.3833 223.733 56.3583 227.458L56.5 228H68.8166L68.4 227.242C65.925 222.642 65.6916 214.117 67.8333 205.6C68.8083 201.667 69.9166 198.775 71.9833 194.8L73.2166 192.383V190.908C73.2166 189.533 73.1916 189.375 72.7416 188.467C72.33 187.682 71.7827 186.977 71.125 186.383C69.7678 185.101 68.6775 183.563 67.9166 181.858C64.3833 174.192 63.7 162.808 66.1833 153.1C67.2166 149.05 68.925 145.45 70.7166 143.483C71.864 142.29 72.5264 140.713 72.575 139.058C72.575 137.433 71.9916 136.1 70.7083 134.708C66.996 130.73 64.6162 125.694 63.9 120.3C62.7333 112.3 64.85 103.592 69.65 96.6834C74.3416 89.9001 80.925 85.5501 88.2916 84.3918C89.95 84.1168 93.0416 84.1584 94.7583 84.4751C96.6416 84.8084 97.8166 84.7084 99.025 84.1334C100.517 83.4251 101.258 82.5501 102.142 80.5418C102.917 78.7501 103.517 77.7668 105.142 75.7418C107.092 73.3251 108.975 71.6668 111.992 69.6668C115.433 67.4168 119.358 65.7751 123.258 64.9918C124.675 64.7001 125.342 64.6584 128 64.6584C130.658 64.6584 131.317 64.7001 132.742 64.9918C138.709 66.2755 144.219 69.1458 148.692 73.3001C149.667 74.2084 152.008 77.1084 152.758 78.3168C153.042 78.7918 153.55 79.7918 153.858 80.5418C154.733 82.5501 155.483 83.4251 156.975 84.1251C158.142 84.6918 159.358 84.8084 161.167 84.5001C164.025 84.0168 166.225 84.0584 169.025 84.6334C178.558 86.5501 186.858 94.4084 190.533 104.942C193.742 114.175 192.833 123.833 188.067 131.217C187.258 132.467 186.458 133.467 185.292 134.708C182.783 137.392 182.783 140.725 185.283 143.483C189.392 147.975 191.958 159.033 191.183 168.783C190.667 175.217 189.017 180.975 186.742 184.233C186.182 185.002 185.557 185.721 184.875 186.383C184.217 186.977 183.67 187.682 183.258 188.467C182.808 189.375 182.783 189.533 182.783 190.908V192.392L184.017 194.808C186.083 198.775 187.183 201.667 188.167 205.6C190.275 214 190.092 222.35 187.675 227.108C187.538 227.374 187.416 227.647 187.308 227.925C187.308 227.975 190.05 228 193.408 228H199.492L199.658 227.383L199.958 226.267C200.117 225.633 200.433 223.767 200.692 221.967C200.936 218.477 200.936 214.974 200.692 211.483C199.775 204.192 198.233 198.4 195.717 192.933C195.45 192.317 195.275 191.783 195.333 191.758C195.661 191.357 195.962 190.934 196.233 190.492C199.367 185.75 201.292 179.792 202.267 171.925C202.525 169.758 202.525 160.442 202.267 158.358C201.575 152.983 200.75 149.342 199.367 145.65C198.579 143.649 197.663 141.7 196.625 139.817L196.308 139.283L197.4 137.667C200.75 132.633 202.7 127.15 203.458 120.667C203.781 116.898 203.714 113.105 203.258 109.35C202.194 102.335 199.515 95.6623 195.433 89.8584C193.18 86.6889 190.518 83.8309 187.517 81.3584L185.967 80.0918C185.943 79.5076 186.008 78.9233 186.158 78.3584C187.892 69.3001 187.833 58.0001 186.017 49.1668C184.433 41.4668 181.558 35.3501 177.85 31.8168C174.9 29.0001 171.883 27.8001 168.267 28.0251C159.967 28.5168 153.267 38.0668 150.633 53.1084C150.258 55.1096 149.989 57.129 149.825 59.1584C149.825 59.4584 149.767 59.7084 149.7 59.7084C149.269 59.527 148.853 59.3096 148.458 59.0584C142.278 55.3344 135.215 53.3292 128 53.2501C121.067 53.2501 113.942 55.2751 107.533 59.0668C107.141 59.3175 106.729 59.5349 106.3 59.7168C106.233 59.7168 106.175 59.4668 106.175 59.1668C106.011 57.1402 105.741 55.1235 105.367 53.1251C102.975 39.6001 97.475 30.6584 90.1666 28.4001C88.5673 28.0473 86.9163 27.9322 85.2833 28.0584ZM87.725 39.7418C89.7916 41.3834 92.0833 46.0668 93.4083 51.3084C93.6583 52.2501 93.9083 53.3418 93.9833 53.7418C94.0416 54.1334 94.2 55.0084 94.325 55.6834C94.8833 58.7251 95.1416 62.0168 95.175 66.0168L95.1916 69.9751L94.1916 71.4334L93.2083 72.9168H90.8916C88.1916 72.9168 85.5083 73.2584 82.9416 73.9501L80.9583 74.4501C80.6833 74.5084 80.6416 74.4251 80.4833 73.2501C79.631 66.8223 79.6758 60.3072 80.6166 53.8918C81.65 47.3251 84.0583 41.3834 86.4166 39.6334C86.975 39.2168 87.075 39.2251 87.725 39.7418ZM169.6 39.6418C171.017 40.6918 172.583 43.4751 173.75 47.0418C176.083 54.1584 176.75 63.9418 175.517 73.2501C175.358 74.4168 175.317 74.5084 175.042 74.4501L173.058 73.9501C170.465 73.2611 167.792 72.9138 165.108 72.9168H162.792L161.8 71.4334L160.808 69.9751L160.825 66.0251C160.858 60.4501 161.375 56.1084 162.608 51.2584C163.917 46.0668 166.225 41.3834 168.275 39.7418C168.925 39.2251 169.025 39.2168 169.6 39.6418Z" fill="white"/>
</g>
<defs>
<clipPath id="clip0_74_450">
<rect width="200" height="200" fill="white" transform="translate(28 28)"/>
</clipPath>
</defs>
</svg>
