<svg width="256" height="256" viewBox="0 0 256 256" fill="none" xmlns="http://www.w3.org/2000/svg">
<rect width="256" height="256" fill="#232932"/>
<g clip-path="url(#clip0_167_65)">
<path d="M119.431 76.4433C103.642 76.5171 83.4195 79.0585 58.6329 94.144L57.6584 94.7478C42.1086 104.352 31.3789 116.186 25.7646 129.946C24.0059 134.267 21.6385 144.039 23.9829 153.226C24.9952 157.244 26.8819 161.283 29.4216 164.896C35.1572 173.063 44.7975 178.48 55.1696 179.396C69.8187 180.692 80.9044 174.179 84.8485 161.984C87.5571 153.569 84.8485 141.223 74.4535 134.925C65.9928 129.8 56.9021 130.966 51.6242 134.416C47.0534 137.422 44.4612 142.09 44.5039 147.22C44.6056 156.314 52.52 161.145 58.2129 161.16C59.8667 161.16 61.5253 160.878 63.3973 160.273C64.0667 160.069 64.6934 159.82 65.3825 159.4L65.5957 159.275L65.6893 159.21C66.322 158.791 66.8423 158.224 67.2042 157.557C67.5661 156.891 67.7586 156.145 67.7646 155.387C67.7632 154.959 67.7019 154.533 67.5825 154.122C66.9132 151.82 64.6114 150.431 62.2308 150.86L61.9109 150.933L61.4745 151.064L60.8412 151.282C60.0228 151.483 59.1862 151.6 58.3442 151.632C57.6748 151.587 54.4067 150.621 54.4067 147.067V147.023C54.4067 145.714 54.9284 144.802 55.2204 144.3C56.2376 142.718 59.03 141.173 62.8001 141.491C67.7417 141.914 71.3084 144.428 73.6758 149.164C75.8677 153.569 75.2918 158.985 72.1976 162.952C69.1182 166.884 63.6434 168.558 56.3656 167.779C49.0172 166.976 42.8091 162.791 39.3359 156.283C35.93 149.914 35.7478 142.364 38.8568 136.571C46.2889 122.673 60.3244 122.817 68.0271 124.135C79.418 126.094 92.3773 136.498 96.9776 148.509C97.7192 150.422 98.0982 151.945 98.4263 153.334L98.9218 155.41L111.792 161.628C112.068 161.764 112.165 161.808 112.273 161.728C112.411 161.626 112.331 161.357 112.331 161.357C112.25 161.073 112.062 160.811 111.769 157.244C111.523 154.078 111.026 145.415 115.431 141.127C117.143 139.447 119.749 137.945 121.808 137.473C130.238 135.427 140.131 136.84 149.486 147.555C154.326 153.088 156.687 155.613 157.873 156.742C157.873 156.742 158.142 156.996 158.288 157.113C158.44 157.244 158.542 157.347 158.775 157.477C159.161 157.69 174.856 164.843 174.856 164.843C174.856 164.843 175.039 164.93 175.176 164.765C175.314 164.599 175.183 164.43 175.183 164.43C175.081 164.312 165.241 151.72 166.986 141.346C168.369 133.089 175.009 133.832 184.197 134.859C187.194 135.207 190.608 135.594 194.139 135.675C204.01 135.74 214.642 133.936 221.193 131.096C225.429 129.276 228.129 128.061 229.826 126.532C230.436 126.038 230.749 125.219 231.077 124.348L231.31 123.772C231.586 123.067 231.986 121.57 232.163 120.752C232.234 120.392 232.323 120.04 232.016 119.812C231.747 119.602 231.113 119.979 231.113 119.979C228.237 121.69 221.045 124.935 214.32 125.075C205.976 125.242 189.059 116.709 187.312 115.808L183.773 107.523C195.873 115.415 205.912 119.775 213.592 120.451C222.146 121.203 228.813 116.586 231.704 114.665C232.081 114.409 232.459 114.135 232.81 113.864C232.876 113.822 233.022 113.689 232.999 113.572C232.518 110.603 228.057 96.2095 224.671 92.7528C223.739 91.8061 222.997 90.8824 221.49 90.0014C209.26 82.9467 180.244 78.6893 178.889 78.5006C178.889 78.5006 178.751 78.4695 178.656 78.5581C178.581 78.6303 178.568 78.7681 178.568 78.7681L178.436 85.3863C175.475 84.3987 153.932 77.5097 133.747 76.8174C129.465 76.6697 124.693 76.4171 119.431 76.4433ZM211.326 90.656C218.162 90.8972 223.535 96.6115 223.302 103.374C223.246 104.989 222.869 106.577 222.194 108.046C221.519 109.514 220.559 110.834 219.37 111.928C218.175 113.039 216.771 113.903 215.241 114.47C213.711 115.037 212.084 115.296 210.453 115.233C203.625 114.987 198.258 109.277 198.485 102.508C198.541 100.892 198.918 99.3031 199.592 97.8336C200.267 96.3641 201.227 95.0431 202.416 93.9471C204.835 91.7175 208.038 90.5345 211.326 90.656ZM211.218 94.2753C210.084 94.2291 208.952 94.4079 207.888 94.8012C206.823 95.1946 205.847 95.7948 205.016 96.5672C204.185 97.3281 203.514 98.2475 203.044 99.2714C202.573 100.295 202.312 101.403 202.276 102.529C202.117 107.262 205.861 111.243 210.627 111.418C212.923 111.497 215.157 110.667 216.845 109.11C217.674 108.348 218.343 107.428 218.812 106.404C219.281 105.381 219.54 104.273 219.575 103.148C219.742 98.4162 215.998 94.4426 211.218 94.2753ZM212.637 98.577C214.761 98.577 216.481 99.7041 216.481 101.117C216.481 102.508 214.756 103.651 212.637 103.651C210.512 103.651 208.793 102.508 208.793 101.117C208.793 99.7057 210.512 98.577 212.637 98.577ZM179.644 159.428C179.288 159.426 178.935 159.495 178.605 159.631C178.276 159.766 177.976 159.965 177.724 160.217C177.472 160.468 177.272 160.767 177.136 161.097C176.999 161.426 176.93 161.779 176.93 162.135C176.927 162.493 176.996 162.847 177.131 163.178C177.266 163.51 177.466 163.811 177.719 164.064C177.971 164.317 178.272 164.518 178.602 164.654C178.933 164.791 179.288 164.86 179.645 164.858C180.366 164.859 181.057 164.574 181.566 164.065C182.076 163.557 182.363 162.866 182.364 162.146C182.365 161.426 182.08 160.735 181.571 160.225C181.062 159.716 180.372 159.429 179.652 159.428H179.644ZM179.644 159.851H179.652C180.866 159.851 181.842 160.876 181.842 162.151C181.842 163.426 180.866 164.451 179.652 164.437C178.438 164.437 177.454 163.426 177.454 162.136C177.454 160.872 178.438 159.851 179.644 159.851ZM179.506 160.622C179.143 160.622 178.901 160.658 178.64 160.694V163.716H179.129V162.414H179.47C179.864 162.414 180.054 162.558 180.133 162.944C180.192 163.344 180.264 163.623 180.336 163.715H180.845C180.794 163.621 180.73 163.439 180.649 162.967C180.592 162.52 180.408 162.282 180.141 162.232V162.209C180.469 162.115 180.736 161.864 180.736 161.474C180.736 161.183 180.636 160.978 180.453 160.849C180.269 160.719 179.972 160.622 179.506 160.622ZM179.485 160.993C180.031 160.993 180.228 161.255 180.228 161.524C180.228 161.897 179.885 162.041 179.485 162.041H179.129V161.016C179.216 160.999 179.326 160.993 179.485 160.993Z" fill="#73BA25"/>
</g>
<defs>
<clipPath id="clip0_167_65">
<rect width="210" height="210" fill="white" transform="translate(23 23)"/>
</clipPath>
</defs>
</svg>
