<svg width="256" height="256" viewBox="0 0 256 256" fill="none" xmlns="http://www.w3.org/2000/svg">
<rect width="256" height="256" fill="#FDE166"/>
<g clip-path="url(#clip0_77_14)">
<path d="M79.1113 71.324C81.4072 73.0371 82.4595 75.1036 83.0719 77.8782C83.2652 79.3349 83.3893 80.7868 83.4686 82.2539C84.0945 81.9709 84.0945 81.9709 84.733 81.6821C87.8403 80.2769 91.5574 80.333 94.7802 81.3868C97.7134 82.8127 99.4881 84.6635 100.85 87.6318C102.48 92.4398 100.962 97.3431 99.9022 102.122C97.4 113.734 96.8466 125.701 96.9557 137.547C97.196 137.215 97.4364 136.883 97.684 136.541C100.911 132.162 104.171 128.302 109.625 126.906C113.844 126.56 117.737 126.788 121.153 129.591C123.418 131.878 124.439 133.729 124.475 137.025C124.392 141.049 123.019 143.56 120.806 146.795C117.482 151.675 115.928 156.869 114.222 162.481C110.13 175.863 105.137 187.905 92.1955 194.828C78.9311 201.803 61.8492 201.538 47.7199 197.365C41.113 195.265 35.4813 191.918 30.7103 186.873C30.4091 186.554 30.1079 186.236 29.7976 185.908C21.6299 176.445 20.6915 163.382 21.19 151.469C21.2756 150.454 21.3813 149.443 21.4931 148.431C22.0276 143.065 21.5679 137.739 20.9059 132.413C20.2402 127.046 19.8267 121.75 19.8016 116.34C19.7977 116.047 19.7937 115.755 19.7896 115.453C19.7279 109.95 20.389 104.192 23.9668 99.7567C26.1863 97.5021 28.9913 96.1951 32.1715 96.1672C33.9631 96.3114 35.3944 96.6848 37.0572 97.3699C37.0711 97.1025 37.0851 96.8351 37.0995 96.5596C37.2886 93.8168 37.8165 91.4082 38.7183 88.8174C38.8425 88.4541 38.9667 88.0907 39.0947 87.7163C40.0209 85.0798 41.0491 82.5948 42.6107 80.265C42.7881 79.9983 42.9656 79.7317 43.1484 79.4569C44.9644 77.0492 47.3347 75.721 50.3087 75.3003C54.13 75.1462 56.5563 76.1958 59.6679 78.276C59.9494 77.8507 59.9494 77.8507 60.2366 77.4167C62.3838 74.298 64.8638 71.2911 68.5978 70.098C72.1929 69.4585 75.9064 69.3935 79.1113 71.324Z" fill="#020200"/>
<path d="M189.146 70.892C191.625 72.6626 193.266 74.9577 194.935 77.4804C195.214 77.1769 195.492 76.8733 195.778 76.5605C198.051 74.4302 200.491 73.725 203.569 73.7946C206.675 74.1648 209.037 75.6626 211.134 77.9326C214.827 82.8319 217.384 89.637 217.546 95.7788C217.914 95.5819 218.282 95.385 218.662 95.1821C221.085 94.1722 223.432 94.166 225.914 94.9956C229.461 96.6127 231.996 98.8797 233.562 102.491C235.043 106.921 235.142 111.318 235.124 115.942C235.124 116.271 235.124 116.599 235.124 116.938C235.117 122.157 234.784 127.288 234.238 132.475C233.719 137.423 233.532 142.102 234.207 147.044C235.847 159.14 234.692 172.55 227.5 182.777C226.727 183.779 225.924 184.733 225.083 185.679C224.819 185.981 224.555 186.283 224.283 186.595C216.169 195.32 203.034 198.437 191.563 198.857C177.909 199.134 165.841 197.374 155.288 187.8C147.913 180.647 144.547 170.95 141.354 161.39C139.431 155.635 137.513 150.358 133.946 145.378C131.351 141.752 130.558 138.441 131.07 133.967C131.743 131.348 133.6 129.443 135.83 128C138.048 126.912 140.073 126.599 142.524 126.632C142.837 126.635 143.15 126.638 143.473 126.641C147.915 126.767 151.14 128.594 154.219 131.738C155.798 133.46 157.178 135.187 158.441 137.149C158.836 124.392 157.052 111.501 154.223 99.0963C153.097 94.0337 152.144 89.6275 154.747 84.8893C156.409 82.3341 158.293 81.0623 161.218 80.2649C162.327 80.1382 163.424 80.1138 164.54 80.1158C164.838 80.1153 165.136 80.1148 165.442 80.1142C167.708 80.1577 169.235 80.5591 171.135 81.8561C171.125 81.6105 171.116 81.3649 171.107 81.1118C171.033 77.6537 171.259 74.6766 173.515 71.9114C177.971 67.5445 183.972 67.7924 189.146 70.892Z" fill="#020200"/>
<path d="M91.7989 87.0278C93.3101 87.5879 93.6898 88.0612 94.5013 89.4643C95.5787 92.4633 94.8892 95.0393 94.0915 98.008C93.3979 100.696 92.9195 103.416 92.4729 106.154C92.3499 106.908 92.2235 107.662 92.0969 108.415C91.8386 110.035 91.6094 111.655 91.4022 113.282C91.3628 113.588 91.3234 113.895 91.2827 114.211C90.6537 119.362 90.5619 124.471 90.6151 129.652C90.6181 129.97 90.6211 130.288 90.6243 130.616C90.6535 133.596 90.6898 136.575 90.7449 139.554C90.7748 141.202 90.793 142.85 90.8038 144.499C90.8101 145.119 90.8209 145.739 90.8363 146.359C90.9781 152.147 90.9781 152.147 88.8682 154.488C86.856 156.257 85.0193 156.833 82.3716 157.163C81.2158 157.52 80.8801 157.983 80.2952 159.028C80.3459 160.272 80.4334 161.083 81.2064 162.075C82.4679 163.07 83.9255 162.783 85.4521 162.608C89.6654 161.737 92.64 159.403 95.039 155.887C96.0441 154.179 96.7876 152.407 97.5306 150.572C100.031 144.415 103.509 137.022 109.426 133.569C111.691 132.932 113.54 132.832 115.748 133.694C117.514 134.832 117.514 134.832 117.98 135.558C118.528 138.925 116.489 141.605 114.701 144.282C111.252 149.471 109.652 155.068 107.849 160.992C104.364 172.361 100.302 182.988 89.2856 188.907C84.7459 191.272 80.5618 192.538 75.5351 193.238C75.1035 193.312 74.6719 193.385 74.2273 193.462C62.3409 194.87 48.3516 193.117 38.6439 185.68C31.6715 179.767 28.3715 171.145 27.5369 162.21C27.5011 161.145 27.4803 160.093 27.4873 159.028C27.4881 158.732 27.4889 158.436 27.4897 158.131C27.5037 156.284 27.5939 154.456 27.7353 152.613C27.9392 149.646 27.9906 146.682 28.0039 143.708C28.0079 142.918 28.0156 142.128 28.0235 141.338C28.0271 137.743 27.684 134.335 27.1402 130.785C26.4767 126.133 26.2644 121.53 26.2477 116.837C26.2457 116.572 26.2436 116.307 26.2415 116.034C26.1881 107.302 26.1881 107.302 29.1236 103.735C30.3493 102.668 30.8897 102.545 32.5202 102.517C33.8838 102.939 33.8838 102.939 34.8011 103.959C36.1526 106.719 36.3581 109.296 36.4126 112.312C36.5348 116.12 36.9187 119.874 37.4043 123.649C37.4684 124.16 37.5325 124.67 37.5986 125.196C37.9823 128.085 38.5013 130.895 39.2066 133.724C39.4373 134.763 39.4373 134.763 39.4373 135.956C38.8429 136.251 38.8429 136.251 38.2364 136.551C37.7194 136.809 37.2023 137.066 36.6853 137.323C36.4238 137.453 36.1622 137.582 35.8927 137.716C34.6046 138.299 34.6046 138.299 33.4871 139.138C33.3249 140.984 33.3249 140.984 33.9086 142.694C35.1053 143.352 36.1052 143.2 37.4539 143.116C38.8015 142.677 38.8015 142.677 40.1563 142.047C46.0133 139.557 52.2313 138.247 58.4779 137.149C58.8025 137.091 59.127 137.032 59.4614 136.972C63.1997 136.318 66.8932 135.931 70.6866 135.864C71.1414 135.856 71.1414 135.856 71.6054 135.847C73.1258 135.82 74.6446 135.807 76.1652 135.814C76.7283 135.808 77.2915 135.803 77.8547 135.798C78.3538 135.799 78.8529 135.8 79.3672 135.802C81.0434 135.494 81.6278 134.889 82.6753 133.569C82.9569 132.283 82.8114 131.804 82.1299 130.685C80.5584 129.635 78.9685 129.682 77.1218 129.591C76.9994 125.805 77.3282 122.107 77.7343 118.349C77.84 117.367 77.9402 116.384 78.0399 115.401C78.4642 111.331 79.0792 107.347 79.8986 103.337C80.0001 102.819 80.0001 102.819 80.1038 102.291C81.1772 96.9179 82.7603 90.7567 87.4355 87.4256C88.807 86.7379 90.2967 86.8895 91.7989 87.0278Z" fill="#FDE166"/>
<path d="M166.771 86.6296C169.889 87.9034 171.229 91.4188 172.548 94.3368C175.775 102.49 176.798 111.566 177.779 120.218C177.83 120.663 177.88 121.108 177.933 121.567C178.193 123.992 178.326 126.356 178.275 128.795C177.873 128.818 177.873 128.818 177.463 128.84C177.109 128.867 176.755 128.893 176.391 128.92C176.041 128.943 175.691 128.966 175.331 128.99C174.153 129.224 173.574 129.544 172.721 130.387C172.48 132.206 172.48 132.206 173.17 133.844C174.252 134.604 175.112 134.525 176.425 134.54C176.933 134.55 177.441 134.56 177.965 134.57C178.368 134.574 178.368 134.574 178.78 134.579C180.187 134.595 181.594 134.634 183.001 134.671C183.42 134.681 183.42 134.681 183.847 134.692C194.994 134.985 206.326 137.028 216.708 141.16C218.107 141.573 219.268 141.616 220.72 141.525C221.546 141.16 221.546 141.16 221.91 140.331C222.149 138.53 222.149 138.53 221.459 136.93C220.465 136.155 219.433 135.75 218.265 135.284C217.834 135.11 217.403 134.937 216.959 134.758C216.629 134.628 216.299 134.498 215.959 134.364C216.286 131.936 216.615 129.512 217.056 127.102C217.109 126.817 217.161 126.531 217.215 126.238C217.316 125.695 217.419 125.152 217.525 124.61C218.437 119.707 218.436 114.682 218.51 109.71C218.591 106.62 218.786 104.118 220.645 101.547C221.838 100.727 222.471 100.722 223.893 100.95C225.782 101.859 226.629 102.907 227.519 104.734C228.65 108.017 228.792 111.166 228.777 114.624C228.776 115.399 228.776 115.399 228.776 116.189C228.746 120.526 228.388 124.813 227.974 129.128C226.848 138.165 226.848 138.165 227.661 147.061C227.988 148.426 227.933 149.818 227.94 151.215C227.943 151.542 227.945 151.869 227.947 152.205C227.951 152.9 227.954 153.594 227.955 154.288C227.959 155.328 227.971 156.367 227.984 157.407C228.043 166.752 226.05 175.448 219.43 182.398C216.482 185.222 213.308 187.103 209.613 188.762C209.363 188.874 209.114 188.987 208.858 189.102C197.6 193.935 181.539 194.394 170.118 189.931C169.392 189.589 168.673 189.233 167.961 188.862C167.573 188.666 167.185 188.471 166.785 188.27C163.549 186.52 161.025 184.282 158.441 181.701C158.18 181.454 157.919 181.206 157.651 180.951C152.135 175.279 149.857 166.285 147.455 158.978C144.817 150.876 144.817 150.876 140.59 143.514C140.134 142.827 139.68 142.139 139.227 141.45C139.047 141.19 138.868 140.93 138.683 140.662C137.542 138.903 137.192 137.697 137.417 135.558C138.129 134.463 138.628 133.757 139.797 133.171C140.754 133.101 141.714 133.065 142.673 133.047C143.19 133.032 143.708 133.017 144.241 133.002C147.143 133.328 149.047 135.43 150.904 137.547C151.77 138.681 152.559 139.855 153.334 141.052C153.542 141.37 153.75 141.689 153.964 142.016C155.667 144.651 157.089 147.283 158.253 150.198C160.13 154.827 162.471 158.792 167.168 161.016C169.531 161.921 172.123 162.357 174.531 161.414C175.307 160.331 175.328 159.493 175.249 158.181C175.146 157.381 175.146 157.381 174.531 156.666C173.534 156.251 172.844 156.155 171.779 156.069C169.397 155.865 167.981 154.801 166.449 153.011C165.272 151.46 165.136 150.806 165.141 148.887C165.141 148.425 165.14 147.963 165.14 147.487C165.141 146.98 165.142 146.472 165.143 145.95C165.14 144.858 165.135 143.767 165.13 142.675C165.129 142.389 165.127 142.103 165.126 141.808C165.71 117.176 165.71 117.176 159.631 93.7898C159.349 91.6329 159.24 89.5899 160.524 87.7484C162.27 86.0136 164.489 86.2483 166.771 86.6296Z" fill="#FDE166"/>
<path d="M75.1384 76.2872C75.7779 76.7109 75.7779 76.7109 76.3284 77.4805C76.4367 78.5174 76.4718 79.4449 76.4446 80.4795C76.4382 80.9281 76.4382 80.9281 76.4316 81.3857C76.3574 84.7915 76.0305 88.1683 75.659 91.5524C75.6243 91.88 75.5895 92.2077 75.5537 92.5453C75.0628 97.1461 74.3797 101.665 73.4696 106.203C72.5339 110.985 72.1155 115.808 71.6907 120.658C71.5096 122.693 71.3034 124.725 71.0972 126.757C70.9909 127.823 70.8845 128.89 70.7749 129.989C65.6697 130.383 65.6697 130.383 60.4613 130.784C60.0538 86.9714 60.0538 86.9714 67.5349 78.2217C69.8473 76.1352 72.0873 75.4334 75.1384 76.2872Z" fill="#FDE166"/>
<path d="M183.035 75.0937C185.866 75.9117 187.482 77.8074 188.985 80.265C193.921 89.7384 194.624 102.212 194.578 112.693C194.577 113.18 194.576 113.667 194.576 114.169C194.574 115.705 194.569 117.24 194.564 118.776C194.562 119.826 194.56 120.875 194.558 121.925C194.554 124.48 194.547 127.036 194.539 129.591C193.407 129.534 192.274 129.476 191.142 129.417C190.825 129.401 190.508 129.386 190.181 129.37C188.305 129.27 186.476 129.092 184.622 128.795C184.291 127.286 184.113 125.804 183.982 124.264C183.938 123.765 183.893 123.266 183.848 122.752C183.825 122.488 183.801 122.225 183.778 121.954C182.861 111.609 182.861 111.609 180.605 101.497C179.78 98.6469 179.567 95.8278 179.355 92.8745C179.174 90.4177 178.873 88.0315 178.424 85.6103C177.311 79.3866 177.311 79.3866 177.878 76.6849C179.458 75.0603 180.832 74.7051 183.035 75.0937Z" fill="#FDE166"/>
<path d="M204.059 80.2651C209.153 83.9135 210.905 91.7775 211.918 97.6932C213.175 106.073 212.867 115.274 211.596 123.624C211.547 123.961 211.498 124.297 211.448 124.644C210.565 130.702 210.565 130.702 210.009 132.376C207.891 132.159 205.824 131.79 203.738 131.364C203.326 131.28 203.326 131.28 202.905 131.195C202.232 131.059 201.559 130.922 200.886 130.784C200.877 130.347 200.869 129.91 200.861 129.46C200.783 125.323 200.701 121.186 200.616 117.049C200.573 114.922 200.53 112.796 200.491 110.669C200.453 108.614 200.411 106.558 200.368 104.502C200.352 103.722 200.337 102.941 200.323 102.16C200.256 98.3394 200.166 94.6127 199.477 90.8456C199.201 89.2416 199.153 87.6573 199.15 86.033C199.14 85.7315 199.131 85.43 199.121 85.1193C199.113 83.6135 199.236 82.7511 200.052 81.4709C201.374 80.1898 202.235 80.054 204.059 80.2651Z" fill="#FDE166"/>
<path d="M53.321 81.8566C54.5754 82.8165 55.0142 83.5143 55.3044 85.0389C55.4855 87.3399 55.2986 89.615 55.024 91.8994C54.4889 96.3936 54.3749 100.846 54.3468 105.368C54.3394 106.142 54.3316 106.916 54.3235 107.69C54.3034 109.7 54.2876 111.709 54.2727 113.719C54.2567 115.78 54.2365 117.842 54.2167 119.904C54.1786 123.929 54.145 127.953 54.1144 131.978C52.809 132.311 51.5032 132.642 50.1972 132.973C49.8254 133.067 49.4537 133.162 49.0707 133.26C48.7153 133.35 48.3599 133.44 47.9938 133.532C47.6655 133.615 47.3373 133.699 46.9991 133.784C46.1808 133.967 46.1808 133.967 45.3874 133.967C41.9052 118.711 39.302 98.9989 47.3956 84.6908C49.052 82.1993 50.2176 80.9512 53.321 81.8566Z" fill="#FDE166"/>
<path d="M127.844 55.7778C129.199 56.1336 129.79 56.9267 130.673 57.989C130.925 59.2417 130.925 59.2417 130.93 60.6663C130.935 61.0577 130.935 61.0577 130.941 61.457C130.949 62.3151 130.944 63.1723 130.937 64.0304C130.938 64.6293 130.94 65.2281 130.943 65.827C130.946 67.0803 130.941 68.3334 130.932 69.5867C130.921 71.1906 130.927 72.7939 130.939 74.3979C130.946 75.634 130.944 76.8699 130.939 78.106C130.938 78.6972 130.939 79.2885 130.944 79.8797C130.949 80.7073 130.941 81.5339 130.93 82.3614C130.929 82.8315 130.927 83.3016 130.925 83.786C130.598 85.4131 129.972 86.0094 128.69 87.0277C126.882 87.3573 126.146 87.1704 124.575 86.2072C122.619 84.0133 123.025 80.6372 122.913 77.8039C122.897 77.3927 122.88 76.9815 122.863 76.5578C122.757 73.8127 122.665 71.0785 122.74 68.3315C122.747 68.0016 122.754 67.6716 122.761 67.3316C122.789 66.1646 122.825 64.9982 122.864 63.8315C122.873 63.4559 122.882 63.0802 122.891 62.6932C122.978 60.452 123.233 58.7684 124.327 56.7956C125.583 55.9554 126.362 55.8681 127.844 55.7778Z" fill="#020200"/>
<path d="M108.063 65.1493C113.008 69.138 117.74 78.3054 118.773 84.641C118.773 86.3646 118.667 87.0811 117.558 88.3952C116.112 89.1664 114.818 89.5053 113.22 89.0167C111.498 87.6215 110.906 86.4055 110.319 84.2929C108.845 79.4314 106.437 75.2919 103.217 71.3881C102.42 70.1861 102.198 69.3672 102.113 67.9338C102.568 66.6829 102.956 65.8429 103.972 64.9753C105.456 64.6134 106.651 64.5938 108.063 65.1493Z" fill="#020200"/>
<path d="M150.904 67.9337C151.996 68.6479 152.7 69.1479 153.284 70.3204C153.482 71.3646 153.482 71.3646 153.284 72.7071C152.26 74.2073 150.929 75.4555 149.668 76.7534C147.349 79.2186 145.602 81.8568 143.868 84.7465C141.61 88.5053 141.61 88.5053 140.59 89.0165C138.932 89.1734 138.088 89.1957 136.673 88.2707C135.516 87.1107 135.441 86.8429 135.384 85.1629C135.938 80.6925 139.758 76.3862 142.574 73.1049C142.811 72.8147 143.047 72.5245 143.291 72.2254C145.394 69.6988 147.358 67.3409 150.904 67.9337Z" fill="#020200"/>
</g>
<defs>
<clipPath id="clip0_77_14">
<rect width="215" height="144" fill="white" transform="translate(20 56)"/>
</clipPath>
</defs>
</svg>
