<svg width="256" height="256" viewBox="0 0 256 256" fill="none" xmlns="http://www.w3.org/2000/svg">
<rect width="256" height="256" fill="#242932"/>
<g clip-path="url(#clip0_74_438)">
<path fill-rule="evenodd" clip-rule="evenodd" d="M168.033 44.3083L228.2 78.5167V79.2417L167.417 113.083L167.558 95.4417L160.717 95.1917C151.892 94.9583 147.292 95.2084 141.817 96.1084C132.95 97.5667 124.833 100.917 115.592 107.375L97.5417 119.917C95.175 121.542 93.4167 122.717 91.875 123.708L87.5833 126.392L84.275 128.342L87.4833 130.258L91.9 133.075C95.8667 135.692 101.65 139.708 114.408 148.625C123.658 155.083 131.767 158.433 140.633 159.892L143.133 160.267C148.917 161.025 154.592 161.05 166.675 160.542L166.858 142.55L227.025 176.758V177.483L166.242 211.333L166.358 195.817L161.067 196C149.517 196.35 143.258 196.017 134.917 194.65C120.8 192.317 107.75 186.933 94.2417 177.492L76.2583 164.992C74.1898 163.565 72.0921 162.182 69.9667 160.842L66.075 158.508C63.9732 157.297 61.8621 156.103 59.7417 154.925C52.2333 150.75 32.6917 145.633 28 145.633V110.4L29.1667 110.433C33.8667 110.375 53.4167 105.25 60.9083 101.067L69.375 96.2333L73.025 93.95C76.5917 91.6167 81.9583 87.9 95.4083 78.5084C108.917 69.0667 121.958 63.675 136.083 61.35C145.683 59.7667 152.533 59.575 167.867 60.2L168.033 44.3083Z" fill="white"/>
</g>
<defs>
<clipPath id="clip0_74_438">
<rect width="200" height="200" fill="white" transform="translate(28 28)"/>
</clipPath>
</defs>
</svg>
