<svg width="256" height="256" viewBox="0 0 256 256" fill="none" xmlns="http://www.w3.org/2000/svg">
<rect width="256" height="256" fill="#242932"/>
<path d="M85.2341 53.4765C87.1668 54.4918 88.1119 55.4698 89.6157 57.1278C89.6157 57.8508 89.6157 58.5737 89.6157 59.3186C90.0977 59.0776 90.5796 58.8366 91.0762 58.5883C94.278 58.1489 96.3135 58.3515 98.8809 60.2771C102.017 63.2226 103.043 66.9689 104.221 71.0028C104.582 72.0872 104.582 72.0872 104.951 73.1935C105.543 72.9996 106.135 72.8057 106.745 72.6059C123.355 67.3079 139.321 67.1992 155.142 75.2262C159.989 77.774 164.262 80.6474 168.484 84.1474C170.17 85.3912 171.88 86.5945 173.596 87.7987C173.905 87.4109 174.215 87.0231 174.534 86.6235C177.866 82.6102 180.748 79.4571 186.147 78.7161C188.201 79.0356 188.201 79.0356 189.661 80.2223C190.384 80.7193 190.384 80.7193 191.122 81.2264C193.273 80.6516 193.273 80.6516 195.503 79.7659C198.538 79.3233 199.656 79.6345 202.35 81.1808C203.775 82.4759 204.22 83.1594 204.566 85.0717C204.593 87.4212 204.597 89.329 203.536 91.45C204.734 91.7437 204.734 91.7437 205.955 92.0434C209.766 93.2704 209.766 93.2704 210.839 95.1013C211.445 98.4714 210.88 100.484 209.059 103.271C207.708 105.154 206.302 106.987 204.883 108.819C200.882 114.019 197.707 119.194 194.773 125.042C195.258 125.114 195.743 125.185 196.242 125.259C203.245 126.445 203.245 126.445 205.727 129.424C206.275 131.432 206.275 131.432 205.727 133.805C204.225 135.945 202.437 137.777 200.615 139.647C195.625 144.782 192.009 150.404 188.329 156.502C186.74 159.098 185.047 161.628 183.363 164.162C182.236 166.154 181.557 168.132 180.898 170.318C185.532 172.39 190.276 174.005 195.096 175.59C206.861 179.59 206.861 179.59 210.109 184.193C211.666 192.768 209.131 203.166 204.62 210.531C201.799 214.207 198.495 217.104 194.043 218.515C188.038 219.217 182.9 218.264 177.227 216.33C175.446 215.727 173.743 215.247 171.907 214.864C171.391 214.754 170.875 214.644 170.344 214.53C169.73 214.399 169.116 214.269 168.484 214.134C156.711 211.606 142.278 207.626 134.279 197.894C131.929 195.978 129.529 196.238 126.631 196.242C119.568 196.058 113.213 194.741 106.583 192.175C102.182 190.528 99.9201 190.914 95.6432 192.782C92.6901 193.906 89.7426 194.455 86.649 195.056C76.9144 197.074 70.4536 201.932 64.6499 209.98C62.987 212.262 61.6337 213.788 58.9448 214.864C52.6703 215.285 47.0166 212.514 42.2857 208.52C35.5093 201.963 29.0577 191.978 28 182.459C28.3369 179.202 29.6073 177.6 31.9251 175.43C33.764 174.174 35.6942 173.155 37.6759 172.144C39.691 171.104 41.6652 170.025 43.6093 168.858C44.1081 168.56 44.6068 168.262 45.1206 167.956C47.3009 166.422 48.5547 165.376 49.0513 162.69C49.061 160.605 48.907 158.606 48.6755 156.534C48.6176 155.823 48.5597 155.111 48.5001 154.378C48.3543 152.629 48.184 150.885 47.9909 149.141C47.2399 149.443 47.2399 149.443 46.4738 149.752C45.213 150.26 43.9509 150.764 42.6879 151.266C41.4664 151.752 40.2468 152.243 39.0309 152.743C33.9259 154.783 33.9259 154.783 31.1949 154.252C29.4605 153.066 29.4605 153.066 28.2738 151.331C28.0913 149.141 28.0913 149.141 29.0041 146.95C30.8021 145.592 32.7499 144.826 34.8462 144.029C35.6595 143.7 35.6595 143.7 36.4893 143.364C40.2187 141.972 43.2909 141.621 47.2606 141.838C47.2105 141.223 47.1605 140.607 47.1089 139.973C46.5558 132.563 46.3479 125.177 46.3148 117.747C46.3063 116.43 46.2913 115.112 46.2699 113.795C46.1191 104.473 46.1753 95.3952 52.3724 87.7987C54.881 86.1263 56.013 86.2079 58.9448 86.3382C58.8996 85.4646 58.8544 84.5911 58.8079 83.691C58.8179 77.3479 59.7226 70.0365 64.0566 65.1607C66.3123 63.6569 66.7654 63.5256 69.3053 63.6089C70.6835 63.6541 70.6835 63.6541 72.0895 63.7002C72.2551 62.9471 72.4208 62.194 72.5915 61.4181C73.4669 58.3196 74.9933 56.5251 77.2013 54.2068C79.748 52.9334 82.4558 53.053 85.2341 53.4765Z" fill="white"/>
<path d="M80.8526 60.0488C82.2675 60.3227 82.2675 60.3227 83.7736 60.7791C84.854 62.9398 84.6189 64.894 84.6423 67.3056C84.6513 68.0879 84.6513 68.0879 84.6606 68.8859C84.6733 70.0211 84.6844 71.1564 84.694 72.2916C84.7094 74.0946 84.7291 75.8975 84.75 77.7005C84.7937 81.5382 84.8316 85.3759 84.869 89.2136C84.9125 93.6398 84.9582 98.0659 85.0092 102.492C85.0284 104.257 85.0437 106.021 85.0588 107.786C84.6312 118.222 84.6312 118.222 87.4249 127.963C88.8709 127.963 90.3168 127.963 91.8065 127.963C91.7554 127.265 91.7043 126.567 91.6516 125.848C90.9845 115.92 90.9403 105.999 90.9409 96.0516C90.9393 93.1646 90.926 90.2778 90.9122 87.3908C90.9101 85.5395 90.9086 83.6881 90.9079 81.8368C90.9027 80.9817 90.8975 80.1267 90.892 79.2457C90.9058 74.308 91.0134 69.6678 93.267 65.1606C93.99 65.4016 94.7129 65.6426 95.4578 65.8909C96.1253 67.2716 96.1253 67.2716 96.6445 68.9945C96.8196 69.5556 96.9947 70.1166 97.1751 70.6947C98.2449 74.6904 98.5129 78.4346 98.6527 82.55C98.8966 88.3693 99.4292 94.1155 100.159 99.8936C100.248 100.605 100.337 101.316 100.429 102.048C100.873 105.437 101.398 108.776 102.079 112.126C103.159 117.898 103.072 123.739 103.174 129.593C103.196 130.47 103.217 131.347 103.24 132.25C103.26 133.436 103.26 133.436 103.281 134.645C103.486 136.684 103.9 137.91 104.951 139.647C106.397 139.647 107.843 139.647 109.333 139.647C109.321 138.863 109.31 138.079 109.298 137.271C109.258 134.336 109.233 131.4 109.212 128.464C109.201 127.199 109.187 125.933 109.167 124.667C109.141 122.838 109.128 121.009 109.119 119.18C109.108 118.623 109.096 118.066 109.085 117.492C109.083 112.658 109.962 108.056 112.984 104.184C114.445 103.134 114.445 103.134 116.635 103.134C118.887 165.375 118.887 165.375 109.085 177.826C106.234 180.777 103.249 182.606 99.5199 184.284C98.7226 184.648 97.9252 185.011 97.1037 185.385C93.1001 187.068 89.2816 188.094 85.006 188.848C72.4933 191.247 65.1155 198.435 57.4843 208.292C51.242 207.511 47.0729 204.304 43.0645 199.62C41.1438 196.957 39.5784 194.233 38.0867 191.313C37.8335 190.821 37.5803 190.33 37.3194 189.823C35.9144 186.911 35.055 184.57 35.5765 181.272C36.572 180.225 36.572 180.225 37.9955 179.492C38.5254 179.199 39.0554 178.906 39.6015 178.605C40.5009 178.118 40.5009 178.118 41.4186 177.621C49.6973 173.101 49.6973 173.101 55.2935 165.937C55.83 160.904 55.1129 155.813 54.5137 150.816C53.2199 139.832 52.8584 128.931 52.8289 117.876C52.8234 117.161 52.8179 116.445 52.8123 115.708C52.7993 113.642 52.8027 111.576 52.8118 109.51C52.8074 108.9 52.8031 108.291 52.7986 107.663C52.86 102.39 53.7957 97.348 56.754 92.9105C57.236 92.9105 57.718 92.9105 58.2145 92.9105C58.2234 93.658 58.2234 93.658 58.2324 94.4206C58.2952 99.5973 58.3678 104.774 58.4463 109.95C58.4743 111.883 58.4998 113.816 58.5226 115.75C58.5559 118.525 58.5982 121.3 58.6424 124.075C58.6509 124.942 58.6593 125.809 58.668 126.703C58.6825 127.507 58.697 128.311 58.712 129.139C58.7217 129.848 58.7314 130.556 58.7414 131.287C58.828 133.261 58.828 133.261 60.4053 135.266C62.2127 134.904 62.2127 134.904 64.0566 134.535C64.0609 133.962 64.0652 133.389 64.0696 132.799C64.1123 127.333 64.1652 121.868 64.2288 116.402C64.2611 113.594 64.2898 110.785 64.3096 107.977C64.5412 76.118 64.5412 76.118 68.4382 70.2725C69.1611 70.2725 69.8841 70.2725 70.629 70.2725C70.6273 71.0103 70.6257 71.7481 70.624 72.5082C70.6093 79.4501 70.5983 86.392 70.5911 93.3338C70.5873 96.903 70.5821 100.472 70.5739 104.041C70.566 107.484 70.5616 110.926 70.5597 114.368C70.5583 115.684 70.5557 116.999 70.5518 118.315C70.5465 120.152 70.5457 121.99 70.5461 123.828C70.5421 124.65 70.5421 124.65 70.5381 125.488C70.4944 128.278 70.4944 128.278 71.3592 130.884C72.8051 130.884 74.2511 130.884 75.7408 130.884C75.7483 130.331 75.7558 129.778 75.7636 129.208C75.836 123.925 75.9109 118.642 75.9886 113.36C76.0284 110.646 76.0673 107.931 76.104 105.217C76.3852 84.4826 76.3852 84.4826 76.7706 75.738C76.7915 75.1897 76.8125 74.6415 76.8341 74.0766C77.0807 69.2501 77.3675 63.6924 80.8526 60.0488Z" fill="#242932"/>
<path d="M204.997 98.0223C203.42 101.044 201.748 103.566 199.52 106.146C196.449 109.893 194.068 113.948 191.67 118.15C191.299 118.797 190.929 119.445 190.547 120.112C188.844 123.142 187.277 126.147 185.936 129.355C184.844 131.889 183.752 133.498 181.537 135.22C181.038 135.618 180.539 136.016 180.025 136.427C179.59 136.766 179.156 137.106 178.707 137.456C178.225 137.938 177.744 138.42 177.247 138.917C175.15 139.067 173.093 139.15 170.994 139.191C165.948 139.379 161.89 139.82 157.53 142.568C156.732 143.05 155.933 143.532 155.111 144.029C152.458 146.001 152.458 146.001 150.227 148.41C149.983 150.359 149.983 150.359 150.227 152.062C152.762 152.609 152.762 152.609 155.339 152.792C155.521 152.35 155.702 151.909 155.89 151.454C156.944 149.619 157.867 148.976 159.675 147.908C160.179 147.604 160.682 147.3 161.201 146.987C164.225 145.376 166.748 145.391 170.127 145.398C171.064 145.396 172.002 145.394 172.968 145.392C175.786 145.489 175.786 145.489 178.605 145.906C180.823 146.429 180.823 146.429 182.359 145.489C182.558 144.822 182.758 144.154 182.963 143.467C183.961 140.717 185.095 139.588 187.288 137.685C188.209 136.867 188.209 136.867 189.148 136.033C191.202 134.475 193.117 133.319 195.503 132.345C196.588 132.706 196.588 132.706 197.694 133.075C197.333 133.404 196.971 133.733 196.599 134.072C192.511 137.953 189.572 142.105 186.649 146.904C185.796 148.28 184.942 149.656 184.087 151.032C183.679 151.693 183.27 152.355 182.849 153.037C181.333 155.454 179.758 157.827 178.163 160.192C175.585 164.029 174.795 166.881 174.623 171.439C175.262 174.096 176.469 175.448 178.707 176.89C181.762 178.19 184.899 179.183 188.064 180.177C193.711 181.967 198.659 183.706 203.536 187.114C203.412 194.667 202.735 203.308 197.329 209.159C193.26 212.109 189.494 212.621 184.55 211.943C182.216 211.137 179.968 210.189 177.692 209.233C174.785 208.195 172.026 207.692 168.986 207.242C157.336 205.424 143.681 200.504 136.352 190.765C129.763 180.642 129.705 166.027 131.717 154.426C132.378 152.3 133.169 150.402 134.162 148.41C134.516 147.653 134.871 146.897 135.237 146.117C138.314 139.978 142.265 134.724 146.576 129.423C146.865 129.901 147.155 130.379 147.453 130.871C148.626 132.49 148.626 132.49 150.386 132.641C151.006 132.612 151.626 132.583 152.264 132.553C153.296 132.524 153.296 132.524 154.349 132.494C155.068 132.46 155.786 132.426 156.526 132.39C162.976 132.1 167.638 132.932 173.55 135.448C174.047 135.629 174.544 135.81 175.056 135.996C175.538 135.755 176.02 135.514 176.517 135.266C176.699 133.136 176.699 133.136 176.517 130.884C175.794 130.402 175.071 129.92 174.326 129.423C175.445 122.166 183.666 114.386 188.201 108.976C188.654 108.37 189.106 107.764 189.573 107.139C191.385 105.017 193.345 103.503 195.595 101.856C196.365 101.288 197.135 100.719 197.928 100.133C200.568 98.2706 201.801 97.9382 204.997 98.0223Z" fill="#242932"/>
<path d="M164.131 88.9055C165.859 90.4533 167.553 92.0214 169.214 93.6408C168.732 94.6047 168.25 95.5687 167.754 96.5618C167.33 96.528 166.906 96.4941 166.47 96.4592C163.579 96.3256 161.58 96.3863 158.899 97.566C153.164 102.802 150.333 109.532 147.135 116.46C144.77 121.503 142.004 125.789 138.543 130.154C129.953 141.887 124.986 152.214 125.125 166.986C125.116 167.887 125.108 168.787 125.099 169.715C125.118 175.589 125.926 180.761 127.589 186.384C127.838 187.356 128.083 188.329 128.319 189.305C122.51 189.659 117.079 188.875 111.524 187.114C111.042 186.632 110.56 186.15 110.063 185.654C110.553 185.148 110.553 185.148 111.053 184.632C125.099 169.478 123.523 147.199 123.208 127.963C123.199 127.392 123.19 126.822 123.181 126.234C123.125 122.623 123.056 119.012 122.974 115.401C122.947 114.227 122.923 113.053 122.9 111.878C122.867 110.232 122.825 108.586 122.78 106.94C122.757 105.993 122.734 105.046 122.71 104.071C122.495 101.853 122.234 100.587 121.017 98.7526C118.507 96.8934 116.014 97.0263 112.984 97.2921C111.029 98.2944 111.029 98.2944 109.333 99.4829C107.644 99.9849 107.644 99.9849 106.412 100.213C105.742 97.8978 105.544 95.7379 105.45 93.3327C105.404 92.2102 105.404 92.2102 105.358 91.0649C105.329 90.2883 105.3 89.5117 105.271 88.7115C105.239 87.9236 105.208 87.1357 105.175 86.3239C105.098 84.3814 105.023 82.4388 104.951 80.4961C124.977 71.6231 147.166 74.8629 164.131 88.9055Z" fill="#242932"/>
<path d="M169.67 37C171.739 37.4899 172.455 37.8004 173.596 39.6016C173.965 43.317 173.049 45.5704 171.328 48.8382C171.093 49.2882 170.859 49.7382 170.617 50.2018C169.869 51.6326 169.108 53.0564 168.347 54.4806C167.849 55.4311 167.352 56.3819 166.856 57.3332C159.883 70.6385 159.883 70.6385 156.754 71.9156C154.609 71.733 154.609 71.733 152.829 70.6376C151.211 68.0492 151.774 66.6417 152.418 63.7001C153.562 61.3753 153.562 61.3753 155.02 58.9991C157.598 54.7119 159.878 50.3438 162 45.8132C165.853 37.818 165.853 37.818 169.67 37Z" fill="white"/>
<path d="M111.524 38.1411C112.995 40.3483 113.391 41.6715 113.925 44.2256C114.165 45.3715 114.165 45.3715 114.41 46.5405C114.572 47.3383 114.734 48.1361 114.901 48.958C115.069 49.7474 115.236 50.5367 115.409 51.3499C117.346 60.7402 117.346 60.7402 115.814 63.974C114.445 65.1607 114.445 65.1607 112.254 65.4802C109.789 65.1207 109.349 64.8878 107.872 62.9699C107.288 61.1264 107.288 61.1264 106.86 58.9421C106.702 58.1485 106.544 57.3549 106.382 56.5373C106.226 55.708 106.07 54.8787 105.91 54.0242C105.663 52.7972 105.663 52.7972 105.412 51.5453C103.394 41.1574 103.394 41.1574 104.997 38.1411C107.308 36.948 109.077 37.5184 111.524 38.1411Z" fill="white"/>
<path d="M197.57 149.305C199.896 149.873 201.894 150.628 204.07 151.622C205.22 152.148 205.22 152.148 206.393 152.683C207.577 153.234 207.577 153.234 208.785 153.796C209.583 154.157 210.381 154.519 211.203 154.891C218.052 158.048 218.052 158.048 219.602 160.094C219.439 162.758 219.322 164.026 217.411 165.936C211.828 165.836 207.528 164.013 202.532 161.646C201.455 161.156 201.455 161.156 200.356 160.656C194.153 157.78 194.153 157.78 192.582 155.713C192.674 153.111 192.674 153.111 193.313 150.601C195.503 149.14 195.503 149.14 197.57 149.305Z" fill="white"/>
<path d="M198.424 86.3381C197.865 92.3034 193.636 96.4911 189.296 100.167C180.865 107.655 174.519 117.04 168.484 126.502C167.52 126.261 166.556 126.02 165.563 125.772C166.692 122.661 168.239 119.878 169.944 117.055C170.232 116.577 170.52 116.1 170.817 115.608C188.725 86.3381 188.725 86.3381 198.424 86.3381Z" fill="#242932"/>
<path d="M218.096 114.59C218.688 114.578 219.281 114.567 219.892 114.554C222.484 114.552 224.244 114.571 226.565 115.791C227.635 117.009 227.635 117.009 228 119.2C227.635 121.391 227.635 121.391 226.562 122.603C223.795 124.068 221.226 123.928 218.141 123.901C217.552 123.916 216.963 123.93 216.356 123.945C213.535 123.943 212.038 123.916 209.695 122.244C208.648 120.66 208.648 120.66 208.694 118.378C210.187 113.8 214.068 114.574 218.096 114.59Z" fill="white"/>
<path d="M33.7964 94.4167C42.3313 96.7445 42.3313 96.7445 45.0698 99.4829C44.7379 103.466 44.7379 103.466 42.879 105.325C38.3515 105.891 34.4456 104.58 30.4646 102.404C29.0041 100.213 29.0041 100.213 29.141 98.3875C30.0469 95.6001 30.7141 94.3416 33.7964 94.4167Z" fill="white"/>
<path d="M53.1027 57.1276C55.719 58.6678 57.774 60.6068 59.675 62.9697C60.1771 65.7994 60.1771 65.7994 59.675 68.0815C58.2145 69.542 58.2145 69.542 55.8868 69.9072C52.2154 69.4257 50.4514 67.8288 47.9909 65.1605C46.4171 62.7999 46.1882 62.0558 46.5303 59.3184C48.2023 56.6247 50.1357 56.8513 53.1027 57.1276Z" fill="white"/>
<path d="M211.569 71.0028C213.491 72.1957 213.723 73.0431 214.262 75.2475C213.583 78.396 212.159 79.4038 209.555 81.178C207.083 82.3538 205.356 82.059 202.806 81.2265C201.702 79.0182 201.651 77.8388 202.076 75.3844C204.847 72.4117 207.413 70.5872 211.569 71.0028Z" fill="white"/>
<path d="M186.74 84.8777C185.625 87.4972 184.058 89.188 182.085 91.2218C175.678 98.1403 170.482 106.065 165.563 114.088C165.322 113.606 165.081 113.124 164.833 112.628C165.685 110.829 166.578 109.144 167.571 107.424C167.865 106.91 168.16 106.395 168.463 105.865C170.698 102.022 173.07 98.2821 175.558 94.5993C175.879 94.1186 176.199 93.6379 176.529 93.1427C178.833 89.8079 182.299 84.8777 186.74 84.8777Z" fill="#242932"/>
<path d="M162.642 102.404C163.124 102.645 163.606 102.886 164.102 103.134C163.83 103.634 163.558 104.135 163.277 104.65C162.03 106.944 160.784 109.238 159.538 111.532C159.11 112.319 158.681 113.106 158.24 113.917C157.821 114.689 157.402 115.461 156.971 116.256C156.561 117.009 156.151 117.762 155.729 118.538C154.761 120.372 153.883 122.22 153.023 124.106C151.688 126.502 151.688 126.502 150.144 127.017C149.689 127.088 149.235 127.159 148.767 127.233C157.409 107.402 157.409 107.402 162.642 102.404Z" fill="#242932"/>
<path d="M162.642 102.404C163.124 102.645 163.606 102.886 164.102 103.134C163.201 104.83 162.287 106.516 161.364 108.2C161.11 108.682 160.855 109.163 160.594 109.659C158.63 113.204 158.63 113.204 156.606 114.045C156.188 114.059 155.77 114.073 155.339 114.088C156.846 109.703 159.253 105.585 162.642 102.404Z" fill="#242932"/>
<path d="M169.944 103.134C170.426 103.857 170.908 104.58 171.405 105.325C168.513 109.663 168.513 109.663 165.563 114.088C165.322 113.606 165.081 113.124 164.833 112.628C165.619 110.961 166.436 109.388 167.343 107.79C167.59 107.343 167.837 106.897 168.092 106.438C168.704 105.334 169.323 104.234 169.944 103.134Z" fill="#242932"/>
<path d="M156.8 112.628C157.53 114.818 157.53 114.818 156.48 117.146C155.915 118.163 155.915 118.163 155.339 119.2C154.616 119.2 153.893 119.2 153.148 119.2C153.945 116.443 154.542 114.475 156.8 112.628Z" fill="#242932"/>
<path d="M162.642 102.404C163.124 102.645 163.606 102.886 164.102 103.134C161.455 106.694 161.455 106.694 158.99 107.516C159.935 105.409 160.932 103.958 162.642 102.404Z" fill="#242932"/>
</svg>
