<svg width="256" height="256" viewBox="0 0 256 256" fill="none" xmlns="http://www.w3.org/2000/svg">
<rect width="256" height="256" fill="#232932"/>
<g clip-path="url(#clip0_199_78)">
<path d="M95.08 184.36C84.02 171.3 76.86 152.02 76.38 130.36V125.64C76.86 103.98 84.02 84.7 95.08 71.64C109.44 53.02 130.76 41.2 154.56 41.2C169.2 41.2 182.92 45.68 194.64 53.46C177.04 37.7 153.84 28.1 128.38 28H128C72.78 28 28 72.78 28 128C28 181.64 70.22 225.4 123.24 227.88C124.82 227.96 126.4 228 128 228C153.6 228 176.96 218.38 194.64 202.56C182.92 210.32 169.22 214.8 154.56 214.8C130.76 214.8 109.44 202.98 95.08 184.36Z" fill="url(#paint0_linear_199_78)"/>
<path d="M95.08 71.6402C104.26 60.8002 116.1 54.2802 129.06 54.2802C158.18 54.2802 181.76 87.2802 181.76 128C181.76 168.72 158.16 201.72 129.06 201.72C116.12 201.72 104.26 195.18 95.08 184.36C109.44 202.98 130.76 214.8 154.56 214.8C169.2 214.8 182.92 210.32 194.64 202.56C215.12 184.24 228 157.62 228 128C228 98.3802 215.12 71.7602 194.64 53.4602C182.92 45.6802 169.22 41.2002 154.56 41.2002C130.76 41.2002 109.44 53.0202 95.08 71.6402Z" fill="url(#paint1_linear_199_78)"/>
</g>
<defs>
<linearGradient id="paint0_linear_199_78" x1="111.325" y1="31.2608" x2="111.325" y2="225.089" gradientUnits="userSpaceOnUse">
<stop offset="0.3" stop-color="#FF1B2D"/>
<stop offset="0.4381" stop-color="#FA1A2C"/>
<stop offset="0.5939" stop-color="#ED1528"/>
<stop offset="0.7581" stop-color="#D60E21"/>
<stop offset="0.9272" stop-color="#B70519"/>
<stop offset="1" stop-color="#A70014"/>
</linearGradient>
<linearGradient id="paint1_linear_199_78" x1="161.542" y1="42.6853" x2="161.542" y2="214.117" gradientUnits="userSpaceOnUse">
<stop stop-color="#9C0000"/>
<stop offset="0.7" stop-color="#FF4B4B"/>
</linearGradient>
<clipPath id="clip0_199_78">
<rect width="200" height="200" fill="white" transform="translate(28 28)"/>
</clipPath>
</defs>
</svg>
