<svg width="256" height="256" viewBox="0 0 256 256" fill="none" xmlns="http://www.w3.org/2000/svg">
<rect width="256" height="256" fill="#232932"/>
<path fill-rule="evenodd" clip-rule="evenodd" d="M135.77 66.2224C142.71 63.0788 147.536 56.1024 147.536 48C147.536 36.9541 138.566 28 127.5 28C116.434 28 107.464 36.9541 107.464 48C107.464 56.1024 112.29 63.0788 119.23 66.2224L118.722 80.9412H118.661L90.6978 83.0471C89.8084 83.1141 88.9773 83.5143 88.371 84.1673C87.7647 84.8203 87.428 85.6779 87.4284 86.5682V94.1447C87.4285 95.0339 87.7648 95.8903 88.37 96.5427C88.9753 97.1951 89.8049 97.5954 90.6931 97.6635L118.071 99.7647L116.77 148.905C116.378 163.742 113.956 181.925 99.4334 185.109C97.8247 185.462 96.1723 185.647 94.4999 185.647C85.7949 185.647 75.7488 174.949 69.3137 163.98C71.8645 162.876 74.4757 161.916 77.1348 161.106C78.6634 160.64 78.971 158.492 77.6368 157.612C67.9937 151.249 60.3448 142.711 55.6517 132.833C55.007 131.475 53.0588 131.376 52.4094 132.732C50.7657 136.156 49.3794 139.698 48.262 143.327C45.008 153.918 44.1783 164.964 45.8188 175.834L45.9285 176.536C46.1559 177.952 47.912 178.453 48.9444 177.456C50.8904 175.579 52.9514 173.824 55.1154 172.202C66.9531 209.401 106.543 228 127.5 228C148.462 228 188.067 209.392 199.893 172.174C202.055 173.801 204.114 175.56 206.058 177.442C207.09 178.442 208.851 177.941 209.077 176.524C209.115 176.294 209.15 176.064 209.185 175.834C210.818 164.964 209.992 153.918 206.752 143.327C205.642 139.705 204.266 136.17 202.633 132.751C201.985 131.392 200.032 131.489 199.388 132.851C194.714 142.722 187.102 151.255 177.507 157.614C176.176 158.495 176.484 160.639 178.01 161.106C180.628 161.907 183.199 162.854 185.71 163.942C179.274 174.925 169.216 185.647 160.5 185.647C158.829 185.647 157.177 185.462 155.569 185.111C141.044 181.926 138.622 163.742 138.23 148.905L136.929 99.7647L164.307 97.6624C165.195 97.5942 166.025 97.1939 166.63 96.5415C167.235 95.8891 167.572 95.0327 167.572 94.1435V86.5671C167.571 85.6771 167.234 84.8201 166.628 84.1676C166.022 83.5151 165.191 83.1153 164.302 83.0482L136.339 80.9412H136.278L135.77 66.2224ZM139.286 48C139.286 54.4976 134.009 59.7647 127.5 59.7647C120.991 59.7647 115.714 54.4976 115.714 48C115.714 41.5024 120.991 36.2353 127.5 36.2353C134.009 36.2353 139.286 41.5024 139.286 48Z" fill="#FF915C"/>
</svg>
