<svg width="256" height="256" viewBox="0 0 256 256" fill="none" xmlns="http://www.w3.org/2000/svg">
<rect width="256" height="256" fill="#F6E458"/>
<path d="M169.303 39.8446C151.891 34.8441 134.13 34.1638 116.03 35.7821C105.901 36.8347 96.164 38.845 86.7722 42.3726C66.4699 49.9948 51.2272 63.2004 42.1387 83.0816C35.6219 97.3349 33.2672 112.476 33.0219 128.011C32.763 144.429 34.8206 160.618 38.0888 176.67C41.0538 191.219 45.0013 205.483 50.6379 219.255C51.1729 220.561 51.8399 221.002 53.27 221C71.098 220.962 88.9272 220.962 106.756 220.962H122.59C122.994 220.962 123.399 220.938 123.863 220.912C124.1 220.9 124.353 220.887 124.63 220.874C124.523 220.619 124.428 220.385 124.337 220.166C124.179 219.77 124.012 219.378 123.835 218.991C122.547 216.234 121.23 213.489 119.915 210.743C117.059 204.787 114.206 198.831 111.625 192.758C103.795 174.344 97.7987 155.382 95.9692 135.311C95.1629 126.455 95.2739 117.65 97.7321 109.021C100.541 99.1566 106.569 92.1939 116.562 89.2826C125.741 86.6104 135.046 86.6277 144.173 89.5784C152.32 92.2124 157.631 97.7749 159.889 106.105C161.625 112.502 161.624 118.968 160.312 125.418C159.301 130.382 157.267 134.914 153.604 138.538C147.033 145.04 138.829 146.536 130.025 146.037C128.459 145.948 126.897 145.778 125.288 145.599C124.534 145.518 123.771 145.434 122.99 145.357C123.013 145.606 123.025 145.835 123.037 146.049C123.059 146.472 123.079 146.838 123.166 147.189C123.542 148.697 123.899 150.21 124.257 151.724C125.118 155.37 125.979 159.015 127.086 162.583C129.249 169.552 131.776 176.404 134.656 183.11C155.092 181.515 173.913 176.437 193.889 164.448C194.19 164.258 194.463 164.088 194.736 163.918C203.317 158.577 210.262 151.649 215.051 142.702C222.807 128.214 224.32 112.721 222.015 96.7285C219.636 80.2245 212.229 66.3705 199.475 55.5055C190.631 47.9684 180.404 43.032 169.303 39.8446Z" fill="black"/>
</svg>
