<svg width="256" height="256" viewBox="0 0 256 256" fill="none" xmlns="http://www.w3.org/2000/svg">
<rect width="256" height="256" fill="#B06938"/>
<g clip-path="url(#clip0_201_355)">
<path d="M138.254 205.608L195.922 169.26C196.086 169.096 196.414 169.26 196.496 169.424C196.66 169.588 196.578 169.915 196.414 169.997L138.582 206.509H138.336V205.69L138.254 205.608Z" fill="url(#paint0_linear_201_355)"/>
<path d="M138.336 206.591H138.172L59.5859 177.365C59.5292 177.347 59.4769 177.318 59.4328 177.278C59.3886 177.238 59.3536 177.189 59.3302 177.135C59.3068 177.08 59.2956 177.021 59.2972 176.962C59.2989 176.903 59.3134 176.845 59.3398 176.792C59.4219 176.546 59.668 176.382 59.9141 176.464L138.254 205.608V206.591H138.336Z" fill="url(#paint1_linear_201_355)"/>
<path d="M220.777 66.8466L211.754 81.828L175.25 97.3824L173.199 98.201L140.469 128.737C139.812 129.392 139.402 130.292 139.32 130.783C139.32 130.947 139.156 130.865 138.992 130.783C138.91 130.783 138.664 130.865 138.664 130.783C138.664 130.047 138.582 129.31 137.516 128.655L121.109 118.012L109.133 110.399L75.418 101.721L47.1992 94.5171L29.3164 66.7648L29.5625 66.4373L96.8281 49H96.9102L119.797 83.3834L120.207 84.0383C120.699 84.7751 120.781 85.1845 120.781 85.5119H121.191V84.857L121.273 84.5295V84.3658L121.437 83.9565L121.52 83.7927C121.628 83.5326 121.766 83.2855 121.93 83.056L142.602 53.0933C142.602 53.0933 142.602 53.0114 142.766 53.0933L220.695 66.4373L220.777 66.7648V66.8466Z" fill="#E8B67F"/>
<path d="M121.109 118.094L109.133 110.317L75.418 101.721L120.781 85.4302L120.863 85.1846V85.4302L121.109 118.094Z" fill="url(#paint2_linear_201_355)"/>
<path d="M120.781 85.4301L75.418 101.721L71.3164 100.657L47.1992 94.4352L29.3164 66.7648L29.6445 66.4373L96.7461 49H96.8281L119.797 83.3834L120.207 84.0383C120.699 84.7751 120.781 85.1845 120.781 85.5119V85.4301Z" fill="url(#paint3_linear_201_355)"/>
<path d="M120.945 87.1491L77.9609 102.54L71.3164 100.902L119.797 83.3833L120.207 84.0382C120.699 84.775 120.781 85.1843 120.781 85.5118H120.863V87.1491H120.945Z" fill="url(#paint4_linear_201_355)"/>
<path d="M47.7734 94.5992L47.1992 94.4354L29.3164 66.765L29.5625 66.4375L47.7734 94.5992Z" fill="#D2A679"/>
<path d="M175.25 97.3006L173.199 98.1193L140.469 128.737C139.812 129.392 139.402 130.292 139.32 130.784C139.32 130.947 139.156 130.865 138.992 130.784C138.91 130.784 138.664 130.865 138.664 130.784C138.664 130.047 138.582 129.31 137.516 128.655L121.109 118.013L120.863 85.4302V85.1846L121.191 85.4302L175.332 97.3006H175.25Z" fill="url(#paint5_linear_201_355)"/>
<path d="M220.777 66.8466L211.754 81.8279L178.531 95.9087L175.25 97.3004L121.109 85.43C121.192 84.6108 121.474 83.8241 121.93 83.1378L142.602 53.1751C142.602 53.1751 142.602 53.0932 142.766 53.1751L220.695 66.4372L220.777 66.8466Z" fill="url(#paint6_linear_201_355)"/>
<path d="M178.531 95.9089L173.281 98.1192L172.543 98.7741L120.863 87.3949L121.109 85.4301C121.109 85.0208 121.437 84.0384 121.766 83.4653L178.531 95.9089Z" fill="url(#paint7_linear_201_355)"/>
<path opacity="0.8" d="M122.34 85.6758V118.831L121.109 118.094L119.469 117.03V85.8395L120.781 85.4302H121.191L122.34 85.6758Z" fill="url(#paint8_linear_201_355)"/>
<path d="M138.008 206.017L59.3398 176.792C58.9297 176.546 58.8477 176.137 58.8477 175.645L55.4023 108.761C55.4023 108.598 55.6484 108.516 55.6484 108.352C55.6484 108.107 55.0742 107.124 54.9102 107.042L23 89.1138L23.2461 88.4589L109.133 110.317L137.516 128.655C138.582 129.31 138.664 130.046 138.664 130.701C138.664 130.865 138.91 130.865 138.992 130.865L139.32 130.783C139.402 130.292 139.812 129.392 140.469 128.737L173.281 98.2008L232.59 72.9863L233 73.4775L200.926 101.557C200.27 102.212 200.023 102.949 200.105 103.276L196.824 168.769C196.824 169.26 196.578 169.342 196.168 169.587L138.746 205.936C138.5 206.099 138.254 206.181 137.926 206.017H138.008Z" fill="#BF9064"/>
<path d="M138.992 130.865L138.418 206.099H138.008L59.3398 176.71C58.9297 176.546 58.8477 176.055 58.8477 175.564L55.4023 108.762V108.68H55.4844V108.598L55.5664 108.434L138.664 130.783C138.664 130.865 138.91 130.783 138.992 130.783V130.865Z" fill="#BD8F63"/>
<path opacity="0.5" d="M138.5 205.854V206.1H138.008L59.3398 176.71C59.0117 176.546 58.9297 176.301 58.8477 175.973L138.418 205.772L138.5 205.854Z" fill="url(#paint9_linear_201_355)"/>
<path d="M102.898 160.255L133.332 170.16V199.796L103.391 188.826L102.898 160.173V160.255ZM118.156 180.148L118.238 193.901L133.004 199.304V185.305L118.238 180.148H118.156ZM122.504 184.569L125.539 189.317L128.41 186.779L128.902 187.352L125.949 189.972L128.902 194.72L128.492 195.047L125.539 190.299L122.586 192.837L122.094 192.264L125.129 189.644L122.094 184.814L122.504 184.569ZM131.281 189.89V191.282L132.102 191.527V193.001L131.281 192.755V193.983L129.641 191.364L131.281 189.89ZM128.656 188.253L129.23 188.416V193.819L128.656 193.656V188.171V188.253ZM103.473 175.072L103.719 188.58L117.828 193.738L117.746 179.984L103.473 175.072ZM125.539 191.2L127.098 193.656L123.98 192.51L125.539 191.2ZM127.918 188.908V192.428L126.277 190.136L127.918 188.908ZM121.848 185.715L122.422 185.96V191.364L121.848 191.118V185.715ZM123.16 187.188L124.637 189.562L123.16 190.709V187.188ZM110.363 180.639L110.937 180.885V181.212C112.742 181.867 114.383 183.668 115.285 186.37C114.711 185.469 114.219 185.224 113.398 185.551C113.07 184.896 112.168 184.569 111.594 184.896C111.465 184.63 111.267 184.404 111.02 184.241V189.399C111.02 189.89 110.691 190.299 109.871 190.136C109.133 189.972 108.805 189.317 108.887 188.498H109.297C109.297 189.153 109.379 189.481 109.871 189.644C110.281 189.644 110.445 189.562 110.445 189.153V184.078C110.331 184.057 110.213 184.06 110.099 184.089C109.986 184.117 109.88 184.169 109.789 184.241C109.625 183.75 108.723 183.177 108.148 183.586C107.574 182.85 106.672 182.604 106.18 183.095C106.836 181.212 108.641 180.557 110.363 181.048V180.639ZM119.797 185.715L121.437 188.335L119.797 189.644V188.416L119.059 188.171V186.697L119.879 187.025V185.715H119.797ZM124.062 186.288L127.18 187.352L125.539 188.744L124.062 186.288ZM118.238 165.658V179.575L133.004 184.814V170.488L118.238 165.576V165.658ZM120.945 177.692L129.805 180.721V182.522L120.945 179.493V177.692ZM113.316 181.048C113.398 181.048 113.398 181.703 113.234 181.867H112.906C112.742 181.703 112.66 181.622 112.742 181.376C112.742 181.212 113.316 180.967 113.316 181.048ZM114.137 179.657C114.219 179.657 114.219 180.312 114.055 180.475H113.727C113.562 180.312 113.48 180.23 113.562 179.984C113.562 179.821 114.137 179.575 114.137 179.657ZM111.84 179.657C111.922 179.657 111.922 180.312 111.758 180.475L111.43 180.394C111.266 180.312 111.184 180.148 111.266 179.984C111.266 179.739 111.84 179.575 111.84 179.575V179.657ZM109.543 179.247C109.625 179.247 109.625 179.902 109.461 180.066H109.051C108.969 179.984 108.887 179.821 108.969 179.657C108.969 179.411 109.461 179.247 109.543 179.247ZM127.836 170.079L129.969 174.336L128.492 173.762V179.902L127.016 179.411V173.435L125.621 172.944L127.836 170.16V170.079ZM103.309 160.746L103.555 174.581L117.828 179.493L117.664 165.494L103.309 160.746ZM122.996 168.441L125.129 172.698L123.652 172.207V178.347L122.176 177.774V171.798L120.699 171.307L122.996 168.523V168.441ZM106.508 163.529L107.656 163.939L108.23 165.903L107.574 165.822L109.297 169.997L108.477 166.558H108.969L108.395 164.102L114.465 166.149V169.424C114.465 170.652 113.07 172.289 111.184 171.47V174.745L113.891 176.546L107.328 174.254L109.953 174.417V171.143C107.984 170.57 106.672 168.278 106.672 166.886L106.508 163.529Z" fill="#322214"/>
<path d="M138.992 130.865C138.664 130.865 138.418 131.275 138.418 131.684L55.3203 108.762C55.3203 108.598 55.4844 108.516 55.5664 108.434L54.8281 107.042L23 89.1139L23.2461 88.459L109.133 110.317L137.516 128.655C138.582 129.31 138.664 130.047 138.664 130.701C138.664 130.865 138.91 130.865 138.992 130.865Z" fill="url(#paint10_linear_201_355)"/>
<path d="M200.926 101.557C200.27 102.212 200.023 102.949 200.105 103.276L139.73 131.766H139.648C139.648 131.193 139.32 130.947 139.074 130.865L139.32 130.783C139.358 130.525 139.441 130.276 139.566 130.046C139.73 129.719 139.977 129.228 140.387 128.9L140.469 128.737L173.281 98.119L232.672 72.9863L233 73.4775L200.926 101.557Z" fill="#CD9C6B"/>
<path d="M101.75 138.315H101.832L101.586 121.614C101.586 121.123 101.422 119.977 100.766 119.486L70.4141 101.148L56.3047 97.5459L86.9844 115.884C87.7227 116.375 87.8047 117.357 87.8047 118.012L88.2969 134.222V134.303L101.668 138.397L101.75 138.315Z" fill="url(#paint11_linear_201_355)"/>
<path d="M138.992 130.865C138.664 130.865 138.418 131.274 138.418 131.684C138.336 130.865 137.926 129.801 137.434 129.473L108.805 111.054L109.133 110.317L137.516 128.655C138.582 129.31 138.664 130.046 138.664 130.701C138.664 130.865 138.91 130.865 138.992 130.865Z" fill="#D4A271"/>
<path d="M109.133 110.317L108.805 111.054L23 88.9505L23.2461 88.3774L109.133 110.317Z" fill="#DEB37E"/>
<path d="M200.187 103.277L196.906 168.769C196.824 169.26 196.66 169.342 196.168 169.588L138.746 205.936C138.675 206.005 138.591 206.06 138.5 206.099L138.992 130.783C139.156 130.783 139.32 130.947 139.32 130.783V130.702L200.187 103.195V103.277Z" fill="#DBAD77"/>
<path opacity="0.5" d="M196.906 168.769C196.824 169.26 196.66 169.342 196.168 169.588L138.746 205.936C138.675 206.005 138.591 206.06 138.5 206.1V205.854L196.906 168.769Z" fill="url(#paint12_linear_201_355)"/>
<path d="M195.758 140.28L194.445 166.968L175.332 178.838L176.316 151.004L195.758 140.28ZM185.586 159.6L176.07 165.167L175.66 178.265L185.094 172.453L185.586 159.6ZM181.074 165.249V165.658C182.141 165.085 183.207 165.494 183.699 167.377C183.371 166.968 182.797 167.132 182.387 168.032C182.223 167.623 181.402 167.95 181.238 168.687L180.91 168.523L180.664 173.599C180.664 174.09 180.664 174.499 180.09 174.827C179.844 174.991 179.188 175.073 179.27 174.09L179.598 173.845C179.598 174.499 179.68 174.663 180.008 174.418C180.418 174.254 180.336 173.845 180.418 173.517L180.582 168.687C180.336 168.851 180.09 169.096 180.09 169.424C179.926 169.096 179.023 169.342 178.859 170.161C178.613 169.751 177.875 170.161 177.629 170.979C178.121 168.687 179.434 166.722 180.664 165.904V165.494L181.074 165.249ZM194.938 154.115L185.914 159.436L185.34 172.289L194.363 166.722L194.938 154.115ZM192.066 158.454L192.395 158.699L190.426 163.12L192.066 165.412L191.738 165.985L190.098 163.693L188.211 168.114L187.883 167.868L189.934 163.448L188.211 161.074L188.539 160.582L190.18 162.793L192.066 158.454ZM186.57 163.53L187.637 164.839L186.488 167.132V166.149L186.078 166.395V165.085L186.57 164.758V163.611V163.53ZM188.375 161.892L188.129 166.804L187.801 167.132L187.965 162.22L188.375 161.974V161.892ZM190.016 164.512L191 165.658L189.113 166.804L190.098 164.512H190.016ZM180.008 164.921L179.926 165.74L179.68 165.904V165.658C179.68 165.412 180.008 164.839 180.008 164.839V164.921ZM188.785 162.629L189.605 163.693L188.621 165.658L188.785 162.629ZM182.551 163.857C182.551 163.857 182.551 164.43 182.387 164.676C182.387 164.839 182.305 164.921 182.223 164.921C182.141 164.921 182.059 164.839 182.141 164.594L182.551 163.857ZM186.16 146.01L176.562 151.332L176.07 164.758L185.586 159.191L186.16 146.01ZM192.477 159.436L192.312 164.348L191.984 164.594L192.148 159.682L192.477 159.436ZM181.648 163.53C181.648 163.53 181.648 164.021 181.484 164.348L181.32 164.512C181.238 164.512 181.156 164.512 181.238 164.266C181.238 164.021 181.566 163.448 181.648 163.448V163.53ZM191.656 160.828L191.492 164.021L190.672 162.956L191.656 160.828ZM193.707 159.354V160.582L194.117 160.337V161.647L193.625 161.892V163.038L192.559 161.81L193.707 159.354ZM183.207 161.81C183.207 161.81 183.207 162.465 183.043 162.711L182.797 162.956V162.629L183.207 161.81ZM191.164 160.009L190.18 162.302L189.359 161.074L191.164 160.009ZM183.945 148.794L183.863 152.232C183.781 153.378 182.879 155.507 181.484 156.325L181.32 159.518L183.207 159.109L178.695 161.647L180.582 159.927L180.664 156.735C179.516 157.472 178.531 156.162 178.613 154.934V151.823L179.434 151.413L179.762 152.887L179.352 153.215L180.254 155.998L179.926 153.542L180.254 153.133L180.008 151.086L183.945 148.794ZM195.594 140.771L186.406 145.847L185.832 159.027L194.938 153.624L195.594 140.771ZM193.133 152.15V153.706L187.719 156.817V155.261L193.215 152.15H193.133ZM189.359 145.355L190.59 147.811L189.688 148.384L189.441 153.951L188.621 154.442L188.703 148.876L187.883 149.367L189.359 145.355ZM192.395 143.718L193.543 146.174L192.559 146.665L192.395 152.314L191.492 152.805L191.738 147.156L190.918 147.648L192.395 143.718Z" fill="#322214"/>
<path d="M173.691 98.7742L141.207 128.901C140.387 129.801 139.73 131.111 139.73 131.766C139.73 131.766 139.648 131.848 139.648 131.766C139.648 131.275 139.32 130.947 139.074 130.865L139.32 130.784C139.358 130.525 139.441 130.276 139.566 130.047C139.73 129.637 140.059 129.146 140.469 128.737L173.281 98.2012L173.691 98.7742Z" fill="#D7AA77"/>
<path d="M166.555 135.368L166.637 135.45L176.48 130.538V130.374L176.973 114.411C176.973 113.592 177.465 112.773 178.203 112.118L210.523 83.0562L200.68 87.2313L168.113 116.703C167.293 117.521 167.047 118.504 166.965 119.322L166.555 135.368Z" fill="url(#paint13_linear_201_355)"/>
<path d="M173.691 98.7739L233 73.4775L232.672 72.9863L173.199 98.119L173.691 98.7739Z" fill="#F8CE93"/>
</g>
<defs>
<linearGradient id="paint0_linear_201_355" x1="3019.84" y1="2016.36" x2="3050.33" y2="2064.02" gradientUnits="userSpaceOnUse">
<stop/>
<stop offset="1" stop-opacity="0"/>
</linearGradient>
<linearGradient id="paint1_linear_201_355" x1="4019.15" y1="1680.81" x2="4015.13" y2="1691.34" gradientUnits="userSpaceOnUse">
<stop/>
<stop offset="1" stop-opacity="0"/>
</linearGradient>
<linearGradient id="paint2_linear_201_355" x1="3799.27" y1="1615.49" x2="4316.31" y2="1833.2" gradientUnits="userSpaceOnUse">
<stop stop-color="#C37A44"/>
<stop offset="0.444" stop-color="#BB713D"/>
<stop offset="0.641" stop-color="#A05728"/>
<stop offset="1" stop-color="#964E23"/>
</linearGradient>
<linearGradient id="paint3_linear_201_355" x1="5837.33" y1="3280.81" x2="4711.95" y2="1699.46" gradientUnits="userSpaceOnUse">
<stop stop-color="#E9B880"/>
<stop offset="1" stop-color="#E4AF76"/>
</linearGradient>
<linearGradient id="paint4_linear_201_355" x1="2597.43" y1="1062.28" x2="2576.43" y2="1004.69" gradientUnits="userSpaceOnUse">
<stop stop-color="#C37A45" stop-opacity="0"/>
<stop offset="0.133" stop-color="#C37A45"/>
<stop offset="0.294" stop-color="#D08D55"/>
<stop offset="0.502" stop-color="#DEA167"/>
<stop offset="0.697" stop-color="#E8AF73"/>
<stop offset="0.863" stop-color="#ECB477"/>
<stop offset="1" stop-color="#ECB477" stop-opacity="0"/>
</linearGradient>
<linearGradient id="paint5_linear_201_355" x1="2702.68" y1="1405.73" x2="1676.54" y2="3774.18" gradientUnits="userSpaceOnUse">
<stop offset="0.088" stop-color="#AF6938"/>
<stop offset="0.483" stop-color="#9A5227"/>
<stop offset="0.779" stop-color="#8D4520"/>
</linearGradient>
<linearGradient id="paint6_linear_201_355" x1="4217.46" y1="2583.61" x2="4815.84" y2="1511.94" gradientUnits="userSpaceOnUse">
<stop offset="0.033" stop-color="#E4AF76"/>
<stop offset="1" stop-color="#E9B880"/>
</linearGradient>
<linearGradient id="paint7_linear_201_355" x1="2981.19" y1="856.56" x2="2988.5" y2="824.05" gradientUnits="userSpaceOnUse">
<stop stop-color="#AF6A38" stop-opacity="0"/>
<stop offset="0.086" stop-color="#AF6A38"/>
<stop offset="0.198" stop-color="#B87542"/>
<stop offset="0.583" stop-color="#D59C66"/>
<stop offset="0.777" stop-color="#E4AF76"/>
<stop offset="0.924" stop-color="#E4AF76" stop-opacity="0"/>
</linearGradient>
<linearGradient id="paint8_linear_201_355" x1="143.012" y1="1755.48" x2="387.055" y2="1755.48" gradientUnits="userSpaceOnUse">
<stop stop-color="#743F1A" stop-opacity="0"/>
<stop offset="0.493" stop-color="#743F1A" stop-opacity="0.9"/>
<stop offset="0.5" stop-color="#743F1A" stop-opacity="0.9"/>
<stop offset="0.53" stop-color="#743F1A" stop-opacity="0.8"/>
<stop offset="1" stop-color="#743F1A" stop-opacity="0"/>
</linearGradient>
<linearGradient id="paint9_linear_201_355" x1="4033.5" y1="1685.31" x2="4035.49" y2="1680.04" gradientUnits="userSpaceOnUse">
<stop stop-color="#322214"/>
<stop offset="0.24" stop-color="#322314"/>
<stop offset="1" stop-color="#322214" stop-opacity="0"/>
</linearGradient>
<linearGradient id="paint10_linear_201_355" x1="5985" y1="2171.9" x2="5919.79" y2="2392.24" gradientUnits="userSpaceOnUse">
<stop offset="0.048" stop-color="#C69866"/>
<stop offset="0.416" stop-color="#BA8C5E"/>
<stop offset="0.813" stop-color="#B5875B"/>
</linearGradient>
<linearGradient id="paint11_linear_201_355" x1="2924.53" y1="2009.36" x2="1380.83" y2="293.474" gradientUnits="userSpaceOnUse">
<stop stop-color="#845F35"/>
<stop offset="0.431" stop-color="#91673C"/>
<stop offset="0.441" stop-color="#976A40"/>
<stop offset="0.874" stop-color="#986B40"/>
<stop offset="1" stop-color="#AB8157"/>
</linearGradient>
<linearGradient id="paint12_linear_201_355" x1="3058.81" y1="2035.3" x2="3062.2" y2="2040.6" gradientUnits="userSpaceOnUse">
<stop stop-color="#322214" stop-opacity="0"/>
<stop offset="1" stop-color="#322214"/>
</linearGradient>
<linearGradient id="paint13_linear_201_355" x1="2175.93" y1="3362.91" x2="2472.31" y2="1855.02" gradientUnits="userSpaceOnUse">
<stop stop-color="#A9794B"/>
<stop offset="0.386" stop-color="#AE7F53"/>
<stop offset="0.456" stop-color="#AC7D50"/>
<stop offset="0.624" stop-color="#A9794B"/>
<stop offset="1" stop-color="#B2875D"/>
</linearGradient>
<clipPath id="clip0_201_355">
<rect width="210" height="158" fill="white" transform="translate(23 49)"/>
</clipPath>
</defs>
</svg>
