<svg width="256" height="256" viewBox="0 0 256 256" fill="none" xmlns="http://www.w3.org/2000/svg">
<rect width="256" height="256" fill="#232932"/>
<path d="M126.965 197.043L68.7617 163.449C68.4064 163.242 68.1114 162.945 67.9059 162.589C67.7003 162.233 67.5914 161.829 67.5898 161.418V109.543C67.5898 108.644 68.5664 108.078 69.3477 108.527L136.926 147.551C137.863 148.098 139.055 147.414 139.055 146.32V121.008C139.055 119.992 138.508 119.074 137.648 118.566L56.3203 71.5936C55.9622 71.3827 55.5542 71.2715 55.1387 71.2715C54.7231 71.2715 54.3151 71.3827 53.957 71.5936L43.3125 77.746C42.9572 77.9532 42.6622 78.2496 42.4566 78.6059C42.2511 78.9622 42.1422 79.3659 42.1406 79.7772V176.203C42.1406 177.043 42.5898 177.824 43.3125 178.234L126.809 226.437C127.167 226.648 127.575 226.76 127.99 226.76C128.406 226.76 128.814 226.648 129.172 226.437L199.289 185.949C200.227 185.402 200.227 184.055 199.289 183.508L177.414 170.871C176.984 170.622 176.495 170.49 175.998 170.49C175.501 170.49 175.012 170.622 174.582 170.871L129.309 197.004C128.951 197.215 128.543 197.326 128.127 197.326C127.711 197.326 127.303 197.215 126.945 197.004L126.965 197.043ZM212.687 77.746L129.172 29.5429C128.814 29.3319 128.406 29.2207 127.99 29.2207C127.575 29.2207 127.167 29.3319 126.809 29.5429L82.668 55.0311C81.7305 55.578 81.7305 56.9257 82.668 57.4726L104.348 69.9921C105.227 70.4999 106.301 70.4999 107.18 69.9921L126.945 58.5858C127.303 58.3749 127.711 58.2637 128.127 58.2637C128.543 58.2637 128.951 58.3749 129.309 58.5858L187.512 92.1796C188.234 92.6093 188.684 93.371 188.684 94.2108V146.359C188.684 147.375 189.23 148.293 190.09 148.801L211.73 161.301C212.668 161.848 213.859 161.164 213.859 160.07V79.7968C213.86 79.385 213.752 78.9803 213.546 78.6236C213.341 78.2669 213.044 77.9709 212.687 77.7655V77.746Z" fill="white"/>
</svg>
