<svg width="256" height="256" viewBox="0 0 256 256" fill="none" xmlns="http://www.w3.org/2000/svg">
<rect width="256" height="256" fill="#011E36"/>
<path d="M54 182.306V72.7153C54 71.9167 54.3431 71.5147 55.0292 71.5147C56.8566 71.5147 58.5248 71.4879 61.0415 71.4291C63.5553 71.3727 66.2708 71.3156 69.1878 71.2577C72.1036 71.201 75.1907 71.144 78.4493 71.086C81.7075 71.0296 84.9374 71.0012 88.1389 71C96.8267 71 104.144 72.0862 110.091 74.2588C115.456 76.0735 120.348 79.0613 124.412 83.0053C127.857 86.424 130.519 90.5493 132.215 95.0966C133.82 99.522 134.633 104.195 134.617 108.902C134.617 118.051 132.501 125.597 128.271 131.541C124.013 137.509 118.027 142.028 111.121 144.49C103.917 147.177 95.9129 148.089 87.11 148.089C84.5937 148.089 82.8214 148.06 81.7932 148.003C80.7643 147.947 79.2211 147.918 77.1631 147.917V182.135C77.193 182.344 77.1737 182.558 77.1067 182.759C77.0397 182.96 76.9269 183.143 76.777 183.292C76.6271 183.442 76.4446 183.555 76.2436 183.622C76.0426 183.689 75.8289 183.708 75.6192 183.678H55.2005C54.3994 183.678 54 183.222 54 182.306ZM77.1631 92.0951V127.839C78.6474 127.955 80.0193 128.012 81.2788 128.011H86.9383C91.1027 127.997 95.2395 127.336 99.2013 126.053C102.599 125.044 105.635 123.079 107.948 120.393C110.177 117.765 111.292 114.106 111.292 109.417C111.383 106.099 110.52 102.826 108.805 99.9844C107.003 97.2365 104.398 95.1109 101.345 93.896C97.3583 92.3465 93.0999 91.6174 88.825 91.7524C86.0806 91.7524 83.6511 91.7807 81.5364 91.8377C79.4192 91.8969 77.9616 91.9826 77.1631 92.0951Z" fill="#31A8FF"/>
<path d="M200.928 121.339C197.705 119.683 194.272 118.472 190.723 117.738C186.813 116.841 182.816 116.381 178.804 116.366C176.634 116.307 174.467 116.567 172.373 117.138C171.039 117.434 169.854 118.194 169.028 119.281C168.469 120.151 168.171 121.163 168.171 122.197C168.202 123.2 168.564 124.165 169.2 124.941C170.201 126.113 171.426 127.075 172.801 127.771C175.246 129.088 177.766 130.262 180.347 131.287C186.103 133.214 191.603 135.834 196.726 139.09C200.216 141.293 203.103 144.328 205.13 147.922C206.834 151.326 207.687 155.093 207.617 158.899C207.719 163.924 206.283 168.861 203.501 173.048C200.522 177.298 196.384 180.602 191.581 182.566C186.377 184.852 179.945 185.996 172.287 185.996C167.421 186.046 162.564 185.586 157.794 184.624C154.037 183.935 150.378 182.783 146.904 181.194C146.529 181.001 146.217 180.704 146.004 180.34C145.792 179.975 145.687 179.558 145.704 179.136V160.614C145.683 160.432 145.712 160.249 145.787 160.083C145.863 159.917 145.982 159.774 146.133 159.67C146.28 159.587 146.449 159.551 146.617 159.566C146.786 159.582 146.946 159.648 147.076 159.756C151.179 162.176 155.634 163.941 160.281 164.987C164.377 166.014 168.579 166.56 172.801 166.616C176.802 166.616 179.746 166.102 181.633 165.073C182.486 164.683 183.207 164.054 183.709 163.263C184.211 162.471 184.473 161.551 184.463 160.614C184.463 159.129 183.606 157.7 181.891 156.326C180.176 154.954 176.689 153.296 171.429 151.352C166.044 149.478 160.938 146.882 156.251 143.635C152.899 141.303 150.138 138.22 148.19 134.631C146.504 131.252 145.651 127.517 145.704 123.74C145.694 119.203 146.941 114.751 149.305 110.878C152.001 106.613 155.872 103.218 160.453 101.102C165.483 98.5883 171.771 97.3307 179.319 97.3289C183.738 97.2933 188.154 97.6087 192.524 98.272C195.689 98.6737 198.783 99.5103 201.718 100.759C201.951 100.826 202.165 100.946 202.343 101.109C202.522 101.273 202.66 101.476 202.747 101.702C202.863 102.121 202.92 102.554 202.919 102.988V120.31C202.93 120.512 202.889 120.713 202.799 120.894C202.709 121.074 202.572 121.228 202.404 121.339C202.175 121.453 201.922 121.513 201.666 121.513C201.41 121.513 201.157 121.453 200.928 121.339Z" fill="#31A8FF"/>
</svg>
