<svg width="256" height="256" viewBox="0 0 256 256" fill="none" xmlns="http://www.w3.org/2000/svg">
<rect width="256" height="256" fill="#2396F3"/>
<path d="M46.4932 74.2923C46.286 74.2923 46.0874 74.21 45.941 74.0635C45.7945 73.9171 45.7122 73.7184 45.7122 73.5113V66.7914C45.7122 64.725 46.5465 62.7432 48.0315 61.2821C49.5165 59.8209 51.5306 59 53.6308 59H68.9957C71.0958 59 73.1099 59.8209 74.5949 61.2821C76.0799 62.7432 76.9142 64.725 76.9142 66.7914V73.5113C76.9142 73.7184 76.8319 73.9171 76.6855 74.0635C76.539 74.21 76.3404 74.2923 76.1333 74.2923H46.4932ZM196.964 121.658C196.966 121.54 196.945 121.422 196.901 121.312C196.858 121.202 196.793 121.102 196.71 121.017C196.627 120.933 196.528 120.865 196.419 120.82C196.31 120.774 196.192 120.75 196.074 120.75H159.75C159.289 120.749 158.837 120.632 158.437 120.41C158.036 120.187 157.701 119.867 157.462 119.479C148.102 104.514 135.129 97.0732 118.541 97.158C111.034 97.1943 104.423 98.7502 98.7084 101.826C90.1723 106.421 85.2687 112.323 79.8019 120.006C79.6335 120.236 79.4126 120.423 79.157 120.553C78.9014 120.682 78.6184 120.75 78.3308 120.75H40.5906C40.2968 120.75 40.015 120.869 39.8072 121.08C39.5994 121.291 39.4827 121.578 39.4827 121.876V187.985C39.4827 188.173 39.5573 188.353 39.6902 188.486C39.823 188.619 40.0032 188.694 40.191 188.694H202.594C202.864 188.694 203.122 188.801 203.313 188.991C203.504 189.182 203.611 189.441 203.611 189.711V195.468C203.611 195.704 203.517 195.93 203.35 196.097C203.184 196.264 202.957 196.358 202.721 196.358H41.3171C40.895 196.358 40.4738 196.303 40.0639 196.194C36.0804 195.129 33.459 192.616 32.1998 188.657C32.0795 188.308 32.0181 187.946 32.0182 187.586C32.0182 185.673 32.0122 153.23 32 90.2565C31.9819 80.8487 37.5394 78.8509 46.2571 78.8509C143.931 78.8751 193.392 78.8932 194.639 78.9054C202.83 78.9235 205.355 85.2075 205.173 93.0171C205.04 99.1073 205.094 114.648 205.336 139.638C205.337 140.157 205.171 140.661 204.864 141.073L201.304 145.85C201.233 145.947 201.143 146.028 201.039 146.088C200.935 146.148 200.82 146.187 200.701 146.2C200.581 146.214 200.46 146.203 200.345 146.167C200.231 146.132 200.124 146.073 200.033 145.995C197.951 144.179 196.915 142.417 196.927 140.71C196.94 129.232 196.952 122.881 196.964 121.658ZM189.705 92.8053C189.705 92.7242 189.689 92.6439 189.658 92.5691C189.626 92.4942 189.581 92.4262 189.523 92.3689C189.466 92.3117 189.398 92.2663 189.323 92.2354C189.248 92.2045 189.168 92.1886 189.087 92.1887L155.669 92.2472C155.588 92.2473 155.507 92.2635 155.433 92.2946C155.358 92.3258 155.29 92.3714 155.232 92.4288C155.175 92.4863 155.13 92.5544 155.099 92.6294C155.068 92.7044 155.052 92.7847 155.052 92.8658L155.077 106.887C155.077 106.968 155.093 107.048 155.124 107.123C155.155 107.198 155.201 107.266 155.258 107.323C155.316 107.38 155.384 107.426 155.459 107.456C155.534 107.487 155.614 107.503 155.695 107.503L189.113 107.445C189.194 107.445 189.274 107.428 189.349 107.397C189.424 107.366 189.492 107.32 189.549 107.263C189.607 107.206 189.652 107.137 189.683 107.062C189.714 106.987 189.73 106.907 189.729 106.826L189.705 92.8053ZM91.0986 100.5C91.0986 98.3129 90.2299 96.2157 88.6836 94.6693C87.1372 93.123 85.04 92.2543 82.8531 92.2543C80.6663 92.2543 78.569 93.123 77.0227 94.6693C75.4764 96.2157 74.6077 98.3129 74.6077 100.5C74.6077 102.687 75.4764 104.784 77.0227 106.33C78.569 107.876 80.6663 108.745 82.8531 108.745C85.04 108.745 87.1372 107.876 88.6836 106.33C90.2299 104.784 91.0986 102.687 91.0986 100.5Z" fill="white"/>
<path d="M189.086 92.1889L155.669 92.2472C155.328 92.2478 155.052 92.5248 155.052 92.8658L155.077 106.887C155.077 107.228 155.354 107.504 155.695 107.503L189.113 107.445C189.454 107.444 189.73 107.167 189.73 106.826L189.705 92.8053C189.704 92.4643 189.427 92.1883 189.086 92.1889Z" fill="#2196F3"/>
<path d="M82.8529 108.745C87.4067 108.745 91.0984 105.054 91.0984 100.5C91.0984 95.946 87.4067 92.2544 82.8529 92.2544C78.299 92.2544 74.6074 95.946 74.6074 100.5C74.6074 105.054 78.299 108.745 82.8529 108.745Z" fill="#2196F3"/>
<path d="M160.84 140.874C160.84 152.001 156.42 162.672 148.552 170.54C140.684 178.407 130.013 182.828 118.886 182.828C107.76 182.828 97.0885 178.407 89.2206 170.54C81.3527 162.672 76.9326 152.001 76.9326 140.874C76.9326 129.747 81.3527 119.076 89.2206 111.208C97.0885 103.34 107.76 98.9199 118.886 98.9199C130.013 98.9199 140.684 103.34 148.552 111.208C156.42 119.076 160.84 129.747 160.84 140.874ZM146.165 140.801C146.165 133.566 143.291 126.628 138.176 121.512C133.06 116.396 126.121 113.522 118.886 113.522C111.652 113.522 104.713 116.396 99.5972 121.512C94.4814 126.628 91.6074 133.566 91.6074 140.801C91.6074 148.036 94.4814 154.974 99.5972 160.09C104.713 165.206 111.652 168.08 118.886 168.08C126.121 168.08 133.06 165.206 138.176 160.09C143.291 154.974 146.165 148.036 146.165 140.801Z" fill="white"/>
<path d="M118.886 168.08C133.952 168.08 146.165 155.867 146.165 140.801C146.165 125.735 133.952 113.522 118.886 113.522C103.82 113.522 91.6069 125.735 91.6069 140.801C91.6069 155.867 103.82 168.08 118.886 168.08Z" fill="#2196F3"/>
<path d="M209.495 162.577C216.397 162.177 222.227 163.424 226.985 166.318C232.615 169.733 234.558 175.653 227.221 178.596C218.976 181.901 209.677 178.123 203.03 172.094C202.552 171.652 202.191 171.11 201.976 170.513C201.334 168.661 201.449 166.996 202.321 165.519C202.556 165.12 202.66 164.656 202.619 164.194C202.578 163.731 202.394 163.294 202.094 162.945C201.793 162.596 201.392 162.353 200.946 162.251C200.501 162.149 200.035 162.193 199.615 162.377C198.562 162.849 198.271 163.763 198.743 165.119C199.179 166.403 199.5 167.359 199.706 167.989C199.821 168.329 199.868 168.688 199.843 169.046C199.818 169.405 199.722 169.755 199.561 170.078C195.529 178.087 181.599 182.391 173.589 178.396C168.849 176.035 168.141 172.021 171.991 168.225C176.459 163.812 185.903 161.905 191.406 162.813C191.699 162.863 191.999 162.801 192.248 162.64C192.498 162.478 192.677 162.229 192.75 161.941L193.604 158.672C193.659 158.469 193.665 158.256 193.621 158.051C193.577 157.845 193.483 157.653 193.349 157.491L175.478 134.989C175.087 134.489 174.87 133.875 174.86 133.242C174.851 132.609 175.048 131.991 175.424 131.484L178.075 127.924C178.203 127.752 178.367 127.61 178.557 127.51C178.746 127.409 178.956 127.352 179.17 127.344C179.385 127.335 179.598 127.374 179.795 127.459C179.992 127.544 180.168 127.672 180.309 127.833L199.488 149.845C199.588 149.96 199.713 150.051 199.853 150.112C199.992 150.174 200.144 150.204 200.298 150.2C200.452 150.197 200.604 150.16 200.743 150.092C200.882 150.025 201.005 149.928 201.104 149.809L218.921 127.942C219.065 127.765 219.248 127.623 219.454 127.526C219.661 127.429 219.887 127.379 220.115 127.381C220.343 127.383 220.568 127.436 220.774 127.536C220.979 127.636 221.159 127.781 221.3 127.96L223.897 131.229C224.35 131.801 224.601 132.507 224.611 133.236C224.621 133.965 224.389 134.677 223.952 135.261L207.624 157.219C207.475 157.42 207.369 157.649 207.313 157.893C207.257 158.137 207.252 158.39 207.298 158.636L207.824 161.287C207.902 161.667 208.114 162.006 208.42 162.242C208.727 162.479 209.108 162.598 209.495 162.577ZM194.53 168.096C194.097 166.652 192.597 165.592 190.359 165.151C188.121 164.709 185.33 164.921 182.599 165.741C181.246 166.146 179.949 166.689 178.782 167.337C177.615 167.986 176.6 168.728 175.795 169.52C174.99 170.313 174.412 171.14 174.092 171.956C173.773 172.772 173.719 173.56 173.934 174.275C174.367 175.719 175.867 176.779 178.105 177.22C180.343 177.662 183.134 177.45 185.866 176.63C187.218 176.225 188.515 175.682 189.682 175.034C190.85 174.385 191.865 173.643 192.669 172.851C193.474 172.058 194.052 171.231 194.372 170.415C194.691 169.599 194.745 168.811 194.53 168.096ZM206.682 167.857C206.257 169.283 206.955 170.981 208.623 172.576C210.29 174.172 212.791 175.534 215.574 176.364C216.952 176.775 218.359 177.042 219.713 177.152C221.067 177.261 222.342 177.21 223.465 177.001C224.589 176.792 225.538 176.43 226.26 175.934C226.982 175.439 227.462 174.821 227.673 174.114C228.098 172.688 227.4 170.991 225.732 169.395C224.065 167.8 221.564 166.437 218.781 165.608C217.403 165.197 215.996 164.929 214.643 164.82C213.289 164.71 212.014 164.762 210.89 164.97C209.767 165.179 208.817 165.542 208.095 166.037C207.373 166.532 206.893 167.151 206.682 167.857Z" fill="white"/>
<path d="M185.866 176.631C191.554 174.924 195.433 171.103 194.531 168.096C193.629 165.089 188.287 164.035 182.599 165.741C176.911 167.447 173.032 171.268 173.934 174.275C174.837 177.283 180.179 178.337 185.866 176.631Z" fill="#2196F3"/>
<path d="M218.783 165.608C212.986 163.881 207.57 164.888 206.684 167.858C205.799 170.828 209.78 174.637 215.576 176.365C221.372 178.093 226.789 177.086 227.675 174.115C228.56 171.145 224.579 167.336 218.783 165.608Z" fill="#2196F3"/>
</svg>
