<svg width="256" height="256" viewBox="0 0 256 256" fill="none" xmlns="http://www.w3.org/2000/svg">
<g clip-path="url(#clip0_14_53)">
<rect width="256" height="256" fill="#242932"/>
<g clip-path="url(#clip1_14_53)">
<mask id="mask0_14_53" style="mask-type:luminance" maskUnits="userSpaceOnUse" x="0" y="0" width="256" height="256">
<path d="M0 0H256V256H0V0Z" fill="white"/>
</mask>
<g mask="url(#mask0_14_53)">
<mask id="mask1_14_53" style="mask-type:luminance" maskUnits="userSpaceOnUse" x="53" y="16" width="150" height="224">
<path d="M53 16H203V240H53V16Z" fill="white"/>
</mask>
<g mask="url(#mask1_14_53)">
<path fill-rule="evenodd" clip-rule="evenodd" d="M121.463 124.778C136.641 110.336 132.013 92.4781 118.271 70.8391C104.53 49.2011 76.8628 41.5061 71.7008 46.4181C66.5378 51.3301 65.3888 86.4431 79.1308 108.082C92.8708 129.72 106.284 139.22 121.463 124.778Z" fill="url(#paint0_linear_14_53)"/>
<path fill-rule="evenodd" clip-rule="evenodd" d="M134.584 126.783C145.808 144.457 160.817 137.992 179.397 120.313C197.977 102.634 205.686 68.774 201.869 62.763C198.052 56.752 169.034 57.057 150.454 74.736C131.874 92.415 123.36 109.109 134.584 126.783Z" fill="url(#paint1_linear_14_53)"/>
<path fill-rule="evenodd" clip-rule="evenodd" d="M128.444 117.059C147.08 119.342 154.412 102.14 157.834 74.3371C161.255 46.5341 147.173 17.1501 140.834 16.3741C134.496 15.5971 113.196 40.6461 109.775 68.4501C106.353 96.2531 109.807 114.775 128.444 117.059Z" fill="url(#paint2_linear_14_53)"/>
<path fill-rule="evenodd" clip-rule="evenodd" d="M123.756 240C162.84 240 194.536 228.661 194.536 177.24C194.536 125.819 162.84 83.623 123.756 83.623C84.672 83.623 53 125.819 53 177.24C53 228.661 84.671 240 123.756 240Z" fill="url(#paint3_linear_14_53)"/>
<path d="M159.505 166.742C165.088 166.742 169.614 164.64 169.614 162.046C169.614 159.452 165.088 157.35 159.505 157.35C153.922 157.35 149.395 159.453 149.395 162.046C149.395 164.64 153.921 166.742 159.505 166.742ZM84.6368 163.889C90.1788 164.569 94.9278 163.033 95.2438 160.459C95.5608 157.885 91.3248 155.247 85.7838 154.567C80.2408 153.888 75.4918 155.424 75.1758 157.998C74.8598 160.572 79.0958 163.21 84.6368 163.889Z" fill="#EAADCC"/>
<path d="M130.232 160.383C127.19 162.853 123.675 163.86 119.689 163.405C115.703 162.95 112.748 161.298 110.825 158.447" stroke="black" stroke-width="3" stroke-linecap="round" stroke-linejoin="round"/>
<path fill-rule="evenodd" clip-rule="evenodd" d="M91.0788 135.944C93.8688 135.847 96.4348 136.888 98.3268 138.651C99.2989 139.554 100.083 140.64 100.634 141.846C101.184 143.053 101.491 144.357 101.536 145.683C101.584 147.009 101.369 148.33 100.904 149.573C100.439 150.815 99.7324 151.953 98.8258 152.921C97.9205 153.892 96.8328 154.674 95.6248 155.224C94.4168 155.774 93.1123 156.081 91.7858 156.126C90.4591 156.173 89.136 155.959 87.8924 155.494C86.6487 155.03 85.5088 154.324 84.5378 153.419C83.5659 152.516 82.7821 151.43 82.2315 150.223C81.681 149.017 81.3745 147.713 81.3298 146.387C81.2818 145.061 81.4964 143.739 81.9614 142.497C82.4263 141.255 83.1323 140.116 84.0388 139.148C84.9435 138.177 86.0312 137.394 87.2393 136.844C88.4474 136.294 89.7522 135.988 91.0788 135.944Z" fill="black"/>
<path fill-rule="evenodd" clip-rule="evenodd" d="M91.6098 144.384C91.5794 143.512 91.2037 142.687 90.5654 142.092C89.927 141.496 89.0782 141.179 88.2058 141.209C87.3334 141.239 86.5087 141.615 85.9133 142.253C85.3179 142.892 85.0004 143.741 85.0308 144.613C85.0462 145.045 85.1464 145.469 85.3258 145.862C85.5053 146.255 85.7604 146.609 86.0765 146.904C86.3927 147.198 86.7638 147.427 87.1686 147.579C87.5734 147.73 88.004 147.799 88.4358 147.784C89.3075 147.754 90.1315 147.379 90.7266 146.741C91.3218 146.104 91.6395 145.256 91.6098 144.384Z" fill="white"/>
<path fill-rule="evenodd" clip-rule="evenodd" d="M152.335 138.507C155.125 138.41 157.69 139.451 159.582 141.213C160.554 142.116 161.338 143.202 161.889 144.408C162.44 145.615 162.746 146.919 162.791 148.245C162.839 149.571 162.625 150.893 162.16 152.135C161.695 153.377 160.989 154.516 160.082 155.484C159.177 156.455 158.09 157.238 156.881 157.788C155.673 158.338 154.368 158.644 153.041 158.688C151.714 158.736 150.391 158.522 149.148 158.057C147.904 157.593 146.764 156.887 145.794 155.981C144.822 155.078 144.038 153.992 143.487 152.785C142.937 151.579 142.63 150.275 142.585 148.949C142.537 147.623 142.752 146.302 143.217 145.059C143.682 143.817 144.388 142.679 145.294 141.711C146.199 140.74 147.287 139.956 148.495 139.407C149.703 138.857 151.008 138.551 152.335 138.507Z" fill="black"/>
<path d="M100.126 145.732C100.294 150.528 96.5378 154.551 91.7358 154.718C86.9358 154.885 82.9078 151.133 82.7398 146.337C82.5718 141.541 86.3268 137.519 91.1278 137.352C95.9288 137.185 99.9578 140.936 100.126 145.732ZM102.945 145.634C102.723 139.283 97.3878 134.314 91.0288 134.536C84.6708 134.757 79.6978 140.084 79.9208 146.435C80.1438 152.786 85.4768 157.755 91.8348 157.534C98.1938 157.313 103.168 151.985 102.945 145.634ZM161.381 148.295C161.549 153.091 157.794 157.114 152.993 157.281C148.192 157.448 144.163 153.696 143.995 148.9C143.827 144.104 147.583 140.081 152.384 139.914C157.185 139.747 161.213 143.499 161.381 148.295ZM164.201 148.197C163.978 141.846 158.644 136.877 152.285 137.098C145.927 137.32 140.953 142.647 141.176 148.998C141.398 155.349 146.733 160.318 153.091 160.097C159.45 159.875 164.423 154.548 164.201 148.197Z" fill="white" stroke="white" stroke-width="1.5"/>
<path fill-rule="evenodd" clip-rule="evenodd" d="M152.865 146.947C152.834 146.075 152.458 145.251 151.82 144.657C151.181 144.062 150.333 143.745 149.461 143.776C149.025 143.784 148.594 143.878 148.194 144.054C147.795 144.23 147.434 144.484 147.134 144.801C146.834 145.117 146.599 145.491 146.445 145.899C146.29 146.307 146.218 146.742 146.233 147.178C146.249 147.615 146.351 148.044 146.534 148.44C146.716 148.837 146.976 149.193 147.298 149.488C147.62 149.782 147.997 150.01 148.408 150.158C148.819 150.306 149.255 150.37 149.691 150.347C150.563 150.317 151.387 149.942 151.982 149.304C152.577 148.666 152.895 147.819 152.865 146.947Z" fill="white"/>
<path d="M70.1631 182.004L104.959 218.163M100.257 186.23L78.1571 209.711M176.903 182.004L142.107 218.163M146.809 186.23L168.909 209.711" stroke="#ECB732" stroke-width="5.5" stroke-linecap="round"/>
<path d="M137.875 102.172L114.834 125.182M133.173 125.182L110.132 102.172" stroke="#FFC73B" stroke-width="5.5" stroke-linecap="round"/>
</g>
</g>
</g>
</g>
<defs>
<linearGradient id="paint0_linear_14_53" x1="7650.74" y1="-5867.43" x2="13921.9" y2="11695.8" gradientUnits="userSpaceOnUse">
<stop stop-color="#52CE63"/>
<stop offset="1" stop-color="#51A256"/>
</linearGradient>
<linearGradient id="paint1_linear_14_53" x1="6131.59" y1="7642.74" x2="-11449.7" y2="13929.1" gradientUnits="userSpaceOnUse">
<stop stop-color="#52CE63"/>
<stop offset="1" stop-color="#51A256"/>
</linearGradient>
<linearGradient id="paint2_linear_14_53" x1="7781.96" y1="952.47" x2="4321.49" y2="29199.5" gradientUnits="userSpaceOnUse">
<stop stop-color="#8AE99C"/>
<stop offset="1" stop-color="#52CE63"/>
</linearGradient>
<linearGradient id="paint3_linear_14_53" x1="23250" y1="13116.7" x2="19508.6" y2="74634.6" gradientUnits="userSpaceOnUse">
<stop stop-color="#FFE56C"/>
<stop offset="1" stop-color="#FFC63A"/>
</linearGradient>
<clipPath id="clip0_14_53">
<rect width="256" height="256" fill="white"/>
</clipPath>
<clipPath id="clip1_14_53">
<rect width="256" height="256" fill="white"/>
</clipPath>
</defs>
</svg>
