<svg width="256" height="256" viewBox="0 0 256 256" fill="none" xmlns="http://www.w3.org/2000/svg">
<rect width="256" height="256" fill="#CBA6F7"/>
<path d="M70.4124 209.981V121.615C70.4124 118.268 71.728 115.058 74.07 112.691C76.412 110.323 79.5887 108.992 82.902 108.989H152.712C156.026 108.991 159.204 110.323 161.547 112.691L179.216 130.539C181.56 132.905 182.878 136.115 182.88 139.463V209.981C182.88 213.329 181.563 216.541 179.219 218.909C176.875 221.276 173.696 222.607 170.381 222.607H82.9068C79.5918 222.607 76.4126 221.276 74.0686 218.909C71.7246 216.541 70.4077 213.329 70.4077 209.981H70.4124Z" stroke="#242932" stroke-width="7"/>
<path d="M106.968 72.1453C94.4213 58.3335 76.4729 54.4358 72.5622 58.1852C68.9166 61.686 62.2126 87.3105 78.1015 110.788M167.394 120.472C183.439 105.073 190.091 75.5695 186.791 70.3327C183.903 65.7415 162.494 67.5111 146.955 77.7743M105.401 139.239H147.893C148.886 139.239 149.839 138.84 150.542 138.131C151.246 137.422 151.641 136.459 151.642 135.456V112.777C151.642 111.773 151.247 110.809 150.544 110.099C149.841 109.389 148.887 108.989 147.893 108.989H105.401C104.406 108.989 103.452 109.389 102.749 110.099C102.046 110.809 101.651 111.773 101.651 112.777V135.456C101.652 136.459 102.048 137.422 102.751 138.131C103.454 138.84 104.407 139.239 105.401 139.239ZM89.1519 191.105V222.612H164.137V191.105C164.137 190.1 163.742 189.137 163.038 188.426C162.335 187.716 161.381 187.317 160.387 187.317H92.9016C91.9071 187.317 90.9533 187.716 90.2501 188.426C89.5469 189.137 89.1519 190.1 89.1519 191.105Z" stroke="#242932" stroke-width="7"/>
<path d="M140.895 107.741C141.69 105.713 143.381 101.223 144.01 98.8314C145.27 94.049 146.217 88.573 146.955 82.5184C149.909 58.2952 137.742 32.6946 132.264 32.0154C126.786 31.3363 108.393 53.154 105.438 77.382C103.966 89.4913 103.933 99.4149 106.319 106.723" stroke="#242932" stroke-width="7"/>
<path d="M135.318 173.476C132.254 175.992 128.713 177.015 124.703 176.551C120.688 176.092 117.715 174.409 115.778 171.506" stroke="#242932" stroke-width="7" stroke-linecap="round" stroke-linejoin="round"/>
<path d="M96.2297 169.206C101.838 169.206 106.385 164.613 106.385 158.947C106.385 153.282 101.838 148.689 96.2297 148.689C90.621 148.689 86.0742 153.282 86.0742 158.947C86.0742 164.613 90.621 169.206 96.2297 169.206Z" stroke="#242932" stroke-width="7" stroke-linecap="round" stroke-linejoin="round"/>
<path d="M98.8478 161.86C100.678 161.86 102.162 160.361 102.162 158.512C102.162 156.663 100.678 155.164 98.8478 155.164C97.0175 155.164 95.5337 156.663 95.5337 158.512C95.5337 160.361 97.0175 161.86 98.8478 161.86Z" fill="#242932"/>
<path d="M155.402 163.859C157.232 163.859 158.716 162.36 158.716 160.511C158.716 158.662 157.232 157.163 155.402 157.163C153.571 157.163 152.087 158.662 152.087 160.511C152.087 162.36 153.571 163.859 155.402 163.859Z" fill="#242932"/>
<path d="M157.897 171.559C163.505 171.559 168.052 166.966 168.052 161.3C168.052 155.635 163.505 151.042 157.897 151.042C152.288 151.042 147.741 155.635 147.741 161.3C147.741 166.966 152.288 171.559 157.897 171.559Z" stroke="#242932" stroke-width="7" stroke-linecap="round" stroke-linejoin="round"/>
</svg>
