<svg width="256" height="256" viewBox="0 0 256 256" fill="none" xmlns="http://www.w3.org/2000/svg">
<rect width="256" height="256" fill="#232932"/>
<g clip-path="url(#clip0_262_51)">
<path d="M228 128C228 154.522 217.464 179.957 198.711 198.711C179.957 217.464 154.522 228 128 228L228 128ZM128 28C168.625 28 203.547 52.2188 219.25 86.9844L86.9843 219.25C81.2812 216.672 75.8906 213.625 70.8125 210.109L153 128H128L57.2968 198.703C43.3146 184.718 33.793 166.901 29.9357 147.505C26.0784 128.109 28.0587 108.004 35.6263 89.7337C43.1938 71.4629 56.0087 55.8462 72.4508 44.8578C88.893 33.8695 108.224 28.003 128 28Z" fill="white"/>
</g>
<defs>
<clipPath id="clip0_262_51">
<rect width="200" height="200" fill="white" transform="translate(28 28)"/>
</clipPath>
</defs>
</svg>
