<svg width="256" height="256" viewBox="0 0 256 256" fill="none" xmlns="http://www.w3.org/2000/svg">
<rect width="256" height="256" fill="#232932"/>
<path d="M93.9221 137.65C86.4561 139.769 81.558 143.484 78.3314 147.196C81.4219 144.491 85.5616 142.009 91.1457 140.426C96.8572 138.808 101.73 138.819 105.756 139.596V136.448C102.321 136.134 98.3839 136.384 93.9221 137.65ZM77.9902 111.184L50.2629 118.489C50.2629 118.489 50.7682 119.202 51.7039 120.155L75.2132 113.96C75.2132 113.96 74.88 118.253 71.987 122.093C77.4595 117.953 77.9902 111.184 77.9902 111.184ZM101.2 176.348C62.1801 186.857 41.536 141.637 35.2859 118.166C32.3982 107.332 31.1376 99.1272 30.8016 93.8323C30.7656 93.2824 30.7822 92.8189 30.8211 92.3942C28.797 92.5165 27.8279 93.5686 28.0251 96.6092C28.3611 101.901 29.6216 110.106 32.5093 120.943C38.7567 144.411 59.4035 189.631 98.4233 179.121C106.917 176.833 113.297 172.666 118.087 167.346C113.672 171.333 108.147 174.473 101.2 176.348ZM108.532 83.5088V86.2858H123.837C123.523 85.3026 123.207 84.4167 122.893 83.5088H108.532Z" fill="#2D4552"/>
<path d="M127.258 106.379C134.141 108.334 137.781 113.16 139.706 117.43L147.38 119.61C147.38 119.61 146.333 104.664 132.814 100.824C120.166 97.2303 112.383 107.851 111.437 109.225C115.116 106.604 120.489 104.458 127.258 106.379ZM188.349 117.499C175.69 113.89 167.91 124.533 166.977 125.888C170.659 123.27 176.029 121.123 182.795 123.053C189.668 125.011 193.305 129.83 195.235 134.104L202.92 136.292C202.92 136.292 201.857 121.342 188.349 117.499ZM180.724 156.908L116.882 139.06C116.882 139.06 117.573 142.564 120.225 147.101L173.977 162.128C178.403 159.568 180.724 156.908 180.724 156.908ZM136.462 195.325C85.9114 181.772 92.0228 117.364 100.203 86.8431C103.57 74.2652 107.033 64.9164 109.904 58.6496C108.191 58.297 106.772 59.1994 105.37 62.051C102.321 68.2344 98.4227 78.3024 94.6497 92.3965C86.4723 122.917 80.3609 187.323 130.909 200.876C154.735 207.259 173.296 197.558 187.133 182.322C173.999 194.217 157.231 200.887 136.462 195.325Z" fill="#2D4552"/>
<path d="M108.532 161.253V148.256L72.4201 158.496C72.4201 158.496 75.0885 142.992 93.922 137.649C99.6335 136.031 104.507 136.042 108.532 136.819V83.5082H126.614C124.645 77.4247 122.741 72.741 121.141 69.4866C118.495 64.1 115.782 67.6708 109.624 72.8215C105.287 76.445 94.3246 84.1751 77.829 88.6201C61.3331 93.0681 47.9971 91.8885 42.4328 90.9249C34.5444 89.564 30.4184 87.8316 30.8044 93.8317C31.1403 99.1238 32.4009 107.329 35.2886 118.166C41.5359 141.634 62.1827 186.854 101.202 176.344C111.395 173.598 118.589 168.17 123.576 161.251H108.532V161.253ZM50.26 118.488L77.9901 111.183C77.9901 111.183 77.1818 121.851 66.7863 124.591C56.3879 127.329 50.26 118.488 50.26 118.488Z" fill="#E2574C"/>
<path d="M212.894 84.125C205.686 85.3887 188.393 86.9629 167.022 81.2345C145.645 75.5096 131.461 65.4969 125.842 60.7906C117.876 54.1184 114.372 49.4814 110.923 56.4952C107.875 62.6814 103.976 72.7494 100.203 86.8435C92.0257 117.364 85.9143 181.77 136.462 195.323C187 208.864 213.904 150.028 222.082 119.505C225.855 105.413 227.51 94.7428 227.965 87.8626C228.485 80.0688 223.131 82.3313 212.894 84.125ZM111.334 109.376C111.334 109.376 119.3 96.9862 132.811 100.826C146.33 104.667 147.377 119.613 147.377 119.613L111.334 109.376ZM144.315 164.972C120.55 158.01 116.885 139.06 116.885 139.06L180.724 156.908C180.724 156.906 167.838 171.846 144.315 164.972ZM166.886 126.027C166.886 126.027 174.841 113.646 188.349 117.497C201.857 121.343 202.92 136.289 202.92 136.289L166.886 126.027Z" fill="#2EAD33"/>
<path d="M95.9126 151.835L72.4199 158.494C72.4199 158.494 74.9719 143.956 92.2781 138.194L78.9754 88.271L77.8259 88.6204C61.3302 93.0689 47.9941 91.8887 42.4298 90.9252C34.5415 89.5648 30.4155 87.8318 30.8014 93.8325C31.1374 99.1246 32.398 107.329 35.2856 118.167C41.533 141.634 62.1798 186.854 101.199 176.344L102.349 175.983L95.9126 151.835ZM50.2599 118.489L77.9899 111.183C77.9899 111.183 77.1817 121.851 66.7862 124.591C56.3878 127.329 50.2599 118.489 50.2599 118.489Z" fill="#D65348"/>
<path d="M145.386 165.232L144.312 164.971C120.547 158.01 116.882 139.06 116.882 139.06L149.801 148.262L167.23 81.2901L167.019 81.2345C145.642 75.5096 131.459 65.4969 125.839 60.7906C117.873 54.1184 114.369 49.4814 110.921 56.4952C107.875 62.6814 103.976 72.7494 100.203 86.8435C92.0257 117.364 85.9143 181.77 136.462 195.322L137.498 195.556L145.386 165.232ZM111.334 109.376C111.334 109.376 119.3 96.9862 132.811 100.826C146.33 104.667 147.377 119.613 147.377 119.613L111.334 109.376Z" fill="#1D8D22"/>
<path d="M97.1098 151.494L90.8096 153.282C92.2981 161.673 94.9215 169.725 99.0392 176.839C99.7559 176.68 100.467 176.544 101.197 176.344C103.11 175.828 104.884 175.189 106.592 174.492C101.991 167.665 98.9476 159.801 97.1098 151.494ZM94.6498 92.3969C91.4122 104.48 88.5158 121.873 89.3131 139.318C90.7401 138.699 92.2476 138.122 93.9221 137.647L95.0884 137.386C93.6666 118.752 96.7402 99.7631 100.203 86.8435C101.08 83.5751 101.96 80.5351 102.838 77.7002C101.425 78.5994 99.903 79.5212 98.1701 80.4708C97.0015 84.0781 95.8213 88.0208 94.6498 92.3969Z" fill="#C04B41"/>
</svg>
