<svg width="256" height="256" viewBox="0 0 256 256" fill="none" xmlns="http://www.w3.org/2000/svg">
<rect width="256" height="256" fill="#0070D1"/>
<g clip-path="url(#clip0_131_792)">
<path d="M32.0525 163.001C24.5493 168.001 27.0558 177.495 43.0388 182.006C59.5265 187.51 77.5115 189.008 95.0082 186.012C96.0011 186.012 97.0102 185.507 97.5148 185.507V168.489L80.5226 173.993C74.0284 175.997 67.5343 176.501 61.0401 174.987C56.0434 173.489 57.0362 170.492 63.0421 167.984L97.5148 155.982V137.499L49.533 153.996C43.5434 155.999 37.5375 158.995 32.0525 163.001ZM147.97 87.9928V136.489C168.462 146.488 184.445 136.489 184.445 110.499C184.445 84.0029 174.956 72.0009 147.466 62.5068C132.98 57.4911 117.99 52.9964 103 50V194.496L137.977 205V83.4981C137.977 77.9938 137.977 74.004 141.981 75.5022C147.482 77.0004 147.97 82.5047 147.97 87.9928ZM212.944 151.488C198.459 146.488 182.964 144.485 167.974 145.983C159.982 146.488 152.479 148.491 145.48 150.983L143.983 151.488V170.997L176.47 158.995C182.964 156.992 189.458 156.487 195.952 158.002C200.949 159.5 199.956 162.496 193.95 165.004L143.983 183.504V202.508L212.944 177.006C217.941 175.003 222.433 172.512 226.437 168.505C229.937 163.49 228.439 156.487 212.944 151.488Z" fill="white"/>
</g>
<defs>
<clipPath id="clip0_131_792">
<rect width="200" height="155" fill="white" transform="translate(28 50)"/>
</clipPath>
</defs>
</svg>
