<svg width="256" height="256" viewBox="0 0 256 256" fill="none" xmlns="http://www.w3.org/2000/svg">
<rect width="256" height="256" fill="#0070D1"/>
<g clip-path="url(#clip0_131_792)">
<path d="M32.0528 163.001C24.5495 168.001 27.056 177.495 43.0391 182.006C59.5267 187.51 77.5117 189.008 95.0085 186.012C96.0013 186.012 97.0104 185.507 97.515 185.507V168.489L80.5228 173.993C74.0287 175.997 67.5345 176.501 61.0404 174.987C56.0436 173.489 57.0365 170.492 63.0423 167.984L97.515 155.982V137.499L49.5332 153.996C43.5436 155.999 37.5378 158.995 32.0528 163.001ZM147.971 87.9928V136.489C168.462 146.488 184.445 136.489 184.445 110.499C184.445 84.0029 174.956 72.0009 147.466 62.5068C132.98 57.4911 117.99 52.9964 103 50V194.496L137.977 205V83.4981C137.977 77.9938 137.977 74.004 141.981 75.5022C147.482 77.0004 147.971 82.5047 147.971 87.9928ZM212.945 151.488C198.459 146.488 182.964 144.485 167.974 145.983C159.982 146.488 152.479 148.491 145.48 150.983L143.983 151.488V170.997L176.47 158.995C182.964 156.992 189.458 156.487 195.953 158.002C200.949 159.5 199.956 162.496 193.951 165.004L143.983 183.504V202.508L212.945 177.006C217.941 175.003 222.434 172.512 226.438 168.505C229.937 163.49 228.439 156.487 212.945 151.488Z" fill="white"/>
</g>
<defs>
<clipPath id="clip0_131_792">
<rect width="200" height="155" fill="white" transform="translate(28 50)"/>
</clipPath>
</defs>
</svg>
