<svg width="256" height="256" viewBox="0 0 256 256" fill="none" xmlns="http://www.w3.org/2000/svg">
<rect width="256" height="256" fill="#232932"/>
<g clip-path="url(#clip0_262_53)">
<path d="M35.3906 161.075C34.5219 161.075 33.6617 160.904 32.859 160.572C32.0564 160.239 31.3271 159.752 30.7127 159.138C30.0984 158.523 29.6111 157.794 29.2786 156.992C28.9461 156.189 28.775 155.329 28.775 154.46V35.3897C28.775 34.521 28.9461 33.6608 29.2786 32.8582C29.6111 32.0556 30.0984 31.3263 30.7127 30.7121C31.3271 30.0978 32.0564 29.6106 32.859 29.2782C33.6617 28.9458 34.5219 28.7748 35.3906 28.7749H154.461C155.33 28.7749 156.19 28.946 156.992 29.2784C157.795 29.6109 158.524 30.0981 159.138 30.7123C159.753 31.3266 160.24 32.0558 160.572 32.8584C160.905 33.6609 161.076 34.5211 161.076 35.3897V94.9249H220.611C222.365 94.9249 224.048 95.6218 225.288 96.8624C226.529 98.1029 227.226 99.7854 227.226 101.54V220.61C227.226 222.364 226.529 224.047 225.288 225.287C224.048 226.528 222.365 227.225 220.611 227.225H101.539C99.7847 227.225 98.1022 226.528 96.8617 225.287C95.6212 224.047 94.9242 222.364 94.9242 220.61V161.075H35.3906Z" fill="white"/>
<path d="M154.46 28H35.3898C33.4299 28.0002 31.5502 28.779 30.1644 30.1649C28.7785 31.5509 28 33.4306 28 35.3906V154.46L28.0031 154.671C28.058 156.594 28.8603 158.419 30.2396 159.76C31.6188 161.1 33.4664 161.851 35.3898 161.851L94.15 161.85V220.61C94.1502 222.57 94.9289 224.45 96.3149 225.836C97.7009 227.221 99.5807 228 101.541 228H220.609C221.58 228 222.541 227.809 223.438 227.437C224.334 227.066 225.149 226.522 225.835 225.835C226.521 225.149 227.066 224.334 227.437 223.438C227.808 222.541 227.999 221.58 227.999 220.609V101.541L227.996 101.33C227.941 99.407 227.139 97.5815 225.76 96.2409C224.38 94.9003 222.533 94.1502 220.609 94.15H161.849V35.3906C161.849 33.4306 161.071 31.5509 159.685 30.1649C158.299 28.779 156.419 28.0002 154.459 28H154.46ZM154.46 29.55C156.009 29.55 157.494 30.1653 158.59 31.2605C159.685 32.3556 160.3 33.841 160.3 35.3898V94.925C160.3 95.3531 160.647 95.7 161.075 95.7H220.61C222.159 95.7 223.644 96.3153 224.74 97.4104C225.835 98.5056 226.45 99.991 226.45 101.54V220.61C226.45 221.377 226.299 222.137 226.006 222.845C225.712 223.554 225.282 224.197 224.74 224.74C224.197 225.282 223.554 225.712 222.845 226.006C222.137 226.299 221.377 226.45 220.61 226.45H101.539C99.9902 226.45 98.5049 225.835 97.4097 224.74C96.3145 223.644 95.6992 222.159 95.6992 220.61V161.075C95.6992 160.869 95.6176 160.672 95.4722 160.527C95.3269 160.382 95.1298 160.3 94.9242 160.3H35.3906C33.8418 160.3 32.3564 159.685 31.2612 158.59C30.166 157.494 29.5508 156.009 29.5508 154.46V35.3898C29.5508 33.841 30.166 32.3556 31.2612 31.2605C32.3564 30.1653 33.8418 29.55 35.3906 29.55H154.46Z" fill="#16161A"/>
<path d="M72.875 128C71.413 128 70.0109 127.419 68.9771 126.385C67.9433 125.352 67.3625 123.949 67.3625 122.487V61.8499C67.3625 60.3879 67.9433 58.9858 68.9771 57.952C70.0109 56.9182 71.413 56.3374 72.875 56.3374H93.5641C97.5719 56.3374 101.314 56.7405 104.793 57.5468C108.347 58.2796 111.41 59.5616 113.981 61.3937C116.627 63.1515 118.707 65.5335 120.219 68.5374C121.731 71.4687 122.488 75.096 122.488 79.4187C122.488 83.596 121.694 87.2233 120.106 90.2999C118.594 93.378 116.513 95.9054 113.867 97.8843C111.22 99.8624 108.158 101.328 104.68 102.281C101.201 103.233 97.4961 103.71 93.5641 103.71H89.5485C88.0866 103.71 86.6846 104.291 85.6508 105.324C84.6171 106.358 84.0362 107.76 84.036 109.222V122.487C84.036 123.949 83.4552 125.352 82.4214 126.385C81.3876 127.419 79.9855 128 78.5235 128H72.875ZM84.036 85.3374C84.036 86.7994 84.6168 88.2015 85.6506 89.2353C86.6844 90.2691 88.0865 90.8499 89.5485 90.8499H92.543C101.617 90.8499 106.154 87.039 106.154 79.4187C106.154 75.6819 104.982 73.0437 102.638 71.5046C100.37 69.9663 97.0047 69.1976 92.543 69.1976H89.5485C88.0866 69.1976 86.6846 69.7782 85.6508 70.8119C84.6171 71.8455 84.0362 73.2474 84.036 74.7093V85.3374ZM139.025 199.662C138.301 199.662 137.584 199.52 136.916 199.243C136.247 198.966 135.639 198.56 135.127 198.048C134.615 197.536 134.209 196.928 133.932 196.259C133.655 195.591 133.513 194.874 133.513 194.15V133.512C133.513 132.788 133.655 132.072 133.932 131.403C134.209 130.734 134.615 130.126 135.127 129.614C135.639 129.103 136.247 128.697 136.916 128.42C137.584 128.142 138.301 128 139.025 128H158.252C162.091 128 165.631 128.293 168.869 128.879C172.183 129.392 175.045 130.345 177.455 131.737C179.864 133.13 181.747 134.961 183.102 137.232C184.534 139.504 185.248 142.362 185.248 145.806C185.248 147.418 184.985 149.03 184.458 150.642C184.006 152.254 183.253 153.756 182.198 155.148C181.144 156.541 179.827 157.786 178.245 158.885C176.714 159.949 174.901 160.739 172.805 161.252C172.746 161.267 172.693 161.301 172.655 161.349C172.618 161.397 172.597 161.456 172.597 161.517C172.597 161.648 172.691 161.759 172.82 161.783C177.981 162.748 181.898 164.565 184.571 167.238C187.282 169.949 188.638 173.723 188.638 178.559C188.638 182.223 187.922 185.374 186.491 188.012C185.06 190.649 183.065 192.848 180.504 194.606C177.944 196.291 174.932 197.574 171.467 198.453C168.079 199.259 164.389 199.662 160.397 199.662H139.025ZM150.118 151.284C150.118 152.008 150.261 152.725 150.538 153.394C150.815 154.063 151.221 154.67 151.733 155.182C152.244 155.694 152.852 156.1 153.521 156.377C154.19 156.654 154.907 156.797 155.631 156.797H157.46C161.527 156.797 164.464 156.027 166.271 154.488C168.079 152.95 168.982 150.788 168.982 148.004C168.982 145.366 168.041 143.497 166.158 142.398C164.351 141.226 161.489 140.64 157.573 140.64H155.631C154.907 140.64 154.19 140.782 153.521 141.059C152.852 141.336 152.244 141.742 151.733 142.254C151.221 142.766 150.815 143.374 150.538 144.043C150.261 144.712 150.118 145.428 150.118 146.152V151.284ZM150.118 181.511C150.118 182.973 150.699 184.375 151.733 185.408C152.767 186.442 154.169 187.023 155.631 187.023H159.041C167.928 187.023 172.371 183.798 172.371 177.351C172.371 174.2 171.279 171.928 169.095 170.536C166.986 169.144 163.635 168.448 159.041 168.448H155.631C154.907 168.448 154.19 168.59 153.521 168.867C152.852 169.144 152.244 169.55 151.733 170.062C151.221 170.574 150.815 171.182 150.538 171.851C150.261 172.519 150.118 173.236 150.118 173.96V181.51V181.511Z" fill="#16161A"/>
</g>
<defs>
<clipPath id="clip0_262_53">
<rect width="200" height="200" fill="white" transform="translate(28 28)"/>
</clipPath>
</defs>
</svg>
