<svg width="256" height="256" viewBox="0 0 256 256" fill="none" xmlns="http://www.w3.org/2000/svg">
<rect width="256" height="256" fill="#232932"/>
<g clip-path="url(#clip0_131_857)">
<mask id="mask0_131_857" style="mask-type:luminance" maskUnits="userSpaceOnUse" x="28" y="28" width="200" height="200">
<path d="M28 28H228V228H28V28Z" fill="white"/>
</mask>
<g mask="url(#mask0_131_857)">
<path fill-rule="evenodd" clip-rule="evenodd" d="M72.2853 210.84C117.917 241.729 179.95 229.777 210.839 184.146C241.729 138.514 229.777 76.4815 184.145 45.5928C138.513 14.7029 76.4806 26.6542 45.5919 72.2855C14.7013 117.919 26.6539 179.952 72.2853 210.84ZM59.9706 105.78C48.5579 140.842 52.3626 175.929 67.4973 198.915C40.0266 172.908 32.8499 128.205 52.6286 89.5455C65.2759 64.8242 86.3766 47.5962 109.666 40.2322C88.3933 52.4742 69.7033 75.8762 59.9706 105.78ZM144.898 216.758C168.918 209.738 190.807 192.257 203.79 166.882C223.401 128.55 216.512 84.2782 189.618 58.1782C204.147 81.1755 207.649 115.695 196.421 150.192C186.41 180.948 166.923 204.826 144.898 216.758ZM150.418 205.486C166.63 191.612 180.011 168.403 185.957 140.527C195.355 96.4622 183.034 55.4655 158.075 41.7849C171.313 59.5968 178.015 94.1935 173.883 132.889C170.723 162.483 161.876 188.396 150.418 205.486ZM70.4779 115.896C61.0106 160.287 73.5846 201.564 98.9159 214.937C85.3306 197.34 78.3979 162.343 82.5839 123.141C85.6913 94.0362 94.2999 68.4915 105.483 51.3982C89.5119 65.3222 76.3579 88.3262 70.4779 115.896ZM161.223 127.708C161.939 172.982 147.727 209.919 129.481 210.206C111.235 210.495 95.8646 174.026 95.1493 128.752C94.4339 83.4762 108.645 46.5395 126.891 46.2515C145.137 45.9635 160.508 82.4322 161.223 127.708Z" fill="white"/>
</g>
</g>
<defs>
<clipPath id="clip0_131_857">
<rect width="200" height="200" fill="white" transform="translate(28 28)"/>
</clipPath>
</defs>
</svg>
