<svg width="256" height="256" viewBox="0 0 256 256" fill="none" xmlns="http://www.w3.org/2000/svg">
<rect width="256" height="256" fill="#232932"/>
<g clip-path="url(#clip0_241_43)">
<path d="M133.912 225.929C133.912 225.929 129.798 221.007 129.798 211.7H126.239C126.239 221.007 122.123 225.929 122.123 225.929" fill="#F14A16"/>
<mask id="mask0_241_43" style="mask-type:luminance" maskUnits="userSpaceOnUse" x="115" y="205" width="26" height="23">
<path d="M115.77 205.287H140.289V228H115.77V205.287Z" fill="white"/>
</mask>
<g mask="url(#mask0_241_43)">
<path d="M133.912 225.928C133.912 225.928 129.798 221.006 129.798 211.7H126.238C126.238 221.006 122.122 225.928 122.122 225.928" stroke="black" stroke-width="2.534"/>
</g>
<path d="M201.832 107.743C201.832 163.089 160.002 211.816 128.023 211.816C97.2709 211.816 54.2124 167.539 54.2124 107.743C54.2102 64.0196 84.2649 28.5718 128.023 28.5718C171.776 28.5718 201.832 64.0174 201.832 107.743Z" fill="#F14A16"/>
<mask id="mask1_241_43" style="mask-type:luminance" maskUnits="userSpaceOnUse" x="53" y="28" width="150" height="191">
<path d="M53.6665 28H202.495V218.392H53.6665V28Z" fill="white"/>
</mask>
<g mask="url(#mask1_241_43)">
<path d="M201.832 107.743C201.832 163.089 160.002 211.816 128.023 211.816C97.2709 211.816 54.2124 167.539 54.2124 107.743C54.2102 64.0196 84.2649 28.5718 128.023 28.5718C171.776 28.5718 201.832 64.0174 201.832 107.743Z" stroke="black" stroke-width="2.534"/>
</g>
<mask id="mask2_241_43" style="mask-type:luminance" maskUnits="userSpaceOnUse" x="122" y="224" width="13" height="4">
<path d="M122.042 224.09H134.017V228H122.042V224.09Z" fill="white"/>
</mask>
<g mask="url(#mask2_241_43)">
<path d="M133.914 225.928C133.914 226.035 133.877 226.142 133.801 226.248C133.725 226.353 133.614 226.455 133.464 226.553C133.317 226.653 133.135 226.747 132.921 226.838C132.682 226.935 132.437 227.017 132.188 227.085C131.914 227.162 131.616 227.23 131.295 227.288C130.972 227.348 130.633 227.398 130.275 227.438C129.916 227.482 129.549 227.513 129.17 227.533C128.789 227.555 128.406 227.563 128.018 227.563C127.631 227.563 127.248 227.555 126.869 227.533C126.499 227.514 126.13 227.482 125.762 227.438C125.421 227.401 125.081 227.351 124.744 227.288C124.443 227.234 124.145 227.167 123.851 227.085C123.602 227.018 123.357 226.935 123.118 226.838C122.902 226.747 122.722 226.653 122.572 226.553C122.425 226.455 122.312 226.353 122.236 226.248C122.162 226.142 122.125 226.035 122.125 225.928C122.125 225.821 122.162 225.713 122.236 225.61C122.312 225.503 122.425 225.4 122.572 225.302C122.722 225.202 122.902 225.108 123.118 225.02C123.332 224.928 123.577 224.847 123.851 224.77C124.125 224.695 124.421 224.628 124.744 224.568C125.081 224.505 125.421 224.455 125.762 224.417C126.121 224.375 126.488 224.343 126.869 224.323C127.248 224.303 127.631 224.292 128.018 224.292C128.406 224.292 128.789 224.303 129.17 224.323C129.549 224.343 129.916 224.375 130.275 224.417C130.633 224.457 130.972 224.508 131.295 224.568C131.616 224.628 131.914 224.695 132.188 224.77C132.462 224.847 132.705 224.928 132.921 225.02C133.135 225.108 133.317 225.202 133.464 225.302C133.614 225.4 133.725 225.503 133.801 225.61C133.877 225.713 133.914 225.821 133.914 225.928Z" fill="#F14A16"/>
</g>
<mask id="mask3_241_43" style="mask-type:luminance" maskUnits="userSpaceOnUse" x="115" y="217" width="26" height="11">
<path d="M115.77 217.822H140.289V228H115.77V217.822Z" fill="white"/>
</mask>
<g mask="url(#mask3_241_43)">
<path d="M133.914 225.929C133.914 226.035 133.877 226.142 133.801 226.249C133.725 226.354 133.614 226.455 133.465 226.554C133.317 226.654 133.135 226.747 132.921 226.839C132.682 226.936 132.437 227.018 132.188 227.085C131.914 227.16 131.616 227.23 131.295 227.289C130.957 227.351 130.616 227.401 130.275 227.439C129.916 227.482 129.549 227.512 129.17 227.532C128.789 227.555 128.406 227.564 128.018 227.564C127.631 227.564 127.248 227.555 126.869 227.532C126.488 227.512 126.121 227.482 125.762 227.439C125.421 227.401 125.081 227.351 124.744 227.289C124.443 227.234 124.145 227.166 123.851 227.085C123.602 227.018 123.357 226.936 123.118 226.839C122.902 226.747 122.722 226.654 122.572 226.554C122.425 226.455 122.312 226.354 122.236 226.249C122.163 226.142 122.125 226.035 122.125 225.929C122.125 225.822 122.163 225.714 122.236 225.61C122.312 225.504 122.425 225.4 122.572 225.302C122.722 225.202 122.902 225.109 123.118 225.02C123.332 224.929 123.577 224.847 123.851 224.77C124.125 224.695 124.421 224.629 124.744 224.569C125.081 224.506 125.421 224.455 125.762 224.417C126.121 224.374 126.488 224.344 126.869 224.324C127.248 224.304 127.631 224.292 128.018 224.292C128.406 224.292 128.789 224.304 129.17 224.324C129.549 224.344 129.916 224.374 130.275 224.417C130.633 224.457 130.972 224.509 131.295 224.569C131.616 224.629 131.914 224.695 132.188 224.77C132.462 224.847 132.705 224.929 132.921 225.02C133.135 225.109 133.317 225.202 133.465 225.302C133.614 225.4 133.725 225.504 133.801 225.61C133.877 225.714 133.914 225.822 133.914 225.929Z" stroke="black" stroke-width="2.534"/>
</g>
<path d="M130.696 40.6692C130.696 40.6692 184.332 68.8208 171.87 163.561C171.87 163.561 199.122 119.275 185.956 82.8945C171.573 43.142 130.693 40.667 130.693 40.667L130.696 40.6692Z" fill="white"/>
<path d="M134.693 70.3159C144.534 70.3159 152.526 73.6056 158.669 80.1806C164.817 86.7511 167.891 95.3048 167.891 105.839C167.891 116.292 164.882 124.741 158.866 131.187C152.854 137.628 144.882 140.847 134.952 140.847C123.797 140.847 115.604 136.667 110.379 128.302V165.66H95.3481V70.8413H110.379V82.8604C115.604 74.4982 123.71 70.3159 134.693 70.3159ZM116.322 121.714C120.289 125.934 125.365 128.044 131.548 128.044C137.736 128.044 142.812 125.934 146.775 121.714C150.742 117.489 152.727 112.025 152.727 105.323C152.727 98.7949 150.742 93.4196 146.775 89.1994C142.812 84.9749 137.736 82.8604 131.548 82.8604C125.365 82.8604 120.289 84.9749 116.322 89.1994C112.359 93.4196 110.379 98.7949 110.379 105.323C110.379 112.025 112.359 117.489 116.322 121.714Z" fill="white"/>
</g>
<defs>
<clipPath id="clip0_241_43">
<rect width="200" height="200" fill="white" transform="translate(28 28)"/>
</clipPath>
</defs>
</svg>
