<svg width="256" height="256" viewBox="0 0 256 256" fill="none" xmlns="http://www.w3.org/2000/svg">
<rect width="256" height="256" fill="#232932"/>
<g clip-path="url(#clip0_167_34)">
<path d="M128 28C72.7667 28 28 72.775 28 128C28 183.233 72.7667 228 128 228C183.225 228 228 183.233 228 128C228 72.775 183.225 28 128 28ZM108.333 52.3167C117.425 52.1 121.233 54.225 126.517 57.6083C134.597 62.9304 140.283 71.1935 142.367 80.6417C144.483 90.15 143.85 97.55 141.308 102.842V103.258C136.233 114.042 127.792 122.717 115.95 126.942L126.092 153.375C127.992 158.233 129.692 163.308 128.208 167.958C126.733 172.608 119.967 174.092 115.108 169.017C105.808 159.083 74.5167 96.5 72.1917 91.85C69.8667 87.2 67.325 83.3833 67.325 78.7333C67.5417 71.7583 78.3083 64.5667 83.6 60.975C88.8833 57.3833 99.2417 52.525 108.333 52.3167ZM100.033 71.575C93.4583 71.7583 97.05 85.4833 98.3917 89.3167C99.875 93.5417 103.9 102.417 108.333 106.858C109.392 107.917 110.45 108.767 111.725 108.975C112.992 109.2 115.533 107.917 116.592 106.225C117.493 104.845 117.931 103.213 117.842 101.567C118.355 98.1939 118.216 94.7539 117.433 91.4333C115.533 84.875 111.508 78.5333 106.217 74.3083C105.158 73.4583 103.892 72.4 102.408 71.9833C101.644 71.7201 100.842 71.5822 100.033 71.575ZM170.15 88.4667C175.082 88.4489 179.827 90.3495 183.383 93.7667C185.925 96.0917 186.133 98.6167 185.292 101.792C184.442 104.958 181.483 111.742 179.158 116.6L173.25 127.8C161.833 148.092 159.508 150.208 156.333 148.942C152.533 147.458 153.8 127.158 157.392 102.425C158.45 95.6583 160.133 92.2833 162.033 90.5917C163.458 89.325 167.033 88.525 170.158 88.475L170.15 88.4667ZM154.658 157.9C159.275 157.992 161.233 163.733 160.125 168.167C159.94 169.116 159.565 170.018 159.022 170.819C158.479 171.619 157.78 172.302 156.967 172.825C155.275 173.883 151.258 173.883 148.925 171.975C146.608 170.075 146.175 166.9 146.808 164.358C147.442 161.825 149.567 159.067 152.525 158.225C153.214 158.002 153.934 157.892 154.658 157.9ZM82.9583 181.275H173.033C177.367 181.275 180.85 184.767 180.85 189.1V189.717C180.85 194.05 177.367 197.55 173.033 197.55H82.9583C81.9305 197.551 80.9126 197.349 79.9631 196.955C79.0136 196.562 78.1513 195.985 77.4257 195.257C76.7001 194.529 76.1255 193.664 75.7349 192.714C75.3444 191.763 75.1456 190.744 75.15 189.717V189.1C75.15 184.767 78.625 181.275 82.9583 181.275Z" fill="white"/>
</g>
<defs>
<clipPath id="clip0_167_34">
<rect width="200" height="200" fill="white" transform="translate(28 28)"/>
</clipPath>
</defs>
</svg>
