<svg width="256" height="256" viewBox="0 0 256 256" fill="none" xmlns="http://www.w3.org/2000/svg">
<g clip-path="url(#clip0_48_1203)">
<rect width="256" height="256" fill="#F37035"/>
<path d="M182.156 48.3281C177.883 48.6698 173.831 50.3701 170.594 53.1801C166.805 56.4703 164.387 61.0609 163.817 66.0462C163.247 71.0315 164.566 76.0494 167.514 80.1101C170.459 84.1715 174.819 86.9819 179.734 87.987C184.649 88.9922 189.763 88.1191 194.066 85.5401H194.07L194.382 85.8521C195.799 85.04 197.118 84.0669 198.312 82.9521C201.995 79.056 204.022 73.8815 203.964 68.52C203.905 63.1585 201.767 58.0293 198 54.2141V54.2101L180.312 71.7881L180 71.4781L197.688 53.8921C195.64 51.9182 193.197 50.4019 190.519 49.4433C187.842 48.4848 184.991 48.106 182.156 48.3321V48.3281ZM158.868 77.1021C150.388 77.0881 136.542 86.7001 102.734 120.508L102.902 120.68C102.718 120.616 102.532 120.61 102.532 120.61L89.8038 133.226C89.4769 133.537 89.2606 133.946 89.1876 134.391C89.1147 134.836 89.1892 135.293 89.3998 135.692C89.6103 136.091 89.9454 136.41 90.3541 136.601C90.7628 136.792 91.2227 136.845 91.6638 136.75L113.492 132.094C113.589 132.004 113.654 131.885 113.676 131.754L114.16 132.254L106.72 139.634H106.36L62.1878 184.154L76.3598 197.802C76.7555 198.16 77.2556 198.383 77.7868 198.436C78.318 198.49 78.8524 198.372 79.3118 198.1C79.775 197.831 80.1459 197.427 80.3761 196.944C80.6063 196.46 80.685 195.917 80.6018 195.388L78.5318 186.388C78.4016 186.208 78.3315 185.991 78.3315 185.768C78.3315 185.546 78.4016 185.329 78.5318 185.148C97.8799 175.924 115.873 164.092 132.008 149.982L122.938 140.908L123.11 140.88L117.73 135.502L118.074 135.154L118.438 135.526L118.25 135.708L132.524 150.294V150.288C159.884 124.38 179.304 103.554 174.254 89.5381C174.024 87.862 173.245 86.3092 172.04 85.1221V85.1301C171.733 84.9033 171.41 84.6988 171.074 84.5181C170.908 84.3421 170.762 84.1621 170.586 83.9901L170.454 84.1221C170.082 83.8975 169.693 83.7035 169.29 83.5421L169.868 82.9581C166.276 79.7581 163.308 77.1101 158.868 77.0981V77.1021ZM61.8798 184.42L51.5378 194.764V194.772C51.1667 195.002 50.8782 195.344 50.714 195.748C50.5497 196.152 50.5181 196.599 50.6238 197.022C50.7258 197.445 50.9587 197.826 51.2894 198.109C51.6202 198.392 52.0318 198.564 52.4658 198.6L77.8098 200.35L61.8798 184.42Z" fill="white"/>
<path d="M183.9 46.6199C178.095 46.6133 172.521 48.8907 168.382 52.9599C165.437 55.9741 163.421 59.7713 162.574 63.8991C161.726 68.0269 162.083 72.3112 163.602 76.2419C154.12 72.1819 141.292 79.2619 101.39 119.156C101.362 119.217 101.337 119.28 101.316 119.344C101.234 119.38 101.154 119.421 101.078 119.468L88.46 132.196C87.8552 132.79 87.4579 133.562 87.3272 134.4C87.1964 135.237 87.3391 136.094 87.734 136.844C88.0863 137.437 88.5854 137.93 89.1833 138.275C89.7813 138.62 90.4579 138.805 91.148 138.812L91.774 138.406L108.622 134.812L100.562 142.946C100.516 143.053 100.48 143.164 100.454 143.278L60.954 182.876C60.7966 183.008 60.6662 183.17 60.57 183.352L50.398 193.532C49.8917 194.067 49.5457 194.734 49.3993 195.456C49.2529 196.179 49.3121 196.928 49.57 197.618C49.8362 198.303 50.2862 198.902 50.8705 199.348C51.4547 199.795 52.1507 200.071 52.882 200.148L78.118 201.908C78.5492 201.758 78.9162 201.465 79.158 201.078C79.3738 200.776 79.4898 200.414 79.4898 200.043C79.4898 199.672 79.3738 199.31 79.158 199.008L79.106 198.958C79.6519 198.674 80.1323 198.279 80.516 197.798C80.9209 197.272 81.2038 196.662 81.3442 196.013C81.4847 195.364 81.4791 194.692 81.328 194.046L79.36 185.672C98.2411 176.649 115.932 165.322 132.028 151.95C132.183 152.041 132.35 152.11 132.524 152.156C133.032 152.118 133.508 151.9 133.868 151.54C160.968 125.88 176.898 108.296 176.898 94.3359C176.958 92.3994 176.666 90.468 176.036 88.6359C178.479 89.6468 181.084 90.2091 183.726 90.2959L183.696 90.3039C187.336 90.1941 190.894 89.1987 194.062 87.4039L194.07 87.4059C194.48 87.5278 194.922 87.4884 195.304 87.2959C196.833 86.3955 198.227 85.2831 199.444 83.9919C201.507 81.9684 203.145 79.5541 204.264 76.8899C205.383 74.2258 205.96 71.3654 205.96 68.4759C205.96 65.5865 205.384 62.7262 204.265 60.0621C203.147 57.3979 201.508 54.9835 199.446 52.9599C199.372 52.8934 199.293 52.8326 199.21 52.7779C195.092 48.8257 189.605 46.6197 183.898 46.6219L183.9 46.6199ZM183.726 50.1639C187.768 50.188 191.691 51.5322 194.898 53.9919L178.762 70.2259C178.707 70.288 178.657 70.3535 178.61 70.4219C178.319 70.7162 178.149 71.1085 178.132 71.5219C178.132 71.7717 178.188 72.0184 178.296 72.2435C178.405 72.4685 178.563 72.6663 178.758 72.8219H178.762L190.962 85.0219C187.623 86.4792 183.921 86.8937 180.342 86.2109C176.763 85.5282 173.474 83.7802 170.906 81.1959C165.734 75.9959 164.234 68.1879 167 61.4139C169.766 54.6339 176.36 50.2039 183.726 50.1639ZM197.966 57.0279C200.604 60.22 202.043 64.2346 202.032 68.3759C202.025 73.2275 200.091 77.8776 196.656 81.3039C195.967 81.9517 195.233 82.5499 194.46 83.0939L184.614 73.3999L182.688 71.4739L183.218 70.9439L197.964 57.0239L197.966 57.0279ZM197.234 65.4139C196.872 65.3001 196.481 65.3221 196.134 65.4759C195.791 65.6534 195.532 65.9598 195.414 66.3279C195.356 66.5116 195.335 66.705 195.352 66.8969C195.369 67.0888 195.424 67.2753 195.514 67.4459C195.869 68.1933 196.008 69.0246 195.917 69.8468C195.827 70.669 195.509 71.4498 195 72.1019C194.87 72.2277 194.767 72.3798 194.7 72.548C194.633 72.7163 194.602 72.8969 194.61 73.0779C194.618 73.4459 194.75 73.7979 195 74.0619C195.267 74.1637 195.561 74.1637 195.828 74.0619C196.068 74.1219 196.321 74.1151 196.558 74.0421C196.795 73.9691 197.007 73.8328 197.172 73.6479C198.024 72.6046 198.563 71.3418 198.727 70.0051C198.892 68.6685 198.675 67.3126 198.102 66.0939V66.1019C197.907 65.7741 197.598 65.5293 197.234 65.4139ZM158.68 78.8599C161.093 78.9422 163.415 79.8023 165.3 81.3119C163.271 81.6045 161.39 82.5445 159.938 83.9919L114.324 129.402L105.372 120.45C129.028 96.9059 143.492 84.6079 152.484 80.5779C154.337 79.4112 156.491 78.8153 158.68 78.8599ZM166.61 84.7799C168.141 84.7811 169.61 85.3879 170.696 86.4679C171.272 87.0106 171.727 87.6692 172.03 88.4004C172.333 89.1316 172.477 89.9187 172.454 90.7099C172.428 91.4983 172.239 92.2728 171.9 92.9851C171.561 93.6974 171.079 94.3322 170.484 94.8499L121.984 137.062L116.75 131.828L162.524 86.4679C163.61 85.3886 165.079 84.7805 166.61 84.7799ZM172.598 98.1759C169.218 111.58 151.304 129.742 132.624 147.39L125.07 139.844L172.598 98.1759ZM102.734 123.094L103.282 123.634L110.308 130.66L91.048 134.78L102.734 123.094ZM114.32 134.774L114.328 134.782L116.664 137.172L116.7 137.34L116.856 137.364L117.352 137.872L118.992 139.552L108.222 140.872L114.32 134.774ZM122.054 142.926L129.21 150.078C113.386 163.236 96.0225 174.422 77.5 183.39C76.8986 183.676 76.4151 184.162 76.1318 184.765C75.8484 185.368 75.7828 186.05 75.946 186.696L78.016 195.696C78.0923 195.802 78.1334 195.929 78.1334 196.059C78.1334 196.189 78.0923 196.316 78.016 196.422C77.9022 196.524 77.7548 196.58 77.602 196.58C77.4492 196.58 77.3018 196.524 77.188 196.422L64.984 184.118L102.6 145.95L122.054 142.926ZM62.188 186.806L63.926 188.434L72.91 197.418L52.878 196.122L62.188 186.806Z" fill="#F37036"/>
</g>
<defs>
<clipPath id="clip0_48_1203">
<rect width="256" height="256" fill="white"/>
</clipPath>
</defs>
</svg>
