<svg width="256" height="256" viewBox="0 0 256 256" fill="none" xmlns="http://www.w3.org/2000/svg">
<rect width="256" height="256" fill="url(#paint0_linear_88_457)"/>
<path opacity="0.8" fill-rule="evenodd" clip-rule="evenodd" d="M39.2498 200.656C36.5935 200.656 34.406 199.562 32.8435 197.688C31.281 195.812 30.8123 193.156 31.4373 190.5L60.4998 64.7188C61.7498 59.4062 66.7498 55.3438 72.0623 55.3438H216.75C219.406 55.3438 221.594 56.4375 223.156 58.3125C224.719 60.1875 225.187 62.8438 224.562 65.5L195.5 191.281C194.25 196.594 189.25 200.656 183.937 200.656H39.2498Z" fill="url(#paint1_linear_88_457)"/>
<path fill-rule="evenodd" clip-rule="evenodd" d="M215.969 56.9062H72.5315C68.0002 56.9062 63.6252 60.5 62.5315 65.0313L33.7815 190.969C32.6877 195.5 35.5002 199.094 40.0315 199.094H183.469C188 199.094 192.375 195.5 193.469 190.969L222.219 65.1875C223.313 60.6562 220.5 56.9062 215.969 56.9062Z" fill="url(#paint2_linear_88_457)"/>
<path fill-rule="evenodd" clip-rule="evenodd" d="M128.313 165.969H163.156C167.219 165.969 170.5 169.406 170.5 173.625C170.5 177.844 167.219 181.281 163.156 181.281H128.313C124.25 181.281 120.969 177.844 120.969 173.625C120.969 169.406 124.25 165.969 128.313 165.969ZM150.969 131.906C150.344 133.156 149.094 134.406 146.906 135.969L82.0627 182.531C78.469 185.031 73.469 184.094 70.6565 180.344C68.0002 176.594 68.6252 171.438 72.0627 168.938L130.5 126.594V125.656L93.7815 86.5937C90.8127 83.4687 91.1252 78.3125 94.4065 75.0312C97.844 71.9062 103 71.9062 105.969 75.0312L150.031 121.906C152.688 124.875 152.844 128.938 150.969 131.906Z" fill="#2C5591"/>
<path fill-rule="evenodd" clip-rule="evenodd" d="M149.25 130.344C148.625 131.594 147.375 132.844 145.188 134.406L80.5002 180.969C76.9065 183.469 71.9065 182.531 69.094 178.781C66.4377 175.031 67.0627 169.875 70.5002 167.375L128.938 125.031V124.094L92.219 85.0312C89.2502 81.9062 89.5627 76.75 92.844 73.4688C96.2815 70.3438 101.438 70.3438 104.406 73.4688L148.469 120.344C151.125 123.156 151.281 127.219 149.25 130.344ZM127.219 165.188H162.063C166.125 165.188 169.406 168.469 169.406 172.375C169.406 176.438 166.125 179.562 162.063 179.562H127.219C123.156 179.562 119.875 176.281 119.875 172.375C119.875 168.313 123.156 165.188 127.219 165.188Z" fill="white"/>
<defs>
<linearGradient id="paint0_linear_88_457" x1="0" y1="0" x2="256" y2="256" gradientUnits="userSpaceOnUse">
<stop stop-color="#A9C8FF"/>
<stop offset="1" stop-color="#C7E6FF"/>
</linearGradient>
<linearGradient id="paint1_linear_88_457" x1="178.478" y1="173.088" x2="67.7717" y2="74.2016" gradientUnits="userSpaceOnUse">
<stop stop-color="#A9C8FF"/>
<stop offset="1" stop-color="#C7E6FF"/>
</linearGradient>
<linearGradient id="paint2_linear_88_457" x1="67.5877" y1="74.3594" x2="175.764" y2="170.427" gradientUnits="userSpaceOnUse">
<stop stop-color="#2D4664"/>
<stop offset="0.169" stop-color="#29405B"/>
<stop offset="0.445" stop-color="#1E2F43"/>
<stop offset="0.79" stop-color="#0C131B"/>
<stop offset="1"/>
</linearGradient>
</defs>
</svg>
