<svg width="256" height="256" viewBox="0 0 256 256" fill="none" xmlns="http://www.w3.org/2000/svg">
<rect width="256" height="256" fill="#232932"/>
<g clip-path="url(#clip0_98_416)">
<path d="M127.5 28L214 77.9324V177.797L127.5 227.73L41 177.797V77.9324L127.5 28Z" fill="#673AB8"/>
<path d="M64.561 176.972C76.0601 191.688 112.606 180.475 147.108 153.523C181.61 126.572 201.332 93.8306 189.833 79.1137C178.334 64.3974 141.789 75.611 107.287 102.562C72.7846 129.515 53.0619 162.256 64.561 176.972ZM69.4739 173.134C65.6598 168.254 67.3263 158.673 74.5916 146.612C82.2428 133.911 95.2307 119.89 111.124 107.474C127.019 95.0589 143.767 85.8501 157.943 81.5001C171.406 77.3697 181.107 78.0711 184.92 82.9515C188.734 87.8319 187.068 97.413 179.803 109.474C172.151 122.175 159.164 136.195 143.27 148.612C127.376 161.027 110.627 170.236 96.4511 174.585C82.9882 178.716 73.2874 178.014 69.4739 173.134Z" fill="white"/>
<path d="M189.833 176.972C201.333 162.256 181.61 129.514 147.108 102.562C112.606 75.611 76.0594 64.3974 64.561 79.1137C53.0613 93.8299 72.7846 126.572 107.287 153.523C141.789 180.475 178.334 191.689 189.833 176.972ZM184.92 173.134C181.107 178.015 171.406 178.716 157.943 174.585C143.767 170.236 127.019 161.027 111.125 148.612C95.2307 136.195 82.2422 122.175 74.5923 109.474C67.3263 97.413 65.6598 87.8326 69.4733 82.9515C73.2874 78.0711 82.9882 77.3697 96.4505 81.5001C110.627 85.8501 127.376 95.0589 143.269 107.474C159.164 119.89 172.151 133.911 179.802 146.612C187.068 158.672 188.734 168.253 184.92 173.134Z" fill="white"/>
<path d="M127.197 141.289C134.514 141.289 140.445 135.358 140.445 128.043C140.445 120.728 134.514 114.797 127.197 114.797C119.881 114.797 113.949 120.728 113.949 128.043C113.949 135.358 119.881 141.289 127.197 141.289Z" fill="white"/>
</g>
<defs>
<clipPath id="clip0_98_416">
<rect width="173" height="200" fill="white" transform="translate(41 28)"/>
</clipPath>
</defs>
</svg>
