<svg width="256" height="256" viewBox="0 0 256 256" fill="none" xmlns="http://www.w3.org/2000/svg">
<rect width="256" height="256" fill="#00005B"/>
<path d="M56 184.575V72.8459C56 72.0859 56.3255 71.6514 57.0859 71.6514C58.9317 71.6514 60.669 71.6514 63.1663 71.5428C65.7722 71.4342 68.4867 71.4342 71.4184 71.3259C74.3501 71.2172 77.4988 71.2172 80.8647 71.1086C84.2309 71 87.4882 71 90.7458 71C99.6493 71 107.033 72.0859 113.113 74.3659C118.542 76.2118 123.537 79.2521 127.663 83.2694C131.137 86.7442 133.852 90.9788 135.589 95.6478C137.218 100.208 138.087 104.877 138.087 109.763C138.087 119.101 135.915 126.81 131.572 132.891C127.229 138.971 121.148 143.532 114.09 146.137C106.707 148.852 98.5634 149.829 89.6599 149.829C87.054 149.829 85.3168 149.829 84.2309 149.721C83.145 149.612 81.625 149.612 79.5619 149.612V184.466C79.6705 185.226 79.1274 185.878 78.3674 185.986C78.2588 185.986 78.1502 185.986 77.9333 185.986H57.3028C56.4342 185.986 56 185.552 56 184.575ZM79.6705 92.6074V129.09C81.1906 129.199 82.6023 129.308 83.9051 129.308H89.6599C93.8944 129.308 98.129 128.656 102.147 127.353C105.621 126.376 108.661 124.313 111.05 121.598C113.33 118.884 114.416 115.192 114.416 110.415C114.525 107.049 113.656 103.683 111.919 100.751C110.073 97.9278 107.467 95.7564 104.318 94.5619C100.301 92.9333 95.9576 92.2819 91.5058 92.3902C88.6827 92.3902 86.1854 92.3902 84.1223 92.4988C81.9506 92.3902 80.4305 92.4988 79.6705 92.6074Z" fill="#9999FF"/>
<path d="M153.288 98.9046H172.29C173.375 98.9046 174.244 99.665 174.57 100.642C174.895 101.511 175.113 102.379 175.221 103.356C175.438 104.442 175.655 105.637 175.764 106.723C175.873 107.917 175.981 109.22 175.981 110.631C179.239 106.831 183.148 103.682 187.599 101.294C192.594 98.4705 198.349 97.0588 204.104 97.0588C204.864 96.9501 205.515 97.4932 205.624 98.2532C205.624 98.3619 205.624 98.4705 205.624 98.6877V119.861C205.624 120.729 205.081 121.055 203.886 121.055C199.977 120.947 195.96 121.272 192.16 122.141C189.011 122.792 185.971 123.77 183.039 125.072C180.976 126.05 179.021 127.353 177.501 129.09V184.466C177.501 185.552 177.067 185.986 176.09 185.986H154.699C153.831 186.095 153.071 185.552 152.962 184.683C152.962 184.575 152.962 184.357 152.962 184.249V124.095C152.962 121.489 152.962 118.775 152.854 115.952C152.745 113.129 152.745 110.306 152.636 107.483C152.636 104.985 152.419 102.596 152.202 100.099C152.094 99.5563 152.419 99.0133 152.962 98.9046C152.962 98.796 153.179 98.796 153.288 98.9046Z" fill="#9999FF"/>
</svg>
