<svg width="256" height="256" viewBox="0 0 256 256" fill="none" xmlns="http://www.w3.org/2000/svg">
<rect width="256" height="256" fill="#192C34"/>
<g clip-path="url(#clip0_47_981)">
<path d="M181.149 70.2383H170.756C168.76 70.2383 167.143 71.856 167.143 73.8516V75.4342C167.143 77.4297 168.76 79.0475 170.756 79.0475H181.149C183.144 79.0475 184.762 77.4297 184.762 75.4342V73.8516C184.762 71.856 183.144 70.2383 181.149 70.2383Z" fill="#56B3B4"/>
<path d="M84.244 211.191H38.6133C36.6177 211.191 35 212.809 35 214.804V216.387C35 218.382 36.6177 220 38.6133 220H84.244C86.2395 220 87.8572 218.382 87.8572 216.387V214.804C87.8572 212.809 86.2395 211.191 84.244 211.191Z" fill="#EA5E5E"/>
<path d="M172.339 140.715H144.328C142.332 140.715 140.714 142.332 140.714 144.328V145.911C140.714 147.906 142.332 149.524 144.328 149.524H172.339C174.335 149.524 175.953 147.906 175.953 145.911V144.328C175.953 142.332 174.335 140.715 172.339 140.715Z" fill="#BF85BF"/>
<path d="M128.291 140.715H91.4705C89.475 140.715 87.8572 142.332 87.8572 144.328V145.911C87.8572 147.906 89.475 149.524 91.4705 149.524H128.291C130.287 149.524 131.905 147.906 131.905 145.911V144.328C131.905 142.332 130.287 140.715 128.291 140.715Z" fill="#EA5E5E"/>
<path d="M75.4341 140.715H38.6133C36.6177 140.715 35 142.332 35 144.328V145.911C35 147.906 36.6177 149.524 38.6133 149.524H75.4341C77.4296 149.524 79.0473 147.906 79.0473 145.911V144.328C79.0473 142.332 77.4296 140.715 75.4341 140.715Z" fill="#56B3B4"/>
<path d="M84.244 175.953H38.6133C36.6177 175.953 35 177.57 35 179.566V181.149C35 183.144 36.6177 184.762 38.6133 184.762H84.244C86.2395 184.762 87.8572 183.144 87.8572 181.149V179.566C87.8572 177.57 86.2395 175.953 84.244 175.953Z" fill="#BF85BF"/>
<path d="M84.244 105.476H38.6133C36.6177 105.476 35 107.094 35 109.09V110.672C35 112.668 36.6177 114.285 38.6133 114.285H84.244C86.2395 114.285 87.8572 112.668 87.8572 110.672V109.09C87.8572 107.094 86.2395 105.476 84.244 105.476Z" fill="#BF85BF"/>
<path d="M172.339 52.6191H82.6606C80.6651 52.6191 79.0474 54.2369 79.0474 56.2324V57.815C79.0474 59.8106 80.6651 61.4283 82.6606 61.4283H172.339C174.334 61.4283 175.952 59.8106 175.952 57.815V56.2324C175.952 54.2369 174.334 52.6191 172.339 52.6191Z" fill="#F7BA3E"/>
<path d="M66.6249 52.6191H38.6133C36.6177 52.6191 35 54.2369 35 56.2324V57.815C35 59.8106 36.6177 61.4283 38.6133 61.4283H66.6249C68.6204 61.4283 70.2382 59.8106 70.2382 57.815V56.2324C70.2382 54.2369 68.6204 52.6191 66.6249 52.6191Z" fill="#EA5E5E"/>
<path d="M84.244 193.572H73.8514C71.8559 193.572 70.2382 195.189 70.2382 197.185V198.768C70.2382 200.763 71.8559 202.381 73.8514 202.381H84.244C86.2395 202.381 87.8572 200.763 87.8572 198.768V197.185C87.8572 195.189 86.2395 193.572 84.244 193.572Z" fill="#F7BA3E"/>
<path d="M84.244 87.8572H73.8514C71.8559 87.8572 70.2382 89.4749 70.2382 91.4705V93.0531C70.2382 95.0486 71.8559 96.6664 73.8514 96.6664H84.244C86.2395 96.6664 87.8572 95.0486 87.8572 93.0531V91.4705C87.8572 89.4749 86.2395 87.8572 84.244 87.8572Z" fill="#56B3B4"/>
<path d="M57.815 193.572H38.6133C36.6177 193.572 35 195.189 35 197.185V198.768C35 200.763 36.6177 202.381 38.6133 202.381H57.815C59.8105 202.381 61.4283 200.763 61.4283 198.768V197.185C61.4283 195.189 59.8105 193.572 57.815 193.572Z" fill="#56B3B4"/>
<path d="M57.815 87.8572H38.6133C36.6177 87.8572 35 89.4749 35 91.4705V93.0531C35 95.0486 36.6177 96.6664 38.6133 96.6664H57.815C59.8105 96.6664 61.4283 95.0486 61.4283 93.0531V91.4705C61.4283 89.4749 59.8105 87.8572 57.815 87.8572Z" fill="#F7BA3E"/>
<path opacity="0.5" d="M163.529 193.572H153.137C151.141 193.572 149.524 195.189 149.524 197.185V198.768C149.524 200.763 151.141 202.381 153.137 202.381H163.529C165.525 202.381 167.143 200.763 167.143 198.768V197.185C167.143 195.189 165.525 193.572 163.529 193.572Z" fill="#D0D4D8"/>
<path opacity="0.5" d="M137.101 193.572H100.28C98.2842 193.572 96.6664 195.189 96.6664 197.185V198.768C96.6664 200.763 98.2842 202.381 100.28 202.381H137.101C139.096 202.381 140.714 200.763 140.714 198.768V197.185C140.714 195.189 139.096 193.572 137.101 193.572Z" fill="#D0D4D8"/>
<path opacity="0.5" d="M216.387 193.572H179.566C177.57 193.572 175.953 195.189 175.953 197.185V198.768C175.953 200.763 177.57 202.381 179.566 202.381H216.387C218.382 202.381 220 200.763 220 198.768V197.185C220 195.189 218.382 193.572 216.387 193.572Z" fill="#D0D4D8"/>
<path d="M181.149 123.095H109.09C107.094 123.095 105.476 124.713 105.476 126.709V128.291C105.476 130.287 107.094 131.905 109.09 131.905H181.149C183.144 131.905 184.762 130.287 184.762 128.291V126.709C184.762 124.713 183.144 123.095 181.149 123.095Z" fill="#56B3B4"/>
<path d="M93.0532 123.095H65.0416C63.046 123.095 61.4283 124.713 61.4283 126.709V128.291C61.4283 130.287 63.046 131.905 65.0416 131.905H93.0532C95.0487 131.905 96.6665 130.287 96.6665 128.291V126.709C96.6665 124.713 95.0487 123.095 93.0532 123.095Z" fill="#F7BA3E"/>
<path d="M49.0058 123.095H38.6133C36.6177 123.095 35 124.713 35 126.709V128.291C35 130.287 36.6177 131.905 38.6133 131.905H49.0058C51.0014 131.905 52.6191 130.287 52.6191 128.291V126.709C52.6191 124.713 51.0014 123.095 49.0058 123.095Z" fill="#EA5E5E"/>
<path d="M154.72 70.2383H117.899C115.903 70.2383 114.286 71.856 114.286 73.8516V75.4342C114.286 77.4297 115.903 79.0475 117.899 79.0475H154.72C156.715 79.0475 158.333 77.4297 158.333 75.4342V73.8516C158.333 71.856 156.715 70.2383 154.72 70.2383Z" fill="#BF85BF"/>
<path d="M101.863 70.2383H38.6133C36.6177 70.2383 35 71.856 35 73.8516V75.4342C35 77.4297 36.6177 79.0475 38.6133 79.0475H101.863C103.859 79.0475 105.476 77.4297 105.476 75.4342V73.8516C105.476 71.856 103.859 70.2383 101.863 70.2383Z" fill="#56B3B4"/>
<path d="M145.91 158.333H65.0416C63.046 158.333 61.4283 159.951 61.4283 161.947V163.529C61.4283 165.525 63.046 167.143 65.0416 167.143H145.91C147.906 167.143 149.524 165.525 149.524 163.529V161.947C149.524 159.951 147.906 158.333 145.91 158.333Z" fill="#F7BA3E"/>
<path d="M49.0058 158.333H38.6133C36.6177 158.333 35 159.951 35 161.947V163.529C35 165.525 36.6177 167.143 38.6133 167.143H49.0058C51.0014 167.143 52.6191 165.525 52.6191 163.529V161.947C52.6191 159.951 51.0014 158.333 49.0058 158.333Z" fill="#BF85BF"/>
<path d="M189.958 87.8572H144.328C142.332 87.8572 140.714 89.4749 140.714 91.4705V93.0531C140.714 95.0486 142.332 96.6664 144.328 96.6664H189.958C191.954 96.6664 193.572 95.0486 193.572 93.0531V91.4705C193.572 89.4749 191.954 87.8572 189.958 87.8572Z" fill="#EA5E5E"/>
<path d="M189.958 105.476H144.328C142.332 105.476 140.714 107.094 140.714 109.09V110.672C140.714 112.668 142.332 114.285 144.328 114.285H189.958C191.954 114.285 193.572 112.668 193.572 110.672V109.09C193.572 107.094 191.954 105.476 189.958 105.476Z" fill="#F7BA3E"/>
<path d="M145.91 35H38.6133C36.6177 35 35 36.6177 35 38.6133V40.1959C35 42.1915 36.6177 43.8092 38.6133 43.8092H145.91C147.906 43.8092 149.524 42.1915 149.524 40.1959V38.6133C149.524 36.6177 147.906 35 145.91 35Z" fill="#56B3B4"/>
<path opacity="0.5" d="M216.387 35H161.947C159.951 35 158.334 36.6177 158.334 38.6133V40.1959C158.334 42.1915 159.951 43.8092 161.947 43.8092H216.387C218.382 43.8092 220 42.1915 220 40.1959V38.6133C220 36.6177 218.382 35 216.387 35Z" fill="#D0D4D8"/>
<path opacity="0.5" d="M181.149 158.333H161.947C159.951 158.333 158.334 159.951 158.334 161.947V163.529C158.334 165.525 159.951 167.143 161.947 167.143H181.149C183.144 167.143 184.762 165.525 184.762 163.529V161.947C184.762 159.951 183.144 158.333 181.149 158.333Z" fill="#D0D4D8"/>
<path opacity="0.5" d="M216.387 158.333H197.185C195.189 158.333 193.572 159.951 193.572 161.947V163.529C193.572 165.525 195.189 167.143 197.185 167.143H216.387C218.382 167.143 220 165.525 220 163.529V161.947C220 159.951 218.382 158.333 216.387 158.333Z" fill="#D0D4D8"/>
<path opacity="0.5" d="M216.387 140.715H188.375C186.38 140.715 184.762 142.332 184.762 144.328V145.911C184.762 147.906 186.38 149.524 188.375 149.524H216.387C218.382 149.524 220 147.906 220 145.911V144.328C220 142.332 218.382 140.715 216.387 140.715Z" fill="#D0D4D8"/>
<path opacity="0.5" d="M216.387 52.6191H188.375C186.38 52.6191 184.762 54.2369 184.762 56.2324V57.815C184.762 59.8106 186.38 61.4283 188.375 61.4283H216.387C218.382 61.4283 220 59.8106 220 57.815V56.2324C220 54.2369 218.382 52.6191 216.387 52.6191Z" fill="#D0D4D8"/>
<path opacity="0.5" d="M216.387 123.095H197.185C195.189 123.095 193.572 124.713 193.572 126.709V128.291C193.572 130.287 195.189 131.905 197.185 131.905H216.387C218.382 131.905 220 130.287 220 128.291V126.709C220 124.713 218.382 123.095 216.387 123.095Z" fill="#D0D4D8"/>
<path opacity="0.5" d="M216.387 70.2383H197.185C195.189 70.2383 193.572 71.856 193.572 73.8516V75.4342C193.572 77.4297 195.189 79.0475 197.185 79.0475H216.387C218.382 79.0475 220 77.4297 220 75.4342V73.8516C220 71.856 218.382 70.2383 216.387 70.2383Z" fill="#D0D4D8"/>
<path opacity="0.5" d="M216.387 87.8572H205.994C203.999 87.8572 202.381 89.4749 202.381 91.4705V93.0531C202.381 95.0486 203.999 96.6664 205.994 96.6664H216.387C218.382 96.6664 220 95.0486 220 93.0531V91.4705C220 89.4749 218.382 87.8572 216.387 87.8572Z" fill="#D0D4D8"/>
<path opacity="0.5" d="M216.387 105.476H205.994C203.999 105.476 202.381 107.094 202.381 109.09V110.672C202.381 112.668 203.999 114.285 205.994 114.285H216.387C218.382 114.285 220 112.668 220 110.672V109.09C220 107.094 218.382 105.476 216.387 105.476Z" fill="#D0D4D8"/>
<path opacity="0.5" d="M216.387 175.953H135.518C133.522 175.953 131.905 177.57 131.905 179.566V181.149C131.905 183.144 133.522 184.762 135.518 184.762H216.387C218.382 184.762 220 183.144 220 181.149V179.566C220 177.57 218.382 175.953 216.387 175.953Z" fill="#D0D4D8"/>
<path opacity="0.5" d="M119.481 175.953H100.28C98.2842 175.953 96.6664 177.57 96.6664 179.566V181.149C96.6664 183.144 98.2842 184.762 100.28 184.762H119.481C121.477 184.762 123.095 183.144 123.095 181.149V179.566C123.095 177.57 121.477 175.953 119.481 175.953Z" fill="#D0D4D8"/>
<path opacity="0.5" d="M216.387 211.191H170.756C168.76 211.191 167.143 212.809 167.143 214.804V216.387C167.143 218.382 168.76 220 170.756 220H216.387C218.382 220 220 218.382 220 216.387V214.804C220 212.809 218.382 211.191 216.387 211.191Z" fill="#D0D4D8"/>
<path opacity="0.5" d="M154.72 211.191H100.28C98.2842 211.191 96.6664 212.809 96.6664 214.804V216.387C96.6664 218.382 98.2842 220 100.28 220H154.72C156.715 220 158.333 218.382 158.333 216.387V214.804C158.333 212.809 156.715 211.191 154.72 211.191Z" fill="#D0D4D8"/>
<path opacity="0.5" d="M128.291 87.8572H100.28C98.2842 87.8572 96.6664 89.4749 96.6664 91.4705V93.0531C96.6664 95.0486 98.2842 96.6664 100.28 96.6664H128.291C130.287 96.6664 131.905 95.0486 131.905 93.0531V91.4705C131.905 89.4749 130.287 87.8572 128.291 87.8572Z" fill="#D0D4D8"/>
<path opacity="0.5" d="M128.291 105.476H100.28C98.2842 105.476 96.6664 107.094 96.6664 109.09V110.672C96.6664 112.668 98.2842 114.285 100.28 114.285H128.291C130.287 114.285 131.905 112.668 131.905 110.672V109.09C131.905 107.094 130.287 105.476 128.291 105.476Z" fill="#D0D4D8"/>
</g>
<defs>
<clipPath id="clip0_47_981">
<rect width="185" height="185" fill="white" transform="translate(35 35)"/>
</clipPath>
</defs>
</svg>
