<svg width="256" height="256" viewBox="0 0 256 256" fill="none" xmlns="http://www.w3.org/2000/svg">
<rect width="256" height="256" fill="#242932"/>
<path d="M131.839 28.0218C130.037 27.9032 128.237 28.2817 126.636 29.116C125.035 29.9503 123.693 31.2084 122.758 32.753L47.961 154.741C46.9866 156.329 46.4771 158.159 46.4904 160.023C46.5036 161.887 47.0391 163.71 48.036 165.284L84.861 223.387C86.0295 225.218 87.7632 226.618 89.799 227.374C91.8348 228.131 94.0617 228.203 96.1422 227.58L202.411 195.694C203.776 195.285 205.037 194.588 206.109 193.65C207.182 192.712 208.04 191.555 208.627 190.257C209.213 188.958 209.514 187.549 209.51 186.124C209.505 184.7 209.194 183.293 208.598 181.998L140.286 33.7952C139.543 32.1518 138.362 30.7442 136.874 29.726C135.385 28.7079 133.645 28.1183 131.844 28.0218H131.839ZM134.644 65.4437C135.438 65.3492 136.242 65.5168 136.932 65.921C137.623 66.3252 138.162 66.9438 138.469 67.6827L185.594 176.72C185.804 177.205 185.908 177.728 185.901 178.256C185.894 178.784 185.775 179.305 185.551 179.784C185.328 180.262 185.006 180.688 184.606 181.033C184.206 181.378 183.737 181.634 183.231 181.784L109.8 203.697C109.183 203.88 108.529 203.901 107.902 203.757C107.274 203.613 106.695 203.309 106.219 202.875C105.744 202.441 105.389 201.892 105.188 201.28C104.988 200.669 104.949 200.015 105.075 199.384L131.372 68.428C131.519 67.6411 131.918 66.9236 132.51 66.3849C133.102 65.8461 133.854 65.5156 134.652 65.4437H134.644Z" fill="white"/>
</svg>
