<svg width="256" height="256" viewBox="0 0 256 256" fill="none" xmlns="http://www.w3.org/2000/svg">
<g clip-path="url(#clip0_52_1494)">
<rect width="256" height="256" fill="#242932"/>
<path fill-rule="evenodd" clip-rule="evenodd" d="M99.5879 90.2639C90.8799 90.2639 84.8739 93.0039 81.5699 98.5549C78.3419 104.107 76.6899 112.903 76.6899 125.088C76.6899 137.201 78.2669 145.925 81.4199 151.116C84.5729 156.307 90.6539 158.975 99.5879 158.975C108.522 158.975 114.528 156.38 117.682 151.26C120.76 146.141 122.336 137.417 122.336 125.232C122.336 112.975 120.76 104.107 117.531 98.5549C114.302 93.0029 108.297 90.2639 99.5879 90.2639Z" fill="#41CD52"/>
<path fill-rule="evenodd" clip-rule="evenodd" d="M178.837 169.771C170.904 169.771 165.463 168.063 162.516 164.647C159.57 161.232 158.059 154.755 158.059 145.22V114.477H147.331V102.237H158.059V83.023H173.246V102.237H192.587V114.548H173.246V143.654C173.246 149.062 173.699 152.62 174.53 154.329C175.36 156.108 177.552 156.962 180.952 156.962L192.436 156.534L193.116 168.063C186.921 169.202 182.161 169.771 178.837 169.771ZM135.091 183.576L120.66 189.91L108.194 170.624C106.38 171.123 103.585 171.408 99.656 171.408C85.074 171.408 74.874 167.707 69.132 160.306C63.39 152.905 60.519 141.164 60.519 125.222C60.519 109.211 63.466 97.327 69.283 89.57C75.101 81.813 85.225 77.9 99.656 77.9C114.087 77.9 124.211 81.744 129.953 89.5C135.771 97.186 138.642 109.07 138.642 125.153C138.642 135.756 137.433 144.295 135.091 150.772C132.672 157.319 128.82 162.3 123.38 165.716L135.091 183.576ZM217.369 51H47.75L17 79.963V204.783H207.925L238.675 175.82V51H217.369Z" fill="#41CD52"/>
</g>
<defs>
<clipPath id="clip0_52_1494">
<rect width="256" height="256" fill="white"/>
</clipPath>
</defs>
</svg>
