<svg width="256" height="256" viewBox="0 0 256 256" fill="none" xmlns="http://www.w3.org/2000/svg">
<rect width="256" height="256" fill="#5346CB"/>
<path fill-rule="evenodd" clip-rule="evenodd" d="M133.033 39.1667C136.308 44.9167 139.567 50.6834 142.817 56.4584C142.948 56.6894 143.138 56.8813 143.368 57.0145C143.598 57.1478 143.859 57.2175 144.125 57.2167H190.392C191.842 57.2167 193.075 58.1334 194.108 59.9417L206.225 81.3584C207.808 84.1667 208.225 85.3417 206.425 88.3334C204.258 91.9167 202.15 95.5334 200.092 99.1667L197.033 104.65C196.15 106.283 195.175 106.983 196.7 108.917L218.8 147.558C220.233 150.067 219.725 151.675 218.442 153.975C214.8 160.517 211.092 167.008 207.317 173.475C205.992 175.742 204.383 176.6 201.65 176.558C195.175 176.425 188.717 176.475 182.258 176.692C182.12 176.699 181.986 176.741 181.868 176.814C181.75 176.886 181.652 176.988 181.583 177.108C174.132 190.311 166.618 203.477 159.042 216.608C157.633 219.05 155.875 219.633 153 219.642C144.692 219.667 136.317 219.675 127.858 219.658C127.071 219.656 126.298 219.446 125.618 219.05C124.937 218.653 124.373 218.084 123.983 217.4L112.858 198.042C112.794 197.915 112.694 197.809 112.572 197.737C112.449 197.665 112.309 197.629 112.167 197.633H69.5167C67.1417 197.883 64.9084 197.625 62.8084 196.867L49.4501 173.783C49.055 173.1 48.8456 172.325 48.8427 171.536C48.8398 170.746 49.0434 169.97 49.4334 169.283L59.4917 151.617C59.635 151.367 59.7104 151.084 59.7104 150.796C59.7104 150.508 59.635 150.225 59.4917 149.975C54.2523 140.904 49.044 131.815 43.8667 122.708L37.2834 111.083C35.9501 108.5 35.8417 106.95 38.0751 103.042C41.9501 96.2667 45.8001 89.5001 49.6334 82.7417C50.7334 80.7917 52.1667 79.9584 54.5001 79.9501C61.6917 79.9198 68.8834 79.917 76.0751 79.9417C76.2567 79.9403 76.4348 79.8911 76.5914 79.7989C76.7479 79.7067 76.8774 79.5749 76.9667 79.4167L100.35 38.6251C100.704 38.0045 101.216 37.4883 101.833 37.1284C102.451 36.7685 103.152 36.5777 103.867 36.5751C108.233 36.5667 112.642 36.5751 117.058 36.5251L125.533 36.3334C128.375 36.3084 131.567 36.6001 133.033 39.1667ZM104.433 42.5251C104.346 42.525 104.259 42.5481 104.183 42.592C104.107 42.6359 104.044 42.699 104 42.7751L80.1167 84.5667C80.0021 84.7637 79.838 84.9273 79.6406 85.0413C79.4433 85.1553 79.2196 85.2158 78.9917 85.2167H55.1084C54.6417 85.2167 54.5251 85.4251 54.7667 85.8334L103.183 170.467C103.392 170.817 103.292 170.983 102.9 170.992L79.6084 171.117C79.2679 171.105 78.9311 171.19 78.6364 171.361C78.3417 171.532 78.101 171.782 77.9417 172.083L66.9417 191.333C66.5751 191.983 66.7667 192.317 67.5084 192.317L115.142 192.383C115.525 192.383 115.808 192.55 116.008 192.892L127.7 213.342C128.083 214.017 128.467 214.025 128.858 213.342L170.575 140.342L177.1 128.825C177.14 128.754 177.198 128.695 177.268 128.653C177.339 128.612 177.419 128.59 177.5 128.59C177.582 128.59 177.662 128.612 177.732 128.653C177.802 128.695 177.86 128.754 177.9 128.825L189.767 149.908C189.856 150.066 189.985 150.197 190.142 150.288C190.299 150.379 190.477 150.426 190.658 150.425L213.683 150.258C213.742 150.259 213.801 150.244 213.852 150.214C213.903 150.185 213.946 150.143 213.975 150.092C214.004 150.041 214.018 149.983 214.018 149.925C214.018 149.867 214.004 149.809 213.975 149.758L189.808 107.375C189.721 107.233 189.675 107.07 189.675 106.904C189.675 106.738 189.721 106.575 189.808 106.433L192.25 102.208L201.583 85.7334C201.783 85.3917 201.683 85.2167 201.292 85.2167H104.667C104.175 85.2167 104.058 85.0001 104.308 84.5751L116.258 63.7001C116.348 63.5578 116.395 63.3932 116.395 63.2251C116.395 63.057 116.348 62.8923 116.258 62.7501L104.875 42.7834C104.832 42.7046 104.768 42.6389 104.69 42.5935C104.612 42.548 104.523 42.5244 104.433 42.5251ZM156.85 109.358C157.233 109.358 157.333 109.525 157.133 109.858L150.2 122.067L128.425 160.275C128.384 160.349 128.324 160.411 128.25 160.454C128.177 160.496 128.093 160.518 128.008 160.517C127.924 160.516 127.841 160.494 127.768 160.452C127.695 160.409 127.634 160.348 127.592 160.275L98.8167 110.008C98.6501 109.725 98.7334 109.575 99.0501 109.558L100.85 109.458L156.867 109.358H156.85Z" fill="white"/>
</svg>
