<svg width="256" height="256" viewBox="0 0 256 256" fill="none" xmlns="http://www.w3.org/2000/svg">
<rect width="256" height="256" fill="#242932"/>
<g clip-path="url(#clip0_74_430)">
<path d="M199.084 230.668L163.279 195.018L162.732 195.097V194.706L86.5889 119.421L105.351 101.283L94.3286 37.9595L42.029 102.847C33.1174 111.837 31.4754 126.457 37.886 137.245L70.5631 191.501C75.5661 199.865 84.6349 204.868 94.4064 204.79L110.589 204.634L199.084 230.668Z" fill="#18B6F6"/>
<path d="M218.625 101.596L211.432 88.3052L207.68 81.5038L206.195 78.8457L206.039 79.0023L186.338 44.8383C181.413 36.2391 172.188 30.9229 162.182 31.0001L144.906 31.47L93.3879 31.6266C83.6164 31.7045 74.704 36.8641 69.7789 45.2295L38.4309 107.459L94.4806 37.8016L167.966 118.638L154.911 131.849L162.728 195.096L162.807 194.939V195.096H162.65L162.807 195.252L168.904 201.193L198.533 230.197C199.784 231.37 201.817 229.963 200.956 228.477L182.663 192.438L214.559 133.413L215.575 132.241C215.966 131.771 216.357 131.302 216.67 130.833C222.924 122.312 223.784 110.898 218.624 101.595" fill="#AC7EF4"/>
<path d="M168.201 118.326L94.4806 37.8809L104.956 100.892L86.1946 119.107L162.572 195.018L155.693 132.007L168.201 118.326Z" fill="white"/>
</g>
<defs>
<clipPath id="clip0_74_430">
<rect width="188" height="200" fill="white" transform="translate(34 31)"/>
</clipPath>
</defs>
</svg>
