<svg width="256" height="256" viewBox="0 0 256 256" fill="none" xmlns="http://www.w3.org/2000/svg">
<rect width="256" height="256" fill="#232932"/>
<path d="M128 184.831C72.7563 184.831 28 154.856 28 117.838C28 80.8626 72.7563 50.8813 128 50.8813C183.244 50.8813 228 80.8626 228 117.838C228 154.856 183.244 184.831 128 184.831ZM143.3 77.0563C101.344 77.0563 67.2938 97.5626 67.2938 122.856C67.2938 148.15 101.344 168.656 143.3 168.656C185.256 168.656 216.281 154.625 216.281 122.856C216.281 91.0813 185.287 77.0563 143.3 77.0563ZM180.275 154.625C183.56 155.599 186.77 156.809 189.881 158.244C191.675 159.119 193.3 160.294 194.731 161.694C195.606 162.638 196.356 163.713 196.938 164.888L220.806 205.119H182.231L164.2 171.263C162.548 168.311 160.549 165.569 158.244 163.094C157.666 162.445 156.959 161.925 156.168 161.566C155.376 161.208 154.519 161.019 153.65 161.013H144.5V205.088L110.394 205.119V92.4876H178.912C178.912 92.4876 210.106 93.0438 210.106 122.731C210.134 130.847 207.063 138.668 201.52 144.596C195.977 150.525 188.381 154.114 180.281 154.631L180.275 154.625ZM165.469 116.9H144.8V136.044H165.469C166.744 136.059 168.008 135.816 169.187 135.33C170.365 134.844 171.434 134.125 172.328 133.217C173.222 132.308 173.924 131.228 174.39 130.042C174.857 128.855 175.079 127.587 175.044 126.313C175.116 125.044 174.916 123.775 174.458 122.589C174 121.404 173.294 120.33 172.388 119.44C171.481 118.549 170.395 117.863 169.202 117.426C168.009 116.989 166.736 116.812 165.469 116.906V116.9Z" fill="white"/>
</svg>
