<svg width="256" height="256" viewBox="0 0 256 256" fill="none" xmlns="http://www.w3.org/2000/svg">
<rect width="256" height="256" fill="#232932"/>
<g clip-path="url(#clip0_99_426)">
<path d="M124 228C107.026 228 90.7475 221.257 78.7452 209.255C66.7428 197.253 60 180.974 60 164C60 147.026 66.7428 130.747 78.7452 118.745C90.7475 106.743 107.026 100 124 100V228ZM124 28H60V92H124V28ZM164 92C172.487 92 180.626 88.6286 186.627 82.6274C192.629 76.6263 196 68.4869 196 60C196 51.5131 192.629 43.3737 186.627 37.3726C180.626 31.3714 172.487 28 164 28C155.513 28 147.374 31.3714 141.373 37.3726C135.371 43.3737 132 51.5131 132 60C132 68.4869 135.371 76.6263 141.373 82.6274C147.374 88.6286 155.513 92 164 92Z" fill="white"/>
</g>
<defs>
<clipPath id="clip0_99_426">
<rect width="136" height="200" fill="white" transform="translate(60 28)"/>
</clipPath>
</defs>
</svg>
