<svg width="256" height="256" viewBox="0 0 256 256" fill="none" xmlns="http://www.w3.org/2000/svg">
<rect width="256" height="256" fill="#232932"/>
<g clip-path="url(#clip0_131_817)">
<path d="M28.9375 113.586C28.4586 116.921 28.1457 120.278 28 123.645H179.914C179.387 122.609 178.664 121.691 177.961 120.773C151.984 87.2187 138.02 90.1094 118.02 89.2695C111.379 88.9961 106.848 88.8789 80.3242 88.8789C66.125 88.8789 50.6953 88.918 35.6758 88.957C33.7913 93.6834 32.2062 98.5237 30.9297 103.449H108.781V113.586H28.9375ZM181.105 133.801H28.0781C28.2344 136.496 28.4883 139.172 28.8594 141.809H170.148C176.438 141.809 179.973 138.234 181.105 133.801ZM36.7891 169.465C36.7891 169.465 60.2266 226.984 127.902 228C168.332 228 203.098 203.977 218.898 169.465H36.7891Z" fill="white"/>
<path d="M127.902 28C110.168 27.9981 92.7527 32.7104 77.4393 41.6541C62.1258 50.5978 49.4651 63.4515 40.7539 78.8984L80.3438 78.8594C111.281 78.8594 112.414 78.9766 118.469 79.25L122.199 79.3672C135.227 79.8164 151.242 81.2031 163.84 90.7344C170.676 95.9102 180.559 107.336 186.438 115.441C191.887 122.961 193.449 131.613 189.758 139.895C186.34 147.512 179.016 152.043 170.148 152.043H31.2617C31.2617 152.043 32.082 155.559 33.332 159.426H222.902C226.27 149.304 227.991 138.707 228 128.039C227.99 101.5 217.438 76.0519 198.667 57.2915C179.896 38.5311 154.441 27.9948 127.902 28Z" fill="white"/>
</g>
<defs>
<clipPath id="clip0_131_817">
<rect width="200" height="200" fill="white" transform="translate(28 28)"/>
</clipPath>
</defs>
</svg>
