<svg width="256" height="256" viewBox="0 0 256 256" fill="none" xmlns="http://www.w3.org/2000/svg">
<rect width="256" height="256" fill="#1D4371"/>
<g clip-path="url(#clip0_131_852)">
<path fill-rule="evenodd" clip-rule="evenodd" d="M29.1875 128C29.1875 182.572 73.425 226.812 128 226.812C182.575 226.812 226.812 182.572 226.812 128C226.812 73.4281 182.575 29.1875 128 29.1875C73.425 29.1875 29.1875 73.4281 29.1875 128Z" fill="#1D4371"/>
<path fill-rule="evenodd" clip-rule="evenodd" d="M128 28.0033C114.863 27.9677 101.85 30.5378 89.7133 35.565C77.5766 40.5922 66.5575 47.9766 57.2937 57.2908C47.978 66.5545 40.5922 77.5739 35.5639 89.7112C30.5356 101.848 27.9647 114.863 27.9999 128C27.963 141.138 30.5331 154.153 35.5615 166.29C40.5899 178.428 47.9766 189.447 57.2937 198.71C66.5571 208.023 77.5757 215.408 89.7119 220.435C101.848 225.462 114.861 228.032 127.997 227.997C141.135 228.034 154.149 225.464 166.287 220.435C178.424 215.407 189.444 208.02 198.706 198.703C208.021 189.44 215.406 178.422 220.435 166.286C225.463 154.15 228.034 141.137 228 128C228.035 114.863 225.464 101.848 220.436 89.7112C215.408 77.5739 208.022 66.5545 198.706 57.2908C189.442 47.9762 178.422 40.5916 166.285 35.5644C154.148 30.5372 141.137 27.9673 128 28.0033ZM127.997 29.1908C182.572 29.1877 226.812 73.4283 226.812 128C226.812 182.572 182.575 226.813 128 226.813C73.4249 226.813 29.1874 182.572 29.1874 128C29.1874 73.4283 73.4249 29.1877 128 29.1877M194.194 172.363L174.506 173.925C172.368 173.97 170.297 173.181 168.731 171.725L161.606 164.86L154.55 158.235C154.131 157.879 153.644 157.611 153.12 157.447C152.596 157.282 152.044 157.224 151.497 157.275C150.52 157.359 149.606 157.792 148.922 158.494C148.238 159.196 147.83 160.122 147.772 161.1C147.709 162.044 147.972 162.985 148.522 163.756L161 178.675L165.437 183.519C166.302 184.313 166.94 185.323 167.283 186.445C167.627 187.568 167.665 188.761 167.394 189.903C167.119 191.045 166.545 192.093 165.73 192.939C164.915 193.785 163.89 194.398 162.759 194.716C161.628 195.033 160.433 195.041 159.298 194.739C158.163 194.436 157.13 193.835 156.306 192.997L151.266 188.778L131.553 171.972C130.791 171.281 129.795 170.907 128.766 170.927C127.738 170.946 126.756 171.358 126.022 172.078L106.944 189.6L102.062 193.975C101.272 194.855 100.259 195.506 99.1293 195.859C98 196.212 96.7964 196.254 95.6454 195.98C94.4944 195.706 93.4386 195.127 92.5891 194.303C91.7396 193.48 91.128 192.442 90.8187 191.3C90.5059 190.16 90.5054 188.957 90.8171 187.817C91.1288 186.677 91.7414 185.641 92.5905 184.819L96.8749 179.875L108.75 164.647C109.309 163.818 109.565 162.821 109.475 161.825C109.376 160.851 108.931 159.945 108.223 159.27C107.514 158.595 106.587 158.196 105.609 158.144C105.061 158.112 104.512 158.19 103.995 158.374C103.478 158.557 103.002 158.842 102.597 159.213L95.7843 166.088L88.9218 173.222C87.4103 174.737 85.3676 175.602 83.228 175.635L63.5405 174.781L56.9655 174.444C55.2344 174.455 53.5687 173.783 52.3296 172.575C51.0905 171.366 50.3778 169.717 50.3461 167.986C50.3145 166.255 50.9664 164.582 52.1605 163.329C53.3545 162.075 54.9946 161.343 56.7249 161.291L63.278 160.76L77.9437 158.935C79.833 158.547 81.5271 157.51 82.7325 156.005C83.9379 154.499 84.5787 152.619 84.5437 150.691L83.6999 105.244C83.2499 81.0002 102.537 60.9783 126.784 60.5564C151.031 60.1346 171.05 79.3939 171.472 103.641L172.316 149.078C172.35 151.003 173.056 152.855 174.312 154.315C175.567 155.774 177.293 156.75 179.191 157.072L193.916 158.322L200.478 158.635C201.656 158.564 202.831 158.816 203.877 159.362C204.923 159.909 205.801 160.73 206.416 161.738C207.656 163.788 207.734 166.363 206.541 168.463C205.957 169.492 205.106 170.345 204.077 170.93C203.048 171.516 201.88 171.812 200.697 171.788L194.194 172.363Z" fill="white"/>
<path fill-rule="evenodd" clip-rule="evenodd" d="M157.853 101.6L141.891 91.2873C139.047 89.5779 135.728 91.8873 135.778 95.2123C135.803 96.9935 136.716 98.1404 138.153 99.0561L146.881 104.737L137.569 110.347C135.434 111.709 134.959 114.14 136.194 116.206C137.35 118.144 139.781 118.962 141.834 117.79L157.616 108.415C160.116 106.822 160.291 103.278 157.853 101.6ZM116.666 109.853L108.084 104.734L116.566 99.2248C119.353 97.3998 120.066 94.9435 118.522 92.6623C117.041 90.4873 114.566 90.2029 111.856 91.9498L98.2314 100.769C94.4376 103.247 94.5064 106.769 98.4095 109.106L112.184 117.253C114.903 118.815 117.444 118.428 118.791 116.203C120.153 113.953 119.338 111.465 116.666 109.847" fill="#1D4371"/>
</g>
<defs>
<clipPath id="clip0_131_852">
<rect width="200" height="200" fill="white" transform="translate(28 28)"/>
</clipPath>
</defs>
</svg>
