<svg width="256" height="256" viewBox="0 0 256 256" fill="none" xmlns="http://www.w3.org/2000/svg">
<rect width="256" height="256" fill="#BC1142"/>
<g clip-path="url(#clip0_142_874)">
<path d="M91.499 28.0028C90.4851 28.0342 89.3933 28.4074 88.1548 29.3828C85.1216 28.2154 82.18 27.8102 79.5495 30.1862C75.4875 29.6611 74.1677 30.7451 73.1675 32.0114C72.2756 31.9931 66.495 31.0971 63.8445 35.0416C57.1829 34.2554 55.0771 38.9508 57.4625 43.3285C56.102 45.4296 54.6922 47.5051 57.8738 51.5108C56.7481 53.7416 57.4458 56.1616 60.0975 59.0908C59.3975 62.2268 60.7735 64.4394 63.2401 66.1639C62.7784 70.4554 67.1853 72.9502 68.5011 73.8399C69.0064 76.3405 70.0593 78.6999 75.0928 80.0051C75.9229 83.7314 78.9481 84.3754 81.8776 85.1576C72.196 90.7714 63.8926 98.1577 63.9493 116.281L62.531 118.805C51.4299 125.539 41.4418 147.185 57.0603 164.778C58.0806 170.285 59.7916 174.241 61.3148 178.619C63.5936 196.261 78.464 204.521 82.3857 205.497C88.1336 209.863 94.2544 214.007 102.538 216.909C110.346 224.943 118.806 228.005 127.311 227.999C127.436 227.999 127.563 228.001 127.688 227.999C136.194 228.005 144.653 224.943 152.462 216.909C160.745 214.007 166.867 209.863 172.614 205.495C176.536 204.519 191.407 196.259 193.685 178.617C195.208 174.239 196.919 170.283 197.939 164.777C213.558 147.182 203.57 125.535 192.468 118.801L191.048 116.277C191.104 98.1554 182.801 90.7685 173.12 85.1536C176.049 84.3714 179.075 83.7279 179.904 80.0011C184.937 78.6959 185.991 76.3365 186.496 73.8359C187.812 72.9468 192.218 70.4519 191.757 66.1599C194.224 64.4354 195.6 62.2228 194.899 59.0868C197.551 56.1582 198.249 53.7382 197.124 51.5068C200.306 47.5034 198.894 45.4274 197.536 43.3262C199.919 38.9479 197.815 34.2531 191.151 35.0394C188.501 31.0948 182.722 31.9908 181.828 32.0091C180.828 30.7434 179.509 29.6588 175.447 30.1839C172.816 27.8085 169.875 28.2136 166.842 29.3805C163.239 26.5451 160.855 28.8182 158.133 29.6776C153.771 28.2559 152.774 30.2034 150.631 30.9965C145.874 29.9942 144.428 32.1765 142.148 34.4811L139.496 34.4285C132.321 38.6462 128.757 47.2342 127.494 51.6485C126.229 47.2331 122.674 38.6451 115.501 34.4285L112.848 34.4811C110.565 32.1771 109.12 29.9942 104.363 30.9965C102.221 30.2045 101.226 28.2571 96.862 29.6788C95.0747 29.1148 93.4312 27.9422 91.4956 28.0022L91.499 28.0028Z" fill="white"/>
<path fill-rule="evenodd" clip-rule="evenodd" d="M150.765 172.947V172.724C150.697 161.141 140.438 151.804 127.846 151.867C115.256 151.924 105.099 161.364 105.167 172.947V173.17C105.23 184.754 115.496 194.09 128.087 194.027C140.678 193.97 150.829 184.53 150.765 172.947ZM114.774 113.039C105.328 106.861 91.7111 110.85 84.3679 121.936C77.0183 133.027 78.7196 147.022 88.1715 153.193C97.6177 159.371 111.228 155.387 118.578 144.296C125.922 133.204 124.22 119.21 114.774 113.039ZM140.272 111.918C130.825 118.096 129.118 132.09 136.468 143.176C143.811 154.268 157.428 158.25 166.874 152.079C176.32 145.902 178.021 131.907 170.678 120.821C163.328 109.73 149.717 105.747 140.272 111.918ZM67.5555 123.13C50.6337 132.77 53.5724 154.222 62.703 161.547C71.0034 165.222 77.7572 120.404 67.5555 123.13ZM185.429 122.57C175.226 119.844 181.985 164.667 190.281 160.988C199.411 153.667 202.35 132.21 185.429 122.57ZM150.772 89.1987C144.287 90.2844 181.848 123.004 182.427 115.702C183.023 96.6616 168.375 86.233 150.772 89.1987ZM102.137 88.6387C84.5345 85.673 69.8927 96.1067 70.4822 115.147C71.0607 122.444 108.622 89.7244 102.137 88.6387ZM127.422 84.1987C116.916 83.9244 106.835 91.9759 106.812 96.6444C106.783 102.319 115.118 108.131 127.497 108.274C140.134 108.365 148.2 103.627 148.24 97.7702C148.285 91.1359 136.743 84.0953 127.422 84.1987ZM128.064 200.542C118.961 200.319 105.001 204.182 105.173 209.13C105.03 212.507 116.132 222.25 127.456 221.764C138.392 221.952 149.689 212.222 149.54 207.918C149.517 203.484 137.224 200.147 128.064 200.542ZM94.2322 174.274C86.7503 165.611 77.0303 160.444 70.7342 164.268C66.5232 167.462 65.7562 178.336 71.7481 189.022C80.6329 201.759 93.1381 203.034 98.2879 199.936C103.73 195.879 100.757 182.107 94.2322 174.274ZM160.59 171.782C153.533 180.027 149.609 195.067 154.754 199.907C159.674 203.673 172.883 203.147 182.645 189.639C189.731 180.564 187.354 165.416 183.309 161.392C177.294 156.753 168.667 162.69 160.59 171.782Z" fill="#BC1142"/>
<path fill-rule="evenodd" clip-rule="evenodd" d="M77.2108 46.5598C92.0193 51.5769 105.377 58.2689 116.571 67.4741C129.711 61.2741 120.649 45.6398 114.239 39.4341C113.913 41.0741 113.547 42.1084 113.123 42.4169C111.037 40.1484 109.33 37.8284 106.643 35.6455C106.632 36.9255 107.279 38.3198 105.681 39.3369C104.237 37.3712 102.29 35.6169 99.7005 34.1312C100.95 36.3084 99.9182 36.9655 99.248 37.8684C97.2723 36.1541 95.3933 34.4169 91.7495 33.0684C92.7462 34.2969 94.1382 35.4969 92.6603 36.9084C90.6267 35.6226 88.5822 34.3369 83.7469 33.4226C84.8347 34.6512 87.0923 35.8798 85.7232 37.1141C83.1677 36.1255 80.3436 35.4055 77.2159 34.9884C78.711 36.2398 79.9598 37.4569 78.7339 38.4226C76.0009 37.5712 72.2379 36.4284 68.5545 37.4169L70.886 39.7884C71.1438 40.1084 65.4326 40.0341 61.669 40.0912C63.0438 42.0284 64.4415 43.8912 65.2607 47.2169C64.8884 47.5998 63.0209 47.3826 61.2623 47.2169C63.0667 51.0626 66.2002 52.0341 66.9334 53.6798C65.8278 54.5255 64.2983 54.3084 62.6256 53.7312C63.926 56.4455 66.6527 58.3026 68.8066 60.5026C68.2624 60.8918 67.3115 61.1261 65.0602 60.8569C67.048 62.9941 69.4539 64.9541 72.3009 66.7141C71.7968 67.3084 70.0611 67.2798 68.4514 67.3204C71.0349 69.8798 74.3517 71.2055 77.468 72.8798C75.9156 73.9541 74.8043 73.7026 73.6185 73.6855C75.8176 75.5198 79.5646 76.4741 83.036 77.5769C82.3778 78.6169 81.7185 78.9026 80.303 79.1941C83.9806 81.2569 89.2513 80.3141 90.735 81.3661C90.3798 82.4004 89.3653 83.0741 88.1515 83.6398C94.0747 83.9884 110.268 83.4226 113.373 71.0106C107.313 64.2626 96.2457 56.3484 77.2108 46.5598ZM178.208 46.5598C159.179 56.3484 148.111 64.2626 142.051 71.0112C145.156 83.4232 161.349 83.9889 167.272 83.6404C166.059 83.0746 165.045 82.4004 164.689 81.3666C166.173 80.3146 171.443 81.2581 175.121 79.1946C173.705 78.9032 173.047 78.6175 172.388 77.5775C175.86 76.4746 179.607 75.5204 181.806 73.6861C180.62 73.7032 179.509 73.9546 177.956 72.8804C181.072 71.2055 184.389 69.8804 186.972 67.3209C185.362 67.2809 183.627 67.3089 183.122 66.7146C185.97 64.9546 188.375 62.9946 190.364 60.8575C188.112 61.1266 187.162 60.8924 186.618 60.5032C188.772 58.3026 191.498 56.4461 192.798 53.7318C191.126 54.3089 189.596 54.5261 188.491 53.6804C189.223 52.0346 192.357 51.0632 194.162 47.2175C192.403 47.3832 190.536 47.6004 190.163 47.2175C190.982 43.8918 192.385 42.0232 193.76 40.0918C189.991 40.0346 184.28 40.1089 184.537 39.7889L186.869 37.4118C183.191 36.4232 179.422 37.5718 176.689 38.4232C175.463 37.4575 176.712 36.2346 178.206 34.9889C175.079 35.4061 172.255 36.1204 169.7 37.1089C168.337 35.8804 170.588 34.6518 171.676 33.4232C166.841 34.3375 164.795 35.6232 162.762 36.9089C161.285 35.4975 162.677 34.2975 163.673 33.0689C160.031 34.4175 158.15 36.1546 156.175 37.8689C155.505 36.9661 154.473 36.3032 155.722 34.1318C153.132 35.6175 151.185 37.3718 149.747 39.3318C148.144 38.3146 148.79 36.9261 148.785 35.6461C146.093 37.8289 144.385 40.1489 142.3 42.4175C141.882 42.1089 141.51 41.0746 141.183 39.4346C134.774 45.6404 125.711 61.2752 138.857 67.4746C150.041 58.2689 163.4 51.5769 178.208 46.5598Z" fill="#75A928"/>
</g>
<defs>
<clipPath id="clip0_142_874">
<rect width="157" height="200" fill="white" transform="translate(49 28)"/>
</clipPath>
</defs>
</svg>
