<svg width="256" height="256" viewBox="0 0 256 256" fill="none" xmlns="http://www.w3.org/2000/svg">
<rect width="256" height="256" fill="#FF6363"/>
<g clip-path="url(#clip0_142_887)">
<path fill-rule="evenodd" clip-rule="evenodd" d="M78 157.136V178L28 128L38.4286 117.571L78 157.15V157.136ZM98.8643 178H78L128 228L138.429 217.571L98.8643 178ZM217.536 138.443L227.971 128L127.971 28L117.557 38.4714L157.121 78.0286H133.214L105.6 50.4714L95.1714 60.9L112.35 78.0714H100.35V155.686H177.957V143.686L195.136 160.857L205.564 150.429L177.957 122.814V98.9071L217.536 138.443ZM83.2143 72.8286L72.75 83.2714L83.95 94.4571L94.3857 84.0286L83.2143 72.8286ZM172.014 161.629L161.586 172.071L172.771 183.271L183.214 172.829L172.014 161.629ZM60.8286 95.2143L50.3857 105.657L78 133.271V112.393L60.8286 95.2143ZM143.657 178.043H122.771L150.386 205.657L160.829 195.214L143.657 178.043Z" fill="#232932"/>
</g>
<defs>
<clipPath id="clip0_142_887">
<rect width="200" height="200" fill="white" transform="translate(28 28)"/>
</clipPath>
</defs>
</svg>
