<svg width="256" height="256" viewBox="0 0 256 256" fill="none" xmlns="http://www.w3.org/2000/svg">
<rect width="256" height="256" fill="#232932"/>
<path d="M153.544 151.589L149.287 158.839C148.678 159.912 147.8 160.808 146.74 161.436C145.679 162.064 144.473 162.404 143.241 162.422H111.226C108.672 162.422 106.373 161.057 105.096 158.839L100.838 151.589H153.544ZM165.209 131.204L157.886 143.998H96.4959L89.0881 131.204H165.124H165.209ZM158.142 111.33L165.209 123.698H89.1733L96.3256 111.33H158.142ZM143.241 92.5653C145.796 92.5653 148.095 93.8447 149.372 95.9771L153.799 103.739H100.668L105.096 96.0624C105.711 94.9767 106.603 94.0735 107.679 93.4443C108.756 92.8152 109.98 92.4825 111.226 92.48H143.241V92.5653Z" fill="#00435B"/>
<path d="M180.45 167.624C182.153 167.368 183.686 168.477 184.112 170.012V170.183L184.282 171.036C189.987 201.145 185.985 216.242 172.191 216.242C158.738 216.242 141.538 203.363 120.763 177.689C120.398 177.23 120.169 176.678 120.101 176.095C120.032 175.513 120.127 174.923 120.375 174.392C120.622 173.86 121.013 173.408 121.502 173.087C121.992 172.765 122.561 172.587 123.147 172.571H124.339C143.184 172.686 161.999 171.029 180.535 167.624H180.45ZM85.9376 144.936H86.0228L86.6188 145.959C96.0504 162.44 106.997 178.002 119.315 192.445C119.839 193.064 120.105 193.861 120.057 194.671C120.01 195.481 119.652 196.242 119.06 196.795V196.88L118.208 197.477C95.0483 217.436 79.8922 221.36 72.9102 209.419C66.0985 197.733 68.6529 176.41 80.4031 145.448C80.6245 144.921 80.9847 144.464 81.4451 144.126C81.9055 143.788 82.4489 143.582 83.0172 143.529C83.5855 143.477 84.1574 143.58 84.6718 143.828C85.1861 144.075 85.6237 144.458 85.9376 144.936ZM192.286 100.583H192.371L193.222 100.839C221.917 110.818 232.9 121.821 226.004 133.848C219.192 145.533 199.608 154.062 167.253 159.436C166.658 159.552 166.042 159.493 165.48 159.268C164.917 159.042 164.432 158.659 164.081 158.164C163.731 157.668 163.53 157.083 163.504 156.476C163.477 155.87 163.626 155.269 163.932 154.745C173.73 138.128 181.94 120.622 188.454 102.459C188.725 101.725 189.258 101.118 189.95 100.755C190.642 100.393 191.444 100.301 192.2 100.497H192.286V100.583ZM90.9613 95.465C92.4088 96.3179 92.9196 98.2797 92.0682 99.7297C82.2702 116.347 74.0598 133.853 67.546 152.015C67.2747 152.768 66.728 153.389 66.0166 153.754C65.3053 154.118 64.4823 154.198 63.7144 153.977H63.6293L62.7778 153.636C34.0834 143.656 23.0995 132.653 29.9964 120.712C36.8081 108.942 56.3918 100.412 88.7475 95.1238C89.5989 94.9532 90.2801 95.1238 90.8761 95.465H90.9613ZM183.005 46.25C189.816 57.9354 187.262 79.259 175.512 110.221C175.29 110.748 174.93 111.205 174.47 111.543C174.009 111.88 173.466 112.087 172.898 112.139C172.329 112.192 171.757 112.089 171.243 111.841C170.729 111.593 170.291 111.21 169.977 110.733H169.892L169.296 109.709C159.864 93.229 148.918 77.6663 136.6 63.2237C136.076 62.6047 135.81 61.8074 135.858 60.9974C135.905 60.1873 136.263 59.4268 136.855 58.8736V58.7883L137.707 58.1913C160.867 38.2323 176.023 34.3088 183.005 46.25ZM84.9159 39.0853C98.4542 39.0853 115.569 51.8795 136.344 77.5531C136.705 78.0067 136.934 78.551 137.006 79.1263C137.078 79.7015 136.99 80.2856 136.753 80.8143C136.515 81.3431 136.137 81.796 135.659 82.1235C135.182 82.451 134.623 82.6404 134.045 82.6708H132.853C114.008 82.5564 95.1933 84.2126 76.6567 87.6179C74.9537 87.8738 73.4211 86.8503 73.0805 85.2297V85.1444L72.9102 84.2061C67.2054 54.0971 71.2073 39 84.9159 39V39.0853Z" fill="#FF4154"/>
<path d="M113.781 92.9066H140.687C144.604 92.9066 148.265 94.9537 150.223 98.3654L163.676 121.992C165.635 125.404 165.635 129.498 163.676 132.91L150.223 156.451C148.265 159.863 144.604 161.995 140.687 161.995H113.781C109.864 161.995 106.202 159.863 104.244 156.451L90.791 132.91C88.8326 129.498 88.8326 125.319 90.791 121.992L104.159 98.2801C106.117 94.8684 109.779 92.8213 113.695 92.8213L113.781 92.9066ZM136.515 99.986C140.431 99.986 144.008 102.118 145.966 105.53L155.417 121.992C157.376 125.404 157.376 129.498 155.417 132.91L146.051 149.372C144.008 152.783 140.431 154.916 136.515 154.916H117.782C113.866 154.916 110.204 152.783 108.246 149.372L98.8799 132.91C96.9215 129.498 96.9215 125.319 98.8799 121.992L108.246 105.53C110.204 102.118 113.866 99.986 117.782 99.986H136.515ZM132.087 107.748H122.21C118.293 107.748 114.632 109.88 112.674 113.292L107.735 121.992C105.777 125.404 105.777 129.498 107.735 132.91L112.674 141.61C114.632 145.022 118.293 147.069 122.21 147.069H132.087C136.004 147.069 139.58 145.022 141.538 141.61L146.562 132.91C148.52 129.498 148.52 125.319 146.562 121.992L141.623 113.292C139.665 109.88 136.089 107.748 132.172 107.748H132.087ZM127.83 115.254C131.746 115.254 135.323 117.301 137.281 120.713L138.047 121.992C140.006 125.404 140.006 129.498 138.047 132.91L137.281 134.189C135.323 137.601 131.746 139.648 127.83 139.648H126.467C122.551 139.648 118.889 137.601 116.931 134.189L116.25 132.91C114.291 129.498 114.291 125.319 116.25 121.992L116.931 120.713C118.889 117.301 122.551 115.254 126.467 115.254H127.83ZM127.149 122.589C125.861 122.589 124.627 123.101 123.717 124.013C122.807 124.925 122.295 126.161 122.295 127.451C122.295 128.74 122.807 129.977 123.717 130.889C124.627 131.8 125.861 132.313 127.149 132.313C128.436 132.313 129.67 131.8 130.58 130.889C131.491 129.977 132.002 128.74 132.002 127.451C132.002 126.161 131.491 124.925 130.58 124.013C129.67 123.101 128.436 122.589 127.149 122.589ZM87.5554 127.451H96.3255H87.5554Z" fill="#FFD94C"/>
</svg>
