<svg width="256" height="256" viewBox="0 0 256 256" fill="none" xmlns="http://www.w3.org/2000/svg">
<g clip-path="url(#clip0_1_67)">
<rect width="256" height="256" fill="white"/>
<rect width="256" height="256" fill="#23272F"/>
<path d="M128 146.508C138.058 146.508 146.211 138.355 146.211 128.297C146.211 118.24 138.058 110.086 128 110.086C117.942 110.086 109.789 118.24 109.789 128.297C109.789 138.355 117.942 146.508 128 146.508Z" fill="#57C5DC"/>
<path d="M197.169 98.2652C193.655 96.9872 189.981 95.7093 186.147 94.5911C187.105 90.7572 187.904 86.9233 188.543 83.2492C191.898 62.1629 188.224 47.3067 178 41.5559C174.965 39.7987 171.61 39 167.776 39C156.594 39 142.377 47.3067 128 61.2045C113.623 47.3067 99.4057 39 88.2236 39C84.3898 39 81.0351 39.7987 78 41.5559C67.7764 47.4665 64.1022 62.3227 67.4569 83.2492C68.0959 86.9233 68.8946 90.7572 69.853 94.5911C66.0192 95.7093 62.3451 96.8275 58.8307 98.2652C38.8626 105.933 28 116.476 28 128.297C28 140.118 39.0224 150.661 58.8307 158.329C62.3451 159.607 66.0192 160.885 69.853 162.003C68.8946 165.837 68.0959 169.671 67.4569 173.345C64.1022 194.431 67.7764 209.288 78 215.038C81.0351 216.796 84.3898 217.594 88.2236 217.594C99.5655 217.594 113.783 209.288 128 195.39C142.377 209.288 156.594 217.594 167.776 217.594C171.61 217.594 174.965 216.796 178 215.038C188.224 209.128 191.898 194.272 188.543 173.345C187.904 169.671 187.105 165.837 186.147 162.003C189.981 160.885 193.655 159.767 197.169 158.329C217.137 150.661 228 140.118 228 128.297C228 116.476 217.137 105.933 197.169 98.2652ZM173.527 49.5431C180.077 53.377 182.313 65.1981 179.597 81.9712C179.118 85.3259 178.32 88.8403 177.361 92.5144C169.054 90.5974 160.268 89.3195 151.003 88.5208C145.572 80.853 139.981 73.984 134.39 67.754C146.211 56.0927 158.192 48.1054 167.936 48.1054C170.013 48.1054 171.93 48.5847 173.527 49.5431ZM155.636 144.272C152.76 149.383 149.406 154.495 145.891 159.607C139.981 160.086 134.07 160.246 128 160.246C121.77 160.246 115.859 160.086 110.109 159.607C106.594 154.495 103.399 149.383 100.524 144.272C97.4888 139 94.6134 133.569 92.0575 128.297C94.6134 123.026 97.4888 117.594 100.524 112.323C103.399 107.211 106.754 102.099 110.268 96.9872C116.179 96.508 122.089 96.3482 128.16 96.3482C134.39 96.3482 140.3 96.508 146.051 96.9872C149.566 102.099 152.76 107.211 155.636 112.323C158.671 117.594 161.546 123.026 164.102 128.297C161.387 133.569 158.671 138.84 155.636 144.272ZM168.895 139C171.291 144.591 173.208 150.022 174.965 155.454C169.534 156.732 163.783 157.69 157.712 158.489C159.629 155.454 161.706 152.259 163.463 148.904C165.38 145.55 167.137 142.195 168.895 139ZM128 182.291C124.166 178.137 120.492 173.665 116.978 169.032C120.652 169.192 124.326 169.351 128 169.351C131.674 169.351 135.348 169.192 139.022 169.032C135.508 173.665 131.834 178.137 128 182.291ZM98.2875 158.329C92.2173 157.53 86.4665 156.572 81.0351 155.294C82.7923 150.022 84.7093 144.431 87.1054 138.84C88.8626 142.035 90.6198 145.39 92.5367 148.585C94.4537 152.099 96.3706 155.134 98.2875 158.329ZM87.1054 117.594C84.7093 112.003 82.7923 106.572 81.0351 101.141C86.4665 99.8626 92.2173 98.9042 98.2875 98.1054C96.3706 101.141 94.2939 104.335 92.5367 107.69C90.6198 111.045 88.8626 114.399 87.1054 117.594ZM128 74.3035C131.834 78.4569 135.508 82.9297 139.022 87.5623C135.348 87.4026 131.674 87.2428 128 87.2428C124.326 87.2428 120.652 87.4026 116.978 87.5623C120.492 82.9297 124.166 78.4569 128 74.3035ZM163.463 107.85L157.712 98.2652C163.783 99.0639 169.534 100.022 174.965 101.3C173.208 106.572 171.291 112.163 168.895 117.754C167.137 114.399 165.38 111.045 163.463 107.85ZM76.4026 81.9712C73.6869 65.1981 75.9233 53.377 82.4728 49.5431C84.0703 48.5847 85.9872 48.1054 88.0639 48.1054C97.6486 48.1054 109.629 55.9329 121.61 67.754C116.019 73.8243 110.428 80.853 104.997 88.5208C95.7316 89.3195 86.9457 90.7572 78.639 92.5144C77.6805 88.8403 77.0415 85.3259 76.4026 81.9712ZM36.9457 128.297C36.9457 120.789 46.0511 112.802 62.0256 106.891C65.2205 105.613 68.7348 104.495 72.2492 103.537C74.8051 111.524 78 119.99 81.8339 128.457C78 136.923 74.6454 145.23 72.2492 153.217C50.2045 146.827 36.9457 137.243 36.9457 128.297ZM82.4728 207.051C75.9233 203.217 73.6869 191.396 76.4026 174.623C76.8818 171.268 77.6805 167.754 78.639 164.08C86.9457 165.997 95.7316 167.275 104.997 168.073C110.428 175.741 116.019 182.61 121.61 188.84C109.789 200.502 97.8083 208.489 88.0639 208.489C85.9872 208.489 84.0703 208.01 82.4728 207.051ZM179.597 174.623C182.313 191.396 180.077 203.217 173.527 207.051C171.93 208.01 170.013 208.489 167.936 208.489C158.351 208.489 146.371 200.661 134.39 188.84C139.981 182.77 145.572 175.741 151.003 168.073C160.268 167.275 169.054 165.837 177.361 164.08C178.32 167.754 178.958 171.268 179.597 174.623ZM193.974 149.703C190.78 150.981 187.265 152.099 183.751 153.058C181.195 145.07 178 136.604 174.166 128.137C178 119.671 181.355 111.364 183.751 103.377C205.796 109.767 219.054 119.351 219.054 128.297C219.054 135.805 209.789 143.792 193.974 149.703Z" fill="#57C5DC"/>
</g>
<defs>
<clipPath id="clip0_1_67">
<rect width="256" height="256" fill="white"/>
</clipPath>
</defs>
</svg>
