<svg width="256" height="256" viewBox="0 0 256 256" fill="none" xmlns="http://www.w3.org/2000/svg">
<rect width="256" height="256" fill="#7B61C1"/>
<g clip-path="url(#clip0_41_910)">
<path d="M126.417 28.0156C109.192 28.2328 92.2548 34 78.086 43.7031C49.7188 57.1828 30.4376 87.3515 29.8032 118.719C30.1845 128.475 29.136 138.275 30.7454 147.98C34.9079 175.78 53.4907 200.942 79.0095 212.82C104.9 231.075 141.013 233.023 168.775 217.811C175.339 213.695 182.294 210.291 188.766 206.02C213.817 189.023 228.62 158.159 225.87 127.973C228.73 96.3828 212.297 64.0547 185.125 47.6953C179.706 44.6234 174.292 41.6 168.983 38.3344C155.977 31.3422 141.183 27.7359 126.417 28.0156ZM126.577 34.0375C131.598 33.9602 136.616 34.3399 141.569 35.1719C135.156 34.8312 128.849 37.0953 122.511 35.5969C120.042 35.2297 116.288 35.2812 114.609 35.1203C118.568 34.478 122.567 34.1162 126.577 34.0375ZM110.922 41.325C102.066 45.1047 93.922 50.5703 87.2142 57.489C77.9095 59.7703 68.8938 64.3094 61.4204 69.875C67.1376 61.1781 74.4204 53.175 83.386 47.814C92.0829 44.0437 101.439 41.6937 110.922 41.325ZM145.014 41.325C155.374 41.8922 165.953 44.2078 175.05 49.2781C182.789 54.8821 189.406 61.8907 194.556 69.939C186.841 63.9781 177.755 59.9406 168.497 57.2609C161.83 50.4422 153.775 45.0687 145.014 41.325ZM127.967 42.4937C138.747 44.4 149.039 48.9969 157.702 55.6812C147.597 54.8406 137.213 56.4125 127.959 60.6094C118.711 56.4015 108.333 54.8469 98.2345 55.6828C106.891 48.9984 117.197 44.4 127.969 42.4953L127.967 42.4937ZM102.394 61.4625C108.666 61.4422 114.995 62.2375 120.93 64.3203C113.57 68.5906 108.414 75.439 102.434 81.2687C97.7298 84.3594 91.6907 84.0109 86.2095 86.0328C82.7923 87.0844 79.4626 88.414 76.3048 90.0859C78.4048 79.9453 83.386 70.0328 90.7579 62.8609C94.5688 61.9672 98.4907 61.6109 102.394 61.4625ZM152.111 61.4625C156.699 61.6969 161.85 61.5109 165.958 63.4219C172.719 70.8203 177.794 80.375 179.563 90.0469C172.691 86.2687 164.949 84.725 157.375 83.1203C154.013 82.414 150.867 78.964 148.511 76.0765C144.58 71.589 139.967 67.475 135.047 64.3078C140.505 62.3859 146.342 61.5781 152.109 61.464L152.111 61.4625ZM80.1564 66.125C74.2626 74.4609 70.7407 84.45 69.4001 94.4375C61.222 100.334 54.7595 108.506 50.4376 117.602C49.0267 106.677 50.0782 95.2703 54.0751 85.0078C61.1313 76.789 70.1173 70.2109 80.1564 66.125ZM175.778 66.125C185.919 70.3094 195.208 76.9406 202.117 85.4531C205.783 95.7483 206.942 106.769 205.497 117.602C201.236 108.295 194.274 100.239 186.35 94.064C185.272 84.0594 181.488 74.3875 175.778 66.125ZM127.939 67.2515C136.439 71.2015 142.533 78.6031 148.794 85.2125C153.219 89.189 157.825 89.2312 163.542 90.6734C169.581 91.9469 175.45 94.275 180.616 97.675C181.403 107.139 177.977 116.036 175.4 124.916C173.949 133.155 179.494 140.517 180.106 148.63C180.331 151.858 181.341 155.736 180.213 158.641C172.499 163.959 163.169 165.341 154.306 167.587C146.538 170.444 142.924 178.803 136.295 183.428C133.578 185.303 130.642 188.069 127.509 188.552C119.156 184.578 113.302 177.273 107.075 170.777C100.966 165.433 92.0235 166.459 84.8923 163.186C81.5954 161.858 77.9392 160.433 75.3173 158.167C74.5282 148.656 78.1298 139.748 80.6001 130.808C81.747 122.691 76.5392 115.469 75.8001 107.491C75.3392 104.233 75.1751 100.944 75.3204 97.6594C82.8813 92.3844 92.3689 90.6187 100.903 88.7469C104.517 87.8094 108.719 84.2 111.43 80.6562C116.095 75.2531 121.542 70.5062 127.939 67.2515ZM54.386 69.8297C50.8017 75.3922 49.4892 82.1375 44.8626 87.0094C43.6063 88.4344 41.0032 93.214 40.9282 92.9672C44.0831 84.5542 48.6327 76.7312 54.386 69.8297ZM201.547 69.8297C207.406 76.8156 212.083 85.0172 215.189 93.4594C212.295 87.6547 207.138 83.3031 205.234 77.0156C204.12 74.5625 202.931 72.1422 201.547 69.8297ZM44.3532 99.4265C43.1563 109.03 43.9579 118.872 46.4782 128.175C43.811 137.369 43.2438 147.106 44.3438 156.589C39.6829 147.334 36.3782 137.025 36.2345 126.62C37.2657 117.178 39.9392 107.848 44.3532 99.4265ZM211.584 99.4265C216.247 108.583 219.363 118.759 219.761 129.052C218.73 138.619 216.074 148.058 211.594 156.589C212.688 147.07 212.131 137.292 209.427 128.067C212.072 118.794 212.73 108.994 211.583 99.4265H211.584ZM69.3001 102.183C69.1907 110.494 72.7423 119.105 74.6517 126.444C75.1563 132.653 71.2642 138.219 70.4938 144.323C69.8227 147.462 69.4176 150.651 69.2829 153.858C61.5485 146.998 55.9173 137.914 52.8063 128.08C55.8345 118.172 61.561 109.072 69.3001 102.183ZM186.636 102.183C194.331 109.152 200.497 118.373 203.027 128.412C199.886 138.123 194.295 147.092 186.636 153.873C186.634 145.425 183.402 137.578 181.286 129.597C180.664 124.35 184.056 119.1 185.033 113.597C185.95 109.869 186.553 106.03 186.636 102.183ZM50.4454 138.473C54.7892 147.648 61.3657 155.82 69.5845 161.792C70.4579 171.862 74.6907 181.848 80.072 189.927C69.8735 185.598 60.3188 178.989 53.6063 170.167C50.211 160.002 48.9704 149.112 50.4454 138.473ZM205.492 138.473C206.867 149.45 205.938 161.075 201.67 171.277C194.624 179.405 185.72 185.884 175.761 189.964C181.495 181.606 185.383 171.892 186.355 161.77C194.599 155.822 201.141 147.634 205.492 138.473ZM40.7392 162.606C43.5126 168.278 48.6548 172.458 50.5001 178.569C51.5782 181.162 52.9376 183.62 54.2751 186.084C48.4407 179.122 43.911 171.109 40.7392 162.606ZM215.197 162.606C212.025 171.111 207.497 179.122 201.661 186.084C204.508 181.777 205.688 176.523 208.589 172.353C210.986 169.241 213.303 166.055 215.197 162.606ZM76.2845 165.925C83.5907 170.18 92.0204 171.237 100.008 173.436C105.583 176.053 108.783 182.662 113.895 186.447C116.087 188.423 118.454 190.194 120.967 191.739C111.142 195.012 100.255 195.505 90.2689 192.978C83.3439 185.428 78.2813 175.995 76.2845 165.925ZM179.653 165.925C177.633 176.08 172.534 185.539 165.528 193.134C155.503 195.353 144.603 195.077 135.013 191.709C142.291 187.537 147.397 180.784 153.236 174.983C158.022 171.598 165.069 171.989 170.67 169.703C173.775 168.724 176.782 167.459 179.653 165.925ZM61.3048 186.027C68.9688 191.941 77.911 196.203 87.2892 198.594C93.9329 205.57 102.149 210.937 110.967 214.758C100.455 214.052 89.6329 211.875 80.486 206.508C72.9438 200.883 66.3532 193.981 61.3048 186.027ZM194.633 186.027C188.869 194.777 181.555 202.897 172.495 208.252C163.791 212.074 154.463 214.278 144.969 214.758C153.828 210.95 162.02 205.487 168.727 198.577C178.067 196.178 186.999 191.927 194.633 186.027ZM127.95 195.491C137.222 199.587 147.55 201.194 157.65 200.402C148.849 207.073 138.334 212.089 127.369 213.47C116.839 211.461 106.749 206.962 98.2923 200.402C108.386 201.18 118.68 199.616 127.95 195.491ZM127.969 219.727C132.381 220.498 136.859 220.795 141.333 220.881C132.489 222.411 123.447 222.411 114.603 220.881C119.081 220.8 123.55 220.492 127.969 219.727Z" fill="white"/>
</g>
<defs>
<clipPath id="clip0_41_910">
<rect width="200" height="200" fill="white" transform="translate(28 28)"/>
</clipPath>
</defs>
</svg>
