<svg width="256" height="256" viewBox="0 0 256 256" fill="none" xmlns="http://www.w3.org/2000/svg">
<g clip-path="url(#clip0_1_67)">
<rect width="256" height="256" fill="white"/>
<rect width="256" height="256" fill="#23272F"/>
<path d="M128 145.813C137.838 145.813 145.813 137.838 145.813 128C145.813 118.162 137.838 110.188 128 110.188C118.162 110.188 110.188 118.162 110.188 128C110.188 137.838 118.162 145.813 128 145.813Z" fill="#57C5DC"/>
<path d="M195.656 98.625C192.219 97.375 188.625 96.125 184.875 95.0313C185.812 91.2813 186.594 87.5312 187.219 83.9375C190.5 63.3125 186.906 48.7812 176.906 43.1562C173.938 41.4375 170.656 40.6562 166.906 40.6562C155.969 40.6562 142.062 48.7812 128 62.375C113.938 48.7812 100.031 40.6562 89.0937 40.6562C85.3437 40.6562 82.0625 41.4375 79.0938 43.1562C69.0938 48.9375 65.5 63.4687 68.7812 83.9375C69.4062 87.5312 70.1875 91.2813 71.125 95.0313C67.375 96.125 63.7812 97.2187 60.3438 98.625C40.8125 106.125 30.1875 116.438 30.1875 128C30.1875 139.562 40.9688 149.875 60.3438 157.375C63.7812 158.625 67.375 159.875 71.125 160.969C70.1875 164.719 69.4062 168.469 68.7812 172.062C65.5 192.688 69.0938 207.219 79.0938 212.844C82.0625 214.562 85.3437 215.344 89.0937 215.344C100.187 215.344 114.094 207.219 128 193.625C142.062 207.219 155.969 215.344 166.906 215.344C170.656 215.344 173.938 214.562 176.906 212.844C186.906 207.062 190.5 192.531 187.219 172.062C186.594 168.469 185.812 164.719 184.875 160.969C188.625 159.875 192.219 158.781 195.656 157.375C215.188 149.875 225.812 139.562 225.812 128C225.812 116.438 215.188 106.125 195.656 98.625ZM172.531 50.9687C178.938 54.7187 181.125 66.2812 178.469 82.6875C178 85.9688 177.219 89.4062 176.281 93C168.156 91.125 159.562 89.875 150.5 89.0937C145.188 81.5937 139.719 74.875 134.25 68.7812C145.812 57.375 157.531 49.5625 167.062 49.5625C169.094 49.5625 170.969 50.0312 172.531 50.9687ZM155.031 143.625C152.219 148.625 148.937 153.625 145.5 158.625C139.719 159.094 133.938 159.25 128 159.25C121.906 159.25 116.125 159.094 110.5 158.625C107.062 153.625 103.938 148.625 101.125 143.625C98.1562 138.469 95.3438 133.156 92.8437 128C95.3438 122.844 98.1562 117.531 101.125 112.375C103.938 107.375 107.219 102.375 110.656 97.375C116.438 96.9063 122.219 96.75 128.156 96.75C134.25 96.75 140.031 96.9063 145.656 97.375C149.094 102.375 152.219 107.375 155.031 112.375C158 117.531 160.812 122.844 163.312 128C160.656 133.156 158 138.312 155.031 143.625ZM168 138.469C170.344 143.938 172.219 149.25 173.938 154.562C168.625 155.812 163 156.75 157.062 157.531C158.938 154.563 160.969 151.438 162.688 148.156C164.562 144.875 166.281 141.594 168 138.469ZM128 180.812C124.25 176.75 120.656 172.375 117.219 167.844C120.812 168 124.406 168.156 128 168.156C131.594 168.156 135.188 168 138.781 167.844C135.344 172.375 131.75 176.75 128 180.812ZM98.9375 157.375C93 156.594 87.375 155.656 82.0625 154.406C83.7812 149.25 85.6562 143.781 88 138.312C89.7188 141.438 91.4375 144.719 93.3125 147.844C95.1875 151.281 97.0625 154.25 98.9375 157.375ZM88 117.531C85.6562 112.062 83.7812 106.75 82.0625 101.438C87.375 100.188 93 99.25 98.9375 98.4688C97.0625 101.438 95.0312 104.562 93.3125 107.844C91.4375 111.125 89.7188 114.406 88 117.531ZM128 75.1875C131.75 79.25 135.344 83.625 138.781 88.1562C135.188 88 131.594 87.8438 128 87.8438C124.406 87.8438 120.812 88 117.219 88.1562C120.656 83.625 124.25 79.25 128 75.1875ZM162.688 108L157.062 98.625C163 99.4062 168.625 100.344 173.938 101.594C172.219 106.75 170.344 112.219 168 117.688C166.281 114.406 164.562 111.125 162.688 108ZM77.5312 82.6875C74.875 66.2812 77.0625 54.7187 83.4687 50.9687C85.0312 50.0312 86.9062 49.5625 88.9375 49.5625C98.3125 49.5625 110.031 57.2188 121.75 68.7812C116.281 74.7188 110.812 81.5937 105.5 89.0937C96.4375 89.875 87.8437 91.2812 79.7188 93C78.7812 89.4062 78.1562 85.9688 77.5312 82.6875ZM38.9375 128C38.9375 120.656 47.8438 112.844 63.4688 107.062C66.5938 105.812 70.0312 104.719 73.4688 103.781C75.9688 111.594 79.0937 119.875 82.8437 128.156C79.0937 136.438 75.8125 144.562 73.4688 152.375C51.9062 146.125 38.9375 136.75 38.9375 128ZM83.4687 205.031C77.0625 201.281 74.875 189.719 77.5312 173.312C78 170.031 78.7812 166.594 79.7188 163C87.8437 164.875 96.4375 166.125 105.5 166.906C110.812 174.406 116.281 181.125 121.75 187.219C110.188 198.625 98.4688 206.438 88.9375 206.438C86.9062 206.438 85.0312 205.969 83.4687 205.031ZM178.469 173.312C181.125 189.719 178.938 201.281 172.531 205.031C170.969 205.969 169.094 206.438 167.062 206.438C157.688 206.438 145.969 198.781 134.25 187.219C139.719 181.281 145.188 174.406 150.5 166.906C159.562 166.125 168.156 164.719 176.281 163C177.219 166.594 177.844 170.031 178.469 173.312ZM192.531 148.938C189.406 150.188 185.969 151.281 182.531 152.219C180.031 144.406 176.906 136.125 173.156 127.844C176.906 119.563 180.188 111.438 182.531 103.625C204.094 109.875 217.062 119.25 217.062 128C217.062 135.344 208 143.156 192.531 148.938Z" fill="#57C5DC"/>
</g>
<defs>
<clipPath id="clip0_1_67">
<rect width="256" height="256" fill="white"/>
</clipPath>
</defs>
</svg>
