<svg width="256" height="256" viewBox="0 0 256 256" fill="none" xmlns="http://www.w3.org/2000/svg">
<rect width="256" height="256" fill="#00D8FF"/>
<path d="M146.016 55.5406C147.067 54.672 148.278 54.0186 149.58 53.618C150.883 53.2175 152.252 53.0774 153.609 53.2059C154.966 53.3344 156.284 53.7289 157.488 54.367C158.693 55.005 159.76 55.874 160.628 56.9244C168.733 66.7609 184.726 89.8036 191.079 100.853C205.47 125.788 214.34 151.332 216.734 172.753C217.924 183.449 217.564 193.634 215.073 202.365C212.541 211.152 207.642 219.108 199.423 223.855C189.474 229.598 177.975 228.795 167.472 224.961C156.928 221.115 145.829 216.849 135.478 207.399C133.476 205.535 132.29 202.958 132.178 200.225C132.067 197.493 133.038 194.826 134.881 192.806C136.725 190.786 139.292 189.575 142.023 189.436C144.754 189.298 147.43 190.244 149.468 192.067C158.601 200.397 167.403 202.85 174.571 205.451C181.794 208.08 186.333 207.457 189.045 205.879C191.314 204.565 193.612 201.895 195.105 196.65C196.628 191.336 197.113 184.058 196.102 175.063C194.096 157.089 186.416 134.285 173.09 111.231C167.323 101.201 152.002 79.1256 144.646 70.1946C143.777 69.1443 143.124 67.9332 142.724 66.6304C142.323 65.3276 142.183 63.9587 142.311 62.6018C142.44 61.2448 142.835 59.9265 143.472 58.7221C144.111 57.5177 144.979 56.4507 146.03 55.5821" fill="#242932"/>
<path d="M206.621 169.341C206.85 170.685 206.811 172.06 206.507 173.389C206.204 174.718 205.641 175.974 204.853 177.085C204.064 178.197 203.064 179.142 201.91 179.867C200.755 180.592 199.469 181.083 198.126 181.31C185.554 183.397 155.438 185.119 142.694 185.095C113.913 185.095 87.3471 180.017 67.602 171.368C57.7364 167.065 49.1161 161.654 42.8066 155.123C36.4277 148.564 32 140.317 32 130.838C32 119.353 38.448 109.805 47.0129 102.609C55.6194 95.3999 67.353 89.6297 80.7054 85.3954C83.3293 84.5623 86.1766 84.8057 88.6211 86.0721C89.8314 86.6991 90.9064 87.5585 91.7847 88.601C92.6629 89.6435 93.3273 90.8489 93.7397 92.1481C94.1522 93.4474 94.3047 94.8152 94.1886 96.1735C94.0725 97.5317 93.69 98.8537 93.063 100.064C92.436 101.274 91.5767 102.35 90.5343 103.228C89.4918 104.106 88.2866 104.771 86.9874 105.183C75.2261 108.919 66.2045 113.61 60.3654 118.522C54.4709 123.449 52.7551 127.697 52.7551 130.838C52.7551 133.467 53.9313 136.788 57.7226 140.704C61.5692 144.675 67.6297 148.73 75.9179 152.355C92.4806 159.606 116.072 164.339 142.694 164.339C154.94 164.339 183.985 162.657 194.653 160.845C195.996 160.616 197.372 160.655 198.701 160.959C200.029 161.262 201.285 161.825 202.397 162.613C203.509 163.402 204.453 164.402 205.178 165.557C205.903 166.711 206.394 167.997 206.621 169.341Z" fill="#242932"/>
<path d="M206.621 169.341C206.85 170.685 206.811 172.06 206.507 173.389C206.204 174.718 205.641 175.974 204.853 177.085C204.064 178.197 203.064 179.142 201.91 179.867C200.755 180.592 199.469 181.083 198.126 181.31C185.554 183.397 155.438 185.119 142.694 185.095C113.913 185.095 87.3471 180.017 67.602 171.368C57.7364 167.065 49.1161 161.654 42.8066 155.123C36.4277 148.564 32 140.317 32 130.838C32 119.353 38.448 109.805 47.0129 102.609C55.6194 95.3999 67.353 89.6297 80.7054 85.3954C83.3293 84.5623 86.1766 84.8057 88.6211 86.0721C89.8314 86.6991 90.9064 87.5585 91.7847 88.601C92.6629 89.6435 93.3273 90.8489 93.7397 92.1481C94.1522 93.4474 94.3047 94.8152 94.1886 96.1735C94.0725 97.5317 93.69 98.8537 93.063 100.064C92.436 101.274 91.5767 102.35 90.5343 103.228C89.4918 104.106 88.2866 104.771 86.9874 105.183C75.2261 108.919 66.2045 113.61 60.3654 118.522C54.4709 123.449 52.7551 127.697 52.7551 130.838C52.7551 133.467 53.9313 136.788 57.7226 140.704C61.5692 144.675 67.6297 148.73 75.9179 152.355C92.4806 159.606 116.072 164.339 142.694 164.339C154.94 164.339 183.985 162.657 194.653 160.845C195.996 160.616 197.372 160.655 198.701 160.959C200.029 161.262 201.285 161.825 202.397 162.613C203.509 163.402 204.453 164.402 205.178 165.557C205.903 166.711 206.394 167.997 206.621 169.341Z" fill="#242932" stroke="#00D8FF"/>
<path d="M79.6922 165.201C77.1126 164.242 75.0192 162.299 73.8723 159.798C72.7254 157.296 72.6189 154.442 73.5763 151.862C77.755 140.584 90.7114 112.436 97.3946 100.867C111.785 75.9323 129.468 55.4804 146.82 42.6945C155.481 36.3154 164.475 31.5415 173.289 29.3412C182.159 27.1273 191.512 27.3902 199.717 32.1365C209.68 37.8791 214.716 48.2295 216.654 59.2581C218.605 70.3143 217.733 83.3492 214.716 97.0346C214.473 98.4112 213.953 99.7243 213.189 100.895C212.424 102.066 211.432 103.07 210.27 103.848C209.108 104.625 207.801 105.16 206.428 105.42C205.053 105.68 203.642 105.66 202.276 105.36C200.91 105.06 199.619 104.488 198.48 103.677C197.341 102.867 196.378 101.834 195.648 100.641C194.918 99.4495 194.436 98.1216 194.232 96.7385C194.028 95.3554 194.106 93.9452 194.46 92.5927C197.102 80.5264 197.545 70.3696 196.217 62.8419C194.888 55.2867 192.066 51.6751 189.354 50.1114C187.085 48.7968 183.612 48.1465 178.326 49.4749C172.958 50.8171 166.427 54.0413 159.134 59.4102C144.578 70.1205 128.666 88.1924 115.369 111.246C109.554 121.261 97.0968 148.242 93.0308 159.084C92.0727 161.665 90.1292 163.758 87.6278 164.905C85.1265 166.052 82.272 166.158 79.6922 165.201Z" fill="#242932"/>
<path d="M79.6922 165.201C77.1126 164.242 75.0192 162.299 73.8723 159.798C72.7254 157.296 72.6189 154.442 73.5763 151.862C77.755 140.584 90.7114 112.436 97.3946 100.867C111.785 75.9323 129.468 55.4804 146.82 42.6945C155.481 36.3154 164.475 31.5415 173.289 29.3412C182.159 27.1273 191.512 27.3902 199.717 32.1365C209.68 37.8791 214.716 48.2295 216.654 59.2581C218.605 70.3143 217.733 83.3492 214.716 97.0346C214.473 98.4112 213.953 99.7243 213.189 100.895C212.424 102.066 211.432 103.07 210.27 103.848C209.108 104.625 207.801 105.16 206.428 105.42C205.053 105.68 203.642 105.66 202.276 105.36C200.91 105.06 199.619 104.488 198.48 103.677C197.341 102.867 196.378 101.834 195.648 100.641C194.918 99.4495 194.436 98.1216 194.232 96.7385C194.028 95.3554 194.106 93.9452 194.46 92.5927C197.102 80.5264 197.545 70.3696 196.217 62.8419C194.888 55.2867 192.066 51.6751 189.354 50.1114C187.085 48.7968 183.612 48.1465 178.326 49.4749C172.958 50.8171 166.427 54.0413 159.134 59.4102C144.578 70.1205 128.666 88.1924 115.369 111.246C109.554 121.261 97.0968 148.242 93.0308 159.084C92.0727 161.665 90.1292 163.758 87.6278 164.905C85.1265 166.052 82.272 166.158 79.6922 165.201Z" fill="#242932" stroke="#00D8FF"/>
<path d="M81.4041 158.788L99.1723 144.569C95.4667 155.319 98.2997 159.334 113.391 162.337L95.6229 176.556L81.4041 158.788Z" fill="#242932"/>
<path d="M68.5092 163.883L59.9686 142.789C69.2091 149.416 73.867 147.85 81.0621 134.249L89.6028 155.343L68.5092 163.883Z" fill="#242932"/>
<path d="M153.883 46.2137L176.309 50.088C165.804 54.4414 164.676 59.1774 172.434 72.4659L150.01 68.6385L153.883 46.2137Z" fill="#242932"/>
<path d="M209.155 179.997L194.879 197.737C197.534 186.817 192.589 183.173 177.206 183.536L191.402 165.76L209.155 179.997Z" fill="#242932"/>
<path d="M155.64 62.1527L155.673 84.7842C149.481 75.2468 139.747 75.5479 133.154 85.1777L132.885 62.4222L155.64 62.1527Z" fill="#242932"/>
<path d="M206.263 159.871L188.974 145.074C192.322 155.94 189.368 160.444 174.186 162.947L191.465 177.16L206.263 159.871Z" fill="#242932"/>
<path d="M143.965 144.5C153.071 144.5 160.453 137.118 160.453 128.012C160.453 118.906 153.071 111.524 143.965 111.524C134.859 111.524 127.477 118.906 127.477 128.012C127.477 137.118 134.859 144.5 143.965 144.5Z" fill="#242932"/>
</svg>
