<svg width="256" height="256" viewBox="0 0 256 256" fill="none" xmlns="http://www.w3.org/2000/svg">
<rect width="256" height="256" fill="#121212"/>
<g clip-path="url(#clip0_49_1270)">
<path d="M87.039 146.054C97.5537 146.054 106.077 137.519 106.077 126.989C106.077 116.461 97.5537 107.925 87.0382 107.925C76.5244 107.925 68.0006 116.46 68.0006 126.99C68.0006 137.52 76.5244 146.054 87.039 146.054ZM42.0397 184.183C52.5543 184.183 61.0781 175.648 61.0781 165.118C61.0781 154.59 52.5543 146.054 42.0389 146.054C31.5259 146.054 23.0013 154.589 23.0013 165.118C23.0013 175.647 31.5242 184.183 42.0397 184.183ZM213.96 184.183C224.475 184.183 232.999 175.649 232.999 165.119C232.999 154.591 224.476 146.055 213.96 146.055C203.445 146.055 194.922 154.59 194.922 165.119C194.922 175.648 203.446 184.184 213.961 184.184" fill="white"/>
<path d="M151.432 127.793C150.823 121.424 150.513 116.122 145.641 112.396C139.47 107.678 132.48 110.74 123.87 107.627C115.408 105.578 109.133 98.0559 109.133 89.09C109.133 78.547 117.81 70 128.514 70C136.442 70 143.258 74.6879 146.26 81.4039C150.854 90.1439 147.868 99.0375 153.641 103.518C160.477 108.822 169.693 104.938 179.976 109.964C183.259 111.472 186.054 113.869 188.048 116.885C190.083 119.964 191.167 123.576 191.163 127.268C191.163 136.234 184.888 143.757 176.427 145.806C167.817 148.919 160.826 145.857 154.656 150.576C147.716 155.882 151.431 164.759 145.775 174.136C142.565 180.311 136.041 184.538 128.514 184.538C117.81 184.538 109.133 175.991 109.133 165.448C109.133 157.789 113.712 151.184 120.32 148.143C130.604 143.116 139.819 147.002 146.655 141.697C150.599 138.636 151.432 133.915 151.432 127.793Z" fill="#D0021B"/>
</g>
<defs>
<clipPath id="clip0_49_1270">
<rect width="210" height="115" fill="white" transform="translate(23 70)"/>
</clipPath>
</defs>
</svg>
