<svg width="256" height="256" viewBox="0 0 256 256" fill="none" xmlns="http://www.w3.org/2000/svg">
<rect width="256" height="256" fill="#232932"/>
<g clip-path="url(#clip0_167_2)">
<path d="M161.404 139.447C174.548 139.447 193.565 136.728 193.565 121.05C193.604 119.84 193.494 118.629 193.24 117.446L185.412 83.348C183.605 75.8452 182.018 72.4416 168.885 65.8563C158.693 60.6303 136.493 52 129.927 52C123.812 52 122.036 59.9032 114.744 59.9032C107.726 59.9032 102.515 54.0019 95.9475 54.0019C89.6437 54.0019 85.5359 58.3111 82.3633 67.1734C82.3633 67.1734 73.5275 92.1672 72.3924 95.7925C72.2126 96.4582 72.1347 97.1474 72.1611 97.8366C72.1611 107.552 110.3 139.405 161.404 139.405M195.583 127.414C197.4 136.044 197.4 136.95 197.4 138.088C197.4 152.84 180.862 161.028 159.125 161.028C109.996 161.059 66.9604 132.187 66.9604 113.105C66.9571 110.449 67.4969 107.82 68.5463 105.381C50.8748 106.266 28.0017 109.427 28.0017 129.68C28.0017 162.85 106.371 203.734 168.423 203.734C215.996 203.734 227.995 182.154 227.995 165.115C227.995 151.713 216.438 136.497 195.604 127.414" fill="#EE0000"/>
<path d="M195.583 127.414C197.4 136.044 197.4 136.95 197.4 138.089C197.4 152.84 180.862 161.028 159.125 161.028C109.996 161.059 66.9605 132.187 66.9605 113.105C66.9571 110.449 67.4969 107.82 68.5464 105.381L72.3924 95.835C72.2169 96.4871 72.1389 97.1617 72.1612 97.8368C72.1612 107.552 110.3 139.406 161.404 139.406C174.548 139.406 193.565 136.687 193.565 121.007C193.604 119.798 193.494 118.587 193.24 117.404L195.583 127.414Z" fill="black"/>
</g>
<defs>
<clipPath id="clip0_167_2">
<rect width="200" height="152" fill="white" transform="translate(28 52)"/>
</clipPath>
</defs>
</svg>
