<svg width="256" height="256" viewBox="0 0 256 256" fill="none" xmlns="http://www.w3.org/2000/svg">
<g clip-path="url(#clip0_17_224)">
<rect width="256" height="256" fill="white"/>
<rect width="256" height="256" fill="#091B23"/>
<mask id="mask0_17_224" style="mask-type:luminance" maskUnits="userSpaceOnUse" x="28" y="28" width="200" height="200">
<path d="M28 28H228V228H28V28Z" fill="white"/>
</mask>
<g mask="url(#mask0_17_224)">
<path d="M220.161 174.468C209.488 180.035 154.204 202.765 142.434 208.899C130.663 215.034 124.126 214.976 114.826 210.532C105.526 206.089 46.695 182.326 36.09 177.257C30.788 174.722 28.01 172.591 28.01 170.576V150.36C28.01 150.36 104.609 133.685 116.978 129.247C129.347 124.809 133.627 124.65 144.157 128.505C154.687 132.359 217.606 143.711 228.003 147.523V167.459C228.003 169.458 225.607 171.7 220.172 174.479L220.161 174.468Z" fill="#A41E11"/>
<path d="M220.162 154.246C209.488 159.813 154.204 182.543 142.434 188.677C130.663 194.812 124.126 194.753 114.826 190.31C105.526 185.867 46.695 162.103 36.091 157.035C25.486 151.966 25.274 148.483 35.682 144.405L116.973 112.932C129.338 108.5 133.622 108.335 144.151 112.19C154.68 116.045 209.632 137.916 220.024 141.786C230.416 145.656 230.824 148.732 220.151 154.299L220.162 154.246Z" fill="#D82C20"/>
<path d="M220.161 141.5C209.488 147.067 154.204 169.797 142.434 175.931C130.663 182.066 124.126 182.007 114.826 177.564C105.526 173.121 46.695 149.357 36.09 144.289C30.788 141.754 28.01 139.623 28.01 137.608V117.391C28.01 117.391 104.609 100.716 116.978 96.279C129.348 91.841 133.627 91.682 144.157 95.536C154.687 99.39 217.606 110.743 228.003 114.555V134.491C228.003 136.489 225.607 138.732 220.172 141.51L220.161 141.5Z" fill="#A41E11"/>
<path d="M220.162 121.283C209.488 126.85 154.204 149.58 142.434 155.715C130.663 161.849 124.126 161.791 114.826 157.348C105.526 152.904 46.695 129.141 36.091 124.072C25.486 119.003 25.274 115.52 35.682 111.442L116.973 79.975C129.338 75.537 133.622 75.378 144.151 79.233C154.681 83.087 209.632 104.963 220.034 108.765C230.436 112.567 230.835 115.711 220.162 121.278V121.283Z" fill="#D82C20"/>
<path d="M220.161 107.312C209.488 112.879 154.204 135.609 142.434 141.749C130.664 147.889 124.126 147.825 114.826 143.382C105.526 138.939 46.695 115.175 36.09 110.106C30.788 107.572 28.01 105.441 28.01 103.426V83.198C28.01 83.198 104.609 66.524 116.978 62.086C129.347 57.648 133.627 57.489 144.157 61.344C154.687 65.198 217.606 76.55 228.003 80.362V100.298C228.003 102.297 225.607 104.539 220.172 107.318L220.161 107.312Z" fill="#A41E11"/>
<path d="M220.162 87.09C209.488 92.657 154.204 115.387 142.434 121.522C130.663 127.656 124.126 127.598 114.826 123.155C105.526 118.712 46.695 94.948 36.091 89.879C25.486 84.81 25.274 81.327 35.682 77.249L116.973 45.782C129.338 41.344 133.622 41.185 144.151 45.04C154.681 48.894 209.632 70.77 220.034 74.572C230.436 78.374 230.835 81.518 220.162 87.085V87.09Z" fill="#D82C20"/>
<path d="M132.996 78.755L126.729 68.337L106.719 66.534L121.65 61.147L117.169 52.877L131.146 58.337L144.326 54.021L140.763 62.568L154.199 67.605L136.872 69.408L132.996 78.755ZM99.6141 99.497L145.954 92.382L131.957 112.911L99.6141 99.497ZM87.1231 92.016C100.803 92.016 111.894 87.716 111.894 82.414C111.894 77.112 100.803 72.812 87.1231 72.812C73.4431 72.812 62.3501 77.11 62.3501 82.414C62.3501 87.718 73.4411 92.016 87.1231 92.016Z" fill="white"/>
<path d="M202.113 81.014L174.702 91.841L174.681 70.171L202.113 81.014Z" fill="#7A0C00"/>
<path d="M174.707 91.84L171.738 93.007L144.348 82.18L174.691 70.177L174.707 91.84Z" fill="#AD2115"/>
</g>
</g>
<defs>
<clipPath id="clip0_17_224">
<rect width="256" height="256" fill="white"/>
</clipPath>
</defs>
</svg>
