<svg width="256" height="256" viewBox="0 0 256 256" fill="none" xmlns="http://www.w3.org/2000/svg">
<rect width="256" height="256" fill="#764BBC"/>
<g clip-path="url(#clip0_49_1259)">
<path d="M168.506 167.125C176.256 166.324 182.135 159.648 181.867 151.637C181.601 143.626 174.919 137.217 166.903 137.217H166.369C158.084 137.484 151.671 144.427 151.938 152.705C152.206 156.711 153.809 160.182 156.214 162.585C147.128 180.477 133.233 193.561 112.389 204.51C98.2262 211.987 83.5292 214.657 68.8322 212.789C56.8069 211.186 47.454 205.846 41.5742 197.033C33.0236 183.948 32.2222 169.795 39.4374 155.643C44.5149 145.495 52.5307 138.018 57.6083 134.28C56.5394 130.808 54.9358 124.934 54.1344 120.661C15.3867 148.7 19.3954 186.619 31.1533 204.51C39.9714 217.862 57.8757 226.14 77.6502 226.14C82.9944 226.14 88.3385 225.606 93.6835 224.271C127.888 217.595 153.809 197.3 168.506 167.125ZM215.538 134.013C195.229 110.247 165.3 97.1623 131.095 97.1623H126.82C124.415 92.3557 119.337 89.1508 113.725 89.1508H113.191C104.907 89.418 98.4944 96.3607 98.761 104.639C99.0284 112.65 105.709 119.059 113.725 119.059H114.259C120.138 118.792 125.216 115.053 127.354 109.98H132.164C152.473 109.98 171.713 115.854 189.083 127.337C202.444 136.149 212.064 147.632 217.408 161.517C221.951 172.733 221.684 183.681 216.873 193.028C209.392 207.18 196.832 214.925 180.264 214.925C169.575 214.925 159.421 211.72 154.076 209.316C151.137 211.987 145.792 216.259 142.051 218.93C153.542 224.27 165.3 227.208 176.523 227.208C202.176 227.208 221.15 213.055 228.365 198.902C236.114 183.414 235.579 156.711 215.538 134.013ZM79.7879 171.664C80.0553 179.675 86.7357 186.084 94.7523 186.084H95.2871C103.571 185.817 109.984 178.874 109.717 170.596C109.45 162.584 102.769 156.176 94.7523 156.176H94.2183C93.6835 156.176 92.8812 156.176 92.3481 156.443C81.3915 138.284 76.8488 118.525 78.4525 97.1615C79.5205 81.1393 84.8654 67.2533 94.2183 55.7705C101.968 45.8902 116.932 41.0836 127.087 40.8172C155.412 40.2828 167.437 75.5311 168.239 89.6844C171.713 90.4852 177.592 92.3549 181.601 93.6902C178.393 50.4311 151.671 28 126.018 28C101.968 28 79.7879 45.3574 70.969 70.9926C58.6771 105.173 66.6937 138.018 81.6581 163.92C80.3227 165.789 79.5205 168.726 79.7879 171.664Z" fill="#EBEDF0"/>
</g>
<defs>
<clipPath id="clip0_49_1259">
<rect width="210" height="200" fill="white" transform="translate(23 28)"/>
</clipPath>
</defs>
</svg>
