<svg width="256" height="256" viewBox="0 0 256 256" fill="none" xmlns="http://www.w3.org/2000/svg">
<rect width="256" height="256" fill="#232932"/>
<g clip-path="url(#clip0_93_166)">
<path fill-rule="evenodd" clip-rule="evenodd" d="M142.907 31.5191C133.523 26.827 122.477 26.827 113.093 31.5191L46.4262 64.8525C35.1334 70.4988 28 82.041 28 94.6667V161.333C28 173.959 35.1334 185.501 46.4262 191.148L113.093 224.482C122.477 229.173 133.523 229.173 142.907 224.482L209.573 191.148C220.867 185.501 228 173.959 228 161.333V94.6667C228 82.041 220.867 70.4988 209.573 64.8525L142.907 31.5191ZM94.6667 94.6667C94.6667 76.2572 109.59 61.3333 128 61.3333C146.409 61.3333 161.333 76.2572 161.333 94.6667V161.333C161.333 179.743 146.409 194.667 128 194.667C109.59 194.667 94.6667 179.743 94.6667 161.333V94.6667Z" fill="white"/>
<path d="M144.667 94.6667C144.667 103.871 137.205 111.333 128 111.333C118.795 111.333 111.333 103.871 111.333 94.6667C111.333 85.4618 118.795 78 128 78C137.205 78 144.667 85.4618 144.667 94.6667Z" fill="white"/>
</g>
<defs>
<clipPath id="clip0_93_166">
<rect width="200" height="200" fill="white" transform="translate(28 28)"/>
</clipPath>
</defs>
</svg>
