<svg width="256" height="256" viewBox="0 0 256 256" fill="none" xmlns="http://www.w3.org/2000/svg">
<rect width="256" height="256" fill="#00968F"/>
<path d="M228.069 127.01L228.055 126.008L228.031 125.007L227.998 124.006L227.954 123.005L227.901 122.006L227.838 121.006L227.766 120.009L227.683 119.011L227.59 118.014L227.488 117.019L227.376 116.025L227.253 115.032L227.121 114.04L226.978 113.05L226.826 112.061L226.664 111.074L226.491 110.089L226.308 109.106L226.116 108.124L225.913 107.145L225.7 106.167L225.478 105.192L225.246 104.219L225.003 103.249L224.751 102.281L224.488 101.316L224.216 100.353L223.935 99.3932L223.643 98.4362L223.342 97.4821L223.031 96.531L222.711 95.583L222.381 94.6382L222.041 93.6967L221.692 92.7584L221.334 91.8236L220.967 90.8923L220.59 89.9644L220.211 89.0553L219.817 88.1349L219.414 87.2185L219.001 86.3061L218.58 85.398L218.15 84.4941L217.711 83.5946L217.263 82.6996L216.806 81.8093L216.341 80.9235L215.867 80.0426L215.383 79.1665L214.891 78.2955L214.39 77.4294L213.881 76.5685L213.363 75.7129L212.836 74.8626L212.3 74.0177L211.756 73.1783L211.204 72.3444L210.643 71.5163L210.073 70.6939L209.495 69.8772L208.909 69.0665L208.315 68.2617L207.713 67.463L207.102 66.6703L206.484 65.8837L205.857 65.1034L205.223 64.3293L204.581 63.5616L203.931 62.8002L203.274 62.0452L202.609 61.2967L201.937 60.5547L201.257 59.8192L200.571 59.0903L199.877 58.368L199.172 57.6488L198.771 57.2451L198.059 56.5401L197.341 55.8421L196.616 55.1512L195.885 54.4674L195.147 53.7909L194.402 53.1217L193.651 52.46L192.894 51.8058L192.13 51.1592L191.36 50.5203L190.583 49.8893L189.8 49.266L189.011 48.6508L188.216 48.0436L187.415 47.4444L186.608 46.8535L185.795 46.2707L184.976 45.6963L184.151 45.1302L183.321 44.5726L182.485 44.0235L181.643 43.4828L180.796 42.9508L179.943 42.4274L179.086 41.9126L178.223 41.4066L177.354 40.9093L176.481 40.4208L175.603 39.9411L174.72 39.4702L173.833 39.0082L172.94 38.555L172.043 38.1107L171.142 37.6753L170.236 37.2488L169.326 36.8312L168.412 36.4225L167.489 36.0207L166.966 35.7976L166.042 35.4119L165.115 35.0354L164.183 34.6679L163.249 34.3098L162.311 33.9609L161.369 33.6215L160.425 33.2915L159.476 32.9711L158.525 32.6601L157.571 32.3589L156.614 32.0672L155.655 31.7854L154.692 31.5133L153.727 31.2511L152.759 30.9986L151.788 30.7561L150.816 30.5235L149.841 30.3009L148.863 30.0883L147.884 29.8856L146.902 29.6929L145.919 29.5103L144.934 29.3376L143.947 29.1751L142.958 29.0225L141.968 28.88L140.976 28.7475L139.983 28.625L138.989 28.5124L137.993 28.4099L136.997 28.3173L135.999 28.2346L135.001 28.1618L134.001 28.0989L133.002 28.0457L132.001 28.0024L131.001 27.9688L129.999 27.9448L128.997 27.9305L128.011 27.9258L127.01 27.9305L126.008 27.9447L125.007 27.9685L124.006 28.0021L123.006 28.0453L122.006 28.0984L121.007 28.1612L120.009 28.2339L119.011 28.3165L118.015 28.409L117.019 28.5115L116.025 28.6239L115.032 28.7463L114.04 28.8787L113.05 29.0212L112.062 29.1736L111.075 29.3361L110.089 29.5086L109.106 29.6911L108.124 29.8837L107.145 30.0863L106.168 30.2989L105.192 30.5215L104.22 30.754L103.249 30.9964L102.281 31.2487L101.316 31.5109L100.353 31.783L99.3935 32.0648L98.4365 32.3563L97.4824 32.6575L96.5313 32.9684L95.5834 33.2888L94.6385 33.6187L93.697 33.9581L92.7588 34.3069L91.824 34.665L90.8927 35.0324L89.9647 35.4091L89.0557 35.7882L88.1353 36.1827L87.2188 36.586L86.3065 36.9983L85.3983 37.4194L84.4945 37.8495L83.595 38.2884L82.7 38.7362L81.8096 39.1929L80.9238 39.6584L80.0429 40.1329L79.1669 40.6161L78.2958 41.1081L77.4297 41.6089L76.5689 42.1184L75.7132 42.6366L74.8629 43.1635L74.018 43.699L73.1786 44.243L72.3448 44.7956L71.5166 45.3566L70.6942 45.926L69.8776 46.5038L69.0668 47.0899L68.2621 47.6842L67.4633 48.2866L66.6706 48.8971L65.8841 49.5156L65.1037 50.1421L64.3297 50.7763L63.5619 51.4183L62.8005 52.0681L62.0456 52.7254L61.297 53.3901L60.555 54.0624L59.8195 54.7419L59.0906 55.4286L58.3683 56.1225L57.6491 56.827L57.2455 57.2283L56.5405 57.9399L55.8426 58.6581L55.1516 59.383L54.4678 60.1145L53.7913 60.8525L53.1221 61.5971L52.4604 62.3481L51.8062 63.1056L51.1596 63.8695L50.5208 64.6397L49.8897 65.4162L49.2665 66.199L48.6512 66.988L48.044 67.783L47.4449 68.5842L46.8539 69.3914L46.2712 70.2044L45.6967 71.0234L45.1307 71.8481L44.5731 72.6785L44.0239 73.5146L43.4833 74.3563L42.9513 75.2034L42.4278 76.0558L41.9131 76.9137L41.4071 77.7766L40.9098 78.6448L40.4212 79.5179L39.9415 80.396L39.4707 81.2789L39.0086 82.1666L38.5555 83.059L38.1112 83.9558L37.6758 84.8572L37.2493 85.7629L36.8317 86.6728L36.423 87.5869L36.0212 88.5098L35.798 89.0331L35.4124 89.9571L35.0358 90.8848L34.6684 91.816L34.3103 92.7507L33.9615 93.6887L33.622 94.6301L33.292 95.5748L32.9715 96.5227L32.6606 97.4737L32.3593 98.4277L32.0678 99.3846L31.7859 100.344L31.5138 101.307L31.2515 102.272L30.9991 103.24L30.7566 104.211L30.524 105.183L30.3013 106.158L30.0887 107.136L29.886 108.115L29.6934 109.097L29.5107 110.08L29.3381 111.065L29.1756 112.052L29.023 113.041L28.8805 114.031L28.748 115.023L28.6254 116.016L28.5129 117.01L28.4104 118.006L28.3178 119.002L28.2351 120L28.1623 120.998L28.0994 121.998L28.0462 122.998L28.0029 123.998L27.9693 124.999L27.9453 126L27.931 127.002L27.9263 127.988L27.9309 128.989L27.9451 129.991L27.969 130.992L28.0026 131.993L28.0458 132.994L28.0989 133.993L28.1617 134.993L28.2344 135.99L28.317 136.988L28.4095 137.985L28.5119 138.98L28.6244 139.974L28.7468 140.967L28.8792 141.959L29.0216 142.949L29.1741 143.938L29.3366 144.924L29.5091 145.91L29.6917 146.893L29.8842 147.875L30.0868 148.854L30.2994 149.831L30.5219 150.807L30.7544 151.779L30.9968 152.75L31.2491 153.718L31.5114 154.683L31.7833 155.646L32.0651 156.606L32.3567 157.563L32.6579 158.517L32.9687 159.468L33.2891 160.416L33.6191 161.361L33.9585 162.303L34.3073 163.24L34.6654 164.175L35.0328 165.107L35.4094 166.035L35.7886 166.943L36.1831 167.864L36.5865 168.781L36.9987 169.693L37.4198 170.601L37.8499 171.505L38.2888 172.405L38.7366 173.3L39.1933 174.19L39.6589 175.076L40.1333 175.956L40.6165 176.833L41.1086 177.704L41.6093 178.57L42.1188 179.431L42.6371 180.286L43.1639 181.136L43.6994 181.981L44.2435 182.821L44.7961 183.655L45.3571 184.483L45.9266 185.305L46.5043 186.122L47.0904 186.932L47.6847 187.737L48.2871 188.536L48.8977 189.329L49.5161 190.115L50.1426 190.896L50.7768 191.67L51.4189 192.438L52.0686 193.199L52.7259 193.954L53.3907 194.702L54.0629 195.444L54.7424 196.18L55.4292 196.909L56.1231 197.631L56.8276 198.35L57.2288 198.754L57.9404 199.459L58.6587 200.157L59.3835 200.848L60.115 201.531L60.853 202.208L61.5976 202.877L62.3487 203.539L63.1061 204.193L63.87 204.84L64.6403 205.479L65.4168 206.11L66.1996 206.733L66.9885 207.348L67.7836 207.955L68.5848 208.555L69.3919 209.146L70.205 209.728L71.024 210.303L71.8487 210.869L72.6791 211.426L73.5152 211.975L74.3568 212.516L75.2039 213.048L76.0564 213.571L76.9142 214.086L77.7772 214.592L78.6453 215.089L79.5184 215.578L80.3966 216.058L81.2794 216.529L82.1671 216.991L83.0595 217.444L83.9564 217.888L84.8577 218.324L85.7634 218.75L86.6734 219.168L87.5875 219.576L88.5102 219.978L89.0337 220.202L89.9577 220.587L90.8854 220.964L91.8165 221.331L92.7512 221.689L93.6893 222.038L94.6307 222.378L95.5754 222.708L96.5233 223.028L97.4743 223.339L98.4283 223.64L99.3852 223.932L100.345 224.214L101.308 224.486L102.273 224.748L103.241 225.001L104.211 225.243L105.184 225.475L106.159 225.698L107.136 225.911L108.116 226.114L109.097 226.306L110.081 226.489L111.066 226.661L112.053 226.824L113.042 226.977L114.032 227.119L115.024 227.252L116.017 227.374L117.011 227.486L118.007 227.589L119.003 227.682L120.001 227.765L120.999 227.837L121.998 227.9L122.998 227.953L123.999 227.997L125 228.03L126.001 228.055L127.003 228.068L127.988 228.073L128.99 228.068L129.992 228.055L130.992 228.03L131.993 227.997L132.994 227.954L133.994 227.901L134.993 227.838L135.991 227.765L136.988 227.683L137.985 227.59L138.98 227.488L139.975 227.375L140.967 227.253L141.959 227.12L142.949 226.978L143.938 226.825L144.925 226.663L145.91 226.49L146.894 226.308L147.875 226.115L148.855 225.913L149.832 225.7L150.807 225.478L151.78 225.245L152.75 225.003L153.718 224.751L154.684 224.488L155.647 224.216L156.606 223.934L157.563 223.643L158.517 223.341L159.468 223.031L160.416 222.71L161.361 222.38L162.303 222.041L163.241 221.692L164.176 221.334L165.107 220.967L166.035 220.59L166.944 220.211L167.864 219.816L168.781 219.413L169.693 219.001L170.601 218.58L171.505 218.15L172.404 217.711L173.3 217.263L174.19 216.806L175.076 216.341L175.957 215.866L176.833 215.383L177.704 214.891L178.57 214.39L179.431 213.881L180.287 213.363L181.137 212.835L181.982 212.3L182.821 211.756L183.655 211.203L184.483 210.642L185.305 210.073L186.122 209.495L186.933 208.909L187.738 208.315L188.536 207.712L189.329 207.102L190.116 206.483L190.896 205.857L191.67 205.223L192.438 204.581L193.199 203.931L193.954 203.274L194.703 202.608L195.445 201.936L196.18 201.257L196.909 200.57L197.631 199.876L198.35 199.172L198.754 198.771L199.459 198.059L200.157 197.341L200.848 196.616L201.532 195.884L202.209 195.146L202.877 194.402L203.539 193.651L204.193 192.893L204.84 192.129L205.479 191.359L206.11 190.583L206.733 189.8L207.349 189.011L207.956 188.216L208.555 187.414L209.146 186.607L209.729 185.794L210.303 184.975L210.869 184.151L211.427 183.32L211.976 182.484L212.517 181.642L213.049 180.796L213.572 179.943L214.087 179.085L214.593 178.222L215.09 177.354L215.579 176.481L216.058 175.603L216.529 174.72L216.991 173.832L217.444 172.94L217.889 172.043L218.324 171.142L218.751 170.236L219.168 169.326L219.577 168.412L219.979 167.489L220.202 166.966L220.587 166.042L220.964 165.114L221.331 164.183L221.689 163.249L222.038 162.31L222.378 161.369L222.708 160.424L223.028 159.476L223.339 158.525L223.641 157.571L223.932 156.614L224.214 155.654L224.486 154.692L224.749 153.727L225.001 152.759L225.243 151.788L225.476 150.816L225.699 149.84L225.911 148.863L226.114 147.884L226.307 146.902L226.489 145.918L226.662 144.933L226.824 143.946L226.977 142.958L227.119 141.967L227.252 140.976L227.375 139.983L227.487 138.988L227.59 137.993L227.682 136.997L227.765 135.999L227.837 135.001L227.9 134.002L227.954 133.001L227.997 132.001L228.031 131L228.054 129.999L228.069 128.997L228.073 128.011V127.988L228.069 127.01Z" fill="white"/>
<path d="M34.6999 128C34.6999 76.4716 76.4717 34.6997 128 34.6997C179.528 34.6997 221.3 76.4716 221.3 128C221.3 179.528 179.528 221.3 128 221.3C76.4717 221.3 34.6999 179.528 34.6999 128ZM111.569 105.123C111.569 101.809 111.411 98.3376 110.78 95.0239C110.307 92.4992 109.991 89.9744 109.518 87.4497C108.571 82.8736 107.624 78.4553 106.046 74.1947C104.626 70.5654 102.89 67.2517 100.523 64.2536C98.6297 61.8866 96.2627 60.3087 93.5802 59.2041C89.0041 57.4683 84.5858 57.4683 80.1675 59.0463C73.54 61.4132 68.9639 65.6737 67.386 72.6168C67.2282 73.4058 66.9126 74.1947 66.7548 74.9837C66.4392 78.2975 65.808 81.6112 65.6502 84.9249C65.4924 89.3432 65.4924 93.7615 65.4924 98.1798C65.4924 99.6 65.6502 101.178 65.808 102.756C66.7548 108.91 67.5437 115.064 68.4905 121.218C69.5951 128.635 70.6997 136.051 71.6464 143.31C73.0666 153.093 74.6446 162.719 76.5381 172.186C77.9583 178.814 79.2207 185.283 81.5876 191.595C82.2188 193.331 83.0078 195.067 83.639 196.645C84.7436 199.17 86.4793 200.905 88.8463 202.168C93.1068 204.535 97.5251 205.955 102.259 206.744C104.468 207.217 106.835 207.059 109.044 206.902C110.307 206.902 111.411 206.428 112.516 205.955C114.883 205.008 116.145 203.272 115.987 200.59C115.987 200.274 115.987 199.959 115.987 199.643C115.829 197.592 116.145 195.382 116.618 193.331C117.723 188.597 118.828 183.863 119.774 179.129C121.037 173.291 122.299 167.452 124.35 161.93C126.717 155.302 129.558 148.832 133.187 142.836C136.501 137.471 140.288 132.579 144.391 127.846C148.493 123.269 152.912 119.167 157.803 115.537C163.326 111.435 169.165 108.437 175.792 106.859C177.686 106.543 179.421 106.227 181.315 106.07C184.787 105.438 188.258 105.438 191.73 106.07C193.465 106.543 195.359 106.701 197.095 107.016C199.146 107.332 201.04 107.016 202.933 106.543C205.931 105.754 206.562 103.703 204.669 101.336C202.775 98.9688 200.408 97.3908 197.568 96.444C191.414 94.2349 184.944 92.9725 178.475 92.4991C174.056 92.1835 169.638 92.4991 165.22 93.2881C154.49 95.0239 144.548 99.1266 135.554 105.438C129.242 109.857 124.035 115.38 119.143 121.376C118.196 122.638 117.092 124.058 116.145 125.321C115.514 126.11 114.883 127.057 114.251 127.846C113.62 128.635 112.989 128.95 112.831 128.635C112.516 128.319 112.358 127.846 112.2 127.53C111.727 122.007 111.411 116.484 111.569 110.961C111.569 109.068 111.569 107.016 111.569 105.123ZM127.988 23L129.02 23.0048L130.068 23.0195L131.117 23.0443L132.166 23.0793L133.214 23.1245L134.262 23.1799L135.31 23.2456L136.357 23.3218L137.403 23.4082L138.448 23.5051L139.493 23.6124L140.536 23.7302L141.579 23.8585L142.619 23.9974L143.659 24.1468L144.697 24.3067L145.734 24.4771L146.769 24.6581L147.801 24.8497L148.832 25.0518L149.861 25.2644L150.888 25.4875L151.912 25.7211L152.934 25.9651L153.953 26.2196L154.97 26.4844L155.983 26.7596L156.994 27.0451L158.002 27.3407L159.007 27.6467L160.009 27.9627L161.006 28.2888L162.002 28.6249L162.993 28.971L163.981 29.3269L164.965 29.6926L165.945 30.068L166.922 30.453L167.894 30.8476L168.863 31.2516L169.421 31.4893L170.378 31.906L171.336 32.3341L172.29 32.7716L173.24 33.2186L174.186 33.675L175.126 34.1407L176.062 34.6159L176.994 35.1005L177.921 35.5944L178.843 36.0976L179.759 36.6102L180.671 37.132L181.577 37.6631L182.478 38.2033L183.372 38.7527L184.262 39.3111L185.146 39.8786L186.024 40.4551L186.897 41.0404L187.763 41.6347L188.623 42.2376L189.477 42.8493L190.325 43.4696L191.166 44.0984L192.001 44.7357L192.829 45.3813L193.651 46.0352L194.466 46.6973L195.274 47.3675L196.076 48.0456L196.87 48.7316L197.658 49.4254L198.439 50.1269L199.213 50.8359L199.98 51.5524L200.74 52.2762L201.492 53.0072L202.237 53.7453L202.665 54.1753L203.396 54.921L204.123 55.6774L204.842 56.4409L205.555 57.2115L206.26 57.9891L206.957 58.7738L207.646 59.5653L208.328 60.3637L209.001 61.169L209.667 61.9809L210.325 62.7996L210.974 63.6249L211.615 64.4568L212.247 65.2952L212.872 66.1399L213.487 66.991L214.094 67.8483L214.692 68.7117L215.282 69.5812L215.862 70.4567L216.434 71.3381L216.996 72.2252L217.55 73.1179L218.095 74.0163L218.63 74.92L219.156 75.8291L219.672 76.7435L220.18 77.663L220.678 78.5875L221.166 79.5169L221.646 80.4511L222.116 81.3899L222.577 82.3334L223.028 83.2811L223.47 84.2333L223.902 85.1897L224.325 86.1501L224.739 87.1145L225.137 88.0673L225.531 89.0395L225.917 90.0158L226.293 90.9958L226.658 91.9797L227.015 92.9673L227.361 93.9586L227.698 94.9532L228.024 95.9514L228.341 96.9527L228.647 97.9574L228.943 98.9652L229.229 99.9758L229.505 100.99L229.77 102.006L230.025 103.025L230.269 104.047L230.503 105.071L230.726 106.097L230.94 107.126L231.142 108.157L231.334 109.19L231.516 110.224L231.686 111.261L231.847 112.299L231.997 113.338L232.136 114.379L232.265 115.422L232.383 116.465L232.49 117.51L232.588 118.555L232.675 119.602L232.751 120.649L232.817 121.696L232.873 122.744L232.919 123.793L232.954 124.841L232.98 125.891L232.995 126.939L233 127.988V128.011L232.995 129.02L232.98 130.069L232.956 131.117L232.921 132.166L232.875 133.215L232.82 134.262L232.754 135.31L232.678 136.357L232.592 137.403L232.495 138.448L232.387 139.493L232.269 140.536L232.142 141.579L232.003 142.62L231.853 143.659L231.693 144.698L231.523 145.734L231.342 146.769L231.15 147.801L230.948 148.832L230.735 149.861L230.513 150.888L230.279 151.912L230.035 152.934L229.78 153.953L229.516 154.97L229.24 155.983L228.955 156.994L228.659 158.002L228.353 159.007L228.037 160.009L227.711 161.007L227.375 162.002L227.029 162.993L226.673 163.981L226.307 164.965L225.932 165.945L225.547 166.922L225.153 167.894L224.748 168.863L224.51 169.421L224.094 170.379L223.666 171.337L223.228 172.291L222.781 173.24L222.325 174.186L221.859 175.126L221.384 176.063L220.899 176.994L220.405 177.921L219.902 178.843L219.389 179.759L218.868 180.671L218.336 181.577L217.796 182.478L217.247 183.373L216.689 184.262L216.121 185.146L215.545 186.025L214.959 186.897L214.365 187.763L213.762 188.623L213.151 189.477L212.53 190.325L211.901 191.166L211.264 192.001L210.618 192.829L209.964 193.651L209.302 194.466L208.632 195.274L207.954 196.076L207.268 196.871L206.574 197.659L205.873 198.439L205.164 199.213L204.447 199.98L203.724 200.74L202.992 201.492L202.254 202.238L201.824 202.665L201.079 203.396L200.322 204.123L199.559 204.843L198.788 205.555L198.01 206.259L197.226 206.957L196.434 207.646L195.636 208.328L194.831 209.002L194.018 209.667L193.2 210.325L192.375 210.974L191.543 211.615L190.705 212.248L189.86 212.872L189.009 213.487L188.151 214.094L187.288 214.692L186.418 215.282L185.543 215.862L184.662 216.434L183.775 216.997L182.882 217.55L181.984 218.094L181.08 218.63L180.171 219.156L179.256 219.672L178.337 220.18L177.412 220.678L176.483 221.167L175.549 221.646L174.61 222.117L173.666 222.577L172.719 223.028L171.766 223.47L170.81 223.902L169.85 224.325L168.885 224.739L167.933 225.137L166.96 225.532L165.984 225.917L165.004 226.293L164.02 226.659L163.033 227.015L162.041 227.361L161.046 227.698L160.049 228.024L159.047 228.341L158.042 228.647L157.034 228.943L156.024 229.229L155.01 229.505L153.994 229.77L152.974 230.025L151.953 230.269L150.929 230.503L149.902 230.727L148.874 230.94L147.843 231.143L146.81 231.334L145.775 231.516L144.739 231.686L143.701 231.847L142.661 231.997L141.62 232.136L140.578 232.265L139.534 232.383L138.49 232.491L137.445 232.588L136.398 232.675L135.351 232.751L134.303 232.817L133.256 232.873L132.207 232.919L131.159 232.955L130.11 232.98L129.06 232.995L128.011 233L126.98 232.995L125.931 232.981L124.882 232.956L123.834 232.921L122.785 232.875L121.737 232.82L120.69 232.754L119.643 232.678L118.597 232.592L117.551 232.495L116.507 232.388L115.463 232.27L114.421 232.142L113.38 232.003L112.34 231.853L111.302 231.693L110.266 231.523L109.231 231.342L108.198 231.15L107.167 230.948L106.139 230.735L105.112 230.513L104.088 230.279L103.066 230.035L102.047 229.78L101.03 229.516L100.016 229.24L99.0055 228.955L97.9976 228.659L96.9928 228.354L95.9912 228.037L94.9929 227.711L93.998 227.375L93.0066 227.029L92.0188 226.673L91.0347 226.307L90.0543 225.932L89.0777 225.547L88.1052 225.153L87.1366 224.748L86.5785 224.511L85.621 224.094L84.6629 223.666L83.709 223.229L82.7592 222.781L81.8139 222.325L80.873 221.859L79.9368 221.384L79.0053 220.899L78.0787 220.405L77.157 219.902L76.2403 219.389L75.3289 218.868L74.4227 218.337L73.5219 217.796L72.6267 217.247L71.7371 216.688L70.8531 216.121L69.975 215.545L69.1028 214.959L68.2366 214.365L67.3765 213.762L66.5226 213.151L65.6749 212.53L64.8336 211.901L63.9988 211.264L63.1705 210.619L62.3487 209.964L61.5337 209.302L60.7253 208.633L59.9237 207.954L59.129 207.268L58.3412 206.574L57.5604 205.873L56.7865 205.164L56.0197 204.448L55.26 203.724L54.5074 202.993L53.7621 202.254L53.3345 201.825L52.6039 201.079L51.8769 200.323L51.1572 199.559L50.4449 198.788L49.7401 198.011L49.0429 197.226L48.3535 196.434L47.6718 195.636L46.9981 194.831L46.3324 194.019L45.6749 193.2L45.0255 192.375L44.3845 191.543L43.7519 190.705L43.1278 189.86L42.5123 189.009L41.9054 188.151L41.3072 187.288L40.7178 186.419L40.1373 185.543L39.5658 184.662L39.0033 183.775L38.4498 182.882L37.9054 181.984L37.3702 181.08L36.8442 180.171L36.3275 179.257L35.82 178.337L35.3218 177.412L34.833 176.483L34.3536 175.549L33.8835 174.61L33.4228 173.666L32.9716 172.719L32.5298 171.766L32.0974 170.81L31.6744 169.85L31.2609 168.885L30.8631 167.933L30.4683 166.96L30.083 165.984L29.7072 165.004L29.3412 164.02L28.9849 163.033L28.6385 162.041L28.302 161.047L27.9755 160.049L27.6591 159.047L27.3528 158.042L27.0567 157.035L26.7709 156.024L26.4953 155.01L26.2301 153.994L25.9752 152.974L25.7307 151.953L25.4967 150.929L25.2732 149.903L25.0602 148.874L24.8576 147.843L24.6657 146.81L24.4842 145.775L24.3133 144.739L24.153 143.701L24.0031 142.661L23.8639 141.621L23.7352 140.578L23.6169 139.534L23.5092 138.49L23.4118 137.445L23.3249 136.398L23.2485 135.351L23.1823 134.303L23.1265 133.256L23.0809 132.207L23.0455 131.159L23.0202 130.11L23.0051 129.06L23 128.011L23.0048 126.979L23.0195 125.931L23.0443 124.882L23.0793 123.833L23.1245 122.785L23.1799 121.737L23.2456 120.69L23.3218 119.643L23.4082 118.597L23.5051 117.551L23.6124 116.507L23.7302 115.463L23.8585 114.421L23.9974 113.38L24.1468 112.34L24.3067 111.302L24.4771 110.266L24.6581 109.231L24.8497 108.198L25.0518 107.167L25.2644 106.139L25.4875 105.112L25.7211 104.088L25.9651 103.066L26.2195 102.047L26.4844 101.03L26.7596 100.016L27.045 99.0056L27.3408 97.9976L27.6467 96.9928L27.9627 95.9912L28.2888 94.9929L28.6249 93.998L28.971 93.0066L29.3269 92.0188L29.6926 91.0346L30.068 90.0542L30.453 89.0777L30.8475 88.1052L31.2516 87.1366L31.4893 86.5786L31.906 85.6212L32.3341 84.6631L32.7717 83.7091L33.2186 82.7593L33.675 81.814L34.1408 80.8732L34.6159 79.9369L35.1005 79.0055L35.5944 78.0788L36.0977 77.157L36.6102 76.2404L37.1321 75.3289L37.6631 74.4228L38.2033 73.522L38.7526 72.6267L39.3111 71.7371L39.8786 70.8532L40.455 69.9751L41.0404 69.1028L41.6346 68.2366L42.2376 67.3765L42.8493 66.5226L43.4695 65.675L44.0984 64.8337L44.7356 63.9989L45.3813 63.1705L46.0352 62.3488L46.6973 61.5337L47.3674 60.7254L48.0456 59.9238L48.7316 59.1291L49.4254 58.3413L50.1269 57.5604L50.8359 56.7866L51.5524 56.0198L52.2762 55.2601L53.0072 54.5075L53.7454 53.7621L54.1752 53.3345L54.9209 52.6039L55.6773 51.8769L56.4409 51.1572L57.2115 50.4449L57.9891 49.7401L58.7737 49.0429L59.5652 48.3535L60.3637 47.6718L61.1689 46.9981L61.9809 46.3324L62.7996 45.6749L63.6249 45.0256L64.4568 44.3845L65.2951 43.7519L66.1399 43.1278L66.991 42.5123L67.8483 41.9054L68.7117 41.3072L69.5812 40.7179L70.4567 40.1374L71.3381 39.5658L72.2252 39.0033L73.1179 38.4498L74.0163 37.9054L74.92 37.3702L75.8292 36.8443L76.7435 36.3275L77.663 35.82L78.5875 35.3219L79.5169 34.833L80.4511 34.3536L81.39 33.8836L82.3333 33.4229L83.2812 32.9717L84.2334 32.5299L85.1897 32.0975L86.1502 31.6745L87.1146 31.261L88.0672 30.8632L89.0393 30.4684L90.0156 30.0831L90.9958 29.7074L91.9796 29.3413L92.9672 28.985L93.9584 28.6386L94.9531 28.3021L95.9512 27.9756L96.9526 27.6592L97.9572 27.3529L98.9649 27.0568L99.9757 26.7709L100.989 26.4954L102.006 26.2301L103.025 25.9752L104.047 25.7307L105.071 25.4967L106.097 25.2732L107.126 25.0602L108.157 24.8577L109.19 24.6657L110.224 24.4843L111.261 24.3134L112.299 24.153L113.338 24.0032L114.379 23.8639L115.422 23.7352L116.465 23.6169L117.51 23.5092L118.555 23.4118L119.601 23.3249L120.648 23.2485L121.696 23.1823L122.744 23.1265L123.793 23.0809L124.841 23.0455L125.89 23.0202L126.939 23.0051L127.988 23ZM128.011 27.926L127.01 27.9307L126.008 27.9449L125.007 27.9688L124.006 28.0023L123.006 28.0456L122.006 28.0986L121.007 28.1615L120.009 28.2342L119.011 28.3168L118.015 28.4093L117.019 28.5118L116.025 28.6241L115.032 28.7466L114.04 28.879L113.05 29.0214L112.062 29.1739L111.075 29.3364L110.089 29.5089L109.106 29.6914L108.124 29.884L107.145 30.0866L106.168 30.2992L105.193 30.5217L104.22 30.7542L103.249 30.9967L102.281 31.249L101.316 31.5112L100.353 31.7832L99.3936 32.065L98.4365 32.3565L97.4824 32.6578L96.5314 32.9686L95.5834 33.289L94.6386 33.619L93.697 33.9584L92.7588 34.3072L91.824 34.6653L90.8927 35.0326L89.9647 35.4093L89.0558 35.7885L88.1353 36.183L87.2189 36.5863L86.3065 36.9986L85.3984 37.4197L84.4945 37.8497L83.595 38.2887L82.7 38.7365L81.8096 39.1932L80.9239 39.6587L80.043 40.1331L79.1669 40.6164L78.2958 41.1083L77.4297 41.6091L76.5689 42.1186L75.7132 42.6369L74.8629 43.1637L74.0181 43.6992L73.1786 44.2432L72.3448 44.7958L71.5167 45.3568L70.6942 45.9263L69.8776 46.5041L69.0669 47.0901L68.2621 47.6844L67.4633 48.2868L66.6706 48.8974L65.8841 49.5158L65.1038 50.1423L64.3297 50.7766L63.5619 51.4186L62.8006 52.0683L62.0456 52.7256L61.2971 53.3904L60.5551 54.0626L59.8196 54.7421L59.0907 55.4289L58.3684 56.1228L57.6492 56.8272L57.2455 57.2286L56.5406 57.9402L55.8426 58.6584L55.1517 59.3833L54.4679 60.1147L53.7913 60.8528L53.1222 61.5973L52.4605 62.3484L51.8063 63.1058L51.1597 63.8697L50.5208 64.6399L49.8897 65.4165L49.2666 66.1992L48.6512 66.9882L48.044 67.7833L47.4449 68.5845L46.8539 69.3916L46.2712 70.2047L45.6968 71.0236L45.1307 71.8483L44.5731 72.6788L44.0239 73.5149L43.4833 74.3565L42.9513 75.2036L42.4278 76.0561L41.9131 76.9139L41.4071 77.7769L40.9098 78.645L40.4213 79.5182L39.9416 80.3962L39.4707 81.2792L39.0086 82.1669L38.5555 83.0592L38.1112 83.9561L37.6758 84.8574L37.2493 85.7631L36.8317 86.6731L36.423 87.5872L36.0212 88.51L35.7981 89.0333L35.4124 89.9574L35.0359 90.885L34.6684 91.8162L34.3103 92.7509L33.9615 93.689L33.622 94.6304L33.292 95.5751L32.9715 96.523L32.6606 97.4739L32.3594 98.428L32.0678 99.3849L31.7859 100.345L31.5139 101.307L31.2516 102.273L30.9991 103.24L30.7566 104.211L30.5241 105.184L30.3014 106.159L30.0887 107.136L29.8861 108.115L29.6934 109.097L29.5108 110.08L29.3382 111.066L29.1756 112.053L29.023 113.041L28.8805 114.032L28.748 115.023L28.6255 116.016L28.513 117.011L28.4104 118.006L28.3178 119.003L28.2351 120.001L28.1624 120.998L28.0994 121.998L28.0462 122.998L28.0029 123.998L27.9693 124.999L27.9453 126L27.9311 127.002L27.9263 127.988L27.931 128.99L27.9452 129.992L27.969 130.992L28.0026 131.993L28.0459 132.994L28.0989 133.994L28.1617 134.993L28.2345 135.991L28.317 136.988L28.4095 137.985L28.512 138.98L28.6244 139.974L28.7469 140.967L28.8792 141.959L29.0216 142.949L29.1741 143.938L29.3366 144.925L29.5091 145.91L29.6917 146.893L29.8842 147.875L30.0868 148.855L30.2994 149.832L30.5219 150.807L30.7544 151.78L30.9969 152.75L31.2492 153.718L31.5114 154.684L31.7834 155.646L32.0652 156.606L32.3567 157.563L32.6579 158.517L32.9687 159.468L33.2892 160.416L33.6191 161.361L33.9585 162.303L34.3073 163.241L34.6654 164.176L35.0328 165.107L35.4094 166.035L35.7887 166.944L36.1832 167.864L36.5865 168.781L36.9988 169.693L37.4199 170.601L37.8499 171.505L38.2889 172.405L38.7367 173.3L39.1934 174.19L39.6589 175.076L40.1333 175.956L40.6166 176.833L41.1086 177.704L41.6094 178.57L42.1189 179.431L42.6371 180.287L43.164 181.137L43.6994 181.982L44.2436 182.821L44.7961 183.655L45.3572 184.483L45.9266 185.305L46.5043 186.122L47.0904 186.933L47.6847 187.737L48.2872 188.536L48.8977 189.329L49.5162 190.116L50.1426 190.896L50.7769 191.67L51.4189 192.438L52.0686 193.199L52.7259 193.954L53.3907 194.703L54.0629 195.444L54.7425 196.18L55.4292 196.909L56.1231 197.631L56.8276 198.35L57.2288 198.754L57.9404 199.459L58.6587 200.157L59.3836 200.848L60.115 201.532L60.8531 202.208L61.5976 202.877L62.3487 203.539L63.1062 204.193L63.87 204.84L64.6403 205.479L65.4168 206.11L66.1996 206.733L66.9885 207.349L67.7837 207.955L68.5848 208.555L69.392 209.146L70.205 209.729L71.024 210.303L71.8487 210.869L72.6791 211.427L73.5152 211.976L74.3569 212.516L75.2039 213.049L76.0565 213.572L76.9142 214.087L77.7772 214.593L78.6454 215.09L79.5185 215.579L80.3966 216.058L81.2795 216.529L82.1672 216.991L83.0595 217.444L83.9564 217.889L84.8577 218.324L85.7634 218.751L86.6734 219.168L87.5875 219.577L88.5103 219.979L89.0337 220.202L89.9577 220.587L90.8854 220.964L91.8166 221.331L92.7512 221.689L93.6893 222.038L94.6308 222.378L95.5754 222.708L96.5233 223.028L97.4743 223.339L98.4283 223.641L99.3852 223.932L100.345 224.214L101.308 224.486L102.273 224.749L103.241 225.001L104.211 225.243L105.184 225.476L106.159 225.698L107.136 225.911L108.116 226.114L109.097 226.306L110.081 226.489L111.066 226.662L112.053 226.824L113.042 226.977L114.032 227.119L115.024 227.252L116.017 227.374L117.011 227.487L118.007 227.59L119.003 227.682L120.001 227.765L120.999 227.837L121.998 227.9L122.998 227.954L123.999 227.997L125 228.031L126.001 228.055L127.003 228.069L127.988 228.073L128.99 228.069L129.992 228.055L130.993 228.031L131.993 227.998L132.994 227.954L133.994 227.901L134.993 227.838L135.991 227.766L136.988 227.683L137.985 227.59L138.98 227.488L139.975 227.376L140.967 227.253L141.959 227.12L142.949 226.978L143.938 226.825L144.925 226.663L145.91 226.49L146.894 226.308L147.875 226.116L148.855 225.913L149.832 225.7L150.807 225.478L151.78 225.245L152.751 225.003L153.718 224.751L154.684 224.488L155.647 224.216L156.606 223.935L157.563 223.643L158.517 223.342L159.468 223.031L160.416 222.71L161.361 222.381L162.303 222.041L163.241 221.692L164.176 221.334L165.107 220.967L166.035 220.59L166.944 220.211L167.864 219.817L168.781 219.413L169.693 219.001L170.601 218.58L171.505 218.15L172.404 217.711L173.3 217.263L174.19 216.806L175.076 216.341L175.957 215.867L176.833 215.383L177.704 214.891L178.57 214.39L179.431 213.881L180.287 213.363L181.137 212.836L181.982 212.3L182.821 211.756L183.655 211.204L184.483 210.643L185.305 210.073L186.122 209.495L186.933 208.909L187.738 208.315L188.536 207.712L189.329 207.102L190.116 206.484L190.896 205.857L191.67 205.223L192.438 204.581L193.199 203.931L193.954 203.274L194.703 202.609L195.445 201.937L196.18 201.257L196.909 200.571L197.631 199.876L198.35 199.172L198.754 198.771L199.459 198.059L200.157 197.341L200.848 196.616L201.532 195.885L202.209 195.146L202.877 194.402L203.539 193.651L204.193 192.894L204.84 192.129L205.479 191.359L206.11 190.583L206.733 189.8L207.349 189.011L207.956 188.216L208.555 187.415L209.146 186.608L209.729 185.795L210.303 184.976L210.869 184.151L211.427 183.32L211.976 182.484L212.517 181.643L213.049 180.796L213.572 179.943L214.087 179.086L214.593 178.223L215.09 177.354L215.579 176.481L216.058 175.603L216.529 174.72L216.991 173.833L217.444 172.94L217.889 172.043L218.324 171.142L218.751 170.236L219.168 169.326L219.577 168.412L219.979 167.489L220.202 166.966L220.587 166.042L220.964 165.115L221.331 164.183L221.689 163.249L222.038 162.31L222.378 161.369L222.708 160.424L223.028 159.476L223.339 158.526L223.641 157.571L223.932 156.614L224.214 155.655L224.486 154.692L224.749 153.727L225.001 152.759L225.243 151.788L225.476 150.816L225.699 149.84L225.911 148.863L226.114 147.884L226.307 146.902L226.489 145.919L226.662 144.933L226.824 143.947L226.977 142.958L227.119 141.967L227.252 140.976L227.375 139.983L227.487 138.989L227.59 137.993L227.682 136.997L227.765 135.999L227.837 135.001L227.9 134.002L227.954 133.002L227.997 132.001L228.031 131.001L228.054 129.999L228.069 128.997L228.073 128.011V127.988L228.069 127.01L228.055 126.008L228.031 125.007L227.998 124.006L227.954 123.006L227.901 122.006L227.838 121.007L227.766 120.009L227.683 119.011L227.59 118.015L227.488 117.019L227.376 116.025L227.253 115.032L227.121 114.041L226.978 113.05L226.826 112.062L226.664 111.075L226.491 110.089L226.308 109.106L226.116 108.124L225.913 107.145L225.7 106.168L225.478 105.192L225.246 104.22L225.003 103.249L224.751 102.281L224.488 101.316L224.216 100.353L223.935 99.3935L223.643 98.4365L223.342 97.4823L223.031 96.5313L222.711 95.5833L222.381 94.6385L222.041 93.6969L221.692 92.7587L221.334 91.8239L220.967 90.8926L220.59 89.9647L220.211 89.0556L219.817 88.1351L219.414 87.2187L219.001 86.3063L218.58 85.3982L218.15 84.4944L217.711 83.5949L217.263 82.6998L216.806 81.8095L216.341 80.9238L215.867 80.0429L215.383 79.1668L214.891 78.2957L214.39 77.4297L213.881 76.5688L213.363 75.7132L212.836 74.8629L212.3 74.0179L211.756 73.1786L211.204 72.3447L210.643 71.5165L210.073 70.6941L209.496 69.8775L208.909 69.0668L208.315 68.262L207.713 67.4632L207.102 66.6705L206.484 65.884L205.857 65.1037L205.223 64.3296L204.581 63.5618L203.931 62.8005L203.274 62.0455L202.609 61.297L201.937 60.555L201.257 59.8195L200.571 59.0906L199.877 58.3683L199.172 57.649L198.771 57.2454L198.059 56.5404L197.341 55.8424L196.616 55.1514L195.885 54.4677L195.147 53.7912L194.402 53.122L193.651 52.4602L192.894 51.806L192.13 51.1595L191.36 50.5206L190.583 49.8895L189.8 49.2663L189.011 48.651L188.216 48.0438L187.415 47.4447L186.608 46.8537L185.795 46.271L184.976 45.6966L184.151 45.1305L183.321 44.5728L182.485 44.0237L181.643 43.4831L180.796 42.951L179.943 42.4276L179.086 41.9129L178.223 41.4068L177.354 40.9096L176.481 40.4211L175.603 39.9413L174.72 39.4704L173.833 39.0084L172.94 38.5553L172.044 38.111L171.142 37.6756L170.236 37.249L169.326 36.8315L168.412 36.4227L167.489 36.021L166.966 35.7978L166.042 35.4122L165.115 35.0356L164.183 34.6682L163.249 34.31L162.311 33.9612L161.369 33.6218L160.425 33.2918L159.476 32.9713L158.525 32.6604L157.571 32.3591L156.614 32.0675L155.655 31.7857L154.692 31.5136L153.727 31.2513L152.759 30.9989L151.788 30.7564L150.816 30.5238L149.841 30.3012L148.864 30.0885L147.884 29.8858L146.902 29.6932L145.919 29.5105L144.934 29.3379L143.947 29.1753L142.958 29.0228L141.968 28.8802L140.976 28.7477L139.983 28.6252L138.989 28.5127L137.993 28.4102L136.997 28.3175L135.999 28.2349L135.001 28.1621L134.001 28.0991L133.002 28.046L132.001 28.0026L131.001 27.969L129.999 27.9451L128.997 27.9308L128.011 27.926Z" fill="#00968F"/>
</svg>
