<svg width="256" height="256" viewBox="0 0 256 256" fill="none" xmlns="http://www.w3.org/2000/svg">
<g clip-path="url(#clip0_17_258)">
<rect width="256" height="256" fill="#242932"/>
<path d="M195.259 173.962C196.786 193.583 196.786 202.781 196.786 212.82H151.389C151.389 210.634 151.428 208.633 151.467 206.605C151.591 200.298 151.718 193.722 150.696 180.443C149.347 161 140.975 156.681 125.58 156.681H54.1794V121.307H127.741C147.186 121.307 156.909 115.392 156.909 99.731C156.909 85.9589 147.186 77.6137 127.741 77.6137H54.1794V43H135.843C179.864 43 201.74 63.7922 201.74 97.0046C201.74 121.847 186.347 138.048 165.55 140.749C183.105 144.259 193.368 154.251 195.259 173.962Z" fill="white"/>
<path d="M195.259 173.962C196.786 193.583 196.786 202.781 196.786 212.82H151.389C151.389 210.634 151.428 208.633 151.467 206.605C151.591 200.298 151.718 193.722 150.696 180.443C149.347 161 140.975 156.681 125.58 156.681H54.1794V121.307H127.741C147.186 121.307 156.909 115.392 156.909 99.731C156.909 85.9589 147.186 77.6137 127.741 77.6137H54.1794V43H135.843C179.864 43 201.74 63.7922 201.74 97.0046C201.74 121.847 186.347 138.048 165.55 140.749C183.105 144.259 193.368 154.251 195.259 173.962Z" fill="white"/>
<path d="M54.1794 212.82V186.451H102.18C110.198 186.451 111.939 192.397 111.939 195.944V212.82H54.1794Z" fill="white"/>
<path d="M54 212.821V213H112.119V195.944C112.119 194.147 111.679 191.731 110.21 189.76C108.736 187.779 106.24 186.271 102.18 186.271H54V212.821Z" stroke="white" stroke-opacity="0.8" stroke-width="0.16"/>
</g>
<defs>
<clipPath id="clip0_17_258">
<rect width="256" height="256" fill="white"/>
</clipPath>
</defs>
</svg>
