<svg width="256" height="256" viewBox="0 0 256 256" fill="none" xmlns="http://www.w3.org/2000/svg">
<rect width="256" height="256" fill="#232932"/>
<path d="M74.9233 28.0173C70.7025 28.2448 67.3012 28.9099 63.8736 30.2052C62.1642 30.8441 59.362 32.2355 57.8201 33.1983C51.37 37.2153 46.4532 43.254 43.889 50.2816C43.378 51.6731 41.9946 56.1102 41.1047 59.1646C35.1745 79.5822 31.8084 101.908 31.086 125.537C30.9713 129.301 30.9713 138.262 31.086 141.964C31.5706 157.63 33.0773 171.773 35.8089 186.195C36.9192 192.033 38.6991 199.874 39.73 203.436C41.8359 210.673 46.136 216.834 52.2512 221.351C56.3486 224.379 61.001 226.41 66.1558 227.408C68.6406 227.888 71.9185 228.107 74.3328 227.949C77.6724 227.731 84.2986 226.847 89.6825 225.893C113.95 221.596 136.366 213.903 156.694 202.893C169.568 195.919 180.573 188.366 191.191 179.203C201.774 170.083 210.796 160.273 218.736 149.264C220.578 146.716 221.503 145.229 222.428 143.356C224.807 138.525 225.926 133.721 225.917 128.347C225.917 123.34 224.965 118.895 222.912 114.344C221.925 112.148 220.983 110.572 218.868 107.579C211.079 96.5606 202.434 86.9599 191.896 77.6306C175.56 63.1728 156.157 51.3142 134.489 42.5363C129.792 40.6372 125.167 38.9656 119.598 37.154C107.807 33.3296 93.216 30.0127 80.871 28.3586C78.9325 28.096 76.2978 27.9472 74.9233 28.0173Z" fill="#0B84F3" fill-opacity="0.1"/>
<path d="M86.3568 49.31C83.0355 49.489 80.359 50.0124 77.6618 51.0316C76.3167 51.5343 74.1117 52.6294 72.8982 53.387C67.8227 56.5479 63.9537 61.2997 61.936 66.8298C61.5338 67.9248 60.4451 71.4164 59.7449 73.8198C55.0784 89.8865 52.4297 107.455 51.8611 126.049C51.771 129.01 51.771 136.062 51.8611 138.975C52.2425 151.302 53.4281 162.431 55.5776 173.781C56.4514 178.374 57.8519 184.545 58.6631 187.348C60.3203 193.043 63.704 197.891 68.5161 201.445C71.7404 203.828 75.4014 205.426 79.4577 206.21C81.413 206.589 83.9923 206.761 85.8922 206.637C88.5201 206.465 93.7344 205.77 97.9711 205.019C117.067 201.638 134.707 195.584 150.703 186.92C160.833 181.431 169.493 175.488 177.848 168.278C186.176 161.102 193.276 153.382 199.524 144.719C200.972 142.714 201.7 141.544 202.429 140.07C204.301 136.269 205.181 132.488 205.175 128.259C205.175 124.32 204.426 120.821 202.81 117.241C202.034 115.512 201.291 114.272 199.628 111.917C193.497 103.247 186.696 95.6921 178.403 88.3508C165.547 76.974 150.279 67.6425 133.229 60.735C129.534 59.2406 125.894 57.9252 121.511 56.4997C112.233 53.4902 100.751 50.8802 91.0371 49.5785C89.5117 49.3719 87.4384 49.2549 86.3568 49.31Z" fill="#0B84F3" fill-opacity="0.3"/>
<path d="M98.1905 71.395C95.8019 71.5238 93.8772 71.9001 91.9374 72.6332C90.9702 72.9946 89.3845 73.7822 88.5119 74.3269C84.8618 76.6002 82.0794 80.0173 80.6284 83.9942C80.3392 84.7817 79.5563 87.2926 79.0527 89.021C75.6969 100.575 73.792 113.209 73.3832 126.582C73.3184 128.71 73.3184 133.782 73.3832 135.877C73.6575 144.741 74.5101 152.745 76.0559 160.906C76.6842 164.211 77.6914 168.648 78.2748 170.664C79.4666 174.759 81.8999 178.246 85.3604 180.801C87.6792 182.514 90.312 183.664 93.229 184.228C94.6352 184.5 96.4895 184.624 97.856 184.535C99.7467 184.412 103.496 183.911 106.543 183.372C120.275 180.939 132.961 176.587 144.464 170.357C151.749 166.41 157.977 162.135 163.986 156.95C169.975 151.79 175.081 146.237 179.573 140.007C180.616 138.566 181.139 137.724 181.662 136.664C183.009 133.93 183.641 131.212 183.637 128.171C183.637 125.338 183.099 122.822 181.936 120.247C181.378 119.003 180.845 118.112 179.647 116.419C175.24 110.183 170.349 104.75 164.385 99.4709C155.14 91.2893 144.16 84.5786 131.898 79.6112C129.241 78.5366 126.623 77.5906 123.471 76.5654C116.8 74.4012 108.542 72.5241 101.556 71.5881C100.46 71.4395 98.968 71.3554 98.1905 71.395Z" fill="#0B84F3"/>
</svg>
