<svg width="256" height="256" viewBox="0 0 256 256" fill="none" xmlns="http://www.w3.org/2000/svg">
<rect width="256" height="256" fill="#F26207"/>
<g clip-path="url(#clip0_142_896)">
<path d="M47 40.5C47 33.5964 52.6076 28 59.525 28H117.975C124.892 28 130.5 33.5964 130.5 40.5V94.6667H59.525C52.6076 94.6667 47 89.0703 47 82.1667V40.5Z" fill="#232932"/>
<path d="M130.5 94.6665H201.475C208.392 94.6665 214 100.263 214 107.167V148.833C214 155.737 208.392 161.333 201.475 161.333H130.5V94.6665Z" fill="#232932"/>
<path d="M47 173.833C47 166.93 52.6076 161.333 59.525 161.333H130.5V215.5C130.5 222.404 124.892 228 117.975 228H59.525C52.6076 228 47 222.404 47 215.5V173.833Z" fill="#232932"/>
</g>
<defs>
<clipPath id="clip0_142_896">
<rect width="167" height="200" fill="white" transform="translate(47 28)"/>
</clipPath>
</defs>
</svg>
