<svg width="256" height="256" viewBox="0 0 256 256" fill="none" xmlns="http://www.w3.org/2000/svg">
<rect width="256" height="256" fill="#232932"/>
<g clip-path="url(#clip0_115_72)">
<path d="M228 105.812L87.7656 28L181.672 167.453L200.969 154.797L228 105.812Z" fill="url(#paint0_linear_115_72)"/>
<path d="M172.062 74.0938L154.484 31.125L115.656 69.4062L131.516 208.156L169.172 228L228 193.625L172.062 74.0938Z" fill="url(#paint1_linear_115_72)"/>
<path d="M87.7656 28L28 68.2344L50.2656 205.656L107.531 227.688L181.672 167.453L87.7656 28Z" fill="url(#paint2_linear_115_72)"/>
<path d="M65.5 65.7344H190.5V190.734H65.5V65.7344Z" fill="black"/>
<path d="M81.125 167.062H128V174.875H81.125V167.062ZM81.125 81.2031H102.609C105.09 81.0516 107.577 81.3949 109.924 82.213C112.271 83.0312 114.432 84.3078 116.281 85.9687C118.859 88.7031 120.344 92.375 120.344 96.125V96.9062C120.656 103.469 116.437 109.406 110.187 111.438L121.75 128.234H109.641L99.5625 113.156H91.5156V128.234H81.125V81.125V81.2031ZM101.984 104.094C106.828 104.094 109.719 101.594 109.875 97.8438V97.375C109.875 92.9219 106.75 90.6562 101.75 90.6562H91.5938V104.094H101.984ZM128.781 81.2031H147.141C161.672 81.2031 171.828 91.0469 172.141 103.937V104.719C172.141 118 161.984 128.156 147.141 128.156H128.781V81.2812V81.2031ZM139.25 90.5781V118.859H147.219C149.063 119 150.917 118.756 152.662 118.143C154.407 117.53 156.006 116.561 157.358 115.298C158.709 114.035 159.783 112.505 160.513 110.805C161.242 109.105 161.61 107.272 161.594 105.422V104.641C161.673 102.76 161.357 100.883 160.669 99.1304C159.98 97.3781 158.933 95.7891 157.594 94.4652C156.255 93.1412 154.655 92.1116 152.895 91.4422C151.135 90.7728 149.255 90.4785 147.375 90.5781H139.406H139.25Z" fill="white"/>
</g>
<defs>
<linearGradient id="paint0_linear_115_72" x1="12821" y1="11435.3" x2="-2548.2" y2="2603.64" gradientUnits="userSpaceOnUse">
<stop stop-color="#DD1265"/>
<stop offset="0.48" stop-color="#DD1265"/>
<stop offset="0.94" stop-color="#FDB60D"/>
</linearGradient>
<linearGradient id="paint1_linear_115_72" x1="4160.03" y1="1468.31" x2="9789.72" y2="17022.6" gradientUnits="userSpaceOnUse">
<stop offset="0.14" stop-color="#087CFA"/>
<stop offset="0.48" stop-color="#DD1265"/>
<stop offset="0.96" stop-color="#087CFA"/>
</linearGradient>
<linearGradient id="paint2_linear_115_72" x1="6098.04" y1="2304.44" x2="10477.8" y2="17859" gradientUnits="userSpaceOnUse">
<stop offset="0.28" stop-color="#DD1265"/>
<stop offset="0.97" stop-color="#FDB60D"/>
</linearGradient>
<clipPath id="clip0_115_72">
<rect width="200" height="200" fill="white" transform="translate(28 28)"/>
</clipPath>
</defs>
</svg>
