<svg width="256" height="256" viewBox="0 0 256 256" fill="none" xmlns="http://www.w3.org/2000/svg">
<rect width="256" height="256" fill="url(#paint0_linear_178_9)"/>
<path d="M221.695 111.168H187.949L193.149 104.079L155.862 103.992L137.649 129.397H173.046L157.411 153.146H130.703L163.135 181L228 153.146H195.903L221.695 111.168ZM214.486 75H176.649L171.454 82.2488H209.168L214.486 75ZM204.181 89.0436H166.581L160.884 96.9909H198.351L204.181 89.0436ZM127.651 107.232C127.651 113.647 125.922 119.452 122.462 124.646C119.003 129.837 113.968 133.656 107.354 136.102L130.705 180.095H92.8568L74.2405 141.753H61.727V180.095H28V75H92.2486C99.7757 75 106.186 76.4758 111.476 79.4303C116.868 82.2814 120.886 86.2007 123.53 91.1908C126.278 96.0804 127.651 101.427 127.651 107.232ZM93.3162 108.605C93.3162 105.857 92.4 103.566 90.5676 101.731C88.7378 99.8991 86.5 98.9832 83.8541 98.9832H61.727V118.381H83.8541C86.5 118.381 88.7378 117.465 90.5676 115.633C92.4 113.698 93.3162 111.355 93.3162 108.605Z" fill="white"/>
<defs>
<linearGradient id="paint0_linear_178_9" x1="128" y1="0" x2="128" y2="256" gradientUnits="userSpaceOnUse">
<stop stop-color="#F0DB4F"/>
<stop offset="1" stop-color="#FF5D13"/>
</linearGradient>
</defs>
</svg>
