<svg width="256" height="256" viewBox="0 0 256 256" fill="none" xmlns="http://www.w3.org/2000/svg">
<rect width="256" height="256" fill="#232932"/>
<path d="M73.847 175.587C76.8025 174.012 79.715 172.396 83.1737 172.663C84.0946 172.738 85.0369 173.252 85.8614 173.745C86.2362 173.97 86.3433 174.634 86.5896 175.148C84.6942 175.287 83.0131 175.276 81.3855 175.565C79.8007 175.844 78.2373 176.358 76.7061 176.872C75.1855 177.396 75.207 177.45 74.2111 176.09C74.104 175.94 73.997 175.79 73.847 175.587Z" fill="#F2876D"/>
<path d="M86.3754 178.082C86.3754 180.073 86.3968 181.969 86.354 183.864C86.3219 184.688 83.4521 186.23 81.621 183.843C80.4432 182.311 78.9762 181.026 77.552 179.527C80.3468 178.339 83.2058 177.76 86.3754 178.082Z" fill="#F2876D"/>
<path d="M101.367 198.716C98.9681 198.919 96.6123 198.962 94.3208 199.348C92.8324 199.605 92.1578 199.144 91.7616 197.806C91.5796 197.174 91.2583 196.542 90.8728 196.007C88.9026 193.383 89.3309 190.31 89.0846 187.162C92.4469 187.333 95.9163 187.098 98.4327 189.646C100.831 192.066 102.106 195.097 101.367 198.716Z" fill="#F2876D"/>
<path d="M195.244 173.959C196.079 174.527 196.839 175.04 197.535 175.522C197.557 175.704 197.599 175.79 197.578 175.854C196.368 178.606 196.4 178.788 198.841 180.651C199.955 181.497 201.176 182.226 201.861 183.511C202.204 184.142 202.568 184.763 202.803 185.459C200.148 182.793 197.589 180.063 193.541 179.452C194.119 177.643 194.665 175.865 195.244 173.959Z" fill="url(#paint0_linear_72_3)"/>
<path d="M202.354 190.781C198.456 188.554 194.762 186.124 190.018 186.702C190.778 185.224 191.485 183.811 192.245 182.429C192.363 182.215 192.802 182.001 193.027 182.054C193.916 182.269 194.869 182.44 195.64 182.9C198.574 184.667 200.822 187.098 202.225 190.257C202.279 190.375 202.289 190.524 202.354 190.781Z" fill="url(#paint1_linear_72_3)"/>
<path d="M206.937 200.665C204.409 200.247 201.979 199.797 199.527 199.433C196.925 199.048 194.312 198.727 191.699 198.395C189.782 198.159 187.866 197.988 185.96 197.699C184.707 197.506 184.182 196.649 184.46 195.429C184.985 193.051 187.759 189.871 191.099 189.796C195.361 189.7 198.627 191.67 201.829 193.994C203.842 195.45 205.448 197.313 206.69 199.465C206.797 199.658 206.894 199.862 206.99 200.065C207.001 200.129 206.979 200.215 206.937 200.665Z" fill="url(#paint2_linear_72_3)"/>
<path d="M90.0053 118.203C91.2795 117.657 92.7144 117.014 94.1921 116.457C94.417 116.372 94.8774 116.639 95.0809 116.864C98.0898 120.162 100.553 123.846 102.105 128.022C103.947 132.98 105.243 138.098 104.536 143.474C103.733 149.609 101.334 155.07 96.9655 159.493C94.8346 161.645 92.3075 163.412 89.9624 165.339C89.8339 165.446 89.6519 165.489 89.3949 165.618C89.5983 149.77 89.8018 134.029 90.0053 118.203Z" fill="#FFBC9A"/>
<path d="M63.2782 136.984C66.7797 136.513 70.0778 136.181 73.3223 135.592C75.8708 135.132 78.4193 134.382 80.4431 132.69C84.2444 129.499 83.9232 124.306 79.8542 120.954C79.7685 120.89 79.6828 120.826 79.4794 120.665C82.0386 120.109 84.4907 119.584 87.1356 119.006C87.1356 119.937 87.1463 120.815 87.1356 121.683C86.9643 136.502 86.7929 151.333 86.643 166.153C86.6323 166.935 86.3753 167.352 85.6793 167.663C81.3961 169.59 76.9309 170.789 72.2943 171.56C70.9987 171.775 70.4418 171.4 70.0564 170.383C69.189 168.08 68.311 165.778 67.5293 163.444C67.3901 163.015 67.5507 162.352 67.797 161.934C69.2426 159.535 70.4097 157.051 70.7738 154.213C71.3306 149.802 68.9641 145.326 64.9165 143.377C64.167 143.013 63.6958 142.67 63.6851 141.696C63.6851 140.111 63.4281 138.516 63.2782 136.984Z" fill="#FFBC9A"/>
<path d="M49.4649 140.871C45.6529 142.51 44.0146 145.647 43.3721 149.438C42.6868 153.421 43.3078 157.233 45.3745 160.713C47.1306 163.669 49.5399 165.735 53.2127 165.832C53.459 165.842 53.7802 166.206 53.9087 166.485C54.5726 167.888 55.1937 169.312 55.9647 171.046C53.8231 170.136 51.8314 169.462 50.011 168.477C40.2132 163.23 34.1739 155.027 31.7646 144.287C29.2375 133.012 31.3256 122.4 37.5683 112.741C43.3185 103.854 51.3388 97.8038 61.7577 95.4159C72.6691 92.921 82.7025 95.0197 91.5045 102.098C93.3463 103.575 94.8989 105.428 96.5694 107.13C96.805 107.366 96.9763 107.655 97.1369 107.944C98.3683 110.107 98.0471 111.328 95.9055 112.549C92.5003 114.498 88.8168 115.761 85.0047 116.543C81.9208 117.175 78.8048 117.603 75.6888 118.063C74.8964 118.181 74.2218 118.288 74.0291 119.22C73.8363 120.13 74.2753 120.698 74.9607 121.179C76.3206 122.143 77.7876 122.989 78.9869 124.113C81.1392 126.137 80.4967 129.703 77.8518 131.052C74.7679 132.626 71.4377 133.386 68.0219 133.569C62.4751 133.858 56.907 133.933 51.3602 134.082C50.268 134.115 49.4863 134.532 49.1972 135.635C48.9509 136.567 48.7154 137.498 48.5333 138.441C48.3513 139.404 48.437 140.325 49.4649 140.871Z" fill="url(#paint3_linear_72_3)"/>
<path d="M201.251 136.503C202.503 138.152 202.075 140.068 202.279 141.835C202.686 145.422 202.9 149.031 203.167 152.629C203.221 153.335 203.178 154.042 203.178 154.867C200.876 155.049 198.777 154.331 196.775 153.239C196.229 152.939 195.672 152.607 195.222 152.179C194.655 151.633 193.991 151.055 193.712 150.348C192.427 147.093 190.875 143.987 188.883 141.107C188.069 139.929 187.052 138.826 186.506 137.531C186.013 136.342 185.885 134.939 185.863 133.633C185.799 129.981 187.084 126.758 189.118 123.76C191.292 120.569 194.205 118.213 197.728 116.907C202.461 115.162 207.343 114.926 212.355 116.35C216.638 117.571 219.893 120.119 222.313 123.557C224.669 126.908 225.665 130.827 225.087 135.057C224.733 137.605 223.459 141.803 222.56 142.231C221.81 142.531 217.698 138.601 215.803 136.321C213.768 133.879 213.244 133.943 210.888 135.914C209.774 136.845 208.564 137.648 207.397 138.494C206.808 138.923 206.283 138.826 205.877 138.237C205.106 137.102 204.324 135.978 203.596 134.821C202.707 133.408 201.765 133.097 200.351 133.943C197.931 135.389 195.832 137.188 194.13 139.447C193.712 140.004 193.455 140.529 194.033 141.107C194.601 141.674 195.147 141.514 195.704 141.053C197.514 139.533 199.345 138.044 201.251 136.503Z" fill="url(#paint4_linear_72_3)"/>
<path d="M96.7299 163.797C103.562 157.458 106.988 150.391 107.566 141.193C108.862 142.242 110.083 143.474 111.518 144.352C116.154 147.211 121.069 147.264 126.059 145.337C130.878 143.484 134.775 140.368 137.891 136.321C139.637 134.051 141.157 131.598 142.742 129.296C142.86 130.367 142.978 131.609 143.149 132.84C143.984 138.816 146.233 144.127 151.159 147.832C156.577 151.911 162.498 151.976 168.484 149.127C173.902 146.547 178.078 142.296 181.462 136.192C182.961 137.937 184.535 139.522 185.82 141.321C189.086 145.883 191.303 150.937 192.502 156.419C192.577 156.741 192.459 157.201 192.267 157.469C186.292 165.5 178.239 170.768 169.169 174.623C163.002 177.247 156.555 178.885 149.927 179.763C144.627 180.459 139.294 180.705 133.962 180.223C123.061 179.249 112.738 176.443 103.647 170.051C101.109 168.263 98.7537 166.271 96.7299 163.797Z" fill="url(#paint5_linear_72_3)"/>
<path d="M65.7946 196.778C63.7922 196.093 62.443 194.026 63.1818 191.767C64.0385 189.165 63.6102 186.381 64.681 183.875C65.1093 182.879 64.7666 182.301 64.1134 181.562C62.1003 179.324 60.2264 176.957 58.2348 174.698C57.8921 174.302 57.2496 174.098 56.7035 173.959C52.0991 172.76 47.8587 170.811 44.0145 167.995C36.3797 162.416 31.6361 154.92 29.2589 145.84C28.0596 141.257 27.7705 136.556 28.1667 131.877C28.9163 122.904 32.118 114.819 37.7397 107.73C40.2774 104.529 43.1793 101.723 46.5309 99.3674C46.6808 99.2603 46.8522 99.1639 47.1948 98.9605C43.5862 97.804 42.2477 95.202 41.8622 91.9896C41.5517 89.3233 42.1299 86.7534 43.1365 84.2691C44.4322 81.046 46.4452 78.3797 49.2293 76.3131C51.0069 74.996 52.9985 74.2143 55.2686 74.4285C55.9647 74.4927 56.4251 74.2464 56.9177 73.7646C60.4513 70.3059 64.4989 67.5861 68.9535 65.423C71.6519 64.1167 74.3289 62.6925 76.7917 61.0006C81.2784 57.9167 84.4265 53.655 86.6002 48.6757C87.6389 46.2986 88.7097 43.9321 89.7698 41.5656C90.0268 40.9981 90.2838 40.4199 90.605 39.8738C91.6116 38.2033 92.4682 37.7964 94.1708 38.0855C95.5521 38.3211 96.6443 39.4669 96.9656 41.0409C97.5973 44.1463 96.8799 47.1017 95.9376 50.0142C94.8025 53.5158 93.539 56.953 91.3867 59.9941C91.0762 60.4331 91.0333 61.1291 91.0226 61.7074C91.0012 72.501 91.0012 83.3054 91.0226 94.099C91.0226 95.3305 91.119 96.5619 91.2582 97.7719C91.301 98.1252 91.5794 98.5 91.8578 98.7677C94.1708 100.974 96.6657 103.019 98.7966 105.375C100.82 107.613 101.752 112.249 97.2761 114.84C99.0322 117.293 100.799 119.745 102.555 122.197C102.93 120.119 103.187 118.031 103.679 115.997C105.543 108.309 109.183 101.605 115.009 96.1871C118.2 93.221 121.83 90.9188 126.166 89.9979C133.212 88.5095 139.241 90.9616 143.245 97.1508C143.942 98.2216 144.477 99.3888 145.109 100.556C145.708 98.6071 145.922 86.3357 145.301 83.8194C143.781 84.0014 142.26 84.3119 140.718 84.3334C138.074 84.3762 135.429 84.3226 132.794 84.1406C131.178 84.0335 129.539 83.7765 127.976 83.3268C124.667 82.3738 123.457 80.1894 124.785 77.0091C125.759 74.6747 127.055 72.3725 128.672 70.4344C136.317 61.2683 145.601 54.2011 156.545 49.3825C159.393 48.1296 162.284 46.9303 165.465 46.7804C165.946 46.759 166.439 46.759 166.921 46.8126C168.388 46.9946 169.319 48.3331 169.03 49.7894C168.516 52.3379 167.124 54.4688 165.604 56.4605C163.28 59.5015 160.785 62.4034 158.354 65.3695C158.151 65.6158 157.937 65.8621 157.53 66.3332C159.233 66.1084 160.667 65.8192 162.113 65.7443C165.218 65.573 168.366 65.1875 171.311 66.7187C173.742 67.9823 174.877 70.4237 174.438 73.1328C173.763 77.341 171.739 80.971 169.598 84.5047C167.424 88.0812 165.004 91.5077 162.723 94.945C163.666 94.7522 164.79 94.4738 165.936 94.2811C172.071 93.2852 177.083 95.384 180.97 100.085C184.418 104.261 185.981 109.219 186.174 114.583C186.27 117.143 186.045 119.702 185.981 122.272C185.97 122.518 185.981 122.775 186.088 123.139C189.504 118.074 194.226 114.905 200.094 113.309C199.88 110.268 199.677 107.27 199.462 104.154C197.417 104.261 195.49 104.357 193.562 104.475C192.042 104.571 190.521 104.743 189.001 104.839C187.266 104.936 186.549 103.886 187.341 102.355C189.119 98.939 190.96 95.5446 192.77 92.1502C194.987 87.9955 197.203 83.8408 199.43 79.6861C200.469 77.7372 201.508 77.6837 202.761 79.5362C207.301 86.2394 211.83 92.9533 216.37 99.6565C217.43 101.231 216.916 102.216 215.032 102.408C212.558 102.665 210.085 102.997 207.429 103.319C207.622 106.413 207.815 109.486 207.997 112.303C210.684 113.149 213.319 113.77 215.781 114.798C218.234 115.826 220.568 117.207 222.356 119.241C227.175 124.702 229.295 130.924 227.185 138.13C226.671 139.886 225.697 141.503 224.947 143.184C224.466 144.266 223.684 144.759 222.485 144.544C222.131 144.48 221.756 144.534 221.478 144.534C220.857 145.883 220.364 147.296 219.604 148.538C217.912 151.29 215.599 153.432 212.762 155.006C212.237 155.295 211.423 155.702 211.391 156.098C211.305 157.18 211.273 158.443 211.745 159.364C212.987 161.752 214.539 163.99 215.921 166.303C217.591 169.109 219.219 171.946 220.868 174.762C221.607 176.037 221.542 176.551 220.482 177.611C218.587 179.517 216.702 181.444 214.764 183.297C214.154 183.886 214.09 184.41 214.186 185.235C214.475 187.655 213.511 189.625 211.52 190.985C209.667 192.248 207.74 192.088 205.716 190.792C206.048 192.773 206.251 194.508 207.654 195.996C208.607 197.003 209.282 198.373 209.785 199.701C210.47 201.479 209.453 202.871 207.558 203.074C204.613 203.396 201.775 202.657 198.948 202.046C194.73 201.136 190.468 200.686 186.195 200.879C181.944 201.061 177.929 202.475 174.02 204.124C169.18 206.158 164.415 208.375 159.5 210.216C154.757 211.994 149.756 212.786 144.702 213.204C136.66 213.857 128.79 212.979 121.112 210.613C116.679 209.242 112.481 207.25 108.455 204.937C105.425 203.192 102.116 202.25 98.6467 201.961C97.0084 201.821 95.3379 201.939 93.8817 201.939C94.2671 205.045 94.7597 207.85 94.9096 210.677C95.0274 212.776 94.3635 214.789 92.9715 216.459C92.2862 217.284 91.4509 217.926 90.2731 217.723C89.0524 217.509 88.3349 216.727 87.9815 215.57C86.8786 211.973 85.7543 208.375 84.6407 204.777C84.5978 204.638 84.5336 204.509 84.4372 204.284C82.3491 204.798 80.2611 205.259 78.2159 205.848C75.2712 206.694 72.3693 207.722 69.4032 208.503C68.0754 208.857 66.6084 209.081 65.2806 208.878C63.1283 208.535 62.2288 206.79 62.5287 204.638C62.8927 201.789 64.0599 199.23 65.7946 196.778ZM96.73 163.797C98.7538 166.271 101.11 168.273 103.647 170.051C112.749 176.433 123.061 179.238 133.962 180.223C139.294 180.705 144.638 180.459 149.927 179.763C156.556 178.885 163.002 177.247 169.17 174.623C178.239 170.758 186.281 165.489 192.267 157.469C192.459 157.201 192.577 156.741 192.502 156.42C191.303 150.937 189.086 145.883 185.82 141.321C184.536 139.522 182.951 137.927 181.462 136.192C178.079 142.296 173.902 146.547 168.484 149.127C162.498 151.976 156.577 151.911 151.159 147.832C146.222 144.116 143.974 138.816 143.149 132.841C142.978 131.609 142.86 130.367 142.742 129.296C141.157 131.598 139.637 134.051 137.891 136.321C134.765 140.368 130.867 143.495 126.059 145.337C121.069 147.254 116.165 147.2 111.518 144.352C110.083 143.474 108.862 142.242 107.566 141.193C106.978 150.391 103.562 157.448 96.73 163.797ZM49.4649 140.872C48.4369 140.315 48.3513 139.405 48.5226 138.441C48.7046 137.499 48.9402 136.567 49.1865 135.635C49.4756 134.532 50.2573 134.115 51.3495 134.083C56.907 133.933 62.4644 133.869 68.0111 133.569C71.4163 133.387 74.7572 132.626 77.8411 131.052C80.486 129.703 81.1284 126.148 78.9761 124.114C77.7768 122.978 76.3098 122.143 74.9499 121.18C74.2646 120.698 73.8256 120.13 74.0183 119.22C74.2111 118.288 74.8857 118.181 75.6781 118.064C78.7941 117.603 81.9101 117.175 84.994 116.543C88.8168 115.761 92.4896 114.498 95.8948 112.549C98.0471 111.328 98.3683 110.107 97.1262 107.944C96.9656 107.655 96.7835 107.366 96.5586 107.131C94.8882 105.439 93.3356 103.586 91.4938 102.098C82.6918 95.0199 72.6584 92.9212 61.747 95.4161C51.3281 97.804 43.3078 103.854 37.5576 112.742C31.3149 122.4 29.2161 133.012 31.7539 144.287C34.1632 155.028 40.2132 163.241 50.0003 168.477C51.8314 169.462 53.8231 170.136 55.954 171.047C55.1723 169.312 54.5619 167.888 53.898 166.485C53.7695 166.207 53.4483 165.843 53.202 165.832C49.5292 165.736 47.1199 163.669 45.3637 160.713C43.2971 157.223 42.676 153.421 43.3613 149.438C44.0252 145.647 45.6529 142.51 49.4649 140.872ZM117.643 134.104C118.189 134.083 118.949 134.115 119.677 133.997C123.778 133.322 127.473 131.663 130.717 129.093C137.709 123.567 142.1 116.532 142.806 107.505C143.138 103.265 141.864 99.3781 138.984 96.2406C135.75 92.7177 131.563 91.7219 126.959 92.7284C120.93 94.0348 116.583 97.8683 112.963 102.601C109.066 107.698 106.742 113.513 105.746 119.841C105.468 121.586 105.136 123.492 105.553 125.142C107.02 130.87 111.518 134.115 117.643 134.104ZM145.601 127.893C145.601 128.675 145.505 129.478 145.623 130.239C145.826 131.502 145.922 132.883 146.49 133.986C147.604 136.139 149.413 137.723 151.63 138.751C155.688 140.636 159.736 140.186 163.666 138.419C169.427 135.85 173.463 131.427 176.408 125.966C179.717 119.83 181.302 113.309 179.845 106.36C179.428 104.347 178.817 102.044 177.5 100.62C174.342 97.2258 170.155 96.155 165.572 97.2044C159.95 98.4893 155.827 101.969 152.54 106.488C147.914 112.849 145.633 120.023 145.601 127.893ZM147.507 109.08C147.657 108.844 147.796 108.587 147.957 108.362C149.681 106.038 151.341 103.672 153.161 101.423C154.799 99.4102 156.695 97.6113 158.333 95.6089C161.781 91.3685 165.283 87.1496 167.735 82.2239C169.116 79.4505 170.401 76.6129 171.472 73.711C172.211 71.7086 171.611 69.9418 170.262 69.3743C169.116 68.8924 167.874 68.4962 166.642 68.4106C163.205 68.1857 159.8 68.614 156.448 69.4064C154.264 69.9204 152.09 70.5415 149.906 71.0769C149.092 71.2803 148.289 71.1946 148.043 70.2202C147.796 69.2886 148.246 68.7211 149.199 68.5605C149.338 68.5391 149.478 68.432 149.617 68.4106C151.426 68.1964 152.872 67.2755 154.136 66.0334C157.658 62.5854 160.721 58.752 163.484 54.6829C164.554 53.1089 165.432 51.417 166.396 49.7787C166.311 49.693 166.214 49.6073 166.128 49.5217C165.582 49.5752 165.026 49.5752 164.49 49.6823C160.464 50.5282 156.727 52.1451 153.15 54.094C144.777 58.6449 137.324 64.4165 131.188 71.7515C129.689 73.5504 128.501 75.6599 127.451 77.7587C126.562 79.5148 126.991 80.2322 128.897 80.7248C130.289 81.0781 131.734 81.2173 133.159 81.4422C136.542 81.9776 139.947 82.0633 143.278 81.3137C148.61 80.1251 153.889 78.6795 159.179 77.3196C160.389 77.0091 161.16 77.1911 161.46 78.0156C161.76 78.8402 161.267 79.6111 160.121 79.9859C158.365 80.5534 156.598 81.121 154.821 81.6028C152.519 82.2239 150.195 82.77 147.882 83.3482C148.803 91.9682 148.096 100.502 147.507 109.08ZM201.251 136.503C199.355 138.045 197.514 139.533 195.693 141.032C195.126 141.493 194.59 141.653 194.023 141.086C193.445 140.507 193.702 139.983 194.119 139.426C195.822 137.167 197.931 135.368 200.341 133.922C201.754 133.076 202.707 133.376 203.585 134.8C204.313 135.967 205.095 137.092 205.866 138.216C206.273 138.816 206.797 138.901 207.386 138.473C208.554 137.627 209.764 136.813 210.877 135.892C213.233 133.922 213.758 133.858 215.792 136.299C217.698 138.58 222.013 142.617 222.549 142.21C223.341 142.092 224.723 137.584 225.076 135.036C225.654 130.817 224.658 126.887 222.303 123.535C219.883 120.087 216.638 117.55 212.344 116.329C207.333 114.905 202.461 115.13 197.717 116.886C194.194 118.192 191.282 120.548 189.108 123.739C187.063 126.737 185.778 129.96 185.853 133.612C185.874 134.929 186.003 136.321 186.495 137.509C187.03 138.805 188.048 139.908 188.872 141.086C190.864 143.966 192.417 147.071 193.702 150.327C193.98 151.033 194.633 151.612 195.201 152.158C195.65 152.586 196.207 152.918 196.753 153.218C198.756 154.31 200.854 155.028 203.157 154.845C203.157 154.01 203.2 153.304 203.146 152.608C202.878 149.01 202.664 145.401 202.257 141.814C202.075 140.079 202.504 138.152 201.251 136.503ZM63.2782 136.985C63.4281 138.516 63.6851 140.111 63.6958 141.696C63.7065 142.67 64.167 143.013 64.9272 143.377C68.9749 145.326 71.3413 149.802 70.7845 154.214C70.4312 157.041 69.2533 159.525 67.8077 161.934C67.5614 162.352 67.3901 163.016 67.54 163.444C68.3217 165.778 69.189 168.081 70.0671 170.383C70.4526 171.4 70.9987 171.786 72.3051 171.561C76.9309 170.79 81.4068 169.59 85.69 167.663C86.3861 167.352 86.643 166.935 86.6538 166.153C86.793 151.333 86.975 136.503 87.1463 121.683C87.157 120.805 87.1463 119.927 87.1463 119.006C84.5014 119.584 82.0493 120.109 79.4901 120.666C79.6936 120.826 79.7792 120.89 79.8649 120.955C83.9339 124.306 84.2552 129.5 80.4538 132.691C78.43 134.383 75.8708 135.132 73.333 135.593C70.0671 136.181 66.7797 136.513 63.2782 136.985ZM140.429 210.709C140.836 210.709 141.157 210.72 141.479 210.709C145.644 210.527 149.777 210.045 153.825 209.039C161.856 207.058 169.287 203.781 175.766 198.545C181.227 194.133 186.056 189.186 188.969 182.654C190.093 180.138 191.1 177.579 192.16 175.041C186.881 177.878 181.676 180.47 176.076 182.119C173.902 182.761 172.318 183.821 171.6 186.059C171.343 186.862 170.872 187.591 170.444 188.329C168.859 191.049 167.328 193.812 165.636 196.457C164.758 197.838 163.43 198.159 162.027 197.324C160.871 196.639 159.789 195.696 158.943 194.658C157.691 193.116 156.673 191.381 155.613 189.828C153 190.043 150.431 190.246 147.839 190.46C148.985 192.613 150.163 194.711 151.223 196.864C152.165 198.791 151.384 199.905 149.221 199.948C147.207 199.99 145.194 200.065 143.181 200.194C142.924 200.205 142.517 200.536 142.464 200.772C141.779 204.049 141.115 207.315 140.429 210.709ZM90.0054 118.203C89.8019 134.029 89.5985 149.759 89.3843 165.618C89.6413 165.489 89.8233 165.446 89.9518 165.339C92.3076 163.401 94.8347 161.645 96.9549 159.493C101.324 155.081 103.722 149.62 104.525 143.474C105.232 138.098 103.926 132.98 102.095 128.022C100.553 123.857 98.0899 120.162 95.0702 116.864C94.8561 116.629 94.3956 116.372 94.1815 116.457C92.7252 117.014 91.2796 117.667 90.0054 118.203ZM90.6264 214.874C90.8727 214.564 91.0762 214.36 91.2154 214.125C92.4254 212.026 92.3397 209.745 91.9649 207.507C91.0654 202.196 89.0309 197.249 85.7543 193.041C82.5633 188.929 78.9119 185.16 75.3033 181.401C72.2194 178.2 69.2104 174.934 67.2295 170.94C65.9659 168.38 65.1628 165.596 64.2419 162.876C64.1027 162.448 64.349 161.795 64.5953 161.345C65.4305 159.835 66.5442 158.443 67.2188 156.869C69.2104 152.168 67.5721 147.468 63.2782 145.583C61.5864 144.844 61.0724 143.741 61.0617 142.049C61.0617 140.347 60.8796 138.644 60.7725 136.952H51.7564C51.478 138.184 51.2103 139.34 50.9426 140.518C53.898 140.507 56.2431 141.632 58.0741 143.859C60.6762 147.029 61.6827 150.701 61.5328 154.749C61.3829 159.022 60.0016 162.662 56.1788 165.114C56.2324 165.243 56.2859 165.371 56.3394 165.5C59.2841 173.188 64.9272 178.799 70.731 184.303C73.922 187.334 77.1665 190.3 80.336 193.341C84.3408 197.196 86.8893 201.929 88.4313 207.229C89.1487 209.735 89.8662 212.23 90.6264 214.874ZM89.5663 173.381C89.6413 173.841 89.727 174.313 89.7805 174.784C89.9197 175.994 90.4551 176.829 91.6009 177.439C94.4385 178.96 96.0982 181.326 96.473 184.582C96.5158 184.935 96.9334 185.32 97.2654 185.556C98.3683 186.348 99.6425 186.959 100.628 187.858C102.759 189.807 103.797 192.398 104.333 195.172C104.9 198.181 106.603 200.419 109.066 202.003C114.891 205.73 121.251 208.225 128.04 209.585C129.668 209.906 131.306 210.099 133.009 210.366C132.741 207.154 132.495 204.134 132.227 200.868C130.514 200.868 128.8 200.943 127.098 200.847C125.845 200.772 124.581 200.579 123.382 200.215C121.979 199.798 121.498 198.641 122.065 197.313C122.397 196.532 122.815 195.771 123.275 195.065C124.474 193.255 125.717 191.467 126.969 189.657C124.892 188.95 122.89 188.319 120.93 187.591C120.277 187.344 119.956 187.505 119.538 187.997C117.782 190.118 116.004 192.227 114.173 194.294C112.589 196.082 111.464 195.975 110.051 194.026C107.791 190.91 106.207 187.43 104.804 183.875C104.236 182.429 103.594 181.284 101.988 180.844C101.259 180.641 100.596 180.159 99.9317 179.752C96.5051 177.654 93.0679 175.533 89.5663 173.381ZM88.2814 64.7484C87.3926 65.4659 86.1184 66.3761 84.9833 67.4361C80.1326 72.0192 75.239 76.5594 70.5596 81.303C68.7607 83.1234 67.4757 85.4577 65.9338 87.5458C65.377 88.2953 65.3449 88.8735 66.1265 89.516C66.512 89.8265 66.7904 90.3298 66.9832 90.801C67.283 91.5291 67.7327 91.7326 68.5037 91.7005C73.6864 91.5077 78.7191 92.3322 83.5484 94.2168C85.1118 94.8272 86.6109 95.5875 88.2814 96.3477V64.7484ZM163.302 194.925C163.494 194.69 163.612 194.594 163.687 194.465C165.722 190.814 167.831 187.194 169.748 183.479C170.647 181.723 171.761 180.545 173.72 179.966C180.327 178.018 186.484 175.03 192.31 171.4C194.312 170.147 196.164 168.616 197.92 167.031C199.441 165.661 199.377 165.511 198.028 163.947C196.743 162.47 196.571 160.928 197.396 159.214C197.642 158.7 197.867 158.165 198.135 157.565C197.257 157.105 196.475 156.698 195.875 156.387C195.608 157.169 195.533 157.994 195.104 158.518C193.509 160.489 191.903 162.459 190.125 164.247C185.36 169.034 179.813 172.739 173.731 175.64C166.814 178.938 159.554 181.166 151.962 182.237C149.349 182.601 146.736 182.879 144.049 183.211C144.734 184.635 145.387 186.038 146.105 187.419C146.212 187.623 146.565 187.826 146.79 187.815C148.653 187.74 150.548 187.805 152.358 187.473C155.442 186.905 158.483 186.091 161.535 185.342C162.434 185.117 163.184 185.16 163.537 186.145C163.826 186.969 163.323 187.73 162.295 188.04C161.085 188.415 159.864 188.747 158.601 189.122C159.971 191.285 161.117 193.512 163.302 194.925ZM58.8344 75.5421C63.5566 81.9133 61.2437 87.6957 57.9349 93.4244C60.0551 92.9319 62.1967 92.45 64.4882 91.9146C63.9849 91.315 63.5245 90.7153 62.9998 90.1585C62.3787 89.4839 62.2074 88.7772 62.6143 87.9312C63.9849 85.0615 65.6447 82.3845 67.8612 80.093C70.5918 77.2875 73.3651 74.5248 76.1599 71.7836C78.1088 69.8776 80.0683 67.9823 82.1136 66.1833C85.069 63.5813 87.5746 60.5937 89.7377 57.3171C91.7722 54.2332 92.9822 50.7531 93.9673 47.2302C94.4063 45.6775 94.567 44.0178 94.6098 42.4009C94.6312 41.8119 94.5241 40.5912 93.5818 40.5912C93.0036 40.4627 92.6931 41.4371 92.4468 41.9618C91.3546 44.3497 90.3052 46.759 89.32 49.1897C86.4289 56.2463 81.803 61.7395 75.0142 65.3588C71.3949 67.2969 67.7542 69.2244 64.2526 71.366C62.2931 72.5653 60.5691 74.1822 58.8344 75.5421ZM148.257 197.11C147.871 196.36 147.593 195.804 147.304 195.247C146.03 192.87 144.712 190.503 143.46 188.115C142.774 186.809 142.164 185.46 141.543 184.11C141.222 183.414 140.718 183.157 139.958 183.168C138.202 183.179 136.457 183.061 134.701 183.093C134.369 183.104 133.93 183.436 133.726 183.746C131.734 186.916 129.786 190.107 127.805 193.287C126.884 194.754 125.909 196.178 124.871 197.763C125.427 197.849 125.791 197.934 126.145 197.956C128.49 198.084 130.835 198.106 133.169 198.352C134.904 198.534 135.043 198.909 135.14 200.676C135.332 203.974 135.6 207.25 135.846 210.57C136.51 210.634 136.949 210.677 137.431 210.73C137.549 210.42 137.677 210.152 137.731 209.863C138.416 206.426 139.101 202.978 139.765 199.541C140.055 198.074 140.568 197.57 142.046 197.474C144.059 197.345 146.072 197.238 148.257 197.11ZM89.2451 169.119C89.7484 169.558 90.1446 169.954 90.5836 170.297C95.1131 173.809 100.007 176.722 105.232 179.078C106.132 179.485 106.603 180.041 106.903 180.984C107.459 182.74 108.091 184.474 108.873 186.145C109.869 188.265 111.025 190.31 112.224 192.602C114.184 190.342 115.929 188.329 117.739 186.241C117.289 186.059 117.011 185.963 116.743 185.845C115.854 185.46 115.373 184.496 115.715 183.8C116.079 183.061 116.904 182.9 117.846 183.382C117.943 183.436 118.017 183.532 118.125 183.575C121.39 184.71 124.656 185.856 127.933 186.969C128.169 187.044 128.618 187.034 128.704 186.894C129.582 185.567 130.407 184.207 131.295 182.772C120.106 181.53 105.318 177.493 94.417 165.768C92.7145 166.871 91.0226 167.963 89.2451 169.119ZM106.731 132.905C106.806 133.322 106.806 133.697 106.956 133.997C107.727 135.55 108.38 137.188 109.376 138.591C111.389 141.439 114.195 143.238 117.696 143.677C122.472 144.277 126.605 142.542 130.353 139.769C134.786 136.492 137.966 132.166 140.365 127.251C141.918 124.06 143.01 120.698 143.513 117.164C143.299 117.464 143.128 117.785 142.967 118.117C139.466 125.634 134.122 131.416 126.509 134.832C119.688 137.895 112.963 138.152 106.731 132.905ZM148.482 140.475C148.771 140.947 149.006 141.364 149.263 141.76C152.99 147.468 159.029 149.524 165.454 147.307C169.994 145.744 173.431 142.745 176.258 139.008C180.959 132.787 183.315 125.709 183.572 117.935C183.625 116.243 183.475 114.551 183.422 112.859C182.908 115.001 182.683 117.143 182.126 119.188C179.642 128.204 174.748 135.507 166.471 140.197C162.413 142.499 158.033 143.484 153.407 142.328C151.737 141.91 150.184 141.129 148.482 140.475ZM213.147 99.9349C209.164 94.0348 205.234 88.2311 201.229 82.2881C197.674 88.9485 194.226 95.3947 190.714 101.969C191.1 101.969 191.314 101.98 191.528 101.969C194.28 101.777 197.032 101.584 199.784 101.37C201.368 101.241 202.032 101.766 202.139 103.276C202.214 104.432 202.289 105.578 202.375 106.734C202.525 108.726 202.696 110.718 202.868 112.795C203.714 112.688 204.442 112.602 205.288 112.495C205.234 111.81 205.191 111.189 205.148 110.568C204.966 107.966 204.752 105.364 204.602 102.762C204.527 101.37 205.02 100.824 206.337 100.663C208.532 100.417 210.749 100.192 213.147 99.9349ZM206.937 200.665C206.969 200.215 207.001 200.13 206.979 200.076C206.894 199.873 206.797 199.669 206.68 199.476C205.438 197.313 203.831 195.461 201.818 194.005C198.617 191.681 195.351 189.711 191.089 189.807C187.748 189.882 184.975 193.062 184.45 195.439C184.182 196.66 184.696 197.517 185.949 197.71C187.855 197.999 189.782 198.159 191.688 198.406C194.301 198.738 196.914 199.059 199.516 199.444C201.979 199.798 204.42 200.247 206.937 200.665ZM58.813 154.428C58.6952 151.269 58.0313 148.421 56.1681 145.969C55.2686 144.78 54.1871 143.752 52.6345 143.484C50.0217 143.035 48.3941 144.416 47.2591 146.525C45.942 148.967 45.6743 151.622 46.0812 154.31C46.5202 157.233 47.6124 159.868 49.9575 161.838C51.7993 163.39 54.2621 163.326 55.9968 161.677C58.1277 159.653 58.5667 157.019 58.813 154.428ZM58.5774 82.8771C58.5774 82.3203 58.6309 81.7527 58.556 81.2066C58.5025 80.7355 58.299 80.2857 58.1598 79.8253C57.6458 78.0799 55.6113 76.6771 53.6089 77.3089C51.2746 78.0371 49.4542 79.3756 48.03 81.3137C45.6529 84.5368 44.2073 88.0383 44.6998 92.1609C45.1068 95.6517 47.7945 97.2793 50.9105 95.6731C56.0503 92.9961 58.117 88.381 58.5774 82.8771ZM74.9928 191.809C73.8577 192.73 72.7548 193.544 71.7268 194.454C68.9856 196.874 66.7369 199.669 65.6982 203.235C65.4412 204.113 65.5483 205.098 65.4841 206.04C66.1051 206.426 67.54 206.105 68.4823 205.848C71.4377 205.034 74.3396 204.049 77.2843 203.192C79.1903 202.646 81.1284 202.228 83.1951 201.714C80.9999 197.892 78.0874 194.883 74.9928 191.809ZM101.367 198.716C102.105 195.097 100.831 192.066 98.4325 189.657C95.9162 187.119 92.4468 187.344 89.0845 187.173C89.3201 190.321 88.8917 193.394 90.8727 196.018C91.2689 196.542 91.5794 197.174 91.7615 197.817C92.1577 199.166 92.8216 199.616 94.3207 199.359C96.6122 198.962 98.9679 198.909 101.367 198.716ZM205.041 141.161C206.091 154.364 207.151 167.599 208.211 180.866C208.918 180.78 209.517 180.705 210.117 180.63C209.25 167.481 208.382 154.396 207.526 141.535C206.583 141.386 205.834 141.278 205.041 141.161ZM211.07 152.918C211.766 152.447 212.323 152.029 212.912 151.687C215.824 149.963 217.752 147.489 218.512 144.18C218.662 143.559 218.705 142.628 218.362 142.21C216.874 140.433 215.214 138.794 213.608 137.113C212.826 137.777 212.28 138.355 211.627 138.773C210.684 139.372 210.16 139.865 210.32 141.257C210.759 145.058 210.834 148.903 211.07 152.918ZM218.201 175.822C216.188 172.364 214.154 168.873 212.119 165.382C212.055 165.414 211.98 165.436 211.916 165.468C212.258 170.629 212.601 175.801 212.944 181.101C214.786 179.26 216.488 177.557 218.201 175.822ZM86.3754 178.082C83.2058 177.761 80.336 178.339 77.552 179.527C78.9654 181.027 80.336 182.386 81.621 183.843C82.3384 184.657 82.9809 185.245 84.1588 184.753C84.6514 184.549 85.2617 184.624 85.7864 184.474C86.022 184.4 86.3432 184.078 86.3539 183.864C86.3968 181.969 86.3754 180.074 86.3754 178.082ZM204.27 166.774C204.217 166.753 204.174 166.731 204.12 166.71C202.696 170.372 201.272 174.034 199.784 177.868C201.625 179.131 203.457 180.384 205.47 181.765C205.052 176.572 204.667 171.668 204.27 166.774ZM202.354 190.781C202.289 190.525 202.268 190.375 202.214 190.257C200.812 187.098 198.563 184.667 195.629 182.9C194.869 182.44 193.905 182.269 193.027 182.054C192.802 182.001 192.363 182.215 192.245 182.429C191.474 183.811 190.778 185.235 190.018 186.702C194.762 186.124 198.456 188.554 202.354 190.781ZM73.847 175.587C73.9969 175.79 74.104 175.94 74.2111 176.09C75.2069 177.461 75.1855 177.397 76.706 176.872C78.2373 176.347 79.7899 175.833 81.3854 175.565C83.013 175.276 84.7049 175.287 86.5895 175.148C86.3432 174.634 86.2361 173.97 85.8614 173.745C85.0368 173.253 84.0945 172.739 83.1737 172.664C79.715 172.396 76.8024 174.023 73.847 175.587ZM72.8512 189.861C71.502 188.704 70.2705 187.633 68.9642 186.509C67.6364 188.03 66.5763 189.721 66.0195 191.66C65.8267 192.334 65.5055 193.908 65.9873 193.898C69.0177 193.63 70.6346 191.403 72.8512 189.861ZM195.243 173.959C194.655 175.865 194.119 177.643 193.562 179.442C197.61 180.052 200.169 182.783 202.825 185.449C202.589 184.742 202.225 184.132 201.882 183.5C201.186 182.215 199.966 181.487 198.863 180.641C196.421 178.789 196.379 178.607 197.599 175.844C197.621 175.79 197.589 175.705 197.556 175.512C196.839 175.041 196.079 174.516 195.243 173.959ZM206.808 186.648C206.797 188.126 207.622 189.186 208.746 189.165C210.16 189.132 211.509 187.526 211.498 185.899C211.488 184.549 210.663 183.618 209.464 183.586C207.718 183.554 206.819 184.592 206.808 186.648ZM201.111 157.426C200.662 158.454 200.169 159.482 199.762 160.542C199.634 160.885 199.57 161.409 199.741 161.677C200.383 162.673 201.144 163.594 201.904 164.6C202.45 163.262 203.071 162.073 203.392 160.81C203.649 159.814 203.671 158.69 203.478 157.683C203.435 157.458 202.086 157.469 201.336 157.383C201.272 157.373 201.197 157.405 201.111 157.426ZM93.7746 184.603C93.9031 182.526 91.5901 179.977 89.2023 179.26V184.196C90.7656 184.335 92.2326 184.464 93.7746 184.603ZM198.681 173.06C199.195 171.721 199.666 170.458 200.148 169.205C200.084 169.183 200.019 169.151 199.966 169.13C198.927 170.04 197.878 170.961 196.807 171.903C197.396 172.267 197.985 172.631 198.681 173.06Z" fill="#564341" stroke="#564341" stroke-width="0.4" stroke-miterlimit="10"/>
<path d="M117.643 134.104C111.518 134.115 107.02 130.87 105.553 125.131C105.136 123.482 105.468 121.576 105.746 119.83C106.742 113.502 109.076 107.687 112.963 102.59C116.572 97.8573 120.919 94.0239 126.959 92.7175C131.574 91.7109 135.75 92.7068 138.984 96.2297C141.864 99.3671 143.138 103.254 142.806 107.495C142.1 116.521 137.709 123.556 130.717 129.082C127.473 131.652 123.778 133.301 119.677 133.986C118.949 134.115 118.189 134.072 117.643 134.104Z" fill="url(#paint6_linear_72_3)"/>
<path d="M145.601 127.893C145.644 120.023 147.914 112.849 152.54 106.488C155.827 101.969 159.95 98.4891 165.572 97.2041C170.155 96.1548 174.341 97.2256 177.5 100.62C178.828 102.044 179.428 104.346 179.845 106.359C181.302 113.309 179.717 119.83 176.408 125.966C173.463 131.416 169.426 135.849 163.666 138.419C159.725 140.175 155.677 140.625 151.63 138.751C149.413 137.723 147.604 136.138 146.49 133.986C145.922 132.883 145.826 131.513 145.623 130.238C145.505 129.478 145.601 128.675 145.601 127.893Z" fill="url(#paint7_linear_72_3)"/>
<path d="M147.507 109.08C148.096 100.513 148.803 91.9681 147.893 83.3268C150.206 82.7486 152.529 82.2024 154.832 81.5814C156.62 81.0995 158.376 80.532 160.132 79.9645C161.278 79.5897 161.77 78.8187 161.47 77.9942C161.171 77.1697 160.41 76.9877 159.19 77.2982C153.9 78.6581 148.621 80.1037 143.288 81.2923C139.969 82.0311 136.553 81.9455 133.169 81.4208C131.745 81.1959 130.299 81.0674 128.907 80.7033C127.001 80.2215 126.573 79.504 127.462 77.7372C128.522 75.6385 129.7 73.529 131.199 71.73C137.335 64.3951 144.777 58.6235 153.161 54.0726C156.738 52.1344 160.485 50.5068 164.501 49.6609C165.036 49.5538 165.593 49.5538 166.139 49.5002C166.225 49.5859 166.321 49.6716 166.407 49.7572C165.443 51.3956 164.565 53.0981 163.494 54.6615C160.732 58.7305 157.669 62.564 154.146 66.012C152.872 67.2541 151.437 68.175 149.627 68.3891C149.488 68.4106 149.349 68.5069 149.21 68.5391C148.257 68.6997 147.807 69.2672 148.053 70.1988C148.31 71.1732 149.103 71.2589 149.917 71.0554C152.101 70.52 154.275 69.899 156.459 69.385C159.811 68.5926 163.216 68.1643 166.653 68.3891C167.874 68.4748 169.127 68.871 170.272 69.3529C171.622 69.9204 172.221 71.6765 171.482 73.6896C170.412 76.5915 169.127 79.4291 167.745 82.2025C165.293 87.1281 161.792 91.3578 158.344 95.5874C156.705 97.6005 154.81 99.3995 153.172 101.402C151.351 103.64 149.692 106.017 147.968 108.341C147.796 108.587 147.657 108.844 147.507 109.08Z" fill="url(#paint8_linear_72_3)"/>
<path d="M140.429 210.709C141.125 207.315 141.778 204.049 142.485 200.794C142.539 200.547 142.946 200.226 143.203 200.215C145.216 200.098 147.229 200.012 149.242 199.969C151.405 199.926 152.187 198.813 151.244 196.885C150.184 194.733 149.006 192.634 147.861 190.482C150.452 190.268 153.022 190.064 155.635 189.85C156.684 191.403 157.701 193.137 158.965 194.679C159.811 195.718 160.892 196.66 162.049 197.346C163.451 198.181 164.768 197.86 165.657 196.478C167.349 193.823 168.88 191.071 170.465 188.351C170.893 187.612 171.365 186.873 171.622 186.081C172.328 183.843 173.913 182.783 176.098 182.14C181.698 180.48 186.902 177.9 192.181 175.062C191.121 177.6 190.114 180.17 188.99 182.676C186.077 189.197 181.248 194.155 175.787 198.566C169.309 203.803 161.877 207.079 153.846 209.06C149.799 210.056 145.665 210.549 141.5 210.731C141.157 210.731 140.836 210.709 140.429 210.709Z" fill="#FAE384"/>
<path d="M90.6264 214.874C89.8661 212.229 89.1487 209.724 88.4206 207.229C86.8786 201.928 84.3301 197.195 80.3253 193.34C77.1558 190.289 73.9112 187.323 70.7203 184.303C64.9272 178.799 59.2734 173.188 56.3287 165.5C56.2752 165.371 56.2216 165.243 56.1681 165.114C59.9908 162.673 61.3615 159.021 61.5221 154.749C61.6613 150.712 60.6547 147.028 58.0634 143.859C56.2323 141.632 53.8873 140.507 50.9319 140.518C51.1996 139.351 51.4566 138.184 51.7457 136.952H60.7618C60.8689 138.644 61.0402 140.347 61.0509 142.049C61.0509 143.741 61.5756 144.844 63.2675 145.583C67.5614 147.467 69.1997 152.168 67.208 156.869C66.5441 158.443 65.4305 159.835 64.5846 161.345C64.3383 161.795 64.0813 162.448 64.2312 162.876C65.1521 165.596 65.9552 168.38 67.2187 170.939C69.1997 174.933 72.2087 178.199 75.2926 181.401C78.9119 185.16 82.5526 188.929 85.7436 193.041C89.0202 197.26 91.0547 202.196 91.9542 207.507C92.329 209.745 92.4146 212.026 91.2046 214.125C91.0761 214.36 90.8727 214.564 90.6264 214.874Z" fill="#D1D1D1"/>
<path d="M89.5663 173.381C93.0785 175.544 96.5051 177.654 99.9423 179.763C100.606 180.17 101.27 180.652 101.998 180.855C103.604 181.305 104.247 182.44 104.814 183.886C106.217 187.441 107.802 190.921 110.061 194.037C111.475 195.986 112.599 196.093 114.184 194.305C116.004 192.238 117.793 190.128 119.549 188.008C119.966 187.505 120.288 187.355 120.941 187.601C122.9 188.329 124.903 188.961 126.98 189.668C125.738 191.488 124.485 193.266 123.286 195.075C122.815 195.782 122.408 196.542 122.076 197.324C121.508 198.652 121.979 199.808 123.393 200.226C124.592 200.579 125.856 200.772 127.109 200.858C128.811 200.965 130.535 200.879 132.238 200.879C132.505 204.145 132.752 207.165 133.019 210.377C131.317 210.12 129.668 209.927 128.051 209.596C121.262 208.246 114.901 205.751 109.076 202.014C106.613 200.44 104.911 198.192 104.343 195.183C103.819 192.409 102.769 189.818 100.638 187.869C99.6425 186.959 98.379 186.359 97.276 185.567C96.9441 185.331 96.5265 184.946 96.4836 184.592C96.1089 181.337 94.4491 178.96 91.6115 177.45C90.4658 176.84 89.9304 176.005 89.7911 174.795C89.7269 174.302 89.6305 173.842 89.5663 173.381Z" fill="#FAE384"/>
<path d="M163.302 194.925C161.117 193.501 159.971 191.274 158.601 189.143C159.875 188.779 161.085 188.436 162.295 188.061C163.323 187.74 163.826 186.99 163.537 186.166C163.194 185.181 162.445 185.138 161.535 185.363C158.483 186.112 155.442 186.926 152.358 187.494C150.538 187.826 148.642 187.761 146.79 187.836C146.554 187.847 146.201 187.644 146.105 187.44C145.398 186.059 144.734 184.656 144.049 183.232C146.736 182.9 149.36 182.622 151.962 182.258C159.554 181.187 166.814 178.959 173.731 175.661C179.813 172.76 185.36 169.055 190.125 164.268C191.903 162.48 193.519 160.51 195.104 158.539C195.533 158.004 195.608 157.19 195.875 156.408C196.464 156.719 197.246 157.126 198.135 157.586C197.867 158.186 197.642 158.711 197.396 159.235C196.561 160.959 196.743 162.501 198.028 163.968C199.387 165.521 199.441 165.682 197.92 167.052C196.164 168.637 194.312 170.168 192.31 171.421C186.484 175.051 180.327 178.039 173.72 179.987C171.772 180.566 170.658 181.744 169.748 183.5C167.831 187.215 165.722 190.835 163.687 194.486C163.612 194.593 163.494 194.7 163.302 194.925Z" fill="#F2CE37"/>
<path d="M58.8344 75.5419C60.5691 74.182 62.2931 72.5651 64.2634 71.3551C67.7649 69.2135 71.4056 67.286 75.0249 65.3479C81.8138 61.7286 86.4396 56.2354 89.3308 49.1788C90.3266 46.7481 91.376 44.3388 92.4575 41.9509C92.6931 41.4262 93.1321 40.334 93.5926 40.5803C94.5242 40.5803 94.642 41.7903 94.6205 42.39C94.5777 44.0069 94.4171 45.6666 93.9781 47.2193C92.9929 50.7529 91.7829 54.2223 89.7484 57.3062C87.5854 60.5828 85.0797 63.5704 82.1243 66.1724C80.0791 67.9714 78.1195 69.8667 76.1707 71.7727C73.3759 74.5139 70.5918 77.2766 67.872 80.0821C65.6554 82.3629 63.985 85.0506 62.6251 87.9204C62.2289 88.7663 62.3895 89.4837 63.0106 90.1476C63.5245 90.7044 63.9957 91.3148 64.499 91.9037C62.2075 92.4284 60.0659 92.921 57.9457 93.4135C61.2437 87.6955 63.5674 81.9132 58.8344 75.5419Z" fill="#D1D1D1"/>
<path d="M148.257 197.11C146.072 197.238 144.07 197.345 142.067 197.463C140.59 197.559 140.065 198.063 139.787 199.53C139.123 202.978 138.437 206.415 137.752 209.852C137.699 210.131 137.559 210.398 137.452 210.72C136.97 210.677 136.531 210.634 135.868 210.559C135.632 207.239 135.354 203.952 135.161 200.665C135.064 198.898 134.925 198.523 133.191 198.341C130.856 198.105 128.511 198.073 126.166 197.945C125.802 197.923 125.449 197.838 124.892 197.752C125.931 196.178 126.905 194.743 127.826 193.276C129.807 190.107 131.756 186.905 133.747 183.735C133.94 183.425 134.39 183.082 134.722 183.082C136.478 183.061 138.223 183.168 139.979 183.157C140.75 183.157 141.243 183.403 141.564 184.099C142.185 185.449 142.796 186.787 143.481 188.104C144.734 190.492 146.04 192.859 147.325 195.236C147.593 195.803 147.871 196.371 148.257 197.11Z" fill="url(#paint9_linear_72_3)"/>
<path d="M89.2451 169.119C91.0226 167.963 92.7145 166.87 94.4171 165.757C105.318 177.482 120.106 181.519 131.295 182.761C130.407 184.185 129.582 185.556 128.704 186.884C128.608 187.023 128.158 187.034 127.933 186.959C124.656 185.845 121.391 184.699 118.125 183.564C118.028 183.532 117.943 183.425 117.846 183.371C116.904 182.89 116.079 183.05 115.715 183.789C115.373 184.485 115.854 185.449 116.743 185.834C117.011 185.952 117.289 186.048 117.739 186.231C115.929 188.319 114.184 190.332 112.224 192.591C111.025 190.3 109.858 188.265 108.873 186.134C108.102 184.474 107.459 182.729 106.903 180.973C106.603 180.031 106.121 179.474 105.232 179.067C100.017 176.711 95.1238 173.799 90.5836 170.286C90.1446 169.954 89.7484 169.569 89.2451 169.119Z" fill="#F2CE37"/>
<path d="M106.731 132.905C112.963 138.152 119.688 137.895 126.509 134.832C134.112 131.427 139.455 125.634 142.967 118.117C143.117 117.785 143.288 117.464 143.513 117.164C142.999 120.698 141.918 124.06 140.365 127.251C137.977 132.166 134.786 136.492 130.353 139.769C126.605 142.542 122.472 144.287 117.696 143.677C114.195 143.238 111.4 141.439 109.376 138.591C108.38 137.188 107.738 135.55 106.956 133.997C106.806 133.697 106.806 133.322 106.731 132.905Z" fill="white"/>
<path d="M148.482 140.475C150.184 141.128 151.737 141.91 153.386 142.317C158.012 143.473 162.391 142.488 166.45 140.186C174.727 135.496 179.621 128.193 182.105 119.177C182.672 117.132 182.887 114.99 183.401 112.849C183.454 114.54 183.615 116.243 183.55 117.924C183.293 125.698 180.938 132.776 176.237 138.998C173.41 142.735 169.973 145.744 165.433 147.296C159.008 149.502 152.979 147.446 149.242 141.75C148.996 141.364 148.76 140.946 148.482 140.475Z" fill="white"/>
<path d="M213.147 99.9346C210.749 100.192 208.532 100.417 206.315 100.674C204.988 100.823 204.506 101.37 204.581 102.772C204.72 105.374 204.934 107.976 205.127 110.578C205.17 111.199 205.213 111.821 205.266 112.506C204.42 112.613 203.692 112.699 202.846 112.806C202.675 110.728 202.514 108.737 202.354 106.745C202.268 105.588 202.193 104.443 202.118 103.286C202.022 101.766 201.347 101.252 199.762 101.38C197.01 101.605 194.258 101.787 191.506 101.98C191.292 101.991 191.078 101.98 190.693 101.98C194.205 95.4052 197.653 88.9482 201.208 82.2986C205.234 88.2308 209.164 94.0345 213.147 99.9346ZM200.083 89.4087C200.062 89.4087 200.041 89.4087 200.019 89.4194C200.33 92.2677 200.651 95.1053 200.94 97.9537C201.036 98.8853 201.379 99.5813 202.418 99.517C203.456 99.4635 203.767 98.7354 203.681 97.793C203.381 94.6877 203.092 91.5717 202.76 88.4664C202.675 87.6419 202.214 87.0744 201.293 87.1172C200.34 87.16 200.041 87.8025 200.019 88.6377C199.987 88.8947 200.051 89.1517 200.083 89.4087Z" fill="#D1D1D1"/>
<path d="M58.813 154.428C58.5774 157.019 58.1276 159.653 55.9968 161.677C54.2621 163.326 51.7992 163.401 49.9574 161.837C47.6124 159.856 46.5202 157.222 46.0812 154.31C45.6743 151.622 45.942 148.956 47.259 146.525C48.3941 144.416 50.0217 143.034 52.6344 143.484C54.1871 143.752 55.2686 144.78 56.1681 145.968C58.0313 148.42 58.6952 151.269 58.813 154.428ZM57.3353 153.41C57.3353 151.408 56.4679 149.737 55.2151 148.281C53.8016 146.643 51.7028 146 50.1395 146.675C49.3364 147.018 48.8974 147.628 49.1758 148.549C49.4542 149.47 50.1716 149.491 50.889 149.213C51.7136 148.881 52.3667 149.138 52.9236 149.695C53.9515 150.712 54.6261 151.922 54.6797 153.421C54.7546 155.766 53.7052 156.965 51.3923 157.394C50.9212 157.479 50.3001 158.09 50.193 158.561C50.0003 159.428 50.7177 159.942 51.4994 160.06C52.9664 160.274 54.3049 159.867 55.3543 158.796C56.7891 157.297 57.3353 155.445 57.3353 153.41Z" fill="#D1D1D1"/>
<path d="M58.5773 82.8768C58.1168 88.3807 56.0502 93.0065 50.9103 95.6621C47.7943 97.279 45.1066 95.6407 44.6997 92.1499C44.2178 88.038 45.6527 84.5258 48.0299 81.3027C49.4648 79.3646 51.2744 78.0261 53.6087 77.2979C55.6111 76.6769 57.6457 78.0689 58.1596 79.8143C58.2988 80.2747 58.4916 80.7245 58.5558 81.1956C58.6308 81.7525 58.5773 82.3093 58.5773 82.8768ZM55.6968 85.2004C55.6968 84.7935 55.7182 84.3759 55.6968 83.969C55.5362 81.8488 53.9942 80.1998 52.3024 80.4996C51.8205 80.5853 51.1995 81.1314 51.0388 81.6025C50.7925 82.3521 51.3494 82.7697 52.1096 82.9732C52.4523 83.0695 52.8806 83.4336 52.9663 83.7656C53.491 85.8322 52.9449 87.674 51.5207 89.2159C50.6426 90.1689 49.8395 90.1261 48.9615 89.2159C48.3404 88.5734 47.6872 88.2843 46.9055 88.8947C46.2952 89.3658 46.3273 90.3617 46.927 91.0898C48.4368 92.953 50.482 93.2635 52.4523 91.8929C54.7652 90.276 55.7182 87.9631 55.6968 85.2004Z" fill="#D1D1D1"/>
<path d="M74.9929 191.809C78.0875 194.883 81.0001 197.891 83.2059 201.714C81.1393 202.228 79.2011 202.646 77.2951 203.192C74.3504 204.038 71.4485 205.034 68.4931 205.848C67.5508 206.105 66.116 206.533 65.4949 206.04C65.1951 205.398 65.4521 204.113 65.709 203.235C66.7477 199.658 68.9964 196.874 71.7376 194.454C72.7549 193.544 73.8578 192.72 74.9929 191.809Z" fill="url(#paint10_linear_72_3)"/>
<path d="M205.041 141.161C205.834 141.278 206.583 141.386 207.526 141.525C208.382 154.385 209.25 167.47 210.117 180.62C209.517 180.695 208.918 180.77 208.211 180.855C207.151 167.599 206.091 154.364 205.041 141.161Z" fill="#D1D1D1"/>
<path d="M211.07 152.918C210.834 148.903 210.759 145.069 210.32 141.257C210.16 139.865 210.684 139.372 211.627 138.773C212.28 138.355 212.826 137.788 213.608 137.113C215.203 138.794 216.863 140.433 218.362 142.21C218.715 142.628 218.662 143.549 218.512 144.18C217.752 147.489 215.824 149.952 212.912 151.687C212.312 152.029 211.766 152.447 211.07 152.918Z" fill="url(#paint11_linear_72_3)"/>
<path d="M218.202 175.822C216.478 177.557 214.786 179.259 212.955 181.101C212.601 175.801 212.259 170.639 211.927 165.468C211.991 165.435 212.066 165.414 212.13 165.382C214.154 168.873 216.188 172.363 218.202 175.822Z" fill="#D1D1D1"/>
<path d="M204.27 166.774C204.656 171.678 205.052 176.572 205.459 181.765C203.456 180.384 201.615 179.131 199.773 177.867C201.261 174.034 202.685 170.372 204.11 166.71C204.174 166.72 204.227 166.753 204.27 166.774Z" fill="#D1D1D1"/>
<path d="M72.8512 189.86C70.6239 191.392 69.0177 193.619 65.9873 193.897C65.5055 193.908 65.8267 192.345 66.0195 191.659C66.587 189.721 67.6364 188.029 68.9642 186.509C70.2705 187.644 71.5127 188.704 72.8512 189.86Z" fill="url(#paint12_linear_72_3)"/>
<path d="M206.808 186.648C206.819 184.592 207.718 183.554 209.464 183.586C210.663 183.607 211.487 184.539 211.498 185.899C211.52 187.526 210.17 189.132 208.746 189.165C207.611 189.197 206.797 188.137 206.808 186.648Z" fill="#D1D1D1"/>
<path d="M93.7745 184.603C92.2325 184.464 90.7655 184.335 89.2021 184.196V179.26C91.6007 179.977 93.903 182.525 93.7745 184.603Z" fill="#C05D48"/>
<path d="M200.084 89.4088C200.051 89.1518 199.998 88.8948 200.009 88.6378C200.041 87.8026 200.341 87.1708 201.283 87.1173C202.214 87.0744 202.664 87.6419 202.75 88.4665C203.082 91.5718 203.371 94.6771 203.671 97.7931C203.767 98.7354 203.457 99.4636 202.407 99.5171C201.369 99.5706 201.026 98.8853 200.929 97.9537C200.64 95.1054 200.319 92.2678 200.009 89.4195C200.041 89.4195 200.062 89.4088 200.084 89.4088Z" fill="#564341"/>
<path d="M57.3353 153.411C57.3353 155.445 56.7892 157.298 55.3329 158.786C54.2835 159.857 52.9343 160.264 51.478 160.049C50.6963 159.932 49.9789 159.428 50.1716 158.55C50.2787 158.079 50.8998 157.469 51.3709 157.383C53.6838 156.955 54.7439 155.756 54.6583 153.411C54.6047 151.911 53.9301 150.701 52.9022 149.684C52.3454 149.138 51.7029 148.881 50.8677 149.202C50.1609 149.481 49.4435 149.47 49.1544 148.538C48.876 147.628 49.315 147.007 50.1181 146.664C51.6922 145.99 53.7909 146.632 55.1937 148.271C56.4679 149.738 57.3353 151.397 57.3353 153.411Z" fill="#564341"/>
<path d="M55.697 85.2007C55.7184 87.9634 54.7761 90.2763 52.4525 91.9039C50.4822 93.2746 48.4477 92.964 46.9271 91.1008C46.3275 90.362 46.3061 89.3769 46.9057 88.9057C47.6874 88.2954 48.3513 88.5845 48.9617 89.2269C49.8397 90.1371 50.6428 90.18 51.5209 89.2269C52.945 87.685 53.5018 85.8432 52.9664 83.7766C52.8808 83.4553 52.4525 83.0806 52.1098 82.9842C51.3495 82.7807 50.782 82.3631 51.039 81.6136C51.1996 81.1424 51.81 80.5963 52.3026 80.5106C53.9944 80.2108 55.5364 81.8599 55.697 83.98C55.7184 84.3762 55.697 84.7831 55.697 85.2007Z" fill="#564341"/>
<path d="M130.557 105.535C130.953 111.028 129.304 116.136 124.26 120.601C123.157 121.575 121.83 122.357 120.255 122.828C118.125 123.471 116.293 123.203 114.773 122.079C113.317 120.997 112.567 119.584 112.278 118.031C111.229 112.42 113.049 107.227 117.889 102.526C119.26 101.187 121.005 100.159 123.125 99.7204C125.481 99.2278 127.537 99.9667 128.886 101.659C129.807 102.826 130.31 104.132 130.557 105.535Z" fill="white"/>
<path d="M170.594 110.739C170.99 116.232 169.341 121.34 164.297 125.805C163.195 126.779 161.867 127.561 160.293 128.032C158.162 128.675 156.331 128.407 154.81 127.283C153.354 126.201 152.604 124.788 152.315 123.235C151.266 117.624 153.086 112.431 157.926 107.73C159.297 106.391 161.042 105.364 163.162 104.924C165.518 104.432 167.574 105.171 168.923 106.863C169.844 108.03 170.337 109.325 170.594 110.739Z" fill="white"/>
<path d="M131.274 152.329C131.317 151.772 131.317 151.205 131.413 150.659C131.509 150.113 131.895 149.909 132.43 150.091C136.232 151.344 140.151 151.986 144.113 152.372C144.755 152.436 145.109 152.918 144.83 153.368C144.702 153.571 144.37 153.764 144.134 153.764C143.738 153.764 143.524 153.85 143.245 154.182C142.068 155.542 140.665 156.634 138.887 157.126C135.461 158.069 131.949 155.831 131.274 152.329Z" fill="#5D3E3D"/>
<path d="M133.64 152.158C133.64 152.201 133.63 152.286 133.651 152.372C133.683 152.522 133.705 152.682 133.758 152.822C134.315 154.299 135.322 155.284 136.917 155.466C138.609 155.659 139.862 154.738 140.986 153.635C138.534 153.154 136.103 152.661 133.64 152.158Z" fill="white"/>
<path d="M185.82 141.321C184.536 139.522 182.951 137.927 181.462 136.192C178.828 140.957 175.701 144.587 171.879 147.189C174.481 154.235 181.259 159.257 189.204 159.257C189.782 159.257 190.361 159.225 190.928 159.171C191.389 158.614 191.828 158.047 192.267 157.469C192.459 157.201 192.577 156.741 192.502 156.419C191.292 150.926 189.076 145.872 185.82 141.321Z" fill="#F28773"/>
<path d="M116.604 146.376C114.88 146.033 113.177 145.369 111.507 144.352C110.072 143.474 108.851 142.242 107.556 141.193C107.192 146.911 105.735 151.804 103.048 156.205C109.151 155.67 114.291 151.772 116.604 146.376Z" fill="#F28773"/>
<path d="M56.9642 122.797C58.7626 121.335 59.2951 119.011 58.1534 117.607C57.0117 116.203 54.6282 116.251 52.8297 117.713C51.0312 119.176 50.4988 121.5 51.6405 122.904C52.7822 124.308 55.1657 124.26 56.9642 122.797Z" fill="#FCFAF9"/>
<path d="M68.4144 111.621C72.7128 109.312 74.8112 104.86 73.1013 101.676C71.3915 98.493 66.5209 97.7839 62.2225 100.093C57.9242 102.401 55.8258 106.854 57.5357 110.037C59.2455 113.22 64.1161 113.929 68.4144 111.621Z" fill="#FCFAF9"/>
<path d="M212.62 124.775C213.315 122.619 211.632 120.148 208.863 119.257C206.093 118.365 203.285 119.39 202.591 121.546C201.896 123.702 203.579 126.173 206.349 127.064C209.118 127.956 211.926 126.931 212.62 124.775Z" fill="#FCFAF9"/>
<path d="M194.323 129.907C197.214 123.225 200.576 118.642 203.681 115.526C201.668 115.719 199.687 116.179 197.728 116.907C194.205 118.214 191.292 120.569 189.119 123.76C187.073 126.759 185.788 129.982 185.863 133.633C185.885 134.95 186.013 136.342 186.506 137.531C187.041 138.826 188.058 139.929 188.883 141.107C190.875 143.988 192.427 147.093 193.712 150.348C193.991 151.055 194.644 151.633 195.211 152.179C195.661 152.608 196.218 152.94 196.764 153.239C198.766 154.332 200.865 155.049 203.167 154.867C203.167 154.439 203.178 154.043 203.178 153.668C197.664 150.509 188.647 143.024 194.323 129.907Z" fill="url(#paint13_linear_72_3)"/>
<path d="M47.3446 111.349C51.3173 103.618 55.7504 100.17 60.7832 95.6514C51.4458 98.3498 42.9008 104.496 37.5682 112.741C31.3255 122.4 29.2267 133.012 31.7645 144.287C34.1738 155.027 40.2238 163.24 50.0109 168.476C50.6748 168.83 51.3601 169.151 52.0669 169.451C43.3506 163.733 30.0726 144.94 47.3446 111.349Z" fill="url(#paint14_linear_72_3)"/>
<path d="M79.4794 120.666C79.6828 120.826 79.7685 120.891 79.8542 120.955C83.9232 124.306 84.2444 129.5 80.4431 132.691C78.4193 134.383 75.8601 135.132 73.3223 135.593C70.0778 136.192 66.7797 136.513 63.2782 136.985C63.3317 137.595 63.4067 138.205 63.4817 138.826C69.0605 138.784 76.7917 138.419 81.5996 136.963C89.8019 134.468 84.6835 125.099 84.6835 125.099C84.6835 125.099 85.1011 125.056 87.0928 124.767C87.1035 123.739 87.1142 122.711 87.1249 121.694C87.1356 120.816 87.1249 119.937 87.1249 119.017C84.48 119.573 82.0279 120.109 79.4794 120.666Z" fill="#F28773"/>
<path d="M99.2999 122.368C98.0792 120.419 96.655 118.588 95.0809 116.864C94.8668 116.628 94.4063 116.371 94.1922 116.457C92.7145 117.014 91.2796 117.667 90.0053 118.202C89.9839 120.248 89.9518 122.293 89.9197 124.338C90.2945 124.285 90.7014 124.22 91.1297 124.156C93.4319 123.824 96.5051 123.107 99.2999 122.368Z" fill="#F28773"/>
<path d="M189.397 190.117C186.848 190.985 184.889 193.48 184.461 195.439C184.193 196.66 184.707 197.517 185.96 197.709C187.652 197.966 189.365 198.127 191.078 198.33C188.669 195.825 188.904 192.323 189.397 190.117Z" fill="#C05D48"/>
<path d="M193.787 185.449C193.338 184.046 193.305 182.9 193.37 182.14C193.252 182.119 193.134 182.087 193.027 182.054C192.802 182.001 192.363 182.215 192.245 182.429C191.474 183.811 190.778 185.235 190.018 186.702C191.603 186.509 193.059 186.648 194.451 187.002C194.183 186.477 193.948 185.941 193.787 185.449Z" fill="#C05D48"/>
<path d="M197.342 180.769C196.871 179.806 196.464 178.831 196.272 178.007C195.982 176.775 196.014 175.523 196.122 174.548C195.843 174.355 195.543 174.163 195.244 173.948C194.655 175.855 194.108 177.632 193.562 179.431C194.987 179.656 196.218 180.127 197.342 180.769Z" fill="#C05D48"/>
<path d="M93.2926 187.408C93.9672 189.304 94.8881 193.576 91.9648 198.362C92.3825 199.273 93.0571 199.562 94.3206 199.348C96.6228 198.962 98.9679 198.909 101.366 198.716C102.105 195.097 100.831 192.066 98.4325 189.657C96.9655 188.179 95.188 187.633 93.2926 187.408Z" fill="#C05D48"/>
<path d="M85.7863 178.028C85.5186 179.013 84.7905 181.198 83.2057 183.082C82.8737 183.479 82.5097 183.918 82.1349 184.389C83.9445 185.942 86.3217 184.603 86.3431 183.853C86.386 181.958 86.3645 180.074 86.3645 178.071C86.1825 178.06 85.9791 178.039 85.7863 178.028Z" fill="#C05D48"/>
<path d="M85.8613 173.745C85.0368 173.252 84.0945 172.738 83.1736 172.663C82.7774 172.631 82.3919 172.631 82.0065 172.642C81.9957 173.424 81.9315 174.494 81.6959 175.512C83.2272 175.276 84.8227 175.276 86.5895 175.148C86.3432 174.634 86.2361 173.97 85.8613 173.745Z" fill="#C05D48"/>
<defs>
<linearGradient id="paint0_linear_72_3" x1="193.564" y1="179.709" x2="202.826" y2="179.709" gradientUnits="userSpaceOnUse">
<stop offset="0.03" stop-color="#F2876D"/>
<stop offset="0.43" stop-color="#F28A6A"/>
<stop offset="0.75" stop-color="#F29463"/>
<stop offset="1" stop-color="#FBCE65"/>
</linearGradient>
<linearGradient id="paint1_linear_72_3" x1="190.018" y1="186.414" x2="202.354" y2="186.414" gradientUnits="userSpaceOnUse">
<stop offset="0.03" stop-color="#F2876D"/>
<stop offset="0.43" stop-color="#F28A6A"/>
<stop offset="0.75" stop-color="#F29463"/>
<stop offset="1" stop-color="#FBCE65"/>
</linearGradient>
<linearGradient id="paint2_linear_72_3" x1="184.388" y1="195.229" x2="206.993" y2="195.229" gradientUnits="userSpaceOnUse">
<stop offset="0.03" stop-color="#F2876D"/>
<stop offset="0.43" stop-color="#F28A6A"/>
<stop offset="0.75" stop-color="#F29463"/>
<stop offset="1" stop-color="#FBCE65"/>
</linearGradient>
<linearGradient id="paint3_linear_72_3" x1="30.7172" y1="132.727" x2="97.8535" y2="132.727" gradientUnits="userSpaceOnUse">
<stop offset="0.03" stop-color="#FFBC9A"/>
<stop offset="0.33" stop-color="#FEBC96"/>
<stop offset="0.57" stop-color="#FDBF8C"/>
<stop offset="0.79" stop-color="#FCC47C"/>
<stop offset="0.96" stop-color="#FBCA69"/>
</linearGradient>
<linearGradient id="paint4_linear_72_3" x1="185.861" y1="135.158" x2="225.247" y2="135.158" gradientUnits="userSpaceOnUse">
<stop offset="0.03" stop-color="#FFBC9C"/>
<stop offset="0.33" stop-color="#FEBC98"/>
<stop offset="0.56" stop-color="#FDBF8E"/>
<stop offset="0.78" stop-color="#FCC47E"/>
<stop offset="0.96" stop-color="#FBCA69"/>
</linearGradient>
<linearGradient id="paint5_linear_72_3" x1="96.7299" y1="154.885" x2="192.525" y2="154.885" gradientUnits="userSpaceOnUse">
<stop offset="0.03" stop-color="#FAB790"/>
<stop offset="0.49" stop-color="#FAB48E"/>
<stop offset="0.73" stop-color="#FBAC89"/>
<stop offset="0.91" stop-color="#FC9F81"/>
<stop offset="0.93" stop-color="#FD9E80"/>
</linearGradient>
<linearGradient id="paint6_linear_72_3" x1="112.695" y1="102.356" x2="135.261" y2="124.922" gradientUnits="userSpaceOnUse">
<stop stop-color="#564341"/>
<stop offset="0.67" stop-color="#5D3E3D"/>
<stop offset="0.75" stop-color="#654341"/>
<stop offset="0.88" stop-color="#7D534C"/>
<stop offset="0.91" stop-color="#855850"/>
</linearGradient>
<linearGradient id="paint7_linear_72_3" x1="151.42" y1="107.053" x2="174.366" y2="129.999" gradientUnits="userSpaceOnUse">
<stop stop-color="#564341"/>
<stop offset="0.67" stop-color="#5D3E3D"/>
<stop offset="0.75" stop-color="#654341"/>
<stop offset="0.88" stop-color="#7D534C"/>
<stop offset="0.91" stop-color="#855850"/>
</linearGradient>
<linearGradient id="paint8_linear_72_3" x1="149.41" y1="49.5002" x2="149.41" y2="109.08" gradientUnits="userSpaceOnUse">
<stop offset="0.03" stop-color="#FFE668"/>
<stop offset="0.21" stop-color="#FEE267"/>
<stop offset="0.35" stop-color="#FCD866"/>
<stop offset="0.44" stop-color="#FBCE65"/>
<stop offset="1" stop-color="#FDAD60"/>
</linearGradient>
<linearGradient id="paint9_linear_72_3" x1="124.868" y1="196.899" x2="148.233" y2="196.899" gradientUnits="userSpaceOnUse">
<stop offset="0.03" stop-color="#FDDA22"/>
<stop offset="0.15" stop-color="#FCD925"/>
<stop offset="0.24" stop-color="#FCD72F"/>
<stop offset="0.33" stop-color="#FCD43F"/>
<stop offset="0.41" stop-color="#FBD057"/>
<stop offset="0.44" stop-color="#FBCE65"/>
<stop offset="1" stop-color="#FDAD60"/>
</linearGradient>
<linearGradient id="paint10_linear_72_3" x1="65.3599" y1="199.038" x2="83.2059" y2="199.038" gradientUnits="userSpaceOnUse">
<stop stop-color="#F4A15C"/>
<stop offset="0.42" stop-color="#F39464"/>
<stop offset="1" stop-color="#FBCE65"/>
</linearGradient>
<linearGradient id="paint11_linear_72_3" x1="210.292" y1="145.016" x2="218.627" y2="145.016" gradientUnits="userSpaceOnUse">
<stop offset="0.03" stop-color="#FFBC9C"/>
<stop offset="0.33" stop-color="#FEBC98"/>
<stop offset="0.56" stop-color="#FDBF8E"/>
<stop offset="0.78" stop-color="#FCC47E"/>
<stop offset="0.96" stop-color="#FBCA69"/>
</linearGradient>
<linearGradient id="paint12_linear_72_3" x1="65.7347" y1="190.203" x2="72.8512" y2="190.203" gradientUnits="userSpaceOnUse">
<stop stop-color="#F4A15C"/>
<stop offset="0.42" stop-color="#F39464"/>
<stop offset="1" stop-color="#FBCE65"/>
</linearGradient>
<linearGradient id="paint13_linear_72_3" x1="194.771" y1="115.526" x2="194.771" y2="154.895" gradientUnits="userSpaceOnUse">
<stop stop-color="#FFBD9A"/>
<stop offset="0.16" stop-color="#FDB997"/>
<stop offset="0.29" stop-color="#F8AE8F"/>
<stop offset="0.42" stop-color="#F19D81"/>
<stop offset="0.54" stop-color="#E6846E"/>
<stop offset="0.55" stop-color="#E6836E"/>
</linearGradient>
<linearGradient id="paint14_linear_72_3" x1="45.7478" y1="95.6514" x2="45.7478" y2="169.451" gradientUnits="userSpaceOnUse">
<stop stop-color="#FFBD9A"/>
<stop offset="0.2" stop-color="#FDB997"/>
<stop offset="0.37" stop-color="#F8AE8F"/>
<stop offset="0.53" stop-color="#F19D81"/>
<stop offset="0.69" stop-color="#E6846E"/>
<stop offset="0.7" stop-color="#E6836E"/>
</linearGradient>
</defs>
</svg>
