<svg width="256" height="256" viewBox="0 0 256 256" fill="none" xmlns="http://www.w3.org/2000/svg">
<rect width="256" height="256" fill="#232932"/>
<path d="M194.333 28L137.104 48.5L92.0001 28L77.1459 65.4167H67.5417V175.875L206.438 177.083L228 67.0833L194.333 28Z" fill="url(#paint0_linear_115_82)"/>
<path d="M192.625 99.7712L101.229 45.6045L192.625 152.73V99.7712Z" fill="url(#paint1_linear_115_82)"/>
<path d="M111.25 222.792L186 212.834L174.396 190.521H192.625V152.73L101.208 45.438L28 63.4172L28.0833 168.417L70.1667 228.001L111.021 222.813L111.208 222.792H111.25Z" fill="url(#paint2_linear_115_82)"/>
<path d="M67.5833 65.5H192.583V190.5H67.5833V65.5Z" fill="black"/>
<path d="M83.1667 166.876H130.042V174.688H83.1667V166.876ZM129.479 81.063H140.625L152.979 100.938L165.333 81.063H176.479V128.042H166.208V97.3755L152.979 117.438H152.708L139.625 97.5838V128.042H129.479V81.063ZM83.2084 81.1255H104.667C110.611 81.1255 115.167 82.7088 118.333 85.8755C119.693 87.2998 120.751 88.9847 121.442 90.8287C122.133 92.6726 122.443 94.6375 122.354 96.6047V96.7505C122.507 100.069 121.522 103.339 119.563 106.021C117.687 108.431 115.166 110.259 112.292 111.292L123.771 127.959H111.688L101.958 113.563H93.4376V127.98H83.2084V81.1255ZM104.042 103.855C106.132 103.947 108.184 103.273 109.813 101.959C110.49 101.353 111.028 100.607 111.388 99.7722C111.748 98.9374 111.921 98.0342 111.896 97.1255V97.0005C111.974 96.0582 111.825 95.111 111.463 94.2377C111.1 93.3644 110.535 92.5902 109.813 91.9797C108.073 90.763 105.974 90.1685 103.854 90.2922H93.4793V103.771L104.042 103.855Z" fill="white"/>
<defs>
<linearGradient id="paint0_linear_115_82" x1="156.229" y1="143.688" x2="130.938" y2="77.3333" gradientUnits="userSpaceOnUse">
<stop stop-color="#FE2857"/>
<stop offset="0.06" stop-color="#FE3052"/>
<stop offset="0.33" stop-color="#FD533B"/>
<stop offset="0.58" stop-color="#FC6C2A"/>
<stop offset="0.81" stop-color="#FC7B20"/>
<stop offset="1" stop-color="#FC801D"/>
</linearGradient>
<linearGradient id="paint1_linear_115_82" x1="108.062" y1="48.7295" x2="147.104" y2="84.5212" gradientUnits="userSpaceOnUse">
<stop stop-color="#6B57FF"/>
<stop offset="1" stop-color="#FE2857"/>
</linearGradient>
<linearGradient id="paint2_linear_115_82" x1="28.875" y1="60.0422" x2="157.438" y2="223.459" gradientUnits="userSpaceOnUse">
<stop stop-color="#6B57FF"/>
<stop offset="0.3" stop-color="#FE2857"/>
<stop offset="0.63" stop-color="#FE2857"/>
<stop offset="0.64" stop-color="#FE3052"/>
<stop offset="0.7" stop-color="#FD533B"/>
<stop offset="0.76" stop-color="#FC6C2A"/>
<stop offset="0.81" stop-color="#FC7B20"/>
<stop offset="0.85" stop-color="#FC801D"/>
</linearGradient>
</defs>
</svg>
