<svg width="256" height="256" viewBox="0 0 256 256" fill="none" xmlns="http://www.w3.org/2000/svg">
<rect width="256" height="256" fill="#242932"/>
<g clip-path="url(#clip0_1_2)">
<path d="M126.375 28.3782C126.012 28.5892 124.495 30.7657 123 33.2173C119.25 39.3735 119.209 39.3767 114.172 34.0767C110.894 30.6267 110.102 29.9954 109.047 30.0032C108.359 30.0063 107.492 30.2407 107.117 30.522C106.742 30.8032 105.686 33.0407 104.767 35.4954C102.664 41.1204 102.564 41.3001 101.398 41.5267C100.68 41.661 99.3 40.8907 95.9875 38.5126C93.5422 36.7548 91.1437 35.3173 90.6578 35.3173C88.6406 35.3173 88.0719 36.4204 87.1109 42.1923C85.8922 49.5313 85.9328 49.5063 79.3172 46.5017C76.6453 45.2892 74.1141 44.2985 73.6875 44.2985C73.2609 44.2985 72.45 44.7563 71.8906 45.3173C70.8719 46.336 70.8703 46.3407 71.1484 51.9517L71.4266 57.5688L70.3641 58.1376C69.4234 58.6407 68.775 58.5798 64.6078 57.5938C59.1703 56.3095 58.0203 56.3438 56.9203 57.8282L56.1141 58.911L57.1953 63.5423C57.7891 66.0892 58.3594 68.5423 58.4672 68.9907C58.5719 69.4392 58.3891 70.1563 58.0609 70.5845C57.5172 71.2845 56.9406 71.3501 51.9047 71.272C43.3859 71.1376 42.9031 71.8689 46.4203 79.5532C47.5422 81.9907 48.4594 84.2095 48.4594 84.4751C48.4594 85.8782 47.3391 86.3876 42.5313 87.1735C39.8406 87.611 37.5031 87.9704 37.3344 87.9704C37.1672 87.9704 36.6625 88.3376 36.2141 88.786C34.75 90.2485 35.1656 91.6235 38.4844 96.3079C42.6188 102.144 42.6125 102.167 35.7813 104.778C28.0141 107.75 27.8563 108.481 33.7703 114.091C39.2781 119.316 39.2859 119.239 33.05 123.159C28.325 126.125 28.2531 126.197 28.1328 127.806C27.9875 129.764 28.0219 129.799 33.6609 133.244C39.2391 136.65 39.2391 136.753 33.7656 141.931C27.8781 147.5 28.0594 148.313 35.8328 151.245C42.625 153.808 42.6344 153.839 38.4922 159.674C36.1453 162.981 35.3969 164.361 35.3969 165.381C35.3969 167.292 36.3922 167.78 42.3344 168.778C47.3438 169.622 48.4594 170.117 48.4594 171.499C48.4594 171.783 47.5406 174.017 46.4172 176.463C42.9234 184.072 43.3219 184.705 51.5891 184.705C59.2922 184.705 59.0875 184.47 57.4281 191.414C56.1781 196.649 56.1578 197.652 57.2906 198.781C58.1563 199.65 59.7906 199.553 64.9 198.33C68.8047 197.399 69.4891 197.334 70.3937 197.817L71.425 198.37L71.1484 203.986C70.8703 209.6 70.8719 209.603 71.8906 210.624C72.45 211.186 73.2719 211.642 73.7109 211.642C74.15 211.642 76.6844 210.658 79.3422 209.449C85.9359 206.455 85.8953 206.43 87.1125 213.745C88.0766 219.544 88.6391 220.62 90.6969 220.62C91.2078 220.62 93.5562 219.245 95.9156 217.561C100.062 214.603 101.137 214.139 102.242 214.842C102.527 215.022 103.633 217.452 104.698 220.241C106.266 224.342 106.839 225.413 107.712 225.828C109.372 226.625 110.4 225.984 114.303 221.734C119.016 216.6 119.209 216.625 123.056 222.859C127.306 229.744 128.406 229.728 132.762 222.72C136.516 216.683 136.472 216.686 141.545 221.986C144.916 225.502 145.633 226.064 146.769 226.064C147.494 226.064 148.361 225.791 148.691 225.458C149.025 225.125 150.128 222.667 151.141 219.995C152.155 217.324 153.205 214.995 153.477 214.824C154.55 214.142 155.661 214.62 159.802 217.561C162.239 219.292 164.533 220.624 165.078 220.624C167.103 220.624 167.834 219.186 168.675 213.538C169.394 208.722 169.541 208.259 170.487 207.78C171.419 207.308 171.978 207.467 176.347 209.452C179.005 210.655 181.539 211.642 181.978 211.642C182.417 211.642 183.253 211.17 183.828 210.592L184.878 209.545L184.591 204.158C184.314 199.017 184.341 198.739 185.159 197.997C186.003 197.234 186.091 197.238 190.808 198.316C196.52 199.62 197.586 199.655 198.659 198.581C199.708 197.534 199.697 197.303 198.263 191.253C196.653 184.463 196.437 184.706 204.169 184.706C209.441 184.706 210.028 184.63 210.7 183.889C211.822 182.65 211.555 181.23 209.3 176.422C208.161 174 207.237 171.797 207.245 171.524C207.283 170.095 208.406 169.606 213.597 168.763C216.773 168.249 219.148 167.653 219.58 167.263C221.022 165.961 220.492 164.266 217.2 159.649C213.072 153.863 213.091 153.808 219.698 151.372C227.611 148.456 227.838 147.484 221.916 141.856C216.431 136.645 216.428 136.674 222.436 132.986C229.698 128.528 229.709 127.524 222.564 123.088C216.419 119.275 216.423 119.328 221.931 114.099C227.837 108.484 227.678 107.75 219.908 104.778C213.052 102.155 213.03 102.091 217.197 96.372C219.678 92.9657 220.294 91.836 220.294 90.6689C220.294 88.6282 219.378 88.172 213.363 87.2001C208.338 86.3876 207.231 85.8954 207.231 84.4657C207.231 84.1939 208.15 82.0064 209.273 79.6017C211.47 74.8939 211.78 73.0079 210.536 71.8829C209.867 71.2782 208.973 71.1907 204.181 71.2704C199.169 71.3548 198.528 71.2829 197.833 70.5845C197.073 69.822 197.083 69.7142 198.267 64.7642C199.722 58.7017 199.728 58.5532 198.533 57.4298C197.319 56.2892 196.561 56.3079 190.992 57.6188C186.934 58.5751 186.262 58.6392 185.341 58.1454L184.294 57.5829L184.583 51.986L184.873 46.3923L183.827 45.3454C183.25 44.7673 182.434 44.2985 182.009 44.2985C181.588 44.2985 179.066 45.2985 176.411 46.5188C171.977 48.5595 171.5 48.6954 170.541 48.1938C169.584 47.6938 169.425 47.1985 168.608 42.211C167.666 36.4407 167.081 35.3173 165.033 35.3173C164.547 35.3173 162.138 36.7626 159.68 38.5282C155.642 41.4282 155.102 41.7032 154.095 41.3517C153.262 41.061 152.778 40.4298 152.188 38.8532C151.75 37.6938 150.911 35.4595 150.322 33.8892C149.131 30.7204 148.467 30.011 146.684 30.011C145.689 30.011 144.789 30.7267 141.559 34.0798C136.481 39.3532 136.464 39.3517 132.731 33.2282C131.239 30.7813 129.68 28.597 129.266 28.3751C128.333 27.8751 127.234 27.8751 126.375 28.3782ZM131 46.8126C135.422 49.9595 133.072 57.3595 127.65 57.3595C122.387 57.3595 119.738 51.0204 123.494 47.422C125.616 45.3907 128.655 45.1423 131 46.8126ZM125.442 66.3548C128.341 67.4563 129.53 66.7954 136.148 60.4173L141.12 55.6204L143.225 55.9017C149.827 56.7767 162.955 62.5423 170.498 67.8798C177.43 72.786 186.642 82.7767 190.569 89.6454L191.408 91.1173L187.689 99.4985C185.642 104.108 183.967 108.363 183.967 108.956C183.967 110.328 184.867 112.499 185.733 113.216C186.098 113.52 189.572 115.192 193.45 116.931L200.497 120.095L200.775 121.889C201.134 124.225 201.181 129.963 200.856 131.592L200.602 132.867H196.578C191.911 132.867 192.272 132.45 192.019 138.174C191.834 142.324 190.831 144.617 188.55 146.103C184.836 148.527 178.7 148.088 176.097 145.213C175.698 144.769 174.922 142.549 174.37 140.275C172.761 133.628 170.6 129.9 166.256 126.267C164.884 125.122 163.764 124.052 163.764 123.889C163.764 123.73 165.272 122.459 167.116 121.072C173.831 116.009 177.694 110.116 178.116 104.28C178.927 93.1454 170.056 82.7688 156.862 79.4048C153.734 78.6079 152.398 78.5829 113.7 78.5829C91.7359 78.5829 73.7625 78.4392 73.7625 78.2642C73.7625 77.8532 78.6453 73.1157 81.5203 70.7392C89.4172 64.211 99.6734 59.0751 110.297 56.3329L113.969 55.3798L119.188 60.672C122.061 63.5829 124.875 66.1407 125.442 66.3548ZM59.7188 100.406C62.1234 101.981 63.1094 105.938 61.6875 108.316C59.4922 111.997 53.9281 112.152 51.7297 108.594C48.5328 103.424 54.6906 97.111 59.7188 100.406ZM201.394 100.609C207.684 104.444 202.809 113.88 196.075 110.9C191.58 108.911 191.434 102.766 195.833 100.525C197.667 99.5876 199.775 99.6204 201.395 100.608M78.2547 124.094V147.563H57.5047L56.6828 143.992C55.0641 136.961 54.3828 129.686 54.7906 123.728L55.075 119.542L62.2078 116.344C66.6828 114.339 69.5609 112.809 69.9313 112.242C71.5531 109.767 71.4 108 69.1219 102.972L68.0594 100.625H78.2516V124.094M137.984 101.644C142.427 102.8 144.773 105.152 144.78 108.449C144.783 110.87 143.584 112.386 140.608 113.73C138.502 114.683 138.167 114.706 124.884 114.836L111.312 114.967V101.03H123.472C132.969 101.03 136.147 101.164 137.984 101.644ZM133.4 135.322C135.603 135.934 138.206 137.847 139.541 139.834C140.944 141.924 141.764 144.641 143.708 153.641C145.348 161.25 146.406 163.734 149.364 166.972C153.028 170.981 152.177 170.825 170.48 170.825C179.245 170.825 186.414 170.966 186.414 171.138C186.414 171.445 180.378 178.581 180.117 178.581C180.042 178.581 176.889 177.922 173.111 177.114C162.441 174.836 162.056 175.103 159.608 186.539L158.033 193.886L156.611 194.586C154.239 195.758 146.528 198.167 142.533 198.992C135.927 200.352 128.739 200.808 122.422 200.275C111.652 199.361 97.3906 195.183 96.8328 192.775C96.7156 192.264 95.9969 188.958 95.2422 185.425C94.4844 181.894 93.5641 178.544 93.1953 177.981C91.4297 175.288 89.5734 175.122 81.4031 176.928C78.3094 177.616 75.6094 178.172 75.4031 178.172C75.0156 178.172 69.2734 171.533 69.2734 171.086C69.2734 170.945 82.9109 170.783 99.5797 170.727L129.884 170.624L129.994 159.858C130.072 152.256 129.966 148.925 129.634 148.53C129.269 148.086 127.314 147.97 120.242 147.97H111.312V134.908L121.62 134.909C127.286 134.913 132.589 135.097 133.4 135.322ZM86.7031 184.281C91.5219 187.219 89.2109 194.913 83.5109 194.906C77.6672 194.906 75.5 187.281 80.4797 184.241C82.1281 183.236 85.0234 183.256 86.7031 184.281ZM174.953 184.603C177.316 186.334 178.102 189.936 176.639 192.338C172.795 198.641 163.183 193.63 166.394 186.995C167.972 183.738 172.167 182.561 174.953 184.603Z" fill="white"/>
</g>
<defs>
<clipPath id="clip0_1_2">
<rect width="200" height="200" fill="white" transform="translate(28 28)"/>
</clipPath>
</defs>
</svg>
