<svg width="256" height="256" viewBox="0 0 256 256" fill="none" xmlns="http://www.w3.org/2000/svg">
<rect width="256" height="256" fill="#232932"/>
<path d="M43.8522 150.63C40.0333 138.727 38.9317 126.163 41.1349 113.231C42.0896 107.868 43.5584 102.724 45.1741 97.5075C45.1741 97.5075 55.3088 64.2231 89.6052 49.0137C89.6052 49.0137 101.429 42.7683 119.201 42.3275C119.201 42.3275 116.778 39.9763 115.236 38.9476C106.864 33.3635 94.3788 31.5266 86.8145 39.3885C84.5379 41.7397 82.6284 44.3113 80.4987 46.6625C78.0752 49.3076 75.1376 51.5119 71.7593 52.761C68.8217 53.8631 65.8841 53.6427 62.8731 54.157C59.7886 54.6713 56.6307 55.7735 54.1338 57.7573C51.4165 59.9616 50.3149 62.9006 50.0211 66.2805C49.7274 68.9256 49.8008 71.6442 49.6539 74.2893C49.2867 82.0777 46.7898 84.2819 41.2083 88.617C38.8583 90.3804 36.8754 92.7316 35.4066 95.2298C31.0002 103.018 38.0504 111.1 38.4176 118.962C38.4911 120.579 38.3442 122.195 37.7567 123.738C37.1692 125.428 35.9941 126.53 35.0394 127.926C33.7175 129.763 32.8362 131.967 33.2034 134.245C33.5706 136.523 34.7456 138.654 35.8472 140.638C37.977 144.164 40.6208 147.324 43.4115 150.336C43.5584 150.336 43.7053 150.483 43.8522 150.63Z" fill="#E32286"/>
<path d="M183.975 178.845C200.866 171.498 208.063 158.786 208.063 158.786C223.853 137.258 218.492 114.554 218.492 114.554C208.431 136.45 199.251 142.475 199.251 142.475C224 104.782 199.397 82.0045 199.397 82.0045C209.459 103.459 196.093 129.617 196.093 129.617C184.856 153.276 168.92 161.725 168.92 161.725C186.692 165.032 199.765 153.055 199.765 153.055C174.281 180.608 146.668 179.286 146.668 179.286C158.271 192.291 175.676 191.189 175.676 191.189C152.91 196.553 131.539 188.985 113.987 174.363C110.682 171.644 107.524 168.705 104.587 165.546C104.587 165.546 101.943 162.754 101.429 162.019L101.355 161.946C100.988 175.539 115.162 188.176 115.162 188.176C97.3895 180.829 89.2377 164.885 89.2377 164.885C89.2377 164.885 77.267 144.459 85.9329 121.167C94.5988 97.8752 120.817 92.8789 120.817 92.8789C142.482 103.386 160.842 106.692 160.842 106.692C199.544 113.158 197.341 94.2014 197.341 94.2014C197.708 77.8899 173.106 60.5497 173.106 60.5497C129.262 28.0001 89.6049 49.014 89.6049 49.014C55.3084 64.2235 45.1737 97.5078 45.1737 97.5078C43.5581 102.725 42.0893 107.868 41.1345 113.232C37.3891 135.054 43.044 155.7 55.3084 174.069C74.4028 202.578 105.394 212.423 105.394 212.423C151.294 228 182.653 205.076 182.653 205.076C211.515 185.237 217.317 162.313 217.317 162.313C194.036 180.535 183.975 178.845 183.975 178.845ZM148.136 71.6445C150.34 71.6445 152.102 73.4079 152.102 75.6121C152.102 77.8164 150.34 79.5798 148.136 79.5798C145.933 79.5798 144.171 77.8164 144.171 75.6121C144.171 73.4079 145.933 71.6445 148.136 71.6445Z" fill="url(#paint0_linear_99_433)"/>
<path d="M197.268 94.1279C197.635 77.8164 173.033 60.4762 173.033 60.4762C129.189 28.0001 89.5318 49.014 89.5318 49.014C55.2353 64.2234 45.1006 97.5078 45.1006 97.5078C43.1177 103.165 41.3552 111.835 41.3552 111.835C39.2254 122.71 40.1801 132.776 40.1801 132.776C41.0614 142.401 43.1912 148.867 43.1912 148.867C45.3944 155.774 46.4225 157.905 46.4225 157.905C46.3491 157.684 45.9819 156.068 45.9819 156.068C45.9819 156.068 42.8974 141.226 45.7616 126.971C45.7616 126.971 48.2585 112.129 58.3932 100.667C58.3932 100.667 74.8438 77.2286 105.468 86.413C105.468 86.413 112.078 88.7642 114.354 89.9398C116.631 91.042 120.597 92.7319 120.597 92.7319C142.262 103.239 160.622 106.545 160.622 106.545C199.471 113.085 197.268 94.1279 197.268 94.1279ZM148.137 79.6533C145.934 79.6533 144.171 77.8899 144.171 75.6856C144.171 73.4813 145.934 71.7179 148.137 71.7179C150.34 71.7179 152.103 73.4813 152.103 75.6856C152.103 77.8899 150.34 79.6533 148.137 79.6533Z" fill="url(#paint1_radial_99_433)"/>
<path d="M123.02 64.5908L97.977 56.8024C97.8301 56.8024 97.0957 56.4351 95.7738 56.8024C95.7738 56.8024 81.0124 60.5497 83.5828 68.632C83.5828 68.632 85.125 73.7018 89.3111 78.6246L116.851 77.3021L123.02 64.5908Z" fill="url(#paint2_linear_99_433)"/>
<defs>
<linearGradient id="paint0_linear_99_433" x1="61.401" y1="203.827" x2="152.834" y2="106.606" gradientUnits="userSpaceOnUse">
<stop stop-color="#E01D84"/>
<stop offset="0.401" stop-color="#DF1D85"/>
<stop offset="0.77" stop-color="#932C87"/>
<stop offset="1" stop-color="#5D2F88"/>
</linearGradient>
<radialGradient id="paint1_radial_99_433" cx="0" cy="0" r="1" gradientUnits="userSpaceOnUse" gradientTransform="translate(161.984 80.7579) rotate(0.137003) scale(89.2899 74.7003)">
<stop stop-color="#E01D84"/>
<stop offset="0.139" stop-color="#DE1E85"/>
<stop offset="0.285" stop-color="#D62085"/>
<stop offset="0.434" stop-color="#C92386"/>
<stop offset="0.586" stop-color="#B72786"/>
<stop offset="0.739" stop-color="#9D2B87"/>
<stop offset="0.891" stop-color="#7C2E88"/>
<stop offset="1" stop-color="#5D2F88"/>
</radialGradient>
<linearGradient id="paint2_linear_99_433" x1="83.2244" y1="67.6298" x2="122.999" y2="67.6298" gradientUnits="userSpaceOnUse">
<stop stop-color="#E01D84"/>
<stop offset="0.238" stop-color="#DA1E85"/>
<stop offset="0.658" stop-color="#C72085"/>
<stop offset="0.999" stop-color="#B52284"/>
</linearGradient>
</defs>
</svg>
