<svg width="256" height="256" viewBox="0 0 256 256" fill="none" xmlns="http://www.w3.org/2000/svg">
<rect width="256" height="256" fill="#232932"/>
<path d="M43.8519 150.63C40.0331 138.727 38.9315 126.163 41.1347 113.231C42.0894 107.868 43.5582 102.724 45.1739 97.5075C45.1739 97.5075 55.3086 64.2231 89.605 49.0137C89.605 49.0137 101.429 42.7683 119.201 42.3275C119.201 42.3275 116.778 39.9763 115.236 38.9476C106.863 33.3635 94.3786 31.5266 86.8143 39.3885C84.5376 41.7397 82.6282 44.3113 80.4984 46.6625C78.0749 49.3076 75.1373 51.5119 71.7591 52.761C68.8215 53.8631 65.8839 53.6427 62.8729 54.157C59.7884 54.6713 56.6305 55.7735 54.1335 57.7573C51.4162 59.9616 50.3146 62.9006 50.0209 66.2805C49.7271 68.9256 49.8006 71.6442 49.6537 74.2893C49.2865 82.0777 46.7895 84.2819 41.2081 88.617C38.858 90.3804 36.8752 92.7316 35.4064 95.2298C31 103.018 38.0502 111.1 38.4174 118.962C38.4908 120.579 38.3439 122.195 37.7564 123.738C37.1689 125.428 35.9939 126.53 35.0392 127.926C33.7172 129.763 32.836 131.967 33.2032 134.245C33.5704 136.523 34.7454 138.654 35.847 140.638C37.9767 144.164 40.6206 147.324 43.4113 150.336C43.5582 150.336 43.7051 150.483 43.8519 150.63Z" fill="#E32286"/>
<path d="M183.975 178.845C200.866 171.498 208.064 158.786 208.064 158.786C223.853 137.258 218.492 114.554 218.492 114.554C208.431 136.45 199.251 142.475 199.251 142.475C224 104.782 199.398 82.0045 199.398 82.0045C209.459 103.459 196.093 129.617 196.093 129.617C184.857 153.276 168.92 161.725 168.92 161.725C186.693 165.032 199.765 153.055 199.765 153.055C174.281 180.608 146.668 179.286 146.668 179.286C158.271 192.291 175.677 191.189 175.677 191.189C152.91 196.553 131.539 188.985 113.987 174.363C110.682 171.644 107.524 168.705 104.587 165.546C104.587 165.546 101.943 162.754 101.429 162.019L101.355 161.946C100.988 175.539 115.162 188.176 115.162 188.176C97.3896 180.829 89.2378 164.885 89.2378 164.885C89.2378 164.885 77.2671 144.459 85.933 121.167C94.5989 97.8752 120.817 92.8789 120.817 92.8789C142.482 103.386 160.842 106.692 160.842 106.692C199.544 113.158 197.341 94.2014 197.341 94.2014C197.708 77.8899 173.106 60.5497 173.106 60.5497C129.263 28.0001 89.605 49.014 89.605 49.014C55.3086 64.2235 45.1739 97.5078 45.1739 97.5078C43.5582 102.725 42.0894 107.868 41.1347 113.232C37.3892 135.054 43.0441 155.7 55.3086 174.069C74.4029 202.578 105.395 212.423 105.395 212.423C151.294 228 182.653 205.076 182.653 205.076C211.515 185.237 217.317 162.313 217.317 162.313C194.036 180.535 183.975 178.845 183.975 178.845ZM148.137 71.6445C150.34 71.6445 152.102 73.4079 152.102 75.6121C152.102 77.8164 150.34 79.5798 148.137 79.5798C145.933 79.5798 144.171 77.8164 144.171 75.6121C144.171 73.4079 145.933 71.6445 148.137 71.6445Z" fill="url(#paint0_linear_99_433)"/>
<path d="M197.268 94.1279C197.635 77.8164 173.033 60.4762 173.033 60.4762C129.189 28.0001 89.5316 49.014 89.5316 49.014C55.2352 64.2234 45.1005 97.5078 45.1005 97.5078C43.1176 103.165 41.3551 111.835 41.3551 111.835C39.2253 122.71 40.18 132.776 40.18 132.776C41.0613 142.401 43.1911 148.867 43.1911 148.867C45.3943 155.774 46.4224 157.905 46.4224 157.905C46.349 157.684 45.9818 156.068 45.9818 156.068C45.9818 156.068 42.8973 141.226 45.7615 126.971C45.7615 126.971 48.2584 112.129 58.3931 100.667C58.3931 100.667 74.8437 77.2286 105.468 86.413C105.468 86.413 112.078 88.7642 114.354 89.9398C116.631 91.042 120.597 92.7319 120.597 92.7319C142.261 103.239 160.621 106.545 160.621 106.545C199.471 113.085 197.268 94.1279 197.268 94.1279ZM148.137 79.6533C145.933 79.6533 144.171 77.8899 144.171 75.6856C144.171 73.4813 145.933 71.7179 148.137 71.7179C150.34 71.7179 152.102 73.4813 152.102 75.6856C152.102 77.8899 150.34 79.6533 148.137 79.6533Z" fill="url(#paint1_radial_99_433)"/>
<path d="M123.02 64.5908L97.9771 56.8024C97.8302 56.8024 97.0958 56.4351 95.7739 56.8024C95.7739 56.8024 81.0125 60.5497 83.5829 68.632C83.5829 68.632 85.1251 73.7018 89.3112 78.6246L116.851 77.3021L123.02 64.5908Z" fill="url(#paint2_linear_99_433)"/>
<defs>
<linearGradient id="paint0_linear_99_433" x1="61.4011" y1="203.827" x2="152.834" y2="106.606" gradientUnits="userSpaceOnUse">
<stop stop-color="#E01D84"/>
<stop offset="0.401" stop-color="#DF1D85"/>
<stop offset="0.77" stop-color="#932C87"/>
<stop offset="1" stop-color="#5D2F88"/>
</linearGradient>
<radialGradient id="paint1_radial_99_433" cx="0" cy="0" r="1" gradientUnits="userSpaceOnUse" gradientTransform="translate(161.984 80.7579) rotate(0.137003) scale(89.2899 74.7003)">
<stop stop-color="#E01D84"/>
<stop offset="0.139" stop-color="#DE1E85"/>
<stop offset="0.285" stop-color="#D62085"/>
<stop offset="0.434" stop-color="#C92386"/>
<stop offset="0.586" stop-color="#B72786"/>
<stop offset="0.739" stop-color="#9D2B87"/>
<stop offset="0.891" stop-color="#7C2E88"/>
<stop offset="1" stop-color="#5D2F88"/>
</radialGradient>
<linearGradient id="paint2_linear_99_433" x1="83.2245" y1="67.6298" x2="122.999" y2="67.6298" gradientUnits="userSpaceOnUse">
<stop stop-color="#E01D84"/>
<stop offset="0.238" stop-color="#DA1E85"/>
<stop offset="0.658" stop-color="#C72085"/>
<stop offset="0.999" stop-color="#B52284"/>
</linearGradient>
</defs>
</svg>
