<svg width="256" height="256" viewBox="0 0 256 256" fill="none" xmlns="http://www.w3.org/2000/svg">
<g clip-path="url(#clip0_14_93)">
<rect width="256" height="256" fill="white"/>
<rect width="256" height="256" fill="#1A76B9"/>
<path d="M85.3642 117.137H57.3054C56.89 117.137 56.4786 117.055 56.0948 116.897C55.711 116.738 55.3622 116.505 55.0685 116.211C54.7747 115.917 54.5418 115.569 54.3829 115.185C54.224 114.801 54.1422 114.39 54.1424 113.974V113.633C54.1422 113.218 54.224 112.806 54.3829 112.422C54.5418 112.039 54.7748 111.69 55.0686 111.396C55.3624 111.102 55.7112 110.869 56.0951 110.711C56.4789 110.552 56.8903 110.47 57.3058 110.47H85.3646C86.2034 110.47 87.0079 110.804 87.601 111.397C88.1942 111.99 88.5275 112.794 88.5276 113.633V113.974C88.5275 114.813 88.1942 115.617 87.601 116.211C87.0079 116.804 86.203 117.137 85.3642 117.137ZM88.2279 130.32H57.3042C56.4653 130.32 55.6608 129.987 55.0676 129.394C54.4744 128.8 54.1412 127.996 54.1412 127.157V126.814C54.1412 125.975 54.4744 125.171 55.0676 124.578C55.6608 123.984 56.4653 123.651 57.3042 123.651H88.2279C89.9739 123.651 91.3912 125.069 91.3912 126.814V127.157C91.3912 128.903 89.9739 130.32 88.2279 130.32ZM94.1801 143.5H57.3042C56.8887 143.5 56.4773 143.419 56.0935 143.26C55.7096 143.101 55.3608 142.868 55.067 142.574C54.7733 142.281 54.5402 141.932 54.3813 141.548C54.2224 141.164 54.1407 140.753 54.1408 140.337V139.997C54.1408 139.581 54.2225 139.17 54.3815 138.786C54.5405 138.402 54.7735 138.053 55.0672 137.76C55.361 137.466 55.7097 137.233 56.0936 137.074C56.4774 136.915 56.8887 136.833 57.3042 136.833H94.1797C95.9257 136.833 97.343 138.251 97.343 139.997V140.337C97.3431 140.752 97.2613 141.164 97.1023 141.548C96.9434 141.931 96.7104 142.28 96.4166 142.574C96.1229 142.868 95.7741 143.101 95.3903 143.26C95.0065 143.419 94.5951 143.5 94.1797 143.5M103.214 156.682H57.3034C56.4646 156.682 55.6601 156.349 55.067 155.756C54.4738 155.163 54.1405 154.358 54.1404 153.519V153.179C54.1402 152.763 54.2218 152.352 54.3806 151.968C54.5395 151.584 54.7725 151.235 55.0662 150.941C55.36 150.647 55.7088 150.414 56.0926 150.256C56.4765 150.097 56.8879 150.015 57.3034 150.015H103.214C103.63 150.015 104.041 150.097 104.425 150.256C104.809 150.414 105.158 150.647 105.452 150.941C105.745 151.235 105.978 151.584 106.137 151.968C106.296 152.352 106.378 152.763 106.377 153.179V153.519C106.377 153.934 106.296 154.346 106.137 154.73C105.978 155.113 105.745 155.462 105.451 155.756C105.157 156.05 104.809 156.283 104.425 156.442C104.041 156.601 103.63 156.682 103.214 156.682ZM97.5343 169.865H57.4756C55.6338 169.865 54.1412 168.373 54.1412 166.531C54.1412 164.689 55.6338 163.196 57.4756 163.196H97.535C99.3764 163.196 100.869 164.689 100.869 166.531C100.869 168.373 99.3764 169.865 97.535 169.865" fill="white"/>
<path d="M33.0004 190.003C33.0004 190.003 74.6277 189.703 93.9475 189.999C110.283 190.248 124.49 178.916 128.71 164.166C134.998 142.189 116.482 129.295 112.774 110.444C111.92 106.105 111.646 101.709 111.977 97.3597C113.466 77.8371 126.665 59.3812 147.071 52.9265C152.039 51.3563 157.45 50.6053 162.673 50.5233C176.565 50.3092 203.892 50.3214 216.404 50.3396C220.014 50.3436 222.953 47.4443 222.997 43.8363C222.997 43.7916 222.997 43.7465 222.999 43.7037C223.047 40.0427 220.096 37.0452 216.435 37.0369C203.769 37.0064 176.322 36.9534 162.099 37.084C127.481 37.4087 103.212 63.9754 99.3973 91.3078C98.4744 97.9255 98.4518 104.267 99.3094 110.36C100.696 120.233 104.651 129.28 110.378 138.107C115.601 146.156 116.767 149.84 116.771 154.085C116.78 166.144 107.638 176.251 95.7176 176.49C79.4812 176.817 63.2317 176.574 47.0498 176.572V103.549H72.3488C79.3398 103.549 85.2022 98.3602 86.1555 91.4341H33.0004V190.003ZM170.807 137.962H198.524C200.365 137.962 201.858 139.455 201.858 141.297C201.858 143.139 200.365 144.631 198.524 144.631H170.807C168.965 144.631 167.473 143.139 167.473 141.297C167.473 139.455 168.965 137.962 170.807 137.962ZM167.944 124.782H198.524C200.366 124.782 201.859 126.275 201.859 128.114C201.859 128.552 201.773 128.986 201.605 129.39C201.438 129.795 201.192 130.163 200.882 130.472C200.573 130.782 200.205 131.028 199.8 131.195C199.396 131.363 198.962 131.449 198.524 131.449H167.944C167.506 131.449 167.072 131.363 166.668 131.195C166.263 131.028 165.896 130.782 165.586 130.472C165.276 130.163 165.031 129.795 164.863 129.39C164.696 128.986 164.61 128.552 164.61 128.114C164.61 126.275 166.102 124.782 167.944 124.782" fill="white"/>
<path d="M161.991 111.599H198.524C198.962 111.599 199.396 111.685 199.8 111.853C200.205 112.021 200.573 112.266 200.882 112.576C201.192 112.886 201.437 113.253 201.605 113.658C201.773 114.062 201.859 114.496 201.859 114.934C201.859 116.773 200.366 118.266 198.524 118.266H161.991C160.149 118.266 158.657 116.773 158.657 114.934C158.657 114.496 158.743 114.063 158.91 113.658C159.078 113.253 159.324 112.886 159.633 112.576C159.943 112.266 160.311 112.021 160.715 111.853C161.12 111.686 161.553 111.6 161.991 111.6M152.785 98.4192H198.696C199.112 98.4189 199.523 98.5005 199.907 98.6592C200.29 98.8179 200.639 99.0507 200.933 99.3442C201.226 99.6377 201.459 99.9862 201.618 100.37C201.777 100.753 201.859 101.165 201.859 101.58V101.923C201.859 102.338 201.778 102.749 201.619 103.133C201.46 103.517 201.227 103.866 200.933 104.159C200.639 104.453 200.291 104.686 199.907 104.845C199.523 105.004 199.112 105.086 198.696 105.086H152.785C152.37 105.086 151.959 105.004 151.575 104.845C151.191 104.686 150.842 104.453 150.549 104.159C150.255 103.866 150.022 103.517 149.863 103.133C149.704 102.749 149.622 102.338 149.622 101.923V101.58C149.622 101.165 149.704 100.753 149.863 100.37C150.022 99.986 150.255 99.6375 150.549 99.3439C150.843 99.0504 151.191 98.8176 151.575 98.6589C151.959 98.5001 152.37 98.4185 152.785 98.4188M158.294 85.2368H198.696C199.111 85.2366 199.523 85.3183 199.907 85.4772C200.291 85.6361 200.639 85.8691 200.933 86.1629C201.227 86.4567 201.46 86.8055 201.619 87.1894C201.778 87.5733 201.859 87.9847 201.859 88.4002V88.7407C201.859 89.1561 201.778 89.5676 201.619 89.9514C201.46 90.3353 201.227 90.6842 200.933 90.9779C200.639 91.2717 200.291 91.5047 199.907 91.6636C199.523 91.8226 199.111 91.9042 198.696 91.904H158.294C157.878 91.904 157.467 91.8221 157.083 91.6631C156.7 91.5041 156.351 91.2711 156.057 90.9773C155.764 90.6836 155.531 90.3349 155.372 89.9511C155.213 89.5673 155.131 89.156 155.131 88.7407V88.4002C155.131 87.9848 155.213 87.5735 155.372 87.1897C155.531 86.806 155.764 86.4573 156.057 86.1635C156.351 85.8698 156.7 85.6367 157.083 85.4777C157.467 85.3187 157.878 85.2369 158.294 85.2368Z" fill="white"/>
<path d="M223 65.0986C223 65.0986 181.372 65.3967 162.053 65.1025C145.717 64.8535 131.51 76.1858 127.29 90.936C121.002 112.913 139.518 125.807 143.226 144.658C144.08 148.997 144.354 153.391 144.023 157.74C142.534 177.263 129.335 195.72 108.929 202.173C103.961 203.745 98.5502 204.497 93.3273 204.576C79.4346 204.792 52.1082 204.78 39.5957 204.762C35.9858 204.756 33.0473 207.655 33.0025 211.265C33.0025 211.308 33.0025 211.353 33.0006 211.398C32.9534 215.059 35.9038 218.054 39.5648 218.063C52.2305 218.095 79.6773 218.148 93.9009 218.016C128.519 217.693 152.788 191.126 156.602 163.792C157.525 157.174 157.548 150.832 156.69 144.739C155.304 134.869 151.349 125.822 145.621 116.992C140.398 108.945 139.232 105.262 139.228 101.015C139.22 88.9576 148.361 78.8503 160.282 78.6116C176.518 78.2849 192.768 78.528 208.95 78.528V151.551H183.651C176.66 151.551 170.797 156.741 169.844 163.668H223V65.0986Z" fill="white"/>
</g>
<defs>
<clipPath id="clip0_14_93">
<rect width="256" height="256" fill="white"/>
</clipPath>
</defs>
</svg>
