<svg width="256" height="256" viewBox="0 0 256 256" fill="none" xmlns="http://www.w3.org/2000/svg">
<g clip-path="url(#clip0_14_93)">
<rect width="256" height="256" fill="white"/>
<rect width="256" height="256" fill="#1A76B9"/>
<path d="M85.9862 118.028H58.6657C58.2613 118.028 57.8608 117.949 57.487 117.794C57.1133 117.639 56.7737 117.412 56.4877 117.126C56.2017 116.84 55.9749 116.501 55.8202 116.127C55.6654 115.753 55.5859 115.353 55.586 114.949V114.616C55.5859 114.212 55.6654 113.811 55.8202 113.437C55.9749 113.064 56.2018 112.724 56.4879 112.438C56.7739 112.152 57.1135 111.925 57.4873 111.771C57.8611 111.616 58.2616 111.537 58.6661 111.537H85.9866C86.8033 111.537 87.5866 111.861 88.1642 112.439C88.7417 113.016 89.0662 113.799 89.0663 114.616V114.949C89.0662 115.765 88.7417 116.548 88.1642 117.126C87.5866 117.703 86.8029 118.028 85.9862 118.028ZM88.7745 130.864H58.6646C57.8478 130.864 57.0645 130.54 56.4869 129.962C55.9093 129.385 55.5849 128.601 55.5849 127.784V127.451C55.5849 126.634 55.9093 125.85 56.4869 125.273C57.0645 124.695 57.8478 124.371 58.6646 124.371H88.7745C90.4746 124.371 91.8546 125.751 91.8546 127.451V127.784C91.8546 129.484 90.4746 130.864 88.7745 130.864ZM94.5701 143.697H58.6646C58.2601 143.698 57.8595 143.618 57.4858 143.463C57.112 143.309 56.7724 143.082 56.4863 142.796C56.2003 142.51 55.9734 142.17 55.8186 141.797C55.6639 141.423 55.5843 141.022 55.5845 140.618V140.286C55.5844 139.882 55.6641 139.481 55.8188 139.107C55.9736 138.734 56.2005 138.394 56.4865 138.108C56.7725 137.822 57.1121 137.595 57.4858 137.44C57.8595 137.285 58.2601 137.206 58.6646 137.206H94.5697C96.2697 137.206 97.6498 138.586 97.6498 140.286V140.618C97.6498 141.022 97.5702 141.423 97.4154 141.796C97.2607 142.17 97.0338 142.51 96.7478 142.796C96.4617 143.082 96.1222 143.309 95.7484 143.463C95.3747 143.618 94.9742 143.698 94.5697 143.698M103.367 156.532H58.6638C57.8471 156.532 57.0638 156.208 56.4863 155.63C55.9087 155.053 55.5842 154.27 55.5841 153.453V153.121C55.5838 152.717 55.6633 152.316 55.818 151.942C55.9727 151.568 56.1995 151.229 56.4855 150.943C56.7716 150.657 57.1112 150.43 57.4849 150.275C57.8587 150.12 58.2593 150.041 58.6638 150.041H103.367C103.771 150.041 104.172 150.12 104.546 150.275C104.919 150.43 105.259 150.657 105.545 150.943C105.831 151.229 106.058 151.568 106.213 151.942C106.367 152.316 106.447 152.717 106.446 153.121V153.453C106.446 153.857 106.367 154.258 106.212 154.631C106.057 155.005 105.83 155.345 105.545 155.631C105.259 155.917 104.919 156.144 104.545 156.298C104.172 156.453 103.771 156.532 103.367 156.532ZM97.836 169.369H58.8315C57.0382 169.369 55.5849 167.915 55.5849 166.122C55.5849 164.329 57.0382 162.875 58.8315 162.875H97.8368C99.6297 162.875 101.083 164.329 101.083 166.122C101.083 167.915 99.6297 169.369 97.8368 169.369" fill="white"/>
<path d="M35.0004 188.977C35.0004 188.977 75.5322 188.684 94.3436 188.973C110.249 189.215 124.082 178.181 128.192 163.819C134.313 142.421 116.285 129.866 112.674 111.511C111.844 107.286 111.577 103.006 111.899 98.7713C113.349 79.7625 126.2 61.7922 146.069 55.5074C150.906 53.9786 156.175 53.2473 161.26 53.1675C174.787 52.9589 201.395 52.9709 213.578 52.9886C217.093 52.9925 219.954 50.1695 219.998 46.6564C219.998 46.6129 219.998 46.5689 219.999 46.5273C220.045 42.9626 217.173 40.044 213.608 40.0359C201.275 40.0062 174.551 39.9546 160.701 40.0818C126.995 40.3979 103.364 66.2655 99.65 92.8786C98.7514 99.3222 98.7294 105.497 99.5644 111.43C100.914 121.042 104.765 129.852 110.342 138.447C115.428 146.284 116.563 149.87 116.567 154.004C116.575 165.746 107.674 175.587 96.0672 175.819C80.258 176.137 64.4361 175.901 48.6801 175.899V104.797H73.3133C80.1204 104.797 85.8284 99.7455 86.7567 93.0016H35.0004V188.977ZM169.181 138.305H196.168C197.961 138.305 199.414 139.759 199.414 141.552C199.414 143.345 197.961 144.799 196.168 144.799H169.181C167.387 144.799 165.934 143.345 165.934 141.552C165.934 139.759 167.387 138.305 169.181 138.305ZM166.392 125.472H196.169C197.962 125.472 199.415 126.926 199.415 128.717C199.415 129.143 199.331 129.565 199.168 129.959C199.005 130.353 198.766 130.711 198.464 131.013C198.163 131.314 197.805 131.553 197.411 131.716C197.017 131.879 196.595 131.963 196.169 131.963H166.393C165.966 131.963 165.544 131.879 165.15 131.716C164.756 131.553 164.398 131.314 164.097 131.013C163.795 130.711 163.556 130.353 163.393 129.959C163.23 129.565 163.146 129.143 163.146 128.717C163.146 126.926 164.599 125.472 166.393 125.472" fill="white"/>
<path d="M160.597 112.636H196.168C196.595 112.636 197.017 112.72 197.411 112.883C197.805 113.046 198.163 113.286 198.464 113.587C198.766 113.889 199.005 114.247 199.168 114.641C199.331 115.035 199.415 115.457 199.415 115.883C199.415 117.674 197.962 119.128 196.168 119.128H160.597C158.803 119.128 157.35 117.674 157.35 115.883C157.35 115.457 157.434 115.035 157.597 114.641C157.76 114.247 157.999 113.889 158.301 113.587C158.602 113.286 158.96 113.047 159.354 112.884C159.748 112.72 160.17 112.637 160.597 112.637M151.633 99.803H196.336C196.74 99.8028 197.141 99.8822 197.514 100.037C197.888 100.191 198.227 100.418 198.513 100.704C198.799 100.989 199.026 101.329 199.181 101.702C199.336 102.076 199.416 102.476 199.416 102.88V103.214C199.416 103.619 199.336 104.019 199.181 104.393C199.027 104.767 198.8 105.106 198.514 105.392C198.228 105.678 197.888 105.905 197.515 106.06C197.141 106.215 196.74 106.294 196.336 106.294H151.633C151.229 106.294 150.828 106.215 150.454 106.06C150.081 105.905 149.741 105.678 149.455 105.392C149.169 105.106 148.942 104.767 148.788 104.393C148.633 104.019 148.553 103.619 148.553 103.214V102.88C148.553 102.476 148.633 102.076 148.788 101.702C148.943 101.329 149.17 100.989 149.456 100.703C149.742 100.418 150.081 100.191 150.455 100.036C150.828 99.8818 151.229 99.8024 151.633 99.8026M156.996 86.9675H196.336C196.74 86.9673 197.141 87.0469 197.514 87.2016C197.888 87.3563 198.228 87.5832 198.514 87.8692C198.8 88.1553 199.027 88.4949 199.181 88.8687C199.336 89.2425 199.416 89.6431 199.415 90.0476V90.3792C199.416 90.7837 199.336 91.1843 199.181 91.5581C199.027 91.9319 198.8 92.2715 198.514 92.5576C198.228 92.8436 197.888 93.0705 197.514 93.2252C197.141 93.38 196.74 93.4595 196.336 93.4593H156.996C156.592 93.4592 156.192 93.3795 155.818 93.2247C155.444 93.0699 155.105 92.843 154.819 92.557C154.533 92.271 154.306 91.9314 154.151 91.5578C153.997 91.1841 153.917 90.7836 153.917 90.3792V90.0476C153.917 89.6432 153.997 89.2427 154.151 88.8691C154.306 88.4954 154.533 88.1558 154.819 87.8698C155.105 87.5838 155.444 87.3569 155.818 87.2021C156.192 87.0473 156.592 86.9676 156.996 86.9675Z" fill="white"/>
<path d="M220 67.3592C220 67.3592 179.468 67.6495 160.656 67.3631C144.751 67.1206 130.918 78.1546 126.808 92.5167C120.687 113.915 138.715 126.47 142.326 144.825C143.156 149.05 143.423 153.328 143.101 157.563C141.651 176.571 128.8 194.544 108.931 200.826C104.094 202.357 98.8252 203.089 93.7397 203.166C80.2127 203.377 53.6053 203.365 41.4221 203.347C37.9072 203.341 35.046 206.164 35.0025 209.679C35.0025 209.721 35.0025 209.765 35.0005 209.809C34.9547 213.373 37.8274 216.29 41.3921 216.298C53.7245 216.33 80.449 216.381 94.2983 216.252C128.005 215.938 151.636 190.07 155.35 163.455C156.248 157.012 156.27 150.837 155.435 144.904C154.085 135.294 150.234 126.484 144.658 117.887C139.572 110.052 138.437 106.465 138.433 102.33C138.425 90.5904 147.326 80.749 158.932 80.5166C174.742 80.1985 190.564 80.4352 206.32 80.4352V151.537H181.686C174.879 151.537 169.171 156.59 168.243 163.334H220V67.3592Z" fill="white"/>
</g>
<defs>
<clipPath id="clip0_14_93">
<rect width="256" height="256" fill="white"/>
</clipPath>
</defs>
</svg>
