<svg width="256" height="256" viewBox="0 0 256 256" fill="none" xmlns="http://www.w3.org/2000/svg">
<rect width="256" height="256" fill="#CF649A"/>
<g clip-path="url(#clip0_160_67)">
<path d="M200.266 139.328C193.234 139.328 186.984 140.89 181.906 143.234C179.953 139.719 178.391 136.594 178 133.859C177.609 131.125 177.219 129.562 177.609 126.047C178 122.531 179.953 117.844 179.953 117.453C179.953 117.453 179.563 115.5 175.656 115.5C171.359 115.5 167.844 116.281 167.453 117.453L165.891 123.312C165.109 126.828 158.078 140.109 153.781 146.75C152.219 144.015 151.047 141.672 151.047 140.109C150.656 136.984 150.266 135.422 150.656 131.906C151.047 128.39 153 124.094 153 123.703C153 123.312 152.609 121.359 148.703 121.359C144.406 121.359 140.891 122.14 140.5 123.312L138.938 129.172L125.656 158.859L122.531 165.89C121.75 167.453 122.531 165.89 122.531 166.281L121.359 168.234L119.797 170.187C119.797 170.187 119.406 167.453 120.188 163.937C121.359 156.515 124.875 144.797 124.875 144.015C124.875 144.015 125.656 142.062 122.531 140.89C119.797 139.719 119.016 141.672 118.625 141.672L118.234 142.062C118.234 142.062 121.359 128.781 111.984 128.781C106.516 128.781 98.3125 135.422 94.4063 140.89L81.125 148.312L74.4844 151.828L74.0938 151.437C62.7656 139.328 42.0625 131.125 43.2344 115.109C43.2344 109.25 45.5781 94.0155 82.6875 75.2655C113.547 60.0311 137.766 64.328 142.063 73.703C148.313 86.9842 129.172 111.594 97.1406 115.109C85.0313 116.281 78.7813 111.594 77.2188 110.031C75.6563 108.078 75.2656 108.078 74.4844 108.469C73.7031 108.859 74.0938 110.422 74.4844 111.594C75.6563 113.937 79.5625 118.234 86.2031 120.578C92.0625 122.531 106.125 123.703 123.313 117.062C142.453 109.64 157.688 88.9373 153.391 71.3592C148.703 53.7811 119.406 47.9217 92.0625 57.6873C75.2656 63.5467 57.6875 72.9217 44.7969 85.0311C29.5625 99.0936 27.2188 111.594 28 116.672C31.9063 135.031 56.9063 147.14 67.0625 155.734L65.8906 156.515C60.8125 159.25 41.2813 169.406 36.5938 179.953C31.125 192.062 37.375 200.656 41.6719 201.828C54.5625 205.734 68.2344 199.094 75.2656 188.547C82.2969 177.609 81.5156 163.547 78.3906 157.297L78 156.906L82.2969 154.562L89.3281 150.656C88.1563 154.172 87.375 158.078 86.9844 163.937C86.2031 170.578 89.3281 179.562 92.8438 183.078C94.4063 184.64 96.3594 184.64 97.5313 184.64C101.828 184.64 103.781 181.125 106.125 176.828L111.203 165.89C111.203 165.89 108.078 181.906 116.281 181.906C119.016 181.906 122.141 178.39 123.313 176.437L123.703 176.047L124.094 175.265L131.906 160.812L141.672 138.547L143.625 146.359C144.406 149.484 146.359 152.609 147.531 155.734L145.969 158.469L142.844 162.375C138.938 167.062 133.859 172.531 133.469 174.094C132.688 176.047 132.688 177.219 134.25 178.39C135.422 179.172 137.375 179.172 139.328 179.172L146.359 177.609L153 174.094C156.906 171.359 159.25 167.062 158.859 161.594C158.859 158.859 157.688 155.734 156.516 153L157.688 151.437C163.938 142.453 168.625 132.297 168.625 132.297L170.578 140.5L174.094 148.312C169.432 152.019 165.8 156.861 163.547 162.375C161.203 169.015 162.766 171.75 166.281 172.531C167.844 172.922 170.188 172.14 171.75 171.359C173.703 170.969 176.047 169.797 178.391 168.234C182.297 165.109 186.203 161.203 185.813 155.734C185.813 153.39 185.031 150.656 184.25 148.312C188.938 146.359 195.578 145.187 203.391 146.359C220.969 148.312 224.484 159.25 223.703 163.547C222.922 168.234 219.406 170.578 218.234 171.359L216.672 172.922C217.063 173.703 217.453 173.703 218.625 173.703C219.797 173.312 227.609 169.797 228 161.594C228.391 150.656 218.234 138.937 200.266 139.328ZM65.8906 184.25C60.4219 190.5 52.2188 193.234 48.7031 190.89C45.1875 188.937 46.3594 179.562 53.7813 172.922C58.0781 169.015 63.5469 165.109 67.0625 162.765L70.5781 160.812L70.9688 160.422L72.1406 160.031C74.4844 169.406 72.1406 177.609 65.8906 184.25ZM108.078 155.734C106.125 160.812 101.828 173.312 99.4844 172.531C97.1406 172.14 95.9688 162.375 98.7031 153C100.266 148.312 103.781 142.844 105.734 140.5C108.859 136.984 112.375 135.812 113.156 137.375C114.328 139.328 109.25 152.609 108.078 155.734ZM142.844 172.531L140.891 172.922V172.14L147.141 165.5L150.656 161.203V161.594C150.656 167.062 145.188 170.969 142.844 172.531ZM169.406 166.281C168.625 165.89 169.016 164.328 170.969 160.031C171.75 158.078 173.703 154.953 176.828 152.219L177.609 155.734C177.609 162.765 172.531 165.109 169.406 166.281Z" fill="white"/>
</g>
<defs>
<clipPath id="clip0_160_67">
<rect width="200" height="150" fill="white" transform="translate(28 53)"/>
</clipPath>
</defs>
</svg>
