<svg width="256" height="256" viewBox="0 0 256 256" fill="none" xmlns="http://www.w3.org/2000/svg">
<rect width="256" height="256" fill="#232932"/>
<g clip-path="url(#clip0_160_74)">
<path d="M66 151.077V166.462C66 168.865 121.734 173.192 158.25 181.846C176.027 178 189 172.712 189 166.462V151.077C189 144.827 176.027 139.538 158.25 135.692C121.734 144.346 66 148.673 66 151.077Z" fill="url(#paint0_linear_160_74)"/>
<path d="M66 89.5384V104.923C66 107.327 121.734 111.654 158.25 120.308C176.027 116.461 189 111.173 189 104.923V89.5384C189 83.2884 176.027 77.9999 158.25 74.1538C121.734 82.8076 66 87.1345 66 89.5384Z" fill="url(#paint1_linear_160_74)"/>
<path d="M66 120.308V166.461C66 162.615 189 154.923 189 135.692V89.5383C189 108.769 66 116.461 66 120.308Z" fill="url(#paint2_linear_160_74)"/>
<path d="M66 58.769V104.923C66 101.077 189 93.3844 189 74.1536V27.9998C189 47.2305 66 54.9228 66 58.769Z" fill="url(#paint3_linear_160_74)"/>
<path d="M66 181.846V228C66 224.154 189 216.462 189 197.231V151.077C189 170.308 66 178 66 181.846Z" fill="url(#paint4_linear_160_74)"/>
</g>
<defs>
<linearGradient id="paint0_linear_160_74" x1="66" y1="-2125.85" x2="12366" y2="-2125.85" gradientUnits="userSpaceOnUse">
<stop stop-color="#4F4F4F"/>
<stop offset="1"/>
</linearGradient>
<linearGradient id="paint1_linear_160_74" x1="66" y1="-2187.38" x2="12366" y2="-2187.38" gradientUnits="userSpaceOnUse">
<stop stop-color="#4F4F4F"/>
<stop offset="1"/>
</linearGradient>
<linearGradient id="paint2_linear_160_74" x1="66" y1="-3679.69" x2="12366" y2="-3679.69" gradientUnits="userSpaceOnUse">
<stop stop-color="#C40000"/>
<stop offset="1" stop-color="#FF0000"/>
</linearGradient>
<linearGradient id="paint3_linear_160_74" x1="66" y1="-3741.23" x2="12366" y2="-3741.23" gradientUnits="userSpaceOnUse">
<stop stop-color="#C40000"/>
<stop offset="1" stop-color="#FF0000"/>
</linearGradient>
<linearGradient id="paint4_linear_160_74" x1="66" y1="-3618.15" x2="12366" y2="-3618.15" gradientUnits="userSpaceOnUse">
<stop stop-color="#C40000"/>
<stop offset="1" stop-color="#FF0000"/>
</linearGradient>
<clipPath id="clip0_160_74">
<rect width="123" height="200" fill="white" transform="translate(66 28)"/>
</clipPath>
</defs>
</svg>
