<svg width="256" height="256" viewBox="0 0 256 256" fill="none" xmlns="http://www.w3.org/2000/svg">
<rect width="256" height="256" fill="#232932"/>
<g clip-path="url(#clip0_93_192)">
<path d="M188.996 91.7839V163.811L127.77 199.96L127.23 200.5V227.324L127.77 227.865L214 178.135V77.7974L213.189 77.5947L188.861 91.1082L188.996 91.7839Z" fill="#2F406A"/>
<path d="M66.4094 164.352L127.77 199.96V228L41 177.933V78.0002L41.8785 77.9326L66.1391 91.9867L66.4094 92.7975V164.419" fill="#2379BD"/>
<path d="M66.4094 92.7297L41 78L127.568 28L214 77.7973L188.996 91.7838L127.568 56.7162L66.4094 92.7297Z" fill="#03AFEF"/>
<path d="M126.757 156.108L126.081 155.432V128.405L126.757 128.068L126.892 127.392L150.071 113.878L150.747 114.014V141.919L126.757 156.108Z" fill="#2F406A"/>
<path d="M102.293 142.798V113.811H102.969L126.554 127.527L126.757 128.068V156.108L102.293 142.865" fill="#2379BD"/>
<path d="M126.351 99.6216L102.293 113.811L126.757 128.068L150.814 114.013L126.351 99.6216Z" fill="#03AFEF"/>
<path d="M96.8195 173.743L96.1437 173.068V146.041L96.8195 145.703L96.9547 145.027L120.134 131.514L120.81 131.649V159.554L96.8195 173.743Z" fill="#2F406A"/>
<path d="M72.3563 160.432V131.378H73.032L96.6168 145.095L96.8195 145.635V173.676L72.3563 160.432Z" fill="#2379BD"/>
<path d="M96.4141 117.189L72.3563 131.446L96.8195 145.702L120.877 131.648L96.4141 117.257" fill="#03AFEF"/>
<path d="M158.789 174.419L158.113 173.743V146.716L158.789 146.378L158.991 145.702L182.171 132.189L182.846 132.324V160.23L158.789 174.419Z" fill="#2F406A"/>
<path d="M134.393 161.108V132.054H135.069L158.654 145.77L158.856 146.311V174.352L134.325 161.108" fill="#2379BD"/>
<path d="M158.451 117.865L134.393 132.122L158.856 146.378L182.914 132.324L158.451 117.932" fill="#03AFEF"/>
<path d="M128.852 192.054L128.176 191.378V164.351L128.852 164.013L129.054 163.338L152.234 149.824L152.909 149.959V177.865L128.852 192.054Z" fill="#2F406A"/>
<path d="M104.388 178.676V149.757H105.064L128.716 163.473L128.852 164.014V192.054L104.388 178.743" fill="#2379BD"/>
<path d="M128.446 135.567L104.388 149.757L128.852 164.013L152.909 149.959L128.446 135.567Z" fill="#03AFEF"/>
<path d="M126.757 117.797L126.081 117.122V90.0946L126.757 89.6892L126.892 89.0135L150.071 75.5L150.747 75.7027V103.541L126.757 117.73" fill="#2F406A"/>
<path d="M102.293 104.351V75.5674H102.969L126.554 89.216L126.757 89.7566V117.865L102.293 104.351Z" fill="#2379BD"/>
<path d="M126.351 61.2432L102.293 75.4324L126.757 89.6891L150.814 75.7026L126.351 61.2432Z" fill="#03AFEF"/>
<path d="M96.8195 135.433L96.1437 134.757V107.73L96.8195 107.324L96.9547 106.649L120.134 93.1353L120.81 93.338V121.176L96.8195 135.365" fill="#2F406A"/>
<path d="M72.3563 122.054V93.1353H73.032L96.6168 106.784L96.8195 107.324V135.433L72.3563 122.054Z" fill="#2379BD"/>
<path d="M96.4141 78.8784L72.3563 93.0676L96.8195 107.324L120.877 93.3379L96.4141 78.8784Z" fill="#03AFEF"/>
<path d="M158.789 136.108L158.113 135.433V108.406L158.789 108L158.991 107.325L182.171 93.811L182.846 94.0137V121.852L158.789 136.041" fill="#2F406A"/>
<path d="M134.393 122.73V93.811H135.069L158.654 107.46L158.856 108V136.108L134.393 122.73Z" fill="#2379BD"/>
<path d="M158.451 79.5542L134.393 93.7434L158.856 108L182.914 94.0137L158.451 79.5542Z" fill="#03AFEF"/>
<path d="M128.852 153.676L128.176 153V125.973L128.852 125.635L129.054 124.959L152.234 111.446L152.909 111.649V139.486L128.852 153.676Z" fill="#2F406A"/>
<path d="M104.388 140.365V111.446H105.064L128.716 125.094L128.852 125.635V153.743L104.388 140.365Z" fill="#2379BD"/>
<path d="M128.446 97.189L104.388 111.378L128.852 125.635L152.909 111.648L128.446 97.189Z" fill="#03AFEF"/>
</g>
<defs>
<clipPath id="clip0_93_192">
<rect width="173" height="200" fill="white" transform="translate(41 28)"/>
</clipPath>
</defs>
</svg>
