<svg width="256" height="256" viewBox="0 0 256 256" fill="none" xmlns="http://www.w3.org/2000/svg">
<rect width="256" height="256" fill="#242932"/>
<g clip-path="url(#clip0_47_1028)">
<path d="M208.9 126.29L126.29 208.9C124.866 210.475 124.102 212.536 124.155 214.657C124.208 216.779 125.075 218.799 126.575 220.3C128.076 221.801 130.096 222.667 132.218 222.72C134.34 222.774 136.401 222.009 137.975 220.585L220.585 137.975C222.009 136.401 222.773 134.34 222.72 132.218C222.667 130.097 221.801 128.076 220.3 126.576C218.799 125.075 216.779 124.208 214.657 124.155C212.535 124.102 210.474 124.866 208.9 126.29ZM192.378 35.4147L35.4144 192.378C33.9907 193.952 33.2263 196.013 33.2795 198.135C33.3326 200.257 34.1992 202.277 35.6999 203.778C37.2007 205.279 39.2209 206.145 41.3426 206.198C43.4644 206.252 45.5254 205.487 47.0994 204.063L204.063 47.0997C205.487 45.5256 206.251 43.4646 206.198 41.3429C206.145 39.2211 205.278 37.201 203.778 35.7002C202.277 34.1994 200.257 33.3328 198.135 33.2797C196.013 33.2266 193.952 33.9909 192.378 35.4147Z" fill="white"/>
</g>
<defs>
<clipPath id="clip0_47_1028">
<rect width="190" height="190" fill="white" transform="translate(33 33)"/>
</clipPath>
</defs>
</svg>
