<svg width="256" height="256" viewBox="0 0 256 256" fill="none" xmlns="http://www.w3.org/2000/svg">
<rect width="256" height="256" fill="#232932"/>
<g clip-path="url(#clip0_99_451)">
<path d="M193.038 97.9248C212.347 97.9248 228 82.2716 228 62.9624C228 43.6532 212.347 28 193.038 28C173.728 28 158.075 43.6532 158.075 62.9624C158.075 82.2716 173.728 97.9248 193.038 97.9248Z" fill="#CB7676"/>
<path d="M28 64.0903H228V112.963H28V64.0903Z" fill="#4B9978"/>
<path d="M110.303 136.591C109.964 132.355 108.375 129.05 105.537 126.678C102.741 124.305 98.4835 123.12 92.7639 123.12C89.1203 123.12 86.1339 123.564 83.8038 124.454C81.5166 125.301 79.8218 126.466 78.7203 127.949C77.6188 129.432 77.0467 131.126 77.0046 133.032C76.9196 134.6 77.1955 136.02 77.8309 137.29C78.5083 138.519 79.5677 139.641 81.0076 140.658C82.4482 141.632 84.291 142.523 86.5361 143.327C88.782 144.132 91.4504 144.853 94.5436 145.488L105.219 147.775C112.421 149.301 118.585 151.313 123.711 153.812C128.837 156.312 133.032 159.256 136.293 162.645C139.556 165.992 141.949 169.762 143.474 173.956C145.041 178.15 145.847 182.726 145.889 187.683C145.847 196.24 143.707 203.484 139.471 209.416C135.234 215.347 129.176 219.858 121.296 222.951C113.459 226.044 104.033 227.589 93.0181 227.589C81.7068 227.589 71.8361 225.917 63.4053 222.57C55.0173 219.223 48.4933 214.075 43.8339 207.128C39.2158 200.138 36.8858 191.198 36.8429 180.311H70.3955C70.6076 184.293 71.603 187.64 73.382 190.352C75.1617 193.063 77.6609 195.117 80.8812 196.516C84.1429 197.914 88.0196 198.613 92.5098 198.613C96.2805 198.613 99.4361 198.147 101.978 197.214C104.52 196.283 106.447 194.99 107.761 193.338C109.074 191.686 109.752 189.801 109.795 187.683C109.752 185.692 109.096 183.954 107.825 182.471C106.596 180.947 104.562 179.591 101.724 178.404C98.8858 177.176 95.0519 176.032 90.2218 174.973L77.2587 172.177C65.7354 169.677 56.6482 165.505 49.997 159.659C43.388 153.77 40.1053 145.742 40.1474 135.574C40.1053 127.314 42.3083 120.09 46.7564 113.905C51.2474 107.677 57.4534 102.827 65.3752 99.3526C73.3399 95.8789 82.4692 94.1421 92.7639 94.1421C103.271 94.1421 112.357 95.9 120.026 99.4165C127.693 102.933 133.603 107.889 137.755 114.286C141.949 120.641 144.067 128.076 144.11 136.591H110.303Z" fill="#83D0DA"/>
<path d="M191.158 28V228H142.286V28H191.158Z" fill="#E6CC78"/>
</g>
<defs>
<clipPath id="clip0_99_451">
<rect width="200" height="200" fill="white" transform="translate(28 28)"/>
</clipPath>
</defs>
</svg>
