<svg width="256" height="256" viewBox="0 0 256 256" fill="none" xmlns="http://www.w3.org/2000/svg">
<rect width="256" height="256" fill="#232932"/>
<g clip-path="url(#clip0_99_451)">
<path d="M193.038 97.9248C212.347 97.9248 228 82.2716 228 62.9624C228 43.6532 212.347 28 193.038 28C173.728 28 158.075 43.6532 158.075 62.9624C158.075 82.2716 173.728 97.9248 193.038 97.9248Z" fill="#CB7676"/>
<path d="M28 64.0903H228V112.963H28V64.0903Z" fill="#4B9978"/>
<path d="M110.303 136.591C109.964 132.355 108.375 129.05 105.537 126.678C102.741 124.305 98.4834 123.12 92.7638 123.12C89.1202 123.12 86.1338 123.564 83.8037 124.454C81.5165 125.301 79.8217 126.466 78.7202 127.949C77.6187 129.432 77.0465 131.126 77.0044 133.032C76.9195 134.6 77.1954 136.02 77.8307 137.29C78.5082 138.519 79.5676 139.641 81.0074 140.658C82.448 141.632 84.2909 142.523 86.536 143.327C88.7819 144.132 91.4503 144.853 94.5435 145.488L105.219 147.775C112.421 149.301 118.585 151.313 123.711 153.812C128.837 156.312 133.031 159.256 136.293 162.645C139.556 165.992 141.949 169.762 143.474 173.956C145.041 178.15 145.847 182.726 145.889 187.683C145.847 196.24 143.707 203.484 139.471 209.416C135.234 215.347 129.176 219.858 121.296 222.951C113.459 226.044 104.033 227.589 93.018 227.589C81.7067 227.589 71.836 225.917 63.4052 222.57C55.0172 219.223 48.4931 214.075 43.8338 207.128C39.2157 200.138 36.8856 191.198 36.8428 180.311H70.3954C70.6074 184.293 71.6029 187.64 73.3819 190.352C75.1616 193.063 77.6608 195.117 80.8811 196.516C84.1428 197.914 88.0195 198.613 92.5097 198.613C96.2804 198.613 99.436 198.147 101.978 197.214C104.52 196.283 106.447 194.99 107.761 193.338C109.074 191.686 109.752 189.801 109.795 187.683C109.752 185.692 109.095 183.954 107.825 182.471C106.596 180.947 104.562 179.591 101.724 178.404C98.8856 177.176 95.0518 176.032 90.2217 174.973L77.2586 172.177C65.7353 169.677 56.648 165.505 49.9969 159.659C43.3879 153.77 40.1052 145.742 40.1473 135.574C40.1052 127.314 42.3082 120.09 46.7563 113.905C51.2473 107.677 57.4533 102.827 65.3751 99.3526C73.3398 95.8789 82.4691 94.1421 92.7638 94.1421C103.271 94.1421 112.357 95.9 120.025 99.4165C127.693 102.933 133.603 107.889 137.755 114.286C141.949 120.641 144.067 128.076 144.11 136.591H110.303Z" fill="#83D0DA"/>
<path d="M191.158 28V228H142.286V28H191.158Z" fill="#E6CC78"/>
</g>
<defs>
<clipPath id="clip0_99_451">
<rect width="200" height="200" fill="white" transform="translate(28 28)"/>
</clipPath>
</defs>
</svg>
