<svg width="256" height="256" viewBox="0 0 256 256" fill="none" xmlns="http://www.w3.org/2000/svg">
<rect width="256" height="256" fill="#232932"/>
<g clip-path="url(#clip0_201_288)">
<path d="M192.964 67.2741C192.827 66.2741 191.952 65.7207 191.23 65.6597C190.509 65.5994 175.247 64.4659 175.247 64.4659C175.247 64.4659 164.648 53.9214 163.484 52.7542C162.32 51.5878 160.047 51.9426 159.164 52.2029C159.034 52.2412 156.848 52.9173 153.233 54.0385C149.692 43.8289 143.443 34.4467 132.45 34.4467C132.147 34.4467 131.834 34.459 131.522 34.4768C128.395 30.3337 124.523 28.5337 121.177 28.5337C95.5691 28.5337 83.3346 60.6125 79.4987 76.9138C69.5479 80.0036 62.4789 82.2001 61.576 82.4844C56.0216 84.2303 55.846 84.4056 55.1167 89.6501C54.5678 93.6207 40.0347 206.243 40.0347 206.243L153.28 227.505L214.64 214.204C214.64 214.204 193.099 68.2741 192.964 67.2741ZM146.974 55.9782L137.391 58.9501C137.395 58.2734 137.398 57.6077 137.398 56.8796C137.398 50.5344 136.519 45.4255 135.109 41.3755C140.773 42.0878 144.546 48.546 146.974 55.9782ZM128.082 42.6337C129.657 46.5878 130.681 52.2625 130.681 59.92C130.681 60.3118 130.678 60.67 130.674 61.0323C124.443 62.9666 117.671 65.0666 110.884 67.1734C114.695 52.4364 121.838 45.3186 128.082 42.6337ZM120.474 35.4166C121.579 35.4166 122.693 35.7926 123.758 36.5275C115.551 40.3974 106.754 50.144 103.039 69.6077L87.3961 74.4625C91.7475 59.6166 102.08 35.4166 120.474 35.4166Z" fill="#95BF46"/>
<path d="M191.23 65.6597C190.509 65.5994 175.247 64.4658 175.247 64.4658C175.247 64.4658 164.647 53.9213 163.484 52.7542C163.049 52.32 162.461 52.0974 161.848 52.0015L153.285 227.504L214.64 214.204C214.64 214.204 193.099 68.2741 192.964 67.2741C192.826 66.2741 191.952 65.7206 191.23 65.6597Z" fill="#5E8E3E"/>
<path d="M132.45 99.6333L124.884 122.185C124.884 122.185 118.255 118.64 110.13 118.64C98.2172 118.64 97.6177 126.131 97.6177 128.019C97.6177 138.319 124.412 142.266 124.412 166.392C124.412 185.373 112.398 197.596 96.198 197.596C76.7586 197.596 66.8174 185.472 66.8174 185.472L72.0224 168.24C72.0224 168.24 82.2411 177.031 90.8638 177.031C96.4981 177.031 98.79 172.585 98.79 169.337C98.79 155.902 76.8078 155.303 76.8078 133.225C76.8078 114.644 90.1174 96.6621 116.984 96.6621C127.336 96.6621 132.45 99.6333 132.45 99.6333Z" fill="white"/>
</g>
<defs>
<clipPath id="clip0_201_288">
<rect width="175" height="200" fill="white" transform="translate(40 28)"/>
</clipPath>
</defs>
</svg>
