<svg width="256" height="256" viewBox="0 0 256 256" fill="none" xmlns="http://www.w3.org/2000/svg">
<rect width="256" height="256" fill="#1068AF"/>
<path d="M104.413 38L169.062 38.1808C169.104 38.181 169.145 38.1923 169.182 38.2135C169.218 38.2347 169.249 38.2652 169.27 38.3018C169.291 38.3384 169.302 38.3799 169.302 38.4221C169.302 38.4643 169.291 38.5058 169.269 38.5423L154.446 64.2118C154.4 64.2931 154.324 64.3535 154.234 64.3809C154.145 64.4082 154.048 64.4005 153.964 64.3591C151.505 63.1361 149.003 62.3907 146.459 62.1229C144.977 61.9622 142.439 62.3818 138.846 63.3816C107.356 72.1256 76.9779 80.5437 47.7108 88.636C47.6723 88.6468 47.6314 88.6458 47.5935 88.6333C47.5555 88.6207 47.5222 88.5971 47.4977 88.5654C47.4733 88.5338 47.4588 88.4956 47.4562 88.4557C47.4536 88.4158 47.463 88.376 47.4831 88.3414C55.4996 74.3886 63.7258 60.0496 72.1618 45.3246C75.1211 40.1492 82.4925 38.1942 88.0295 38H104.413Z" fill="white"/>
<path d="M28 127.087V124.596C28.9373 120.293 31.6868 117.508 36.2485 116.241C47.6483 113.076 64.2949 108.508 86.1883 102.535C97.1818 99.536 110.744 95.9696 126.875 91.8364C129.763 91.0955 132.289 90.5666 134.454 90.2497C140.413 89.3793 145.1 92.834 147.202 98.1768C147.3 98.4268 147.8 100.299 148.702 103.794C151.215 113.507 152.746 119.381 153.295 121.416C153.332 121.551 153.341 121.692 153.32 121.831C153.3 121.969 153.25 122.102 153.174 122.219L133.992 152.776C133.982 152.793 133.976 152.812 133.977 152.831C133.978 152.851 133.984 152.869 133.996 152.885C134.008 152.9 134.024 152.911 134.043 152.917C134.061 152.923 134.081 152.923 134.099 152.917L187.614 136.688C187.735 136.652 187.837 136.57 187.898 136.462C187.959 136.353 187.975 136.225 187.942 136.105C179.515 104.004 175.043 86.9288 174.525 84.8801C173.474 80.7157 171.974 78.1916 169.082 75.3394C168.986 75.2434 168.924 75.1181 168.906 74.9827C168.888 74.8473 168.914 74.7092 168.981 74.5895L184.836 47.1324C184.843 47.1184 184.854 47.1066 184.868 47.0984C184.881 47.0903 184.897 47.0859 184.913 47.0859C184.929 47.0859 184.944 47.0903 184.958 47.0984C184.971 47.1066 184.982 47.1184 184.99 47.1324C202.054 76.8681 214.989 99.3976 223.795 114.721C225.795 118.198 227.007 121.641 227.431 125.051C227.73 127.444 227.902 128.772 227.946 129.035C228.103 129.928 227.917 131.247 227.391 132.992C226.534 135.813 224.826 137.525 222.269 138.127C221.073 138.413 220.26 138.618 219.832 138.743C218.345 139.185 185.876 148.063 122.423 165.377C120.97 165.779 119.651 166.2 118.406 166.107C114.152 165.785 110.802 164.138 108.356 161.166C107.981 160.71 107.701 160.187 107.533 159.626L99.9068 134.472C99.8798 134.385 99.8742 134.294 99.8905 134.205C99.9069 134.116 99.9446 134.033 100.001 133.963L122.851 105.441C122.929 105.344 122.985 105.231 123.017 105.111C123.049 104.991 123.055 104.866 123.035 104.744C123.016 104.621 122.971 104.504 122.903 104.401C122.836 104.297 122.748 104.209 122.644 104.142C121.818 103.607 121.073 103.433 120.408 103.62C97.4474 110.079 79.2721 115.261 65.8816 119.166C65.7996 119.191 65.7306 119.247 65.6893 119.322C65.648 119.397 65.6378 119.486 65.6607 119.568L81.7962 176.973C81.8928 177.324 82.0745 177.646 82.3251 177.91L86.3958 182.282C86.4631 182.354 86.5053 182.446 86.5162 182.543C86.527 182.641 86.5059 182.74 86.4561 182.825L72.2823 207.376C72.2558 207.422 72.2178 207.46 72.172 207.487C72.1261 207.513 72.0741 207.527 72.0211 207.527C71.9682 207.527 71.9162 207.513 71.8703 207.487C71.8245 207.46 71.7864 207.422 71.76 207.376C57.5215 182.952 44.0038 159.791 31.207 137.893C29.5511 135.059 28.4821 131.457 28 127.087Z" fill="white"/>
<path d="M92.1136 217.432H85.03L100.288 190.772C100.34 190.684 100.422 190.618 100.517 190.587C100.612 190.556 100.715 190.562 100.804 190.604C102.913 191.562 107.62 193.195 109.923 192.566C156.682 179.751 189.683 170.693 208.925 165.39C208.951 165.383 208.978 165.384 209.004 165.392C209.029 165.4 209.052 165.415 209.068 165.435C209.085 165.455 209.095 165.479 209.097 165.505C209.099 165.53 209.093 165.556 209.079 165.578C208.012 167.403 200.98 179.667 187.983 202.368C185.827 206.126 184.155 208.606 182.968 209.806C179.192 213.609 174.197 216.147 168.774 216.254C155.799 216.515 148.079 216.749 137.527 216.809C122.387 216.899 107.249 217.106 92.1136 217.432Z" fill="#12E63A"/>
</svg>
