<svg width="256" height="256" viewBox="0 0 256 256" fill="none" xmlns="http://www.w3.org/2000/svg">
<rect width="256" height="256" fill="#232932"/>
<g clip-path="url(#clip0_142_929)">
<path d="M128 217.062C177.188 217.062 217.062 177.188 217.062 128C217.062 78.8121 177.188 38.9375 128 38.9375C78.8121 38.9375 38.9375 78.8121 38.9375 128C38.9375 177.188 78.8121 217.062 128 217.062Z" stroke="white" stroke-width="20"/>
<path d="M104.279 123.07C125.628 105.628 146.512 87.5813 168.326 70.6509C156.884 88.2329 145.116 105.581 133.674 123.163C123.86 123.209 114.047 123.21 104.279 123.07ZM122.326 132.791C132.186 132.791 142 132.791 151.814 132.931C130.326 150.279 109.535 168.465 87.6742 185.349C99.1164 167.767 110.884 150.373 122.326 132.791Z" fill="white"/>
</g>
<defs>
<clipPath id="clip0_142_929">
<rect width="200" height="200" fill="white" transform="translate(28 28)"/>
</clipPath>
</defs>
</svg>
