<svg width="256" height="256" viewBox="0 0 256 256" fill="none" xmlns="http://www.w3.org/2000/svg">
<g clip-path="url(#clip0_82_206)">
<rect width="256" height="256" fill="#D7FF00"/>
<path d="M28 106.352C28 105.259 28.0646 104.246 28.1937 103.312C28.3228 102.379 28.5165 101.385 28.7748 100.332H34.7644V102.597C34.7644 105.339 35.1816 107.44 36.016 108.9C36.8504 110.36 38.1317 111.09 39.8601 111.09C42.84 111.09 44.33 109.63 44.33 106.71C44.33 105.577 44.0866 104.385 43.5999 103.134C43.1132 101.882 42.1646 100.352 40.7541 98.5445L32.7083 88.4423C31.2978 86.6147 30.2002 84.7871 29.4155 82.9594C28.6308 81.1317 28.2384 79.0954 28.2384 76.8506C28.2384 73.4733 29.2863 70.707 31.3822 68.5515C33.4781 66.396 36.3835 65.3183 40.0985 65.3183C43.0983 65.3183 45.4524 65.8596 47.1609 66.9423C48.8694 68.025 50.0763 69.3908 50.7815 71.0397C51.4868 72.6886 51.8394 74.3772 51.8394 76.1056C51.8394 77.1982 51.7549 78.2064 51.5861 79.1302C51.4172 80.054 51.2235 81.0721 51.005 82.1847H45.0452V79.7411C45.0452 77.0592 44.618 74.9931 43.7638 73.5429C42.9096 72.0926 41.6878 71.3675 40.0985 71.3675C38.6483 71.3675 37.5506 71.7698 36.8057 72.5744C36.0607 73.3789 35.6882 74.4567 35.6882 75.8076C35.6882 76.9598 35.9266 78.0078 36.4034 78.9514C36.8802 79.8951 37.4861 80.8635 38.2212 81.8568L47.1907 93.2402C48.8396 95.3659 50.0961 97.3872 50.9603 99.3042C51.8245 101.221 52.2566 103.352 52.2566 105.696C52.2566 109.213 51.1342 111.999 48.8893 114.055C46.6444 116.111 43.6545 117.139 39.9197 117.139C36.8603 117.139 34.4615 116.618 32.7232 115.575C30.9849 114.532 29.7631 113.186 29.0579 111.537C28.3526 109.888 28 108.16 28 106.352ZM68.1395 117.11C66.8284 117.11 65.5073 116.916 64.1762 116.528C62.8451 116.141 61.6184 115.351 60.4962 114.159C59.3737 112.967 58.4747 111.165 57.7992 108.751C57.1238 106.337 56.7861 103.104 56.7861 99.0511V92.6145C56.7861 88.6213 57.1337 85.4576 57.829 83.1233C58.5244 80.789 59.4383 79.0507 60.5707 77.9085C61.703 76.7661 62.9347 76.0212 64.2658 75.6735C65.5967 75.3258 66.8979 75.152 68.1694 75.152C69.4011 75.152 70.6726 75.3159 71.9837 75.6437C73.2949 75.9715 74.5067 76.6966 75.6191 77.819C76.7318 78.9415 77.6357 80.6798 78.331 83.0339C79.0263 85.3881 79.374 88.5816 79.374 92.6145V99.0511C79.374 103.044 79.0164 106.238 78.3012 108.631C77.5859 111.025 76.6622 112.833 75.5298 114.055C74.3975 115.277 73.1806 116.091 71.8793 116.499C70.578 116.906 69.3314 117.11 68.1395 117.11ZM68.1993 111.507C69.5501 111.507 70.4887 110.762 71.0153 109.272C71.5416 107.782 71.8048 105.12 71.8048 101.286V91.065C71.8048 87.2108 71.5416 84.5289 71.0153 83.019C70.4887 81.5092 69.5501 80.7543 68.1993 80.7543C66.7888 80.7543 65.7954 81.5092 65.2191 83.019C64.6431 84.5289 64.3551 87.2108 64.3551 91.065V101.286C64.3551 105.12 64.6431 107.782 65.2191 109.272C65.7954 110.762 66.7888 111.507 68.1993 111.507ZM83.9033 124.559C86.1879 124.877 88.0554 124.405 89.5057 123.144C90.9559 121.882 91.7406 119.801 91.8598 116.901L82.1453 75.6288H89.6548L93.9756 98.3358L95.227 106.173H95.4654L96.3297 98.3358L99.8161 75.6288H107.087L98.654 118.182C97.8792 122.116 96.6872 125.056 95.078 127.003C93.469 128.95 91.0652 129.923 87.8666 129.923C86.5754 129.923 85.2543 129.675 83.9033 129.178V124.559ZM111.795 62.4575H119.335V73.3939L119.096 78.8173L119.126 78.8471C119.821 77.8935 120.725 77.0443 121.838 76.2993C122.95 75.5543 124.321 75.1818 125.95 75.1818C126.586 75.1818 127.375 75.306 128.319 75.5543C129.263 75.8026 130.206 76.3887 131.15 77.3125C132.094 78.2362 132.883 79.6914 133.519 81.6781C134.155 83.6647 134.473 86.4062 134.473 89.9025V102.329C134.473 105.805 134.15 108.542 133.504 110.539C132.858 112.535 132.054 114.005 131.09 114.949C130.127 115.892 129.153 116.493 128.17 116.752C127.187 117.01 126.347 117.139 125.652 117.139C123.725 117.139 122.19 116.697 121.048 115.813C119.906 114.929 118.997 113.941 118.322 112.848L117.696 116.662H111.795V62.4575ZM119.335 107.812C119.672 108.567 120.134 109.247 120.72 109.853C121.306 110.459 122.096 110.762 123.089 110.762C123.824 110.762 124.475 110.563 125.041 110.166C125.607 109.769 126.054 109.029 126.382 107.946C126.71 106.864 126.874 105.309 126.874 103.283V88.7404C126.874 86.6942 126.715 85.1397 126.397 84.0769C126.079 83.0141 125.637 82.284 125.071 81.8866C124.505 81.4893 123.854 81.2907 123.119 81.2907C122.205 81.2907 121.441 81.5638 120.825 82.1101C120.209 82.6565 119.712 83.3071 119.335 84.062V107.812ZM140.254 99.8557V92.1079C140.254 88.9689 140.522 86.3664 141.058 84.3004C141.595 82.2343 142.305 80.5854 143.189 79.3537C144.073 78.122 145.046 77.2082 146.109 76.6122C147.172 76.0162 148.23 75.6238 149.283 75.4351C150.336 75.2464 151.299 75.152 152.173 75.152C153.981 75.152 155.65 75.5344 157.18 76.2993C158.709 77.0641 159.936 78.3753 160.86 80.2328C161.784 82.0903 162.246 84.6679 162.246 87.9657C162.246 89.6145 162.156 91.2982 161.977 93.0166C161.799 94.7351 161.56 96.2499 161.262 97.561H147.823V101.733C147.823 105.309 148.126 107.832 148.732 109.302C149.337 110.772 150.495 111.507 152.203 111.507C153.137 111.507 153.981 111.105 154.736 110.3C155.491 109.496 155.868 108.011 155.868 105.845V104.057H162.067V105.934C162.067 109.828 161.138 112.664 159.281 114.442C157.423 116.22 154.736 117.11 151.22 117.11C147.684 117.11 144.972 115.759 143.085 113.057C141.197 110.355 140.254 105.955 140.254 99.8557ZM155.213 92.4953C155.253 92.0582 155.282 91.3976 155.302 90.5135C155.322 89.6295 155.332 88.9193 155.332 88.3829C155.332 85.6612 155.044 83.7143 154.468 82.5422C153.892 81.3701 152.978 80.7741 151.727 80.7543C150.395 80.7543 149.412 81.4248 148.776 82.7657C148.141 84.1067 147.823 86.5453 147.823 90.0814V92.4953H155.213ZM175.506 93.8659C176.261 93.4886 177.076 93.1012 177.95 92.7038C178.824 92.3065 179.628 91.9788 180.364 91.7205V86.7439C180.364 85.7109 180.319 84.7474 180.229 83.8534C180.14 82.9594 179.872 82.2293 179.425 81.6631C178.978 81.097 178.218 80.8139 177.145 80.8139C176.072 80.8139 175.109 81.2509 174.255 82.125C173.4 82.9991 172.973 84.6182 172.973 86.9823V88.6212H167.222C166.864 87.0717 166.686 85.7208 166.686 84.5686C166.686 81.5092 167.689 79.1799 169.695 77.5807C171.702 75.9814 174.265 75.1818 177.384 75.1818C180.105 75.1818 182.231 75.5642 183.761 76.3291C185.29 77.0939 186.363 78.2462 186.979 79.7858C187.595 81.3254 187.903 83.2773 187.903 85.6414V116.662H182.092L181.556 113.146C180.761 114.298 179.708 115.252 178.397 116.007C177.086 116.762 175.566 117.139 173.837 117.139C172.049 117.139 170.579 116.682 169.427 115.768C168.275 114.855 167.416 113.648 166.85 112.148C166.283 110.648 166 109.014 166 107.246C166 103.869 166.805 101.182 168.414 99.185C170.023 97.1886 172.387 95.4156 175.506 93.8659ZM177.175 111.388C177.811 111.388 178.397 111.224 178.933 110.896C179.47 110.569 179.946 110.166 180.364 109.689V96.7564C179.986 96.9153 179.579 97.104 179.142 97.3227C178.705 97.5411 178.198 97.8291 177.622 98.1867C176.569 98.8424 175.586 99.8209 174.672 101.122C173.758 102.423 173.301 104.077 173.301 106.084C173.301 107.653 173.609 108.929 174.225 109.913C174.841 110.896 175.824 111.388 177.175 111.388ZM195.502 75.6288H201.253L201.998 80.0093V80.0391C203.17 78.1518 204.501 76.8655 205.991 76.1801C207.481 75.4947 208.981 75.152 210.491 75.152C212.875 75.152 214.722 75.9963 216.033 77.685C217.344 79.3736 218 81.8866 218 85.2242V116.662H210.461V86.1181C210.461 84.3103 210.183 83.0538 209.626 82.3485C209.07 81.6433 208.256 81.2907 207.183 81.2907C206.428 81.2907 205.693 81.539 204.978 82.0357C204.263 82.5323 203.617 83.2177 203.041 84.0918V116.662H195.502V75.6288Z" fill="black"/>
<path d="M28 183.055C28 181.962 28.0646 180.949 28.1937 180.015C28.3228 179.082 28.5165 178.088 28.7748 177.036H34.7644V179.3C34.7644 182.042 35.1816 184.143 36.016 185.603C36.8504 187.063 38.1317 187.793 39.8601 187.793C42.84 187.793 44.33 186.333 44.33 183.413C44.33 182.28 44.0866 181.088 43.5999 179.837C43.1132 178.585 42.1646 177.056 40.7541 175.248L32.7083 165.146C31.2978 163.318 30.2002 161.49 29.4155 159.663C28.6308 157.835 28.2384 155.799 28.2384 153.554C28.2384 150.177 29.2863 147.41 31.3822 145.255C33.4781 143.099 36.3835 142.021 40.0985 142.021C43.0983 142.021 45.4524 142.563 47.1609 143.646C48.8694 144.728 50.0763 146.094 50.7815 147.743C51.4868 149.392 51.8394 151.08 51.8394 152.809C51.8394 153.901 51.7549 154.91 51.5861 155.833C51.4172 156.757 51.2235 157.775 51.005 158.888H45.0452V156.444C45.0452 153.762 44.618 151.696 43.7638 150.246C42.9096 148.796 41.6878 148.071 40.0985 148.071C38.6483 148.071 37.5506 148.473 36.8057 149.278C36.0607 150.082 35.6882 151.16 35.6882 152.511C35.6882 153.663 35.9266 154.711 36.4034 155.655C36.8802 156.598 37.4861 157.567 38.2212 158.56L47.1907 169.943C48.8396 172.069 50.0961 174.09 50.9603 176.007C51.8245 177.925 52.2566 180.055 52.2566 182.399C52.2566 185.916 51.1342 188.702 48.8893 190.758C46.6444 192.814 43.6545 193.842 39.9197 193.842C36.8603 193.842 34.4615 193.321 32.7232 192.278C30.9849 191.235 29.7631 189.889 29.0579 188.24C28.3526 186.591 28 184.863 28 183.055ZM58.1568 142.468H77.6157V148.548H65.8747V163.775H75.0827V169.854H65.8747V187.287H77.6157V193.366H58.1568V142.468ZM93.3496 193.813C92.1179 193.813 90.772 193.634 89.312 193.276C87.8518 192.919 86.4662 192.174 85.155 191.041C83.8439 189.909 82.771 188.205 81.9365 185.931C81.1023 183.656 80.6851 180.611 80.6851 176.797V158.769C80.6851 155.709 80.9682 153.161 81.5344 151.125C82.1006 149.089 82.8456 147.46 83.7693 146.238C84.6931 145.016 85.7162 144.102 86.8384 143.497C87.9609 142.891 89.0835 142.493 90.206 142.305C91.3285 142.116 92.3665 142.021 93.32 142.021C95.9423 142.021 98.0183 142.508 99.5479 143.482C101.078 144.455 102.175 145.761 102.841 147.4C103.506 149.039 103.839 150.842 103.839 152.809C103.839 153.901 103.755 154.91 103.586 155.833C103.417 156.757 103.223 157.775 103.005 158.888H97.0447V156.444C97.0447 150.862 95.7336 148.071 93.1113 148.071C91.7007 148.071 90.623 148.682 89.878 149.903C89.133 151.125 88.7605 153.365 88.7605 156.623V179.569C88.7605 182.727 89.133 184.883 89.878 186.035C90.623 187.187 91.7802 187.764 93.3496 187.764C94.4423 187.764 95.3463 187.302 96.0615 186.378C96.7767 185.454 97.1343 183.969 97.1343 181.923V177.095H103.899V181.804C103.899 185.876 102.995 188.896 101.187 190.862C99.379 192.829 96.7666 193.813 93.3496 193.813Z" fill="black"/>
<path d="M256.24 170.667H246V256H256.24V170.667Z" fill="#3C00FF"/>
<path d="M256.24 85.333H246V170.666H256.24V85.333Z" fill="#15DD4B"/>
<path d="M256.24 0H246V85.3333H256.24V0Z" fill="#D90000"/>
</g>
<defs>
<clipPath id="clip0_82_206">
<rect width="256" height="256" fill="white"/>
</clipPath>
</defs>
</svg>
