<svg width="256" height="256" viewBox="0 0 256 256" fill="none" xmlns="http://www.w3.org/2000/svg">
<rect width="256" height="256" fill="#FF6636"/>
<path d="M220.483 201.429C214.817 210.319 201.516 214.034 182.978 211.947C178.095 188.469 176.879 163.827 179.488 140.556C180.039 135.66 180.781 130.721 181.681 125.829C214.754 154.588 230.683 185.419 220.483 201.429ZM62.2974 147.307C81.0531 153.175 98.7724 161.334 115.047 171.63C130.246 181.251 144.347 192.855 157.063 206.173C139.737 200.657 121.422 191.869 103.667 180.511C88.0493 170.511 73.8797 159.126 62.2974 147.307ZM35.5943 83.0812C40.3505 75.6118 50.3037 72.0155 63.4886 72.0155C83.6529 72.0155 111.371 80.4553 139.573 96.3087C134.094 99.4226 128.491 102.377 122.863 105.091C99.0137 116.594 73.5198 124.773 47.0636 129.44C33.1841 110.307 28.9914 93.4353 35.5943 83.0812ZM182.659 120.761C189.245 87.7024 193.98 68.5198 213.782 43.2493C214.349 42.5408 214.919 41.824 215.492 41.0988L212.87 39C212.288 39.7229 211.714 40.4458 211.153 41.1547C190.754 66.5078 173.957 76.2983 144.118 93.6897L144.087 93.7079C93.7581 64.718 45.56 59.0901 31.827 80.6678C23.9883 92.9599 28.2773 111.446 43.903 132.719C46.9548 136.879 50.3748 141.047 54.0654 145.102C66.7049 159.059 83.0239 172.61 101.262 184.288C121.711 197.373 142.931 207.126 162.623 212.495C169.171 214.293 175.499 215.568 181.43 216.291C185.299 216.766 188.972 217 192.435 217C207.642 217 218.754 212.468 224.25 203.844V203.842C236.066 185.292 219.351 151.956 182.659 120.761Z" fill="white"/>
</svg>
