<svg width="256" height="256" viewBox="0 0 256 256" fill="none" xmlns="http://www.w3.org/2000/svg">
<rect width="256" height="256" fill="#77BC1F"/>
<g clip-path="url(#clip0_49_1286)">
<path d="M209.956 38.3798C207.157 45.1003 203.571 51.4655 199.273 57.3423C180.451 38.5313 154.931 27.9629 128.32 27.9595C73.2875 27.9595 28 73.2845 28 128.378C27.9998 141.983 30.7618 155.446 36.1186 167.952C41.4755 180.457 49.3157 191.745 59.1641 201.131L62.8641 204.413C80.9468 219.659 103.834 228.027 127.486 228.041C179.809 228.041 223.794 187.041 227.519 134.786C230.255 109.206 222.752 76.8532 209.956 38.3798ZM73.4172 201.703C72.6117 202.696 71.5949 203.496 70.441 204.046C69.2871 204.596 68.0251 204.881 66.7469 204.881C62.0312 204.881 58.1734 201 58.1734 196.284C58.1734 191.569 62.0563 187.689 66.7469 187.689C68.7 187.689 70.6297 188.366 72.1406 189.617C75.8141 192.586 76.3875 198.03 73.4172 201.703ZM209.541 171.644C184.786 204.647 131.916 193.524 98.0156 195.113C98.0156 195.113 91.9969 195.478 85.9516 196.467C85.9516 196.467 88.2172 195.503 91.1625 194.383C114.953 186.1 126.209 184.484 140.67 177.061C167.9 163.203 194.817 132.883 200.42 101.338C190.05 131.684 158.623 157.759 129.988 168.361C110.367 175.603 74.9281 182.636 74.9281 182.636L73.4953 181.88C49.3672 170.133 48.6359 117.853 92.4906 100.974C111.695 93.5751 130.066 97.6392 150.808 92.6892C172.956 87.4282 198.57 70.8079 208.992 49.136C220.666 83.8079 234.712 138.092 209.541 171.644Z" fill="white"/>
</g>
<defs>
<clipPath id="clip0_49_1286">
<rect width="200" height="200" fill="white" transform="translate(28 28)"/>
</clipPath>
</defs>
</svg>
