<svg width="256" height="256" viewBox="0 0 256 256" fill="none" xmlns="http://www.w3.org/2000/svg">
<rect width="256" height="256" fill="#003B57"/>
<g clip-path="url(#clip0_262_57)">
<path d="M102.775 127.176C99.9863 127.176 97.7305 128 95.9668 129.691C94.2031 131.34 93.3418 133.525 93.3418 136.205C93.2956 137.493 93.5078 138.777 93.9658 139.981C94.4239 141.186 95.1183 142.285 96.0078 143.213C96.9102 144.203 98.7148 145.522 101.422 147.212C104.703 149.274 106.918 150.923 107.984 152.16C109.01 153.479 109.502 154.798 109.502 156.241C109.502 158.097 108.887 159.622 107.615 160.777C106.184 161.945 104.37 162.534 102.529 162.426C101.415 162.437 100.31 162.222 99.2812 161.793C98.2522 161.363 97.3205 160.729 96.5423 159.927C95.7641 159.126 95.1556 158.174 94.7535 157.129C94.3515 156.085 94.1643 154.969 94.2031 153.85H93.1777V163.291H94.2031C94.5313 162.384 94.9414 161.931 95.5156 161.931C95.8027 161.931 96.459 162.096 97.4434 162.467C99.9043 163.333 101.914 163.786 103.473 163.786C104.77 163.813 106.059 163.57 107.258 163.074C108.458 162.577 109.543 161.837 110.445 160.9C112.132 159.274 113.164 157.082 113.346 154.74C113.528 152.398 112.845 150.071 111.43 148.202C110.199 146.553 107.738 144.656 104.047 142.43C101.764 141.214 99.687 139.642 97.8945 137.771C96.9512 136.534 96.459 135.256 96.459 133.772C96.459 132.205 97.0742 130.886 98.1816 129.979C99.3301 129.031 100.848 128.536 102.693 128.536C104.826 128.536 106.59 129.155 107.984 130.433C109.338 131.669 110.158 133.484 110.404 135.71H111.43V127.588H110.486C110.427 127.88 110.316 128.16 110.158 128.412C110.035 128.536 109.871 128.577 109.584 128.577C108.981 128.518 108.388 128.379 107.82 128.165C106.201 127.575 104.497 127.255 102.775 127.217V127.176ZM136.572 127.176C133.339 127.144 130.156 127.975 127.346 129.582C124.536 131.19 122.2 133.518 120.576 136.328C118.708 139.544 117.882 143.264 118.213 146.973C118.544 150.681 120.015 154.194 122.422 157.025C125.293 160.405 128.697 162.508 132.676 163.333C133.537 163.786 134.85 165.023 136.531 167.043C138.459 169.228 140.059 170.877 141.412 171.826C144.067 173.751 147.288 174.724 150.559 174.588C152.732 174.588 154.66 174.217 156.301 173.475L155.932 172.527C154.673 173.01 153.316 173.177 151.979 173.012C150.642 172.846 149.366 172.354 148.262 171.578C146.785 170.548 144.857 168.651 142.602 165.806C141.936 164.906 141.195 164.065 140.387 163.291C144.734 162.467 148.303 160.323 151.051 156.942C153.776 153.722 155.261 149.626 155.234 145.398C155.281 142.98 154.824 140.579 153.892 138.349C152.959 136.119 151.572 134.111 149.82 132.453C148.071 130.718 145.994 129.354 143.712 128.44C141.429 127.527 138.988 127.083 136.531 127.134L136.572 127.176ZM157.654 127.176L157.695 128.289C159.951 128.289 161.223 128.99 161.51 130.35C161.633 130.804 161.674 131.711 161.674 132.989V157.561C161.674 159.416 161.387 160.57 160.854 161.106C160.402 161.601 159.541 161.931 158.311 162.055L158.27 163.126H180.869L181.443 157.561H180.418C180.131 159.086 179.475 160.158 178.367 160.777C176.554 161.542 174.587 161.867 172.625 161.725H170.492C168.031 161.725 166.596 160.818 166.186 159.004C166.104 158.633 166.104 158.262 166.104 157.849L166.186 132.989C166.186 131.175 166.391 129.938 166.883 129.319C167.375 128.742 168.236 128.371 169.508 128.289L169.426 127.176H157.654ZM136.9 128.536C138.725 128.497 140.532 128.896 142.172 129.699C143.813 130.502 145.24 131.686 146.334 133.154C148.921 136.812 150.194 141.247 149.943 145.728C149.943 150.799 148.713 154.84 146.293 157.891C145.139 159.358 143.658 160.533 141.97 161.321C140.281 162.109 138.433 162.487 136.572 162.426C132.676 162.426 129.518 160.859 127.139 157.726C124.591 154.186 123.305 149.887 123.488 145.522C123.488 140.369 124.719 136.246 127.18 133.154C129.6 130.062 132.84 128.536 136.9 128.536ZM188.949 133.813C188.416 133.813 187.965 134.019 187.678 134.391C187.35 134.803 187.268 135.215 187.35 135.792C187.48 136.351 187.799 136.846 188.252 137.194C188.703 137.606 189.236 137.771 189.77 137.771C190.303 137.771 190.713 137.565 191 137.194C191.287 136.782 191.41 136.328 191.287 135.792C191.164 135.215 190.877 134.762 190.467 134.391C190.048 134.019 189.508 133.814 188.949 133.813ZM203.879 137.606C202.936 141.234 200.885 143.172 197.768 143.502L197.809 144.533H201.459L201.377 156.819C201.377 158.921 201.459 160.323 201.582 161.024C201.992 162.755 203.059 163.621 204.904 163.621C207.611 163.621 210.4 161.972 213.354 158.674L212.451 157.932C210.318 160.076 208.473 161.148 206.832 161.148C205.807 161.148 205.191 160.57 204.945 159.416L204.863 158.427V144.533H210.482L210.4 142.884H204.904V137.606H203.879ZM225.371 142.224C222.254 142.224 219.752 143.749 217.783 146.759C216.817 148.224 216.158 149.872 215.848 151.602C215.537 153.331 215.582 155.107 215.979 156.819C216.299 158.76 217.268 160.535 218.727 161.848C220.191 163.056 222.043 163.686 223.936 163.621C225.863 163.621 228.611 163.126 229.719 162.096C230.867 161.106 231.934 159.498 232.918 157.272L232.098 156.448C231.393 157.71 230.378 158.771 229.151 159.528C227.923 160.286 226.523 160.716 225.084 160.777C221.803 160.777 219.834 159.004 219.096 155.417L218.891 153.974C222.046 153.634 225.065 152.499 227.668 150.676C229.637 149.109 231.605 147.419 231.236 145.687C231.029 144.691 230.458 143.809 229.637 143.213C228.816 142.554 226.602 142.224 225.371 142.224ZM191.328 142.348L184.643 143.914V145.11L186.98 144.821C188.088 144.821 188.744 145.316 188.949 146.347C189.031 146.676 189.072 147.171 189.113 147.748L189.031 158.798C189.031 160.323 188.826 161.189 188.498 161.477C188.17 161.725 187.268 161.89 185.791 161.89V162.92H196.414V161.89C194.896 161.89 193.953 161.766 193.543 161.519C193.133 161.312 192.805 160.9 192.682 160.282C192.6 159.787 192.559 159.004 192.518 157.932L192.559 142.348H191.328ZM223.689 144.409C224.346 144.409 224.92 144.656 225.576 145.151C226.143 145.544 226.551 146.13 226.725 146.8C227.299 149.686 224.715 151.748 218.932 152.861C218.727 150.856 219.112 148.835 220.039 147.048C220.982 145.275 222.213 144.409 223.689 144.409Z" fill="white"/>
<path d="M87.7637 85.1228H29.9727C26.1582 85.1228 23 88.2973 23 92.1315V156.118C23 159.993 26.1582 163.209 30.0137 163.209H68.0352C67.625 144.161 74.0644 107.262 87.7227 85.0815L87.7637 85.1228Z" fill="#0F80CC"/>
<path d="M85.6719 87.1841H29.9727C27.3066 87.1841 25.0508 89.4104 25.0508 92.1315V151.5C37.6426 146.635 56.5508 142.43 69.6348 142.636C73.6575 123.795 79.0029 105.265 85.6309 87.1841H85.6719Z" fill="url(#paint0_linear_262_57)"/>
<path d="M101.217 83.02C97.2794 79.4744 92.4805 80.8762 87.7637 85.0814C87.0368 85.7375 86.3389 86.4253 85.6719 87.1428C77.5919 95.8007 70.086 111.756 67.7481 123.918C68.8159 126.251 69.6141 128.7 70.127 131.216L70.4551 132.659L70.086 131.504C69.9783 131.229 69.8689 130.954 69.7579 130.68C68.9491 128.982 68.0734 127.318 67.1329 125.691L65.6973 130.226C67.543 133.607 68.6915 139.461 68.6915 139.461L68.1172 137.771C67.7071 136.575 65.6563 132.947 65.1641 132.123C64.3438 135.215 64.0157 137.317 64.3028 137.812C64.877 138.802 65.4102 140.492 65.9434 142.347C66.7407 145.75 67.3704 149.189 67.8301 152.654C67.7071 156.2 67.7891 159.91 68.0352 163.25C68.2021 166.732 68.851 170.173 69.9629 173.474L70.5782 173.145C69.195 168.186 68.6542 163.029 68.9786 157.89C69.3477 148.614 71.4395 137.482 75.377 125.856C81.9395 108.334 91.127 94.2753 99.4942 87.5139C91.8653 94.5227 81.5294 116.951 78.4122 125.279C75.1593 133.831 72.6882 142.662 71.0294 151.665C73.5723 143.831 81.8575 140.451 81.8575 140.451C81.8575 140.451 85.877 135.421 90.6348 128.247C87.5708 128.905 84.5448 129.731 81.5704 130.721L78.6583 131.958C78.6583 131.958 86.0821 127.423 92.4805 125.361C101.34 111.426 110.856 91.6779 101.217 83.02Z" fill="white"/>
</g>
<defs>
<linearGradient id="paint0_linear_262_57" x1="3522.89" y1="215.816" x2="3522.89" y2="6158.59" gradientUnits="userSpaceOnUse">
<stop stop-color="#97D9F6"/>
<stop offset="0.92" stop-color="#0F80CC"/>
<stop offset="1" stop-color="#0F80CC"/>
</linearGradient>
<clipPath id="clip0_262_57">
<rect width="210" height="94" fill="white" transform="translate(23 81)"/>
</clipPath>
</defs>
</svg>
