<svg width="256" height="256" viewBox="0 0 256 256" fill="none" xmlns="http://www.w3.org/2000/svg">
<rect width="256" height="256" fill="#E27152"/>
<g clip-path="url(#clip0_93_227)">
<path fill-rule="evenodd" clip-rule="evenodd" d="M80.8854 171.851C80.9545 171.749 80.9945 171.63 81.0012 171.507C81.0079 171.384 80.9809 171.262 80.9233 171.153C80.8656 171.044 80.7794 170.953 80.6739 170.89C80.5684 170.826 80.4476 170.793 80.3244 170.793H40.4878C38.8467 170.793 37.2215 170.471 35.7054 169.843C34.1892 169.215 32.8117 168.295 31.6519 167.135C30.492 165.974 29.5724 164.597 28.9458 163.081C28.3192 161.565 27.9978 159.941 28 158.301L28.0488 100.359C28.0488 97.9066 28.6927 95.5008 29.9122 93.3778L51.1903 56.3131C52.2921 54.3945 53.881 52.8005 55.7966 51.692C57.7121 50.5835 59.8865 49.9999 62.1 50H191.222C192.557 49.9995 193.867 50.3563 195.017 51.0333C196.167 51.7103 197.115 52.6827 197.762 53.8495C198.408 55.0163 198.731 56.335 198.695 57.6684C198.659 59.0018 198.267 60.3013 197.559 61.4319L183.673 83.6131C183.466 83.9452 183.351 84.3267 183.34 84.7181C183.33 85.1095 183.425 85.4966 183.615 85.8391C183.804 86.1816 184.083 86.467 184.42 86.6658C184.758 86.8646 185.142 86.9695 185.534 86.9696H216.993C219.912 86.9696 222.712 88.1285 224.776 90.1915C226.84 92.2545 228 95.0525 228 97.97V153.567C228 159.775 226.424 165.891 223.422 171.327C219.637 178.181 213.495 187.892 209.624 194.902C208.137 197.597 205.953 199.845 203.3 201.409C200.648 202.974 197.624 203.799 194.544 203.799H73.361C71.9974 203.8 70.6593 203.43 69.491 202.727C68.3227 202.024 67.3687 201.016 66.7317 199.811C66.0938 198.609 65.7957 197.256 65.8696 195.898C65.9436 194.54 66.3866 193.227 67.1512 192.101C72.4342 184.309 78.7781 174.963 80.8854 171.851ZM99.5634 166.03C98.3147 166.029 97.0839 166.327 95.9751 166.901C94.8663 167.475 93.912 168.308 93.1927 169.328C89.1659 175.039 80.9342 186.712 76.7903 192.582C76.5525 192.918 76.412 193.314 76.3839 193.725C76.3558 194.136 76.4414 194.548 76.6311 194.913C76.8209 195.279 77.1076 195.586 77.46 195.8C77.8124 196.015 78.2168 196.128 78.6293 196.128H191.744C193.791 196.127 195.802 195.586 197.573 194.56C199.344 193.534 200.813 192.06 201.832 190.285C204.79 185.155 209.868 177.674 212.915 172.387C213.287 171.742 213.483 171.01 213.482 170.265C213.482 169.521 213.285 168.789 212.911 168.145C212.538 167.5 212.001 166.965 211.355 166.594C210.709 166.223 209.977 166.028 209.232 166.03H99.5634ZM67.6683 133.655C65.5656 133.662 63.4919 134.146 61.6034 135.071C59.715 135.995 58.0609 137.335 56.7659 138.991L43.3781 156.102C42.876 156.743 42.5645 157.513 42.479 158.323C42.3935 159.132 42.5375 159.95 42.8945 160.682C43.2515 161.414 43.8073 162.031 44.4982 162.462C45.1892 162.893 45.9877 163.122 46.8025 163.122H85.9C86.5763 161.695 87.6439 160.489 88.9789 159.644C90.3139 158.799 91.8614 158.35 93.4415 158.349H169.005C170.525 158.35 172.02 157.961 173.346 157.22C174.673 156.478 175.786 155.408 176.581 154.113L186.861 137.331C187.11 136.924 187.245 136.458 187.253 135.981C187.262 135.504 187.143 135.034 186.909 134.619C186.675 134.203 186.334 133.857 185.922 133.617C185.509 133.377 185.041 133.251 184.563 133.253L67.6683 133.655ZM187.763 152.112C187.377 152.73 187.163 153.44 187.144 154.168C187.125 154.897 187.302 155.617 187.656 156.254C188.01 156.891 188.529 157.422 189.157 157.791C189.786 158.159 190.503 158.353 191.232 158.352H213.159C214.851 158.352 216.476 157.677 217.671 156.49C218.866 155.29 219.539 153.669 219.539 151.975V100.895C219.538 99.2379 218.879 97.6489 217.707 96.4773C216.534 95.3058 214.944 94.6477 213.285 94.6477H111.002C109.115 94.6473 107.257 95.1232 105.603 96.0312C103.948 96.9392 102.549 98.25 101.537 99.842C97.9073 105.546 93.6829 114.643 90.1098 120.261C89.799 120.751 89.6255 121.315 89.6074 121.895C89.5892 122.475 89.7271 123.049 90.0067 123.558C90.2862 124.066 90.6972 124.49 91.1967 124.786C91.6961 125.081 92.2659 125.238 92.8464 125.238H189.971C191.41 125.239 192.822 125.623 194.062 126.353C195.302 127.082 196.325 128.13 197.023 129.387C197.722 130.644 198.071 132.065 198.035 133.502C198 134.94 197.58 136.342 196.82 137.562L187.763 152.112ZM169.902 86.972C170.744 86.972 171.524 86.5479 171.985 85.8459L186.515 63.6086C186.793 63.1824 186.952 62.6889 186.973 62.1803C186.994 61.6716 186.877 61.1667 186.635 60.719C186.392 60.2712 186.033 59.8972 185.596 59.6365C185.158 59.3759 184.658 59.2382 184.149 59.2381H73.4927C71.9276 59.2378 70.3778 59.5456 68.9319 60.144C67.4859 60.7424 66.172 61.6197 65.0653 62.7257C63.9587 63.8316 63.0809 65.1447 62.4821 66.5898C61.8833 68.0348 61.5753 69.5837 61.5756 71.1477V113.268C61.5758 114.909 61.9092 116.533 62.5556 118.042C63.2021 119.55 64.1482 120.912 65.3367 122.045C66.5251 123.177 67.9312 124.057 69.4698 124.631C71.0084 125.204 72.6475 125.46 74.2878 125.382H75.8488C75.8903 125.046 88.4634 103.354 95.4025 92.7221C96.5549 90.9565 98.1297 89.506 99.9844 88.502C101.839 87.498 103.915 86.9721 106.024 86.972H169.902Z" fill="#232932"/>
</g>
<defs>
<clipPath id="clip0_93_227">
<rect width="200" height="156" fill="white" transform="translate(28 50)"/>
</clipPath>
</defs>
</svg>
