<svg width="256" height="256" viewBox="0 0 256 256" fill="none" xmlns="http://www.w3.org/2000/svg">
<rect width="256" height="256" fill="#232932"/>
<g clip-path="url(#clip0_148_2)">
<path d="M183.763 206.375V157.728H205.423V227.994H43V157.728H64.6597V206.375H183.763Z" fill="#BCBBBB"/>
<path d="M167.526 168.538L171.856 152.319L84.6857 134.49L80.897 152.319L167.526 168.538ZM92.8143 110.161L174.021 147.999L181.598 131.78L100.392 93.952L92.8143 110.161ZM115.546 70.1634L183.763 127.46L195.139 113.951L126.381 56.6542L115.005 70.1634H115.546ZM159.407 28.0059L144.784 38.8152L198.386 110.701L213 99.8916L159.407 28.0059ZM80.897 190.156H167.526V173.947H80.897V190.156Z" fill="#F48024"/>
</g>
<defs>
<clipPath id="clip0_148_2">
<rect width="170" height="200" fill="white" transform="translate(43 28)"/>
</clipPath>
</defs>
</svg>
