<svg width="256" height="256" viewBox="0 0 256 256" fill="none" xmlns="http://www.w3.org/2000/svg">
<rect width="256" height="256" fill="#232932"/>
<path d="M33.554 156.314C45.7201 196.88 83.3478 226.462 127.874 226.462C182.252 226.462 226.336 182.379 226.336 128C226.336 73.6217 182.252 29.5386 127.874 29.5386C75.6955 29.5386 32.9971 70.1324 29.6248 121.459C36.0063 132.157 38.4832 138.775 33.5478 156.314H33.554Z" fill="white"/>
<path d="M122.8 103.338L122.809 103.824L98.7169 138.825C94.8154 138.646 90.9015 139.332 87.1846 140.861C85.5666 141.519 84.0217 142.344 82.5754 143.323L29.6677 121.517C29.6677 121.517 28.4431 141.658 33.5446 156.668L70.9477 172.101C72.7938 180.495 78.5784 187.855 87.0769 191.394C93.7629 194.172 101.278 194.183 107.972 191.424C114.666 188.665 119.991 183.362 122.778 176.68C124.265 173.12 124.983 169.287 124.883 165.431L159.323 140.8L160.169 140.815C180.8 140.815 197.569 123.997 197.569 103.338C197.569 82.6799 180.831 65.923 160.169 65.8799C139.548 65.8799 122.769 82.6799 122.769 103.338H122.8ZM117.015 174.261C112.542 185.031 100.197 190.098 89.4677 185.628C84.7065 183.627 80.8473 179.945 78.6246 175.283L90.8 180.329C92.6808 181.112 94.6975 181.517 96.7348 181.52C98.7721 181.523 100.79 181.125 102.673 180.348C104.557 179.571 106.269 178.431 107.711 176.992C109.153 175.553 110.298 173.844 111.08 171.963C112.663 168.162 112.672 163.887 111.106 160.079C109.54 156.271 106.526 153.24 102.726 151.652L90.1107 146.437C94.9661 144.591 100.486 144.529 105.649 146.674C110.88 148.837 114.88 152.911 117.022 158.12C119.163 163.329 119.151 169.074 116.991 174.261M160.203 128.308C153.592 128.29 147.258 125.652 142.588 120.973C137.917 116.295 135.292 109.955 135.286 103.344C135.293 96.7347 137.92 90.3971 142.59 85.7195C147.26 81.0419 153.593 78.4055 160.203 78.3876C166.814 78.4039 173.149 81.0395 177.82 85.7173C182.492 90.3951 185.119 96.7336 185.126 103.344C185.12 109.956 182.494 116.297 177.822 120.976C173.151 125.655 166.815 128.291 160.203 128.308ZM141.532 103.305C141.528 98.3374 143.496 93.5719 147.004 90.0553C150.512 86.5387 155.273 84.5588 160.24 84.5507C170.563 84.5507 178.96 92.9507 178.96 103.305C178.962 108.273 176.992 113.038 173.481 116.554C169.971 120.07 165.208 122.047 160.24 122.052C155.273 122.045 150.513 120.066 147.005 116.551C143.496 113.035 141.53 108.271 141.532 103.305Z" fill="#232932"/>
</svg>
