<svg width="256" height="256" viewBox="0 0 256 256" fill="none" xmlns="http://www.w3.org/2000/svg">
<g clip-path="url(#clip0_93_260)">
<rect width="256" height="256" fill="white"/>
<g clip-path="url(#clip1_93_260)">
<rect y="219" width="256" height="37" fill="#77E8B9"/>
<rect width="256" height="37" fill="#77E8B9"/>
<path d="M256 143.19V188.373H203.307C198.893 188.198 194.562 187.119 190.581 185.203L189.269 184.533L176.469 177.109C174.625 176.157 172.593 175.629 170.519 175.562C168.446 175.495 166.383 175.891 164.482 176.722L163.669 177.109L147.285 186.709C146.616 187.043 146.046 187.546 145.632 188.17C145.219 188.793 144.977 189.514 144.93 190.261C144.883 191.007 145.033 191.753 145.366 192.423C145.698 193.093 146.201 193.664 146.823 194.079L147.285 194.347L181.76 214.571C185.635 216.667 189.9 217.943 194.29 218.319L195.755 218.411H256V248.533C255.979 250.402 255.265 252.197 253.997 253.571C252.729 254.944 250.997 255.799 249.135 255.969L248.491 256H7.509C5.65991 255.99 3.87865 255.302 2.50279 254.067C1.12693 252.832 0.25207 251.134 0.044 249.297L0 248.66V218.54H60.075C64.4768 218.365 68.7955 217.286 72.762 215.369L74.069 214.699L189.269 147.03C193.165 144.952 197.44 143.679 201.839 143.288L203.307 143.19H256ZM256 67.755V112.939H195.925C191.526 113.132 187.211 114.213 183.24 116.115L181.93 116.779L66.73 184.491C62.8343 186.569 58.56 187.842 54.162 188.233L52.693 188.331H0V143.147H60.075C64.4742 142.953 68.7889 141.873 72.76 139.97L74.07 139.307L189.27 71.595C193.166 69.5165 197.44 68.2435 201.838 67.852L203.307 67.755H256ZM248.49 1.25544e-07C250.349 -0.000339611 252.142 0.688857 253.522 1.93425C254.903 3.17964 255.772 4.8927 255.962 6.742L256 7.382V37.504H195.925C191.523 37.6788 187.204 38.7582 183.238 40.675L181.931 41.344L66.731 109.014C62.842 111.109 58.5645 112.385 54.163 112.761L52.693 112.853H0V67.67H52.693C57.1046 67.8642 61.4319 68.9447 65.417 70.847L66.731 71.51L79.531 78.977C81.3746 79.9287 83.4072 80.4573 85.4808 80.5242C87.5544 80.5912 89.6169 80.1948 91.518 79.364L92.331 78.977L108.715 69.334C109.374 68.9964 109.934 68.4931 110.339 67.8737C110.745 67.2543 110.982 66.54 111.028 65.801C111.074 65.0621 110.927 64.3239 110.601 63.6591C110.275 62.9942 109.782 62.4256 109.17 62.009L74.24 41.472C70.3581 39.393 66.0962 38.1198 61.71 37.729L60.245 37.632H0V7.509C0.000153503 5.62414 0.709065 3.80825 1.986 2.42183C3.26293 1.03542 5.01451 0.179855 6.893 0.0250001L7.51 1.25544e-07H248.492H248.49Z" fill="#77E8B9"/>
</g>
</g>
<defs>
<clipPath id="clip0_93_260">
<rect width="256" height="256" fill="white"/>
</clipPath>
<clipPath id="clip1_93_260">
<rect width="256" height="256" fill="white"/>
</clipPath>
</defs>
</svg>
