<svg width="256" height="256" viewBox="0 0 256 256" fill="none" xmlns="http://www.w3.org/2000/svg">
<rect width="256" height="256" fill="#232932"/>
<g clip-path="url(#clip0_148_22)">
<path d="M53.2088 211.902L47.0078 47.1685C46.8021 41.7271 50.9862 37.1158 56.4369 36.7773L196.991 28.0199C202.539 27.6738 207.317 31.8776 207.664 37.4086C207.677 37.6168 207.684 37.8256 207.684 38.0343V217.542C207.684 223.083 203.178 227.575 197.619 227.575C197.468 227.575 197.317 227.572 197.167 227.565L62.8159 221.55C57.5834 221.316 53.4056 217.12 53.2088 211.902V211.902Z" fill="#FF4785"/>
<mask id="mask0_148_22" style="mask-type:luminance" maskUnits="userSpaceOnUse" x="47" y="28" width="161" height="200">
<path d="M53.2088 211.902L47.0078 47.1685C46.8021 41.7271 50.9862 37.1158 56.4369 36.7773L196.991 28.0199C202.539 27.6738 207.317 31.8776 207.664 37.4086C207.677 37.6168 207.684 37.8256 207.684 38.0343V217.542C207.684 223.083 203.178 227.575 197.619 227.575C197.468 227.575 197.317 227.572 197.167 227.565L62.8159 221.55C57.5834 221.316 53.4056 217.12 53.2088 211.902V211.902Z" fill="white"/>
</mask>
<g mask="url(#mask0_148_22)">
<path d="M165.653 52.531L166.613 29.5116L185.915 28L186.747 51.7386C186.757 52.024 186.685 52.3064 186.54 52.5525C186.394 52.7986 186.181 52.998 185.926 53.1272C185.67 53.2564 185.383 53.31 185.098 53.2817C184.813 53.2534 184.542 53.1443 184.317 52.9674L176.874 47.121L168.061 53.7856C167.834 53.9574 167.563 54.0614 167.279 54.0852C166.995 54.1091 166.71 54.0519 166.457 53.9203C166.205 53.7888 165.995 53.5882 165.852 53.3422C165.71 53.0962 165.641 52.8149 165.653 52.531ZM140.967 103.223C140.967 107.127 167.345 105.256 170.886 102.513C170.886 75.9291 156.577 61.9592 130.375 61.9592C104.173 61.9592 89.4927 76.1461 89.4927 97.4263C89.4927 134.49 139.667 135.2 139.667 155.416C139.667 161.092 136.879 164.461 130.746 164.461C122.756 164.461 119.597 160.392 119.968 146.56C119.968 143.559 89.4927 142.624 88.5632 146.56C86.1972 180.081 107.146 189.749 131.118 189.749C154.347 189.749 172.558 177.406 172.558 155.062C172.558 115.338 121.641 116.402 121.641 96.7172C121.641 88.7373 127.587 87.6734 131.119 87.6734C134.835 87.6734 141.525 88.3266 140.967 103.223Z" fill="white"/>
</g>
</g>
<defs>
<clipPath id="clip0_148_22">
<rect width="161" height="200" fill="white" transform="translate(47 28)"/>
</clipPath>
</defs>
</svg>
