<svg width="256" height="256" viewBox="0 0 256 256" fill="none" xmlns="http://www.w3.org/2000/svg">
<rect width="256" height="256" fill="#232932"/>
<g clip-path="url(#clip0_201_316)">
<path d="M205.36 39L205.178 39.1934C209.926 39.1934 212.831 42.8623 212.993 47.3523L213 47.7497V200.433C213 205.148 210.24 208.031 205.794 208.201L205.372 208.21H102.472L74.3006 238.554V208.017H51.6102C47.0495 208.017 43.2304 205.271 43.0106 200.835L43 200.427V47.557C43 43.0179 46.6968 39.2166 51.3991 39.0086L51.8041 39H205.36ZM152.946 70.1185H74.3006V179.039H143.559C148.841 179.039 153.928 178.066 158.621 176.898C163.007 175.995 166.876 174.065 170.394 171.919L171.143 171.456C174.418 169.505 177.171 166.792 179.165 163.548L179.553 162.893H179.353C181.305 159.398 182.288 155.31 182.288 150.448C182.288 142.865 180.523 136.83 177.001 132.162C173.289 127.693 168.396 124.579 162.139 122.83C167.106 120.719 171.232 117.025 173.871 112.327C176.418 107.658 177.789 102.797 177.789 97.7417C177.875 90.8665 175.518 84.1828 171.137 78.8742C168.984 76.3411 166.243 74.206 163.314 72.6464C160.389 71.0152 157.299 70.2265 153.72 70.1291L152.946 70.1185ZM141.704 130.995C143.965 130.995 145.663 132.095 147.173 133.94C148.571 135.862 149.299 138.187 149.247 140.561C149.247 143.319 148.301 145.526 146.797 147.001C145.22 148.366 143.32 149.256 141.245 149.376L140.764 149.389H102.503V130.995H141.704ZM138.503 94.198C140.302 94.2152 142.037 94.8669 143.402 96.0364C144.723 97.3245 145.475 99.3503 145.475 102.107C145.475 105.06 144.805 107.36 143.3 108.534L143.026 108.729C141.632 109.75 139.918 110.613 138.184 110.739L137.75 110.755H102.497V94.198H138.503Z" fill="#0AB3AF"/>
</g>
<defs>
<clipPath id="clip0_201_316">
<rect width="170" height="200" fill="white" transform="translate(43 39)"/>
</clipPath>
</defs>
</svg>
