<svg width="256" height="256" viewBox="0 0 256 256" fill="none" xmlns="http://www.w3.org/2000/svg">
<rect width="256" height="256" fill="#4945FF"/>
<path d="M220.519 33H95.165V96.9182H159.083V160.835H223V35.4827C223 34.1112 221.889 33 220.519 33Z" fill="white"/>
<path d="M156.6 96.9185H159.083V99.4012H156.6V96.9185Z" fill="white"/>
<path d="M95.1647 96.9182H156.6C157.972 96.9182 159.083 98.0294 159.083 99.3994V160.835H97.6475C97.3215 160.835 96.9987 160.771 96.6975 160.646C96.3963 160.522 96.1226 160.339 95.892 160.109C95.6614 159.878 95.4785 159.605 95.3538 159.303C95.229 159.002 95.1647 158.68 95.1647 158.354V96.9182ZM159.083 160.835H223L161.201 222.634C160.42 223.416 159.083 222.862 159.083 221.758V160.835ZM95.1647 96.9182H34.2427C33.1374 96.9182 32.5847 95.5801 33.3657 94.7991L95.1647 33V96.9182Z" fill="#9593FF"/>
</svg>
