<svg width="256" height="256" viewBox="0 0 256 256" fill="none" xmlns="http://www.w3.org/2000/svg">
<rect width="256" height="256" fill="#232932"/>
<g clip-path="url(#clip0_148_29)">
<path d="M204.572 128.479C204.572 126.138 202.844 124.788 200.723 125.458L54.8482 171.78C52.7235 172.456 51 174.904 51 177.241V224.585C51 226.926 52.7235 228.28 54.8482 227.606L200.723 181.288C202.844 180.613 204.572 178.164 204.572 175.823V128.48V128.479Z" fill="url(#paint0_linear_148_29)"/>
<path d="M51 126.97C51 129.312 52.7235 131.76 54.8482 132.435L200.745 178.761C202.869 179.436 204.593 178.082 204.593 175.745V128.398C204.593 126.06 202.869 123.612 200.745 122.937L54.8482 76.6108C52.7235 75.9361 51 77.2855 51 79.6265V126.97V126.97Z" fill="#FF9800"/>
<path d="M204.572 31.1941C204.572 28.8531 202.844 27.4983 200.723 28.1736L54.8482 74.4917C52.7235 75.1664 51 77.6146 51 79.9561V127.3C51 129.641 52.7235 130.991 54.8482 130.32L200.723 83.9977C202.844 83.323 204.572 80.8748 204.572 78.5375V31.1941Z" fill="#FF9800"/>
</g>
<defs>
<linearGradient id="paint0_linear_148_29" x1="8515.41" y1="6139.57" x2="9161.17" y2="3983.27" gradientUnits="userSpaceOnUse">
<stop stop-color="#FF9700"/>
<stop offset="0.53" stop-color="#F48E00"/>
<stop offset="1" stop-color="#D06F00"/>
</linearGradient>
<clipPath id="clip0_148_29">
<rect width="154" height="200" fill="white" transform="translate(51 28)"/>
</clipPath>
</defs>
</svg>
