<svg width="256" height="256" viewBox="0 0 256 256" fill="none" xmlns="http://www.w3.org/2000/svg">
<rect width="256" height="256" fill="#232932"/>
<g clip-path="url(#clip0_193_50)">
<path fill-rule="evenodd" clip-rule="evenodd" d="M35.7612 46.8326C33 52.2523 33 59.3446 33 73.5339V182.466C33 196.655 33 203.749 35.7612 209.167C38.1903 213.934 42.0659 217.81 46.8326 220.239C52.2523 223 59.3446 223 73.5339 223H182.466C196.655 223 203.749 223 209.167 220.239C213.934 217.81 217.81 213.934 220.239 209.167C223 203.749 223 196.655 223 182.466V73.5339C223 59.3461 223 52.2507 220.239 46.8326C217.81 42.0659 213.934 38.1903 209.167 35.7612C203.749 33 196.655 33 182.466 33H73.5339C59.3461 33 52.2492 33 46.8326 35.7612C42.0659 38.1903 38.1903 42.0659 35.7612 46.8326ZM197.666 128C197.666 89.525 178.172 58.3339 154.125 58.3339C130.078 58.3339 110.584 89.525 110.584 128H58.3339C58.3339 166.477 77.8275 197.666 101.875 197.666C125.922 197.666 145.416 166.475 145.416 128H197.666Z" fill="white"/>
</g>
<defs>
<clipPath id="clip0_193_50">
<rect width="190" height="190" fill="white" transform="translate(33 33)"/>
</clipPath>
</defs>
</svg>
