<svg width="256" height="256" viewBox="0 0 256 256" fill="none" xmlns="http://www.w3.org/2000/svg">
<rect width="256" height="256" fill="#242932"/>
<path d="M144.434 224.675C139.33 231.108 128.959 227.584 128.845 219.367L127.039 99.2017H207.844C222.477 99.2017 230.636 116.103 221.536 127.559L144.434 224.675Z" fill="url(#paint0_linear_1_57)"/>
<path d="M144.434 224.675C139.33 231.108 128.959 227.584 128.845 219.367L127.039 99.2017H207.844C222.477 99.2017 230.636 116.103 221.536 127.559L144.434 224.675Z" fill="url(#paint1_linear_1_57)" fill-opacity="0.2"/>
<path d="M111.569 31.325C116.673 24.8922 127.045 28.4156 127.158 36.6312L127.952 156.798H48.1594C33.5266 156.798 25.3672 139.897 34.4656 128.441L111.569 31.325Z" fill="#3ECF8E"/>
<defs>
<linearGradient id="paint0_linear_1_57" x1="127.046" y1="125.854" x2="198.859" y2="155.971" gradientUnits="userSpaceOnUse">
<stop stop-color="#249361"/>
<stop offset="1" stop-color="#3ECF8E"/>
</linearGradient>
<linearGradient id="paint1_linear_1_57" x1="95.2078" y1="82.261" x2="127.958" y2="143.914" gradientUnits="userSpaceOnUse">
<stop/>
<stop offset="1" stop-opacity="0"/>
</linearGradient>
</defs>
</svg>
