<svg width="256" height="256" viewBox="0 0 256 256" fill="none" xmlns="http://www.w3.org/2000/svg">
<rect width="256" height="256" fill="#232932"/>
<g clip-path="url(#clip0_262_59)">
<path d="M127.5 80.5538L174.993 106.892V96.3318L127.5 70.0549C120.436 73.9692 86.297 92.8662 80.0068 96.3318C85.8495 99.5732 147.206 133.515 184.5 154.144V164.664C179.431 167.477 127.5 196.201 127.5 196.201C108.493 185.701 89.4935 175.188 70.5002 164.664V133.128L127.5 164.664L137.007 159.405L60.993 117.37V169.944L127.5 206.719C134.055 203.09 189.141 172.614 193.986 169.923V148.906L98.9998 96.3311L127.5 80.5538ZM60.993 85.8127V106.851L155.98 159.425L127.48 175.203L79.9867 148.865V159.425L127.479 185.702C134.544 181.787 168.682 162.89 174.973 159.425C169.13 156.183 107.794 122.241 70.5002 101.591V91.0722C75.5688 88.2595 127.5 59.5365 127.5 59.5365C146.493 70.0605 165.493 80.5724 184.5 91.0722V122.609L127.5 91.0722L117.993 96.3318L193.986 138.387V85.8127L127.5 49.0174C120.925 52.6662 65.8585 83.1418 60.993 85.8127ZM127.5 28L42 75.3144V180.442L127.5 227.757L213 180.462V75.3144L127.5 28ZM203.473 175.183L127.5 217.237L51.5065 175.183V80.5739L127.5 38.5191L203.493 80.5739L203.473 175.183H203.473Z" fill="url(#paint0_linear_262_59)"/>
</g>
<defs>
<linearGradient id="paint0_linear_262_59" x1="5351.04" y1="2366.15" x2="13605.2" y2="16642.9" gradientUnits="userSpaceOnUse">
<stop stop-color="#FF00A0"/>
<stop offset="1" stop-color="#9600FF"/>
</linearGradient>
<clipPath id="clip0_262_59">
<rect width="171" height="200" fill="white" transform="translate(42 28)"/>
</clipPath>
</defs>
</svg>
