<svg width="256" height="256" viewBox="0 0 256 256" fill="none" xmlns="http://www.w3.org/2000/svg">
<rect width="256" height="256" fill="#242932"/>
<g clip-path="url(#clip0_14_192)">
<path d="M200.547 54.4624C181.989 27.8812 145.328 20.0031 118.828 36.8999L72.2782 66.5874C65.9791 70.5396 60.5743 75.763 56.4093 81.9235C52.2444 88.084 49.4111 95.0459 48.0907 102.364C47.502 105.648 47.2024 108.998 47.1969 112.358C47.2252 121.468 49.4569 130.437 53.7016 138.498C49.7225 144.549 47.0072 151.342 45.7188 158.469C44.3985 165.919 44.5834 173.641 46.2578 180.987C47.9341 188.382 51.0682 195.368 55.4766 201.537C74.036 228.116 110.78 235.995 137.195 219.1L183.698 189.411C189.993 185.454 195.391 180.223 199.546 174.057C203.7 167.89 206.518 160.922 207.82 153.602C208.419 150.309 208.718 146.97 208.714 143.623C208.702 134.53 206.498 125.574 202.289 117.514C206.268 111.469 208.985 104.682 210.277 97.5609C210.853 94.264 211.147 90.9281 211.155 87.5828C211.158 75.7163 207.45 64.146 200.55 54.4921L200.547 54.4624Z" fill="#FF3E00"/>
<path d="M114.28 204.034C111.222 204.822 108.104 205.221 104.977 205.222C99.0052 205.221 93.1231 203.772 87.8343 201C82.5454 198.228 78.0075 194.215 74.6094 189.305C70.4602 183.497 68.2312 176.536 68.2344 169.398C68.237 167.386 68.4114 165.379 68.7547 163.409C69.0343 161.927 69.4105 160.474 69.8797 159.063L70.7563 156.394L73.1313 158.2C78.644 162.247 84.8032 165.329 91.3469 167.316L93.0719 167.836L92.9094 169.561V170.456C92.9061 172.614 93.5769 174.72 94.8281 176.478C95.8393 177.975 97.2006 179.202 98.7938 180.053C100.425 180.914 102.187 181.359 103.969 181.361C104.909 181.365 105.847 181.245 106.766 181.003C107.763 180.742 108.726 180.321 109.63 179.75L156.13 149.916C157.524 149.03 158.671 147.806 159.465 146.357C160.258 144.909 160.672 143.283 160.667 141.631C160.654 139.473 159.965 137.373 158.698 135.625C157.672 134.148 156.303 132.94 154.709 132.106C153.077 131.264 151.318 130.833 149.542 130.841C148.602 130.837 147.664 130.958 146.745 131.2C145.752 131.455 144.794 131.876 143.898 132.452L126.17 143.78C123.187 145.659 120.009 147.055 116.72 147.93C109.397 149.837 101.664 149.448 94.569 146.817C87.4736 144.185 81.3576 139.438 77.0484 133.217C72.903 127.407 70.6744 120.448 70.6734 113.311C70.6766 111.303 70.8516 109.3 71.1938 107.322C71.9889 102.924 73.6892 98.7383 76.1869 95.0316C78.6845 91.3249 81.9251 88.1775 85.7031 85.7891L132.253 56.1172C135.174 54.2581 138.36 52.853 141.703 51.95C144.743 51.1717 147.868 50.778 151.006 50.7782C156.99 50.7655 162.887 52.2043 168.193 54.9711C173.499 57.7379 178.054 61.7503 181.469 66.6641C185.589 72.4879 187.79 79.4521 187.764 86.586C187.761 88.6042 187.586 90.6168 187.242 92.5922C186.964 94.0738 186.588 95.5267 186.12 96.9375L185.242 99.6063L182.867 97.8657C177.359 93.8111 171.199 90.7282 164.652 88.75L162.927 88.2141L163.089 86.4875V85.5938C163.089 83.4309 162.418 81.3212 161.17 79.5547C160.147 78.0774 158.779 76.8709 157.186 76.0391C155.557 75.1967 153.803 74.7644 152.03 74.7688C151.098 74.7888 150.17 74.9308 149.264 75.1922C148.265 75.4431 147.302 75.8651 146.403 76.4453L99.8516 106.117C98.7478 106.806 97.7718 107.758 96.9828 108.914C96.2467 109.994 95.7313 111.266 95.4781 112.628C95.3633 113.194 95.2922 113.772 95.2656 114.353C95.2645 116.506 95.9353 118.606 97.1844 120.359C98.2077 121.837 99.5744 123.043 101.167 123.875C102.796 124.718 104.552 125.149 106.325 125.144C107.265 125.147 108.203 125.027 109.122 124.784C110.121 124.531 111.085 124.11 111.986 123.533L129.747 112.139C132.729 110.256 135.907 108.86 139.197 107.989C142.255 107.202 145.373 106.804 148.5 106.802C154.472 106.801 160.356 108.247 165.648 111.016C170.939 113.785 175.481 117.795 178.884 122.703C181.539 126.423 183.422 130.635 184.425 135.093C185.428 139.551 185.529 144.165 184.723 148.663C183.933 153.062 182.234 157.25 179.736 160.957C177.238 164.664 173.995 167.811 170.214 170.195L123.745 199.867C120.759 201.756 117.574 203.157 114.28 204.034Z" fill="white"/>
</g>
<defs>
<clipPath id="clip0_14_192">
<rect width="200" height="200" fill="white" transform="translate(28 28)"/>
</clipPath>
</defs>
</svg>
