<svg width="256" height="256" viewBox="0 0 256 256" fill="none" xmlns="http://www.w3.org/2000/svg">
<rect width="256" height="256" fill="#FFB13B"/>
<g clip-path="url(#clip0_160_102)">
<path d="M71.9007 117.433C69.8107 115.342 67.1478 113.919 64.2488 113.342C61.3498 112.766 58.3449 113.062 55.6141 114.193C52.8833 115.324 50.5492 117.239 48.9071 119.697C47.2649 122.155 46.3884 125.044 46.3884 128C46.3884 130.956 47.2649 133.845 48.9071 136.303C50.5492 138.76 52.8833 140.676 55.6141 141.807C58.3449 142.938 61.3498 143.234 64.2488 142.657C67.1478 142.081 69.8107 140.657 71.9007 138.567H184.1C186.19 140.657 188.853 142.081 191.752 142.657C194.651 143.234 197.656 142.938 200.387 141.807C203.117 140.676 205.452 138.76 207.094 136.303C208.736 133.845 209.612 130.956 209.612 128C209.612 125.044 208.736 122.155 207.094 119.697C205.452 117.239 203.117 115.324 200.387 114.193C197.656 113.062 194.651 112.766 191.752 113.342C188.853 113.919 186.19 115.342 184.1 117.433H71.9007Z" fill="#FFB13B" stroke="black" stroke-width="38.009"/>
<path d="M95.804 80.8593C95.8041 77.9035 94.9276 75.0141 93.2855 72.5564C91.6434 70.0987 89.3093 68.1832 86.5785 67.052C83.8477 65.9209 80.8429 65.6249 77.9439 66.2016C75.0449 66.7782 72.382 68.2015 70.2919 70.2916C68.2018 72.3817 66.7785 75.0446 66.2019 77.9436C65.6252 80.8426 65.9212 83.8475 67.0523 86.5782C68.1835 89.309 70.099 91.6431 72.5567 93.2852C75.0144 94.9273 77.9038 95.8038 80.8596 95.8037L160.196 175.141C160.196 178.096 161.073 180.986 162.715 183.444C164.357 185.901 166.691 187.817 169.422 188.948C172.153 190.079 175.158 190.375 178.057 189.798C180.956 189.222 183.619 187.798 185.709 185.708C187.799 183.618 189.222 180.955 189.799 178.056C190.375 175.157 190.079 172.152 188.948 169.422C187.817 166.691 185.901 164.357 183.444 162.715C180.986 161.073 178.097 160.196 175.141 160.196L95.804 80.8593Z" fill="#FFB13B" stroke="black" stroke-width="38.009"/>
<path d="M138.567 71.9005C140.658 69.8104 142.081 67.1476 142.658 64.2486C143.234 61.3496 142.938 58.3447 141.807 55.6139C140.676 52.8831 138.761 50.549 136.303 48.9068C133.845 47.2647 130.956 46.3882 128 46.3882C125.044 46.3882 122.155 47.2647 119.697 48.9068C117.24 50.549 115.324 52.8831 114.193 55.6139C113.062 58.3447 112.766 61.3496 113.343 64.2486C113.919 67.1476 115.343 69.8104 117.433 71.9005V184.1C115.343 186.19 113.919 188.853 113.343 191.752C112.766 194.651 113.062 197.656 114.193 200.386C115.324 203.117 117.24 205.451 119.697 207.093C122.155 208.736 125.044 209.612 128 209.612C130.956 209.612 133.845 208.736 136.303 207.093C138.761 205.451 140.676 203.117 141.807 200.386C142.938 197.656 143.234 194.651 142.658 191.752C142.081 188.853 140.658 186.19 138.567 184.1V71.9005Z" fill="#FFB13B" stroke="black" stroke-width="38.009"/>
<path d="M175.14 95.804C178.096 95.8041 180.986 94.9276 183.443 93.2855C185.901 91.6434 187.817 89.3093 188.948 86.5785C190.079 83.8477 190.375 80.8429 189.798 77.9439C189.222 75.0449 187.798 72.382 185.708 70.2919C183.618 68.2018 180.955 66.7785 178.056 66.2019C175.157 65.6252 172.152 65.9212 169.422 67.0523C166.691 68.1835 164.357 70.099 162.715 72.5567C161.072 75.0144 160.196 77.9038 160.196 80.8596L80.8591 160.196C77.9033 160.196 75.0139 161.073 72.5562 162.715C70.0986 164.357 68.183 166.691 67.0519 169.422C65.9207 172.153 65.6248 175.158 66.2014 178.057C66.778 180.956 68.2014 183.619 70.2914 185.709C72.3815 187.799 75.0444 189.222 77.9434 189.799C80.8424 190.375 83.8473 190.079 86.5781 188.948C89.3089 187.817 91.6429 185.901 93.285 183.444C94.9272 180.986 95.8036 178.097 95.8036 175.141L175.14 95.804Z" fill="#FFB13B" stroke="black" stroke-width="38.009"/>
<path d="M71.9007 117.433C69.8107 115.342 67.1478 113.919 64.2488 113.342C61.3498 112.766 58.3449 113.062 55.6141 114.193C52.8833 115.324 50.5492 117.239 48.9071 119.697C47.2649 122.155 46.3884 125.044 46.3884 128C46.3884 130.956 47.2649 133.845 48.9071 136.303C50.5492 138.76 52.8833 140.676 55.6141 141.807C58.3449 142.938 61.3498 143.234 64.2488 142.657C67.1478 142.081 69.8107 140.657 71.9007 138.567H184.1C186.19 140.657 188.853 142.081 191.752 142.657C194.651 143.234 197.656 142.938 200.387 141.807C203.117 140.676 205.452 138.76 207.094 136.303C208.736 133.845 209.612 130.956 209.612 128C209.612 125.044 208.736 122.155 207.094 119.697C205.452 117.239 203.117 115.324 200.387 114.193C197.656 113.062 194.651 112.766 191.752 113.342C188.853 113.919 186.19 115.342 184.1 117.433H71.9007Z" fill="#FFB13B"/>
<path d="M95.804 80.8593C95.8041 77.9035 94.9276 75.0141 93.2855 72.5564C91.6434 70.0987 89.3093 68.1832 86.5785 67.052C83.8477 65.9209 80.8429 65.6249 77.9439 66.2016C75.0449 66.7782 72.382 68.2015 70.2919 70.2916C68.2018 72.3817 66.7785 75.0446 66.2019 77.9436C65.6252 80.8426 65.9212 83.8475 67.0523 86.5782C68.1835 89.309 70.099 91.6431 72.5567 93.2852C75.0144 94.9273 77.9038 95.8038 80.8596 95.8037L160.196 175.141C160.196 178.096 161.073 180.986 162.715 183.444C164.357 185.901 166.691 187.817 169.422 188.948C172.153 190.079 175.158 190.375 178.057 189.798C180.956 189.222 183.619 187.798 185.709 185.708C187.799 183.618 189.222 180.955 189.799 178.056C190.375 175.157 190.079 172.152 188.948 169.422C187.817 166.691 185.901 164.357 183.444 162.715C180.986 161.073 178.097 160.196 175.141 160.196L95.804 80.8593Z" fill="#FFB13B"/>
<path d="M138.567 71.9005C140.658 69.8104 142.081 67.1476 142.658 64.2486C143.234 61.3496 142.938 58.3447 141.807 55.6139C140.676 52.8831 138.761 50.549 136.303 48.9068C133.845 47.2647 130.956 46.3882 128 46.3882C125.044 46.3882 122.155 47.2647 119.697 48.9068C117.24 50.549 115.324 52.8831 114.193 55.6139C113.062 58.3447 112.766 61.3496 113.343 64.2486C113.919 67.1476 115.343 69.8104 117.433 71.9005V184.1C115.343 186.19 113.919 188.853 113.343 191.752C112.766 194.651 113.062 197.656 114.193 200.386C115.324 203.117 117.24 205.451 119.697 207.093C122.155 208.736 125.044 209.612 128 209.612C130.956 209.612 133.845 208.736 136.303 207.093C138.761 205.451 140.676 203.117 141.807 200.386C142.938 197.656 143.234 194.651 142.658 191.752C142.081 188.853 140.658 186.19 138.567 184.1V71.9005Z" fill="#FFB13B"/>
<path d="M175.14 95.804C178.096 95.8041 180.986 94.9276 183.443 93.2855C185.901 91.6434 187.817 89.3093 188.948 86.5785C190.079 83.8477 190.375 80.8429 189.798 77.9439C189.222 75.0449 187.798 72.382 185.708 70.2919C183.618 68.2018 180.955 66.7785 178.056 66.2019C175.157 65.6252 172.152 65.9212 169.422 67.0523C166.691 68.1835 164.357 70.099 162.715 72.5567C161.072 75.0144 160.196 77.9038 160.196 80.8596L80.8591 160.196C77.9033 160.196 75.0139 161.073 72.5562 162.715C70.0986 164.357 68.183 166.691 67.0519 169.422C65.9207 172.153 65.6248 175.158 66.2014 178.057C66.778 180.956 68.2014 183.619 70.2914 185.709C72.3815 187.799 75.0444 189.222 77.9434 189.799C80.8424 190.375 83.8473 190.079 86.5781 188.948C89.3089 187.817 91.6429 185.901 93.285 183.444C94.9272 180.986 95.8036 178.097 95.8036 175.141L175.14 95.804Z" fill="#FFB13B"/>
</g>
<defs>
<clipPath id="clip0_160_102">
<rect width="200" height="200" fill="white" transform="translate(28 28)"/>
</clipPath>
</defs>
</svg>
