<svg width="256" height="256" viewBox="0 0 256 256" fill="none" xmlns="http://www.w3.org/2000/svg">
<rect width="256" height="256" fill="#232932"/>
<path d="M128 228C101.478 228 76.043 217.464 57.2893 198.711C38.5357 179.957 28 154.522 28 128C28 101.478 38.5357 76.043 57.2893 57.2893C76.043 38.5357 101.478 28 128 28C154.522 28 179.957 38.5357 198.711 57.2893C217.464 76.043 228 101.478 228 128C228 154.522 217.464 179.957 198.711 198.711C179.957 217.464 154.522 228 128 228Z" fill="#85EA2D"/>
<path d="M89.4754 94.3933L88.6557 105.049L87.8361 115.705C86.1967 120.623 83.7377 124.721 78.8197 128C87.8361 133.738 88.6557 141.934 89.4754 150.951V164.885C90.2951 168.983 91.1148 169.803 95.2131 169.803H100.131V181.279C88.6557 182.918 79.6393 179.639 78 170.623L76.3607 159.967V148.492C75.541 138.656 73.9016 134.557 64.0656 134.557V121.442H66.5246C71.4426 120.623 73.9016 118.983 75.541 114.065L76.3607 105.049L77.1803 87.0163C78.8197 78.8195 83.7377 74.7212 92.7541 74.7212H100.131V86.1966H96.8525C90.2951 86.1966 89.4754 88.6556 89.4754 94.3933ZM102.59 120.623C100.634 120.514 98.7141 121.187 97.2538 122.494C95.7934 123.8 94.912 125.634 94.8033 127.59C94.6946 129.547 95.3676 131.466 96.6742 132.926C97.9808 134.387 99.814 135.268 101.77 135.377C105.869 135.377 109.967 132.918 109.967 128.82V128C109.967 123.902 106.689 120.623 102.59 120.623ZM128 120.623C126.043 120.623 124.167 121.4 122.784 122.784C121.4 124.167 120.623 126.043 120.623 128C120.623 132.918 123.902 135.377 128 135.377C132.918 135.377 135.377 132.098 135.377 128C135.377 123.902 132.098 120.623 128 120.623ZM153.41 120.623C151.453 120.623 149.577 121.4 148.193 122.784C146.81 124.167 146.033 126.043 146.033 128C146.033 129.956 146.81 131.833 148.193 133.216C149.577 134.6 151.453 135.377 153.41 135.377C157.508 136.197 160.787 132.098 161.607 128C161.607 123.902 157.508 120.623 153.41 120.623ZM189.475 121.442C184.557 120.623 182.098 119.803 181.279 114.885L179.639 106.688L178.82 90.2949C178 77.1802 168.984 73.0818 155.869 74.7212V86.1966H160.787C164.066 86.1966 165.705 87.0163 166.525 90.2949V99.3113L168.984 116.524C169.803 121.442 173.082 125.541 177.18 128C169.803 132.918 168.164 139.475 167.344 147.672L166.525 163.246C166.525 168.164 164.885 169.803 159.967 169.803H155.869V181.279H164.066C172.262 181.279 177.18 177.18 178.82 168.983L179.639 155.869L180.459 143.574C181.279 137.836 183.738 135.377 190.295 134.557H191.934V121.442H189.475Z" fill="#173647"/>
</svg>
