<svg width="256" height="256" viewBox="0 0 256 256" fill="none" xmlns="http://www.w3.org/2000/svg">
<rect width="256" height="256" fill="#F05237"/>
<g clip-path="url(#clip0_77_22)">
<path d="M211.2 164.231C211.656 163.281 211.656 162.375 212.15 161.431C223.344 117.481 196.719 66.0813 150.919 39C171 66.0813 178.944 98.3437 171.944 127.319C171.388 129.878 170.603 132.381 169.6 134.8C168.313 134.082 167.064 133.3 165.856 132.456C165.856 132.456 120.537 104.431 71.9374 55.3375C70.5374 53.9375 98.1124 94.5938 128.937 126.856C114.456 118.431 73.3374 89 47.6187 65.175C50.4187 70.2812 54.6499 75.425 58.8499 80.575C80.3312 108.144 108.394 141.8 142.025 167.481C118.194 182 85.0249 182.912 51.3687 167.481C42.9687 163.775 35.9374 159.081 27.9937 153.487C42.0249 175.456 63.9937 195.537 90.1687 206.287C121.487 219.856 153.25 218.912 176.137 206.287H176.631C177.537 205.831 178.487 205.337 179.431 204.431C190.631 198.8 212.6 192.75 224.737 216.113C228.031 222.656 234.087 192.288 211.2 164.231Z" fill="white"/>
</g>
<defs>
<clipPath id="clip0_77_22">
<rect width="200" height="200" fill="white" transform="translate(28 28)"/>
</clipPath>
</defs>
</svg>
