<svg width="256" height="256" viewBox="0 0 256 256" fill="none" xmlns="http://www.w3.org/2000/svg">
<rect width="256" height="256" fill="#242932"/>
<g clip-path="url(#clip0_49_1300)">
<path d="M23 129.635C23.0509 142.467 33.4217 152.974 46.166 152.974C58.9506 152.958 69.312 142.523 69.3321 129.642V126.332C69.3698 118.923 77.3547 114.334 83.7043 118.072C84.6811 118.647 85.5488 119.392 86.267 120.273H101.248C98.511 110.088 89.3436 103.012 78.8706 103C66.0857 103.021 55.7276 113.46 55.712 126.339V129.635C55.7038 134.945 51.4287 139.245 46.1586 139.245C40.8939 139.237 36.6283 134.939 36.6205 129.635C36.6206 129.274 36.5502 128.916 36.4131 128.583C36.276 128.249 36.075 127.946 35.8216 127.691C35.5682 127.435 35.2673 127.233 34.9361 127.095C34.605 126.957 34.2501 126.886 33.8917 126.886H25.7214C24.9989 126.888 24.3065 127.178 23.7963 127.693C23.286 128.209 22.9997 128.907 23 129.635ZM111.648 152.974C101.186 152.935 92.0383 145.864 89.2923 135.694H104.251C108.856 141.442 117.91 140.012 120.548 133.12C120.973 132.011 121.189 130.831 121.186 129.642V126.332C121.206 113.452 131.567 103.016 144.352 103C156.966 103 167.251 113.208 167.511 125.843L167.583 129.635C167.621 137.044 175.606 141.633 181.956 137.895C182.932 137.32 183.8 136.575 184.518 135.694H199.499C196.766 145.879 187.601 152.959 177.129 152.974C164.385 152.974 154.014 142.46 153.963 129.642L153.891 126.215V126.069C153.738 120.871 149.514 116.735 144.352 116.729C139.087 116.738 134.822 121.036 134.814 126.339V129.635C134.797 142.519 124.435 152.958 111.648 152.974ZM202.438 120.28C207.042 114.533 216.096 115.963 218.734 122.855C219.16 123.966 219.377 125.148 219.372 126.339C219.372 126.7 219.443 127.058 219.58 127.391C219.717 127.725 219.918 128.028 220.171 128.283C220.425 128.538 220.726 128.741 221.057 128.879C221.388 129.017 221.743 129.088 222.101 129.088H230.279C231.001 129.086 231.694 128.796 232.204 128.281C232.714 127.765 233 127.067 233 126.339C232.984 113.456 222.621 103.017 209.834 103C199.359 103.013 190.19 110.093 187.457 120.28H202.438Z" fill="white"/>
</g>
<defs>
<clipPath id="clip0_49_1300">
<rect width="210" height="50" fill="white" transform="translate(23 103)"/>
</clipPath>
</defs>
</svg>
