<svg width="256" height="256" viewBox="0 0 256 256" fill="none" xmlns="http://www.w3.org/2000/svg">
<rect width="256" height="256" fill="#232932"/>
<path d="M75.6541 228L214.208 148.002L214.211 108.003L75.6541 188.008V228Z" fill="url(#paint0_linear_150_61)"/>
<path opacity="0.16" d="M75.6541 228L214.208 148.002L214.211 108.003L75.6541 188.008V228Z" fill="url(#paint1_linear_150_61)"/>
<path d="M41.0048 168.004L41.0024 208.005L75.6541 228V188.008L41.0048 168.004Z" fill="url(#paint2_linear_150_61)"/>
<path opacity="0.16" d="M41.0048 168.004L41.0024 208.005L75.6541 228V188.008L41.0048 168.004Z" fill="url(#paint3_linear_150_61)"/>
<path d="M41.0047 47.9995L41 88.0009L110.289 128.002L144.934 108L41.0047 47.9995Z" fill="url(#paint4_linear_150_61)"/>
<path opacity="0.15" d="M41.0047 47.9995L41 88.0009L110.289 128.002L144.934 108L41.0047 47.9995Z" fill="url(#paint5_linear_150_61)"/>
<path d="M75.6468 188.006L41.0046 168.004L144.934 108L41.0046 47.9995L75.6444 28L214.211 108.003L75.6468 188.006Z" fill="url(#paint6_linear_150_61)"/>
<defs>
<linearGradient id="paint0_linear_150_61" x1="66.9928" y1="213" x2="222.872" y2="123.003" gradientUnits="userSpaceOnUse">
<stop stop-color="#669ABD"/>
<stop offset="1" stop-color="#77DBDB"/>
</linearGradient>
<linearGradient id="paint1_linear_150_61" x1="136.272" y1="153.001" x2="153.593" y2="183.002" gradientUnits="userSpaceOnUse">
<stop offset="0.559" stop-opacity="0"/>
<stop offset="1"/>
</linearGradient>
<linearGradient id="paint2_linear_150_61" x1="32.345" y1="183.006" x2="84.3101" y2="213.008" gradientUnits="userSpaceOnUse">
<stop stop-color="#6A8FAD"/>
<stop offset="1" stop-color="#669ABD"/>
</linearGradient>
<linearGradient id="paint3_linear_150_61" x1="66.9883" y1="183.006" x2="49.6668" y2="213.008" gradientUnits="userSpaceOnUse">
<stop offset="0.559" stop-opacity="0"/>
<stop offset="1"/>
</linearGradient>
<linearGradient id="paint4_linear_150_61" x1="32.3449" y1="63.0005" x2="136.271" y2="123.002" gradientUnits="userSpaceOnUse">
<stop stop-color="#6A8FAD"/>
<stop offset="1" stop-color="#669ABD"/>
</linearGradient>
<linearGradient id="paint5_linear_150_61" x1="92.9694" y1="77.9995" x2="75.6467" y2="108.003" gradientUnits="userSpaceOnUse">
<stop offset="0.559" stop-opacity="0"/>
<stop offset="1"/>
</linearGradient>
<linearGradient id="paint6_linear_150_61" x1="23.6838" y1="138.003" x2="179.57" y2="48.0016" gradientUnits="userSpaceOnUse">
<stop stop-color="#CCECFF"/>
<stop offset="1" stop-color="#9FECED"/>
</linearGradient>
</defs>
</svg>
