<svg width="256" height="256" viewBox="0 0 256 256" fill="none" xmlns="http://www.w3.org/2000/svg">
<rect width="256" height="256" fill="#242932"/>
<g clip-path="url(#clip0_1_91)">
<path d="M128.006 68.0031C101.339 68.0031 84.6782 81.3313 78.0063 107.998C88.0032 94.6688 99.6735 89.6703 113.003 93.0031C120.614 94.9 126.053 100.419 132.077 106.534C141.88 116.483 153.227 128 178.006 128C204.672 128 221.334 114.67 228.006 87.9969C218.006 101.333 206.34 106.334 193.008 103C185.399 101.102 179.966 95.5844 173.934 89.4688C164.138 79.5203 152.794 68.0031 128.006 68.0031ZM78.0063 128C51.3407 128 34.6782 141.33 28.0063 168.003C38.0053 154.667 49.6709 149.666 63.0032 153C70.6142 154.898 76.0532 160.416 82.0767 166.531C91.8798 176.48 103.227 187.997 128.006 187.997C154.672 187.997 171.334 174.669 178.006 148.002C168.006 161.332 156.34 166.33 143.008 162.997C135.399 161.1 129.966 155.581 123.934 149.466C114.138 139.517 102.794 128 78.0063 128Z" fill="#38BDF8"/>
</g>
<defs>
<clipPath id="clip0_1_91">
<rect width="200" height="200" fill="white" transform="translate(28 28)"/>
</clipPath>
</defs>
</svg>
