<svg width="256" height="256" viewBox="0 0 256 256" fill="none" xmlns="http://www.w3.org/2000/svg">
<rect width="256" height="256" fill="#232932"/>
<path d="M128 228C183.228 228 228 183.228 228 128C228 72.7715 183.228 28 128 28C72.7715 28 28 72.7715 28 128C28 183.228 72.7715 228 128 228Z" fill="url(#paint0_linear_88_352)"/>
<mask id="mask0_88_352" style="mask-type:luminance" maskUnits="userSpaceOnUse" x="28" y="28" width="200" height="200">
<path d="M128 228C183.228 228 228 183.228 228 128C228 72.7715 183.228 28 128 28C72.7715 28 28 72.7715 28 128C28 183.228 72.7715 228 128 228Z" fill="white"/>
</mask>
<g mask="url(#mask0_88_352)">
<path d="M54.4182 283.581C92.8185 283.581 123.948 256.592 123.948 223.299C123.948 190.007 92.8185 163.018 54.4182 163.018C16.0178 163.018 -15.1118 190.007 -15.1118 223.299C-15.1118 256.592 16.0178 283.581 54.4182 283.581Z" fill="#015064"/>
</g>
<mask id="mask1_88_352" style="mask-type:luminance" maskUnits="userSpaceOnUse" x="28" y="28" width="200" height="200">
<path d="M128 228C183.228 228 228 183.228 228 128C228 72.7715 183.228 28 128 28C72.7715 28 28 72.7715 28 128C28 183.228 72.7715 228 128 228Z" fill="white"/>
</mask>
<g mask="url(#mask1_88_352)">
<path d="M201.582 283.581C239.982 283.581 271.112 256.592 271.112 223.299C271.112 190.007 239.982 163.018 201.582 163.018C163.182 163.018 132.052 190.007 132.052 223.299C132.052 256.592 163.182 283.581 201.582 283.581Z" fill="#015064"/>
</g>
<mask id="mask2_88_352" style="mask-type:luminance" maskUnits="userSpaceOnUse" x="28" y="28" width="200" height="200">
<path d="M128 228C183.228 228 228 183.228 228 128C228 72.7715 183.228 28 128 28C72.7715 28 28 72.7715 28 128C28 183.228 72.7715 228 128 228Z" fill="white"/>
</mask>
<g mask="url(#mask2_88_352)">
<path d="M54.4182 295.899C92.8185 295.899 123.948 268.91 123.948 235.617C123.948 202.325 92.8185 175.336 54.4182 175.336C16.0178 175.336 -15.1118 202.325 -15.1118 235.617C-15.1118 268.91 16.0178 295.899 54.4182 295.899Z" fill="#015064"/>
</g>
<mask id="mask3_88_352" style="mask-type:luminance" maskUnits="userSpaceOnUse" x="28" y="28" width="200" height="200">
<path d="M128 228C183.228 228 228 183.228 228 128C228 72.7715 183.228 28 128 28C72.7715 28 28 72.7715 28 128C28 183.228 72.7715 228 128 228Z" fill="white"/>
</mask>
<g mask="url(#mask3_88_352)">
<path d="M201.582 295.899C239.982 295.899 271.112 268.91 271.112 235.617C271.112 202.325 239.982 175.336 201.582 175.336C163.182 175.336 132.052 202.325 132.052 235.617C132.052 268.91 163.182 295.899 201.582 295.899Z" fill="#015064"/>
</g>
<mask id="mask4_88_352" style="mask-type:luminance" maskUnits="userSpaceOnUse" x="28" y="28" width="200" height="200">
<path d="M128 228C183.228 228 228 183.228 228 128C228 72.7715 183.228 28 128 28C72.7715 28 28 72.7715 28 128C28 183.228 72.7715 228 128 228Z" fill="white"/>
</mask>
<g mask="url(#mask4_88_352)">
<path d="M54.4182 307.568C92.8185 307.568 123.948 280.579 123.948 247.287C123.948 213.994 92.8185 187.005 54.4182 187.005C16.0178 187.005 -15.1118 213.994 -15.1118 247.287C-15.1118 280.579 16.0178 307.568 54.4182 307.568Z" fill="#015064"/>
</g>
<mask id="mask5_88_352" style="mask-type:luminance" maskUnits="userSpaceOnUse" x="28" y="28" width="200" height="200">
<path d="M128 228C183.228 228 228 183.228 228 128C228 72.7715 183.228 28 128 28C72.7715 28 28 72.7715 28 128C28 183.228 72.7715 228 128 228Z" fill="white"/>
</mask>
<g mask="url(#mask5_88_352)">
<path d="M201.582 307.568C239.982 307.568 271.112 280.579 271.112 247.287C271.112 213.994 239.982 187.005 201.582 187.005C163.182 187.005 132.052 213.994 132.052 247.287C132.052 280.579 163.182 307.568 201.582 307.568Z" fill="#015064"/>
</g>
<mask id="mask6_88_352" style="mask-type:luminance" maskUnits="userSpaceOnUse" x="28" y="28" width="200" height="200">
<path d="M128 228C183.228 228 228 183.228 228 128C228 72.7715 183.228 28 128 28C72.7715 28 28 72.7715 28 128C28 183.228 72.7715 228 128 228Z" fill="white"/>
</mask>
<g mask="url(#mask6_88_352)">
<path fill-rule="evenodd" clip-rule="evenodd" d="M96.0528 91.6763C98.8763 103.63 101.087 115.238 102.686 126.5C104.285 137.761 104.617 150.254 103.685 163.977L120.531 160.295C115.265 141.288 112.008 128.8 110.76 122.831C109.512 116.863 106.943 106.216 103.051 90.8905L96.0528 91.6763Z" fill="url(#paint1_linear_88_352)"/>
<path fill-rule="evenodd" clip-rule="evenodd" d="M96.0301 84.7639C96.0301 84.7639 91.7623 77.7824 84.0605 75.5471C78.9262 74.0566 73.061 75.4556 66.4649 79.7438C71.6999 84.1567 76.122 86.68 79.7306 87.3135C85.144 88.2639 96.0304 84.7646 96.0304 84.7646L96.0301 84.7639Z" fill="url(#paint2_linear_88_352)"/>
<path fill-rule="evenodd" clip-rule="evenodd" d="M96.0267 84.9583C96.0267 84.9583 80.7674 82.7478 69.6369 90.9609C62.2164 96.4361 59.2222 107.222 60.6543 123.32C70.0305 114.01 76.7443 107.12 80.7964 102.648C86.8745 95.941 96.0267 84.9583 96.0267 84.9583Z" fill="url(#paint3_linear_88_352)"/>
<path fill-rule="evenodd" clip-rule="evenodd" d="M96.0301 84.7638C95.5177 77.7181 97.5351 72.4647 102.082 69.0032C106.629 65.541 111.41 63.7227 116.423 63.5482C114.724 70.4976 112.207 75.2476 108.872 77.7982C105.536 80.3491 101.256 82.6709 96.0301 84.7638Z" fill="url(#paint4_linear_88_352)"/>
<path fill-rule="evenodd" clip-rule="evenodd" d="M96.0267 84.9581C105.875 74.9223 116.059 71.4399 126.576 74.5111C137.094 77.5823 143.124 83.7206 144.665 92.9259C133.375 91.5432 125.264 90.5308 120.329 89.8887C115.395 89.2462 107.294 87.6028 96.0267 84.9581Z" fill="url(#paint5_linear_88_352)"/>
<path fill-rule="evenodd" clip-rule="evenodd" d="M96.0267 84.9583C107.381 82.1151 116.953 84.1376 124.744 91.026C132.535 97.9147 137.332 106.381 139.136 116.426C126.336 113.747 117.082 109.519 111.372 103.743C105.674 97.9813 100.536 91.6914 96.0267 84.9583Z" fill="url(#paint6_linear_88_352)"/>
<path fill-rule="evenodd" clip-rule="evenodd" d="M96.0267 84.9586C85.4585 89.7869 79.3021 97.0601 77.5576 106.778C75.813 116.497 77.1071 127.159 81.4401 138.767C89.7357 125.484 94.4529 115.857 95.5916 109.885C96.7304 103.914 96.8754 95.6045 96.0267 84.9586Z" fill="url(#paint7_linear_88_352)"/>
<path fill-rule="evenodd" clip-rule="evenodd" d="M141.486 150.854L161.305 153.994C162.483 154.405 162.976 155.215 162.784 156.426C162.593 157.636 161.863 158.318 160.596 158.473L139.091 155.067L127.263 143.231C126.601 142.257 126.638 141.387 127.375 140.621C128.111 139.854 129.031 139.693 130.135 140.138L141.486 150.854L141.486 150.854Z" fill="url(#paint8_linear_88_352)"/>
<path fill-rule="evenodd" clip-rule="evenodd" d="M158.587 154.908L158.74 153.583L158.587 154.908ZM151.893 154.014L152.046 152.689L151.893 154.014ZM145.195 152.929L145.352 151.682L145.195 152.929ZM137.43 148.546L138.259 147.736L137.43 148.546ZM133.114 144.554L133.944 143.744L133.114 144.554Z" fill="#D8D8D8"/>
</g>
<mask id="mask7_88_352" style="mask-type:luminance" maskUnits="userSpaceOnUse" x="28" y="28" width="200" height="200">
<path d="M128 228C183.228 228 228 183.228 228 128C228 72.7715 183.228 28 128 28C72.7715 28 28 72.7715 28 128C28 183.228 72.7715 228 128 228Z" fill="white"/>
</mask>
<g mask="url(#mask7_88_352)">
<path d="M128 364.142C175.62 364.142 214.224 318.21 214.224 261.549C214.224 204.889 175.62 158.956 128 158.956C80.38 158.956 41.7763 204.889 41.7763 261.549C41.7763 318.21 80.38 364.142 128 364.142Z" fill="url(#paint9_linear_88_352)"/>
</g>
<mask id="mask8_88_352" style="mask-type:luminance" maskUnits="userSpaceOnUse" x="28" y="28" width="200" height="200">
<path d="M128 228C183.228 228 228 183.228 228 128C228 72.7715 183.228 28 128 28C72.7715 28 28 72.7715 28 128C28 183.228 72.7715 228 128 228Z" fill="white"/>
</mask>
<g mask="url(#mask8_88_352)">
<path d="M208.713 91.2093C229.032 91.2093 245.504 74.7374 245.504 54.4184C245.504 34.0993 229.032 17.6274 208.713 17.6274C188.394 17.6274 171.922 34.0993 171.922 54.4184C171.922 74.7374 188.394 91.2093 208.713 91.2093Z" fill="url(#paint10_linear_88_352)"/>
</g>
<defs>
<linearGradient id="paint0_linear_88_352" x1="10028" y1="28" x2="10028" y2="14358" gradientUnits="userSpaceOnUse">
<stop stop-color="#6BDAFF"/>
<stop offset="0.31922" stop-color="#F9FFB5"/>
<stop offset="0.70627" stop-color="#FFA770"/>
<stop offset="1" stop-color="#FF7373"/>
</linearGradient>
<linearGradient id="paint1_linear_88_352" x1="-844.823" y1="1213.9" x2="224.135" y2="7175.4" gradientUnits="userSpaceOnUse">
<stop stop-color="#673800"/>
<stop offset="1" stop-color="#B65E00"/>
</linearGradient>
<linearGradient id="paint2_linear_88_352" x1="1548.76" y1="100.606" x2="1526.98" y2="1348.02" gradientUnits="userSpaceOnUse">
<stop stop-color="#2F8A00"/>
<stop offset="1" stop-color="#90FF57"/>
</linearGradient>
<linearGradient id="paint3_linear_88_352" x1="1819.81" y1="114.853" x2="1751.45" y2="4030.97" gradientUnits="userSpaceOnUse">
<stop stop-color="#2F8A00"/>
<stop offset="1" stop-color="#90FF57"/>
</linearGradient>
<linearGradient id="paint4_linear_88_352" x1="1103" y1="80.769" x2="1065.36" y2="2237.26" gradientUnits="userSpaceOnUse">
<stop stop-color="#2F8A00"/>
<stop offset="1" stop-color="#90FF57"/>
</linearGradient>
<linearGradient id="paint5_linear_88_352" x1="2534.37" y1="115.584" x2="2501.12" y2="2020.42" gradientUnits="userSpaceOnUse">
<stop stop-color="#2F8A00"/>
<stop offset="1" stop-color="#90FF57"/>
</linearGradient>
<linearGradient id="paint6_linear_88_352" x1="2278.33" y1="121.634" x2="2222.26" y2="3333.81" gradientUnits="userSpaceOnUse">
<stop stop-color="#2F8A00"/>
<stop offset="1" stop-color="#90FF57"/>
</linearGradient>
<linearGradient id="paint7_linear_88_352" x1="1050.7" y1="101.622" x2="956.356" y2="5506.31" gradientUnits="userSpaceOnUse">
<stop stop-color="#2F8A00"/>
<stop offset="1" stop-color="#90FF57"/>
</linearGradient>
<linearGradient id="paint8_linear_88_352" x1="-3403.53" y1="203.029" x2="-629.47" y2="1553.47" gradientUnits="userSpaceOnUse">
<stop stop-color="#EE2700"/>
<stop offset="1" stop-color="#FF008E"/>
</linearGradient>
<linearGradient id="paint9_linear_88_352" x1="10579.9" y1="904.398" x2="6602.94" y2="8483.73" gradientUnits="userSpaceOnUse">
<stop stop-color="#FFF400"/>
<stop offset="1" stop-color="#3C8700"/>
</linearGradient>
<linearGradient id="paint10_linear_88_352" x1="3851.01" y1="17.6274" x2="3851.01" y2="7375.81" gradientUnits="userSpaceOnUse">
<stop stop-color="#FFDF00"/>
<stop offset="1" stop-color="#FF9D00"/>
</linearGradient>
</defs>
</svg>
