<svg width="256" height="256" viewBox="0 0 256 256" fill="none" xmlns="http://www.w3.org/2000/svg">
<rect width="256" height="256" fill="#0300C3"/>
<g clip-path="url(#clip0_72_144)">
<path opacity="0.588235" d="M162.7 60L226.8 60.0997L223.6 71.0674L209.4 123.613H176.3L176.2 124.111L174.7 128.997L174.6 128.499L175.6 124.909L176.6 122.516L176.8 121.12L185.2 91.7067H148.9L148.8 91.4076L155.6 66.4809C156.107 64.7926 156.94 63.4299 158.1 62.393C159.233 61.1965 160.767 60.3988 162.7 60Z" fill="white" stroke="white"/>
<path opacity="0.588235" d="M51.5 69.9707H133.7L133.8 70.2698L133.5 70.9678L133.4 70.4692L133.5 70.1701H51.5V69.9707Z" fill="white" stroke="white"/>
<path opacity="0.588235" d="M50.1001 70.1702L50.8001 70.2699L50.1001 70.3696V70.1702Z" fill="white" stroke="white"/>
<path opacity="0.588235" d="M48.3 70.7683L48.6 70.868C47.32 71.3865 46.2534 72.1177 45.4 73.0616L44.3 74.5572L44.4 74.258L45.9 72.3636L48.3 70.7683Z" fill="white" stroke="white"/>
<path opacity="0.588235" d="M132.9 72.3635L133 72.8621H132.8L132.9 72.3635Z" fill="white" stroke="white"/>
<path opacity="0.588235" d="M132.3 74.3577L132.4 74.8562H132.2L132.3 74.3577Z" fill="white" stroke="white"/>
<path opacity="0.588235" d="M43.7 75.5542L43.8 75.8533L43.3 77.1495L43.2 76.651L43.7 75.5542Z" fill="white" stroke="white"/>
<path opacity="0.588235" d="M131.7 76.3518L131.8 76.8503H131.6L131.7 76.3518Z" fill="white" stroke="white"/>
<path opacity="0.588235" d="M43.1 77.3489L43.2 77.8474H43L43.1 77.3489Z" fill="white" stroke="white"/>
<path opacity="0.588235" d="M131.1 78.3459L131.2 78.8445H131L131.1 78.3459Z" fill="white" stroke="white"/>
<path opacity="0.588235" d="M42.7001 78.7449L42.8001 79.2434H42.6001L42.7001 78.7449Z" fill="white" stroke="white"/>
<path opacity="0.588235" d="M42.4999 79.5425L42.5999 80.041H42.3999L42.4999 79.5425Z" fill="white" stroke="white"/>
<path opacity="0.588235" d="M130.5 80.3401L130.6 80.8386H130.4L130.5 80.3401Z" fill="white" stroke="white"/>
<path opacity="0.588235" d="M42.1 80.9385L42.2 81.437H42L42.1 80.9385Z" fill="white" stroke="white"/>
<path opacity="0.588235" d="M41.9 81.7361L42 82.2346H41.8L41.9 81.7361Z" fill="white" stroke="white"/>
<path opacity="0.588235" d="M129.9 82.3342L130 82.8328L129.7 83.5307L129.6 83.0322L129.9 82.3342Z" fill="white" stroke="white"/>
<path opacity="0.588235" d="M41.4999 83.1321L41.5999 83.6306H41.3999L41.4999 83.1321Z" fill="white" stroke="white"/>
<path opacity="0.588235" d="M41.3 83.9297L41.4 84.4282H41.2L41.3 83.9297Z" fill="white" stroke="white"/>
<path opacity="0.588235" d="M129.3 84.3284L129.4 84.8269L129.1 85.5249L129 85.0263L129.3 84.3284Z" fill="white" stroke="white"/>
<path opacity="0.588235" d="M41.1 84.7273L41.2 85.2258L40.9 85.9238L40.8 85.4252L41.1 84.7273Z" fill="white" stroke="white"/>
<path opacity="0.588235" d="M40.7001 86.123L40.8001 86.6216H40.6001L40.7001 86.123Z" fill="white" stroke="white"/>
<path opacity="0.588235" d="M128.7 86.3225L128.8 86.821L128.5 87.519L128.4 87.0205L128.7 86.3225Z" fill="white" stroke="white"/>
<path opacity="0.588235" d="M40.4999 86.9209L40.5999 87.4194H40.3999L40.4999 86.9209Z" fill="white" stroke="white"/>
<path opacity="0.588235" d="M40.1 88.3167L40.2 88.8152H40L40.1 88.3167Z" fill="white" stroke="white"/>
<path opacity="0.588235" d="M128.1 88.3167L128.2 88.8152L127.9 89.5131L127.8 89.0146L128.1 88.3167Z" fill="white" stroke="white"/>
<path opacity="0.588235" d="M39.9 89.1143L40 89.6128H39.8L39.9 89.1143Z" fill="white" stroke="white"/>
<path opacity="0.588235" d="M127.5 90.3108L127.6 90.8093L127.3 91.5073L127.2 91.0087L127.5 90.3108Z" fill="white" stroke="white"/>
<path opacity="0.588235" d="M39.4999 90.5103L39.5999 91.0088H39.3999L39.4999 90.5103Z" fill="white" stroke="white"/>
<path opacity="0.588235" d="M39.3 91.3079L39.4 91.8064H39.2L39.3 91.3079Z" fill="white" stroke="white"/>
<path opacity="0.588235" d="M38.9 92.7039L39 93.2024H38.8L38.9 92.7039Z" fill="white" stroke="white"/>
<path opacity="0.588235" d="M38.7001 93.5015L38.8001 94H38.6001L38.7001 93.5015Z" fill="white" stroke="white"/>
<path opacity="0.588235" d="M38.3 94.8975L38.4 95.396H38.2L38.3 94.8975Z" fill="white" stroke="white"/>
<path opacity="0.588235" d="M38.1 95.6951L38.2 96.1936H38L38.1 95.6951Z" fill="white" stroke="white"/>
<path opacity="0.588235" d="M37.9001 96.4927L38.0001 96.9912L37.7001 97.6892L37.6001 97.1906L37.9001 96.4927Z" fill="white" stroke="white"/>
<path opacity="0.588235" d="M37.4999 97.8887L37.5999 98.3872H37.3999L37.4999 97.8887Z" fill="white" stroke="white"/>
<path opacity="0.588235" d="M37.3 98.6863L37.4 99.1848H37.2L37.3 98.6863Z" fill="white" stroke="white"/>
<path opacity="0.588235" d="M36.9 100.082L37 100.581H36.8L36.9 100.082Z" fill="white" stroke="white"/>
<path opacity="0.588235" d="M36.7001 100.88L36.8001 101.378H36.6001L36.7001 100.88Z" fill="white" stroke="white"/>
<path opacity="0.588235" d="M36.3 102.276L36.4 102.774H36.2L36.3 102.276Z" fill="white" stroke="white"/>
<path opacity="0.588235" d="M36.1 103.073L36.2 103.572H36L36.1 103.073Z" fill="white" stroke="white"/>
<path opacity="0.588235" d="M35.7001 104.469L35.8001 104.968H35.6001L35.7001 104.469Z" fill="white" stroke="white"/>
<path opacity="0.588235" d="M35.4999 105.267L35.5999 105.765H35.3999L35.4999 105.267Z" fill="white" stroke="white"/>
<path opacity="0.588235" d="M35.1 106.663L35.2 107.161H35L35.1 106.663Z" fill="white" stroke="white"/>
<path opacity="0.588235" d="M34.9 107.46L35 107.959H34.8L34.9 107.46Z" fill="white" stroke="white"/>
<path opacity="0.588235" d="M34.6999 108.258L34.7999 108.757L34.4999 109.455L34.3999 108.956L34.6999 108.258Z" fill="white" stroke="white"/>
<path opacity="0.588235" d="M34.3 109.654L34.4 110.153H34.2L34.3 109.654Z" fill="white" stroke="white"/>
<path opacity="0.588235" d="M34.1 110.452L34.2 110.95H34L34.1 110.452Z" fill="white" stroke="white"/>
<path opacity="0.588235" d="M33.7001 111.847L33.8001 112.346H33.6001L33.7001 111.847Z" fill="white" stroke="white"/>
<path opacity="0.588235" d="M33.4999 112.645L33.5999 113.144H33.3999L33.4999 112.645Z" fill="white" stroke="white"/>
<path opacity="0.588235" d="M33.1 114.041L33.2 114.54H33L33.1 114.041Z" fill="white" stroke="white"/>
<path opacity="0.588235" d="M32.9 114.839L33 115.337H32.8L32.9 114.839Z" fill="white" stroke="white"/>
<path opacity="0.588235" d="M32.4999 116.235L32.5999 116.733H32.3999L32.4999 116.235Z" fill="white" stroke="white"/>
<path opacity="0.588235" d="M32.3 117.032L32.4 117.531H32.2L32.3 117.032Z" fill="white" stroke="white"/>
<path opacity="0.588235" d="M31.9 118.428L32 118.927H31.8L31.9 118.428Z" fill="white" stroke="white"/>
<path opacity="0.588235" d="M31.7001 119.226L31.8001 119.724H31.6001L31.7001 119.226Z" fill="white" stroke="white"/>
<path opacity="0.588235" d="M31.5 120.023L31.6 120.522L31.3 121.22L31.2 120.721L31.5 120.023Z" fill="white" stroke="white"/>
<path opacity="0.588235" d="M31.1 121.419L31.2 121.918H31L31.1 121.419Z" fill="white" stroke="white"/>
<path opacity="0.588235" d="M30.9001 122.217L31.0001 122.716L30.7001 123.414L30.6001 122.915L30.9001 122.217Z" fill="white" stroke="white"/>
<path opacity="0.588235" d="M30.4999 123.613L30.5999 124.111H30.3999L30.4999 123.613Z" fill="white" stroke="white"/>
<path opacity="0.588235" d="M30.3 124.411L30.4 124.909H30.2L30.3 124.411Z" fill="white" stroke="white"/>
<path opacity="0.588235" d="M29.9 125.806L30 126.305H29.8L29.9 125.806Z" fill="white" stroke="white"/>
<path opacity="0.588235" d="M29.7001 126.604L29.8001 127.103H29.6001L29.7001 126.604Z" fill="white" stroke="white"/>
<path opacity="0.588235" d="M29.3 128L29.4 128.499H29.2L29.3 128Z" fill="white" stroke="white"/>
<path opacity="0.588235" d="M29.1 128.798L29.2 129.296H29L29.1 128.798Z" fill="white" stroke="white"/>
<path opacity="0.588235" d="M174.5 129.197L174.6 129.695L174.3 130.393L174.2 129.894L174.5 129.197Z" fill="white" stroke="white"/>
<path opacity="0.588235" d="M28.7001 130.194L28.8001 130.692H28.6001L28.7001 130.194Z" fill="white" stroke="white"/>
<path opacity="0.588235" d="M174.1 130.592L174.2 131.091L173.9 131.789L173.8 131.29L174.1 130.592Z" fill="white" stroke="white"/>
<path opacity="0.588235" d="M28.4999 130.991L28.5999 131.49H28.3999L28.4999 130.991Z" fill="white" stroke="white"/>
<path opacity="0.588235" d="M28.3 131.789L28.4 132.287L28.1 132.985L28 132.487L28.3 131.789Z" fill="white" stroke="white"/>
<path opacity="0.588235" d="M173.7 131.988L173.8 132.487L173.5 133.185L173.4 132.686L173.7 131.988Z" fill="white" stroke="white"/>
<path opacity="0.588235" d="M28.1001 133.185H103.7L104 133.484L103.7 134.182L103.6 133.683L103.7 133.384H28.1001V133.185Z" fill="white" stroke="white"/>
<path opacity="0.588235" d="M173.3 133.384L173.4 133.883L173.1 134.581L173 134.082L173.3 133.384Z" fill="white" stroke="white"/>
<path opacity="0.588235" d="M103.5 134.381L103.6 134.88L103.3 135.578L103.2 135.079L103.5 134.381Z" fill="white" stroke="white"/>
<path opacity="0.588235" d="M172.9 134.78L173 135.279L172.7 135.977L172.6 135.478L172.9 134.78Z" fill="white" stroke="white"/>
<path opacity="0.588235" d="M103.1 135.777L103.2 136.276H103L103.1 135.777Z" fill="white" stroke="white"/>
<path opacity="0.588235" d="M172.5 136.176L172.6 136.675L169.3 147.941L169.2 147.443L172.5 136.176Z" fill="white" stroke="white"/>
<path opacity="0.588235" d="M102.9 136.575L103 137.073L102.1 139.965L102 139.466L102.9 136.575Z" fill="white" stroke="white"/>
<path opacity="0.588235" d="M101.9 140.164L102 140.663L101.5 142.158L101.4 141.66L101.9 140.164Z" fill="white" stroke="white"/>
<path opacity="0.588235" d="M101.3 142.358L101.4 142.856L101.1 143.554L101 143.056L101.3 142.358Z" fill="white" stroke="white"/>
<path opacity="0.588235" d="M100.9 143.754L101 144.252L100.5 145.748L100.4 145.249L100.9 143.754Z" fill="white" stroke="white"/>
<path opacity="0.588235" d="M100.3 145.947L100.4 146.446L99.9 147.941L99.8 147.443L100.3 145.947Z" fill="white" stroke="white"/>
<path opacity="0.588235" d="M99.6999 148.141L99.7999 148.639L99.4999 149.337L99.3999 148.839L99.6999 148.141Z" fill="white" stroke="white"/>
<path opacity="0.588235" d="M169.1 148.141L169.2 148.639L168.9 149.337L168.8 148.839L169.1 148.141Z" fill="white" stroke="white"/>
<path opacity="0.588235" d="M99.3 149.537L99.4 150.035H99.2L99.3 149.537Z" fill="white" stroke="white"/>
<path opacity="0.588235" d="M168.7 149.537L168.8 150.035L168.5 150.733L168.4 150.235L168.7 149.537Z" fill="white" stroke="white"/>
<path opacity="0.588235" d="M99.1 150.334L99.2 150.833L98.9 151.531L98.8 151.032L99.1 150.334Z" fill="white" stroke="white"/>
<path opacity="0.588235" d="M168.3 150.933L168.4 151.431L168.1 152.129L168 151.631L168.3 150.933Z" fill="white" stroke="white"/>
<path opacity="0.588235" d="M98.7 151.73L98.8 152.229L98.3 153.724L98.2 153.226L98.7 151.73Z" fill="white" stroke="white"/>
<path opacity="0.588235" d="M167.9 152.328L168 152.827L167.7 153.525L167.6 153.026L167.9 152.328Z" fill="white" stroke="white"/>
<path opacity="0.588235" d="M167.5 153.724L167.6 154.223L167.3 154.921L167.2 154.422L167.5 153.724Z" fill="white" stroke="white"/>
<path opacity="0.588235" d="M98.1001 153.924L98.2001 154.422L97.7001 155.918L97.6001 155.419L98.1001 153.924Z" fill="white" stroke="white"/>
<path opacity="0.588235" d="M167.1 155.12L167.2 155.619L163.9 166.886L163.8 166.387L167.1 155.12Z" fill="white" stroke="white"/>
<path opacity="0.588235" d="M97.5 156.117L97.6 156.616L97.3 157.314L97.2 156.815L97.5 156.117Z" fill="white" stroke="white"/>
<path opacity="0.588235" d="M97.1001 157.513L97.2001 158.012L96.7001 159.507L96.6001 159.009L97.1001 157.513Z" fill="white" stroke="white"/>
<path opacity="0.588235" d="M96.5 159.707L96.6 160.205L96.1 161.701L96 161.202L96.5 159.707Z" fill="white" stroke="white"/>
<path opacity="0.588235" d="M95.9001 161.9L96.0001 162.399L95.7001 163.097L95.6001 162.598L95.9001 161.9Z" fill="white" stroke="white"/>
<path opacity="0.588235" d="M95.5 163.296L95.6 163.795L95.1 165.29L95 164.792L95.5 163.296Z" fill="white" stroke="white"/>
<path opacity="0.588235" d="M94.8999 165.49L94.9999 165.988L94.4999 167.484L94.3999 166.985L94.8999 165.49Z" fill="white" stroke="white"/>
<path opacity="0.588235" d="M163.7 167.085L163.8 167.583L163.5 168.281L163.4 167.783L163.7 167.085Z" fill="white" stroke="white"/>
<path opacity="0.588235" d="M94.3 167.683L94.4 168.182L93.9 169.677L93.8 169.179L94.3 167.683Z" fill="white" stroke="white"/>
<path opacity="0.588235" d="M163.3 168.481L163.4 168.979L163.1 169.677L163 169.179L163.3 168.481Z" fill="white" stroke="white"/>
<path opacity="0.588235" d="M93.6999 169.877L93.7999 170.375L93.4999 171.073L93.3999 170.575L93.6999 169.877Z" fill="white" stroke="white"/>
<path opacity="0.588235" d="M162.9 169.877L163 170.375L162.7 171.073L162.6 170.575L162.9 169.877Z" fill="white" stroke="white"/>
<path opacity="0.588235" d="M93.3 171.273L93.4 171.771L92.9 173.267L92.8 172.768L93.3 171.273Z" fill="white" stroke="white"/>
<path opacity="0.588235" d="M162.5 171.273L162.6 171.771L162.3 172.469L162.2 171.971L162.5 171.273Z" fill="white" stroke="white"/>
<path opacity="0.588235" d="M162.1 172.669L162.2 173.167L161.9 173.865L161.8 173.367L162.1 172.669Z" fill="white" stroke="white"/>
<path opacity="0.588235" d="M92.7 173.466L92.8 173.965L92.3 175.46L92.2 174.962L92.7 173.466Z" fill="white" stroke="white"/>
<path opacity="0.588235" d="M161.7 174.064L161.8 174.563L158.9 184.434L158.8 183.935L161.7 174.064Z" fill="white" stroke="white"/>
<path opacity="0.588235" d="M92.1 175.66L92.2 176.158L91.9 176.856L91.8 176.358L92.1 175.66Z" fill="white" stroke="white"/>
<path opacity="0.588235" d="M91.7 177.056L91.8 177.554L91.3 179.05L91.2 178.551L91.7 177.056Z" fill="white" stroke="white"/>
<path opacity="0.588235" d="M91.1001 179.249L91.2001 179.748L90.7001 181.243L90.6001 180.745L91.1001 179.249Z" fill="white" stroke="white"/>
<path opacity="0.588235" d="M90.5001 181.443L90.6001 181.941L89.7001 184.833L89.6001 184.334L90.5001 181.443Z" fill="white" stroke="white"/>
<path opacity="0.588235" d="M158.7 184.634L158.8 185.132L158.5 185.83L158.4 185.331L158.7 184.634Z" fill="white" stroke="white"/>
<path opacity="0.588235" d="M89.5 185.032L89.6 185.531L89.1 187.026L89 186.528L89.5 185.032Z" fill="white" stroke="white"/>
<path opacity="0.588235" d="M158.3 186.029L158.4 186.528L158.1 187.226L158 186.727L158.3 186.029Z" fill="white" stroke="white"/>
<path opacity="0.588235" d="M88.9 187.226L89 187.724L88.1 190.616L88 190.117L88.9 187.226Z" fill="white" stroke="white"/>
<path opacity="0.588235" d="M157.9 187.425L158 187.924L157.7 188.622L157.6 188.123L157.9 187.425Z" fill="white" stroke="white"/>
<path opacity="0.588235" d="M157.5 188.821L157.6 189.32L157.3 190.018L157.2 189.519L157.5 188.821Z" fill="white" stroke="white"/>
<path opacity="0.588235" d="M157.1 190.217L157.2 190.716L156.9 191.414L156.8 190.915L157.1 190.217Z" fill="white" stroke="white"/>
<path opacity="0.588235" d="M87.8999 190.815L87.9999 191.314L87.4999 192.809L87.3999 192.311L87.8999 190.815Z" fill="white" stroke="white"/>
<path opacity="0.588235" d="M156.7 191.613L156.8 192.111L156.5 192.809L156.4 192.311L156.7 191.613Z" fill="white" stroke="white"/>
<path opacity="0.588235" d="M87.3 193.009L87.4 193.507L86.9 195.003L86.8 194.504L87.3 193.009Z" fill="white" stroke="white"/>
<path opacity="0.588235" d="M156.3 193.009L156.4 193.507L155.5 196L86.3999 195.9L86.6999 195.202L86.7999 195.801H155.5L155.6 195.103L156.3 193.009Z" fill="white" stroke="white"/>
<path d="M51.4999 70.1702H133.3L133.4 70.6687L114.6 133.185H28.3L28.2 132.686L39.6 91.4077L42.4 80.44L42.8 79.6423L43.2 77.4488C43.7733 75.1622 44.8733 73.4007 46.5 72.1643L48.8999 70.7684L51.4999 70.1702Z" fill="white" stroke="white"/>
<path opacity="0.913725" d="M149.1 91.7068L185.2 91.8065L176.2 123.414L140.2 123.314L145 106.364L148.4 93.2024L149.1 91.7068Z" fill="white" stroke="white"/>
<path opacity="0.913725" d="M104.1 133.185L114.6 133.285L104.1 133.384V133.185Z" fill="white" stroke="white"/>
<path opacity="0.741176" d="M45.7 72.7625L45.5 73.1613" stroke="white"/>
<path opacity="0.741176" d="M127.1 91.5073L127.3 91.7067L148.8 91.8064L127.3 91.9062L127.1 91.5073Z" fill="white" stroke="white"/>
<path opacity="0.796078" d="M127.1 91.7068L127.3 91.9062H148.7L149 91.8065L148.4 93.2024L145 106.364L140.2 123.314L176 123.414L169.2 147.243L169 148.639L163.4 167.584L163.2 168.98L158 186.528L157.8 187.924L155.8 194.903L155.3 195.801H86.9L86.8 195.302L94.4 168.381L95.2 164.792L96 162.598L97.4 156.815L98.2 154.622L99 151.032L99.8 148.839L100.6 145.249L101.4 143.056L103.8 133.683L104.1 133.384H114.5L114.6 133.085L115.4 131.091L127.1 91.7068Z" fill="white" stroke="white"/>
</g>
<defs>
<clipPath id="clip0_72_144">
<rect width="200" height="136" fill="white" transform="translate(28 60)"/>
</clipPath>
</defs>
</svg>
