<svg width="256" height="256" viewBox="0 0 256 256" fill="none" xmlns="http://www.w3.org/2000/svg">
<rect width="256" height="256" fill="#242932"/>
<g clip-path="url(#clip0_1_20)">
<path d="M162.753 100.73C162.708 105.751 160.681 110.551 157.114 114.086C153.547 117.621 148.729 119.604 143.707 119.604C138.685 119.604 133.867 117.621 130.3 114.086C126.733 110.551 124.706 105.751 124.661 100.73C124.661 90.2077 133.188 81.6812 143.709 81.6812C148.761 81.682 153.605 83.6893 157.176 87.2615C160.747 90.8337 162.754 95.6783 162.753 100.73Z" fill="#FFC131"/>
<path d="M92.6234 155.27C92.6234 150.218 94.6304 145.373 98.2028 141.801C101.775 138.228 106.62 136.221 111.673 136.221C116.725 136.221 121.57 138.228 125.142 141.801C128.715 145.373 130.722 150.218 130.722 155.27C130.722 165.792 122.195 174.319 111.673 174.319C101.152 174.319 92.6234 165.792 92.6234 155.27Z" fill="#24C8DB"/>
<path d="M183.181 161.808C175.531 166.755 167.019 170.218 158.089 172.019C159.953 166.632 160.902 160.971 160.897 155.27C160.899 153.171 160.773 151.073 160.519 148.989C164.362 147.651 168.032 145.858 171.45 143.649C179.715 138.307 186.262 130.692 190.303 121.719C193.325 115.009 194.863 107.725 194.811 100.366C194.759 93.0074 193.118 85.7464 190.001 79.08C186.884 72.4136 182.364 66.499 176.75 61.7406C171.136 56.9822 164.56 53.4923 157.473 51.5095C147.996 48.8609 137.955 49.004 128.556 51.9217C119.158 54.8394 110.801 60.4076 104.489 67.9579C103.682 68.9241 102.911 69.9196 102.177 70.9423C92.4843 72.0195 83.0503 74.7597 74.2891 79.0423C77.8003 67.7999 83.9897 57.5785 92.3251 49.2573C100.66 40.9361 110.892 34.7641 122.141 31.272C135.517 27.1163 149.808 26.9128 163.297 30.686C176.786 34.4642 188.902 42.0501 198.178 52.536C207.455 63.022 213.511 75.9735 215.616 89.822C217.716 103.67 215.773 117.83 210.019 130.6C204.265 143.37 194.946 154.207 183.181 161.808ZM75.1563 92.3064L92.9844 94.497C93.4037 91.0578 94.1749 87.6708 95.2859 84.3892C88.218 86.0063 81.4326 88.6761 75.1563 92.3064Z" fill="#FFC131"/>
<path d="M72.0734 94.1923C79.7816 89.2091 88.3643 85.7316 97.3672 83.9438C95.2881 89.5963 94.2279 95.5727 94.2359 101.595C94.2362 103.428 94.3343 105.26 94.5297 107.083C90.7637 108.414 87.1667 110.182 83.8125 112.35C75.5459 117.692 68.9981 125.307 64.9562 134.281C60.9094 143.253 59.5484 153.208 61.0187 162.938C62.489 172.667 66.75 181.767 73.275 189.141C79.8 196.514 88.3015 201.842 97.7812 204.491C107.261 207.139 117.306 206.999 126.706 204.081C136.106 201.164 144.462 195.594 150.772 188.041C151.579 187.069 152.353 186.069 153.091 185.044C162.79 183.949 172.228 181.188 180.989 176.883C178.141 186.04 173.509 194.543 167.359 201.902C158.382 212.652 146.49 220.579 133.112 224.728C119.737 228.884 105.445 229.087 91.9562 225.314C78.4697 221.537 66.3587 213.951 57.075 203.464C47.7971 192.972 41.745 180.026 39.6453 166.178C37.5439 152.33 39.4874 138.17 45.2422 125.4C50.9934 112.63 60.3105 101.793 72.0734 94.1923Z" fill="#24C8DB"/>
</g>
<defs>
<clipPath id="clip0_1_20">
<rect width="200" height="200" fill="white" transform="translate(28 28)"/>
</clipPath>
</defs>
</svg>
