<svg width="256" height="256" viewBox="0 0 256 256" fill="none" xmlns="http://www.w3.org/2000/svg">
<rect width="256" height="256" fill="#232932"/>
<path d="M140.939 58.7046V89.4123L194.122 120.12V89.4123L140.939 58.7046ZM34.5693 89.4123V120.12L61.1609 135.471V104.766L34.5693 89.4123ZM114.344 104.766L87.7525 120.12V212.237L114.344 227.591V166.178L140.939 181.532V150.825L114.344 135.471V104.766Z" fill="#E55B2D"/>
<path d="M140.938 58.7046L61.1606 104.766V135.471L114.344 104.766V135.471L140.938 120.12V58.7046ZM220.716 74.0584L194.122 89.4123V120.12L220.716 104.766V74.0584ZM167.53 135.471L140.938 150.825V181.532L167.53 166.178V135.471ZM140.938 181.532L114.344 166.178V227.591L140.938 212.237V181.532Z" fill="#ED8E24"/>
<path d="M140.939 28L34.5693 89.4122L61.1609 104.766L140.939 58.7045L194.122 89.4122L220.717 74.0584L140.939 28ZM140.939 120.12L114.344 135.471L140.939 150.825L167.53 135.471L140.939 120.12Z" fill="#F8BF3C"/>
</svg>
