<svg width="256" height="256" viewBox="0 0 256 256" fill="none" xmlns="http://www.w3.org/2000/svg">
<rect width="256" height="256" fill="#232932"/>
<g clip-path="url(#clip0_99_465)">
<path d="M31.1668 28.0002C30.8311 28.0055 30.5009 28.0864 30.2009 28.2369C29.9008 28.3874 29.6385 28.6036 29.4335 28.8695C29.2285 29.1353 29.0861 29.444 29.0168 29.7725C28.9475 30.101 28.9532 30.4409 29.0334 30.7668L53.1501 128.4C53.1693 128.513 53.1971 128.625 53.2334 128.734L77.3168 226.3C77.4109 226.682 77.6041 227.032 77.8769 227.315C78.1497 227.598 78.4924 227.804 78.8703 227.912C79.2483 228.021 79.6481 228.027 80.0294 227.931C80.4106 227.836 80.7599 227.641 81.0418 227.367L226.35 87.5835C226.631 87.3113 226.836 86.9699 226.944 86.5937C227.051 86.2174 227.058 85.8194 226.964 85.4396C226.869 85.0598 226.677 84.7115 226.405 84.4297C226.134 84.1478 225.793 83.9422 225.417 83.8335L177.217 69.9418C176.904 69.7633 176.552 69.6633 176.192 69.6502L81.1668 42.2918C80.8065 42.0692 80.3903 41.9536 79.9668 41.9585L31.8001 28.0835C31.5941 28.0255 31.3808 27.9975 31.1668 28.0002ZM34.2834 33.4502L75.5834 45.3335L44.5834 75.2002L34.2834 33.4502ZM83.0834 47.5002L123.617 59.1668L93.2001 88.4585L83.0834 47.5002ZM78.7334 48.5002L88.8751 89.5502L48.2334 77.8835L78.7334 48.5002ZM131.067 61.3168L171.717 73.0168L141.2 102.434L131.067 61.3168ZM126.733 62.4002L136.8 103.234L96.3584 91.6335L126.733 62.4002ZM179.233 75.1835L220.458 87.0502L189.5 116.834L179.233 75.1835ZM174.867 76.1835L184.992 117.234L144.358 105.584L174.867 76.1835ZM46.2668 81.9835L87.6334 93.8502L56.5834 123.734L46.2668 81.9835ZM95.0584 95.9169L135.7 107.584L105.2 136.975L95.0584 95.9169ZM90.7418 97.0585L101.042 138.867L59.6834 126.934L90.7418 97.0585ZM143.025 109.85L184.4 121.725L153.317 151.609L143.025 109.85ZM138.692 110.909L148.983 152.675L107.667 140.759L138.692 110.909ZM58.4418 131.225L99.0501 142.942L68.5834 172.3L58.4418 131.225ZM107.225 145.284L147.75 156.975L117.35 186.225L107.225 145.284ZM102.725 145.617L112.842 186.675L72.2168 175.009L102.725 145.617ZM70.2584 179.117L112.233 191.134L80.7168 221.45L70.2584 179.117Z" fill="white"/>
</g>
<defs>
<clipPath id="clip0_99_465">
<rect width="200" height="200" fill="white" transform="translate(28 28)"/>
</clipPath>
</defs>
</svg>
