<svg width="256" height="256" viewBox="0 0 256 256" fill="none" xmlns="http://www.w3.org/2000/svg">
<rect width="256" height="256" fill="#EC4815"/>
<g clip-path="url(#clip0_201_324)">
<path d="M148.378 116.785C158.072 108.751 162.368 61.2738 166.564 44.2077C170.761 27.1418 188.116 28.0073 188.116 28.0073C188.116 28.0073 183.61 35.864 185.448 41.727C187.286 47.5899 199.875 52.8307 199.875 52.8307L197.16 60.0033C197.16 60.0033 191.49 59.2766 188.116 66.0393C184.742 72.8016 192.343 139.074 192.343 139.074C192.343 139.074 170.006 179.839 170.006 196.76C170.006 213.681 177.999 227.862 177.999 227.862H166.782C166.782 227.862 150.327 208.242 146.952 198.436C143.578 188.63 144.927 178.824 144.927 178.824C144.927 178.824 127.041 177.81 111.181 178.824C95.3207 179.839 84.7434 193.5 82.8344 201.141C80.9255 208.782 80.1348 227.862 80.1348 227.862H71.2656C65.8674 211.17 61.5801 205.188 63.906 196.76C70.3483 173.414 69.0829 160.174 67.5912 154.276C66.0996 148.379 56 143.232 56 143.232C60.9473 133.132 65.9973 128.28 87.7198 127.773C109.442 127.267 138.684 124.818 148.378 116.785Z" fill="white"/>
<path d="M90.3008 195.782C90.3008 195.782 92.5926 217.033 104.768 227.863H115.202C104.768 216.019 103.63 185.147 103.63 185.147C98.3233 186.878 90.9758 193.077 90.3008 195.782Z" fill="white"/>
</g>
<defs>
<clipPath id="clip0_201_324">
<rect width="144" height="200" fill="white" transform="translate(56 28)"/>
</clipPath>
</defs>
</svg>
