<svg width="256" height="256" viewBox="0 0 256 256" fill="none" xmlns="http://www.w3.org/2000/svg">
<rect width="256" height="256" fill="#0B0D0E"/>
<path d="M150.417 75.9168C150.417 81.7945 148.172 86.7834 143.683 90.8834C136.95 97.0334 133.733 97.0334 127.3 97.0334C120.661 97.0334 115.1 94.9834 110.617 90.8834C106.128 86.789 103.883 81.7973 103.883 75.9084C103.883 70.0306 106.128 65.0418 110.617 60.9417C117.35 54.7917 120.667 54.7917 127.3 54.7917C133.739 54.7917 139.2 56.8417 143.683 60.9417C148.172 65.0418 150.417 70.039 150.417 75.9168ZM103.592 149.942C103.592 144.058 105.836 139.067 110.325 134.967C115.003 130.689 120.661 128.55 127.3 128.55C133.386 128.487 139.259 130.787 143.683 134.967C148.367 139.067 151.1 143.7 151.883 148.867C153.439 158.495 151.486 168.033 146.025 177.483C140.758 186.928 133.147 194.145 123.192 199.133C117.736 201.989 113.25 201.9 109.733 198.867C106.422 196.017 107.4 192.631 112.667 188.708C115.583 186.747 118.022 184.253 119.983 181.225C121.933 178.192 123.2 175.072 123.783 171.867C123.983 170.439 123.3 169.725 121.733 169.725C117.833 169.547 113.833 167.586 109.733 163.842C107.762 162.109 106.192 159.969 105.132 157.568C104.071 155.168 103.546 152.566 103.592 149.942Z" fill="#FAFAFB"/>
</svg>
