<svg width="256" height="256" viewBox="0 0 256 256" fill="none" xmlns="http://www.w3.org/2000/svg">
<rect width="256" height="256" fill="#232932"/>
<g clip-path="url(#clip0_199_126)">
<path d="M128 224.094C181.071 224.094 224.094 181.071 224.094 128C224.094 74.9289 181.071 31.9062 128 31.9062C74.9289 31.9062 31.9062 74.9289 31.9062 128C31.9062 181.071 74.9289 224.094 128 224.094Z" fill="#F2E4FF"/>
<path d="M128.205 209.813V197.69C166.604 197.579 197.695 166.424 197.695 127.997C197.695 89.5734 166.604 58.4187 128.205 58.307V46.1852C173.299 46.2984 209.815 82.8789 209.815 127.998C209.815 173.119 173.299 209.701 128.205 209.813ZM128.205 167.383C149.863 167.27 167.394 149.686 167.394 127.997C167.394 106.311 149.863 88.7281 128.205 88.6141V76.4945C156.561 76.6055 179.516 99.6164 179.516 127.997C179.516 156.38 156.561 179.391 128.205 179.502V167.383ZM128.205 106.797C139.823 106.907 149.212 116.352 149.212 127.997C149.212 139.645 139.823 149.091 128.205 149.201V106.797ZM28 127.996C28 183.228 72.7688 228 128 228C183.228 228 228 183.228 228 127.997C228 72.7688 183.228 28 128 28C72.7688 28 28 72.768 28 127.996Z" fill="url(#paint0_linear_199_126)"/>
<path d="M128 39.3281C78.1648 39.3281 37.7656 79.5523 37.7656 129.172C37.7656 178.791 78.1648 219.016 128 219.016V39.3281Z" fill="url(#paint1_linear_199_126)"/>
</g>
<defs>
<linearGradient id="paint0_linear_199_126" x1="10028" y1="20028" x2="10028" y2="28" gradientUnits="userSpaceOnUse">
<stop stop-color="#420C5D"/>
<stop offset="1" stop-color="#951AD1"/>
</linearGradient>
<linearGradient id="paint1_linear_199_126" x1="-4383.72" y1="18008.1" x2="-4383.72" y2="39.3281" gradientUnits="userSpaceOnUse">
<stop stop-color="#420C5D"/>
<stop offset="1" stop-color="#951AD1"/>
</linearGradient>
<clipPath id="clip0_199_126">
<rect width="200" height="200" fill="white" transform="translate(28 28)"/>
</clipPath>
</defs>
</svg>
