<svg width="256" height="256" viewBox="0 0 256 256" fill="none" xmlns="http://www.w3.org/2000/svg">
<g clip-path="url(#clip0_17_308)">
<rect width="256" height="256" fill="white"/>
<rect width="256" height="256" fill="#3A8CCB"/>
<path d="M127.336 28L166.537 50.6415V63.0721L214.154 90.8191V137.878L227 145.203V190.93L187.799 213.572L170.302 203.361L127.779 228L85.4765 203.583L68.4228 213.572L29 190.708V145.203L41.4027 138.1V90.8191L87.9127 63.7381V50.6415L127.336 28ZM166.758 75.0588V96.3685L127.336 119.01L88.1342 96.3685V75.7247L51.5906 96.8124V132.329L68.4228 122.562L107.846 145.425V190.93L95.8859 197.811L128 216.235L160.114 197.589L148.376 190.93V145.425L187.799 122.562L204.188 132.107V96.8124L166.758 75.0588ZM182.705 198.921V170.952L158.785 157.19V184.937L182.705 198.921ZM216.812 157.19L192.893 171.174V198.921L216.812 184.937V157.19ZM63.3289 198.921V171.174L39.1879 157.19V184.937L63.3289 198.921ZM97.6577 157.412L73.7383 171.174V198.921L97.6577 185.159V157.412ZM187.799 162.517L211.94 148.533L187.799 134.77L163.879 148.533L187.799 162.517ZM68.4228 134.77L44.5034 148.533L68.4228 162.517L92.3423 148.533L68.4228 134.77ZM122.242 104.582V76.8346L98.3221 63.0721V90.8191L122.242 104.582ZM156.57 62.8502L132.43 76.8346V104.582L156.57 90.5971V62.8502ZM127.336 67.9556L151.477 53.9711L127.336 40.2087L103.416 53.9711L127.336 67.9556Z" fill="white"/>
</g>
<defs>
<clipPath id="clip0_17_308">
<rect width="256" height="256" fill="white"/>
</clipPath>
</defs>
</svg>
