<svg width="256" height="256" viewBox="0 0 256 256" fill="none" xmlns="http://www.w3.org/2000/svg">
<g clip-path="url(#clip0_17_308)">
<rect width="256" height="256" fill="white"/>
<rect width="256" height="256" fill="#3A8CCB"/>
<path d="M127.8 37.6L163.2 58V69.2L206.2 94.2V136.6L217.8 143.2V184.4L182.4 204.8L166.6 195.6L128.2 217.8L90 195.8L74.6 204.8L39 184.2V143.2L50.2 136.8V94.2L92.2 69.8V58L127.8 37.6ZM163.4 80V99.2L127.8 119.6L92.4 99.2V80.6L59.4 99.6V131.6L74.6 122.8L110.2 143.4V184.4L99.4 190.6L128.4 207.2L157.4 190.4L146.8 184.4V143.4L182.4 122.8L197.2 131.4V99.6L163.4 80ZM177.8 191.6V166.4L156.2 154V179L177.8 191.6ZM208.6 154L187 166.6V191.6L208.6 179V154ZM70 191.6V166.6L48.2 154V179L70 191.6ZM101 154.2L79.4 166.6V191.6L101 179.2V154.2ZM182.4 158.8L204.2 146.2L182.4 133.8L160.8 146.2L182.4 158.8ZM74.6 133.8L53 146.2L74.6 158.8L96.2 146.2L74.6 133.8ZM123.2 106.6V81.6L101.6 69.2V94.2L123.2 106.6ZM154.2 69L132.4 81.6V106.6L154.2 94V69ZM127.8 73.6L149.6 61L127.8 48.6L106.2 61L127.8 73.6Z" fill="white"/>
</g>
<defs>
<clipPath id="clip0_17_308">
<rect width="256" height="256" fill="white"/>
</clipPath>
</defs>
</svg>
