<svg width="256" height="256" viewBox="0 0 256 256" fill="none" xmlns="http://www.w3.org/2000/svg">
<rect width="256" height="256" fill="#242932"/>
<g clip-path="url(#clip0_23_614)">
<path d="M127.897 63.0222C92.1058 63.0222 62.9873 92.1679 62.9873 127.992C62.9873 163.816 92.1058 192.962 127.897 192.962C163.687 192.962 192.806 163.816 192.806 127.992C192.806 92.1679 163.687 63.0222 127.897 63.0222ZM127.897 161.614C109.342 161.614 94.3058 146.563 94.3058 127.992C94.3058 109.421 109.342 94.3698 127.897 94.3698C146.451 94.3698 161.488 109.421 161.488 127.992C161.488 146.563 146.451 161.614 127.897 161.614Z" fill="white"/>
<path fill-rule="evenodd" clip-rule="evenodd" d="M133.337 52.3503V28.0925C186.014 30.9115 227.861 74.5634 227.861 127.991C227.861 181.419 186.014 225.059 133.337 227.89V203.632C172.597 200.825 203.686 167.989 203.686 127.991C203.686 87.9929 172.597 55.1572 133.337 52.3503ZM70.652 177.596C60.2448 165.569 53.5363 150.253 52.3396 133.435H28.0923C29.3494 156.967 38.7534 178.321 53.4879 194.764L70.6399 177.596H70.652ZM122.459 227.89V203.632C105.646 202.434 90.3429 195.731 78.328 185.302L61.176 202.47C77.6148 217.231 98.9491 226.631 122.447 227.89H122.459Z" fill="url(#paint0_linear_23_614)"/>
</g>
<defs>
<linearGradient id="paint0_linear_23_614" x1="137.255" y1="42.1405" x2="38.9167" y2="140.387" gradientUnits="userSpaceOnUse">
<stop stop-color="#0096FF"/>
<stop offset="1" stop-color="#FF1E56"/>
</linearGradient>
<clipPath id="clip0_23_614">
<rect width="200" height="200" fill="white" transform="translate(28 28)"/>
</clipPath>
</defs>
</svg>
