<svg width="256" height="256" viewBox="0 0 256 256" fill="none" xmlns="http://www.w3.org/2000/svg">
<rect width="256" height="256" fill="#242932"/>
<g clip-path="url(#clip0_23_614)">
<path d="M127.897 63.0223C92.106 63.0223 62.9874 92.168 62.9874 127.992C62.9874 163.816 92.106 192.962 127.897 192.962C163.688 192.962 192.806 163.816 192.806 127.992C192.806 92.168 163.688 63.0223 127.897 63.0223ZM127.897 161.614C109.343 161.614 94.3059 146.564 94.3059 127.992C94.3059 109.421 109.343 94.3699 127.897 94.3699C146.451 94.3699 161.488 109.421 161.488 127.992C161.488 146.564 146.451 161.614 127.897 161.614Z" fill="white"/>
<path fill-rule="evenodd" clip-rule="evenodd" d="M133.338 52.3504V28.0927C186.014 30.9116 227.861 74.5636 227.861 127.991C227.861 181.419 186.014 225.059 133.338 227.89V203.632C172.597 200.825 203.686 167.989 203.686 127.991C203.686 87.9931 172.597 55.1573 133.338 52.3504ZM70.6523 177.596C60.245 165.57 53.5365 150.253 52.3399 133.436H28.0925C29.3496 156.967 38.7536 178.322 53.4882 194.764L70.6402 177.596H70.6523ZM122.459 227.89V203.632C105.646 202.434 90.3431 195.732 78.3282 185.303L61.1762 202.471C77.6151 217.231 98.9493 226.632 122.447 227.89H122.459Z" fill="url(#paint0_linear_23_614)"/>
</g>
<defs>
<linearGradient id="paint0_linear_23_614" x1="137.255" y1="42.1406" x2="38.917" y2="140.387" gradientUnits="userSpaceOnUse">
<stop stop-color="#0096FF"/>
<stop offset="1" stop-color="#FF1E56"/>
</linearGradient>
<clipPath id="clip0_23_614">
<rect width="200" height="200" fill="white" transform="translate(28 28)"/>
</clipPath>
</defs>
</svg>
