<svg width="256" height="256" viewBox="0 0 256 256" fill="none" xmlns="http://www.w3.org/2000/svg">
<rect width="256" height="256" fill="#232932"/>
<g clip-path="url(#clip0_150_97)">
<path d="M128.055 213C125.865 213 109.855 200.2 106.755 196.55C104.315 200.28 100.315 204.51 100.315 204.51C89.2649 198.94 75.1449 184.45 72.4849 179.38C69.8649 174.38 60.3549 116.8 60.0949 100.08C59.7549 90.6698 65.9449 71.5898 128.055 71.5898C190.165 71.5898 196.345 90.6698 196.015 100.08C195.765 116.8 186.255 174.38 183.625 179.38C180.965 184.45 166.845 198.94 155.795 204.51C155.795 204.51 151.795 200.28 149.355 196.55C146.255 200.2 130.245 213 128.055 213Z" fill="#1EBCA1"/>
<path d="M128.055 175.92C107.325 175.92 94.0949 164.97 94.0949 164.97L96.0049 138.3L74.2549 136.36L70.3449 104.81H185.775L181.865 136.36L160.115 138.3L162.025 164.97C162.025 164.97 148.795 175.92 128.065 175.92H128.055Z" fill="#183134"/>
<path d="M149.535 118.79L228.055 91.61C223.385 63.67 198.895 43 198.895 43V73.78L184.355 77.53L175.245 66.56L167.445 81.9L128.065 92.06L88.6849 81.9L80.8849 66.56L71.7749 77.53L57.2349 73.78V43C57.2349 43 32.7249 63.67 28.0549 91.61L106.575 118.79L103.775 156.18C110.475 157.88 117.525 159.57 128.055 159.57C138.585 159.57 145.625 157.88 152.325 156.18L149.525 118.79H149.535Z" fill="#4FF8D2"/>
</g>
<defs>
<clipPath id="clip0_150_97">
<rect width="201" height="170" fill="white" transform="translate(28 43)"/>
</clipPath>
</defs>
</svg>
