<svg width="256" height="256" viewBox="0 0 256 256" fill="none" xmlns="http://www.w3.org/2000/svg">
<rect width="256" height="256" fill="#232932"/>
<g clip-path="url(#clip0_150_377)">
<path d="M127.853 28.147C72.8022 28.147 28 72.9492 28 128C28 183.051 72.8022 227.854 127.853 227.854C183.197 228.146 227.999 183.344 227.999 128C227.999 72.6564 183.197 28.147 127.853 28.147ZM127.853 201.792C87.4435 201.792 54.3542 168.703 54.3542 128C54.3542 87.5904 87.4435 54.5012 127.853 54.5012C168.556 54.5012 201.645 87.5904 201.645 128C201.645 168.703 168.556 201.792 127.853 201.792Z" fill="#E31E26"/>
<path d="M152.743 123.901C164.226 123.901 173.534 114.593 173.534 103.11C173.534 91.6281 164.226 82.3198 152.743 82.3198C141.261 82.3198 131.953 91.6281 131.953 103.11C131.953 114.593 141.261 123.901 152.743 123.901Z" fill="#E31E26"/>
<path d="M152.743 173.681C164.226 173.681 173.534 164.372 173.534 152.89C173.534 141.408 164.226 132.1 152.743 132.1C141.261 132.1 131.953 141.408 131.953 152.89C131.953 164.372 141.261 173.681 152.743 173.681Z" fill="#E31E26"/>
<path d="M102.963 173.681C114.445 173.681 123.754 164.372 123.754 152.89C123.754 141.408 114.445 132.1 102.963 132.1C91.4809 132.1 82.1726 141.408 82.1726 152.89C82.1726 164.372 91.4809 173.681 102.963 173.681Z" fill="#E31E26"/>
<path d="M102.963 123.901C114.445 123.901 123.754 114.593 123.754 103.11C123.754 91.6281 114.445 82.3198 102.963 82.3198C91.4809 82.3198 82.1726 91.6281 82.1726 103.11C82.1726 114.593 91.4809 123.901 102.963 123.901Z" fill="#E31E26"/>
</g>
<defs>
<clipPath id="clip0_150_377">
<rect width="200" height="200" fill="white" transform="translate(28 28)"/>
</clipPath>
</defs>
</svg>
