<svg width="256" height="256" viewBox="0 0 256 256" fill="none" xmlns="http://www.w3.org/2000/svg">
<rect width="256" height="256" fill="#232932"/>
<g clip-path="url(#clip0_262_61)">
<path d="M136.305 62.1753C137.458 62.1769 138.565 62.6283 139.391 63.4335C140.217 64.2387 140.696 65.3342 140.727 66.4871V117.252C140.727 118.406 140.276 119.515 139.471 120.343C138.665 121.17 137.568 121.65 136.414 121.681H94.9922C93.8387 121.679 92.7314 121.228 91.9057 120.422C91.0799 119.617 90.6008 118.522 90.5703 117.369V66.6042C90.5699 65.4496 91.0205 64.3405 91.826 63.5132C92.6316 62.6859 93.7284 62.2058 94.8828 62.1753H136.305ZM136.305 64.1437H94.9922C94.3568 64.1453 93.7466 64.3925 93.2894 64.8336C92.8321 65.2748 92.5633 65.8756 92.5391 66.5105V117.252C92.5391 118.58 93.5938 119.665 94.9063 119.712H136.305C137.633 119.712 138.719 118.658 138.766 117.346V66.6042C138.766 65.9517 138.506 65.3258 138.045 64.8644C137.583 64.4029 136.957 64.1437 136.305 64.1437ZM100.898 109.386V112.331H97.9453V109.386H100.898ZM133.852 109.386V112.331H102.367V109.386H133.852ZM100.891 96.5991V99.5517H97.9375V96.5991H100.891ZM133.844 96.5991V99.5517H102.359V96.5991H133.844ZM100.891 84.3043V87.2569H97.9375V84.3043H100.891ZM133.844 84.3043V87.2569H102.359V84.3043H133.844ZM133.844 72.9937V75.9464H97.9453V72.9937H133.852H133.844ZM136.305 131.999V132.03C137.453 132.032 138.556 132.479 139.381 133.277C140.206 134.076 140.688 135.164 140.727 136.311V187.076C140.725 188.229 140.273 189.336 139.468 190.162C138.663 190.987 137.567 191.466 136.414 191.497H94.9922C93.8427 191.495 92.7387 191.047 91.9136 190.247C91.0885 189.447 90.6068 188.357 90.5703 187.209V136.436C90.5699 135.281 91.0205 134.172 91.826 133.345C92.6316 132.518 93.7284 132.038 94.8828 132.007H136.305V131.999ZM136.305 133.968H94.9922C94.3568 133.969 93.7466 134.216 93.2894 134.658C92.8321 135.099 92.5633 135.7 92.5391 136.334V187.076C92.5391 188.404 93.5938 189.489 94.9063 189.536H136.305C137.633 189.536 138.703 188.49 138.766 187.177V136.444C138.766 135.116 137.711 134.03 136.391 133.983H136.305V133.968ZM100.898 179.218V182.17H97.9453V179.218H100.898ZM133.852 179.241V182.147H102.367V179.241H133.852ZM100.891 166.431V169.383H97.9375V166.439H100.891V166.431ZM133.844 166.454V169.36H102.359V166.454H133.844ZM100.891 154.144V157.096H97.9375V154.144H100.891ZM133.844 154.167V157.073H102.359V154.167H133.844ZM133.844 142.841V145.786H97.9453V142.833H133.852L133.844 142.841ZM148.219 91.928V94.3807H162.969V161.19H148.219V163.65H165.43V91.928H162.969H148.219Z" fill="#8E8F8F"/>
<path d="M43.1016 48.5605C46.0156 43.7879 50.8047 41.0071 55.6406 39.3902L56.3047 39.1715L56.9609 38.9762L57.9531 38.7028L58.6016 38.5388L58.9297 38.4607L59.5781 38.3045L59.8984 38.242L60.5391 38.1092L61.1641 37.992L61.7891 37.8827L62.4141 37.7811L63.0156 37.6952L63.6094 37.6171L64.1875 37.539L64.7578 37.4765L65.3047 37.4218L66.1094 37.3515L66.8672 37.2968L67.5859 37.2578L68.3672 37.2265L69.0859 37.2031H69.5234L69.9297 37.1953H70.7812L71.0547 37.2031L71.5469 37.2265L71.7656 37.2343V49.037C61.3203 48.045 56.6641 51.2007 54.6094 54.5595L54.4219 54.8719C54.1562 55.3484 53.9375 55.8249 53.7656 56.2936L53.6484 56.606C53.6324 56.658 53.6168 56.71 53.6016 56.7622L53.5078 57.0591L53.4219 57.3559L53.3437 57.6527L53.3125 57.8011L53.25 58.0823L53.2266 58.2229L53.1797 58.4963L53.1406 58.7619L53.1094 59.0197L53.0703 59.3868L53.0469 59.7305L53.0312 59.9961V60.6756L53.0391 60.8553L53.0547 61.074L53.0781 61.3318V65.6748L53.0547 74.5248L53.0234 80.9065L52.9844 86.2728L52.9453 90.8111L52.9062 94.3808L52.8594 97.8645L52.8125 100.833L52.7578 103.965L52.7188 105.605L52.6797 107.152L52.625 108.87L52.6094 109.417V111.019L52.5938 111.433L52.5781 112.057L52.5547 112.659L52.5391 113.026L52.5078 113.393L52.4844 113.76L52.4297 114.323L52.3828 114.69L52.3359 115.065L52.2812 115.432L52.25 115.619L52.1875 115.994L52.1484 116.182L52.0703 116.549L51.9922 116.924L51.8906 117.291L51.7891 117.658L51.6719 118.025L51.5469 118.384L51.4141 118.752C49.8984 122.657 46.4766 126.133 38.7188 127.75C46.2656 129.312 49.7109 132.648 51.2891 136.42L51.4297 136.78C51.5703 137.139 51.6953 137.506 51.7969 137.873L51.9062 138.24L52.0859 138.982L52.1641 139.357L52.1953 139.545L52.2578 139.92L52.3203 140.295L52.3672 140.662L52.4141 141.037L52.4531 141.412L52.4844 141.779L52.5156 142.154L52.5469 142.701L52.5703 143.076L52.5859 143.693L52.5938 144.099L52.6016 144.497V145.099L52.6094 146.091L52.6641 147.817L52.7109 149.645L52.75 151.598L52.7969 153.675L52.8359 156.214L52.8906 160.416L52.9297 163.97L52.9531 165.978L52.9922 171.086L53.0391 178.671L53.0703 186.888L53.0859 186.881V194.161L53.0703 194.262L53.0547 194.418V194.559L53.0391 194.817V195.488L53.0469 195.754L53.0703 196.098L53.0938 196.332L53.1406 196.707L53.1797 196.973L53.2266 197.238L53.2812 197.519L53.3125 197.66L53.375 197.949L53.4141 198.09L53.4922 198.386L53.5859 198.683L53.6406 198.839L53.75 199.144L53.8672 199.456L54 199.761C55.6406 203.432 59.9688 207.416 71.1562 206.502L71.7734 206.447V218.25L71.4609 218.266L70.875 218.281L70.3984 218.289H69.4062L68.9375 218.281L68.4453 218.266L67.8047 218.235L67.3516 218.219L66.8828 218.188L66.3906 218.156L65.8906 218.117L65.3672 218.07L64.8359 218.016L64.2891 217.953L63.7266 217.891L63.1484 217.813L62.8594 217.774L62.2656 217.68C62.1666 217.665 62.0677 217.649 61.9688 217.633L61.3672 217.531L61.0625 217.477L60.4453 217.36L60.1328 217.297L59.5078 217.164L58.8828 217.016L58.2578 216.86L57.6172 216.696C51.7578 215.094 45.6172 211.947 42.4531 205.76C43.1406 198.175 46.2578 191.7 51.875 187.669C52.1328 187.482 52.4062 187.302 52.6719 187.123L52.9844 186.935C52.5938 187.17 52.2266 187.419 51.8594 187.677C46.2578 191.7 43.1406 198.175 42.4531 205.737C41.0455 202.895 40.3079 199.769 40.2969 196.598L40.2188 193.34L40.1406 189.396L40.0156 184.779L39.8594 178.89L39.7188 173.789L39.5234 167.103L39.3047 159.94L38.9297 148.676L38.8438 146.059C38.6172 140.146 36.25 137.264 33.7734 135.874L33.4844 135.717C33.4351 135.691 33.3857 135.665 33.3359 135.639L33.0469 135.507L32.7578 135.382L32.4688 135.272C32.375 135.233 32.2812 135.194 32.1875 135.171L31.8984 135.077L31.625 134.999L31.3984 134.936L31.1875 134.889L30.9688 134.843L30.7578 134.796L30.4531 134.749L30.2578 134.718L30.0703 134.694L29.7891 134.663H29.5469L29.0469 134.655H28V120.829C28.6484 120.845 29.2266 120.829 29.7969 120.806L30.0703 120.775L30.2578 120.751L30.4531 120.72L30.7656 120.665L30.9688 120.626L31.1875 120.579L31.3984 120.525L31.625 120.47L31.8984 120.392L32.1875 120.298L32.4688 120.197C35.3438 119.119 38.5859 116.361 38.8438 109.402L39.1797 99.4033L39.4375 91.2251L39.5781 86.5852L39.7891 79.1412L39.9375 73.9702L40.0391 70.0256L40.1641 64.7452L40.2422 61.4646L40.2969 58.8634C40.375 54.7626 41.3906 51.4428 43 48.7324L43.1016 48.5605ZM184.227 48.8495V37.0391L184.547 37.0234L184.992 37.0078H185.273L185.781 37H186.586L187.234 37.0156L188.062 37.0469L188.508 37.0703L188.977 37.0937L189.703 37.1484L190.203 37.1875L190.727 37.2343L191.258 37.289L191.805 37.3437L192.367 37.4218L192.945 37.4999L193.523 37.578L194.117 37.6718L194.414 37.7264L195.023 37.828L195.633 37.953L196.258 38.0779L196.883 38.2185L197.508 38.3748L198.453 38.6169L199.094 38.7966C205.031 40.5463 211.148 43.9519 214.016 50.5367C215.109 53.1144 215.688 55.8796 215.703 58.676L215.781 61.9332L215.859 65.8779L215.938 68.518L216.031 72.4705L216.172 77.6727L216.281 81.4924L216.477 88.1709L216.695 95.3337L217.07 106.597L217.156 109.214C217.383 115.229 219.836 118.103 222.352 119.462L222.641 119.619L222.781 119.689L223.07 119.822L223.359 119.939L223.508 119.994L223.789 120.095L223.93 120.142L224.211 120.228L224.352 120.267L224.766 120.376L225.031 120.439L225.289 120.486L225.547 120.533L225.742 120.556L225.93 120.587L226.211 120.618C226.695 120.642 227.195 120.65 227.727 120.642L228 120.634V134.475C227.401 134.453 226.802 134.459 226.203 134.491L226.023 134.515L225.836 134.538L225.547 134.577L225.234 134.632L225.031 134.671L224.812 134.718L224.602 134.772L224.375 134.827L224.242 134.866L223.961 134.952L223.812 134.999L223.531 135.1L223.383 135.155L223.094 135.28C220.344 136.467 217.406 139.287 217.156 145.895L216.82 155.894L216.562 164.072L216.422 168.712L216.211 176.148L216.062 181.327L215.961 185.271L215.836 190.544L215.758 193.825L215.703 196.426C215.683 198.86 215.253 201.274 214.43 203.565L214.328 203.831V203.854C211.391 211.462 204.266 215.032 197.688 216.696L197.047 216.852L196.727 216.93L196.086 217.071L195.773 217.133L195.141 217.258L194.828 217.321L194.211 217.422L193.906 217.477L193.305 217.571L192.711 217.649L192.133 217.727L191.562 217.797L191.008 217.852L190.461 217.906L189.68 217.969L189.188 218.008L188.469 218.047L187.797 218.078L186.977 218.102H186.508L186.086 218.11H185.031L184.664 218.094L184.352 218.078H184.234V206.268C195.172 207.307 199.766 203.799 201.664 200.269L201.828 199.956L201.984 199.644L202.117 199.332L202.234 199.019L202.352 198.707L202.453 198.394L202.492 198.246L202.578 197.949L202.656 197.652L202.719 197.363L202.773 197.082L202.82 196.809L202.859 196.543L202.891 196.285L202.93 195.918L202.945 195.684L202.969 195.309V194.629L202.961 194.45L202.953 194.293L202.93 194.075L202.922 193.973V187.498L202.938 181.467L202.969 175.25L203 170.008L203.047 164.658L203.102 159.854L203.141 157.065L203.172 154.816L203.219 152.238L203.258 150.598L203.289 149.051L203.328 147.583L203.383 145.895V144.294L203.398 143.888V143.474L203.43 142.849L203.445 142.435L203.469 142.068L203.5 141.693L203.531 141.318L203.57 140.943L203.609 140.568L203.664 140.193L203.688 140.006L203.75 139.631L203.82 139.256L203.898 138.881L203.977 138.506C204.078 138.069 204.203 137.639 204.344 137.209L204.469 136.842C204.648 136.35 204.852 135.874 205.094 135.397L205.273 135.046C207.062 131.765 210.531 128.953 217.273 127.547C208.766 125.789 205.477 121.782 204.195 117.424L204.086 117.057L203.906 116.315L203.828 115.947L203.797 115.76L203.734 115.385L203.672 115.01L203.625 114.635L203.578 114.268L203.539 113.893L203.508 113.518L203.477 113.151L203.445 112.596L203.422 112.229L203.406 111.612L203.398 111.206L203.391 110.8V110.206L203.383 109.214L203.344 108.058L203.305 106.59L203.258 104.707L203.219 102.692L203.18 100.583L203.133 97.6146L203.078 93.3653L203.039 89.3894L203 84.7809L202.953 76.5948L202.922 67.7213C203.594 67.3542 204.25 66.9402 204.875 66.5027C208 64.2609 210.352 61.2458 211.945 57.6918L212.055 57.4418C210.532 61.0621 208.046 64.1959 204.867 66.5027C204.336 66.8777 203.797 67.2214 203.242 67.5416L202.906 67.7291V61.1365L202.922 61.0349L202.938 60.8787V60.7459L202.953 60.4803V59.8086L202.945 59.543L202.93 59.3165L202.898 58.965L202.852 58.59L202.812 58.3245L202.766 58.0589L202.711 57.7777L202.68 57.6371L202.617 57.3559L202.578 57.1997L202.5 56.9106L202.406 56.6138L202.352 56.4576L202.242 56.153L202.125 55.8483L201.992 55.5359C200.352 51.8646 196.023 47.8888 184.836 48.8027L184.219 48.8573L184.227 48.8495Z" fill="#FE0902"/>
<path d="M52.3516 65.1983L52.7109 65.4326L53.0781 65.667V61.3318L53.0703 61.2302L53.0547 61.074L53.0469 60.9334L53.0313 60.6756V59.9961L53.0469 59.7305L53.0625 59.5039L53.0781 59.2696L53.1094 59.0197L53.1406 58.7619L53.1797 58.4963L53.2266 58.2229L53.2812 57.9417L53.3125 57.8011L53.3828 57.5043L53.4609 57.2075L53.5078 57.0591L53.6016 56.7544C53.6168 56.7022 53.6324 56.6502 53.6484 56.5982L53.7656 56.2936C53.9375 55.8249 54.1562 55.3562 54.4219 54.8797L54.6094 54.5673C56.6641 51.2007 61.3281 48.045 71.7656 49.037V37.2343L71.5469 37.2265L71.1719 37.2109L70.9219 37.2031L70.2969 37.1953H69.5234L68.8594 37.2109L68.25 37.2265L67.5859 37.2578L66.8672 37.2968L66.1094 37.3515L65.5781 37.3984L64.7578 37.4765L64.1875 37.539L63.6094 37.6171L63.0156 37.6952L62.4062 37.7811L61.7969 37.8827L61.1719 37.992L60.5391 38.1092L59.8984 38.242L59.5781 38.3123L58.9297 38.4607L58.6016 38.5388L57.9531 38.7028L56.9609 38.9762L56.3047 39.1715L55.6406 39.3902C50.7969 41.0071 46.0156 43.7879 43.1016 48.5605C44.0391 55.5203 47.1172 61.4567 52.3516 65.1983ZM71.7734 218.258V206.455C60.3437 207.541 55.8359 203.667 54.1016 199.988L53.9531 199.675L53.7656 199.207L53.6562 198.894L53.6016 198.738L53.5078 198.433L53.4297 198.136L53.3516 197.84L53.2891 197.551L53.2266 197.269L53.1797 196.996L53.1406 196.73L53.1094 196.473L53.0703 196.105L53.0469 195.762L53.0391 195.496V194.637L53.0547 194.481L53.0703 194.262L53.0859 194.153V186.881C52.6719 187.13 52.2656 187.396 51.875 187.677C46.2578 191.708 43.1406 198.183 42.4531 205.776C45.6172 211.947 51.7578 215.102 57.6094 216.704L58.25 216.868L58.8828 217.024L59.5078 217.172L60.1328 217.305L60.7578 217.422L61.0703 217.485L61.6719 217.594L61.9688 217.641L62.5625 217.735L62.8594 217.781L63.4375 217.86L63.7266 217.899L64.2812 217.961L64.8281 218.024L65.375 218.078L65.8906 218.125L66.3906 218.164L66.8828 218.195L67.3516 218.227L68.0234 218.258L68.4453 218.274L68.9453 218.289H69.4062L69.8281 218.297H70.875L71.2578 218.281L71.7734 218.258ZM214.016 50.5367C210.969 43.5301 204.25 40.1245 197.961 38.4841L197.336 38.3279L196.711 38.1795L196.398 38.1092L195.781 37.9842L195.477 37.9217L194.875 37.8045L194.273 37.6952L193.68 37.6015L193.102 37.5155L192.531 37.4374L191.969 37.3593L191.422 37.3046L190.891 37.25L190.367 37.2031L189.609 37.1406L188.898 37.0937L188.219 37.0547L187.578 37.0312L187.188 37.0156L186.703 37.0078H186.258L185.852 37H185.164L184.773 37.0156L184.477 37.0312L184.227 37.0391V48.8495C195.656 47.756 200.164 51.6303 201.898 55.3172L202.047 55.6296L202.234 56.0983L202.344 56.4107L202.398 56.567L202.492 56.8638L202.57 57.1684L202.648 57.4574L202.711 57.7464L202.773 58.0276L202.82 58.301L202.859 58.5666L202.891 58.8244L202.93 59.1915L202.953 59.5352L202.961 59.8008V60.66L202.945 60.8787L202.914 61.1443V67.7291C203.586 67.3542 204.242 66.948 204.867 66.5106C209.945 62.8784 212.984 57.2075 214.023 50.5367H214.016ZM205.359 188.997C204.578 188.443 203.766 187.943 202.922 187.498V193.973L202.93 194.075L202.945 194.231L202.953 194.371L202.969 194.629V195.301L202.945 195.692L202.93 195.926L202.891 196.285L202.859 196.543L202.82 196.809L202.773 197.082L202.719 197.363L202.656 197.652L202.578 197.949L202.5 198.246L202.453 198.402L202.352 198.707L202.234 199.019L202.117 199.332L201.977 199.644L201.828 199.956L201.672 200.269C199.766 203.799 195.164 207.307 184.234 206.268V218.07L184.406 218.078L184.914 218.102L185.531 218.11H186.555L187.023 218.102L187.539 218.086L188.172 218.063L188.852 218.024L189.32 217.992L190.062 217.938L190.578 217.891L191.109 217.844L191.648 217.781L192.203 217.719L192.766 217.641L193.344 217.563L193.93 217.469L194.227 217.422L194.828 217.321L195.438 217.203L195.742 217.141L196.359 217.008L196.672 216.946L197.297 216.789C203.977 215.18 211.328 211.611 214.328 203.854C213.148 197.66 210.148 192.419 205.367 188.997H205.359Z" fill="#FFAB00"/>
</g>
<defs>
<clipPath id="clip0_262_61">
<rect width="200" height="182" fill="white" transform="translate(28 37)"/>
</clipPath>
</defs>
</svg>
