<svg width="256" height="256" viewBox="0 0 256 256" fill="none" xmlns="http://www.w3.org/2000/svg">
<rect width="256" height="256" fill="#232932"/>
<path d="M109.303 127.338L78.9721 102.437L53.5417 135.285C50.8927 138.728 50.2304 143.232 51.9523 147.338L76.0582 208.53C78.045 213.563 82.6807 217.139 87.9788 217.801L168.509 228L155.396 195.682C142.946 167.338 130.893 145.351 109.303 127.338Z" fill="url(#paint0_linear_88_342)"/>
<path d="M205.065 161.51L180.694 98.9933C179.868 96.797 178.432 94.8823 176.555 93.4745C174.678 92.0666 172.438 91.2242 170.098 91.0463L102.548 85.7483C93.6741 85.2185 90.8927 80.4503 89.9655 77.9337L89.5682 76.6092L76.4556 28L67.0517 49.9867C65.832 52.8475 65.5597 56.0235 66.2746 59.0502C66.9896 62.0768 68.6543 64.7953 71.0252 66.8079L91.9523 84.9536L111.29 100.848C138.442 123.099 156.323 154.358 162.018 188.927L168.376 227.867L203.74 172.503C204.803 170.875 205.465 169.017 205.673 167.083C205.88 165.15 205.626 163.194 204.932 161.377L205.065 161.51Z" fill="url(#paint1_linear_88_342)"/>
<defs>
<linearGradient id="paint0_linear_88_342" x1="10.7602" y1="-102.861" x2="280.429" y2="322.834" gradientUnits="userSpaceOnUse">
<stop offset="0.3" stop-color="#D48DFF"/>
<stop offset="0.6" stop-color="#7272FF"/>
<stop offset="0.7" stop-color="#0059DF"/>
</linearGradient>
<linearGradient id="paint1_linear_88_342" x1="76.853" y1="-9.35098" x2="230.893" y2="284.556" gradientUnits="userSpaceOnUse">
<stop offset="0.3" stop-color="#D48DFF"/>
<stop offset="0.5" stop-color="#5259EE"/>
<stop offset="0.8" stop-color="#1E2FB6"/>
</linearGradient>
</defs>
</svg>
