<svg width="256" height="256" viewBox="0 0 256 256" fill="none" xmlns="http://www.w3.org/2000/svg">
<rect width="256" height="256" fill="#1035BC"/>
<g clip-path="url(#clip0_150_107)">
<path d="M88.7412 92.5187C89.1502 94.5577 89.3543 96.5285 89.3543 98.4325C89.3543 100.2 89.1502 102.102 88.7412 104.141L62.8107 103.937V172.449C62.8107 178.159 65.4648 181.013 70.7736 181.013H86.2913C87.2443 183.324 87.7207 185.635 87.7207 187.946C87.7207 190.257 87.5842 191.684 87.3125 192.228C81.0507 193.043 74.5848 193.451 67.9155 193.451C54.712 193.451 48.1095 187.81 48.1095 176.527V103.937L33.6123 104.141C33.2041 102.103 33 100.2 33 98.4325C33 96.5292 33.2041 94.5577 33.6123 92.5187L48.1095 92.7225V71.3129C48.1095 67.6426 48.6542 65.0596 49.7423 63.5646C50.8318 61.9333 52.9411 61.1173 56.0731 61.1173H61.5854L62.81 62.341V92.9271L88.742 92.5187H88.7412ZM96.5171 185.355C96.6493 182.375 97.4634 179.125 98.956 175.604C100.584 171.947 102.415 169.103 104.449 167.071C115.163 172.895 124.587 175.807 132.726 175.807C137.199 175.807 140.794 174.926 143.506 173.166C146.354 171.405 147.78 169.036 147.78 166.055C147.78 161.315 144.117 157.524 136.793 154.679L125.401 150.413C108.314 144.183 99.7702 134.229 99.7702 120.55C99.7702 115.675 100.65 111.341 102.415 107.549C104.313 103.621 106.888 100.303 110.145 97.595C113.535 94.7504 117.536 92.5839 122.149 91.0942C126.758 89.6044 131.911 88.8588 137.608 88.8588C140.183 88.8588 143.031 89.0626 146.151 89.4688C149.405 89.8749 152.661 90.4842 155.914 91.2972C159.171 91.9739 162.288 92.787 165.273 93.735C168.256 94.6829 170.832 95.6991 173.003 96.7819C173.003 100.168 172.324 103.689 170.969 107.346C169.613 111.003 167.781 113.711 165.475 115.471C154.761 110.732 145.473 108.361 137.608 108.361C134.082 108.361 131.3 109.242 129.266 111.003C127.233 112.628 126.216 114.795 126.216 117.503C126.216 121.702 129.605 125.02 136.388 127.457L148.797 131.926C157.745 135.041 164.392 139.308 168.732 144.725C173.072 150.143 175.242 156.44 175.242 163.618C175.242 173.234 171.647 180.954 164.458 186.776C157.27 192.465 146.965 195.309 133.54 195.309C120.384 195.309 108.041 191.991 96.5171 185.355ZM208.444 220.954V33.6152C210.494 33.2046 212.819 33 215.418 33C218.151 33 220.68 33.2046 223 33.6144V220.954C220.679 221.363 218.151 221.569 215.418 221.569C212.819 221.569 210.494 221.363 208.444 220.954Z" fill="white"/>
</g>
<defs>
<clipPath id="clip0_150_107">
<rect width="190" height="189" fill="white" transform="translate(33 33)"/>
</clipPath>
</defs>
</svg>
