<svg width="256" height="256" viewBox="0 0 256 256" fill="none" xmlns="http://www.w3.org/2000/svg">
<rect width="256" height="256" fill="#232932"/>
<path d="M128 228C183.228 228 228 183.228 228 128C228 72.7715 183.228 28 128 28C72.7715 28 28 72.7715 28 128C28 183.228 72.7715 228 128 228Z" fill="#F47421"/>
<path d="M128 176.445C154.755 176.445 176.445 154.756 176.445 128.001C176.445 101.245 154.755 79.5562 128 79.5562C101.245 79.5562 79.5557 101.245 79.5557 128.001C79.5557 154.756 101.245 176.445 128 176.445Z" stroke="white" stroke-width="16"/>
<path d="M60.0002 146.667C70.3095 146.667 78.6668 138.309 78.6668 128C78.6668 117.691 70.3095 109.333 60.0002 109.333C49.6908 109.333 41.3335 117.691 41.3335 128C41.3335 138.309 49.6908 146.667 60.0002 146.667Z" fill="#F47421"/>
<path d="M165.778 128H188H165.778Z" fill="black"/>
<path d="M165.778 128H188" stroke="#F47421" stroke-width="3.2"/>
<path d="M60.0003 141.333C67.3641 141.333 73.3337 135.364 73.3337 128C73.3337 120.636 67.3641 114.667 60.0003 114.667C52.6365 114.667 46.667 120.636 46.667 128C46.667 135.364 52.6365 141.333 60.0003 141.333Z" fill="white"/>
<path d="M145.834 59.7765C140.679 68.7046 143.738 80.121 152.667 85.2756C161.595 90.4303 173.011 87.3713 178.166 78.4432C183.32 69.515 180.261 58.0987 171.333 52.944C162.405 47.7894 150.989 50.8484 145.834 59.7765Z" fill="#F47421"/>
<path d="M109.111 160.716L97.9997 179.961L109.111 160.716Z" fill="black"/>
<path d="M109.111 160.716L97.9997 179.961" stroke="#F47421" stroke-width="3.2"/>
<path d="M150.453 62.4432C146.771 68.8204 148.956 76.9749 155.333 80.6568C161.71 84.3387 169.865 82.1537 173.547 75.7765C177.229 69.3993 175.044 61.2447 168.666 57.5628C162.289 53.8809 154.135 56.0659 150.453 62.4432Z" fill="white"/>
<path d="M178.166 177.557C173.011 168.629 161.595 165.57 152.667 170.724C143.738 175.879 140.679 187.295 145.834 196.223C150.989 205.151 162.405 208.21 171.333 203.056C180.261 197.901 183.32 186.485 178.166 177.557Z" fill="#F47421"/>
<path d="M109.111 95.2842L98.0002 76.0392L109.111 95.2842Z" fill="black"/>
<path d="M109.111 95.2842L98.0002 76.0392" stroke="#F47421" stroke-width="3.2"/>
<path d="M173.547 180.224C169.865 173.846 161.711 171.661 155.333 175.343C148.956 179.025 146.771 187.18 150.453 193.557C154.135 199.934 162.289 202.119 168.667 198.437C175.044 194.755 177.229 186.601 173.547 180.224Z" fill="white"/>
</svg>
