<svg width="256" height="256" viewBox="0 0 256 256" fill="none" xmlns="http://www.w3.org/2000/svg">
<rect width="256" height="256" fill="#232932"/>
<g clip-path="url(#clip0_282_12)">
<path d="M94.8375 30L30 67.5375V153.337C30 192.825 61.6875 225 101.175 225C114.338 225 126.525 221.587 137.25 215.737L189.9 185.512C210.862 174.3 225 152.85 225 127.5V37.8L212.325 30.4875L156.75 60.225V153.825C156.75 157.725 156.262 161.625 155.775 165.525C154.8 169.425 153.825 172.838 152.363 176.25L150.9 179.175C148.95 179.175 136.763 174.787 130.425 170.4C124.795 166.704 119.984 161.892 116.288 156.262C114.338 153.337 112.875 150.413 111.413 147.488C109.95 144.563 108.975 141.15 108.488 137.738C108 134.325 108 130.912 108 127.5V37.8L94.8375 30ZM126.525 206.475C123.112 207.938 118.237 209.887 114.337 210.862C110.437 211.837 107.025 211.837 103.125 211.837C99.225 211.837 95.325 211.35 91.425 210.375C87.525 209.4 84.1125 208.425 80.7 206.962C77.2875 205.5 73.875 203.55 70.95 201.6C64.229 197.838 58.5367 192.481 54.375 186C52.425 183.075 50.475 179.662 49.0125 176.25C47.55 172.838 46.575 168.938 45.6 165.038C44.625 161.138 44.625 157.237 44.625 153.337V74.85L93.375 45.1125V127.5C93.375 158.7 116.288 185.025 145.538 191.362C144.563 192.825 143.588 194.288 142.125 195.263C136.762 200.625 132.375 204.038 126.525 206.475ZM209.4 138.225C208.912 141.638 207.45 145.05 206.475 147.975C205.013 150.9 203.55 153.825 201.6 156.75C199.65 159.675 193.8 166.988 186 171.375C178.2 175.762 170.887 177.225 166.5 178.2C169.425 170.4 171.375 162.6 171.375 153.825V67.5375L210.375 45.1125V127.5C210.375 131.4 210.375 134.813 209.4 138.225Z" fill="#02B3E4"/>
</g>
<defs>
<clipPath id="clip0_282_12">
<rect width="195" height="195" fill="white" transform="translate(30 30)"/>
</clipPath>
</defs>
</svg>
