<svg width="256" height="256" viewBox="0 0 256 256" fill="none" xmlns="http://www.w3.org/2000/svg">
<rect width="256" height="256" fill="#232932"/>
<path d="M31.3143 104C32.5371 104.611 33.2029 105.486 33.3114 106.623C33.22 106.571 33.2029 106.674 33.26 106.931L29.3429 108.046C28.7225 108.221 28.176 108.593 27.7863 109.107C27.3965 109.62 27.1847 110.247 27.1829 110.891C27.1429 117.389 27.2457 124.029 27.4914 130.811C27.52 131.634 27.3114 133.146 26.8657 135.346C24.6543 133.077 23.3657 130.22 23 126.774V106.023C23.28 104.994 23.9714 104.32 25.0743 104H31.3143Z" fill="#7C7EF0"/>
<path d="M52.1 104C51.6143 106.994 51.14 109.991 50.6771 112.991C50.0943 116.789 50.3086 119.309 50.3343 123.269C50.3457 124.806 49.7314 127.589 48.4914 131.617C48.4812 131.648 48.4605 131.674 48.4334 131.69C48.4064 131.706 48.3751 131.71 48.3457 131.703L48.3028 131.694C48.283 131.687 48.2663 131.673 48.2554 131.656C48.2446 131.639 48.2401 131.619 48.2428 131.6L49.3486 124.64C49.3476 124.633 49.3448 124.627 49.3404 124.622C49.3361 124.618 49.3304 124.614 49.3241 124.612C49.3177 124.61 49.311 124.61 49.3047 124.612C49.2984 124.614 49.2928 124.618 49.2886 124.623C48.3914 126.857 47.4371 128.714 46.4257 130.194C44.1543 133.494 40.4086 133.237 36.6886 132.929C33.2343 132.646 30.6971 134.077 28.4 136.529L27.7314 135.98C28.3314 133.74 28.6 132.089 28.5371 131.026C28.0914 123.371 27.7228 116.257 28.2457 109.22C28.2562 109.088 28.3074 108.964 28.3921 108.864C28.4768 108.764 28.5905 108.693 28.7171 108.663L31.9657 107.874C32.008 107.864 32.0525 107.866 32.0937 107.88C32.1349 107.894 32.1709 107.92 32.1974 107.955C32.2239 107.99 32.2396 108.032 32.2426 108.075C32.2456 108.119 32.2357 108.162 32.2143 108.2C29.0514 114.311 30.0457 121.683 33.4057 127.451C34.4228 130.097 36.3343 131.369 39.14 131.266C43.0543 131.231 45.0086 129.157 45.0028 125.043C44.9914 118.746 44.9828 112.429 44.9771 106.091C44.9771 105.813 45.0674 105.543 45.2343 105.32C45.64 104.783 46.1628 104.343 46.8028 104H52.1Z" fill="#7C7EF0"/>
<path d="M53.1971 104C54.2714 104.429 54.9171 105.146 55.1343 106.151C55.1629 111.129 55.1686 116.089 55.1514 121.031C55.14 126.191 54.6686 129.751 53.7371 131.711C52.1829 134.991 49.4371 137.174 45.5 138.26C39.7057 139.86 34.0629 139.334 28.5714 136.683C28.4114 136.351 28.3543 136.3 28.4 136.529C30.6971 134.077 33.2343 132.646 36.6886 132.929C40.4086 133.237 44.1543 133.494 46.4257 130.194C47.4371 128.714 48.3914 126.857 49.2886 124.623C49.2928 124.618 49.2985 124.614 49.3048 124.612C49.3111 124.61 49.3178 124.61 49.3241 124.612C49.3304 124.614 49.3361 124.618 49.3404 124.622C49.3448 124.627 49.3476 124.633 49.3486 124.64L48.2429 131.6C48.2401 131.619 48.2446 131.639 48.2555 131.656C48.2664 131.673 48.2831 131.687 48.3029 131.694L48.3457 131.703C48.3751 131.71 48.4064 131.706 48.4335 131.69C48.4605 131.674 48.4812 131.648 48.4914 131.617C49.7314 127.589 50.3457 124.806 50.3343 123.269C50.3086 119.309 50.0943 116.789 50.6771 112.991C51.14 109.991 51.6143 106.994 52.1 104H53.1971Z" fill="#8156C2"/>
<path d="M68.8314 104C71.0172 104.746 70.8714 106.366 70.7857 108.534L70.7171 114.629C69.2714 117.297 68.3486 120.151 67.9486 123.191C67.9149 123.453 67.8009 123.696 67.6229 123.886C67.2172 124.309 66.9372 124.909 66.7829 125.686C66.1143 129.123 65.1886 134.291 62.6 138.509C59.8486 137.746 60.5943 133.94 60.6114 131.797L60.6029 107.909C60.3857 106.046 60.9886 104.743 62.4114 104H68.8314Z" fill="#7C7EF0"/>
<path d="M128.429 104C136.057 105.269 140.309 109.837 141.183 117.706C141.36 119.311 141.36 120.846 141.183 122.309C141.108 122.905 140.818 123.454 140.368 123.852C139.918 124.25 139.339 124.469 138.74 124.469H120.329C120.248 124.468 120.168 124.486 120.095 124.52C120.021 124.555 119.957 124.605 119.905 124.667C119.853 124.729 119.816 124.802 119.796 124.88C119.776 124.959 119.773 125.041 119.789 125.12C121.126 132.689 129.346 133.391 134.78 129.56C135.015 129.398 135.29 129.311 135.569 129.311C137.431 129.334 138.763 130.377 139.563 132.44C140.489 134.797 136.289 137.069 134.531 137.763C128.651 140.111 121.22 139.571 116.24 135.569C111.337 131.626 110.163 126.354 110.42 120.2C110.797 111.517 115.666 105.44 124.443 104H128.429ZM120.123 118.383L132.363 118.314C132.413 118.314 132.461 118.294 132.496 118.259C132.532 118.224 132.551 118.176 132.551 118.126V117.774C132.542 116.045 131.887 114.389 130.732 113.173C129.576 111.956 128.014 111.277 126.389 111.286H126.029C125.224 111.29 124.427 111.463 123.685 111.795C122.943 112.127 122.27 112.611 121.704 113.22C121.138 113.829 120.691 114.55 120.387 115.344C120.083 116.137 119.93 116.986 119.934 117.843V118.194C119.934 118.244 119.954 118.292 119.99 118.328C120.025 118.363 120.073 118.383 120.123 118.383Z" fill="white"/>
<path d="M164.617 104C167.463 105.063 166.889 107.771 166.674 110.711C166.658 110.984 166.549 111.243 166.366 111.449C164.429 113.591 162.543 112.623 160.666 113.077C157.62 113.809 156.089 115.643 156.071 118.58C156.054 121.786 156.051 127.637 156.063 136.134C156.063 139.194 150.346 138.543 149.043 138.449C148.362 138.397 147.726 138.09 147.262 137.589C146.798 137.089 146.54 136.431 146.54 135.749L146.531 106.751C146.531 106.228 146.725 105.724 147.075 105.337C147.426 104.951 147.907 104.709 148.426 104.66C148.883 104.62 150.357 104.611 152.849 104.634C154.897 104.66 155.917 105.637 155.763 107.609C155.757 107.677 155.773 107.745 155.809 107.803C155.845 107.861 155.899 107.906 155.963 107.931C156.026 107.956 156.096 107.96 156.162 107.942C156.228 107.924 156.286 107.885 156.329 107.831C157.894 105.9 159.863 104.623 162.234 104H164.617Z" fill="white"/>
<path d="M185.617 104C190.726 104.606 194.271 106.717 196.254 110.334C197.346 112.317 196.877 113.789 194.849 114.749C194.606 114.862 194.346 114.923 194.086 114.929C191.943 114.929 189.483 115.22 188.566 114.191C187.889 113.42 187.366 111.886 186.457 111.329C180.269 107.54 173.403 115.769 182.454 117.689C188.634 119 195.706 120.217 197.103 126.56C199.76 138.586 183.714 140.78 176.12 137.909C172.863 136.68 170.563 134.623 169.22 131.737C168.534 130.263 168.969 129.023 170.523 128.017C170.752 127.866 171.017 127.786 171.286 127.786H174.749C175.226 127.786 175.695 127.914 176.107 128.156C176.518 128.399 176.857 128.748 177.089 129.166L177.989 130.786C178.112 131.01 178.289 131.197 178.503 131.326C181.411 133.057 184.28 133.229 187.109 131.84C187.439 131.683 187.716 131.433 187.906 131.12C189.031 129.246 188.6 127.649 186.611 126.329C186.43 126.209 186.23 126.12 186.02 126.063C180.62 124.606 177.791 123.834 177.534 123.749C175.34 123.023 173.52 121.991 172.074 120.654C168.689 117.526 168.431 111.903 171.337 108.569C173.657 105.906 176.897 104.383 181.057 104H185.617Z" fill="white"/>
<path d="M219.791 104C227.889 105.137 232.291 110.191 233 119.163V122.3C232.663 123.169 232.154 123.817 231.474 124.246C231.25 124.38 230.995 124.451 230.737 124.451H212.891C212.593 124.451 212.3 124.534 212.046 124.691C211.792 124.848 211.586 125.072 211.452 125.338C211.318 125.605 211.26 125.904 211.286 126.201C211.312 126.499 211.419 126.783 211.597 127.023L212.857 128.72C213.93 130.169 215.487 131.184 217.246 131.583C220.331 132.28 223.14 131.763 225.671 130.031C226.374 129.547 227.234 129.345 228.081 129.466C228.927 129.586 229.698 130.021 230.24 130.683L230.591 131.12C230.843 131.429 231.03 131.784 231.143 132.166C231.255 132.548 231.29 132.949 231.247 133.344C231.203 133.74 231.08 134.123 230.887 134.471C230.694 134.819 230.433 135.125 230.12 135.371C227.543 137.406 224.674 138.611 221.514 138.989C213.089 139.991 204.8 136.074 202.7 127.511C200.129 117.011 204.269 105.466 216.2 104H219.791ZM211.751 118.383L223.991 118.314C224.041 118.314 224.089 118.294 224.125 118.259C224.16 118.224 224.18 118.176 224.18 118.126V117.783C224.17 116.056 223.533 114.403 222.408 113.188C221.282 111.972 219.762 111.294 218.18 111.303H217.494C216.711 111.307 215.936 111.48 215.213 111.811C214.491 112.142 213.836 112.626 213.285 113.234C212.734 113.842 212.299 114.563 212.003 115.355C211.708 116.148 211.558 116.996 211.563 117.851V118.194C211.563 118.244 211.583 118.292 211.618 118.328C211.653 118.363 211.701 118.383 211.751 118.383Z" fill="white"/>
<path d="M91.7514 125.437C92.1114 125.437 92.3343 125.286 92.42 124.983C94.3229 118.257 96.0314 112.111 97.5457 106.546C97.6849 106.034 97.9807 105.579 98.3914 105.246C98.8021 104.912 99.3068 104.716 99.8343 104.686C103.777 104.463 107.814 104.137 105.877 109.768C104.334 114.26 101.389 122.923 97.04 135.757C95.9771 138.911 94.5886 138.5 91.7428 138.5C88.9057 138.491 87.5171 138.911 86.4543 135.748C82.1171 122.914 79.1771 114.251 77.6343 109.76C75.7057 104.128 79.7429 104.454 83.6857 104.677C84.2128 104.71 84.7164 104.908 85.1255 105.243C85.5346 105.578 85.8285 106.034 85.9657 106.546C87.48 112.111 89.1857 118.257 91.0829 124.983C91.1686 125.286 91.3914 125.437 91.7514 125.437Z" fill="white"/>
<path d="M33.26 106.931L33.4057 127.451C30.0457 121.683 29.0514 114.311 32.2143 108.2C32.2358 108.162 32.2456 108.118 32.2426 108.075C32.2396 108.031 32.2239 107.99 32.1974 107.955C32.171 107.92 32.1349 107.894 32.0937 107.88C32.0525 107.865 32.008 107.863 31.9657 107.874L28.7172 108.663C28.5905 108.693 28.4768 108.763 28.3921 108.863C28.3074 108.963 28.2562 109.088 28.2457 109.22C27.7229 116.257 28.0914 123.371 28.5372 131.025C28.6 132.088 28.3314 133.74 27.7314 135.98L26.8657 135.345C27.3114 133.145 27.52 131.634 27.4914 130.811C27.2457 124.028 27.1429 117.388 27.1829 110.891C27.1847 110.247 27.3965 109.62 27.7863 109.107C28.176 108.593 28.7225 108.221 29.3429 108.045L33.26 106.931Z" fill="#8156C2"/>
<path d="M70.7171 114.628C70.7857 121.697 70.8 128.728 70.76 135.723C70.7543 137.334 70.0429 138.22 68.6257 138.38C66.9229 138.574 65.2 138.634 63.4571 138.56C63.1771 138.474 62.8914 138.457 62.6 138.508C65.1886 134.291 66.1143 129.123 66.7829 125.686C66.9372 124.908 67.2171 124.308 67.6229 123.886C67.8009 123.696 67.9149 123.453 67.9486 123.191C68.3486 120.151 69.2714 117.297 70.7171 114.628Z" fill="#8156C2"/>
<path d="M32.1714 143.969L50.6771 143.977C56.6657 143.943 62.6543 143.954 68.6429 144.012C70.4943 144.029 71.2629 145.177 70.9486 147.457L58.4257 148.897C58.4116 148.9 58.3972 148.899 58.3834 148.895C58.3695 148.891 58.3565 148.884 58.3452 148.874C58.334 148.864 58.3246 148.852 58.3178 148.839C58.311 148.825 58.3069 148.81 58.3057 148.794C58.3056 148.769 58.3153 148.744 58.3328 148.725C58.3502 148.706 58.3742 148.694 58.4 148.692L67.5714 147.826C67.6154 147.822 67.656 147.8 67.6847 147.767C67.7134 147.733 67.7281 147.69 67.7257 147.646L67.7171 147.637C67.7148 147.594 67.6963 147.554 67.6658 147.525C67.6353 147.496 67.5951 147.481 67.5543 147.483C59.3886 147.734 51.7914 148.174 44.7629 148.803C43.0829 148.957 41.1657 149.029 39.0114 149.017C34.7686 149 30.2257 148.554 27.0457 151.983L25.1343 152.094C24.1229 151.74 23.4114 151.134 23 150.277V145.717C23.6171 144.672 24.26 144.112 24.9286 144.037C26.0429 143.923 28.4571 143.9 32.1714 143.969Z" fill="#7C7EF0"/>
<path d="M70.9486 147.458C71 147.675 71.0086 147.835 70.9743 147.938C71.3571 150.652 70.2943 152.009 67.7857 152.009C54.1971 151.998 40.6171 151.989 27.0457 151.983C30.2257 148.555 34.7686 149 39.0114 149.018C41.1657 149.029 43.0829 148.958 44.7629 148.803C51.7914 148.175 59.3886 147.735 67.5543 147.483C67.5951 147.481 67.6353 147.496 67.6658 147.525C67.6963 147.554 67.7148 147.594 67.7171 147.638L67.7257 147.646C67.7281 147.69 67.7134 147.734 67.6847 147.767C67.656 147.801 67.6154 147.822 67.5714 147.826L58.4 148.692C58.3742 148.694 58.3502 148.706 58.3328 148.725C58.3153 148.744 58.3056 148.769 58.3057 148.795C58.3069 148.81 58.311 148.825 58.3178 148.839C58.3246 148.853 58.334 148.865 58.3452 148.874C58.3565 148.884 58.3695 148.891 58.3834 148.895C58.3972 148.899 58.4116 148.9 58.4257 148.898L70.9486 147.458Z" fill="#8156C2"/>
</svg>
