<svg width="256" height="256" viewBox="0 0 256 256" fill="none" xmlns="http://www.w3.org/2000/svg">
<rect width="256" height="256" fill="#232932"/>
<g clip-path="url(#clip0_150_136)">
<path d="M157.131 127.772L192.094 67.5437L209.004 127.772L192.094 188.076L157.055 127.772H157.131ZM140.068 137.658L175.107 197.886L114.17 182.297L70.0664 137.506H139.992L140.068 137.658ZM175.031 57.6578L140.068 117.962H70.1426L114.094 73.2471L175.031 57.6578ZM224.924 107.24L203.672 28L123.996 49.2928L112.189 69.9772L88.2715 69.8251L30 127.772L88.2715 185.795L112.189 185.643L123.996 206.327L203.596 227.544L224.924 148.304L212.812 127.772L225 107.24H224.924Z" fill="white"/>
</g>
<defs>
<clipPath id="clip0_150_136">
<rect width="195" height="200" fill="white" transform="translate(30 28)"/>
</clipPath>
</defs>
</svg>
