<svg width="256" height="256" viewBox="0 0 256 256" fill="none" xmlns="http://www.w3.org/2000/svg">
<rect width="256" height="256" fill="#242932"/>
<path d="M134.767 180.625C134.767 155.521 155.118 135.171 180.222 135.171C205.326 135.171 225.676 155.521 225.676 180.625C225.676 205.729 205.326 226.08 180.222 226.08C155.118 226.08 134.767 205.729 134.767 180.625Z" fill="#858585"/>
<path d="M134.767 76.1818C134.767 51.078 155.118 30.7273 180.222 30.7273C205.326 30.7273 225.676 51.078 225.676 76.1818V117.091C225.676 119.601 223.641 121.636 221.131 121.636H139.313C136.803 121.636 134.767 119.601 134.767 117.091V76.1818Z" fill="#CCCCCC"/>
<path d="M120.727 180.625C120.727 205.729 100.377 226.08 75.2728 226.08C50.169 226.08 29.8182 205.729 29.8182 180.625L29.8182 139.716C29.8182 137.205 31.8533 135.171 34.3637 135.171H116.182C118.692 135.171 120.727 137.205 120.727 139.716V180.625Z" fill="#4D4D4D"/>
</svg>
