<svg width="256" height="256" viewBox="0 0 256 256" fill="none" xmlns="http://www.w3.org/2000/svg">
<rect width="256" height="256" fill="#232932"/>
<path fill-rule="evenodd" clip-rule="evenodd" d="M185.188 141.906C183.116 150.546 179.106 158.602 173.462 165.465C167.818 172.327 160.688 177.816 152.61 181.516L143.235 170.891L127.219 186.906C118.153 186.798 109.235 184.598 101.159 180.479C93.0829 176.359 86.0666 170.431 80.6564 163.156C82.3751 163.625 84.0939 163.938 85.8908 164.094C88.4689 164.094 91.3595 163.234 91.3595 158.781V115.5C91.3992 114.385 91.1761 113.277 90.7082 112.265C90.2403 111.252 89.5408 110.364 88.6662 109.672C87.7916 108.98 86.7664 108.503 85.6736 108.281C84.5807 108.058 83.4508 108.096 82.3751 108.391C74.9533 110.109 69.0939 128.547 69.0939 128.547C68.9081 114.337 73.8927 100.544 83.1197 89.7363C92.3467 78.9283 105.187 71.842 119.25 69.7969C111.203 74.4844 106.75 81.9062 106.75 88.1562C106.75 98.3125 112.766 97.0625 114.563 95.5781V154.016C115.399 156.035 116.921 157.694 118.86 158.703C120.069 159.32 121.408 159.641 122.766 159.641C128.938 159.641 136.828 152.609 136.828 152.609V105.344C136.676 102.817 135.941 100.359 134.68 98.1633C133.42 95.9676 131.668 94.0935 129.563 92.6875C129.563 92.6875 136.281 91.5156 141.516 95.5C150.673 84.561 163.507 77.3387 177.61 75.1875C177.61 75.1875 160.344 88.7031 160.344 106.906C160.344 120.422 160.656 153.469 160.656 153.469C167.063 159.641 176.594 150.656 185.188 141.906Z" fill="white"/>
<path fill-rule="evenodd" clip-rule="evenodd" d="M128 31.75C102.473 31.75 77.9914 41.8906 59.941 59.941C41.8906 77.9914 31.75 102.473 31.75 128C31.75 153.527 41.8906 178.009 59.941 196.059C77.9914 214.109 102.473 224.25 128 224.25C153.527 224.25 178.009 214.109 196.059 196.059C214.109 178.009 224.25 153.527 224.25 128C224.25 102.473 214.109 77.9914 196.059 59.941C178.009 41.8906 153.527 31.75 128 31.75ZM128 220.422C103.488 220.422 79.9803 210.685 62.6479 193.352C45.3154 176.02 35.5781 152.512 35.5781 128C35.5781 103.488 45.3154 79.9803 62.6479 62.6479C79.9803 45.3154 103.488 35.5781 128 35.5781C152.512 35.5781 176.02 45.3154 193.352 62.6479C210.685 79.9803 220.422 103.488 220.422 128C220.422 152.512 210.685 176.02 193.352 193.352C176.02 210.685 152.512 220.422 128 220.422Z" fill="white"/>
</svg>
