<svg width="256" height="256" viewBox="0 0 256 256" fill="none" xmlns="http://www.w3.org/2000/svg">
<rect width="256" height="256" fill="#232932"/>
<g clip-path="url(#clip0_262_63)">
<path d="M53 203.025C86.1371 236.194 139.863 236.194 173.001 203.025C206.138 169.855 206.138 116.076 173.001 82.9067L158.001 97.9214C182.853 122.799 182.853 163.133 158.001 188.009C133.147 212.887 92.8531 212.887 68 188.009L53 203.024V203.025Z" fill="#00C98D"/>
<path d="M83 172.995C99.5686 189.579 126.431 189.579 143 172.995C159.569 156.41 159.569 129.521 143 112.936L128 127.951C136.285 136.243 136.285 149.687 128 157.98C119.716 166.273 106.285 166.273 98 157.98L83 172.995ZM203 52.8767C169.863 19.7078 116.137 19.7078 83 52.8767C49.8623 86.0468 49.8623 139.825 83 172.995L98 157.98C73.1475 133.103 73.1469 92.7688 97.9994 67.8919C122.853 43.0145 163.147 43.0145 187.999 67.8919L203 52.8767Z" fill="#00C98D"/>
<path d="M173 82.9068C156.432 66.3221 129.568 66.3221 113 82.9068C96.431 99.4916 96.431 126.381 113 142.965L128 127.951C119.715 119.659 119.715 106.214 128 97.9215C136.284 89.6288 149.715 89.6288 158 97.9215L173 82.9068Z" fill="#00C98D"/>
<path d="M203 52.8767C169.863 19.7078 116.137 19.7078 83 52.8767C49.8623 86.0468 49.8623 139.825 83 172.995L97.9994 157.98C73.1469 133.103 73.1469 92.7688 97.9994 67.8919C122.853 43.0145 163.147 43.0145 187.999 67.8919L203 52.8767Z" fill="white" fill-opacity="0.4"/>
<path d="M173 82.9068C156.432 66.3221 129.568 66.3221 113 82.9068C96.431 99.4916 96.431 126.381 113 142.965L128 127.951C119.715 119.659 119.715 106.214 128 97.9215C136.284 89.6288 149.715 89.6288 158 97.9215L173 82.9068Z" fill="white" fill-opacity="0.4"/>
</g>
<defs>
<clipPath id="clip0_262_63">
<rect width="150" height="200" fill="white" transform="translate(53 28)"/>
</clipPath>
</defs>
</svg>
