<svg width="256" height="256" viewBox="0 0 256 256" fill="none" xmlns="http://www.w3.org/2000/svg">
<rect width="256" height="256" fill="#232932"/>
<g clip-path="url(#clip0_178_2)">
<path fill-rule="evenodd" clip-rule="evenodd" d="M146.79 96.75H193.665C194.404 96.75 195.13 96.8013 195.841 96.9004L146.905 145.836C146.803 145.114 146.75 144.376 146.75 143.625V96.75H128V143.625C128 162.61 143.39 178 162.375 178H209.25V159.25H162.375C161.624 159.25 160.886 159.198 160.164 159.095L209.13 110.129C209.235 110.862 209.29 111.612 209.29 112.375V159.25H228.04V112.375C228.04 93.3903 212.65 78 193.665 78H146.79V96.75ZM28 90.5V90.5506L92.0656 172.134C99.7649 181.939 115.513 176.494 115.513 164.028V90.5H96.7633V147.757L51.8005 90.5H28Z" fill="white"/>
</g>
<defs>
<clipPath id="clip0_178_2">
<rect width="200" height="200" fill="white" transform="translate(28 28)"/>
</clipPath>
</defs>
</svg>
