<svg width="256" height="256" viewBox="0 0 256 256" fill="none" xmlns="http://www.w3.org/2000/svg">
<rect width="256" height="256" fill="url(#paint0_linear_81_171)"/>
<g clip-path="url(#clip0_81_171)">
<path d="M193.009 211.027V152.905C193.016 149.736 192.643 146.577 191.898 143.496C191.709 142.947 191.709 142.596 191.528 142.019C189.589 135.108 185.843 128.834 180.673 123.839C175.504 118.845 169.097 115.309 162.108 113.593C158.954 112.851 155.723 112.479 152.482 112.486H133.428C122.75 112.477 112.505 108.27 104.918 100.777C97.3308 93.2838 93.0128 83.1098 92.9011 72.4625V28C81.7576 31.894 71.3216 37.5653 62 44.7927V211.027C70.9202 218.051 80.9186 223.594 91.6098 227.442L92.9011 227.811V168.384C92.9059 161.78 95.5389 155.448 100.222 150.778C104.905 146.108 111.255 143.483 117.878 143.478H136.941C143.565 143.481 149.916 146.105 154.6 150.775C159.284 155.446 161.916 161.779 161.918 168.384V227.982C173.178 224.146 183.695 218.411 193.009 211.027Z" fill="white"/>
<path d="M193.009 128V47.1879C193.04 46.3222 192.976 45.4557 192.819 44.6037C192.231 41.0069 190.385 37.7338 187.608 35.3639C184.832 32.9941 181.304 31.6805 177.649 31.6558C176.084 31.721 174.532 31.9688 173.025 32.3941C170.38 33.2038 168.003 34.7116 166.146 36.7579C164.29 38.8041 163.022 41.3128 162.478 44.0184C162.01 46.2684 162.049 48.594 162.592 50.8271C163.136 53.0601 164.17 55.1449 165.621 56.9304L166.361 57.8308C168.928 60.7018 171.34 63.7075 173.585 66.8349C183.228 80.3628 189.507 95.9819 191.907 112.405C192.657 116.965 193.025 121.579 193.009 126.199V128Z" fill="white"/>
<path d="M104.749 209.55C104.738 210.328 104.883 211.101 105.176 211.822C105.47 212.543 105.905 213.198 106.456 213.748C107.007 214.299 107.664 214.734 108.386 215.027C109.109 215.321 109.883 215.467 110.663 215.457H144.346C145.884 215.456 147.362 214.857 148.466 213.788C149.57 212.719 150.214 211.264 150.26 209.731V209.361C150.211 207.829 149.567 206.376 148.463 205.31C147.359 204.243 145.883 203.645 144.346 203.644H131.207V185.933C131.197 185.154 131.344 184.382 131.638 183.661C131.932 182.94 132.368 182.285 132.92 181.734C133.472 181.184 134.129 180.749 134.852 180.456C135.575 180.162 136.35 180.016 137.131 180.026C137.92 180.096 138.716 180.008 139.471 179.767C140.226 179.526 140.925 179.136 141.526 178.62C142.128 178.105 142.619 177.475 142.972 176.767C143.325 176.059 143.532 175.288 143.581 174.499C143.63 173.709 143.52 172.919 143.257 172.173C142.994 171.427 142.584 170.741 142.051 170.156C141.518 169.571 140.872 169.098 140.153 168.766C139.433 168.433 138.654 168.248 137.862 168.221H117.878C117.095 168.26 116.327 168.455 115.621 168.795C114.915 169.135 114.284 169.614 113.767 170.202C113.25 170.79 112.856 171.475 112.61 172.218C112.364 172.96 112.27 173.745 112.334 174.524C112.429 175.959 113.044 177.311 114.064 178.328C115.084 179.345 116.439 179.958 117.878 180.053C118.659 180.043 119.434 180.189 120.157 180.483C120.88 180.776 121.537 181.211 122.089 181.761C122.641 182.312 123.077 182.967 123.371 183.688C123.665 184.409 123.812 185.181 123.802 185.96V203.635H110.663C109.096 203.649 107.597 204.277 106.49 205.384C105.384 206.491 104.758 207.988 104.749 209.55Z" fill="white"/>
</g>
<defs>
<linearGradient id="paint0_linear_81_171" x1="128" y1="0" x2="128" y2="256" gradientUnits="userSpaceOnUse">
<stop stop-color="#0566B4"/>
<stop offset="1" stop-color="#2687CC"/>
</linearGradient>
<clipPath id="clip0_81_171">
<rect width="131" height="200" fill="white" transform="translate(62 28)"/>
</clipPath>
</defs>
</svg>
