<svg width="256" height="256" viewBox="0 0 256 256" fill="none" xmlns="http://www.w3.org/2000/svg">
<rect width="256" height="256" fill="#00519A"/>
<path d="M61.3482 69L77.9866 148.388L94.6679 69H127.973L94.6679 186H61.3625L28 69H61.3482ZM144.619 69H198.89C203.035 69.4793 207.029 70.8462 210.601 73.0084C214.174 75.1706 217.243 78.0776 219.599 81.5326C222.311 85.9189 223.725 90.9885 223.676 96.1505C223.643 101.288 222.235 106.322 219.599 110.725C215.768 116.859 209.815 121.358 202.882 123.358C207.065 123.824 211.098 125.189 214.707 127.36C218.317 129.532 221.417 132.459 223.798 135.941C226.612 140.444 228.052 145.675 227.939 150.989C228.322 157.341 226.887 163.671 223.805 169.232C221.085 173.664 217.444 177.455 213.13 180.347C208.817 183.238 203.933 185.161 198.811 185.986H144.619V69ZM177.96 114.975H186.286C189.455 114.759 192.423 113.345 194.592 111.017C196.76 108.689 197.966 105.621 197.966 102.435C197.966 99.2482 196.76 96.1806 194.592 93.8526C192.423 91.5246 189.455 90.11 186.286 89.8949H177.96V114.975ZM177.96 165.134H187.886C191.633 164.948 195.166 163.323 197.752 160.596C200.339 157.869 201.781 154.248 201.781 150.484C201.781 146.719 200.339 143.098 197.752 140.371C195.166 137.644 191.633 136.02 187.886 135.834H177.96V165.134Z" fill="white"/>
</svg>
