<svg width="256" height="256" viewBox="0 0 256 256" fill="none" xmlns="http://www.w3.org/2000/svg">
<rect width="256" height="256" fill="#232932"/>
<g clip-path="url(#clip0_150_168)">
<path d="M127.733 29.5563L29.4771 127.533L127.733 225.977L225.445 127.533L127.733 29.4785" fill="#019833"/>
<path d="M127.733 38.5057V30.3345L30.1765 127.533H38.4941L127.733 38.5057Z" fill="#66FE98"/>
<path d="M127.733 38.5057V30.3345L225.523 127.611H216.506L127.733 38.5057Z" fill="#45FE02"/>
<path d="M127.733 216.95V226.132L30.1765 127.533H38.4941L127.733 217.027" fill="#017D17"/>
<path d="M127.733 216.95V226.132L225.445 127.533H216.428L127.733 217.105" fill="#005D04"/>
<path d="M78.6828 207.455H59.8711L52.4863 200.218V62.6304H46.6562L41.6035 57.6499V42.2413L46.8117 36.6382H112.886L118.871 42.5526V57.1829L113.974 63.1751H108.844V109.712L155.873 63.1751H153.23L147.789 57.2607V41.8522L153.23 36.8716H219.926L225.212 42.1635V56.7938L78.6828 207.455Z" fill="black"/>
<path d="M127.733 227.455L28 127.611L127.733 28L227 127.611L127.733 227.377V227.455ZM31.0316 127.611L127.733 224.498L223.891 127.611L127.733 31.1128L31.0316 127.611Z" fill="black"/>
<path d="M111.953 45.6656L114.985 43.7979L111.875 40.6851H48.4441L45.1016 43.9535V56.1714L48.6773 59.7512L50.3875 56.1714L48.1332 53.9146V45.3543L49.8434 43.7979H109.854L112.031 45.6656" fill="#FEFEFE"/>
<path d="M60.2598 55.8599V199.362L62.2031 201.23L60.6484 204.342L56.373 200.14V59.5953L60.2598 55.8599Z" fill="#FEFEFE"/>
<path d="M49.921 55.8599L48.6772 59.7509H56.3729L60.8038 55.8599H49.921Z" fill="#808080"/>
<path d="M157.428 55.9379L154.785 54.0702V46.2881L157.583 43.4865H216.117L218.449 46.5216L221.559 44.0313L218.294 40.9185H155.251L152.142 44.1091V56.4827L155.407 59.4399M104.413 118.895L98.272 133.759L167.456 64.2648L167.067 55.8601L104.413 118.895Z" fill="#FEFEFE"/>
<path d="M111.875 45.6656L114.985 43.7979V55.8601L111.409 59.4399H104.646L104.491 118.895L98.3496 133.681V55.8601H109.777L111.875 54.148V45.5877M218.294 45.6656L221.636 44.0313V55.0041L76.5063 204.343H60.6484L62.2031 201.385H74.4074L218.216 52.436V45.6656M167.145 55.8601L163.646 59.4399H155.484L157.505 55.9379L167.145 55.8601Z" fill="#808080"/>
<path d="M157.039 43.4086L154.707 45.6654V53.9144L156.728 55.8599H167.145V63.8755L98.3496 133.837V56.0156H109.777L112.109 53.6809V45.2763L110.01 43.5642H49.7656L47.8223 45.5876V54.1479L49.7656 56.0156H60.2598V199.206L62.2031 201.23H74.0965L218.294 52.1245V45.5876L216.039 43.2529H156.961" fill="#CCCCCC"/>
<path d="M74.2519 201.541H62.2031L60.1042 199.362V56.3269H49.7656L47.6667 54.2257V45.5097L49.7656 43.4086H110.01L112.342 45.1985V53.7588L109.854 56.1712H98.5828V133.214L166.989 63.7977V56.0156H156.65L154.552 53.9922V45.5876L156.884 43.2529H216.117L218.449 45.5876V52.358L74.2519 201.463V201.541ZM62.3585 201.074H74.0964L218.138 52.1245V45.7432L215.962 43.5642H157.117L154.94 45.7432V53.8366L156.806 55.7043H167.3V63.9533L98.1164 134.226V55.7821H109.777L111.953 53.5253V45.3541L109.932 43.7977H49.921L48.0554 45.6654V54.07L49.921 55.9378H60.4929V199.206L62.3585 201.074Z" fill="#808080"/>
<path d="M132.631 139.907L132.32 140.062L129.521 142.397L129.366 142.786L126.567 150.568C126.489 150.802 126.567 151.035 126.723 151.269L128.822 153.37C128.977 153.525 129.132 153.603 129.288 153.525H137.839C138.072 153.525 138.227 153.525 138.383 153.37L140.637 151.113L140.793 150.802L143.125 142.63C143.202 142.397 143.125 142.164 142.969 141.93L141.181 140.14C141.125 140.07 141.054 140.012 140.974 139.972C140.893 139.932 140.805 139.91 140.715 139.907H132.631ZM116.85 162.008C116.617 162.008 116.384 162.241 116.306 162.475L115.296 166.677C115.272 166.771 115.269 166.869 115.29 166.963C115.31 167.058 115.352 167.147 115.412 167.222C115.473 167.298 115.55 167.358 115.637 167.398C115.725 167.439 115.821 167.458 115.918 167.455H120.97L108.377 203.409C108.337 203.507 108.323 203.614 108.336 203.719C108.349 203.824 108.388 203.924 108.45 204.01C108.513 204.096 108.596 204.164 108.692 204.209C108.788 204.253 108.894 204.273 108.999 204.265H127.267C127.578 204.265 127.811 204.109 127.889 203.876L129.132 199.985C129.157 199.891 129.159 199.793 129.139 199.698C129.118 199.604 129.076 199.515 129.016 199.44C128.956 199.364 128.879 199.304 128.791 199.263C128.703 199.223 128.607 199.203 128.511 199.206H124.391L136.828 162.864C136.868 162.766 136.882 162.659 136.87 162.554C136.857 162.449 136.818 162.348 136.755 162.263C136.693 162.177 136.61 162.108 136.514 162.064C136.418 162.019 136.312 162 136.206 162.008H116.85ZM174.996 162.086C174.84 162.086 174.763 162.241 174.607 162.319L170.876 166.599H164.813L160.77 162.475C160.714 162.404 160.643 162.347 160.563 162.307C160.482 162.266 160.394 162.244 160.304 162.241H145.845C145.612 162.241 145.301 162.397 145.223 162.63L143.902 166.677C143.878 166.771 143.876 166.869 143.896 166.963C143.916 167.058 143.958 167.147 144.018 167.222C144.079 167.298 144.156 167.358 144.244 167.398C144.331 167.439 144.427 167.458 144.524 167.455H148.411L136.362 203.097C136.322 203.196 136.307 203.302 136.32 203.408C136.333 203.513 136.372 203.613 136.435 203.699C136.497 203.784 136.58 203.853 136.676 203.897C136.772 203.942 136.878 203.961 136.984 203.953H152.375C152.608 203.953 152.841 203.798 152.919 203.564L154.163 200.062C154.187 199.969 154.189 199.871 154.169 199.776C154.149 199.682 154.107 199.593 154.046 199.518C153.986 199.442 153.909 199.382 153.821 199.341C153.734 199.301 153.638 199.281 153.541 199.284H150.82L158.516 175.004H172.431L163.647 203.097C163.622 203.191 163.62 203.289 163.64 203.384C163.661 203.478 163.703 203.567 163.763 203.642C163.823 203.718 163.9 203.778 163.988 203.819C164.076 203.859 164.172 203.879 164.268 203.876H179.038C179.349 203.876 179.582 203.72 179.66 203.487L181.059 200.374C181.119 200.273 181.149 200.157 181.146 200.04C181.143 199.923 181.106 199.809 181.041 199.711C180.976 199.613 180.885 199.536 180.778 199.488C180.671 199.44 180.553 199.423 180.437 199.44H177.716L185.49 174.848H198.705L189.921 203.097C189.897 203.191 189.894 203.289 189.915 203.384C189.935 203.478 189.977 203.567 190.037 203.642C190.098 203.718 190.175 203.778 190.262 203.819C190.35 203.859 190.446 203.879 190.543 203.876H206.867C207.178 203.876 207.411 203.72 207.489 203.487L208.81 200.062C208.87 199.961 208.9 199.846 208.897 199.728C208.894 199.611 208.858 199.497 208.793 199.4C208.728 199.302 208.636 199.225 208.53 199.177C208.423 199.129 208.304 199.112 208.188 199.129H205.001L214.796 167.222L214.718 166.599L211.609 162.475C211.552 162.404 211.482 162.347 211.401 162.307C211.321 162.266 211.232 162.244 211.142 162.241H199.482C199.249 162.241 199.093 162.241 199.016 162.475L195.284 166.444H188.91L185.023 162.319C184.928 162.195 184.789 162.112 184.635 162.086H174.918H174.996Z" fill="#CCCCCC"/>
<path d="M127.811 154.459C128.2 154.848 128.744 155.082 129.288 155.082H137.839C138.461 155.082 139.005 154.848 139.393 154.459L141.725 152.124C141.959 151.891 142.114 151.58 142.192 151.268L144.602 143.019C144.835 142.241 144.602 141.463 144.057 140.918L142.192 138.973C141.803 138.584 141.259 138.35 140.637 138.428H132.32C131.931 138.506 131.542 138.661 131.309 138.895L128.511 141.307C128.2 141.619 128.044 141.93 127.889 142.241L125.09 150.023C124.857 150.802 125.09 151.735 125.634 152.358L127.811 154.459ZM140.326 141.463L141.57 142.63L139.393 150.179L137.528 152.047H129.677L128.122 150.49L130.687 143.486L133.019 141.463H140.326ZM215.806 165.743L212.775 161.619C212.308 160.996 211.686 160.685 211.065 160.685H199.404C198.782 160.685 198.238 160.918 197.85 161.385L194.585 164.965H189.454L186.112 161.307C185.645 160.84 185.101 160.529 184.557 160.529H174.84L174.685 160.607C174.218 160.685 173.83 160.996 173.519 161.385L170.176 165.121H165.434L161.859 161.385C161.47 160.996 160.848 160.763 160.304 160.685H145.845C144.913 160.685 144.135 161.307 143.824 162.163L142.503 166.132C142.393 166.457 142.361 166.803 142.409 167.143C142.458 167.482 142.586 167.805 142.783 168.086C142.98 168.366 143.24 168.597 143.543 168.757C143.845 168.918 144.181 169.005 144.524 169.012H146.312L134.885 202.553C134.773 202.883 134.741 203.237 134.794 203.582C134.847 203.928 134.982 204.255 135.188 204.538C135.393 204.82 135.664 205.049 135.977 205.204C136.289 205.36 136.635 205.438 136.984 205.432H152.375C153.23 205.432 154.085 204.887 154.396 203.953L155.562 200.529C155.672 200.204 155.704 199.858 155.656 199.519C155.607 199.179 155.479 198.856 155.282 198.576C155.085 198.295 154.825 198.065 154.522 197.904C154.22 197.743 153.884 197.656 153.541 197.65H152.919L159.604 176.482H170.332L162.17 202.63C162.072 202.957 162.053 203.301 162.113 203.636C162.173 203.971 162.31 204.288 162.514 204.56C162.718 204.833 162.983 205.053 163.288 205.205C163.592 205.356 163.928 205.434 164.268 205.432H179.116C179.971 205.432 180.748 204.887 181.059 204.109L182.458 200.918C182.6 200.585 182.657 200.222 182.624 199.862C182.591 199.501 182.468 199.155 182.268 198.853C182.067 198.552 181.795 198.306 181.475 198.136C181.156 197.967 180.799 197.88 180.437 197.883H179.815L186.656 176.327H196.761L188.444 202.63C188.348 202.95 188.328 203.288 188.383 203.617C188.439 203.947 188.57 204.259 188.765 204.53C188.96 204.8 189.215 205.023 189.51 205.179C189.805 205.335 190.131 205.422 190.465 205.432H206.789C207.722 205.432 208.499 204.887 208.81 204.031L210.132 200.529C210.242 200.204 210.274 199.858 210.225 199.519C210.177 199.179 210.049 198.856 209.852 198.576C209.655 198.295 209.394 198.065 209.092 197.904C208.789 197.743 208.453 197.656 208.111 197.65H206.945L216.195 167.689C216.35 166.988 216.195 166.21 215.806 165.665V165.743ZM202.902 200.607H206.945L206.245 202.319H191.786L200.881 173.214H184.557L175.695 200.996H179.116L178.494 202.397H165.434L174.452 173.447H157.35L148.799 200.685H152.297L151.753 202.397H138.227L150.509 165.977H145.768L146.545 163.798H159.915L164.113 168.156H171.498L175.54 163.642H184.091L188.133 168H195.906L199.793 163.798H210.676L213.163 167.144L202.825 200.607H202.902ZM129.132 197.728C128.93 197.674 128.72 197.648 128.511 197.65H126.49L138.227 163.331C138.338 163.006 138.37 162.66 138.321 162.32C138.272 161.981 138.144 161.658 137.947 161.377C137.75 161.097 137.49 160.866 137.188 160.706C136.885 160.545 136.549 160.458 136.206 160.451H116.54C115.762 160.685 115.063 161.23 114.829 162.086L113.819 166.366C113.75 166.682 113.751 167.009 113.824 167.324C113.897 167.64 114.039 167.935 114.24 168.188C114.441 168.441 114.696 168.647 114.986 168.789C115.276 168.932 115.594 169.008 115.918 169.012H118.794L106.978 202.942C106.868 203.266 106.836 203.613 106.885 203.952C106.933 204.291 107.061 204.615 107.258 204.895C107.455 205.176 107.716 205.406 108.018 205.567C108.321 205.728 108.657 205.815 108.999 205.821H127.267C128.2 205.821 129.055 205.198 129.366 204.265L130.532 200.374C130.92 199.284 130.298 198.039 129.132 197.728ZM110.243 202.786L123.069 165.977H117.006L117.628 163.486H134.963L122.214 200.763H127.345L126.645 202.864H110.243V202.786Z" fill="black"/>
</g>
<defs>
<clipPath id="clip0_150_168">
<rect width="199" height="200" fill="white" transform="translate(28 28)"/>
</clipPath>
</defs>
</svg>
