<svg width="256" height="256" viewBox="0 0 256 256" fill="none" xmlns="http://www.w3.org/2000/svg">
<rect width="256" height="256" fill="#232932"/>
<g clip-path="url(#clip0_150_237)">
<mask id="mask0_150_237" style="mask-type:alpha" maskUnits="userSpaceOnUse" x="33" y="33" width="190" height="190">
<path fill-rule="evenodd" clip-rule="evenodd" d="M167.733 221.702C169.244 222.292 170.861 222.564 172.482 222.502C174.104 222.44 175.695 222.045 177.157 221.341L216.276 202.518C218.291 201.548 219.991 200.029 221.18 198.135C222.37 196.242 223.001 194.051 223 191.815V64.1846C223 61.9486 222.369 59.7581 221.179 57.865C219.989 55.9719 218.289 54.4533 216.274 53.4838L177.161 34.6605C174.95 33.5969 172.464 33.2468 170.045 33.6587C167.627 34.0706 165.397 35.2241 163.663 36.9595L88.7745 105.276L56.1553 80.5189C54.684 79.4015 52.8678 78.8346 51.0221 78.9165C49.1764 78.9984 47.4177 79.724 46.0511 80.9673L35.5897 90.4844C34.7746 91.226 34.1233 92.1296 33.6774 93.1373C33.2315 94.145 33.0009 95.2346 33.0001 96.3366C32.9994 97.4386 33.2287 98.5285 33.6733 99.5368C34.1179 100.545 34.768 101.45 35.5821 102.192L63.8693 128L35.584 153.808C34.7699 154.55 34.1198 155.455 33.6752 156.463C33.2306 157.471 33.0013 158.561 33.002 159.663C33.0028 160.765 33.2334 161.855 33.6793 162.862C34.1252 163.87 34.7765 164.774 35.5916 165.515L46.053 175.034C47.4196 176.278 49.1783 177.003 51.024 177.085C52.8697 177.167 54.6859 176.6 56.1572 175.483L88.7764 150.722L163.663 219.042C164.821 220.202 166.206 221.108 167.733 221.702ZM175.529 84.8699L118.709 128L175.53 171.132L175.529 84.8699Z" fill="white"/>
</mask>
<g mask="url(#mask0_150_237)">
<path d="M216.276 53.5125L177.128 34.6645C174.917 33.6 172.43 33.2489 170.011 33.6598C167.592 34.0706 165.361 35.2231 163.625 36.9578L35.4682 153.808C34.6538 154.55 34.0034 155.455 33.5587 156.463C33.1139 157.471 32.8846 158.561 32.8853 159.663C32.886 160.765 33.1168 161.855 33.5628 162.863C34.0089 163.871 34.6604 164.774 35.4758 165.516L45.9448 175.033C47.3125 176.275 49.0717 177 50.9178 177.082C52.7638 177.164 54.5804 176.598 56.0528 175.481L210.386 58.4031C215.563 54.4758 223 58.1675 223 64.6674V64.2114C223 61.9763 222.368 59.7867 221.179 57.8944C219.989 56.0021 218.29 54.4839 216.276 53.5144V53.5125Z" fill="#0065A9"/>
<g filter="url(#filter0_d_150_237)">
<path d="M216.276 202.488L177.128 221.336C174.918 222.4 172.43 222.752 170.011 222.341C167.592 221.93 165.36 220.777 163.625 219.042L35.4681 102.192C34.6538 101.45 34.0034 100.545 33.5586 99.5372C33.1139 98.5289 32.8845 97.4388 32.8852 96.3368C32.8859 95.2347 33.1167 94.145 33.5628 93.1372C34.0089 92.1295 34.6604 91.226 35.4757 90.4845L45.9447 80.9674C47.3124 79.7249 49.0717 78.9998 50.9177 78.9179C52.7638 78.836 54.5803 79.4025 56.0527 80.519L210.386 197.597C215.563 201.524 223 197.833 223 191.333V191.789C222.999 194.024 222.368 196.213 221.179 198.106C219.989 199.998 218.29 201.518 216.276 202.488Z" fill="#007ACC"/>
</g>
<g filter="url(#filter1_d_150_237)">
<path d="M177.13 221.339C174.918 222.403 172.431 222.753 170.011 222.341C167.592 221.929 165.36 220.776 163.625 219.04C168.006 223.424 175.5 220.321 175.5 214.123V41.8767C175.5 35.6789 168.006 32.5762 163.625 36.9576C165.36 35.222 167.592 34.0686 170.011 33.6567C172.431 33.2448 174.918 33.595 177.13 34.6586L216.27 53.4838C218.286 54.4528 219.987 55.9712 221.177 57.8643C222.368 59.7574 223 61.9482 223 64.1846V191.815C223 194.052 222.369 196.243 221.179 198.136C219.988 200.03 218.288 201.549 216.272 202.518L177.13 221.339Z" fill="#1F9CF0"/>
</g>
<path style="mix-blend-mode:overlay" opacity="0.25" fill-rule="evenodd" clip-rule="evenodd" d="M167.617 221.702C169.128 222.292 170.745 222.564 172.366 222.502C173.988 222.44 175.579 222.045 177.041 221.341L216.16 202.518C218.175 201.548 219.876 200.029 221.065 198.136C222.255 196.242 222.886 194.051 222.886 191.815V64.1846C222.886 61.9486 222.255 59.7581 221.065 57.865C219.875 55.9719 218.175 54.4533 216.16 53.4838L177.043 34.6605C174.832 33.5969 172.346 33.2468 169.928 33.6587C167.509 34.0706 165.279 35.2241 163.545 36.9595L88.6586 105.276L56.0394 80.5189C54.5682 79.402 52.7525 78.8354 50.9072 78.9173C49.0619 78.9992 47.3035 79.7245 45.9371 80.9673L35.4738 90.4844C34.6588 91.226 34.0074 92.1295 33.5615 93.1373C33.1156 94.145 32.885 95.2346 32.8842 96.3366C32.8835 97.4385 33.1128 98.5285 33.5574 99.5368C34.002 100.545 34.6521 101.449 35.4662 102.192L63.7534 128L35.4662 153.808C34.6521 154.55 34.002 155.455 33.5574 156.463C33.1128 157.471 32.8835 158.561 32.8842 159.663C32.885 160.765 33.1156 161.855 33.5615 162.862C34.0074 163.87 34.6588 164.774 35.4738 165.515L45.9371 175.032C47.3035 176.275 49.0619 177.001 50.9072 177.082C52.7525 177.164 54.5682 176.598 56.0394 175.481L88.6586 150.724L163.545 219.044C164.703 220.204 166.09 221.107 167.617 221.702ZM175.413 84.8699L118.591 128L175.413 171.132V84.8699Z" fill="url(#paint0_linear_150_237)"/>
</g>
</g>
<defs>
<filter id="filter0_d_150_237" x="24.5512" y="70.5762" width="206.783" height="160.266" filterUnits="userSpaceOnUse" color-interpolation-filters="sRGB">
<feFlood flood-opacity="0" result="BackgroundImageFix"/>
<feColorMatrix in="SourceAlpha" type="matrix" values="0 0 0 0 0 0 0 0 0 0 0 0 0 0 0 0 0 0 127 0" result="hardAlpha"/>
<feOffset/>
<feGaussianBlur stdDeviation="4.167"/>
<feColorMatrix type="matrix" values="0 0 0 0 0 0 0 0 0 0 0 0 0 0 0 0 0 0 0.25 0"/>
<feBlend mode="overlay" in2="BackgroundImageFix" result="effect1_dropShadow_150_237"/>
<feBlend mode="normal" in="SourceGraphic" in2="effect1_dropShadow_150_237" result="shape"/>
</filter>
<filter id="filter1_d_150_237" x="155.291" y="25.1548" width="76.043" height="205.689" filterUnits="userSpaceOnUse" color-interpolation-filters="sRGB">
<feFlood flood-opacity="0" result="BackgroundImageFix"/>
<feColorMatrix in="SourceAlpha" type="matrix" values="0 0 0 0 0 0 0 0 0 0 0 0 0 0 0 0 0 0 127 0" result="hardAlpha"/>
<feOffset/>
<feGaussianBlur stdDeviation="4.167"/>
<feColorMatrix type="matrix" values="0 0 0 0 0 0 0 0 0 0 0 0 0 0 0 0 0 0 0.25 0"/>
<feBlend mode="overlay" in2="BackgroundImageFix" result="effect1_dropShadow_150_237"/>
<feBlend mode="normal" in="SourceGraphic" in2="effect1_dropShadow_150_237" result="shape"/>
</filter>
<linearGradient id="paint0_linear_150_237" x1="127.884" y1="33.4901" x2="127.884" y2="222.51" gradientUnits="userSpaceOnUse">
<stop stop-color="white"/>
<stop offset="1" stop-color="white" stop-opacity="0"/>
</linearGradient>
<clipPath id="clip0_150_237">
<rect width="190" height="190" fill="white" transform="translate(33 33)"/>
</clipPath>
</defs>
</svg>
