<svg width="256" height="256" viewBox="0 0 256 256" fill="none" xmlns="http://www.w3.org/2000/svg">
<rect width="256" height="256" fill="#232932"/>
<mask id="mask0_150_191" style="mask-type:luminance" maskUnits="userSpaceOnUse" x="28" y="28" width="200" height="200">
<path d="M28 28H228V228H28V28Z" fill="white"/>
</mask>
<g mask="url(#mask0_150_191)">
<mask id="mask1_150_191" style="mask-type:luminance" maskUnits="userSpaceOnUse" x="28" y="28" width="200" height="200">
<path d="M28 28H228V228H28V28Z" fill="white"/>
</mask>
<g mask="url(#mask1_150_191)">
<mask id="mask2_150_191" style="mask-type:alpha" maskUnits="userSpaceOnUse" x="28" y="28" width="201" height="200">
<path d="M64.6661 197.167L31.3345 172.167C30.2951 171.395 29.4519 170.389 28.8728 169.232C28.2938 168.074 27.9951 166.796 28.0011 165.501V90.5005C27.9956 89.2061 28.2944 87.9286 28.8734 86.7709C29.4525 85.6133 30.2955 84.6079 31.3345 83.836L64.6661 58.835C63.7708 59.6758 63.0943 60.7225 62.6954 61.8841C62.2964 63.0457 62.1869 64.2871 62.3766 65.5006V190.501C62.1871 191.715 62.2967 192.956 62.6956 194.117C63.0946 195.279 63.771 196.326 64.6661 197.167Z" fill="white"/>
<path d="M224.291 62.7098C222.918 61.8077 221.309 61.3295 219.666 61.3349C218.601 61.3261 217.545 61.5276 216.559 61.9276C215.572 62.3277 214.674 62.9186 213.916 63.6664L213.335 64.2501L146.835 128L110.041 163.292L76.0003 195.916L75.4166 196.501C74.659 197.249 73.7611 197.841 72.7744 198.241C71.7877 198.642 70.7316 198.843 69.6668 198.835C67.8637 198.832 66.1098 198.246 64.6661 197.166L31.3345 172.166C33.028 173.439 35.1427 174.017 37.248 173.785C39.3533 173.553 41.2909 172.527 42.6664 170.916L79.6658 127.96L110.041 92.7103L163.251 30.9162C164.023 30.0005 164.986 29.265 166.073 28.7614C167.16 28.2578 168.344 27.9983 169.542 28.001C171.184 27.9955 172.793 28.4737 174.166 29.3759L224.291 62.7098Z" fill="white"/>
<path d="M224.291 193.291L174.292 226.625C172.591 227.736 170.546 228.195 168.534 227.92C166.521 227.644 164.675 226.652 163.335 225.126L110.041 163.292L79.6658 127.96L42.6664 85.0405C41.2788 83.446 39.3393 82.4354 37.2373 82.2117C35.1354 81.988 33.0266 82.5678 31.3345 83.8346L64.6661 58.8347C66.1097 57.7551 67.863 57.17 69.6656 57.1663C70.7308 57.1574 71.7872 57.3591 72.7741 57.7598C73.7611 58.1604 74.6591 58.7522 75.4166 59.5011L76.0003 60.0849L110.041 92.7104L146.835 128.001L213.335 191.751L213.916 192.335C214.674 193.083 215.572 193.674 216.559 194.074C217.545 194.474 218.601 194.675 219.666 194.666C221.309 194.672 222.918 194.194 224.291 193.291Z" fill="white"/>
<path d="M228.001 69.6657V186.335C228.002 187.711 227.664 189.065 227.017 190.278C226.37 191.491 225.434 192.526 224.291 193.291L174.291 226.625C175.434 225.86 176.37 224.824 177.017 223.61C177.664 222.396 178.002 221.041 178 219.666V36.3352C177.982 34.9494 177.623 33.5895 176.954 32.3757C176.285 31.1618 175.327 30.1316 174.166 29.376L224.291 62.7099C225.431 63.4779 226.365 64.5135 227.012 65.7261C227.658 66.9387 227.998 68.2914 228.001 69.6657Z" fill="white"/>
</mask>
<g mask="url(#mask2_150_191)">
<path d="M64.6661 197.167L31.3344 172.167C30.2956 171.394 29.4528 170.389 28.8738 169.231C28.2948 168.073 27.9959 166.796 28.0011 165.501V90.5005C27.9956 89.2061 28.2944 87.9286 28.8734 86.7709C29.4525 85.6133 30.2955 84.6079 31.3344 83.836L64.6661 58.835C63.7708 59.6758 63.0943 60.7225 62.6954 61.8841C62.2964 63.0457 62.1869 64.2871 62.3766 65.5006V190.501C62.1871 191.715 62.2967 192.956 62.6956 194.117C63.0946 195.279 63.771 196.326 64.6661 197.167Z" fill="#5E438F"/>
<g filter="url(#filter0_dd_150_191)">
<path d="M224.29 62.7098C222.917 61.8076 221.309 61.3294 219.666 61.3349C218.601 61.3266 217.546 61.5283 216.559 61.9283C215.572 62.3284 214.674 62.919 213.916 63.6664L213.335 64.2501L177.915 98.2096L146.835 128L110.04 163.292L76.0003 195.916L75.4155 196.501C74.6578 197.249 73.7599 197.841 72.7732 198.241C71.7865 198.642 70.7305 198.843 69.6656 198.835C67.863 198.831 66.1095 198.246 64.6661 197.166L31.3345 172.166C33.0279 173.438 35.1423 174.017 37.2474 173.785C39.3524 173.552 41.2898 172.527 42.6653 170.916L61.3338 149.251L79.6658 127.96L110.041 92.7103L163.25 30.9162C164.023 30.0013 164.986 29.2663 166.073 28.7628C167.159 28.2592 168.343 27.9993 169.54 28.001C171.184 27.9956 172.792 28.4738 174.166 29.3759L224.29 62.7098Z" fill="url(#paint0_linear_150_191)"/>
</g>
<g filter="url(#filter1_dd_150_191)">
<path d="M224.29 193.292L174.291 226.627C172.59 227.737 170.545 228.197 168.533 227.922C166.52 227.646 164.674 226.653 163.335 225.126L110.041 163.292L79.6658 127.96L61.335 106.711L42.6653 85.042C41.2777 83.4478 39.3385 82.4374 37.2369 82.2135C35.1353 81.9896 33.0268 82.5688 31.3345 83.8349L64.665 58.8362C66.1085 57.7565 67.8619 57.1714 69.6645 57.1678C70.7295 57.1587 71.7858 57.3604 72.7725 57.7611C73.7593 58.1618 74.6571 58.7537 75.4143 59.5026L75.9992 60.0863L110.039 92.7118L146.835 128.001L177.959 157.836L213.335 191.751L213.916 192.336C215.448 193.844 217.516 194.682 219.666 194.666C221.309 194.672 222.917 194.194 224.29 193.292Z" fill="url(#paint1_linear_150_191)"/>
</g>
<g filter="url(#filter2_dd_150_191)">
<path d="M228.001 69.6657V186.334C228.002 187.71 227.664 189.064 227.017 190.277C226.37 191.491 225.434 192.526 224.291 193.291L174.29 226.625C175.433 225.859 176.369 224.824 177.016 223.61C177.663 222.396 178.001 221.041 178 219.666V36.3352C177.982 34.9494 177.623 33.5895 176.954 32.3757C176.285 31.1618 175.327 30.1316 174.166 29.376L224.291 62.7099C225.43 63.4785 226.364 64.5143 227.01 65.7268C227.657 66.9392 227.997 68.2916 228.001 69.6657Z" fill="url(#paint2_linear_150_191)"/>
</g>
</g>
</g>
</g>
<defs>
<filter id="filter0_dd_150_191" x="26.1545" y="24.116" width="203.316" height="181.194" filterUnits="userSpaceOnUse" color-interpolation-filters="sRGB">
<feFlood flood-opacity="0" result="BackgroundImageFix"/>
<feColorMatrix in="SourceAlpha" type="matrix" values="0 0 0 0 0 0 0 0 0 0 0 0 0 0 0 0 0 0 127 0" result="hardAlpha"/>
<feOffset dy="0.246"/>
<feGaussianBlur stdDeviation="0.246"/>
<feColorMatrix type="matrix" values="0 0 0 0 0 0 0 0 0 0 0 0 0 0 0 0 0 0 0.24 0"/>
<feBlend mode="normal" in2="BackgroundImageFix" result="effect1_dropShadow_150_191"/>
<feColorMatrix in="SourceAlpha" type="matrix" values="0 0 0 0 0 0 0 0 0 0 0 0 0 0 0 0 0 0 127 0" result="hardAlpha"/>
<feOffset dy="1.295"/>
<feGaussianBlur stdDeviation="2.59"/>
<feColorMatrix type="matrix" values="0 0 0 0 0 0 0 0 0 0 0 0 0 0 0 0 0 0 0.22 0"/>
<feBlend mode="normal" in2="effect1_dropShadow_150_191" result="effect2_dropShadow_150_191"/>
<feBlend mode="normal" in="SourceGraphic" in2="effect2_dropShadow_150_191" result="shape"/>
</filter>
<filter id="filter1_dd_150_191" x="26.1545" y="53.2825" width="203.316" height="181.192" filterUnits="userSpaceOnUse" color-interpolation-filters="sRGB">
<feFlood flood-opacity="0" result="BackgroundImageFix"/>
<feColorMatrix in="SourceAlpha" type="matrix" values="0 0 0 0 0 0 0 0 0 0 0 0 0 0 0 0 0 0 127 0" result="hardAlpha"/>
<feOffset dy="0.246"/>
<feGaussianBlur stdDeviation="0.246"/>
<feColorMatrix type="matrix" values="0 0 0 0 0 0 0 0 0 0 0 0 0 0 0 0 0 0 0.24 0"/>
<feBlend mode="normal" in2="BackgroundImageFix" result="effect1_dropShadow_150_191"/>
<feColorMatrix in="SourceAlpha" type="matrix" values="0 0 0 0 0 0 0 0 0 0 0 0 0 0 0 0 0 0 127 0" result="hardAlpha"/>
<feOffset dy="1.295"/>
<feGaussianBlur stdDeviation="2.59"/>
<feColorMatrix type="matrix" values="0 0 0 0 0 0 0 0 0 0 0 0 0 0 0 0 0 0 0.22 0"/>
<feBlend mode="normal" in2="effect1_dropShadow_150_191" result="effect2_dropShadow_150_191"/>
<feBlend mode="normal" in="SourceGraphic" in2="effect2_dropShadow_150_191" result="shape"/>
</filter>
<filter id="filter2_dd_150_191" x="158.624" y="13.834" width="84.9194" height="228.333" filterUnits="userSpaceOnUse" color-interpolation-filters="sRGB">
<feFlood flood-opacity="0" result="BackgroundImageFix"/>
<feColorMatrix in="SourceAlpha" type="matrix" values="0 0 0 0 0 0 0 0 0 0 0 0 0 0 0 0 0 0 127 0" result="hardAlpha"/>
<feOffset/>
<feGaussianBlur stdDeviation="0.13"/>
<feColorMatrix type="matrix" values="0 0 0 0 0 0 0 0 0 0 0 0 0 0 0 0 0 0 0.24 0"/>
<feBlend mode="normal" in2="BackgroundImageFix" result="effect1_dropShadow_150_191"/>
<feColorMatrix in="SourceAlpha" type="matrix" values="0 0 0 0 0 0 0 0 0 0 0 0 0 0 0 0 0 0 127 0" result="hardAlpha"/>
<feOffset/>
<feGaussianBlur stdDeviation="7.771"/>
<feColorMatrix type="matrix" values="0 0 0 0 0 0 0 0 0 0 0 0 0 0 0 0 0 0 0.3 0"/>
<feBlend mode="normal" in2="effect1_dropShadow_150_191" result="effect2_dropShadow_150_191"/>
<feBlend mode="normal" in="SourceGraphic" in2="effect2_dropShadow_150_191" result="shape"/>
</filter>
<linearGradient id="paint0_linear_150_191" x1="190.5" y1="27.9999" x2="41.9898" y2="177.472" gradientUnits="userSpaceOnUse">
<stop stop-color="#7252AA"/>
<stop offset="1" stop-color="#7252AA"/>
</linearGradient>
<linearGradient id="paint1_linear_150_191" x1="46.7501" y1="64.4579" x2="186.333" y2="220.707" gradientUnits="userSpaceOnUse">
<stop stop-color="#AE7FE2"/>
<stop offset="1" stop-color="#9A70D4"/>
</linearGradient>
<linearGradient id="paint2_linear_150_191" x1="200.49" y1="25.3535" x2="200.49" y2="226.457" gradientUnits="userSpaceOnUse">
<stop stop-color="#D59DFF"/>
<stop offset="1" stop-color="#C18EF1"/>
</linearGradient>
</defs>
</svg>
