<svg width="256" height="256" viewBox="0 0 256 256" fill="none" xmlns="http://www.w3.org/2000/svg">
<rect width="256" height="256" fill="#242932"/>
<path d="M222.947 58.0256L133.192 218.464C131.339 221.776 126.578 221.796 124.697 218.499L33.1619 58.0411C31.1127 54.4489 34.1856 50.0978 38.2577 50.8253L128.109 66.8798C128.682 66.9822 129.269 66.9812 129.842 66.8768L217.814 50.8484C221.873 50.1089 224.96 54.4263 222.947 58.0256Z" fill="url(#paint0_linear_23_652)"/>
<path d="M170.91 29.7677L104.488 42.7779C103.397 42.9917 102.588 43.9165 102.522 45.0264L98.4365 114.007C98.3404 115.632 99.8331 116.893 101.419 116.527L119.912 112.261C121.642 111.862 123.206 113.386 122.85 115.125L117.356 142.019C116.986 143.829 118.686 145.377 120.455 144.84L131.877 141.371C133.647 140.834 135.349 142.386 134.974 144.197L126.243 186.441C125.697 189.084 129.213 190.525 130.679 188.259L131.658 186.746L185.782 78.7727C186.689 76.9648 185.126 74.9034 183.139 75.2866L164.104 78.959C162.316 79.3037 160.794 77.6385 161.298 75.889L173.722 32.836C174.228 31.0836 172.7 29.417 170.91 29.7677Z" fill="url(#paint1_linear_23_652)"/>
<defs>
<linearGradient id="paint0_linear_23_652" x1="30.927" y1="45.0915" x2="142.58" y2="196.782" gradientUnits="userSpaceOnUse">
<stop stop-color="#41D1FF"/>
<stop offset="1" stop-color="#BD34FE"/>
</linearGradient>
<linearGradient id="paint1_linear_23_652" x1="122.952" y1="33.2999" x2="143.144" y2="171.87" gradientUnits="userSpaceOnUse">
<stop stop-color="#FFEA83"/>
<stop offset="0.0833333" stop-color="#FFDD35"/>
<stop offset="1" stop-color="#FFA800"/>
</linearGradient>
</defs>
</svg>
