<svg width="256" height="256" viewBox="0 0 256 256" fill="none" xmlns="http://www.w3.org/2000/svg">
<rect width="256" height="256" fill="#EF3939"/>
<path d="M198.689 57.3027C159.666 18.2324 96.3489 18.2324 57.2672 57.3027C18.2443 96.3731 18.2443 159.686 57.2672 198.697C96.2902 237.768 159.607 237.768 198.689 198.697C237.77 159.627 237.77 96.3142 198.689 57.3027ZM192.703 103.257C176.214 131.913 159.724 160.568 143.235 189.283C140.184 194.637 135.724 197.815 129.621 198.285C122.814 198.756 117.415 195.873 113.953 189.989C103.508 172.042 93.1801 153.978 82.8522 135.973C76.5733 125.029 70.2357 114.084 63.9569 103.081C57.6193 92.0188 64.7784 78.5443 77.4535 77.897C84.1432 77.544 89.3071 80.6625 92.7106 86.4878C97.3464 94.4313 101.924 102.492 106.559 110.495C109.904 116.261 113.132 122.086 116.535 127.735C121.464 136.032 128.741 140.68 138.423 141.269C152.096 142.092 164.83 132.148 166.473 117.615C166.59 116.555 166.649 115.437 166.708 114.908C166.649 110.201 165.769 106.199 163.891 102.492C158.786 92.2542 164.243 80.7802 175.334 78.3089C184.371 76.3083 193.76 82.9573 194.933 92.1365C195.52 96.0788 194.698 99.7858 192.703 103.257Z" fill="white"/>
</svg>
