<svg width="256" height="256" viewBox="0 0 256 256" fill="none" xmlns="http://www.w3.org/2000/svg">
<rect width="256" height="256" fill="#232932"/>
<g clip-path="url(#clip0_150_273)">
<path d="M124.52 32.5481C123.164 33.4162 121.992 34.5437 121.073 35.8658C120.154 37.1879 119.504 38.6786 119.163 40.2523C118.821 41.826 118.794 43.4517 119.082 45.0359C119.371 46.6202 119.97 48.1319 120.844 49.4841C141.062 80.7941 145.834 104.41 143.764 125.106C135.396 164.738 117.206 172.778 101.31 172.778C85.79 172.778 89.946 147.236 101.612 139.76C108.576 135.412 117.496 132.586 124.342 132.586C131.126 132.586 136.626 127.104 136.626 120.34C136.626 113.574 131.126 108.092 124.342 108.092C116.346 108.092 108.502 109.772 101.18 112.632C102.676 105.574 103.228 97.9461 101.294 89.8381C98.358 77.5261 89.906 65.7661 75.23 54.3661C72.6596 52.3661 69.4009 51.4672 66.1686 51.8665C62.9364 52.2658 59.9944 53.9307 57.988 56.4961C56.998 57.7653 56.2683 59.2174 55.8408 60.7691C55.4132 62.3209 55.2963 63.9418 55.4966 65.5388C55.6969 67.1359 56.2105 68.6777 57.008 70.0758C57.8056 71.4739 58.8712 72.7008 60.144 73.6861C72.1 82.9721 76.048 89.8461 77.398 95.5041C78.748 101.162 77.662 107.232 74.95 115.572C71.484 126.812 67.46 136.846 65.696 146.468C64.828 151.204 64.754 156.358 64.53 160.476C55.92 152.084 52.55 141.004 52.55 124.814C52.548 118.05 47.048 112.566 40.266 112.568C33.488 112.574 27.996 118.054 27.994 124.814C27.994 146.926 34.46 167.966 51.79 182.002C67.478 196.948 107.372 191.424 107.372 215.418C107.372 222.19 117.284 225.486 124.066 225.486C131.022 225.486 139.776 220.836 139.776 215.418C139.776 188.194 168.466 171.648 215.696 171.72C222.48 171.73 227.984 166.252 227.994 159.488C228.006 152.722 222.518 147.228 215.734 147.216C212.571 147.217 209.409 147.314 206.252 147.506C211.532 135.088 213.874 121.416 213.39 106.648C213.166 99.8861 207.49 94.5861 200.712 94.8061C193.926 95.0261 188.61 100.692 188.832 107.458C189.472 126.794 188.748 144.06 174.342 153.162C170.246 155.748 165.484 157.992 160.968 157.992C164.474 148.456 167.122 138.39 168.206 127.54C168.898 120.616 168.972 112.39 168.182 106C166.956 96.1001 165.476 84.8721 169.234 76.4141C172.61 69.1301 180.174 66.0801 191.28 66.0801C198.058 66.0741 203.55 60.5921 203.552 53.8341C203.556 47.0681 198.062 41.5801 191.28 41.5741C174.776 41.5741 162.266 50.2601 155.174 60.7541C151.466 52.8341 146.95 44.6721 141.494 36.2241C139.729 33.4928 136.953 31.5731 133.774 30.8861C130.591 30.1948 127.264 30.7924 124.52 32.5481Z" fill="url(#paint0_linear_150_273)"/>
</g>
<defs>
<linearGradient id="paint0_linear_150_273" x1="27.994" y1="30.6042" x2="221.33" y2="217.146" gradientUnits="userSpaceOnUse">
<stop stop-color="#62A0EA"/>
<stop offset="1" stop-color="#1A5FB4"/>
</linearGradient>
<clipPath id="clip0_150_273">
<rect width="200" height="200" fill="white" transform="translate(28 28)"/>
</clipPath>
</defs>
</svg>
