<svg width="256" height="256" viewBox="0 0 256 256" fill="none" xmlns="http://www.w3.org/2000/svg">
<rect width="256" height="256" fill="#242932"/>
<path d="M157.449 143H119C118.933 142.027 119.873 139.92 120.1 139.52C138.5 105.853 156.027 73.8534 172.68 43.5201C172.71 43.4666 172.753 43.4213 172.805 43.389C172.856 43.3567 172.915 43.3385 172.975 43.3365C173.034 43.3344 173.092 43.3486 173.142 43.3774C173.193 43.4062 173.233 43.4486 173.26 43.5001L227.18 139.98C227.274 140.151 227.322 140.342 227.319 140.537C227.316 140.731 227.262 140.922 227.163 141.089C227.064 141.257 226.924 141.396 226.755 141.492C226.586 141.589 226.395 141.64 226.2 141.64H189.24C188.974 141.64 188.711 141.568 188.479 141.431C188.247 141.294 188.054 141.097 187.92 140.86L173.78 115.54C173.715 115.424 173.619 115.328 173.504 115.262C173.388 115.195 173.257 115.162 173.124 115.164C172.991 115.166 172.861 115.204 172.748 115.273C172.634 115.343 172.542 115.442 172.48 115.56L157.449 143Z" fill="#5F8BEE"/>
<path d="M119.86 141.58L158.14 141.74L119.1 212.82C119.072 212.869 119.031 212.91 118.983 212.94C118.935 212.969 118.881 212.986 118.826 212.988C118.771 212.99 118.717 212.977 118.67 212.951C118.624 212.925 118.586 212.887 118.56 212.84L28.62 51.92C28.5821 51.8538 28.5629 51.7789 28.5643 51.7027C28.5657 51.6264 28.5876 51.5514 28.6278 51.4849C28.6681 51.4184 28.7254 51.3628 28.7942 51.3234C28.8629 51.2839 28.9407 51.2621 29.02 51.26H67.6C67.849 51.2607 68.0933 51.3278 68.3078 51.4543C68.5222 51.5809 68.6991 51.7623 68.82 51.98L117.94 139.86C118.229 140.372 118.641 140.805 119.14 141.12L119.86 141.58Z" fill="#42D392"/>
</svg>
