<svg width="256" height="256" viewBox="0 0 256 256" fill="none" xmlns="http://www.w3.org/2000/svg">
<rect width="256" height="256" fill="#242932"/>
<path d="M157.449 143H119C118.933 142.027 119.873 139.92 120.1 139.52C138.5 105.853 156.027 73.8533 172.68 43.5199C172.709 43.4665 172.752 43.4212 172.804 43.3889C172.856 43.3566 172.915 43.3384 172.974 43.3364C173.034 43.3343 173.092 43.3484 173.142 43.3772C173.192 43.406 173.233 43.4484 173.26 43.4999L227.18 139.98C227.274 140.15 227.321 140.342 227.318 140.537C227.316 140.731 227.262 140.922 227.163 141.089C227.064 141.257 226.923 141.396 226.754 141.492C226.586 141.589 226.394 141.64 226.2 141.64H189.24C188.974 141.64 188.711 141.568 188.479 141.431C188.247 141.294 188.054 141.097 187.92 140.86L173.78 115.54C173.714 115.424 173.619 115.328 173.504 115.262C173.388 115.195 173.257 115.161 173.124 115.164C172.991 115.166 172.861 115.203 172.747 115.273C172.634 115.343 172.542 115.442 172.48 115.56L157.449 143Z" fill="#5F8BEE"/>
<path d="M119.86 141.58L158.14 141.74L119.1 212.82C119.071 212.869 119.031 212.91 118.983 212.94C118.935 212.969 118.88 212.986 118.825 212.988C118.77 212.99 118.717 212.977 118.67 212.951C118.624 212.925 118.585 212.887 118.56 212.84L28.6198 51.92C28.5819 51.8538 28.5627 51.7789 28.564 51.7027C28.5654 51.6264 28.5873 51.5514 28.6276 51.4849C28.6679 51.4184 28.7252 51.3628 28.7939 51.3234C28.8626 51.2839 28.9405 51.2621 29.0198 51.26H67.5998C67.8488 51.2607 68.0931 51.3278 68.3075 51.4543C68.522 51.5809 68.6988 51.7623 68.8198 51.98L117.94 139.86C118.228 140.372 118.641 140.805 119.14 141.12L119.86 141.58Z" fill="#42D392"/>
</svg>
