<svg width="256" height="256" viewBox="0 0 256 256" fill="none" xmlns="http://www.w3.org/2000/svg">
<rect width="256" height="256" fill="#242932"/>
<path d="M90.0967 52.0198L88.4385 52.0822C88.3864 52.0841 88.3356 52.0975 88.2901 52.1214C88.2446 52.1453 88.2055 52.1791 88.1759 52.2201C86.1204 54.9979 84.6297 56.4065 81.3823 57.5689L42.2234 57.4934C42.2 57.4937 42.1771 57.5 42.157 57.5119C42.1369 57.5237 42.1203 57.5405 42.1089 57.5606C42.0975 57.5806 42.0918 57.6033 42.0923 57.6261C42.0928 57.6489 42.0995 57.6711 42.1117 57.6904L47.1059 65.909L93.262 142.677L127.821 200.013C127.84 200.046 127.868 200.073 127.901 200.092C127.934 200.111 127.972 200.12 128.01 200.12C128.048 200.12 128.085 200.111 128.118 200.092C128.151 200.073 128.179 200.046 128.198 200.013L157.169 151.861C157.156 152.524 157.038 153.042 156.817 153.414C155.808 155.126 154.831 156.858 153.885 158.612C153.875 158.63 153.87 158.649 153.868 158.67C153.866 158.69 153.869 158.711 153.876 158.73C153.883 158.749 153.893 158.767 153.907 158.783C153.921 158.798 153.938 158.81 153.957 158.819L157.957 160.585L128.307 209.647C128.275 209.7 128.232 209.746 128.181 209.782C128.13 209.818 128.072 209.843 128.011 209.855C127.95 209.867 127.887 209.866 127.826 209.852C127.765 209.838 127.707 209.812 127.657 209.775C127.444 209.62 127.224 209.354 126.997 208.977C122.209 201.123 117.691 193.263 112.933 185.464C108.555 178.289 104.198 171.101 99.8618 163.902L103.927 161.931C103.946 161.922 103.963 161.908 103.977 161.892C103.991 161.875 104.001 161.856 104.007 161.836C104.013 161.815 104.015 161.793 104.013 161.772C104.01 161.751 104.003 161.73 103.992 161.711C102.581 159.249 100.86 156.38 98.8308 153.105C98.7607 152.994 98.6918 152.881 98.6239 152.767C98.2628 152.167 96.8837 149.846 94.4867 145.803C92.8669 143.067 91.4758 140.754 90.3134 138.865C87.969 135.056 86.1237 131.868 84.0255 128.505C80.8602 123.427 78.541 119.603 77.0678 117.033C75.9383 115.063 74.5822 113.05 73.1178 110.578C71.9466 108.599 70.3815 106.1 68.4224 103.081C68.3632 102.989 68.2717 102.922 68.1662 102.894C66.5902 102.474 65.1443 102.798 63.8288 103.866C58.9856 95.7231 54.2541 87.7245 49.1975 79.4895C42.3591 68.3453 38.5666 62.1231 37.8202 60.8228C36.4543 58.4434 35.038 56.0869 33.5713 53.7535C33.3196 53.3529 33.1303 52.891 33.0033 52.3678C32.9989 52.3476 32.9989 52.3267 33.0034 52.3066C33.008 52.2864 33.0169 52.2676 33.0295 52.2516C33.0421 52.2355 33.0581 52.2225 33.0763 52.2137C33.0945 52.2048 33.1144 52.2003 33.1346 52.2004L90.0967 52.0198Z" fill="#F0F0F3"/>
<path d="M171.281 52L172.923 52.0755C172.983 52.079 173.04 52.1057 173.08 52.1499C173.121 52.1942 173.142 52.2524 173.14 52.3119C173.113 52.8986 173.218 53.4031 173.455 53.8256C174.118 55.0121 174.998 56.2215 176.095 57.4539L175.313 57.4637L162.987 57.4605L149.364 57.4966L142.074 57.4605C141.965 57.4583 141.857 57.4462 141.753 57.4243C139.218 56.8661 136.706 56.459 134.217 56.2029C129.719 55.7432 125.526 56.4064 121.155 57.4342C121.125 57.4429 121.092 57.4473 121.057 57.4473L118.443 57.5294L81.3823 57.5688C84.6297 56.4064 86.1204 54.9978 88.1758 52.22C88.2055 52.179 88.2446 52.1452 88.2901 52.1214C88.3356 52.0975 88.3864 52.084 88.4385 52.0821L90.0967 52.0197L171.281 52Z" fill="#E3EAF2"/>
<path d="M181.828 120.527L176.932 118.74L206.523 69.4156L213.72 57.6804C213.732 57.6607 213.739 57.638 213.739 57.6148C213.739 57.5916 213.733 57.5687 213.722 57.5484C213.71 57.528 213.693 57.511 213.673 57.499C213.652 57.4871 213.629 57.4805 213.605 57.4802L190.237 57.4736L176.095 57.4539C174.998 56.2215 174.118 55.0121 173.455 53.8256C173.218 53.4031 173.113 52.8986 173.14 52.3119C173.142 52.2524 173.121 52.1942 173.08 52.1499C173.04 52.1057 172.983 52.079 172.923 52.0755L171.281 52L222.816 52.2495C222.849 52.25 222.882 52.2595 222.91 52.2769C222.939 52.2943 222.962 52.319 222.978 52.3485C222.994 52.378 223.001 52.4112 223 52.4446C222.998 52.478 222.988 52.5104 222.97 52.5385C221.968 54.0653 220.793 55.7038 219.765 57.4637C215.513 64.7597 211.701 70.844 207.114 78.4682C198.68 92.4844 190.251 106.504 181.828 120.527Z" fill="#F0F0F3"/>
<path d="M149.364 57.4966L134.949 57.5097C134.937 57.5092 134.925 57.5126 134.914 57.5195C134.904 57.5264 134.896 57.5364 134.892 57.548C134.887 57.5596 134.887 57.5723 134.89 57.5843C134.893 57.5963 134.9 57.607 134.91 57.6148L143.296 65.0125C142.173 66.663 140.851 68.146 139.329 69.4616L131.607 63.8633C131.591 63.8516 131.572 63.8439 131.553 63.8407C131.533 63.8376 131.513 63.8391 131.494 63.8451C131.475 63.8512 131.457 63.8616 131.443 63.8756C131.428 63.8895 131.417 63.9067 131.41 63.9256C131.305 64.2146 131.318 64.5298 131.449 64.8713C131.379 67.0822 131.347 69.2657 131.354 71.4219C131.363 74.8892 131.471 77.0673 131.679 77.956C132.285 80.5653 133.73 82.7576 136.013 84.5328C137.333 85.5573 139.803 87.3282 143.424 89.8455C145.69 91.4194 147.512 93.5001 148.891 96.0875L149.732 101.183C149.58 102.191 149.554 103.305 149.357 104.188C148.985 105.878 148.347 107.468 147.443 108.959C146.27 110.892 145.088 112.812 143.897 114.721L141.976 117.946C141.026 119.325 140.131 120.737 139.29 122.181C136.23 127.435 133.068 132.629 130.001 137.873C129.98 137.91 129.973 137.954 129.983 137.995C129.993 138.037 130.018 138.073 130.054 138.096C132.441 139.742 134.102 140.667 135.76 142.289C138.083 144.564 139.957 147.001 141.382 149.602C142.303 151.283 143.285 153.287 144.327 155.614C144.419 155.817 144.573 156.313 144.79 157.101L144.947 158.159C144.953 158.195 144.948 158.232 144.933 158.266C144.918 158.3 144.894 158.329 144.864 158.35C144.834 158.371 144.798 158.383 144.761 158.384C144.724 158.386 144.687 158.377 144.655 158.359C143.9 157.925 142.83 157.42 142.15 157.216C140.084 156.59 138.258 156.033 136.673 155.545C134.379 154.84 132.235 153.589 130.241 151.792C128.658 150.367 127.549 148.833 126.915 147.192C127.046 147.034 127.118 146.974 127.131 147.011C127.372 147.723 127.707 148.349 128.136 148.889C129.478 150.59 131.02 152.023 132.762 153.187C133.8 153.884 135.205 154.537 136.269 154.809C138.053 155.265 139.66 155.728 141.089 156.198C142.173 156.556 143.178 157.124 143.926 157.466C143.975 157.488 144.028 157.497 144.081 157.491C144.134 157.485 144.185 157.465 144.227 157.432C144.269 157.4 144.302 157.356 144.321 157.307C144.34 157.257 144.346 157.203 144.337 157.151C144.227 156.474 143.98 155.802 143.595 155.135C143.297 154.614 142.998 153.983 142.698 153.243C141.764 150.938 140.807 149.098 139.829 147.724C138.607 146.005 137.137 144.261 135.419 142.49C134.65 141.7 133.765 140.976 132.762 140.319C130.897 139.1 129.939 138.468 129.886 138.422C129.849 138.388 129.8 138.37 129.751 138.37C129.701 138.371 129.654 138.39 129.62 138.425L129.295 138.743C129.514 137.916 129.922 136.989 130.52 135.962C132.768 132.116 134.53 129.123 135.806 126.982C137.546 124.062 138.825 121.852 139.641 120.352C139.705 120.236 139.724 120.101 139.694 119.972C139.093 117.483 138.183 116.705 135.839 118.205C135.751 118.261 135.677 118.339 135.626 118.432C133.577 122.006 131.476 125.454 129.325 128.775C129.237 128.91 129.152 128.987 129.068 129.004C128.957 129.029 128.858 128.975 128.773 128.844L132.336 122.631L136.571 115.654C137.241 114.501 137.875 113.349 138.637 112.246C139.884 110.431 141.08 108.582 142.222 106.7C142.894 105.594 143.381 104.581 143.683 103.659C144.246 101.928 144.187 100.194 143.506 98.4581C143.346 97.5979 142.885 96.8295 142.124 96.1531C140.922 95.0871 139.439 93.9401 137.675 92.712C135.314 91.067 133.511 89.6846 131.446 88.0889L127.962 84.0535C127.948 84.0375 127.931 84.0246 127.912 84.0155C127.893 84.0064 127.873 84.0015 127.852 84.0008C127.831 84.0002 127.81 84.004 127.79 84.0119C127.771 84.0199 127.753 84.0318 127.739 84.0469C127.522 84.2658 127.267 84.5996 126.974 85.0484C126.461 85.8254 125.557 86.7558 124.261 87.8393C122.998 88.8966 121.711 89.9167 120.4 90.8995C118.725 92.1538 116.91 93.1192 115.314 94.5672C112.884 96.7737 111.604 99.036 111.975 102.274C112.185 104.088 112.576 105.444 113.147 106.342C116.218 111.153 119.279 116.038 122.331 120.996L125.742 126.381C126.114 127.375 126.763 128.448 127.689 129.602C127.122 129.44 126.74 129.268 126.543 129.087C123.704 126.458 120.659 124.13 117.409 122.103C117.408 122.101 117.406 122.101 117.404 122.101C117.402 122.101 117.4 122.101 117.399 122.103C117.398 122.104 117.397 122.106 117.397 122.107C117.397 122.109 117.398 122.111 117.399 122.112C119.376 125.168 121.22 128.335 122.932 131.612C124.309 134.245 125.63 136.905 126.895 139.59L122.157 131.7C121.605 130.604 120.958 129.45 120.216 128.239C116.613 122.355 112.983 116.471 109.325 110.587C108.038 108.672 107.122 106.634 106.577 104.474C106.028 100.034 106.524 96.094 109.361 92.4756C110.169 91.4479 111.656 90.1049 112.585 89.4548C115.889 87.1454 117.805 85.7806 118.335 85.3603C120.413 83.7021 121.474 82.8911 122.764 81.0097C123.846 79.2234 124.397 77.3387 124.419 75.3555C124.45 72.3369 124.449 68.644 124.416 64.277C124.416 64.2672 124.414 64.2576 124.409 64.2492C124.404 64.2408 124.397 64.234 124.388 64.2298C124.379 64.2256 124.369 64.2241 124.36 64.2255C124.35 64.2268 124.341 64.2311 124.334 64.2376C122.34 65.7589 120.414 67.1829 118.558 68.5094C112.265 73.0078 105.906 77.5127 99.4809 82.0243C98.6404 82.6153 98.1008 83.1439 97.8622 83.6102C97.1135 85.0878 97.432 86.9758 97.2449 88.079C96.8016 90.6763 95.2912 92.7153 93.3539 94.7741C92.6381 95.5336 92.0175 96.5701 91.4922 97.8835C90.621 98.9934 89.8723 100.336 89.2463 101.912C88.7603 103.14 88.5808 104.344 88.7078 105.524C88.6071 105.774 88.5907 106.126 88.6585 106.582C88.6641 106.615 88.6586 106.65 88.6429 106.68C88.6272 106.71 88.6022 106.734 88.5715 106.749C88.5408 106.764 88.5061 106.769 88.4727 106.762C88.4392 106.755 88.4088 106.738 88.386 106.713C87.541 105.807 86.8066 104.929 86.1828 104.079C84.0222 101.144 83.3918 97.4304 83.6249 93.835C83.7913 91.2629 84.6592 88.9864 86.2287 87.0053C86.2492 86.9799 86.2617 86.9489 86.2645 86.9163C86.2673 86.8838 86.2603 86.8511 86.2444 86.8226C86.2285 86.794 86.2045 86.7708 86.1754 86.756C86.1463 86.7412 86.1134 86.7354 86.081 86.7394C83.4739 86.9998 81.0167 86.6748 78.7095 85.7642C76.5556 84.9126 74.9324 84.0458 73.8401 83.1636C71.7157 81.4496 69.8277 79.2661 66.8725 78.5996C66.7018 78.6171 66.5825 78.5514 66.5146 78.4026C68.337 76.4784 71.5253 75.1125 74.0338 74.6036C74.9926 74.4087 76.2436 74.3343 77.7869 74.3803C80.3579 74.4558 83.5494 74.3803 86.4717 75.1256C88.2514 75.5788 90.1788 76.636 91.8008 77.3617C93.1755 77.9768 94.5918 78.0282 96.0497 77.516C97.7527 76.9162 99.2029 76.1971 100.4 75.3588C100.648 75.1836 101.898 74.1482 104.15 72.2526C109.355 67.8636 114.548 63.4145 119.727 58.9052L121.168 57.71C121.181 57.7003 121.189 57.6871 121.194 57.6721C121.198 57.6572 121.198 57.6412 121.193 57.6265C121.188 57.6117 121.178 57.5989 121.166 57.5898C121.153 57.5806 121.138 57.5756 121.122 57.5754L118.443 57.5294L121.057 57.4473C121.092 57.4473 121.125 57.4429 121.155 57.4342C125.526 56.4064 129.719 55.7432 134.217 56.2029C136.706 56.459 139.218 56.8661 141.753 57.4243C141.857 57.4462 141.965 57.4583 142.074 57.4604L149.364 57.4966ZM90.0967 81.9093C88.3258 81.7977 86.7837 81.6215 85.4703 81.3807C84.8004 81.2581 83.2999 80.8367 80.9686 80.1165C78.3068 79.2935 75.6822 78.6959 73.0948 78.3238C73.0773 78.3224 73.06 78.3269 73.0454 78.3365C73.0308 78.3462 73.0198 78.3604 73.0141 78.3769C73.0085 78.3934 73.0085 78.4114 73.0142 78.4279C73.0199 78.4445 73.0309 78.4586 73.0455 78.4682C74.1291 79.1009 75.4523 79.8528 77.0153 80.724C78.5607 81.5843 79.9562 82.1567 81.2017 82.4413C84.3539 83.1603 87.2499 83.1735 90.123 82.0834C90.1438 82.0776 90.1618 82.0643 90.1736 82.0461C90.1854 82.028 90.1901 82.0061 90.1869 81.9847C90.1836 81.9633 90.1727 81.9438 90.1561 81.9299C90.1395 81.9161 90.1183 81.9087 90.0967 81.9093ZM86.6589 98.7143C86.95 97.4227 87.0967 96.7748 87.0989 96.7704C87.6199 94.3428 88.5797 92.1702 89.9785 90.2527C90.7972 89.1297 91.5885 88.0538 92.3525 87.025C92.7826 86.4504 93.0945 85.7313 93.4918 84.9958C93.5057 84.9705 93.5111 84.9413 93.5071 84.9127C93.5031 84.8841 93.49 84.8575 93.4698 84.8368C93.4495 84.8162 93.4232 84.8027 93.3946 84.7982C93.3661 84.7937 93.3368 84.7985 93.3112 84.8119C90.6078 86.2041 88.7253 88.3111 87.6636 91.1327C86.6567 93.8142 86.2999 96.3403 86.5932 98.711C86.5928 98.7197 86.5958 98.7282 86.6017 98.7347C86.6075 98.7411 86.6157 98.745 86.6244 98.7454C86.6331 98.7459 86.6416 98.7428 86.6481 98.737C86.6546 98.7311 86.6584 98.723 86.6589 98.7143Z" fill="#CDE0EE"/>
<path d="M81.3823 57.5688L118.443 57.5294L121.122 57.5754C121.138 57.5756 121.153 57.5806 121.166 57.5898C121.178 57.5989 121.188 57.6117 121.193 57.6265C121.198 57.6412 121.198 57.6572 121.194 57.6721C121.19 57.6871 121.181 57.7003 121.168 57.71L119.727 58.9052C119.206 59.0322 118.695 59.3288 118.194 59.795C117.543 60.4036 117.212 60.7133 117.199 60.7242C112.098 64.949 108.773 67.7597 107.223 69.1563C105.818 70.4193 103.922 72.0567 101.536 74.0684C99.6517 75.6576 97.5612 76.7422 95.2649 77.3223C94.3981 77.5423 93.4787 77.539 92.6217 77.1844C91.0588 76.5386 89.5626 75.8491 88.1332 75.1158C88.0219 75.059 87.9052 75.015 87.7851 74.9845C85.9376 74.5204 84.7982 74.2741 84.367 74.2457C83.9008 74.215 81.7928 74.0727 78.043 73.8188C75.5607 73.6503 73.1539 74.0333 70.8226 74.968C71.673 72.9191 72.0999 70.9129 69.8868 69.5404C74.4739 66.605 77.7902 65.2029 82.9551 62.9669C85.5819 61.8308 87.6702 60.5962 89.4006 58.2912C89.4152 58.2723 89.4241 58.2497 89.4262 58.226C89.4284 58.2023 89.4238 58.1784 89.4129 58.1569C89.4019 58.1354 89.3852 58.1172 89.3645 58.1044C89.3438 58.0916 89.3199 58.0846 89.2955 58.0843H43.1165C43.076 58.0845 43.0362 58.0955 43.0014 58.1162C42.9666 58.1369 42.938 58.1666 42.9185 58.2021C42.8991 58.2377 42.8895 58.2778 42.8908 58.3183C42.8922 58.3588 42.9043 58.3982 42.926 58.4324L47.6149 65.922C47.3938 65.8301 47.2241 65.8257 47.1059 65.9089L42.1117 57.6903C42.0995 57.671 42.0928 57.6488 42.0923 57.626C42.0918 57.6032 42.0975 57.5806 42.1089 57.5605C42.1203 57.5404 42.1369 57.5236 42.157 57.5118C42.1771 57.5 42.2 57.4936 42.2234 57.4933L81.3823 57.5688Z" fill="#1290D2"/>
<path d="M149.364 57.4967L162.987 57.4606L163.801 58.0023C163.822 58.0152 163.839 58.0347 163.847 58.0578C163.856 58.0809 163.857 58.1062 163.85 58.1299C163.843 58.1535 163.828 58.1742 163.808 58.1885C163.788 58.2029 163.764 58.2101 163.739 58.2092H156.693C156.672 58.2091 156.653 58.215 156.636 58.2262C156.619 58.2374 156.606 58.2533 156.598 58.272C156.59 58.2906 156.588 58.3112 156.592 58.331C156.596 58.3508 156.606 58.369 156.62 58.3832C159.91 61.7477 162.663 64.959 164.878 68.017C166.297 69.974 168.304 72.882 170.9 76.7412C169.534 76.5289 168.27 76.472 167.108 76.5705C164.072 76.8288 161.073 77.0871 158.111 77.3454C157.179 77.2885 156.44 76.9995 155.895 76.4786C151.438 72.1925 147.238 68.3705 143.296 65.0126L134.91 57.6149C134.9 57.6071 134.893 57.5964 134.89 57.5845C134.887 57.5725 134.887 57.5598 134.892 57.5481C134.896 57.5365 134.904 57.5265 134.914 57.5197C134.925 57.5128 134.937 57.5093 134.949 57.5098L149.364 57.4967Z" fill="#0ABDBE"/>
<path d="M175.313 57.4639C177.261 57.9498 178.775 58.4391 179.854 58.9316C182.589 60.1727 184.067 62.0903 186.329 64.9863C187.573 66.5755 191.332 71.4285 197.608 79.5453C198.092 80.1714 198.589 80.8336 199.099 81.5319L190.998 94.9055C187.748 91.5607 184.847 87.9336 182.297 84.024C183.272 82.9241 184.977 80.8423 185.062 79.3188C185.064 79.2836 185.058 79.2485 185.046 79.2156C185.033 79.1828 185.013 79.1531 184.988 79.1285C184.963 79.1039 184.933 79.0851 184.899 79.0731C184.866 79.0612 184.831 79.0565 184.796 79.0594C183.565 79.1546 182.57 79.2531 181.358 79.0627C178.666 78.6358 176.871 78.3042 175.973 78.0678C174.281 77.619 172.59 77.1769 170.9 76.7412C168.304 72.882 166.297 69.974 164.878 68.017C162.663 64.959 159.91 61.7477 156.62 58.3832C156.606 58.369 156.596 58.3508 156.592 58.331C156.588 58.3112 156.59 58.2906 156.598 58.272C156.606 58.2533 156.619 58.2374 156.636 58.2262C156.653 58.215 156.672 58.2091 156.693 58.2092H163.739C163.764 58.2101 163.788 58.2029 163.808 58.1885C163.828 58.1742 163.843 58.1535 163.85 58.1299C163.857 58.1062 163.856 58.0809 163.847 58.0578C163.839 58.0347 163.822 58.0152 163.801 58.0023L162.987 57.4606L175.313 57.4639Z" fill="#1FDD98"/>
<path d="M176.095 57.4539L190.237 57.4736C191.898 58.776 193.093 59.8027 193.822 60.5535C194.788 61.5451 196.829 63.7647 199.946 67.2124C201.461 68.8848 203.026 70.5681 204.641 72.2624L199.099 81.5317C198.589 80.8334 198.092 80.1713 197.608 79.5452C191.332 71.4284 187.573 66.5754 186.329 64.9862C184.067 62.0902 182.589 60.1726 179.854 58.9314C178.775 58.4389 177.261 57.9497 175.313 57.4637L176.095 57.4539Z" fill="#64E670"/>
<path d="M206.523 69.4156C205.798 70.2255 205.171 71.1744 204.641 72.2624C203.026 70.5681 201.461 68.8847 199.946 67.2124C196.829 63.7647 194.788 61.545 193.822 60.5534C193.093 59.8026 191.898 58.776 190.237 57.4735L213.605 57.4801C213.629 57.4805 213.652 57.487 213.673 57.499C213.693 57.511 213.71 57.528 213.722 57.5483C213.733 57.5686 213.739 57.5916 213.739 57.6148C213.739 57.638 213.732 57.6606 213.72 57.6804L206.523 69.4156Z" fill="#9FE25E"/>
<path d="M69.8868 69.5405C67.0695 70.8539 64.3639 72.3446 61.5927 73.7532C59.8853 74.62 57.3022 75.4595 53.8436 76.2716L47.6148 65.922L42.926 58.4324C42.9043 58.3982 42.8921 58.3588 42.8908 58.3183C42.8895 58.2778 42.899 58.2377 42.9185 58.2022C42.9379 58.1666 42.9666 58.1369 43.0014 58.1162C43.0362 58.0955 43.0759 58.0845 43.1165 58.0844H89.2955C89.3199 58.0847 89.3437 58.0916 89.3645 58.1045C89.3852 58.1173 89.4019 58.1354 89.4128 58.1569C89.4237 58.1784 89.4284 58.2023 89.4262 58.2261C89.4241 58.2498 89.4152 58.2723 89.4006 58.2912C87.6702 60.5962 85.5819 61.8308 82.9551 62.9669C77.7902 65.203 74.4738 66.605 69.8868 69.5405Z" fill="#22A2EC"/>
<path d="M119.727 58.9052C114.548 63.4145 109.355 67.8636 104.15 72.2525C101.898 74.1482 100.648 75.1836 100.4 75.3587C99.2029 76.1971 97.7527 76.9162 96.0497 77.516C94.5918 78.0282 93.1755 77.9768 91.8008 77.3617C90.1788 76.636 88.2514 75.5787 86.4717 75.1256C83.5494 74.3803 80.3578 74.4558 77.7869 74.3803C76.2436 74.3343 74.9926 74.4087 74.0338 74.6035C71.5252 75.1125 68.337 76.4784 66.5146 78.4025C66.3811 78.4332 66.3417 78.3456 66.3964 78.1399C66.4136 78.0711 66.4488 78.0087 66.4982 77.9593C66.9251 77.5018 67.3585 77.0541 67.7985 76.6163C68.2472 76.1676 69.2552 75.6181 70.8226 74.968C73.1539 74.0333 75.5607 73.6502 78.043 73.8188C81.7927 74.0727 83.9007 74.215 84.367 74.2456C84.7982 74.2741 85.9376 74.5203 87.7851 74.9844C87.9051 75.015 88.0219 75.059 88.1332 75.1158C89.5626 75.8491 91.0587 76.5386 92.6217 77.1844C93.4787 77.539 94.3981 77.5423 95.2649 77.3223C97.5612 76.7422 99.6516 75.6575 101.536 74.0683C103.922 72.0566 105.818 70.4193 107.223 69.1562C108.773 67.7596 112.098 64.949 117.199 60.7242C117.212 60.7133 117.543 60.4035 118.194 59.795C118.695 59.3287 119.206 59.0321 119.727 58.9052Z" fill="#0E458F"/>
<path d="M139.329 69.4616L153.356 79.8604C156.105 82.0045 159.116 83.9976 160.705 87.1924C161.298 88.554 161.468 89.8926 161.214 91.2082C159.312 90.2187 157.912 89.411 157.014 88.7849C155.409 87.662 152.641 85.288 150.428 83.9385C147.669 82.2574 144.685 81.0293 141.864 79.7849C138.53 78.3073 135.259 76.4718 132.05 74.2785C132.008 74.2506 131.972 74.2142 131.945 74.1717C131.919 74.1292 131.902 74.0816 131.896 74.0322L131.856 73.7039C131.773 71.655 131.773 69.6072 131.856 67.5604C131.896 66.6017 131.76 65.7053 131.449 64.8713C131.318 64.5298 131.305 64.2146 131.41 63.9256C131.417 63.9066 131.428 63.8895 131.443 63.8755C131.457 63.8616 131.475 63.8512 131.494 63.8451C131.513 63.8391 131.533 63.8376 131.553 63.8407C131.572 63.8439 131.591 63.8516 131.607 63.8632L139.329 69.4616Z" fill="#0E95BA"/>
<path d="M122.764 81.0097C122.637 80.9506 122.481 80.9812 122.295 81.1016C123.631 78.987 124.087 76.3964 124.114 73.9633C124.122 73.0592 124.132 70.1282 124.143 65.1701C124.144 65.1391 124.137 65.1085 124.122 65.0811C124.108 65.0537 124.086 65.0303 124.06 65.0133C124.034 64.9963 124.004 64.9861 123.972 64.9836C123.941 64.9812 123.909 64.9866 123.881 64.9994L123.414 65.2161C123.377 65.2312 123.343 65.2535 123.313 65.2817C122.759 65.7874 120.929 67.1654 117.823 69.4157C113.068 72.8589 108.944 75.7758 105.45 78.1662C105.339 78.1662 105.258 78.2067 105.207 78.2877C105.131 78.4124 105.075 78.4858 105.04 78.5076C104.029 79.1862 102.275 80.4296 99.7797 82.2377C98.8144 82.936 98.1675 83.6901 97.8392 84.5C97.8261 84.5349 97.8184 84.5714 97.8162 84.6084L97.7669 88.1611C97.7669 88.1873 97.7636 88.2138 97.7571 88.2399L97.432 89.4187C97.4241 89.4468 97.4221 89.4763 97.4261 89.5052C97.43 89.534 97.4399 89.5617 97.4551 89.5865C97.4702 89.6112 97.4903 89.6324 97.514 89.6487C97.5378 89.6651 97.5646 89.6762 97.5929 89.6814C101.169 90.384 104.954 91.3658 107.785 94.0878C107.557 94.5979 107.315 95.1221 107.059 95.6606C106.225 97.4009 105.943 98.7898 105.926 100.829C105.91 103.203 105.989 104.431 105.473 106.48L104.295 109.418C104.274 109.468 104.243 109.512 104.202 109.546C104.161 109.58 104.113 109.604 104.061 109.615C98.6699 110.784 93.4557 109.103 88.4648 106.969C88.2202 106.865 87.9998 106.711 87.8179 106.516C85.2732 103.787 83.6249 101.101 83.2243 97.1185C82.9529 95.4702 82.9518 93.9981 83.2211 92.7022C83.5385 91.1765 84.2433 89.4504 85.3356 87.5241C85.3471 87.5035 85.3533 87.4803 85.3537 87.4567C85.3542 87.4331 85.3488 87.4097 85.3381 87.3886C85.3274 87.3676 85.3117 87.3495 85.2924 87.3359C85.2731 87.3223 85.2507 87.3136 85.2273 87.3107L81.1229 86.8609C81.0147 86.8478 80.9096 86.8121 80.8143 86.7558C80.7573 86.7186 80.2462 86.5905 79.2809 86.3716C78.8015 86.2622 78.2542 86.0827 77.6391 85.8331C75.4567 84.951 73.515 83.6802 71.8142 82.021L69.8868 80.458C69.7015 80.3076 69.4985 80.1818 69.2826 80.0837L66.8725 79.0002C66.8519 78.9909 66.8334 78.9773 66.8181 78.9604C66.8029 78.9434 66.7912 78.9234 66.7839 78.9017C66.7292 78.7397 66.7587 78.639 66.8725 78.5996C69.8277 79.2661 71.7157 81.4497 73.8401 83.1636C74.9324 84.0458 76.5556 84.9126 78.7095 85.7642C81.0167 86.6748 83.4739 86.9999 86.081 86.7394C86.1134 86.7354 86.1463 86.7412 86.1754 86.756C86.2045 86.7709 86.2285 86.794 86.2444 86.8226C86.2603 86.8512 86.2673 86.8838 86.2645 86.9164C86.2617 86.9489 86.2492 86.9799 86.2287 87.0053C84.6592 88.9864 83.7913 91.2629 83.6249 93.835C83.3918 97.4304 84.0222 101.144 86.1828 104.079C86.8066 104.929 87.541 105.807 88.386 106.713C88.4088 106.738 88.4392 106.755 88.4727 106.762C88.5061 106.769 88.5408 106.764 88.5715 106.749C88.6022 106.734 88.6272 106.71 88.6429 106.68C88.6586 106.65 88.6641 106.615 88.6585 106.582C88.5907 106.126 88.6071 105.774 88.7078 105.524C88.8873 105.148 88.9912 104.742 89.0197 104.306C89.0547 103.781 89.1302 103.375 89.2463 103.088C89.9402 101.394 90.6888 99.6588 91.4922 97.8835C92.0175 96.5701 92.6381 95.5337 93.3539 94.7741C95.2912 92.7153 96.8016 90.6763 97.2449 88.079C97.432 86.9758 97.1135 85.0878 97.8622 83.6102C98.1007 83.1439 98.6403 82.6153 99.4809 82.0243C105.906 77.5128 112.265 73.0078 118.558 68.5094C120.414 67.1829 122.34 65.7589 124.334 64.2376C124.341 64.2311 124.35 64.2269 124.36 64.2255C124.369 64.2241 124.379 64.2256 124.388 64.2298C124.397 64.234 124.404 64.2408 124.409 64.2492C124.414 64.2576 124.416 64.2673 124.416 64.277C124.449 68.644 124.45 72.3369 124.419 75.3555C124.397 77.3387 123.846 79.2235 122.764 81.0097Z" fill="#1A3CA4"/>
<path d="M131.856 73.7039C131.788 75.9827 131.854 77.4351 132.053 78.0611C132.482 79.4117 133.05 80.6102 133.757 81.6566C134.228 82.3505 135.291 83.353 136.946 84.6642C137.832 85.3669 138.653 85.7839 139.389 86.4209C139.859 86.8237 140.48 87.2768 141.25 87.7803C142.743 88.7544 143.993 89.6365 145 90.4268C146.396 91.5169 147.098 92.5019 148.586 94.2914C149.784 95.7362 151.423 95.8609 153.478 96.2057C156.466 96.7026 159.384 97.6165 162.232 98.9474L162.708 99.7059C162.712 99.7138 162.714 99.7229 162.713 99.7319C162.712 99.7409 162.708 99.7493 162.702 99.7558C162.695 99.7624 162.687 99.7668 162.678 99.7685C162.669 99.7701 162.66 99.7689 162.652 99.765C159.817 98.2327 156.882 97.2028 153.846 96.6753C152.618 96.4607 150.966 96.2648 148.891 96.0875C147.512 93.5001 145.69 91.4195 143.424 89.8456C139.803 87.3282 137.333 85.5573 136.013 84.5329C133.73 82.7576 132.285 80.5653 131.679 77.9561C131.471 77.0673 131.363 74.8893 131.354 71.4219C131.347 69.2657 131.379 67.0822 131.449 64.8713C131.76 65.7053 131.896 66.6017 131.856 67.5605C131.773 69.6072 131.773 71.655 131.856 73.7039Z" fill="#0A5992"/>
<path d="M122.295 81.1016C121.732 81.929 121.247 82.5168 120.84 82.8648C118.345 85.0035 115.717 86.967 112.956 88.7554C110.824 90.1388 109.1 91.9163 107.785 94.0878C104.954 91.3658 101.169 90.384 97.5929 89.6813C97.5646 89.6762 97.5378 89.665 97.514 89.6487C97.4903 89.6323 97.4702 89.6111 97.4551 89.5864C97.4399 89.5617 97.43 89.534 97.4261 89.5051C97.4221 89.4762 97.4241 89.4468 97.432 89.4187L97.7571 88.2399C97.7636 88.2137 97.7669 88.1873 97.7669 88.1611L97.8162 84.6083C97.8184 84.5714 97.8261 84.5349 97.8392 84.5C98.1675 83.6901 98.8144 82.936 99.7797 82.2377C102.275 80.4296 104.029 79.1862 105.04 78.5076C105.075 78.4857 105.131 78.4124 105.207 78.2876C105.258 78.2066 105.339 78.1661 105.45 78.1661C108.944 75.7758 113.068 72.8589 117.823 69.4156C120.929 67.1653 122.759 65.7874 123.313 65.2817C123.343 65.2535 123.377 65.2312 123.414 65.216L123.881 64.9993C123.909 64.9866 123.941 64.9812 123.972 64.9836C124.004 64.986 124.034 64.9963 124.06 65.0133C124.086 65.0303 124.108 65.0536 124.122 65.081C124.137 65.1084 124.144 65.1391 124.143 65.1701C124.132 70.1281 124.122 73.0592 124.114 73.9633C124.087 76.3963 123.631 78.987 122.295 81.1016Z" fill="#0B71B6"/>
<path d="M158.111 77.3454C156.224 77.8379 154.639 78.6763 153.357 79.8605L139.329 69.4617C140.851 68.1461 142.173 66.6631 143.296 65.0126C147.238 68.3705 151.438 72.1925 155.895 76.4785C156.44 76.9995 157.179 77.2885 158.111 77.3454Z" fill="#89D7E8"/>
<path d="M47.6148 65.922L53.8436 76.2716L61.6157 89.1527L70.6847 104.296L81.1984 121.758L93.4885 142.207C93.436 142.415 93.3605 142.572 93.262 142.677L47.1059 65.9089C47.2241 65.8257 47.3937 65.8301 47.6148 65.922Z" fill="#1B0C42"/>
<path d="M70.8226 74.9679C69.2553 75.618 68.2472 76.1675 67.7985 76.6162C67.3585 77.054 66.9251 77.5017 66.4982 77.9592C66.4488 78.0086 66.4136 78.071 66.3964 78.1398C66.3417 78.3455 66.3811 78.4331 66.5146 78.4024C66.5825 78.5513 66.7018 78.617 66.8725 78.5994C66.7587 78.6388 66.7292 78.7395 66.7839 78.9015C66.7912 78.9233 66.8029 78.9433 66.8181 78.9602C66.8334 78.9772 66.8519 78.9907 66.8725 79L69.2826 80.0836C69.4985 80.1817 69.7015 80.3075 69.8868 80.4579L71.8142 82.0208C69.0199 85.2091 65.2505 87.1267 61.6157 89.1526L53.8436 76.2714C57.3022 75.4593 59.8853 74.6198 61.5927 73.753C64.3639 72.3444 67.0695 70.8537 69.8868 69.5403C72.0999 70.9128 71.673 72.919 70.8226 74.9679Z" fill="#2D7BE1"/>
<path d="M206.523 69.4156L176.932 118.74L157.169 151.861L128.198 200.013C128.179 200.046 128.151 200.073 128.118 200.092C128.085 200.111 128.048 200.12 128.01 200.12C127.972 200.12 127.934 200.111 127.901 200.092C127.868 200.073 127.84 200.046 127.821 200.013L93.262 142.677C93.3605 142.572 93.436 142.415 93.4886 142.207L96.007 146.213L104.508 160.181L112.346 173.315L117.11 181.169L121.52 188.492L127.85 199.321C127.872 199.358 127.904 199.389 127.942 199.411C127.979 199.432 128.022 199.443 128.065 199.443C128.109 199.443 128.152 199.432 128.189 199.411C128.227 199.389 128.258 199.358 128.28 199.321L136.722 184.798L141.523 176.812L148.192 165.734L152.848 158.106L162.311 142.644L174.345 122.575L177.993 116.488L184.803 105.239L190.998 94.9054L199.099 81.5317L204.641 72.2624C205.171 71.1745 205.798 70.2256 206.523 69.4156Z" fill="#72153D"/>
<path d="M161.214 91.2082C160.553 93.8174 160.892 96.3972 162.232 98.9473C159.384 97.6164 156.466 96.7025 153.478 96.2056C151.423 95.8609 149.784 95.7361 148.586 94.2914C147.098 92.5019 146.396 91.5168 145 90.4267C143.993 89.6365 142.743 88.7543 141.25 87.7802C140.48 87.2767 139.859 86.8236 139.389 86.4208C138.653 85.7838 137.832 85.3668 136.946 84.6642C135.291 83.3529 134.228 82.3504 133.757 81.6565C133.05 80.6101 132.482 79.4117 132.053 78.061C131.854 77.435 131.788 75.9826 131.856 73.7039L131.896 74.0322C131.902 74.0816 131.919 74.1292 131.945 74.1717C131.972 74.2142 132.008 74.2506 132.05 74.2785C135.259 76.4718 138.53 78.3073 141.864 79.7849C144.685 81.0293 147.669 82.2574 150.428 83.9385C152.641 85.288 155.409 87.662 157.014 88.7849C157.912 89.411 159.312 90.2187 161.214 91.2082Z" fill="#0B83AC"/>
<path d="M170.9 76.741C172.59 77.1766 174.281 77.6188 175.973 78.0675C176.871 78.3039 178.666 78.6356 181.358 79.0624C182.57 79.2529 183.565 79.1544 184.796 79.0592C184.831 79.0563 184.866 79.061 184.899 79.0729C184.933 79.0848 184.963 79.1037 184.988 79.1283C185.013 79.1529 185.033 79.1826 185.046 79.2154C185.058 79.2482 185.064 79.2834 185.062 79.3185C184.977 80.8421 183.272 82.9238 182.297 84.0238C181.087 85.1424 179.782 86.0902 178.383 86.8673C176.31 88.0187 174.039 88.6054 171.57 88.6272C170.202 88.8286 169.18 88.7849 168.503 88.4959C167.783 88.1894 167.027 87.9038 166.234 87.6389L160.705 87.1924C159.116 83.9975 156.105 82.0044 153.356 79.8603C154.639 78.6761 156.224 77.8377 158.111 77.3452C161.073 77.0869 164.072 76.8286 167.108 76.5703C168.27 76.4718 169.534 76.5287 170.9 76.741ZM162.524 82.8417C162.883 83.0803 163.257 83.2697 163.647 83.4098C167.991 84.9629 174.446 85.3799 178.564 83.0453C178.582 83.0348 178.596 83.018 178.602 82.9981C178.609 82.9781 178.609 82.9565 178.601 82.9373C178.593 82.9182 178.579 82.9028 178.56 82.8943C178.542 82.8857 178.521 82.8845 178.501 82.891C176.334 83.4623 173.599 82.6874 171.376 82.3394C170.179 82.1511 169.328 82.0898 168.825 82.1555C166.577 82.4532 164.485 82.6524 162.55 82.7531C162.54 82.7537 162.531 82.7574 162.523 82.7637C162.515 82.77 162.509 82.7786 162.506 82.7882C162.503 82.7979 162.503 82.8082 162.507 82.8178C162.51 82.8274 162.516 82.8357 162.524 82.8417Z" fill="#4CE4E6"/>
<path d="M90.0967 81.9093C90.1184 81.9087 90.1395 81.916 90.1561 81.9299C90.1727 81.9438 90.1836 81.9633 90.1869 81.9847C90.1901 82.0061 90.1854 82.0279 90.1736 82.0461C90.1619 82.0643 90.1439 82.0775 90.123 82.0833C87.2499 83.1734 84.3539 83.1603 81.2017 82.4412C79.9562 82.1567 78.5607 81.5842 77.0153 80.724C75.4523 79.8527 74.1291 79.1008 73.0455 78.4682C73.0309 78.4586 73.0199 78.4444 73.0142 78.4279C73.0085 78.4114 73.0085 78.3934 73.0142 78.3769C73.0198 78.3603 73.0308 78.3461 73.0454 78.3365C73.06 78.3269 73.0774 78.3224 73.0948 78.3237C75.6822 78.6958 78.3068 79.2934 80.9686 80.1165C83.2999 80.8367 84.8005 81.2581 85.4703 81.3807C86.7837 81.6214 88.3258 81.7977 90.0967 81.9093Z" fill="#0E458F"/>
<path d="M122.764 81.0098C121.474 82.8912 120.413 83.7022 118.335 85.3604C117.805 85.7807 115.889 87.1455 112.585 89.4549C111.656 90.1051 110.169 91.448 109.361 92.4757C106.524 96.0941 106.028 100.034 106.577 104.474L105.851 107.737C105.367 108.902 104.969 109.715 104.656 110.177C104.159 110.915 103.439 111.485 102.495 111.888C99.0606 113.359 96.1942 115.115 94.6969 118.77C93.6068 121.434 92.7607 123.438 92.1587 124.782C92.0493 125.027 91.9092 125.515 91.7385 126.246C91.5918 125.839 91.5316 125.431 91.5579 125.022L95.4357 115.766C95.5628 115.457 95.7636 115.186 96.0201 114.974C96.3222 114.72 96.6177 114.425 96.9067 114.088C97.3073 113.619 97.7746 113.262 98.3087 113.017C100.285 112.114 102.679 111.339 104.357 109.593C104.428 109.519 104.482 109.432 104.515 109.336L105.473 106.48C105.989 104.431 105.91 103.203 105.926 100.829C105.943 98.7899 106.225 97.401 107.059 95.6607C107.315 95.1222 107.557 94.598 107.785 94.0879C109.1 91.9165 110.824 90.139 112.956 88.7555C115.717 86.9671 118.345 85.0036 120.84 82.865C121.247 82.5169 121.732 81.9292 122.295 81.1017C122.481 80.9813 122.637 80.9507 122.764 81.0098Z" fill="#1B0C42"/>
<path d="M83.2243 97.1185C83.1105 98.1692 82.9113 99.1937 82.6267 100.192C81.8617 102.861 79.4253 103.341 77.0514 103.656C74.9784 103.93 72.8562 104.143 70.6847 104.296L61.6157 89.1527C65.2505 87.1268 69.0199 85.2093 71.8142 82.021C73.515 83.6803 75.4567 84.951 77.6391 85.8331C78.2542 86.0827 78.8015 86.2622 79.2809 86.3716C80.2462 86.5905 80.7573 86.7186 80.8143 86.7558C80.9095 86.8121 81.0147 86.8479 81.1229 86.8609L85.2273 87.3107C85.2507 87.3136 85.2731 87.3223 85.2924 87.3359C85.3117 87.3495 85.3274 87.3676 85.3381 87.3887C85.3488 87.4097 85.3542 87.4331 85.3537 87.4567C85.3533 87.4803 85.3471 87.5035 85.3356 87.5241C84.2433 89.4504 83.5385 91.1765 83.2211 92.7022C82.9518 93.9981 82.9529 95.4702 83.2243 97.1185Z" fill="#2D4FCC"/>
<path d="M162.524 82.842C162.516 82.836 162.51 82.8276 162.507 82.818C162.503 82.8085 162.503 82.7981 162.506 82.7885C162.509 82.7788 162.515 82.7703 162.523 82.764C162.531 82.7577 162.54 82.754 162.55 82.7533C164.485 82.6526 166.577 82.4534 168.825 82.1557C169.328 82.0901 170.179 82.1513 171.376 82.3396C173.599 82.6876 176.334 83.4626 178.501 82.8912C178.521 82.8848 178.542 82.886 178.56 82.8945C178.579 82.9031 178.593 82.9184 178.601 82.9376C178.609 82.9567 178.609 82.9784 178.602 82.9983C178.596 83.0183 178.582 83.0351 178.564 83.0456C174.446 85.3801 167.991 84.9631 163.647 83.41C163.257 83.2699 162.883 83.0806 162.524 82.842Z" fill="#1D9F9A"/>
<path d="M131.446 88.0888C130.507 90.5077 129.778 92.9692 129.259 95.4734C128.681 98.2578 128.606 101.39 130.799 103.541C132.167 104.881 134.61 106.863 138.128 109.487L139.251 110.463C139.308 110.511 139.345 110.579 139.356 110.654C139.367 110.729 139.351 110.806 139.31 110.87L137.018 114.432C136.994 114.47 136.962 114.502 136.925 114.526C136.888 114.551 136.847 114.568 136.803 114.576C136.759 114.583 136.714 114.582 136.671 114.571C136.628 114.561 136.587 114.541 136.552 114.514L127.801 107.77C127.785 107.757 127.765 107.748 127.745 107.745C127.724 107.742 127.703 107.745 127.684 107.753C127.665 107.761 127.648 107.774 127.636 107.791C127.623 107.808 127.616 107.828 127.614 107.849L125.742 126.381L122.331 120.996L122.321 118.609C122.391 118.453 122.431 118.304 122.442 118.159C122.653 118.196 122.771 118.115 122.797 117.916C123.114 115.46 123.331 112.548 123.447 109.179C123.495 107.8 123.65 105.588 123.91 102.543C124.084 100.474 124.114 97.808 124.268 96.291C124.356 95.4439 124.248 94.866 123.946 94.5573L124.255 88.2497L124.261 87.8393C125.557 86.7557 126.461 85.8254 126.974 85.0483C127.267 84.5996 127.522 84.2658 127.739 84.0469C127.753 84.0317 127.771 84.0198 127.79 84.0119C127.81 84.004 127.831 84.0002 127.852 84.0008C127.873 84.0014 127.893 84.0064 127.912 84.0155C127.931 84.0245 127.948 84.0375 127.962 84.0534L131.446 88.0888Z" fill="#89BBE3"/>
<path d="M182.297 84.0239C184.847 87.9335 187.748 91.5606 190.999 94.9054L184.803 105.239C182.867 103.19 181.457 101.547 180.57 100.31C177.008 95.3421 174.995 92.5709 171.57 88.6274C174.039 88.6055 176.31 88.0188 178.383 86.8674C179.782 86.0903 181.087 85.1425 182.297 84.0239Z" fill="#16BBA2"/>
<path d="M86.5932 98.7109C86.2999 96.3402 86.6567 93.8141 87.6636 91.1326C88.7253 88.311 90.6078 86.2041 93.3112 84.8119C93.3368 84.7985 93.3661 84.7937 93.3946 84.7981C93.4232 84.8026 93.4495 84.8162 93.4698 84.8368C93.49 84.8574 93.5031 84.884 93.5071 84.9126C93.5111 84.9413 93.5057 84.9704 93.4918 84.9958C93.0945 85.7313 92.7826 86.4504 92.3525 87.025C91.5885 88.0538 90.7972 89.1297 89.9785 90.2526C88.5797 92.1702 87.6199 94.3428 87.0989 96.7704C87.0967 96.7748 86.95 97.4227 86.6589 98.7142C86.6585 98.7229 86.6546 98.7311 86.6481 98.7369C86.6416 98.7428 86.6331 98.7458 86.6244 98.7454C86.6157 98.745 86.6075 98.7411 86.6017 98.7346C86.5958 98.7282 86.5928 98.7196 86.5932 98.7109Z" fill="#0E458F"/>
<path d="M166.234 87.6391C168.056 89.2677 169.405 90.6577 170.283 91.8091C172.916 95.2633 173.428 99.6435 173.576 104.349C173.668 107.274 174.065 110.423 174.361 113.457C171.649 112.8 169.899 111.536 168.024 109.573C166.655 108.138 165.003 107.228 163.108 106.309C162.841 106.181 162.554 106.103 162.261 106.079C160.409 105.924 159.152 105.807 158.489 105.728C155.82 105.419 153.362 104.383 151.114 102.618C150.589 102.325 150.128 101.847 149.732 101.183L148.891 96.0875C150.966 96.2648 152.618 96.4607 153.846 96.6752C156.882 97.2028 159.817 98.2327 162.652 99.765C162.66 99.7689 162.669 99.7701 162.678 99.7685C162.687 99.7668 162.695 99.7624 162.702 99.7558C162.708 99.7492 162.712 99.7409 162.713 99.7319C162.714 99.7229 162.712 99.7138 162.708 99.7059L162.232 98.9474C160.892 96.3972 160.553 93.8175 161.214 91.2082C161.468 89.8926 161.298 88.5541 160.705 87.1925L166.234 87.6391ZM165.358 91.8978C165.574 92.9156 165.689 93.4519 165.702 93.5067C165.751 93.7212 166.469 96.2571 167.856 101.115C168.007 101.646 168.881 103.719 170.477 107.333C170.497 107.378 170.534 107.414 170.579 107.432C170.624 107.45 170.675 107.45 170.72 107.432L170.729 107.429C170.77 107.412 170.803 107.381 170.822 107.342C170.841 107.302 170.844 107.257 170.831 107.215C170.365 105.775 170.018 104.329 169.79 102.878C169.39 100.3 169.14 98.0412 168.277 96.1138C167.592 94.5815 166.66 93.1553 165.482 91.8354C165.472 91.8235 165.458 91.8154 165.442 91.8124C165.427 91.8094 165.41 91.8117 165.396 91.8188C165.382 91.8259 165.37 91.8374 165.364 91.8517C165.357 91.866 165.354 91.8822 165.358 91.8978ZM160.383 101.978C160.41 101.978 160.435 101.969 160.456 101.953C160.476 101.936 160.49 101.912 160.495 101.886C160.499 101.86 160.495 101.834 160.482 101.811C160.468 101.788 160.447 101.77 160.423 101.761L151.531 99.2955C151.504 99.2876 151.475 99.2883 151.449 99.2974C151.423 99.3066 151.4 99.3237 151.384 99.3464C151.367 99.3692 151.359 99.3964 151.358 99.4243C151.358 99.4522 151.367 99.4795 151.383 99.5023C153.34 102.316 157.609 101.725 160.383 101.978Z" fill="#89D7E8"/>
<path d="M171.57 88.6275C174.995 92.571 177.008 95.3422 180.57 100.31C181.457 101.547 182.867 103.19 184.803 105.239L177.993 116.488L174.361 113.457C174.066 110.423 173.668 107.274 173.576 104.349C173.429 99.6436 172.916 95.2634 170.283 91.8092C169.405 90.6578 168.056 89.2678 166.234 87.6392C167.027 87.904 167.783 88.1897 168.503 88.4962C169.18 88.7851 170.202 88.8289 171.57 88.6275Z" fill="#1D9F9A"/>
<path d="M124.261 87.8394L124.255 88.2498C123.079 89.1604 121.936 90.0426 120.824 90.8963C119.9 91.6055 118.86 92.341 117.704 93.1028C115.294 94.6953 112.674 97.2433 112.415 100.136C112.277 101.71 112.613 103.624 113.423 105.879C113.541 106.209 114.144 107.176 115.232 108.778C115.864 109.711 116.487 110.662 117.1 111.632C119.116 114.821 120.49 117.026 121.221 118.248C121.346 118.458 121.515 118.602 121.73 118.681C121.872 118.734 122.004 118.667 122.124 118.481C122.14 118.459 122.163 118.443 122.189 118.437C122.215 118.431 122.242 118.435 122.265 118.448C122.331 118.483 122.349 118.537 122.321 118.609L122.331 120.996C119.279 116.038 116.218 111.153 113.147 106.342C112.576 105.444 112.185 104.088 111.975 102.274C111.604 99.0361 112.884 96.7737 115.314 94.5672C116.91 93.1192 118.725 92.1539 120.4 90.8996C121.711 89.9167 122.998 88.8966 124.261 87.8394Z" fill="#1B0C42"/>
<path d="M131.446 88.0889C133.511 89.6846 135.314 91.067 137.674 92.712C139.439 93.9401 140.922 95.0871 142.124 96.1531C142.885 96.8295 143.346 97.5979 143.506 98.4581C143.65 100.417 143.539 102.19 143.171 103.777C143.119 104.002 143.034 104.216 142.918 104.414L139.766 109.878C139.741 109.921 139.706 109.958 139.664 109.984C139.621 110.01 139.573 110.026 139.523 110.029C139.473 110.032 139.422 110.022 139.377 110.001C139.331 109.98 139.291 109.948 139.26 109.908C138.945 109.494 138.568 109.354 138.128 109.487C134.61 106.863 132.167 104.881 130.799 103.541C128.605 101.39 128.681 98.2578 129.259 95.4734C129.778 92.9692 130.507 90.5077 131.446 88.0889Z" fill="#0A5992"/>
<path d="M124.255 88.2498L123.946 94.5573L122.442 118.159C122.431 118.304 122.391 118.454 122.321 118.609C122.349 118.537 122.331 118.483 122.265 118.448C122.242 118.435 122.215 118.431 122.189 118.437C122.163 118.443 122.14 118.458 122.124 118.481C122.003 118.667 121.872 118.734 121.73 118.681C121.515 118.602 121.346 118.458 121.221 118.248C120.49 117.026 119.116 114.821 117.1 111.632C116.487 110.662 115.864 109.711 115.232 108.778C114.144 107.176 113.541 106.209 113.423 105.879C112.613 103.624 112.277 101.71 112.415 100.136C112.674 97.2432 115.294 94.6953 117.704 93.1028C118.86 92.341 119.9 91.6055 120.824 90.8963C121.936 90.0425 123.079 89.1604 124.255 88.2498Z" fill="#0E458F"/>
<path d="M165.358 91.8977C165.354 91.8821 165.357 91.8659 165.363 91.8516C165.37 91.8374 165.382 91.8258 165.396 91.8187C165.41 91.8116 165.426 91.8093 165.442 91.8123C165.458 91.8153 165.472 91.8234 165.482 91.8353C166.66 93.1552 167.592 94.5814 168.277 96.1137C169.14 98.0411 169.39 100.3 169.79 102.878C170.018 104.329 170.365 105.775 170.831 107.215C170.844 107.257 170.841 107.302 170.822 107.342C170.803 107.381 170.77 107.412 170.729 107.429L170.72 107.432C170.675 107.45 170.624 107.45 170.579 107.432C170.534 107.414 170.497 107.378 170.477 107.333C168.881 103.719 168.007 101.646 167.856 101.114C166.469 96.257 165.751 93.7211 165.702 93.5066C165.689 93.4518 165.574 92.9155 165.358 91.8977Z" fill="#296980"/>
<path d="M122.442 118.159L123.946 94.5575C124.248 94.8661 124.356 95.444 124.268 96.2912C124.114 97.8082 124.084 100.474 123.91 102.543C123.65 105.588 123.495 107.8 123.447 109.179C123.331 112.548 123.114 115.46 122.797 117.916C122.771 118.115 122.653 118.196 122.442 118.159Z" fill="#CDE0EE"/>
<path d="M105.473 106.48L104.515 109.336C104.482 109.432 104.428 109.519 104.357 109.593C102.679 111.339 100.285 112.114 98.3087 113.017C97.7746 113.262 97.3073 113.619 96.9067 114.088C96.6177 114.425 96.3222 114.72 96.0201 114.974C95.7636 115.185 95.5628 115.457 95.4357 115.765L91.5579 125.022C88.1649 123.774 84.7118 122.686 81.1984 121.758L70.6847 104.296C72.8562 104.143 74.9784 103.93 77.0514 103.656C79.4254 103.341 81.8617 102.861 82.6268 100.192C82.9113 99.1937 83.1105 98.1692 83.2244 97.1185C83.6249 101.101 85.2733 103.787 87.818 106.516C87.9998 106.711 88.2202 106.865 88.4648 106.969C93.4557 109.103 98.6699 110.784 104.061 109.616C104.113 109.604 104.161 109.58 104.202 109.546C104.243 109.512 104.274 109.468 104.295 109.419L105.473 106.48Z" fill="#3F29A5"/>
<path d="M91.4922 97.8837C90.6888 99.6589 89.9402 101.394 89.2463 103.088C89.1303 103.375 89.0547 103.781 89.0197 104.306C88.9913 104.742 88.8873 105.148 88.7078 105.524C88.5808 104.344 88.7603 103.141 89.2463 101.913C89.8723 100.336 90.621 98.9935 91.4922 97.8837Z" fill="#1B0C42"/>
<path d="M143.506 98.4583C144.187 100.194 144.246 101.928 143.683 103.659C143.381 104.581 142.894 105.594 142.222 106.7C141.08 108.582 139.884 110.431 138.637 112.246C137.875 113.349 137.241 114.501 136.571 115.654C136.538 115.566 136.51 115.519 136.486 115.513C136.454 115.503 136.419 115.504 136.388 115.516C136.357 115.527 136.33 115.548 136.312 115.575C134.841 117.83 133.515 120.182 132.336 122.631L128.773 128.844L128.189 129.99C128.177 130.011 128.161 130.03 128.142 130.046C128.123 130.061 128.102 130.073 128.078 130.08C128.055 130.086 128.031 130.088 128.007 130.085C127.983 130.082 127.96 130.074 127.939 130.062C127.805 129.983 127.722 129.83 127.689 129.602C126.763 128.449 126.114 127.375 125.742 126.381L127.614 107.849C127.616 107.828 127.623 107.808 127.636 107.791C127.648 107.775 127.665 107.761 127.684 107.753C127.703 107.745 127.724 107.743 127.745 107.746C127.765 107.748 127.785 107.757 127.801 107.77L136.552 114.515C136.587 114.542 136.628 114.561 136.671 114.571C136.714 114.582 136.759 114.583 136.803 114.576C136.847 114.568 136.888 114.551 136.925 114.527C136.962 114.502 136.994 114.47 137.018 114.432L139.31 110.87C139.351 110.806 139.367 110.729 139.356 110.654C139.345 110.58 139.308 110.512 139.251 110.463L138.128 109.488C138.568 109.354 138.945 109.494 139.26 109.908C139.291 109.948 139.331 109.98 139.377 110.001C139.422 110.022 139.473 110.032 139.523 110.029C139.573 110.026 139.621 110.011 139.664 109.984C139.706 109.958 139.741 109.922 139.766 109.878L142.918 104.415C143.034 104.216 143.119 104.002 143.171 103.778C143.539 102.19 143.65 100.417 143.506 98.4583Z" fill="#0E458F"/>
<path d="M160.383 101.978C157.609 101.725 153.34 102.316 151.383 99.5022C151.367 99.4794 151.358 99.4521 151.358 99.4242C151.359 99.3962 151.367 99.369 151.384 99.3463C151.4 99.3236 151.423 99.3064 151.449 99.2973C151.475 99.2882 151.504 99.2875 151.531 99.2953L160.423 101.761C160.447 101.77 160.468 101.788 160.482 101.811C160.495 101.833 160.499 101.86 160.495 101.886C160.49 101.912 160.476 101.936 160.456 101.953C160.435 101.969 160.41 101.978 160.383 101.978Z" fill="#296980"/>
<path d="M99.8618 163.902C87.6516 143.999 75.6406 123.987 63.8288 103.866C65.1444 102.798 66.5902 102.474 68.1663 102.894C68.2717 102.922 68.3632 102.988 68.4224 103.081C70.3815 106.1 71.9467 108.599 73.1178 110.578C74.5822 113.05 75.9383 115.063 77.0678 117.033C78.541 119.603 80.8602 123.427 84.0255 128.505C86.1237 131.868 87.969 135.056 90.3134 138.865C91.4758 140.754 92.8669 143.067 94.4867 145.803C96.8837 149.846 98.2628 152.167 98.6239 152.767C98.6918 152.881 98.7608 152.994 98.8308 153.105C100.86 156.38 102.581 159.249 103.992 161.711C104.003 161.73 104.01 161.751 104.013 161.772C104.015 161.793 104.013 161.815 104.007 161.836C104.001 161.856 103.991 161.875 103.977 161.892C103.963 161.908 103.946 161.922 103.927 161.931L99.8618 163.902Z" fill="#CFD4E7"/>
<path d="M151.114 102.618C151.061 102.78 150.964 102.848 150.822 102.822C150.777 102.816 150.734 102.795 150.7 102.763C150.536 102.605 150.402 102.524 150.3 102.52C150.236 102.518 150.175 102.541 150.128 102.584C150.081 102.627 150.053 102.686 150.05 102.75C149.886 105.56 148.553 107.701 147.252 110.151C146.54 111.497 145.394 113.001 144.501 114.439C144.475 114.481 144.463 114.53 144.466 114.58C144.47 114.63 144.489 114.678 144.521 114.718C144.875 115.143 144.918 115.33 144.649 115.28C144.362 115.133 144.111 114.947 143.897 114.721C145.088 112.813 146.27 110.892 147.443 108.959C148.347 107.468 148.985 105.878 149.357 104.188C149.554 103.305 149.58 102.192 149.732 101.183C150.128 101.847 150.589 102.325 151.114 102.618Z" fill="#1B0C42"/>
<path d="M151.114 102.618C153.362 104.383 155.82 105.419 158.489 105.728C159.152 105.807 160.409 105.924 162.261 106.079C162.554 106.103 162.841 106.181 163.108 106.309C165.003 107.228 166.655 108.138 168.024 109.573C169.899 111.536 171.649 112.8 174.361 113.457L177.993 116.488L174.345 122.575C173.791 121.304 173.228 120.043 172.657 118.793C172.118 117.617 170.9 115.516 169.36 116.028C168.471 116.324 167.82 116.958 167.407 117.933C167.021 118.839 166.78 119.788 166.684 120.779C165.717 120.657 165.012 120.485 164.57 120.264C163.118 119.537 161.354 118.695 159.277 117.739C156.79 116.594 154.175 116.059 151.432 116.133C148.366 116.215 146.586 116.593 144.649 115.28C144.918 115.33 144.875 115.143 144.521 114.718C144.489 114.678 144.47 114.63 144.466 114.58C144.463 114.53 144.475 114.481 144.501 114.439C145.394 113.001 146.54 111.497 147.252 110.151C148.553 107.701 149.886 105.56 150.05 102.75C150.053 102.686 150.081 102.627 150.128 102.584C150.175 102.541 150.236 102.518 150.3 102.52C150.402 102.524 150.536 102.605 150.7 102.763C150.734 102.795 150.777 102.816 150.822 102.822C150.964 102.848 151.061 102.78 151.114 102.618Z" fill="#296980"/>
<path d="M109.325 110.587L109.279 111.454C109.275 111.56 109.246 111.664 109.197 111.76C108.634 112.821 108.474 113.848 108.717 114.839C109.085 116.343 109.077 117.794 108.694 119.19C107.659 122.966 107.113 126.826 107.056 130.771L106.938 135.594C106.937 135.623 106.929 135.652 106.914 135.677C106.899 135.701 106.878 135.722 106.853 135.736C106.828 135.75 106.799 135.757 106.77 135.756C106.741 135.756 106.713 135.747 106.688 135.732C104.426 134.386 102.965 132.321 101.733 130.072C100.685 128.152 100.181 126.182 100.223 124.161C101.048 123.108 101.983 122.326 103.027 121.814C102.981 124.312 102.722 126.46 103.684 128.837C103.692 128.857 103.706 128.873 103.724 128.883C103.742 128.894 103.764 128.897 103.784 128.894C103.805 128.89 103.824 128.88 103.838 128.864C103.852 128.849 103.86 128.828 103.861 128.807C104.001 125.719 104.423 122.71 105.125 119.781C105.128 119.768 105.126 119.755 105.12 119.743C105.114 119.731 105.105 119.721 105.093 119.715C105.081 119.709 105.068 119.706 105.055 119.708C105.042 119.71 105.03 119.716 105.02 119.725L104.603 120.165C104.229 120.069 103.864 120.151 103.51 120.412C103.428 120.472 103.367 120.553 103.332 120.645C103.199 120.995 103.001 121.271 102.738 121.472C101.482 122.442 99.9056 123.679 98.0099 125.182C97.9401 125.237 97.864 125.283 97.7833 125.32L95.0547 126.575C94.9567 126.618 94.8528 126.648 94.7461 126.663C93.818 126.79 93.0452 127.131 92.4279 127.685C92.41 127.7 92.3881 127.711 92.3646 127.716C92.341 127.72 92.3166 127.718 92.2938 127.71C92.2711 127.701 92.2508 127.687 92.2351 127.668C92.2195 127.649 92.2089 127.627 92.2047 127.602C92.1302 127.138 92.1795 126.719 92.3524 126.345C92.753 125.481 92.8285 124.273 93.1799 123.557C93.6943 122.509 94.3466 120.917 95.1368 118.783C95.6469 117.408 96.5564 116.123 97.8654 114.928C99.6878 113.263 102.364 112.883 104.078 111.297C105.129 110.325 105.72 109.138 105.851 107.737L106.577 104.474C107.122 106.634 108.038 108.672 109.325 110.587ZM104.337 113.671C104.339 113.654 104.336 113.637 104.328 113.622C104.32 113.607 104.307 113.595 104.292 113.588C104.277 113.58 104.26 113.578 104.244 113.58C104.227 113.583 104.212 113.59 104.199 113.602C103.028 114.72 101.798 115.726 100.509 116.619C99.8388 117.081 99.2138 117.715 98.6337 118.52C97.6575 119.871 96.8366 121.201 96.1711 122.51C96.1624 122.528 96.1598 122.548 96.1636 122.568C96.1674 122.587 96.1775 122.605 96.1923 122.618C96.2071 122.632 96.2259 122.64 96.2458 122.642C96.2656 122.643 96.2855 122.638 96.3025 122.628C97.3007 121.965 98.1051 121.364 98.88 120.448C100.075 119.042 101.177 117.82 102.186 116.78C102.837 116.11 104.252 114.311 104.337 113.671Z" fill="#BC99D6"/>
<path d="M104.603 120.165L103.027 121.814C101.983 122.326 101.048 123.108 100.223 124.161L99.3594 124.926C99.1701 125.096 98.9564 125.236 98.7257 125.34L92.1029 128.381C92.0633 128.399 92.0198 128.407 91.9763 128.404C91.9329 128.401 91.8909 128.387 91.8543 128.363C91.8176 128.34 91.7875 128.307 91.7667 128.269C91.7459 128.231 91.735 128.188 91.7351 128.144L91.7384 126.246C91.9092 125.515 92.0493 125.027 92.1587 124.782C92.7607 123.438 93.6067 121.434 94.6969 118.77C96.1941 115.115 99.0606 113.359 102.495 111.888C103.439 111.485 104.159 110.915 104.656 110.177C104.969 109.715 105.367 108.902 105.851 107.737C105.72 109.138 105.129 110.325 104.078 111.297C102.364 112.883 99.6878 113.263 97.8654 114.928C96.5564 116.123 95.6469 117.408 95.1368 118.783C94.3466 120.917 93.6943 122.509 93.1799 123.557C92.8285 124.273 92.753 125.481 92.3524 126.345C92.1795 126.719 92.1303 127.138 92.2047 127.602C92.209 127.627 92.2195 127.649 92.2351 127.668C92.2508 127.687 92.2711 127.701 92.2938 127.71C92.3166 127.718 92.341 127.72 92.3646 127.716C92.3882 127.711 92.41 127.7 92.428 127.685C93.0453 127.131 93.818 126.79 94.7461 126.663C94.8528 126.648 94.9567 126.618 95.0548 126.575L97.7833 125.32C97.8641 125.283 97.9401 125.237 98.0099 125.183C99.9056 123.679 101.482 122.442 102.738 121.472C103.001 121.271 103.199 120.995 103.332 120.645C103.367 120.553 103.428 120.472 103.51 120.412C103.864 120.151 104.229 120.069 104.603 120.165Z" fill="#CFD4E7"/>
<path d="M109.325 110.587C112.983 116.471 116.613 122.355 120.216 128.239C120.958 129.45 121.605 130.603 122.157 131.7L122.636 136.97C122.128 136.029 121.813 135.03 121.69 133.972C121.68 133.877 121.654 133.784 121.615 133.697C120.778 131.841 120.141 130.86 118.111 130.548C116.365 130.278 115.025 130.278 113.189 129.829C111.972 129.529 110.917 129.299 110.024 129.139C108.199 128.811 108.11 129.7 107.056 130.771C107.113 126.826 107.659 122.966 108.694 119.19C109.077 117.793 109.085 116.343 108.717 114.839C108.474 113.848 108.634 112.821 109.197 111.759C109.246 111.664 109.275 111.56 109.279 111.454L109.325 110.587Z" fill="#3F29A5"/>
<path d="M104.337 113.671C104.252 114.311 102.837 116.11 102.187 116.78C101.177 117.82 100.075 119.042 98.8801 120.448C98.1052 121.364 97.3007 121.965 96.3025 122.628C96.2856 122.638 96.2657 122.643 96.2458 122.642C96.226 122.64 96.2072 122.632 96.1924 122.618C96.1775 122.605 96.1674 122.587 96.1636 122.568C96.1598 122.548 96.1625 122.528 96.1712 122.51C96.8366 121.201 97.6575 119.871 98.6338 118.52C99.2139 117.715 99.8388 117.081 100.509 116.619C101.798 115.726 103.028 114.72 104.199 113.602C104.212 113.59 104.227 113.583 104.244 113.58C104.26 113.578 104.277 113.58 104.292 113.588C104.307 113.595 104.32 113.607 104.328 113.622C104.336 113.637 104.339 113.654 104.337 113.671Z" fill="#4F427F"/>
<path d="M174.345 122.575L162.311 142.644C159.419 142.02 156.733 140.987 154.253 139.544C154.404 139.503 154.527 139.39 154.621 139.206C156.707 135.1 157.061 130.836 155.684 126.414C155.677 126.389 155.676 126.363 155.68 126.338C155.685 126.313 155.696 126.289 155.712 126.269C155.727 126.249 155.748 126.232 155.771 126.222C155.794 126.211 155.82 126.206 155.845 126.207L157.737 126.282C157.791 126.285 157.845 126.28 157.898 126.269C160.126 125.803 161.679 125.371 162.557 124.972C163.682 124.462 164.724 124.043 165.683 123.715C165.756 123.69 165.823 123.648 165.876 123.591C165.93 123.534 165.968 123.465 165.988 123.39L166.684 120.779C166.781 119.788 167.021 118.839 167.407 117.933C167.82 116.958 168.472 116.324 169.36 116.028C170.9 115.516 172.118 117.617 172.657 118.793C173.228 120.043 173.791 121.304 174.345 122.575Z" fill="#616775"/>
<path d="M143.897 114.721C144.111 114.947 144.362 115.133 144.649 115.28C146.586 116.593 148.366 116.215 151.432 116.133C154.175 116.059 156.79 116.594 159.277 117.739C161.354 118.695 163.118 119.537 164.57 120.264C165.012 120.485 165.717 120.657 166.684 120.779L165.988 123.39C165.968 123.465 165.93 123.535 165.876 123.591C165.823 123.648 165.757 123.69 165.683 123.715C164.724 124.043 163.682 124.462 162.557 124.972C161.679 125.371 160.126 125.803 157.898 126.269C157.845 126.28 157.791 126.285 157.737 126.282L155.845 126.207C155.82 126.206 155.794 126.211 155.771 126.222C155.748 126.233 155.727 126.249 155.712 126.269C155.696 126.289 155.685 126.313 155.681 126.338C155.676 126.363 155.677 126.389 155.685 126.414C157.061 130.836 156.707 135.1 154.621 139.206C154.527 139.39 154.404 139.503 154.253 139.545L154.161 139.492L153.826 138.635C153.334 136.816 152.578 135.841 151.311 133.963C149.896 131.864 148.172 129.953 146.714 128.167C145.771 127.016 145.215 125.471 145.046 123.534C144.956 122.512 144.593 121.444 143.956 120.33C143.897 120.227 143.824 120.133 143.739 120.05L142.028 118.356C142.081 118.227 142.064 118.09 141.976 117.946L143.897 114.721ZM149.567 120.169L149.347 120.165C149.326 120.164 149.305 120.17 149.288 120.182C149.271 120.195 149.259 120.213 149.255 120.234C149.25 120.254 149.253 120.276 149.262 120.295C149.272 120.314 149.288 120.328 149.308 120.336C151.226 121.285 153.577 121.604 155.176 122.07C158.131 122.937 161.024 122.749 164.208 122.378C164.21 122.377 164.21 122.376 164.211 122.375C164.212 122.374 164.212 122.373 164.212 122.372V122.28C164.212 122.263 164.206 122.246 164.194 122.233C164.182 122.221 164.167 122.213 164.149 122.211L162.32 122.037C162.629 121.984 162.793 121.943 162.813 121.912C162.84 121.871 162.855 121.824 162.858 121.775C162.86 121.727 162.85 121.678 162.828 121.635C162.805 121.591 162.772 121.554 162.73 121.528C162.689 121.502 162.642 121.487 162.593 121.485C161.063 121.428 159.663 121.212 158.393 120.835C156.209 120.192 155.006 119.852 154.785 119.817C154.614 119.791 154.442 119.78 154.269 119.784L149.558 119.909C149.541 119.91 149.525 119.915 149.511 119.924C149.497 119.933 149.486 119.945 149.478 119.96C149.471 119.975 149.468 119.991 149.469 120.008C149.47 120.024 149.476 120.04 149.485 120.054L149.567 120.169ZM149.472 123.869C149.442 123.887 149.404 123.9 149.361 123.909C149.347 123.911 149.334 123.916 149.323 123.925C149.312 123.933 149.303 123.944 149.297 123.957C149.291 123.97 149.289 123.983 149.289 123.997C149.29 124.011 149.294 124.025 149.301 124.037L153.383 131.044L153.938 132.377C153.944 132.392 153.955 132.406 153.969 132.415C153.983 132.424 154 132.429 154.017 132.429C154.033 132.429 154.05 132.424 154.064 132.415C154.078 132.406 154.089 132.392 154.095 132.377C154.466 131.493 153.777 128.903 153.429 127.799C153.008 126.479 152.683 125.508 151.56 124.759C150.564 124.096 149.918 123.666 149.62 123.469C149.6 123.455 149.576 123.447 149.552 123.446C149.527 123.444 149.503 123.45 149.481 123.461C149.46 123.473 149.442 123.49 149.429 123.511C149.416 123.532 149.41 123.556 149.41 123.58C149.41 123.661 149.431 123.757 149.472 123.869Z" fill="#89BBE3"/>
<path d="M129.295 138.743L127.952 141.482C127.943 141.499 127.931 141.513 127.915 141.523C127.899 141.534 127.881 141.54 127.862 141.541C127.844 141.543 127.825 141.539 127.809 141.531C127.792 141.523 127.778 141.51 127.768 141.495C127.337 140.867 127.046 140.232 126.895 139.591C125.63 136.905 124.309 134.245 122.932 131.612C121.22 128.335 119.376 125.168 117.399 122.113C117.398 122.111 117.397 122.11 117.397 122.108C117.397 122.106 117.398 122.104 117.399 122.103C117.4 122.101 117.402 122.101 117.404 122.101C117.406 122.101 117.407 122.101 117.409 122.103C120.659 124.13 123.704 126.458 126.543 129.087C126.74 129.268 127.122 129.44 127.689 129.602C127.722 129.83 127.805 129.983 127.939 130.062C127.96 130.074 127.983 130.082 128.007 130.085C128.031 130.088 128.055 130.086 128.078 130.08C128.102 130.073 128.123 130.062 128.142 130.046C128.161 130.031 128.177 130.011 128.189 129.99L128.773 128.844C128.858 128.975 128.957 129.029 129.068 129.005C129.152 128.987 129.237 128.911 129.325 128.775C131.476 125.454 133.577 122.006 135.626 118.432C135.677 118.339 135.751 118.261 135.839 118.205C138.183 116.705 139.093 117.483 139.694 119.972C139.724 120.101 139.705 120.236 139.641 120.353C138.825 121.852 137.546 124.062 135.806 126.982C134.53 129.123 132.768 132.116 130.52 135.962C129.922 136.989 129.514 137.916 129.295 138.743Z" fill="#CFD4E7"/>
<path d="M136.571 115.654L132.336 122.631C133.515 120.182 134.841 117.83 136.312 115.575C136.33 115.548 136.357 115.527 136.388 115.516C136.419 115.504 136.454 115.503 136.486 115.513C136.51 115.519 136.538 115.566 136.571 115.654Z" fill="#1B0C42"/>
<path d="M142.028 118.356L131.613 135.982C131.604 135.996 131.6 136.012 131.6 136.029C131.6 136.046 131.605 136.062 131.614 136.076C131.623 136.09 131.635 136.101 131.65 136.108C131.665 136.116 131.682 136.119 131.699 136.117C136.932 135.732 144.287 135.089 151.275 134.931C151.326 134.93 151.376 134.941 151.422 134.963C151.468 134.986 151.509 135.019 151.541 135.059C152.346 136.082 152.972 137.197 153.419 138.405C153.598 138.891 153.734 138.968 153.826 138.635L154.161 139.492C148.257 141.656 144.393 142.992 139.914 145.803C139.896 145.814 139.88 145.829 139.868 145.847C139.856 145.864 139.847 145.884 139.843 145.904C139.838 145.925 139.838 145.947 139.841 145.967C139.845 145.988 139.853 146.008 139.865 146.026C141.994 149.369 143.739 152.907 145.098 156.642C145.031 156.804 144.928 156.957 144.79 157.101C144.573 156.313 144.419 155.818 144.327 155.614C143.285 153.287 142.303 151.283 141.382 149.602C139.957 147.001 138.083 144.564 135.76 142.29C134.102 140.668 132.441 139.742 130.054 138.097C130.018 138.073 129.993 138.037 129.983 137.995C129.973 137.954 129.98 137.91 130.001 137.873C133.068 132.63 136.23 127.435 139.29 122.182C140.131 120.737 141.026 119.325 141.976 117.946C142.063 118.09 142.081 118.227 142.028 118.356Z" fill="#6D4380"/>
<path d="M142.028 118.356L143.739 120.05C143.824 120.133 143.897 120.227 143.956 120.329C144.593 121.444 144.956 122.512 145.046 123.534C145.215 125.471 145.771 127.016 146.714 128.167C148.172 129.953 149.896 131.864 151.311 133.963C152.578 135.841 153.334 136.816 153.826 138.635C153.734 138.968 153.598 138.891 153.419 138.405C152.972 137.197 152.346 136.081 151.541 135.059C151.509 135.018 151.468 134.986 151.422 134.963C151.376 134.941 151.326 134.93 151.275 134.931C144.287 135.089 136.932 135.732 131.699 136.116C131.682 136.118 131.665 136.116 131.65 136.108C131.635 136.101 131.623 136.09 131.614 136.076C131.605 136.062 131.6 136.046 131.6 136.029C131.6 136.012 131.604 135.996 131.613 135.982L142.028 118.356Z" fill="#4F427F"/>
<path d="M181.828 120.527C173.993 133.949 166.09 147.34 157.957 160.585L153.957 158.819C153.938 158.81 153.921 158.798 153.907 158.783C153.893 158.767 153.883 158.749 153.876 158.73C153.869 158.711 153.866 158.69 153.868 158.67C153.87 158.649 153.875 158.63 153.885 158.612C154.831 156.858 155.808 155.126 156.817 153.414C157.038 153.042 157.156 152.524 157.169 151.861L176.932 118.74L181.828 120.527Z" fill="#CFD4E7"/>
<path d="M103.027 121.814L104.603 120.165L105.02 119.725C105.03 119.716 105.042 119.71 105.055 119.708C105.068 119.706 105.081 119.708 105.093 119.715C105.105 119.721 105.114 119.731 105.12 119.743C105.126 119.755 105.128 119.768 105.125 119.781C104.423 122.71 104.001 125.719 103.861 128.807C103.86 128.828 103.852 128.848 103.838 128.864C103.824 128.88 103.805 128.89 103.784 128.894C103.764 128.897 103.742 128.893 103.724 128.883C103.706 128.873 103.692 128.857 103.684 128.837C102.722 126.46 102.981 124.312 103.027 121.814Z" fill="#4F427F"/>
<path d="M162.32 122.037C160.543 121.906 159.293 121.7 158.571 121.42C156.699 120.694 155.044 120.05 153.728 120.136C152.327 120.225 150.94 120.236 149.567 120.169L149.485 120.054C149.476 120.04 149.47 120.024 149.469 120.008C149.468 119.991 149.471 119.975 149.478 119.96C149.486 119.945 149.497 119.933 149.511 119.924C149.525 119.915 149.541 119.91 149.558 119.909L154.269 119.784C154.442 119.78 154.614 119.791 154.785 119.817C155.006 119.852 156.209 120.192 158.393 120.835C159.663 121.212 161.063 121.428 162.593 121.485C162.642 121.487 162.689 121.502 162.73 121.528C162.772 121.554 162.805 121.591 162.828 121.634C162.85 121.678 162.86 121.726 162.858 121.775C162.855 121.824 162.84 121.871 162.813 121.912C162.793 121.943 162.629 121.984 162.32 122.037Z" fill="#CDE0EE"/>
<path d="M149.567 120.169C150.94 120.237 152.327 120.226 153.728 120.136C155.044 120.05 156.699 120.694 158.571 121.42C159.293 121.7 160.543 121.906 162.32 122.037L164.149 122.211C164.166 122.213 164.182 122.221 164.194 122.233C164.205 122.246 164.212 122.263 164.212 122.28V122.372C164.212 122.373 164.211 122.374 164.211 122.375C164.21 122.376 164.21 122.377 164.208 122.378C161.023 122.749 158.131 122.937 155.176 122.07C153.577 121.604 151.226 121.285 149.308 120.336C149.288 120.328 149.272 120.314 149.262 120.295C149.252 120.276 149.25 120.254 149.254 120.234C149.259 120.213 149.271 120.195 149.288 120.182C149.305 120.17 149.326 120.164 149.347 120.165L149.567 120.169Z" fill="#0E458F"/>
<path d="M91.5578 125.022C91.5316 125.431 91.5918 125.839 91.7384 126.246L91.7351 128.144C91.735 128.188 91.7459 128.231 91.7667 128.269C91.7875 128.307 91.8176 128.34 91.8543 128.363C91.8909 128.387 91.9329 128.401 91.9763 128.404C92.0198 128.407 92.0633 128.399 92.1029 128.381L98.7257 125.34C98.9564 125.236 99.1701 125.096 99.3594 124.927L100.223 124.161C100.181 126.182 100.685 128.152 101.733 130.072C102.965 132.321 104.426 134.386 106.688 135.732C106.713 135.748 106.741 135.756 106.77 135.756C106.799 135.757 106.828 135.75 106.853 135.736C106.878 135.722 106.899 135.701 106.914 135.677C106.929 135.652 106.937 135.624 106.938 135.595L107.056 130.771C108.11 129.701 108.199 128.811 110.024 129.139C110.917 129.299 111.972 129.529 113.189 129.829C115.025 130.279 116.365 130.279 118.111 130.548C120.141 130.86 120.778 131.842 121.615 133.697C121.654 133.784 121.68 133.877 121.69 133.973C121.813 135.03 122.128 136.029 122.636 136.97C122.741 137.605 122.597 138.226 122.203 138.832C121.191 139.709 120.062 140.559 119.231 141.525C116.765 144.401 115.465 147.789 113.879 151.237C113.842 150.267 114.062 149.299 114.539 148.331C114.548 148.313 114.553 148.294 114.553 148.274C114.554 148.254 114.55 148.234 114.542 148.216C114.533 148.198 114.521 148.181 114.506 148.168C114.491 148.155 114.473 148.146 114.454 148.141C113.116 147.788 110.733 147.251 107.305 146.529C103.324 145.692 99.5575 145.587 96.007 146.213L93.4885 142.208L81.1984 121.758C84.7117 122.686 88.1649 123.774 91.5578 125.022Z" fill="#722196"/>
<path d="M153.383 131.044C153.024 129.533 152.435 128.202 151.616 127.051C150.872 126.002 150.157 124.942 149.472 123.869C149.431 123.758 149.41 123.661 149.41 123.58C149.41 123.556 149.416 123.532 149.429 123.511C149.442 123.49 149.46 123.473 149.481 123.461C149.503 123.45 149.527 123.444 149.552 123.446C149.576 123.447 149.6 123.455 149.62 123.469C149.918 123.666 150.564 124.096 151.56 124.759C152.683 125.508 153.008 126.48 153.429 127.8C153.777 128.903 154.466 131.493 154.095 132.377C154.089 132.392 154.078 132.406 154.064 132.415C154.05 132.424 154.033 132.429 154.017 132.429C154 132.429 153.983 132.424 153.969 132.415C153.955 132.406 153.944 132.392 153.938 132.377L153.383 131.044Z" fill="#0E458F"/>
<path d="M149.472 123.869C150.157 124.942 150.872 126.002 151.616 127.051C152.435 128.202 153.024 129.533 153.383 131.043L149.301 124.036C149.294 124.025 149.29 124.011 149.289 123.997C149.289 123.983 149.291 123.969 149.297 123.957C149.303 123.944 149.312 123.933 149.323 123.925C149.334 123.916 149.347 123.911 149.36 123.908C149.404 123.9 149.441 123.887 149.472 123.869Z" fill="#CDE0EE"/>
<path d="M126.895 139.59C127.046 140.232 127.337 140.867 127.768 141.495C127.778 141.51 127.792 141.523 127.809 141.531C127.825 141.539 127.844 141.543 127.862 141.541C127.881 141.54 127.899 141.534 127.915 141.523C127.931 141.513 127.943 141.499 127.952 141.482L129.295 138.743L129.62 138.425C129.655 138.39 129.701 138.371 129.751 138.37C129.8 138.37 129.849 138.388 129.886 138.422C129.939 138.467 130.897 139.1 132.762 140.319C133.765 140.976 134.65 141.7 135.419 142.49C137.137 144.261 138.607 146.005 139.829 147.724C140.807 149.098 141.764 150.938 142.698 153.243C142.998 153.983 143.297 154.614 143.595 155.134C143.98 155.802 144.227 156.474 144.337 157.151C144.346 157.203 144.34 157.257 144.321 157.307C144.302 157.356 144.269 157.4 144.227 157.432C144.185 157.465 144.134 157.485 144.081 157.491C144.028 157.497 143.975 157.488 143.926 157.466C143.178 157.124 142.173 156.556 141.089 156.198C139.66 155.728 138.053 155.265 136.269 154.809C135.205 154.537 133.8 153.883 132.762 153.187C131.02 152.023 129.478 150.59 128.136 148.889C127.707 148.349 127.372 147.723 127.131 147.011C127.118 146.974 127.046 147.034 126.915 147.192C126.766 147.122 126.598 147.359 126.412 147.904C126.377 147.856 126.359 147.819 126.356 147.793C126.356 147.778 126.35 147.764 126.34 147.754C126.33 147.743 126.317 147.737 126.302 147.735C126.287 147.734 126.272 147.737 126.259 147.745C126.247 147.753 126.237 147.765 126.232 147.779C125.227 150.441 123.855 152.775 122.117 154.78C121.99 154.928 121.822 155.037 121.634 155.093C121.447 155.15 121.246 155.151 121.057 155.098L119.349 154.626C119.272 154.604 119.2 154.564 119.142 154.508C119.083 154.453 119.039 154.384 119.013 154.307C118.988 154.231 118.981 154.149 118.995 154.069C119.008 153.99 119.041 153.915 119.09 153.851C120.191 152.415 121.098 150.991 121.812 149.579C122.714 147.79 123.377 145.732 123.802 143.403C123.622 143.081 123.512 142.955 123.47 143.025C122.404 144.837 121.25 146.591 120.009 148.285C118.811 149.5 117.937 151.447 117.274 152.747C117.253 152.79 117.219 152.825 117.178 152.849C117.136 152.872 117.089 152.882 117.041 152.879C116.056 152.802 115.202 152.384 114.48 151.624C114.443 151.586 114.417 151.539 114.402 151.488C114.387 151.437 114.384 151.384 114.395 151.332C114.467 150.958 114.805 150.626 114.936 150.278C115.702 148.277 116.339 146.77 116.847 145.757C117.355 144.741 118.152 143.509 119.238 142.06C120.036 140.992 121.293 140.067 122.35 139.009C122.365 138.994 122.376 138.976 122.382 138.957C122.388 138.937 122.389 138.916 122.385 138.896C122.381 138.875 122.372 138.856 122.359 138.84C122.347 138.824 122.33 138.811 122.311 138.802C122.289 138.789 122.253 138.799 122.203 138.832C122.597 138.226 122.741 137.605 122.636 136.97L122.157 131.7L126.895 139.59ZM135.97 151.867C134.14 149.118 131.926 146.457 129.328 143.885C129.305 143.862 129.276 143.847 129.244 143.842C129.212 143.837 129.179 143.843 129.15 143.858C129.121 143.872 129.098 143.896 129.082 143.925C129.067 143.954 129.061 143.987 129.065 144.02C129.297 145.589 129.979 146.965 131.111 148.147C132.492 149.592 134.071 150.873 135.849 151.989C135.866 151.999 135.886 152.003 135.905 152.001C135.925 151.998 135.943 151.989 135.957 151.975C135.971 151.961 135.98 151.943 135.982 151.924C135.985 151.904 135.98 151.884 135.97 151.867Z" fill="#BC99D6"/>
<path d="M122.203 138.832C122.253 138.799 122.289 138.789 122.311 138.802C122.33 138.811 122.347 138.824 122.359 138.84C122.372 138.856 122.381 138.875 122.385 138.895C122.389 138.916 122.388 138.937 122.382 138.957C122.376 138.976 122.365 138.994 122.35 139.009C121.293 140.067 120.036 140.992 119.238 142.06C118.152 143.509 117.355 144.741 116.847 145.757C116.339 146.77 115.702 148.277 114.936 150.278C114.805 150.626 114.467 150.958 114.395 151.332C114.384 151.384 114.387 151.437 114.402 151.488C114.417 151.539 114.443 151.586 114.48 151.624C115.202 152.384 116.056 152.802 117.041 152.879C117.089 152.882 117.136 152.872 117.178 152.849C117.219 152.825 117.253 152.79 117.274 152.747C117.937 151.447 118.811 149.5 120.009 148.285C118.545 150.586 117.512 153.013 116.91 155.568C116.904 155.596 116.908 155.626 116.921 155.652C116.934 155.678 116.954 155.7 116.98 155.713C117.006 155.726 117.036 155.731 117.064 155.726C117.093 155.721 117.12 155.707 117.14 155.686C118.989 153.587 120.489 151.318 121.638 148.879C121.831 148.472 122.184 147.556 122.699 146.131C123.027 145.225 123.395 144.315 123.802 143.403C123.377 145.732 122.714 147.79 121.812 149.579C121.098 150.991 120.191 152.415 119.09 153.851C119.041 153.915 119.008 153.99 118.995 154.069C118.981 154.149 118.988 154.231 119.013 154.307C119.039 154.384 119.083 154.453 119.142 154.508C119.2 154.564 119.272 154.604 119.349 154.626L121.057 155.098C121.246 155.151 121.447 155.15 121.634 155.093C121.822 155.037 121.99 154.928 122.117 154.78C123.855 152.775 125.227 150.441 126.232 147.779C126.237 147.765 126.247 147.753 126.259 147.745C126.272 147.737 126.287 147.734 126.302 147.735C126.317 147.737 126.33 147.743 126.34 147.754C126.35 147.764 126.356 147.778 126.356 147.793C126.359 147.819 126.377 147.856 126.412 147.904C124.646 152.891 121.627 156.84 117.356 159.751C114.848 161.252 113.505 162.778 111.866 164.781C111.848 164.803 111.824 164.819 111.797 164.827C111.77 164.835 111.742 164.834 111.715 164.826C111.688 164.818 111.664 164.801 111.647 164.779C111.629 164.757 111.619 164.731 111.617 164.703L111.528 163.632C111.702 160.881 111.781 158.027 112.438 155.486C112.818 154.004 113.299 152.588 113.879 151.237C115.465 147.789 116.765 144.401 119.231 141.524C120.062 140.559 121.191 139.709 122.203 138.832Z" fill="#E696E0"/>
<path d="M154.253 139.545C156.733 140.987 159.419 142.02 162.311 142.644L152.848 158.106L145.099 156.642C143.739 152.907 141.995 149.369 139.865 146.026C139.853 146.008 139.845 145.988 139.841 145.967C139.838 145.947 139.838 145.925 139.843 145.904C139.847 145.884 139.856 145.864 139.868 145.846C139.88 145.829 139.896 145.814 139.914 145.803C144.393 142.992 148.257 141.656 154.161 139.492L154.253 139.545Z" fill="#97507B"/>
<path d="M123.802 143.403C123.395 144.315 123.027 145.225 122.699 146.131C122.184 147.556 121.831 148.472 121.638 148.879C120.489 151.318 118.989 153.587 117.14 155.686C117.12 155.707 117.093 155.721 117.064 155.726C117.036 155.731 117.006 155.727 116.98 155.713C116.954 155.7 116.934 155.679 116.921 155.652C116.908 155.626 116.904 155.597 116.91 155.568C117.512 153.013 118.545 150.586 120.009 148.285C121.251 146.591 122.404 144.837 123.47 143.025C123.512 142.955 123.622 143.081 123.802 143.403Z" fill="#A71F9B"/>
<path d="M135.97 151.867C135.98 151.884 135.985 151.904 135.982 151.924C135.98 151.943 135.971 151.961 135.957 151.975C135.943 151.989 135.925 151.998 135.905 152.001C135.886 152.003 135.866 151.999 135.849 151.989C134.071 150.872 132.492 149.592 131.111 148.147C129.979 146.965 129.297 145.589 129.065 144.02C129.061 143.987 129.067 143.954 129.082 143.925C129.098 143.896 129.121 143.872 129.15 143.858C129.179 143.843 129.212 143.837 129.244 143.842C129.276 143.847 129.305 143.862 129.328 143.885C131.926 146.457 134.14 149.118 135.97 151.867Z" fill="#722196"/>
<path d="M113.879 151.237C113.299 152.588 112.819 154.004 112.438 155.486C111.781 158.027 111.702 160.881 111.528 163.632C111.224 162.562 111.102 161.472 111.164 160.362C111.167 160.315 111.154 160.268 111.128 160.23C111.102 160.191 111.063 160.162 111.019 160.148C108.708 159.429 106.711 159.065 104.508 160.181L96.007 146.213C99.5576 145.587 103.324 145.692 107.306 146.528C110.733 147.251 113.116 147.788 114.454 148.141C114.473 148.146 114.491 148.155 114.506 148.168C114.521 148.181 114.533 148.197 114.542 148.216C114.55 148.234 114.554 148.254 114.553 148.274C114.553 148.294 114.548 148.313 114.539 148.331C114.062 149.299 113.842 150.267 113.879 151.237Z" fill="#A71F9B"/>
<path d="M126.915 147.192C127.549 148.834 128.658 150.367 130.241 151.792C132.235 153.589 134.379 154.84 136.673 155.545C138.258 156.033 140.084 156.59 142.15 157.216C142.83 157.42 143.9 157.926 144.655 158.359C144.687 158.377 144.724 158.386 144.761 158.385C144.798 158.383 144.834 158.371 144.864 158.35C144.894 158.329 144.918 158.3 144.933 158.266C144.948 158.233 144.953 158.195 144.947 158.159L144.79 157.101C144.928 156.957 145.031 156.804 145.099 156.642L152.848 158.106L148.192 165.734L143.601 163.839C141.139 161.587 138.285 160.973 135.048 160.716C129.159 160.248 123.262 159.926 117.356 159.751C121.627 156.84 124.646 152.891 126.412 147.904C126.598 147.359 126.766 147.122 126.915 147.192Z" fill="#C82F8C"/>
<path d="M111.528 163.632L111.617 164.703C111.619 164.731 111.629 164.757 111.647 164.779C111.664 164.801 111.688 164.818 111.715 164.826C111.742 164.835 111.77 164.835 111.797 164.827C111.824 164.819 111.848 164.803 111.866 164.781C113.505 162.779 114.848 161.252 117.356 159.751C123.262 159.926 129.159 160.248 135.048 160.717C138.285 160.973 141.139 161.587 143.601 163.839C138.561 166.663 134.224 169.201 128.589 169.621C125.33 169.864 122.626 170.195 120.479 170.613C117.972 171.099 115.261 172 112.346 173.315L104.508 160.181C106.711 159.065 108.708 159.429 111.019 160.148C111.063 160.162 111.102 160.191 111.128 160.23C111.154 160.268 111.167 160.315 111.164 160.362C111.102 161.472 111.224 162.562 111.528 163.632Z" fill="#E12990"/>
<path d="M148.192 165.734L141.523 176.812C137.513 176.72 133.465 177.154 129.38 178.112C124.661 179.22 120.571 180.239 117.11 181.169L112.346 173.315C115.261 172 117.972 171.099 120.479 170.613C122.626 170.195 125.33 169.864 128.589 169.621C134.224 169.201 138.561 166.663 143.601 163.839L148.192 165.734Z" fill="#F93678"/>
<path d="M141.523 176.812L136.722 184.798C131.552 185.535 126.484 186.767 121.52 188.492L117.11 181.169C120.571 180.239 124.661 179.22 129.38 178.112C133.465 177.154 137.513 176.72 141.523 176.812Z" fill="#FD4C5C"/>
<path d="M136.722 184.798L128.28 199.321C128.258 199.358 128.227 199.389 128.189 199.411C128.152 199.432 128.109 199.444 128.065 199.444C128.022 199.444 127.979 199.432 127.942 199.411C127.904 199.389 127.872 199.358 127.85 199.321L121.52 188.492C126.484 186.767 131.552 185.535 136.722 184.798Z" fill="#F9673B"/>
</svg>
