<svg width="256" height="256" viewBox="0 0 256 256" fill="none" xmlns="http://www.w3.org/2000/svg">
<g clip-path="url(#clip0_23_563)">
<rect width="256" height="256" fill="white"/>
<rect width="256" height="256" fill="#1B1B1F"/>
<path d="M88.1018 47.0209L86.3564 47.0865C86.3015 47.0886 86.248 47.1027 86.2001 47.1279C86.1522 47.153 86.1111 47.1885 86.0799 47.2317C83.9162 50.1557 82.347 51.6385 78.9288 52.862L37.7088 52.7825C37.6842 52.7829 37.6601 52.7896 37.6389 52.802C37.6178 52.8144 37.6003 52.8322 37.5883 52.8533C37.5763 52.8744 37.5703 52.8982 37.5708 52.9222C37.5713 52.9463 37.5784 52.9696 37.5913 52.9899L42.8483 61.6411L91.4337 142.45L127.811 202.804C127.832 202.838 127.861 202.867 127.896 202.886C127.931 202.906 127.97 202.916 128.01 202.916C128.05 202.916 128.089 202.906 128.124 202.886C128.159 202.867 128.188 202.838 128.209 202.804L158.704 152.117C158.69 152.815 158.567 153.36 158.334 153.752C157.272 155.554 156.243 157.377 155.248 159.223C155.237 159.242 155.231 159.263 155.229 159.284C155.228 159.305 155.231 159.327 155.238 159.347C155.245 159.368 155.256 159.387 155.271 159.403C155.286 159.419 155.304 159.432 155.324 159.441L159.533 161.3L128.323 212.944C128.289 213.001 128.244 213.049 128.191 213.087C128.137 213.124 128.076 213.15 128.012 213.163C127.947 213.176 127.881 213.175 127.816 213.16C127.752 213.146 127.692 213.118 127.639 213.079C127.415 212.916 127.183 212.636 126.944 212.239C121.905 203.972 117.149 195.698 112.14 187.489C107.532 179.936 102.946 172.37 98.3809 164.791L102.66 162.717C102.68 162.707 102.698 162.693 102.713 162.676C102.727 162.658 102.738 162.638 102.744 162.617C102.751 162.595 102.753 162.572 102.75 162.55C102.748 162.527 102.74 162.505 102.729 162.486C101.243 159.894 99.4316 156.874 97.2956 153.427C97.2218 153.309 97.1493 153.191 97.0778 153.071C96.6976 152.439 95.246 149.996 92.7229 145.74C91.0178 142.86 89.5534 140.425 88.3299 138.437C85.8621 134.427 83.9197 131.071 81.7111 127.532C78.3792 122.186 75.9379 118.161 74.3872 115.456C73.1982 113.382 71.7707 111.263 70.2292 108.661C68.9965 106.578 67.349 103.947 65.2867 100.77C65.2244 100.672 65.1281 100.602 65.0171 100.573C63.3581 100.131 61.8361 100.472 60.4513 101.596C55.3533 93.0244 50.3727 84.6048 45.05 75.9364C37.8517 64.2056 33.8596 57.6559 33.0739 56.2872C31.6361 53.7826 30.1452 51.3021 28.6014 48.8458C28.3364 48.4241 28.1371 47.9379 28.0035 47.3872C27.9988 47.366 27.9988 47.3439 28.0036 47.3228C28.0084 47.3016 28.0177 47.2818 28.031 47.2649C28.0443 47.2479 28.0611 47.2343 28.0803 47.225C28.0995 47.2156 28.1205 47.2109 28.1417 47.211L88.1018 47.0209Z" fill="#F0F0F3"/>
<path d="M173.559 47L175.287 47.0795C175.351 47.0831 175.41 47.1113 175.453 47.1578C175.496 47.2044 175.518 47.2657 175.515 47.3283C175.488 47.9459 175.598 48.477 175.847 48.9217C176.545 50.1706 177.472 51.4437 178.626 52.7409L177.803 52.7513L164.828 52.7478L150.488 52.7859L142.815 52.7478C142.7 52.7455 142.587 52.7328 142.476 52.7098C139.808 52.1223 137.164 51.6937 134.544 51.4241C129.809 50.9402 125.395 51.6384 120.795 52.7202C120.763 52.7294 120.728 52.734 120.691 52.734L117.94 52.8204L78.9287 52.8619C82.347 51.6384 83.9162 50.1556 86.0798 47.2316C86.1111 47.1884 86.1522 47.1529 86.2001 47.1277C86.248 47.1026 86.3015 47.0885 86.3564 47.0864L88.1018 47.0207L173.559 47Z" fill="#E3EAF2"/>
<path d="M184.661 119.133L179.507 117.253L210.656 65.3323L218.232 52.9794C218.245 52.9586 218.252 52.9348 218.252 52.9104C218.252 52.8859 218.246 52.8618 218.233 52.8404C218.221 52.819 218.203 52.8011 218.182 52.7885C218.16 52.7759 218.136 52.769 218.111 52.7686L193.512 52.7617L178.626 52.7409C177.472 51.4437 176.545 50.1706 175.847 48.9217C175.598 48.477 175.488 47.9459 175.515 47.3283C175.518 47.2657 175.496 47.2044 175.453 47.1578C175.41 47.1113 175.351 47.0831 175.287 47.0795L173.559 47L227.806 47.2627C227.841 47.2632 227.875 47.2731 227.906 47.2914C227.936 47.3098 227.96 47.3358 227.977 47.3669C227.993 47.3979 228.001 47.4328 228 47.468C227.998 47.5032 227.987 47.5373 227.968 47.5668C226.914 49.174 225.677 50.8987 224.595 52.7513C220.119 60.4312 216.106 66.8358 211.278 74.8613C202.4 89.6152 193.527 104.372 184.661 119.133Z" fill="#F0F0F3"/>
<path d="M150.488 52.7858L135.315 52.7997C135.302 52.7992 135.289 52.8028 135.278 52.81C135.267 52.8173 135.259 52.8277 135.254 52.84C135.25 52.8522 135.249 52.8656 135.253 52.8782C135.256 52.8908 135.263 52.9021 135.273 52.9103L144.101 60.6973C142.919 62.4347 141.527 63.9958 139.926 65.3806L131.796 59.4876C131.78 59.4753 131.76 59.4672 131.74 59.4639C131.719 59.4606 131.698 59.4622 131.678 59.4686C131.658 59.4749 131.639 59.4859 131.624 59.5006C131.608 59.5153 131.597 59.5333 131.589 59.5533C131.478 59.8574 131.492 60.1893 131.631 60.5487C131.557 62.876 131.523 65.1744 131.53 67.444C131.54 71.0939 131.654 73.3866 131.872 74.3221C132.511 77.0687 134.032 79.3764 136.435 81.2451C137.824 82.3235 140.425 84.1876 144.236 86.8374C146.621 88.4941 148.539 90.6843 149.99 93.4079L150.875 98.772C150.716 99.8331 150.689 101.005 150.481 101.935C150.09 103.713 149.418 105.387 148.466 106.957C147.231 108.991 145.987 111.013 144.733 113.022L142.711 116.417C141.711 117.868 140.769 119.354 139.884 120.875C136.663 126.405 133.335 131.873 130.106 137.393C130.084 137.432 130.077 137.478 130.087 137.521C130.098 137.565 130.124 137.603 130.162 137.628C132.674 139.359 134.423 140.334 136.169 142.042C138.613 144.436 140.586 147.001 142.086 149.739C143.056 151.508 144.089 153.618 145.186 156.067C145.283 156.282 145.445 156.803 145.674 157.633L145.839 158.746C145.845 158.784 145.84 158.824 145.824 158.859C145.809 158.895 145.784 158.926 145.752 158.948C145.719 158.97 145.682 158.982 145.643 158.984C145.604 158.985 145.566 158.976 145.532 158.957C144.737 158.501 143.61 157.968 142.895 157.754C140.719 157.095 138.798 156.509 137.13 155.995C134.715 155.253 132.458 153.936 130.359 152.044C128.693 150.544 127.526 148.93 126.857 147.202C126.996 147.036 127.072 146.973 127.085 147.012C127.339 147.761 127.692 148.42 128.143 148.989C129.556 150.779 131.179 152.287 133.013 153.513C134.105 154.246 135.585 154.934 136.704 155.22C138.582 155.7 140.274 156.187 141.778 156.683C142.919 157.059 143.976 157.657 144.765 158.017C144.815 158.04 144.872 158.049 144.928 158.043C144.983 158.037 145.036 158.016 145.081 157.981C145.125 157.947 145.16 157.901 145.18 157.849C145.2 157.797 145.206 157.74 145.197 157.685C145.081 156.973 144.821 156.265 144.415 155.563C144.102 155.014 143.788 154.351 143.472 153.572C142.488 151.146 141.481 149.209 140.451 147.762C139.165 145.953 137.618 144.117 135.809 142.252C135 141.421 134.068 140.659 133.013 139.968C131.05 138.684 130.041 138.018 129.985 137.97C129.946 137.935 129.895 137.916 129.843 137.916C129.791 137.917 129.742 137.937 129.705 137.974L129.363 138.309C129.594 137.438 130.023 136.462 130.652 135.381C133.019 131.333 134.874 128.182 136.217 125.928C138.049 122.854 139.395 120.528 140.254 118.95C140.321 118.828 140.341 118.685 140.309 118.549C139.677 115.929 138.719 115.11 136.252 116.69C136.159 116.749 136.081 116.83 136.027 116.928C133.87 120.691 131.659 124.32 129.394 127.815C129.302 127.958 129.212 128.039 129.125 128.057C129.007 128.083 128.904 128.026 128.814 127.888L132.564 121.349L137.022 114.004C137.727 112.791 138.395 111.578 139.196 110.416C140.51 108.506 141.768 106.56 142.971 104.579C143.678 103.415 144.191 102.348 144.509 101.378C145.101 99.5555 145.039 97.7305 144.322 95.9033C144.154 94.9978 143.669 94.189 142.867 93.477C141.602 92.3548 140.041 91.1474 138.184 89.8548C135.699 88.1232 133.801 86.668 131.627 84.9883L127.96 80.7405C127.946 80.7237 127.928 80.7101 127.908 80.7005C127.888 80.691 127.866 80.6857 127.844 80.6851C127.822 80.6844 127.8 80.6884 127.779 80.6968C127.759 80.7051 127.74 80.7176 127.725 80.7336C127.497 80.964 127.228 81.3154 126.92 81.7877C126.38 82.6057 125.429 83.585 124.065 84.7256C122.735 85.8385 121.38 86.9123 120 87.9469C118.237 89.2672 116.326 90.2833 114.646 91.8076C112.089 94.1302 110.741 96.5116 111.131 99.9195C111.352 101.83 111.764 103.257 112.365 104.202C115.598 109.267 118.82 114.408 122.032 119.627L125.623 125.296C126.015 126.342 126.698 127.472 127.673 128.686C127.076 128.516 126.674 128.335 126.467 128.144C123.478 125.376 120.273 122.926 116.851 120.792C116.85 120.791 116.848 120.79 116.846 120.79C116.844 120.79 116.842 120.791 116.841 120.792C116.84 120.794 116.839 120.795 116.839 120.797C116.839 120.799 116.84 120.801 116.841 120.803C118.922 124.019 120.863 127.352 122.665 130.802C124.114 133.574 125.505 136.373 126.837 139.2L121.849 130.895C121.269 129.741 120.588 128.526 119.807 127.252C116.014 121.058 112.192 114.865 108.342 108.671C106.987 106.655 106.023 104.51 105.449 102.235C104.872 97.5623 105.394 93.4148 108.38 89.6059C109.23 88.5241 110.796 87.1105 111.774 86.4261C115.251 83.9952 117.268 82.5585 117.826 82.1161C120.014 80.3707 121.13 79.5169 122.489 77.5365C123.627 75.6562 124.208 73.6723 124.231 71.5847C124.263 68.4072 124.262 64.52 124.227 59.9231C124.228 59.9129 124.225 59.9027 124.22 59.8938C124.215 59.885 124.207 59.8779 124.198 59.8735C124.189 59.869 124.178 59.8674 124.168 59.8689C124.158 59.8703 124.148 59.8748 124.141 59.8816C122.042 61.4831 120.015 62.982 118.061 64.3783C111.436 69.1134 104.743 73.8555 97.9799 78.6045C97.0951 79.2266 96.5271 79.7831 96.2759 80.2739C95.4879 81.8292 95.8232 83.8166 95.6262 84.9779C95.1596 87.7119 93.5697 89.8582 91.5304 92.0253C90.777 92.8249 90.1237 93.9159 89.5707 95.2985C88.6536 96.4667 87.8656 97.8803 87.2066 99.5393C86.6951 100.832 86.5061 102.099 86.6398 103.341C86.5338 103.604 86.5165 103.975 86.5879 104.454C86.5938 104.49 86.588 104.526 86.5715 104.558C86.555 104.59 86.5286 104.615 86.4963 104.631C86.464 104.646 86.4275 104.651 86.3923 104.644C86.3571 104.637 86.3251 104.619 86.301 104.592C85.4116 103.639 84.6386 102.715 83.9819 101.821C81.7076 98.7306 81.044 94.8215 81.2894 91.0368C81.4645 88.3294 82.3781 85.933 84.0302 83.8477C84.0518 83.8209 84.0649 83.7883 84.0679 83.754C84.0708 83.7198 84.0634 83.6854 84.0467 83.6553C84.03 83.6253 84.0048 83.6009 83.9741 83.5853C83.9435 83.5697 83.9089 83.5636 83.8747 83.5677C81.1304 83.8419 78.5439 83.4998 76.1153 82.5412C73.848 81.6449 72.1394 80.7324 70.9896 79.8038C68.7534 77.9996 66.766 75.7012 63.6553 74.9995C63.4756 75.018 63.35 74.9489 63.2786 74.7922C65.1968 72.7668 68.5529 71.3289 71.1935 70.7932C72.2028 70.5881 73.5196 70.5098 75.1441 70.5582C77.8504 70.6377 81.2099 70.5582 84.286 71.3428C86.1593 71.8197 88.1882 72.9327 89.8956 73.6965C91.3426 74.344 92.8335 74.3981 94.3681 73.859C96.1607 73.2276 97.6873 72.4707 98.9477 71.5882C99.2081 71.4038 100.524 70.3139 102.895 68.3185C108.374 63.6986 113.84 59.0153 119.292 54.2686L120.809 53.0105C120.822 53.0003 120.831 52.9864 120.836 52.9706C120.84 52.9549 120.84 52.9381 120.835 52.9226C120.829 52.9071 120.819 52.8936 120.806 52.8839C120.793 52.8743 120.777 52.869 120.76 52.8688L117.94 52.8204L120.691 52.734C120.728 52.734 120.763 52.7293 120.795 52.7202C125.395 51.6383 129.809 50.9402 134.544 51.4241C137.164 51.6936 139.808 52.1222 142.476 52.7098C142.587 52.7328 142.7 52.7455 142.815 52.7478L150.488 52.7858ZM88.1018 78.4835C86.2377 78.366 84.6144 78.1805 83.2318 77.927C82.5268 77.798 80.9472 77.3544 78.4932 76.5964C75.6913 75.73 72.9286 75.1009 70.205 74.7092C70.1867 74.7078 70.1684 74.7125 70.153 74.7227C70.1376 74.7328 70.1261 74.7477 70.1201 74.7652C70.1142 74.7826 70.1142 74.8015 70.1202 74.8189C70.1262 74.8363 70.1378 74.8512 70.1532 74.8613C71.2937 75.5272 72.6866 76.3187 74.3318 77.2358C75.9586 78.1413 77.4275 78.7439 78.7386 79.0434C82.0567 79.8004 85.1052 79.8142 88.1294 78.6667C88.1514 78.6606 88.1703 78.6466 88.1827 78.6275C88.1951 78.6084 88.2001 78.5854 88.1967 78.5629C88.1933 78.5403 88.1817 78.5198 88.1643 78.5052C88.1468 78.4906 88.1246 78.4829 88.1018 78.4835ZM84.483 96.1729C84.7895 94.8134 84.9439 94.1314 84.9462 94.1268C85.4946 91.5714 86.505 89.2845 87.9774 87.266C88.8391 86.0839 89.6721 84.9514 90.4763 83.8684C90.929 83.2636 91.2574 82.5067 91.6756 81.7324C91.6902 81.7057 91.6958 81.6751 91.6917 81.6449C91.6875 81.6148 91.6737 81.5868 91.6524 81.5651C91.6311 81.5434 91.6033 81.5291 91.5733 81.5244C91.5432 81.5197 91.5125 81.5248 91.4855 81.5389C88.6398 83.0044 86.6582 85.2222 85.5407 88.1923C84.4807 91.0149 84.1051 93.674 84.4139 96.1694C84.4134 96.1786 84.4166 96.1876 84.4228 96.1944C84.429 96.2012 84.4376 96.2053 84.4467 96.2057C84.4559 96.2062 84.4649 96.203 84.4717 96.1968C84.4785 96.1907 84.4826 96.1821 84.483 96.1729Z" fill="#CDE0EE"/>
<path d="M78.9288 52.862L117.94 52.8205L120.76 52.8689C120.777 52.8691 120.793 52.8744 120.806 52.884C120.819 52.8937 120.829 52.9072 120.835 52.9227C120.84 52.9382 120.84 52.955 120.836 52.9707C120.831 52.9865 120.822 53.0004 120.809 53.0106L119.292 54.2687C118.743 54.4023 118.205 54.7146 117.677 55.2053C116.993 55.8459 116.644 56.172 116.63 56.1835C111.261 60.6306 107.761 63.5892 106.13 65.0593C104.651 66.3888 102.655 68.1124 100.144 70.2299C98.1597 71.9028 95.9592 73.0445 93.542 73.6551C92.6296 73.8867 91.6618 73.8832 90.7597 73.51C89.1145 72.8302 87.5396 72.1044 86.0349 71.3325C85.9178 71.2727 85.7949 71.2264 85.6686 71.1942C83.7238 70.7057 82.5245 70.4465 82.0706 70.4166C81.5798 70.3843 79.3608 70.2345 75.4137 69.9672C72.8007 69.7898 70.2673 70.1931 67.8133 71.177C68.7085 69.0202 69.1578 66.9084 66.8282 65.4637C71.6567 62.3737 75.1476 60.8979 80.5843 58.5441C83.3494 57.3483 85.5476 56.0487 87.3691 53.6224C87.3844 53.6025 87.3938 53.5787 87.396 53.5538C87.3983 53.5288 87.3934 53.5036 87.382 53.481C87.3705 53.4584 87.3528 53.4393 87.331 53.4258C87.3092 53.4123 87.2841 53.4049 87.2585 53.4046H38.6489C38.6063 53.4048 38.5645 53.4163 38.5278 53.4381C38.4912 53.46 38.461 53.4912 38.4406 53.5286C38.4201 53.566 38.41 53.6083 38.4114 53.6509C38.4128 53.6935 38.4256 53.735 38.4485 53.771L43.3841 61.6548C43.1514 61.558 42.9728 61.5534 42.8484 61.641L37.5913 52.9899C37.5784 52.9696 37.5714 52.9462 37.5708 52.9222C37.5703 52.8982 37.5763 52.8743 37.5883 52.8532C37.6003 52.8321 37.6178 52.8144 37.639 52.8019C37.6601 52.7895 37.6843 52.7828 37.7088 52.7825L78.9288 52.862Z" fill="#1290D2"/>
<path d="M150.488 52.7859L164.828 52.7479L165.686 53.3182C165.708 53.3318 165.725 53.3523 165.734 53.3766C165.743 53.4009 165.744 53.4276 165.737 53.4525C165.729 53.4774 165.714 53.4991 165.693 53.5142C165.672 53.5293 165.646 53.537 165.62 53.536H158.203C158.181 53.5359 158.161 53.5421 158.143 53.5538C158.125 53.5656 158.111 53.5824 158.103 53.602C158.095 53.6217 158.093 53.6433 158.097 53.6642C158.101 53.685 158.112 53.7042 158.127 53.7191C161.59 57.2607 164.487 60.641 166.819 63.86C168.312 65.9199 170.425 68.9811 173.158 73.0434C171.72 72.8199 170.39 72.76 169.166 72.8636C165.97 73.1355 162.813 73.4074 159.696 73.6793C158.714 73.6194 157.937 73.3153 157.363 72.7669C152.671 68.2552 148.251 64.2321 144.101 60.6974L135.274 52.9104C135.263 52.9022 135.256 52.8909 135.253 52.8783C135.249 52.8657 135.25 52.8523 135.254 52.8401C135.259 52.8278 135.267 52.8174 135.278 52.8101C135.289 52.8029 135.302 52.7993 135.315 52.7998L150.488 52.7859Z" fill="#0ABDBE"/>
<path d="M177.803 52.7514C179.854 53.2629 181.448 53.7779 182.583 54.2964C185.463 55.6028 187.018 57.6213 189.399 60.6698C190.708 62.3426 194.666 67.4511 201.272 75.9951C201.781 76.6541 202.304 77.3511 202.841 78.0861L194.314 92.1637C190.892 88.6429 187.839 84.8248 185.155 80.7095C186.181 79.5516 187.975 77.3603 188.065 75.7566C188.067 75.7196 188.061 75.6826 188.048 75.648C188.035 75.6135 188.014 75.5822 187.987 75.5563C187.961 75.5304 187.929 75.5105 187.894 75.498C187.859 75.4854 187.822 75.4805 187.785 75.4835C186.489 75.5838 185.442 75.6875 184.166 75.487C181.332 75.0377 179.443 74.6886 178.498 74.4397C176.717 73.9674 174.937 73.5019 173.158 73.0434C170.425 68.9811 168.312 65.9199 166.819 63.86C164.487 60.641 161.59 57.2607 158.127 53.7191C158.112 53.7042 158.101 53.685 158.097 53.6642C158.093 53.6433 158.095 53.6217 158.103 53.602C158.111 53.5824 158.125 53.5656 158.143 53.5538C158.161 53.5421 158.181 53.5359 158.203 53.536H165.62C165.646 53.537 165.671 53.5293 165.693 53.5142C165.714 53.4991 165.729 53.4774 165.737 53.4525C165.744 53.4276 165.743 53.4009 165.734 53.3766C165.725 53.3523 165.708 53.3318 165.686 53.3182L164.828 52.7479L177.803 52.7514Z" fill="#1FDD98"/>
<path d="M178.626 52.741L193.512 52.7617C195.261 54.1327 196.519 55.2134 197.287 56.0037C198.303 57.0475 200.451 59.384 203.733 63.0131C205.327 64.7735 206.975 66.5455 208.675 68.3289L202.841 78.0861C202.304 77.351 201.781 76.654 201.272 75.995C194.666 67.451 190.708 62.3426 189.399 60.6697C187.018 57.6213 185.463 55.6028 182.583 54.2963C181.448 53.7779 179.854 53.2629 177.803 52.7513L178.626 52.741Z" fill="#64E670"/>
<path d="M210.656 65.3322C209.893 66.1848 209.233 67.1836 208.675 68.3288C206.975 66.5454 205.327 64.7734 203.733 63.013C200.451 59.3839 198.303 57.0474 197.287 56.0036C196.519 55.2133 195.261 54.1326 193.512 52.7616L218.111 52.7685C218.136 52.7689 218.16 52.7758 218.182 52.7884C218.203 52.801 218.221 52.8189 218.233 52.8403C218.246 52.8617 218.252 52.8859 218.252 52.9103C218.251 52.9347 218.245 52.9585 218.232 52.9793L210.656 65.3322Z" fill="#9FE25E"/>
<path d="M66.8282 65.4636C63.8627 66.8461 61.0147 68.4153 58.0976 69.8981C56.3003 70.8105 53.5813 71.6942 49.9407 72.549L43.3841 61.6548L38.4484 53.7709C38.4256 53.7349 38.4128 53.6934 38.4114 53.6508C38.41 53.6082 38.4201 53.566 38.4405 53.5286C38.461 53.4911 38.4911 53.4599 38.5278 53.4381C38.5644 53.4163 38.6063 53.4047 38.6489 53.4045H87.2585C87.2841 53.4049 87.3092 53.4122 87.331 53.4257C87.3528 53.4392 87.3705 53.4583 87.3819 53.4809C87.3934 53.5035 87.3983 53.5287 87.396 53.5537C87.3938 53.5787 87.3844 53.6024 87.3691 53.6223C85.5476 56.0486 83.3494 57.3482 80.5843 58.5441C75.1475 60.8978 71.6567 62.3737 66.8282 65.4636Z" fill="#22A2EC"/>
<path d="M119.292 54.2686C113.84 59.0152 108.374 63.6985 102.895 68.3185C100.524 70.3139 99.2081 71.4038 98.9477 71.5881C97.6873 72.4706 96.1608 73.2276 94.3681 73.8589C92.8335 74.3981 91.3427 74.344 89.8956 73.6965C88.1882 72.9326 86.1593 71.8197 84.286 71.3427C81.2099 70.5581 77.8504 70.6376 75.1441 70.5581C73.5196 70.5098 72.2028 70.5881 71.1935 70.7932C68.5529 71.3289 65.1968 72.7667 63.2786 74.7921C63.138 74.8244 63.0965 74.7322 63.1541 74.5156C63.1723 74.4433 63.2093 74.3776 63.2613 74.3255C63.7106 73.8439 64.1668 73.3727 64.63 72.9119C65.1024 72.4395 66.1634 71.8612 67.8133 71.1768C70.2672 70.1929 72.8007 69.7897 75.4137 69.9671C79.3608 70.2344 81.5797 70.3842 82.0705 70.4164C82.5245 70.4464 83.7238 70.7056 85.6686 71.1941C85.7949 71.2262 85.9178 71.2726 86.0349 71.3324C87.5396 72.1043 89.1145 72.8301 90.7597 73.5098C91.6618 73.8831 92.6296 73.8866 93.542 73.655C95.9591 73.0444 98.1597 71.9026 100.144 70.2298C102.655 68.1122 104.651 66.3887 106.13 65.0592C107.761 63.5891 111.261 60.6305 116.63 56.1833C116.644 56.1718 116.993 55.8458 117.677 55.2052C118.205 54.7144 118.743 54.4022 119.292 54.2686Z" fill="#0E458F"/>
<path d="M139.926 65.3807L154.691 76.3268C157.584 78.5838 160.753 80.6818 162.426 84.0448C163.051 85.478 163.229 86.887 162.962 88.2718C160.96 87.2303 159.486 86.3801 158.541 85.7211C156.851 84.539 153.938 82.0401 151.608 80.6196C148.705 78.8499 145.563 77.5573 142.594 76.2473C139.085 74.692 135.641 72.7599 132.263 70.4511C132.219 70.4218 132.181 70.3834 132.153 70.3387C132.125 70.294 132.107 70.2439 132.101 70.1919L132.059 69.8462C131.972 67.6895 131.972 65.5339 132.059 63.3795C132.101 62.3702 131.958 61.4267 131.631 60.5488C131.492 60.1893 131.478 59.8575 131.589 59.5533C131.597 59.5334 131.608 59.5153 131.624 59.5006C131.639 59.4859 131.658 59.475 131.678 59.4686C131.698 59.4622 131.719 59.4607 131.74 59.464C131.76 59.4673 131.78 59.4754 131.796 59.4877L139.926 65.3807Z" fill="#0E95BA"/>
<path d="M122.489 77.5365C122.355 77.4743 122.19 77.5066 121.994 77.6333C123.401 75.4074 123.882 72.6804 123.909 70.1193C123.918 69.1676 123.929 66.0823 123.94 60.8633C123.941 60.8306 123.933 60.7984 123.918 60.7696C123.903 60.7407 123.88 60.7162 123.853 60.6982C123.825 60.6803 123.793 60.6696 123.76 60.667C123.727 60.6644 123.694 60.6701 123.664 60.6835L123.173 60.9117C123.134 60.9276 123.098 60.951 123.066 60.9808C122.483 61.5131 120.557 62.9636 117.287 65.3323C112.282 68.9568 107.941 72.0272 104.263 74.5434C104.146 74.5434 104.061 74.586 104.008 74.6712C103.927 74.8026 103.868 74.8798 103.831 74.9028C102.767 75.6171 100.921 76.9259 98.2945 78.8292C97.2783 79.5642 96.5974 80.358 96.2518 81.2106C96.238 81.2473 96.2299 81.2857 96.2276 81.3246L96.1757 85.0644C96.1757 85.0919 96.1723 85.1198 96.1654 85.1473L95.8232 86.3881C95.8149 86.4177 95.8128 86.4487 95.8169 86.4791C95.8211 86.5095 95.8315 86.5387 95.8474 86.5647C95.8634 86.5907 95.8845 86.613 95.9095 86.6303C95.9345 86.6475 95.9628 86.6592 95.9925 86.6646C99.7565 87.4043 103.742 88.4377 106.721 91.303C106.481 91.8399 106.227 92.3917 105.957 92.9586C105.079 94.7904 104.782 96.2524 104.765 98.3988C104.747 100.898 104.83 102.19 104.288 104.347L103.047 107.441C103.026 107.493 102.992 107.539 102.95 107.575C102.907 107.611 102.856 107.636 102.801 107.648C97.1262 108.878 91.6376 107.109 86.384 104.862C86.1265 104.753 85.8945 104.59 85.7031 104.385C83.0245 101.513 81.2894 98.6857 80.8677 94.4932C80.582 92.7581 80.5809 91.2085 80.8643 89.8444C81.1984 88.2384 81.9403 86.4215 83.0901 84.3938C83.1022 84.3721 83.1087 84.3477 83.1092 84.3229C83.1097 84.298 83.104 84.2734 83.0928 84.2512C83.0815 84.229 83.065 84.21 83.0446 84.1957C83.0243 84.1814 83.0008 84.1723 82.9761 84.1692L78.6557 83.6957C78.5418 83.682 78.4311 83.6443 78.3308 83.5851C78.2709 83.5459 77.7329 83.4111 76.7167 83.1807C76.2121 83.0655 75.636 82.8765 74.9886 82.6138C72.6913 81.6852 70.6474 80.3476 68.8571 78.6011L66.8282 76.9559C66.6332 76.7975 66.4194 76.6651 66.1922 76.5618L63.6553 75.4213C63.6336 75.4115 63.6141 75.3972 63.598 75.3793C63.582 75.3615 63.5697 75.3405 63.562 75.3176C63.5044 75.147 63.5355 75.0411 63.6553 74.9996C66.766 75.7012 68.7534 77.9997 70.9896 79.8039C72.1394 80.7325 73.848 81.6449 76.1153 82.5413C78.5439 83.4998 81.1304 83.842 83.8747 83.5678C83.9089 83.5636 83.9435 83.5697 83.9741 83.5853C84.0048 83.6009 84.03 83.6253 84.0468 83.6554C84.0635 83.6854 84.0708 83.7198 84.0679 83.7541C84.0649 83.7883 84.0518 83.821 84.0303 83.8477C82.3781 85.933 81.4645 88.3294 81.2894 91.0369C81.044 94.8215 81.7076 98.7306 83.9819 101.821C84.6386 102.715 85.4116 103.639 86.3011 104.593C86.3251 104.619 86.3571 104.637 86.3923 104.644C86.4275 104.651 86.464 104.646 86.4963 104.631C86.5286 104.615 86.555 104.59 86.5715 104.558C86.588 104.526 86.5938 104.49 86.5879 104.454C86.5165 103.975 86.5338 103.604 86.6398 103.341C86.8287 102.945 86.9382 102.518 86.9681 102.059C87.005 101.506 87.0845 101.079 87.2066 100.777C87.937 98.9933 88.7251 97.1672 89.5707 95.2985C90.1237 93.916 90.777 92.8249 91.5305 92.0254C93.5697 89.8583 95.1596 87.7119 95.6262 84.978C95.8232 83.8166 95.4879 81.8293 96.276 80.2739C96.5271 79.7831 97.0951 79.2267 97.9799 78.6045C104.743 73.8555 111.436 69.1135 118.061 64.3783C120.015 62.982 122.042 61.4831 124.141 59.8817C124.148 59.8748 124.158 59.8704 124.168 59.8689C124.178 59.8675 124.189 59.8691 124.198 59.8735C124.207 59.878 124.215 59.885 124.22 59.8939C124.225 59.9027 124.228 59.9129 124.227 59.9232C124.262 64.52 124.263 68.4072 124.231 71.5847C124.208 73.6724 123.627 75.6563 122.489 77.5365Z" fill="#1A3CA4"/>
<path d="M132.059 69.8463C131.988 72.245 132.057 73.7738 132.267 74.4328C132.718 75.8545 133.316 77.1161 134.06 78.2175C134.556 78.9479 135.674 80.0032 137.416 81.3835C138.35 82.1231 139.214 82.5621 139.988 83.2326C140.483 83.6566 141.137 84.1335 141.948 84.6635C143.519 85.6889 144.835 86.6175 145.895 87.4493C147.364 88.5968 148.103 89.6337 149.669 91.5174C150.931 93.0381 152.655 93.1695 154.819 93.5324C157.964 94.0554 161.036 95.0175 164.033 96.4184L164.535 97.2168C164.539 97.2252 164.541 97.2347 164.54 97.2442C164.539 97.2536 164.534 97.2624 164.528 97.2694C164.521 97.2763 164.513 97.2809 164.504 97.2827C164.494 97.2844 164.484 97.2831 164.476 97.279C161.492 95.6661 158.402 94.582 155.206 94.0266C153.913 93.8008 152.175 93.5946 149.99 93.408C148.539 90.6844 146.621 88.4942 144.236 86.8375C140.425 84.1877 137.824 82.3236 136.435 81.2452C134.032 79.3765 132.511 77.0688 131.873 74.3222C131.654 73.3867 131.54 71.094 131.53 67.4442C131.523 65.1745 131.557 62.8761 131.631 60.5488C131.958 61.4267 132.101 62.3703 132.059 63.3795C131.972 65.534 131.972 67.6896 132.059 69.8463Z" fill="#0A5992"/>
<path d="M121.994 77.6333C121.402 78.5043 120.892 79.1229 120.463 79.4893C117.836 81.7405 115.07 83.8074 112.165 85.6899C109.92 87.1462 108.106 89.0172 106.721 91.303C103.742 88.4377 99.7565 87.4043 95.9925 86.6646C95.9628 86.6592 95.9345 86.6474 95.9095 86.6302C95.8845 86.613 95.8634 86.5907 95.8474 86.5647C95.8315 86.5387 95.8211 86.5095 95.8169 86.4791C95.8128 86.4487 95.8149 86.4177 95.8232 86.3881L96.1654 85.1473C96.1722 85.1198 96.1757 85.0919 96.1757 85.0643L96.2276 81.3246C96.2299 81.2857 96.238 81.2473 96.2518 81.2106C96.5974 80.358 97.2783 79.5642 98.2944 78.8292C100.921 76.9259 102.767 75.6171 103.831 74.9028C103.868 74.8797 103.927 74.8026 104.008 74.6712C104.061 74.586 104.146 74.5433 104.263 74.5433C107.941 72.0271 112.282 68.9568 117.287 65.3323C120.557 62.9635 122.483 61.513 123.066 60.9808C123.098 60.951 123.134 60.9276 123.173 60.9117L123.664 60.6835C123.694 60.6701 123.727 60.6644 123.76 60.667C123.793 60.6696 123.825 60.6803 123.853 60.6982C123.88 60.7162 123.903 60.7407 123.918 60.7695C123.933 60.7984 123.941 60.8306 123.94 60.8633C123.929 66.0823 123.918 69.1676 123.909 70.1193C123.882 72.6804 123.401 75.4074 121.994 77.6333Z" fill="#0B71B6"/>
<path d="M159.696 73.6793C157.71 74.1977 156.041 75.0802 154.691 76.3268L139.926 65.3807C141.527 63.9959 142.919 62.4348 144.101 60.6974C148.251 64.232 152.671 68.2552 157.363 72.7668C157.937 73.3152 158.714 73.6194 159.696 73.6793Z" fill="#89D7E8"/>
<path d="M43.3841 61.6547L49.9407 72.549L58.1218 86.1081L67.6681 102.049L78.7352 120.429L91.6722 141.955C91.6169 142.174 91.5374 142.339 91.4337 142.449L42.8483 61.6409C42.9728 61.5533 43.1513 61.5579 43.3841 61.6547Z" fill="#1B0C42"/>
<path d="M67.8132 71.1768C66.1634 71.8611 65.1024 72.4395 64.63 72.9119C64.1668 73.3727 63.7106 73.8439 63.2613 74.3255C63.2093 74.3776 63.1723 74.4433 63.1541 74.5156C63.0965 74.7322 63.138 74.8243 63.2786 74.7921C63.35 74.9488 63.4756 75.0179 63.6553 74.9995C63.5355 75.0409 63.5044 75.1469 63.562 75.3174C63.5697 75.3404 63.582 75.3614 63.598 75.3792C63.6141 75.3971 63.6336 75.4113 63.6553 75.4211L66.1922 76.5617C66.4194 76.665 66.6332 76.7974 66.8282 76.9557L68.8571 78.6009C65.9157 81.957 61.9479 83.9755 58.1218 86.108L49.9407 72.5489C53.5813 71.6941 56.3003 70.8104 58.0976 69.8979C61.0147 68.4152 63.8627 66.846 66.8282 65.4635C69.1578 66.9082 68.7084 69.02 67.8132 71.1768Z" fill="#2D7BE1"/>
<path d="M210.656 65.3323L179.507 117.253L158.704 152.117L128.209 202.804C128.188 202.838 128.159 202.866 128.124 202.886C128.089 202.906 128.05 202.916 128.01 202.916C127.97 202.916 127.931 202.906 127.896 202.886C127.861 202.866 127.832 202.838 127.811 202.804L91.4337 142.449C91.5374 142.339 91.6169 142.174 91.6722 141.955L94.3232 146.172L103.272 160.875L111.522 174.7L116.537 182.968L121.179 190.675L127.842 202.074C127.866 202.114 127.899 202.146 127.938 202.169C127.978 202.192 128.023 202.204 128.069 202.204C128.115 202.204 128.16 202.192 128.199 202.169C128.239 202.146 128.272 202.114 128.295 202.074L137.181 186.787L142.235 178.381L149.254 166.72L154.155 158.691L164.116 142.415L176.784 121.29L180.624 114.882L187.792 103.041L194.314 92.1636L202.841 78.0861L208.675 68.3289C209.233 67.1837 209.893 66.1848 210.656 65.3323Z" fill="#72153D"/>
<path d="M162.962 88.2718C162.266 91.0184 162.623 93.7339 164.033 96.4183C161.036 95.0173 157.964 94.0553 154.819 93.5323C152.655 93.1694 150.931 93.038 149.669 91.5173C148.103 89.6336 147.364 88.5967 145.895 87.4492C144.835 86.6174 143.519 85.6888 141.948 84.6634C141.137 84.1334 140.483 83.6565 139.988 83.2325C139.214 82.562 138.35 82.123 137.416 81.3834C135.674 80.0031 134.556 78.9478 134.06 78.2174C133.316 77.116 132.718 75.8544 132.267 74.4327C132.057 73.7737 131.988 72.2449 132.059 69.8462L132.101 70.1918C132.107 70.2438 132.125 70.2939 132.153 70.3387C132.181 70.3834 132.219 70.4217 132.263 70.451C135.641 72.7599 139.085 74.6919 142.594 76.2473C145.563 77.5572 148.705 78.8499 151.608 80.6195C153.938 82.0401 156.851 84.539 158.541 85.721C159.486 86.38 160.96 87.2303 162.962 88.2718Z" fill="#0B83AC"/>
<path d="M173.158 73.0432C174.937 73.5018 176.717 73.9672 178.498 74.4396C179.443 74.6884 181.332 75.0375 184.166 75.4868C185.442 75.6873 186.489 75.5836 187.785 75.4834C187.822 75.4804 187.859 75.4853 187.894 75.4978C187.929 75.5104 187.961 75.5303 187.987 75.5562C188.014 75.582 188.035 75.6133 188.048 75.6479C188.061 75.6824 188.067 75.7194 188.065 75.7564C187.975 77.3602 186.181 79.5515 185.155 80.7093C183.881 81.8868 182.507 82.8845 181.035 83.7025C178.853 84.9145 176.462 85.532 173.863 85.5551C172.423 85.7671 171.347 85.721 170.635 85.4168C169.877 85.0942 169.081 84.7935 168.247 84.5147L162.426 84.0447C160.753 80.6817 157.584 78.5837 154.691 76.3267C156.041 75.0801 157.71 74.1976 159.696 73.6792C162.813 73.4073 165.97 73.1354 169.166 72.8635C170.39 72.7598 171.72 72.8197 173.158 73.0432ZM164.341 79.465C164.719 79.7162 165.113 79.9155 165.523 80.063C170.096 81.6978 176.891 82.1368 181.225 79.6793C181.244 79.6683 181.258 79.6506 181.266 79.6296C181.273 79.6086 181.272 79.5859 181.264 79.5657C181.256 79.5455 181.241 79.5294 181.222 79.5203C181.202 79.5113 181.18 79.5101 181.159 79.5169C178.878 80.1183 175.999 79.3026 173.659 78.9362C172.399 78.7381 171.504 78.6736 170.974 78.7427C168.607 79.0561 166.406 79.2657 164.369 79.3717C164.358 79.3724 164.348 79.3763 164.34 79.3829C164.331 79.3896 164.325 79.3986 164.322 79.4087C164.319 79.4189 164.319 79.4298 164.323 79.4398C164.326 79.4499 164.333 79.4587 164.341 79.465Z" fill="#4CE4E6"/>
<path d="M88.1018 78.4835C88.1246 78.4829 88.1468 78.4906 88.1643 78.5052C88.1818 78.5198 88.1933 78.5403 88.1967 78.5629C88.2001 78.5854 88.1951 78.6084 88.1828 78.6275C88.1704 78.6467 88.1514 78.6606 88.1295 78.6667C85.1052 79.8142 82.0567 79.8004 78.7387 79.0434C77.4276 78.7439 75.9586 78.1413 74.3319 77.2358C72.6867 76.3187 71.2938 75.5272 70.1532 74.8613C70.1378 74.8512 70.1262 74.8363 70.1202 74.8189C70.1142 74.8015 70.1142 74.7826 70.1202 74.7652C70.1261 74.7478 70.1377 74.7328 70.153 74.7227C70.1684 74.7125 70.1867 74.7078 70.205 74.7092C72.9286 75.1009 75.6914 75.73 78.4933 76.5964C80.9472 77.3545 82.5268 77.798 83.2319 77.9271C84.6144 78.1805 86.2377 78.366 88.1018 78.4835Z" fill="#0E458F"/>
<path d="M122.489 77.5366C121.13 79.5171 120.014 80.3708 117.826 82.1162C117.268 82.5586 115.251 83.9953 111.774 86.4262C110.796 87.1106 109.23 88.5242 108.38 89.606C105.394 93.4149 104.872 97.5624 105.449 102.235L104.685 105.671C104.176 106.897 103.757 107.753 103.427 108.239C102.904 109.016 102.146 109.616 101.153 110.04C97.5375 111.588 94.5202 113.437 92.9441 117.284C91.7966 120.088 90.906 122.198 90.2724 123.613C90.1571 123.871 90.0097 124.385 89.8299 125.154C89.6756 124.726 89.6122 124.296 89.6398 123.865L93.7217 114.122C93.8556 113.797 94.0669 113.511 94.337 113.289C94.6549 113.021 94.966 112.71 95.2702 112.355C95.6918 111.862 96.1838 111.487 96.746 111.229C98.8267 110.278 101.346 109.463 103.113 107.624C103.188 107.546 103.244 107.454 103.278 107.354L104.288 104.347C104.83 102.19 104.747 100.898 104.765 98.3989C104.782 96.2525 105.079 94.7905 105.957 92.9586C106.227 92.3918 106.481 91.8399 106.721 91.3031C108.106 89.0173 109.92 87.1463 112.165 85.69C115.07 83.8075 117.836 81.7406 120.463 79.4894C120.892 79.123 121.402 78.5044 121.994 77.6334C122.19 77.5066 122.355 77.4744 122.489 77.5366Z" fill="#1B0C42"/>
<path d="M80.8677 94.4932C80.7479 95.5992 80.5382 96.6776 80.2387 97.7283C79.4334 100.538 76.8688 101.043 74.3699 101.375C72.1878 101.663 69.9539 101.887 67.6681 102.049L58.1218 86.1082C61.9479 83.9756 65.9157 81.9572 68.8571 78.6011C70.6474 80.3477 72.6913 81.6853 74.9886 82.6139C75.636 82.8765 76.2121 83.0655 76.7167 83.1807C77.7329 83.4111 78.2709 83.5459 78.3308 83.5851C78.4311 83.6443 78.5418 83.682 78.6557 83.6957L82.9761 84.1692C83.0008 84.1723 83.0243 84.1814 83.0446 84.1957C83.065 84.21 83.0815 84.2291 83.0928 84.2512C83.104 84.2734 83.1097 84.298 83.1092 84.3229C83.1088 84.3477 83.1022 84.3721 83.0901 84.3939C81.9403 86.4216 81.1984 88.2384 80.8643 89.8445C80.5809 91.2085 80.582 92.7581 80.8677 94.4932Z" fill="#2D4FCC"/>
<path d="M164.341 79.4652C164.333 79.4589 164.326 79.4501 164.323 79.44C164.319 79.43 164.319 79.4191 164.322 79.4089C164.325 79.3988 164.331 79.3898 164.34 79.3831C164.348 79.3765 164.358 79.3726 164.369 79.3719C166.406 79.2659 168.607 79.0563 170.974 78.7429C171.504 78.6738 172.399 78.7383 173.659 78.9364C175.999 79.3028 178.878 80.1185 181.159 79.5171C181.18 79.5103 181.202 79.5115 181.222 79.5206C181.241 79.5296 181.256 79.5457 181.264 79.5659C181.272 79.5861 181.273 79.6088 181.266 79.6298C181.258 79.6508 181.244 79.6685 181.225 79.6795C176.891 82.137 170.096 81.698 165.523 80.0632C165.113 79.9157 164.719 79.7164 164.341 79.4652Z" fill="#1D9F9A"/>
<path d="M131.627 84.9883C130.639 87.5345 129.871 90.1256 129.325 92.7616C128.717 95.6925 128.637 98.9898 130.946 101.254C132.386 102.664 134.958 104.75 138.661 107.513L139.843 108.54C139.903 108.591 139.942 108.663 139.954 108.741C139.965 108.82 139.948 108.901 139.905 108.968L137.492 112.718C137.467 112.758 137.434 112.791 137.395 112.817C137.356 112.843 137.312 112.861 137.266 112.869C137.22 112.877 137.173 112.876 137.127 112.865C137.082 112.854 137.039 112.833 137.002 112.805L127.791 105.705C127.774 105.692 127.753 105.683 127.731 105.679C127.71 105.676 127.687 105.679 127.667 105.688C127.647 105.696 127.629 105.71 127.616 105.728C127.603 105.746 127.596 105.767 127.594 105.788L125.624 125.296L122.032 119.627L122.022 117.115C122.096 116.951 122.138 116.793 122.15 116.641C122.371 116.68 122.496 116.595 122.523 116.385C122.857 113.8 123.085 110.734 123.208 107.188C123.258 105.737 123.421 103.408 123.695 100.203C123.878 98.0255 123.909 95.219 124.072 93.6222C124.164 92.7305 124.051 92.1221 123.733 91.7973L124.058 85.1577L124.065 84.7256C125.429 83.5851 126.38 82.6058 126.92 81.7878C127.228 81.3154 127.497 80.964 127.725 80.7336C127.74 80.7177 127.759 80.7051 127.779 80.6968C127.8 80.6885 127.822 80.6845 127.844 80.6851C127.866 80.6858 127.888 80.691 127.908 80.7006C127.928 80.7101 127.946 80.7237 127.96 80.7405L131.627 84.9883Z" fill="#89BBE3"/>
<path d="M185.155 80.7094C187.839 84.8247 190.892 88.6427 194.314 92.1636L187.792 103.041C185.755 100.884 184.27 99.1545 183.337 97.8526C179.587 92.6232 177.468 89.7061 173.863 85.5551C176.462 85.5321 178.853 84.9145 181.035 83.7025C182.507 82.8845 183.881 81.8868 185.155 80.7094Z" fill="#16BBA2"/>
<path d="M84.4139 96.1695C84.1051 93.674 84.4807 91.015 85.5407 88.1923C86.6582 85.2222 88.6398 83.0044 91.4855 81.5389C91.5125 81.5248 91.5432 81.5197 91.5733 81.5244C91.6033 81.5291 91.6311 81.5434 91.6524 81.5651C91.6737 81.5868 91.6875 81.6148 91.6917 81.645C91.6958 81.6751 91.6902 81.7058 91.6756 81.7325C91.2574 82.5067 90.929 83.2636 90.4763 83.8685C89.6721 84.9514 88.8391 86.0839 87.9774 87.266C86.505 89.2845 85.4946 91.5714 84.9462 94.1268C84.9439 94.1314 84.7895 94.8134 84.483 96.1729C84.4826 96.1821 84.4785 96.1907 84.4717 96.1969C84.4649 96.203 84.4559 96.2062 84.4467 96.2058C84.4376 96.2053 84.429 96.2012 84.4228 96.1944C84.4166 96.1876 84.4134 96.1786 84.4139 96.1695Z" fill="#0E458F"/>
<path d="M168.247 84.5149C170.164 86.2292 171.584 87.6924 172.508 88.9044C175.28 92.5404 175.819 97.1511 175.975 102.104C176.072 105.184 176.49 108.498 176.801 111.692C173.946 111.001 172.104 109.67 170.13 107.603C168.689 106.093 166.951 105.135 164.956 104.167C164.675 104.033 164.373 103.951 164.065 103.925C162.115 103.762 160.791 103.639 160.093 103.556C157.284 103.231 154.697 102.14 152.33 100.283C151.777 99.9738 151.292 99.4703 150.875 98.7721L149.99 93.4079C152.175 93.5946 153.913 93.8008 155.206 94.0266C158.402 94.5819 161.492 95.6661 164.476 97.279C164.484 97.2831 164.494 97.2844 164.503 97.2827C164.513 97.2809 164.521 97.2763 164.528 97.2693C164.534 97.2624 164.539 97.2536 164.54 97.2442C164.541 97.2347 164.539 97.2251 164.535 97.2168L164.033 96.4184C162.623 93.734 162.266 91.0185 162.962 88.2719C163.229 86.887 163.051 85.478 162.426 84.0448L168.247 84.5149ZM167.324 88.9977C167.552 90.0691 167.673 90.6337 167.687 90.6913C167.737 90.9171 168.493 93.5865 169.954 98.6996C170.113 99.2595 171.033 101.442 172.712 105.246C172.734 105.293 172.772 105.33 172.82 105.35C172.868 105.369 172.921 105.369 172.968 105.349L172.978 105.346C173.021 105.329 173.056 105.296 173.076 105.255C173.096 105.213 173.099 105.165 173.086 105.121C172.595 103.605 172.23 102.083 171.99 100.556C171.568 97.8424 171.306 95.4644 170.397 93.4356C169.675 91.8226 168.695 90.3215 167.455 88.932C167.444 88.9195 167.429 88.911 167.413 88.9079C167.396 88.9047 167.379 88.9071 167.364 88.9145C167.349 88.922 167.337 88.9342 167.33 88.9492C167.323 88.9643 167.321 88.9813 167.324 88.9977ZM162.088 99.6086C162.115 99.609 162.142 99.5995 162.164 99.5819C162.185 99.5642 162.2 99.5395 162.205 99.5121C162.21 99.4847 162.205 99.4564 162.191 99.4323C162.177 99.4082 162.155 99.3898 162.129 99.3805L152.769 96.7848C152.741 96.7765 152.711 96.7772 152.683 96.7868C152.655 96.7965 152.631 96.8145 152.614 96.8384C152.597 96.8623 152.588 96.891 152.588 96.9204C152.588 96.9498 152.597 96.9785 152.614 97.0025C154.674 99.9646 159.167 99.3424 162.088 99.6086Z" fill="#89D7E8"/>
<path d="M173.863 85.5552C177.468 89.7063 179.587 92.6234 183.337 97.8528C184.27 99.1547 185.755 100.884 187.792 103.041L180.624 114.882L176.801 111.692C176.49 108.498 176.072 105.184 175.975 102.104C175.819 97.1512 175.28 92.5404 172.508 88.9044C171.584 87.6924 170.164 86.2292 168.247 84.5149C169.081 84.7937 169.877 85.0944 170.635 85.417C171.347 85.7211 172.423 85.7672 173.863 85.5552Z" fill="#1D9F9A"/>
<path d="M124.065 84.7257L124.058 85.1577C122.82 86.1163 121.616 87.0449 120.446 87.9435C119.474 88.6901 118.379 89.4643 117.162 90.2662C114.626 91.9425 111.867 94.6246 111.594 97.6696C111.449 99.3263 111.803 101.341 112.655 103.715C112.78 104.063 113.415 105.08 114.56 106.767C115.226 107.748 115.881 108.749 116.526 109.77C118.649 113.127 120.095 115.449 120.864 116.735C120.995 116.956 121.174 117.108 121.4 117.191C121.55 117.246 121.688 117.176 121.815 116.98C121.831 116.956 121.856 116.94 121.883 116.933C121.911 116.927 121.939 116.931 121.963 116.945C122.032 116.982 122.052 117.039 122.022 117.115L122.032 119.628C118.82 114.408 115.598 109.267 112.365 104.202C111.764 103.257 111.352 101.83 111.131 99.9196C110.741 96.5117 112.089 94.1303 114.646 91.8077C116.326 90.2835 118.237 89.2673 120 87.947C121.38 86.9124 122.735 85.8386 124.065 84.7257Z" fill="#1B0C42"/>
<path d="M131.627 84.9883C133.801 86.668 135.699 88.1232 138.184 89.8548C140.041 91.1474 141.602 92.3548 142.867 93.477C143.669 94.189 144.154 94.9978 144.322 95.9033C144.474 97.9656 144.357 99.832 143.97 101.503C143.915 101.739 143.825 101.965 143.703 102.173L140.385 107.924C140.359 107.97 140.322 108.008 140.278 108.036C140.233 108.064 140.182 108.08 140.129 108.083C140.076 108.086 140.024 108.076 139.975 108.054C139.927 108.031 139.885 107.998 139.853 107.955C139.521 107.52 139.124 107.372 138.661 107.513C134.958 104.75 132.386 102.664 130.946 101.254C128.637 98.9898 128.717 95.6925 129.325 92.7615C129.871 90.1255 130.639 87.5344 131.627 84.9883Z" fill="#0A5992"/>
<path d="M124.058 85.1576L123.733 91.7972L122.15 116.641C122.138 116.793 122.096 116.951 122.022 117.115C122.052 117.039 122.032 116.982 121.963 116.945C121.939 116.931 121.911 116.927 121.883 116.933C121.855 116.94 121.831 116.956 121.815 116.98C121.688 117.176 121.55 117.246 121.4 117.191C121.174 117.108 120.995 116.956 120.864 116.734C120.095 115.449 118.649 113.127 116.526 109.77C115.881 108.749 115.226 107.748 114.56 106.766C113.415 105.08 112.78 104.062 112.655 103.715C111.803 101.341 111.449 99.3262 111.594 97.6694C111.867 94.6244 114.625 91.9423 117.162 90.266C118.379 89.4642 119.474 88.6899 120.446 87.9434C121.616 87.0447 122.82 86.1161 124.058 85.1576Z" fill="#0E458F"/>
<path d="M167.324 88.9976C167.321 88.9812 167.323 88.9641 167.33 88.9491C167.337 88.9341 167.349 88.9219 167.364 88.9144C167.379 88.9069 167.396 88.9046 167.413 88.9077C167.429 88.9109 167.444 88.9194 167.455 88.9319C168.695 90.3213 169.675 91.8225 170.397 93.4355C171.306 95.4643 171.568 97.8423 171.99 100.555C172.23 102.083 172.595 103.605 173.086 105.121C173.099 105.165 173.096 105.213 173.076 105.255C173.056 105.296 173.021 105.329 172.978 105.346L172.968 105.349C172.921 105.369 172.868 105.369 172.82 105.35C172.772 105.33 172.734 105.293 172.712 105.246C171.032 101.441 170.113 99.2593 169.954 98.6994C168.493 93.5864 167.737 90.917 167.687 90.6911C167.673 90.6335 167.552 90.069 167.324 88.9976Z" fill="#296980"/>
<path d="M122.15 116.641L123.733 91.7974C124.051 92.1223 124.164 92.7306 124.072 93.6223C123.909 95.2191 123.878 98.0256 123.695 100.203C123.421 103.408 123.258 105.737 123.208 107.188C123.085 110.734 122.857 113.8 122.523 116.386C122.496 116.595 122.371 116.68 122.15 116.641Z" fill="#CDE0EE"/>
<path d="M104.288 104.347L103.278 107.354C103.244 107.454 103.188 107.546 103.113 107.624C101.346 109.462 98.8267 110.278 96.746 111.229C96.1838 111.487 95.6919 111.862 95.2702 112.355C94.966 112.71 94.655 113.021 94.337 113.289C94.0669 113.511 93.8556 113.797 93.7218 114.122L89.6399 123.865C86.0683 122.551 82.4334 121.406 78.7352 120.429L67.6681 102.049C69.9539 101.887 72.1878 101.663 74.3699 101.375C76.8688 101.043 79.4334 100.538 80.2387 97.7283C80.5382 96.6776 80.7479 95.5992 80.8677 94.4932C81.2894 98.6857 83.0245 101.513 85.7031 104.385C85.8945 104.59 86.1265 104.753 86.384 104.862C91.6376 107.109 97.1262 108.878 102.801 107.648C102.856 107.636 102.907 107.611 102.95 107.575C102.992 107.539 103.026 107.493 103.047 107.441L104.288 104.347Z" fill="#3F29A5"/>
<path d="M89.5707 95.2986C88.7251 97.1673 87.937 98.9934 87.2066 100.777C87.0845 101.079 87.005 101.506 86.9681 102.059C86.9382 102.518 86.8287 102.945 86.6398 103.341C86.5061 102.099 86.6951 100.832 87.2066 99.5395C87.8656 97.8804 88.6536 96.4668 89.5707 95.2986Z" fill="#1B0C42"/>
<path d="M144.322 95.9034C145.039 97.7307 145.101 99.5556 144.509 101.378C144.191 102.348 143.678 103.415 142.971 104.579C141.768 106.56 140.51 108.506 139.196 110.416C138.395 111.578 137.727 112.791 137.022 114.004C136.988 113.912 136.958 113.862 136.933 113.856C136.899 113.846 136.862 113.847 136.83 113.859C136.797 113.87 136.768 113.892 136.749 113.921C135.201 116.295 133.806 118.77 132.564 121.349L128.814 127.888L128.198 129.094C128.186 129.117 128.17 129.137 128.15 129.154C128.13 129.17 128.107 129.182 128.082 129.189C128.058 129.196 128.032 129.198 128.007 129.195C127.982 129.192 127.957 129.183 127.936 129.17C127.795 129.087 127.708 128.926 127.673 128.687C126.698 127.472 126.015 126.342 125.623 125.296L127.594 105.788C127.596 105.767 127.603 105.746 127.616 105.728C127.629 105.71 127.647 105.696 127.667 105.688C127.687 105.679 127.71 105.676 127.731 105.679C127.753 105.683 127.774 105.692 127.791 105.706L137.002 112.805C137.039 112.833 137.082 112.854 137.127 112.865C137.173 112.876 137.22 112.877 137.266 112.869C137.312 112.861 137.356 112.843 137.395 112.818C137.434 112.792 137.467 112.758 137.492 112.718L139.905 108.968C139.948 108.901 139.965 108.82 139.954 108.742C139.942 108.663 139.903 108.591 139.843 108.54L138.661 107.513C139.124 107.373 139.521 107.52 139.853 107.956C139.885 107.998 139.927 108.032 139.975 108.054C140.024 108.076 140.076 108.086 140.129 108.083C140.182 108.08 140.233 108.064 140.278 108.036C140.322 108.008 140.359 107.97 140.385 107.924L143.703 102.173C143.825 101.965 143.915 101.739 143.97 101.503C144.357 99.8321 144.474 97.9657 144.322 95.9034Z" fill="#0E458F"/>
<path d="M162.088 99.6084C159.167 99.3423 154.674 99.9644 152.614 97.0024C152.597 96.9784 152.588 96.9497 152.588 96.9203C152.588 96.8908 152.597 96.8622 152.614 96.8383C152.631 96.8143 152.655 96.7963 152.683 96.7867C152.711 96.7771 152.741 96.7764 152.769 96.7846L162.129 99.3803C162.155 99.3897 162.177 99.4081 162.191 99.4322C162.205 99.4563 162.21 99.4846 162.205 99.512C162.2 99.5393 162.185 99.5641 162.164 99.5817C162.142 99.5994 162.115 99.6089 162.088 99.6084Z" fill="#296980"/>
<path d="M98.3809 164.791C85.528 143.841 72.8848 122.776 60.4513 101.596C61.8362 100.471 63.3581 100.13 65.0171 100.573C65.1281 100.602 65.2244 100.672 65.2867 100.77C67.349 103.947 68.9965 106.578 70.2292 108.661C71.7707 111.263 73.1982 113.382 74.3872 115.456C75.9379 118.161 78.3792 122.186 81.7111 127.532C83.9197 131.071 85.8621 134.427 88.3299 138.437C89.5534 140.425 91.0178 142.86 92.7229 145.74C95.246 149.996 96.6976 152.439 97.0778 153.071C97.1493 153.191 97.2218 153.309 97.2956 153.427C99.4316 156.874 101.243 159.894 102.729 162.486C102.74 162.505 102.748 162.527 102.75 162.55C102.753 162.572 102.751 162.595 102.744 162.616C102.738 162.638 102.727 162.658 102.713 162.676C102.698 162.693 102.68 162.707 102.66 162.717L98.3809 164.791Z" fill="#CFD4E7"/>
<path d="M152.33 100.283C152.275 100.453 152.173 100.524 152.023 100.497C151.976 100.49 151.931 100.468 151.895 100.435C151.722 100.269 151.582 100.183 151.473 100.179C151.407 100.177 151.342 100.201 151.293 100.246C151.244 100.292 151.214 100.354 151.211 100.421C151.038 103.379 149.634 105.633 148.266 108.211C147.516 109.628 146.31 111.211 145.369 112.725C145.342 112.77 145.329 112.822 145.333 112.874C145.337 112.927 145.357 112.977 145.39 113.019C145.763 113.466 145.808 113.663 145.525 113.61C145.223 113.456 144.959 113.26 144.733 113.022C145.987 111.013 147.231 108.991 148.466 106.957C149.418 105.387 150.09 103.713 150.481 101.935C150.689 101.005 150.716 99.8332 150.875 98.7721C151.292 99.4703 151.777 99.9737 152.33 100.283Z" fill="#1B0C42"/>
<path d="M152.33 100.282C154.697 102.14 157.284 103.231 160.093 103.556C160.791 103.639 162.115 103.762 164.065 103.925C164.373 103.951 164.675 104.033 164.956 104.167C166.951 105.135 168.689 106.093 170.13 107.603C172.104 109.67 173.946 111.001 176.801 111.692L180.624 114.882L176.784 121.29C176.201 119.951 175.609 118.624 175.007 117.308C174.44 116.071 173.158 113.859 171.537 114.398C170.602 114.709 169.916 115.377 169.481 116.403C169.075 117.357 168.822 118.356 168.72 119.399C167.702 119.27 166.96 119.089 166.494 118.857C164.967 118.092 163.109 117.206 160.923 116.199C158.305 114.994 155.553 114.43 152.666 114.509C149.437 114.595 147.564 114.993 145.525 113.61C145.808 113.663 145.763 113.466 145.39 113.019C145.357 112.977 145.337 112.927 145.333 112.874C145.329 112.822 145.342 112.77 145.369 112.725C146.309 111.211 147.516 109.628 148.266 108.211C149.634 105.633 151.038 103.379 151.211 100.421C151.214 100.354 151.244 100.292 151.293 100.246C151.342 100.201 151.407 100.177 151.473 100.179C151.582 100.183 151.722 100.269 151.895 100.435C151.931 100.468 151.976 100.49 152.023 100.497C152.173 100.524 152.275 100.453 152.33 100.282Z" fill="#296980"/>
<path d="M108.342 108.671L108.294 109.583C108.289 109.695 108.259 109.805 108.207 109.905C107.615 111.022 107.447 112.103 107.703 113.147C108.09 114.73 108.082 116.256 107.678 117.727C106.588 121.701 106.014 125.765 105.954 129.917L105.829 134.994C105.829 135.025 105.82 135.055 105.805 135.081C105.789 135.107 105.767 135.128 105.74 135.143C105.713 135.158 105.683 135.165 105.653 135.165C105.622 135.164 105.593 135.155 105.567 135.139C103.185 133.722 101.647 131.548 100.351 129.181C99.2472 127.16 98.7173 125.086 98.761 122.959C99.6297 121.851 100.614 121.027 101.713 120.488C101.664 123.118 101.391 125.379 102.404 127.881C102.412 127.902 102.427 127.919 102.446 127.93C102.466 127.941 102.488 127.945 102.51 127.941C102.532 127.937 102.552 127.926 102.566 127.91C102.581 127.893 102.59 127.872 102.591 127.85C102.738 124.599 103.182 121.432 103.921 118.349C103.924 118.335 103.922 118.321 103.916 118.308C103.91 118.296 103.9 118.285 103.888 118.279C103.875 118.272 103.861 118.27 103.847 118.272C103.833 118.274 103.821 118.28 103.811 118.29L103.372 118.753C102.978 118.652 102.594 118.738 102.221 119.012C102.135 119.075 102.07 119.161 102.034 119.258C101.894 119.626 101.685 119.917 101.409 120.129C100.086 121.149 98.4269 122.451 96.4315 124.034C96.358 124.092 96.278 124.14 96.193 124.179L93.3208 125.5C93.2176 125.546 93.1082 125.577 92.9959 125.593C92.0189 125.727 91.2055 126.085 90.5558 126.668C90.5369 126.685 90.5139 126.696 90.489 126.701C90.4642 126.705 90.4385 126.703 90.4146 126.694C90.3906 126.686 90.3693 126.67 90.3528 126.651C90.3363 126.631 90.3252 126.607 90.3207 126.582C90.2424 126.093 90.2942 125.652 90.4763 125.258C90.8979 124.349 90.9774 123.077 91.3473 122.323C91.8887 121.22 92.5754 119.545 93.4072 117.298C93.9441 115.851 94.9015 114.498 96.2794 113.24C98.1977 111.488 101.015 111.087 102.819 109.418C103.925 108.394 104.547 107.146 104.685 105.671L105.449 102.235C106.023 104.51 106.987 106.655 108.342 108.671ZM103.092 111.916C103.094 111.899 103.09 111.881 103.082 111.866C103.073 111.85 103.06 111.837 103.045 111.829C103.029 111.822 103.011 111.819 102.993 111.821C102.976 111.824 102.96 111.832 102.947 111.844C101.714 113.021 100.419 114.08 99.0617 115.02C98.3567 115.506 97.6988 116.173 97.0882 117.021C96.0605 118.443 95.1964 119.843 94.496 121.221C94.4868 121.24 94.484 121.261 94.488 121.282C94.492 121.302 94.5026 121.321 94.5182 121.335C94.5339 121.349 94.5536 121.358 94.5745 121.36C94.5954 121.361 94.6164 121.356 94.6342 121.345C95.6849 120.647 96.5317 120.015 97.3474 119.05C98.6055 117.571 99.7657 116.284 100.828 115.19C101.512 114.485 103.002 112.59 103.092 111.916Z" fill="#BC99D6"/>
<path d="M103.372 118.753L101.713 120.488C100.614 121.027 99.6297 121.851 98.761 122.959L97.852 123.765C97.6528 123.943 97.4278 124.09 97.185 124.2L90.2136 127.401C90.1719 127.42 90.1261 127.428 90.0804 127.425C90.0346 127.422 89.9904 127.407 89.9519 127.382C89.9133 127.358 89.8816 127.323 89.8597 127.283C89.8378 127.243 89.8263 127.198 89.8265 127.152L89.8299 125.154C90.0097 124.385 90.1571 123.871 90.2723 123.613C90.906 122.198 91.7966 120.088 92.9441 117.284C94.5201 113.437 97.5375 111.588 101.153 110.04C102.146 109.616 102.904 109.015 103.427 108.239C103.757 107.753 104.176 106.897 104.685 105.671C104.547 107.146 103.925 108.394 102.819 109.418C101.015 111.087 98.1977 111.488 96.2794 113.24C94.9015 114.498 93.9441 115.851 93.4072 117.298C92.5754 119.545 91.8887 121.22 91.3473 122.323C90.9774 123.077 90.8979 124.349 90.4763 125.258C90.2942 125.652 90.2424 126.093 90.3207 126.582C90.3252 126.607 90.3363 126.631 90.3528 126.651C90.3693 126.67 90.3906 126.686 90.4146 126.694C90.4385 126.703 90.4642 126.705 90.489 126.701C90.5139 126.696 90.5369 126.685 90.5558 126.668C91.2055 126.085 92.0189 125.727 92.9959 125.593C93.1083 125.577 93.2176 125.546 93.3208 125.5L96.193 124.179C96.278 124.14 96.358 124.092 96.4315 124.034C98.4269 122.451 100.086 121.149 101.409 120.129C101.685 119.917 101.894 119.626 102.034 119.258C102.07 119.161 102.135 119.075 102.221 119.012C102.594 118.738 102.978 118.652 103.372 118.753Z" fill="#CFD4E7"/>
<path d="M108.342 108.671C112.192 114.865 116.014 121.058 119.807 127.252C120.588 128.526 121.269 129.741 121.849 130.895L122.354 136.442C121.819 135.452 121.487 134.4 121.358 133.287C121.347 133.186 121.32 133.088 121.279 132.996C120.398 131.044 119.727 130.01 117.591 129.682C115.752 129.398 114.342 129.398 112.41 128.925C111.129 128.609 110.018 128.367 109.078 128.199C107.156 127.853 107.063 128.79 105.954 129.917C106.014 125.765 106.588 121.701 107.678 117.726C108.082 116.256 108.09 114.73 107.703 113.147C107.447 112.103 107.615 111.022 108.207 109.905C108.259 109.805 108.289 109.695 108.294 109.583L108.342 108.671Z" fill="#3F29A5"/>
<path d="M103.092 111.916C103.002 112.59 101.512 114.485 100.828 115.19C99.7657 116.284 98.6055 117.571 97.3474 119.05C96.5317 120.015 95.6849 120.647 94.6342 121.345C94.6164 121.356 94.5955 121.361 94.5746 121.36C94.5536 121.358 94.5339 121.349 94.5183 121.335C94.5027 121.321 94.492 121.302 94.488 121.282C94.484 121.261 94.4868 121.24 94.496 121.221C95.1965 119.843 96.0605 118.443 97.0882 117.021C97.6988 116.173 98.3567 115.506 99.0618 115.02C100.419 114.08 101.714 113.021 102.947 111.844C102.96 111.832 102.976 111.824 102.993 111.821C103.011 111.819 103.029 111.822 103.045 111.829C103.06 111.837 103.073 111.85 103.082 111.866C103.09 111.881 103.094 111.899 103.092 111.916Z" fill="#4F427F"/>
<path d="M176.784 121.29L164.116 142.415C161.073 141.758 158.245 140.671 155.635 139.152C155.794 139.108 155.923 138.99 156.022 138.796C158.218 134.473 158.591 129.985 157.142 125.33C157.134 125.304 157.132 125.277 157.137 125.251C157.142 125.224 157.154 125.199 157.17 125.178C157.187 125.156 157.208 125.139 157.233 125.128C157.257 125.117 157.284 125.111 157.311 125.113L159.302 125.192C159.359 125.194 159.416 125.19 159.471 125.178C161.817 124.687 163.452 124.232 164.376 123.813C165.56 123.276 166.657 122.835 167.666 122.489C167.744 122.464 167.814 122.419 167.87 122.359C167.926 122.299 167.966 122.227 167.987 122.147L168.72 119.399C168.822 118.355 169.075 117.357 169.481 116.403C169.916 115.377 170.602 114.709 171.537 114.398C173.158 113.859 174.44 116.071 175.007 117.308C175.609 118.624 176.201 119.951 176.784 121.29Z" fill="#616775"/>
<path d="M144.733 113.022C144.959 113.26 145.223 113.456 145.525 113.61C147.564 114.993 149.438 114.595 152.666 114.509C155.553 114.43 158.305 114.994 160.923 116.199C163.11 117.206 164.967 118.092 166.494 118.857C166.96 119.089 167.702 119.27 168.72 119.399L167.988 122.147C167.966 122.227 167.926 122.3 167.87 122.359C167.814 122.419 167.744 122.464 167.666 122.489C166.657 122.835 165.56 123.276 164.376 123.813C163.452 124.232 161.817 124.688 159.471 125.178C159.416 125.19 159.359 125.194 159.302 125.192L157.311 125.113C157.284 125.111 157.257 125.117 157.233 125.128C157.208 125.14 157.187 125.157 157.17 125.178C157.154 125.199 157.142 125.224 157.137 125.251C157.132 125.277 157.134 125.305 157.142 125.33C158.591 129.985 158.218 134.473 156.022 138.796C155.923 138.99 155.794 139.108 155.635 139.152L155.538 139.097L155.185 138.195C154.667 136.28 153.872 135.253 152.538 133.276C151.048 131.068 149.234 129.056 147.699 127.176C146.706 125.964 146.121 124.338 145.943 122.299C145.849 121.223 145.466 120.099 144.796 118.926C144.734 118.818 144.657 118.719 144.568 118.632L142.767 116.849C142.822 116.713 142.804 116.569 142.712 116.417L144.733 113.022ZM150.703 118.756L150.471 118.753C150.449 118.751 150.427 118.758 150.409 118.771C150.391 118.784 150.378 118.803 150.373 118.825C150.368 118.847 150.371 118.87 150.381 118.889C150.392 118.909 150.409 118.924 150.429 118.933C152.448 119.932 154.923 120.267 156.606 120.758C159.717 121.67 162.762 121.473 166.114 121.083C166.115 121.082 166.116 121.08 166.117 121.079C166.117 121.078 166.118 121.077 166.118 121.076V120.979C166.118 120.961 166.111 120.943 166.099 120.93C166.087 120.916 166.07 120.908 166.052 120.906L164.127 120.723C164.452 120.668 164.625 120.624 164.645 120.592C164.673 120.549 164.69 120.499 164.692 120.448C164.695 120.396 164.684 120.345 164.661 120.3C164.637 120.254 164.602 120.215 164.558 120.188C164.515 120.16 164.465 120.144 164.414 120.142C162.803 120.083 161.33 119.854 159.993 119.458C157.693 118.781 156.427 118.424 156.195 118.387C156.015 118.359 155.834 118.347 155.652 118.352L150.692 118.483C150.675 118.484 150.658 118.489 150.643 118.499C150.629 118.508 150.617 118.521 150.609 118.537C150.601 118.552 150.598 118.57 150.599 118.587C150.6 118.605 150.606 118.621 150.616 118.636L150.703 118.756ZM150.602 122.652C150.57 122.67 150.531 122.684 150.485 122.693C150.47 122.696 150.457 122.702 150.445 122.71C150.433 122.719 150.424 122.731 150.418 122.744C150.412 122.757 150.409 122.772 150.41 122.787C150.411 122.801 150.415 122.815 150.423 122.828L154.719 130.204L155.303 131.607C155.31 131.623 155.321 131.637 155.336 131.647C155.351 131.657 155.368 131.662 155.386 131.662C155.404 131.662 155.421 131.657 155.436 131.647C155.45 131.637 155.462 131.623 155.469 131.607C155.859 130.677 155.133 127.95 154.767 126.789C154.325 125.4 153.983 124.376 152.8 123.588C151.752 122.89 151.071 122.437 150.758 122.23C150.736 122.216 150.712 122.207 150.686 122.206C150.66 122.204 150.635 122.21 150.612 122.222C150.589 122.234 150.57 122.252 150.557 122.274C150.544 122.297 150.537 122.322 150.537 122.348C150.537 122.433 150.558 122.534 150.602 122.652Z" fill="#89BBE3"/>
<path d="M129.363 138.309L127.95 141.191C127.94 141.209 127.927 141.224 127.91 141.235C127.894 141.246 127.875 141.253 127.855 141.254C127.835 141.256 127.816 141.252 127.799 141.243C127.781 141.235 127.767 141.222 127.756 141.205C127.302 140.544 126.996 139.876 126.837 139.201C125.505 136.373 124.114 133.574 122.665 130.802C120.863 127.352 118.922 124.019 116.841 120.803C116.84 120.801 116.839 120.799 116.839 120.798C116.839 120.796 116.84 120.794 116.841 120.792C116.842 120.791 116.844 120.79 116.846 120.79C116.848 120.79 116.85 120.791 116.851 120.792C120.273 122.926 123.478 125.377 126.467 128.144C126.674 128.335 127.076 128.516 127.673 128.687C127.708 128.926 127.795 129.087 127.936 129.17C127.958 129.183 127.982 129.192 128.007 129.195C128.032 129.198 128.058 129.196 128.082 129.189C128.107 129.182 128.13 129.17 128.15 129.154C128.17 129.137 128.186 129.117 128.198 129.094L128.814 127.888C128.904 128.026 129.007 128.083 129.125 128.058C129.212 128.039 129.302 127.958 129.394 127.816C131.659 124.32 133.87 120.691 136.027 116.928C136.081 116.831 136.159 116.749 136.252 116.69C138.719 115.11 139.677 115.929 140.309 118.549C140.341 118.685 140.321 118.828 140.254 118.95C139.395 120.529 138.049 122.855 136.217 125.928C134.874 128.182 133.019 131.333 130.652 135.381C130.023 136.462 129.594 137.438 129.363 138.309Z" fill="#CFD4E7"/>
<path d="M137.022 114.004L132.564 121.349C133.806 118.77 135.201 116.294 136.749 113.921C136.769 113.892 136.797 113.87 136.83 113.858C136.863 113.847 136.899 113.846 136.933 113.855C136.958 113.862 136.988 113.912 137.022 114.004Z" fill="#1B0C42"/>
<path d="M142.767 116.849L131.803 135.402C131.794 135.417 131.789 135.434 131.789 135.452C131.79 135.469 131.795 135.486 131.804 135.501C131.813 135.516 131.827 135.528 131.842 135.535C131.858 135.543 131.876 135.546 131.893 135.544C137.403 135.139 145.145 134.462 152.5 134.296C152.553 134.295 152.606 134.307 152.655 134.33C152.704 134.353 152.746 134.388 152.78 134.431C153.628 135.507 154.287 136.681 154.757 137.953C154.946 138.464 155.089 138.545 155.185 138.195L155.538 139.097C149.323 141.375 145.255 142.781 140.541 145.74C140.522 145.752 140.506 145.767 140.493 145.786C140.48 145.804 140.471 145.825 140.466 145.847C140.461 145.869 140.461 145.891 140.465 145.913C140.469 145.935 140.477 145.956 140.489 145.975C142.731 149.494 144.568 153.218 145.998 157.149C145.927 157.32 145.819 157.481 145.674 157.633C145.445 156.804 145.283 156.282 145.186 156.067C144.089 153.618 143.056 151.509 142.086 149.739C140.586 147.002 138.613 144.436 136.169 142.042C134.423 140.334 132.674 139.36 130.162 137.628C130.124 137.603 130.098 137.565 130.087 137.521C130.077 137.478 130.084 137.432 130.106 137.393C133.335 131.873 136.663 126.405 139.884 120.875C140.769 119.354 141.711 117.868 142.711 116.417C142.804 116.569 142.822 116.713 142.767 116.849Z" fill="#6D4380"/>
<path d="M142.767 116.849L144.568 118.632C144.657 118.719 144.734 118.818 144.796 118.926C145.466 120.099 145.849 121.223 145.943 122.299C146.121 124.338 146.706 125.964 147.699 127.176C149.234 129.056 151.048 131.068 152.538 133.276C153.872 135.253 154.667 136.28 155.185 138.195C155.089 138.545 154.946 138.464 154.757 137.953C154.287 136.681 153.628 135.507 152.78 134.431C152.746 134.388 152.704 134.353 152.655 134.33C152.606 134.306 152.553 134.295 152.5 134.296C145.145 134.462 137.403 135.139 131.893 135.544C131.876 135.546 131.858 135.543 131.842 135.535C131.827 135.528 131.813 135.516 131.804 135.501C131.795 135.486 131.79 135.469 131.789 135.452C131.789 135.434 131.794 135.417 131.803 135.402L142.767 116.849Z" fill="#4F427F"/>
<path d="M184.661 119.133C176.414 133.263 168.095 147.358 159.533 161.3L155.324 159.441C155.304 159.432 155.286 159.419 155.271 159.403C155.256 159.387 155.245 159.368 155.238 159.347C155.231 159.327 155.228 159.305 155.229 159.284C155.231 159.263 155.237 159.242 155.248 159.223C156.243 157.377 157.272 155.554 158.334 153.752C158.567 153.36 158.69 152.815 158.704 152.117L179.507 117.253L184.661 119.133Z" fill="#CFD4E7"/>
<path d="M101.713 120.488L103.372 118.753L103.811 118.29C103.821 118.28 103.833 118.274 103.847 118.272C103.861 118.27 103.875 118.272 103.888 118.279C103.9 118.285 103.91 118.296 103.916 118.308C103.922 118.321 103.924 118.335 103.921 118.349C103.182 121.432 102.738 124.599 102.591 127.85C102.59 127.872 102.581 127.893 102.566 127.91C102.552 127.926 102.532 127.937 102.51 127.941C102.488 127.945 102.466 127.941 102.446 127.93C102.427 127.919 102.412 127.902 102.404 127.881C101.391 125.379 101.664 123.118 101.713 120.488Z" fill="#4F427F"/>
<path d="M164.127 120.723C162.256 120.585 160.94 120.368 160.18 120.073C158.21 119.309 156.468 118.632 155.082 118.722C153.607 118.816 152.147 118.828 150.702 118.756L150.616 118.635C150.606 118.621 150.6 118.605 150.599 118.587C150.598 118.57 150.601 118.552 150.609 118.537C150.617 118.521 150.629 118.508 150.643 118.499C150.658 118.489 150.675 118.484 150.692 118.483L155.652 118.352C155.834 118.347 156.015 118.359 156.195 118.387C156.427 118.423 157.693 118.781 159.993 119.458C161.329 119.854 162.803 120.083 164.414 120.142C164.465 120.144 164.515 120.16 164.558 120.188C164.602 120.215 164.637 120.254 164.661 120.3C164.684 120.345 164.695 120.396 164.692 120.448C164.69 120.499 164.673 120.549 164.645 120.592C164.625 120.624 164.452 120.668 164.127 120.723Z" fill="#CDE0EE"/>
<path d="M150.703 118.756C152.147 118.828 153.607 118.816 155.082 118.722C156.468 118.632 158.21 119.309 160.18 120.073C160.94 120.368 162.256 120.585 164.127 120.723L166.052 120.906C166.07 120.908 166.087 120.916 166.099 120.93C166.111 120.943 166.118 120.961 166.118 120.979V121.076C166.118 121.077 166.117 121.078 166.117 121.079C166.116 121.08 166.115 121.082 166.114 121.083C162.762 121.473 159.717 121.67 156.606 120.758C154.923 120.267 152.448 119.932 150.429 118.933C150.409 118.924 150.392 118.909 150.381 118.889C150.371 118.87 150.368 118.847 150.373 118.825C150.378 118.803 150.391 118.784 150.409 118.771C150.427 118.758 150.449 118.751 150.471 118.753L150.703 118.756Z" fill="#0E458F"/>
<path d="M89.6398 123.865C89.6122 124.296 89.6755 124.726 89.8299 125.154L89.8265 127.152C89.8263 127.198 89.8378 127.243 89.8597 127.283C89.8816 127.324 89.9133 127.358 89.9519 127.382C89.9904 127.407 90.0346 127.422 90.0804 127.425C90.1261 127.428 90.1719 127.42 90.2136 127.401L97.1849 124.2C97.4278 124.09 97.6527 123.943 97.852 123.765L98.761 122.959C98.7172 125.086 99.2472 127.16 100.351 129.181C101.647 131.548 103.185 133.722 105.566 135.139C105.593 135.155 105.622 135.164 105.653 135.165C105.683 135.165 105.713 135.158 105.74 135.143C105.767 135.128 105.789 135.107 105.805 135.081C105.82 135.055 105.829 135.025 105.829 134.994L105.954 129.917C107.063 128.79 107.156 127.854 109.078 128.199C110.018 128.367 111.129 128.609 112.41 128.925C114.342 129.399 115.752 129.399 117.591 129.682C119.727 130.01 120.398 131.044 121.279 132.997C121.32 133.088 121.347 133.186 121.358 133.287C121.487 134.4 121.819 135.452 122.354 136.443C122.464 137.111 122.312 137.764 121.898 138.402C120.833 139.325 119.644 140.22 118.77 141.236C116.174 144.264 114.805 147.831 113.136 151.46C113.097 150.439 113.328 149.42 113.831 148.401C113.84 148.383 113.845 148.362 113.846 148.341C113.846 148.32 113.842 148.299 113.833 148.28C113.825 148.261 113.812 148.244 113.796 148.23C113.78 148.216 113.761 148.206 113.741 148.201C112.333 147.83 109.825 147.264 106.216 146.504C102.025 145.624 98.0606 145.513 94.3231 146.172L91.6721 141.955L78.7352 120.429C82.4334 121.406 86.0683 122.552 89.6398 123.865Z" fill="#722196"/>
<path d="M154.719 130.204C154.341 128.614 153.721 127.213 152.859 126.001C152.076 124.897 151.323 123.781 150.602 122.652C150.558 122.534 150.537 122.433 150.537 122.348C150.537 122.322 150.544 122.297 150.557 122.274C150.57 122.252 150.589 122.234 150.612 122.222C150.635 122.21 150.66 122.205 150.686 122.206C150.712 122.207 150.736 122.216 150.758 122.23C151.071 122.437 151.752 122.89 152.8 123.588C153.983 124.376 154.325 125.4 154.767 126.789C155.133 127.95 155.859 130.677 155.469 131.607C155.462 131.623 155.45 131.637 155.436 131.647C155.421 131.657 155.404 131.662 155.386 131.662C155.368 131.662 155.351 131.657 155.336 131.647C155.321 131.637 155.31 131.623 155.303 131.607L154.719 130.204Z" fill="#0E458F"/>
<path d="M150.602 122.652C151.323 123.781 152.076 124.897 152.859 126.001C153.721 127.213 154.341 128.614 154.719 130.204L150.422 122.828C150.415 122.815 150.411 122.801 150.41 122.787C150.409 122.772 150.412 122.757 150.418 122.744C150.424 122.731 150.433 122.719 150.445 122.71C150.457 122.701 150.47 122.696 150.485 122.693C150.531 122.684 150.57 122.67 150.602 122.652Z" fill="#CDE0EE"/>
<path d="M126.837 139.201C126.996 139.876 127.302 140.544 127.756 141.205C127.767 141.221 127.781 141.235 127.799 141.243C127.816 141.252 127.835 141.255 127.855 141.254C127.875 141.253 127.894 141.246 127.91 141.235C127.927 141.224 127.94 141.209 127.95 141.191L129.363 138.309L129.705 137.974C129.742 137.937 129.791 137.917 129.843 137.916C129.895 137.916 129.946 137.935 129.985 137.97C130.041 138.018 131.05 138.684 133.013 139.968C134.068 140.659 135 141.421 135.809 142.252C137.618 144.117 139.165 145.953 140.451 147.762C141.481 149.209 142.488 151.146 143.472 153.572C143.788 154.351 144.102 155.014 144.415 155.563C144.821 156.265 145.081 156.973 145.197 157.685C145.206 157.74 145.2 157.797 145.18 157.849C145.16 157.902 145.125 157.947 145.081 157.981C145.036 158.016 144.983 158.037 144.928 158.043C144.872 158.049 144.815 158.04 144.765 158.017C143.976 157.657 142.919 157.059 141.778 156.683C140.274 156.187 138.582 155.7 136.704 155.221C135.585 154.934 134.105 154.246 133.013 153.513C131.179 152.287 129.556 150.779 128.143 148.989C127.692 148.42 127.339 147.761 127.086 147.012C127.072 146.973 126.996 147.036 126.857 147.202C126.701 147.128 126.524 147.378 126.329 147.952C126.292 147.901 126.272 147.862 126.27 147.834C126.269 147.819 126.263 147.805 126.253 147.794C126.242 147.783 126.228 147.776 126.213 147.774C126.197 147.772 126.181 147.776 126.168 147.785C126.154 147.793 126.144 147.806 126.138 147.821C125.081 150.622 123.637 153.079 121.808 155.189C121.673 155.346 121.497 155.46 121.299 155.519C121.102 155.579 120.891 155.581 120.691 155.525L118.894 155.027C118.812 155.004 118.737 154.962 118.675 154.904C118.614 154.845 118.567 154.772 118.54 154.692C118.513 154.611 118.507 154.525 118.521 154.441C118.535 154.358 118.569 154.279 118.621 154.211C119.78 152.7 120.735 151.201 121.486 149.715C122.436 147.832 123.134 145.665 123.581 143.213C123.392 142.875 123.275 142.742 123.232 142.816C122.11 144.724 120.895 146.569 119.589 148.353C118.327 149.632 117.408 151.681 116.71 153.05C116.687 153.095 116.652 153.132 116.608 153.157C116.564 153.181 116.514 153.192 116.464 153.188C115.427 153.108 114.529 152.667 113.768 151.868C113.73 151.827 113.702 151.778 113.686 151.725C113.671 151.671 113.668 151.615 113.678 151.56C113.755 151.166 114.111 150.817 114.249 150.451C115.055 148.345 115.726 146.758 116.26 145.691C116.795 144.622 117.634 143.325 118.777 141.8C119.616 140.676 120.94 139.702 122.053 138.589C122.068 138.573 122.08 138.554 122.086 138.533C122.092 138.513 122.093 138.49 122.089 138.469C122.085 138.448 122.076 138.428 122.063 138.41C122.049 138.393 122.032 138.38 122.012 138.371C121.989 138.357 121.951 138.368 121.898 138.402C122.312 137.764 122.464 137.111 122.354 136.442L121.849 130.895L126.837 139.201ZM136.39 152.124C134.464 149.23 132.133 146.429 129.398 143.721C129.374 143.697 129.343 143.682 129.309 143.676C129.276 143.671 129.241 143.677 129.211 143.692C129.18 143.708 129.155 143.733 129.139 143.763C129.123 143.794 129.117 143.829 129.121 143.863C129.366 145.515 130.083 146.963 131.275 148.208C132.729 149.728 134.391 151.076 136.262 152.252C136.28 152.262 136.301 152.266 136.321 152.264C136.342 152.261 136.361 152.252 136.376 152.237C136.39 152.223 136.4 152.204 136.402 152.183C136.405 152.162 136.4 152.142 136.39 152.124Z" fill="#BC99D6"/>
<path d="M121.898 138.402C121.951 138.367 121.989 138.357 122.012 138.371C122.032 138.38 122.049 138.393 122.063 138.41C122.076 138.427 122.085 138.448 122.089 138.469C122.094 138.49 122.092 138.512 122.086 138.533C122.08 138.554 122.068 138.573 122.053 138.589C120.94 139.702 119.616 140.676 118.777 141.8C117.634 143.325 116.795 144.622 116.26 145.691C115.726 146.758 115.055 148.345 114.249 150.451C114.111 150.817 113.755 151.166 113.678 151.56C113.668 151.615 113.671 151.671 113.686 151.724C113.702 151.778 113.73 151.827 113.768 151.868C114.529 152.667 115.427 153.107 116.464 153.188C116.514 153.192 116.564 153.181 116.608 153.156C116.652 153.132 116.687 153.095 116.71 153.05C117.408 151.681 118.327 149.632 119.589 148.353C118.047 150.774 116.96 153.33 116.326 156.019C116.32 156.049 116.324 156.08 116.338 156.108C116.351 156.135 116.373 156.158 116.4 156.172C116.428 156.186 116.459 156.191 116.489 156.185C116.519 156.18 116.547 156.166 116.568 156.143C118.515 153.934 120.093 151.545 121.303 148.978C121.506 148.55 121.878 147.585 122.419 146.085C122.765 145.131 123.152 144.174 123.581 143.213C123.134 145.665 122.436 147.832 121.486 149.715C120.735 151.201 119.78 152.7 118.621 154.211C118.569 154.279 118.535 154.358 118.521 154.441C118.507 154.525 118.513 154.611 118.54 154.692C118.567 154.772 118.614 154.845 118.675 154.903C118.737 154.962 118.812 155.004 118.894 155.027L120.691 155.525C120.891 155.58 121.102 155.579 121.299 155.519C121.497 155.46 121.673 155.345 121.808 155.189C123.637 153.079 125.081 150.622 126.138 147.82C126.144 147.806 126.154 147.793 126.168 147.785C126.181 147.776 126.197 147.772 126.213 147.774C126.228 147.776 126.242 147.782 126.253 147.793C126.263 147.804 126.269 147.819 126.27 147.834C126.272 147.862 126.292 147.901 126.329 147.952C124.469 153.201 121.292 157.358 116.796 160.422C114.155 162.002 112.742 163.609 111.017 165.717C110.998 165.74 110.973 165.757 110.945 165.765C110.916 165.773 110.886 165.773 110.858 165.764C110.83 165.755 110.805 165.738 110.786 165.715C110.768 165.692 110.757 165.664 110.754 165.634L110.661 164.508C110.844 161.611 110.927 158.608 111.619 155.932C112.019 154.372 112.525 152.882 113.136 151.46C114.805 147.831 116.174 144.264 118.77 141.236C119.644 140.22 120.833 139.325 121.898 138.402Z" fill="#E696E0"/>
<path d="M155.635 139.152C158.245 140.671 161.073 141.758 164.116 142.415L154.155 158.691L145.998 157.149C144.568 153.218 142.731 149.494 140.489 145.975C140.477 145.956 140.469 145.935 140.465 145.913C140.461 145.891 140.461 145.869 140.466 145.847C140.471 145.825 140.48 145.804 140.493 145.786C140.506 145.767 140.522 145.752 140.541 145.74C145.255 142.781 149.323 141.375 155.538 139.097L155.635 139.152Z" fill="#97507B"/>
<path d="M123.581 143.213C123.152 144.174 122.765 145.132 122.42 146.085C121.878 147.586 121.506 148.55 121.303 148.978C120.093 151.545 118.515 153.934 116.568 156.143C116.547 156.166 116.519 156.18 116.489 156.186C116.459 156.191 116.428 156.186 116.4 156.172C116.373 156.158 116.351 156.135 116.338 156.108C116.324 156.08 116.32 156.049 116.326 156.019C116.96 153.33 118.047 150.775 119.589 148.353C120.895 146.569 122.11 144.724 123.232 142.816C123.276 142.742 123.392 142.875 123.581 143.213Z" fill="#A71F9B"/>
<path d="M136.39 152.124C136.4 152.141 136.405 152.162 136.402 152.183C136.4 152.203 136.39 152.223 136.376 152.237C136.361 152.252 136.342 152.261 136.321 152.264C136.301 152.266 136.28 152.262 136.262 152.251C134.391 151.076 132.728 149.728 131.275 148.208C130.083 146.963 129.366 145.515 129.121 143.863C129.117 143.829 129.123 143.794 129.139 143.763C129.155 143.733 129.18 143.708 129.211 143.692C129.241 143.677 129.276 143.671 129.309 143.676C129.343 143.681 129.374 143.697 129.398 143.721C132.133 146.429 134.464 149.23 136.39 152.124Z" fill="#722196"/>
<path d="M113.136 151.46C112.525 152.882 112.019 154.373 111.619 155.932C110.927 158.608 110.844 161.611 110.661 164.508C110.341 163.381 110.213 162.233 110.278 161.065C110.281 161.016 110.267 160.967 110.24 160.926C110.212 160.885 110.172 160.855 110.125 160.84C107.692 160.084 105.591 159.7 103.272 160.875L94.3232 146.172C98.0606 145.513 102.025 145.623 106.216 146.504C109.825 147.264 112.333 147.83 113.741 148.201C113.761 148.206 113.78 148.216 113.796 148.23C113.812 148.243 113.825 148.26 113.833 148.28C113.842 148.299 113.846 148.32 113.846 148.341C113.845 148.362 113.84 148.382 113.831 148.401C113.328 149.42 113.097 150.439 113.136 151.46Z" fill="#A71F9B"/>
<path d="M126.857 147.202C127.526 148.93 128.693 150.544 130.359 152.044C132.458 153.936 134.715 155.253 137.13 155.995C138.798 156.509 140.72 157.095 142.895 157.754C143.61 157.968 144.737 158.501 145.532 158.957C145.566 158.976 145.604 158.985 145.643 158.984C145.682 158.982 145.72 158.97 145.752 158.948C145.784 158.926 145.809 158.895 145.824 158.859C145.84 158.824 145.845 158.784 145.839 158.746L145.674 157.633C145.819 157.481 145.927 157.32 145.998 157.149L154.155 158.691L149.254 166.72L144.422 164.725C141.83 162.354 138.827 161.708 135.419 161.438C129.22 160.945 123.013 160.607 116.796 160.422C121.292 157.358 124.469 153.201 126.329 147.952C126.524 147.378 126.701 147.128 126.857 147.202Z" fill="#C82F8C"/>
<path d="M110.661 164.508L110.754 165.634C110.757 165.664 110.768 165.692 110.786 165.715C110.805 165.738 110.83 165.755 110.858 165.764C110.886 165.773 110.916 165.774 110.945 165.765C110.973 165.757 110.998 165.74 111.017 165.717C112.742 163.609 114.155 162.002 116.796 160.422C123.013 160.607 129.22 160.945 135.419 161.438C138.827 161.708 141.83 162.354 144.422 164.725C139.117 167.698 134.551 170.37 128.62 170.812C125.189 171.068 122.343 171.416 120.083 171.856C117.445 172.367 114.591 173.315 111.522 174.7L103.272 160.875C105.591 159.7 107.692 160.084 110.125 160.841C110.172 160.855 110.212 160.885 110.24 160.926C110.267 160.967 110.281 161.016 110.277 161.065C110.213 162.233 110.341 163.381 110.661 164.508Z" fill="#E12990"/>
<path d="M149.254 166.72L142.235 178.381C138.013 178.284 133.753 178.741 129.453 179.75C124.485 180.916 120.18 181.988 116.537 182.968L111.522 174.7C114.591 173.315 117.445 172.367 120.083 171.856C122.343 171.416 125.189 171.068 128.62 170.812C134.551 170.369 139.117 167.698 144.422 164.725L149.254 166.72Z" fill="#F93678"/>
<path d="M142.235 178.381L137.181 186.787C131.739 187.563 126.405 188.86 121.179 190.675L116.537 182.968C120.18 181.988 124.485 180.916 129.453 179.75C133.753 178.741 138.013 178.284 142.235 178.381Z" fill="#FD4C5C"/>
<path d="M137.181 186.787L128.295 202.074C128.272 202.114 128.239 202.146 128.199 202.169C128.16 202.192 128.115 202.204 128.069 202.204C128.023 202.204 127.978 202.192 127.938 202.169C127.899 202.146 127.866 202.114 127.842 202.074L121.179 190.675C126.405 188.86 131.739 187.564 137.181 186.787Z" fill="#F9673B"/>
</g>
<defs>
<clipPath id="clip0_23_563">
<rect width="256" height="256" fill="white"/>
</clipPath>
</defs>
</svg>
