<svg width="256" height="256" viewBox="0 0 256 256" fill="none" xmlns="http://www.w3.org/2000/svg">
<rect width="256" height="256" fill="#232932"/>
<g clip-path="url(#clip0_103_2)">
<path d="M179.541 33V134.616C179.541 163.017 156.466 186.038 128 186.038C99.5341 186.038 76.4595 163.017 76.4595 134.616V33H112.922V134.616C112.922 138.606 114.51 142.433 117.338 145.254C120.166 148.075 124.001 149.66 128 149.66C131.999 149.66 135.834 148.075 138.662 145.254C141.49 142.433 143.078 138.606 143.078 134.616V33H179.541Z" fill="#35495E"/>
<path d="M216 33V134.616C216 183.107 176.602 222.427 128 222.427C79.3979 222.427 40 183.107 40 134.616V33H76.4595V134.616C76.4595 163.017 99.5361 186.038 128 186.038C156.464 186.038 179.541 163.017 179.541 134.616V33H216Z" fill="#41B883"/>
</g>
<defs>
<clipPath id="clip0_103_2">
<rect width="176" height="190" fill="white" transform="translate(40 33)"/>
</clipPath>
</defs>
</svg>
