<svg width="256" height="256" viewBox="0 0 256 256" fill="none" xmlns="http://www.w3.org/2000/svg">
<rect width="256" height="256" fill="#232932"/>
<g clip-path="url(#clip0_82_279)">
<path d="M128.277 54.5571H201.53C204.35 54.5551 207.143 55.109 209.749 56.1872C212.354 57.2654 214.722 58.8468 216.716 60.8409C218.71 62.835 220.292 65.2027 221.37 67.8085C222.448 70.4143 223.002 73.2071 223 76.0271V159.382C223.003 162.202 222.45 164.996 221.372 167.603C220.294 170.21 218.713 172.578 216.719 174.573C214.725 176.568 212.357 178.15 209.751 179.229C207.144 180.308 204.351 180.862 201.53 180.86H96.7054L128.277 54.5571ZM114.969 75.1405L86.5642 188.776H130.882L127.723 201.443H54.47C51.6499 201.445 48.8571 200.891 46.2513 199.813C43.6455 198.735 41.2779 197.153 39.2838 195.159C37.2897 193.165 35.7083 190.797 34.6301 188.192C33.5518 185.586 32.9979 182.793 33 179.973V96.6184C32.9979 93.7983 33.5518 91.0055 34.6301 88.3997C35.7083 85.7939 37.2897 83.4262 39.2838 81.4322C41.2779 79.4381 43.6455 77.8567 46.2513 76.7784C48.8571 75.7002 51.6499 75.1463 54.47 75.1484L114.969 75.1405Z" fill="white"/>
</g>
<defs>
<clipPath id="clip0_82_279">
<rect width="190" height="190" fill="white" transform="translate(33 33)"/>
</clipPath>
</defs>
</svg>
