<svg width="256" height="256" viewBox="0 0 256 256" fill="none" xmlns="http://www.w3.org/2000/svg">
<rect width="256" height="256" fill="#DDF021"/>
<path d="M74.4 46L72.8 47.6L28 127.6L74.4 209.2H181.6L205.6 167.6V164.4L228 127.6L204 89.2V86L181.6 46H74.4ZM108 94H141.6L162.4 127.6L141.6 161.2H108L88.8 127.6L108 94Z" fill="black"/>
<path d="M220 127.6L200.8 161.2L172 127.6L200.8 94L220 127.6Z" fill="#166DA5"/>
<path d="M197.6 167.6L167.2 130.8L149.6 161.2L176.8 202.8L197.6 167.6Z" fill="#8FDB69"/>
<path d="M197.6 87.5999L167.2 124.4L149.6 93.9999L176.8 52.3999L197.6 87.5999Z" fill="#166DA5"/>
<path d="M125.6 202.8L80.8 127.6L125.6 52.3999H77.6L34.4 127.6L77.6 202.8H125.6Z" fill="black"/>
<path d="M104.8 87.5999L125.6 52.3999H176.8L197.6 87.5999H104.8ZM149.6 93.9999H200.8L218.4 124.4H167.2L149.6 93.9999Z" fill="#287BBE"/>
<path d="M104.8 167.6L125.6 202.8H176.8L197.6 167.6H104.8ZM149.6 161.2H200.8L218.4 130.8H167.2L149.6 161.2Z" fill="#DDF021"/>
</svg>
