<svg width="256" height="256" viewBox="0 0 256 256" fill="none" xmlns="http://www.w3.org/2000/svg">
<rect width="256" height="256" fill="#232932"/>
<g clip-path="url(#clip0_150_289)">
<path d="M208.663 139.098C221.112 148.803 221.112 164.768 208.663 174.551L150.085 220.569C137.635 230.274 117.364 230.274 104.915 220.569L46.3371 174.629C33.8876 164.924 33.8876 148.959 46.3371 139.176L104.915 93.1574C117.365 83.4528 137.636 83.4528 150.085 93.1574L208.663 139.098Z" fill="#FF9D00"/>
<path d="M105.055 191.846L46.2183 145.625C40.2863 140.98 37 134.76 37 128.145C37 121.531 40.2863 115.311 46.2183 110.665L105.055 64.3659C110.987 59.72 119.003 57.1221 127.5 57.1221C135.997 57.1221 143.933 59.72 149.945 64.3659L208.782 110.586C214.714 115.232 218 121.452 218 128.066C218 134.681 214.714 140.901 208.782 145.547L149.945 191.767C143.933 196.492 135.997 199.09 127.5 199.09C119.003 199.09 111.067 196.492 105.055 191.846V191.846Z" fill="black" fill-opacity="0.1"/>
<path d="M105.055 191.846L46.2183 145.625C40.2863 140.98 37 134.76 37 128.145C37 121.531 40.2863 115.311 46.2183 110.665L105.055 64.3659C110.987 59.72 119.003 57.1221 127.5 57.1221C135.997 57.1221 143.933 59.72 149.945 64.3659L208.782 110.586C214.714 115.232 218 121.452 218 128.066C218 134.681 214.714 140.901 208.782 145.547L149.945 191.767C143.933 196.492 135.997 199.09 127.5 199.09C119.003 199.09 111.067 196.492 105.055 191.846V191.846Z" fill="#FFCC00"/>
<path d="M105.055 162.724L46.2183 116.504C40.2863 111.858 37 105.637 37 99.0233C37 92.4092 40.2863 86.1894 46.2183 81.5435L105.055 35.2438C110.987 30.5986 119.003 28 127.5 28C135.997 28 143.933 30.5986 149.945 35.2438L208.782 81.4643C214.714 86.1102 218 92.3307 218 98.9449C218 105.559 214.714 111.78 208.782 116.425L149.945 162.646C143.933 167.37 135.997 169.968 127.5 169.968C119.003 169.968 111.067 167.37 105.055 162.724Z" fill="black" fill-opacity="0.1"/>
<path d="M105.055 162.724L46.2183 116.504C40.2863 111.858 37 105.637 37 99.0233C37 92.4092 40.2863 86.1894 46.2183 81.5435L105.055 35.2438C110.987 30.5986 119.003 28 127.5 28C135.997 28 143.933 30.5986 149.945 35.2438L208.782 81.4643C214.714 86.1102 218 92.3307 218 98.9449C218 105.559 214.714 111.78 208.782 116.425L149.945 162.646C143.933 167.37 135.997 169.968 127.5 169.968C119.003 169.968 111.067 167.37 105.055 162.724Z" fill="url(#paint0_linear_150_289)"/>
<path d="M127.703 143.319C157.769 143.319 182.142 123.405 182.142 98.8402C182.142 74.2748 157.769 54.361 127.703 54.361C97.6378 54.361 73.2651 74.2748 73.2651 98.8402C73.2651 123.406 97.6378 143.319 127.703 143.319ZM127.703 147.898C94.5432 147.898 67.6611 125.933 67.6611 98.8402C67.6611 71.7462 94.5425 49.7822 127.703 49.7822C160.863 49.7822 187.745 71.7462 187.745 98.8402C187.745 125.933 160.864 147.897 127.703 147.897V147.898Z" fill="white"/>
<path d="M131.715 117.719C134.725 117.326 137.659 116.487 140.344 115.203L157.48 122.244L148.504 108.803C153.225 102.724 153.225 95.0233 148.504 88.9441L157.48 75.5024L141.33 82.1385L140.866 89.236C147.468 94.771 147.3 103.512 140.439 108.854C138.688 110.254 136.678 111.236 134.567 111.934L131.715 117.719ZM123.705 80.0162C118.734 80.6614 115.009 82.5427 115.009 82.5427L97.8881 75.5024L106.865 88.9441C102.143 95.0233 102.143 102.724 106.865 108.803L97.8881 122.244L114.48 115.428L114.834 108.779C107.893 103.261 107.948 94.4325 114.947 88.8897C116.574 87.4332 120.255 85.8904 120.807 85.8084L123.705 80.0155L123.705 80.0162Z" fill="#8CC8F6"/>
<path d="M119.468 97.3723L117.187 137.778L135.653 100.304L138.298 59.9751L119.468 97.3723ZM119.229 130.012L134.02 100.015L121.059 97.6507L119.229 130.012Z" fill="white"/>
</g>
<defs>
<linearGradient id="paint0_linear_150_289" x1="9087" y1="28" x2="9087" y2="14224.8" gradientUnits="userSpaceOnUse">
<stop stop-color="#34AADC"/>
<stop offset="1" stop-color="#007AFF"/>
</linearGradient>
<clipPath id="clip0_150_289">
<rect width="181" height="200" fill="white" transform="translate(37 28)"/>
</clipPath>
</defs>
</svg>
