<svg width="256" height="256" viewBox="0 0 256 256" fill="none" xmlns="http://www.w3.org/2000/svg">
<rect width="256" height="256" fill="#232932"/>
<path d="M54.9583 208.75L28 48.958L77.8542 28.2705L109.688 47.1872L138.854 31.458L199.625 54.7913L165.542 228L54.9583 208.75Z" fill="url(#paint0_linear_115_179)"/>
<path d="M228 95.7292L202.187 31.9792L155.354 28L83.0625 97.4583L102.521 186.979L138.854 212.458L228 159.562L206.125 118.542L228 95.7292Z" fill="url(#paint1_linear_115_179)"/>
<path d="M187.937 86.2298L206.125 118.542L228 95.7298L211.937 56.0215L187.937 86.2298Z" fill="url(#paint2_linear_115_179)"/>
<path d="M65.5 65.5H190.5V190.5H65.5V65.5Z" fill="black"/>
<path d="M81.0833 166.875H127.958V174.687H81.0833V166.875ZM125.458 81.0623L118.479 108.417L110.5 81.0623H102.563L94.5625 108.417L87.6042 81.0623H76.6667L90.0625 127.958H98.8542L106.521 100.812L114.104 127.958H123L136.375 81.0623H125.458ZM138.333 121.271L144.438 113.958C148.272 117.499 153.262 119.528 158.479 119.667C162.646 119.667 165.271 118 165.271 115.229V115.104C165.271 112.479 163.646 111.146 155.792 109.125C146.313 106.708 140.208 104.083 140.208 94.7498V94.604C140.208 86.0832 147.063 80.4373 156.667 80.4373C163.007 80.3252 169.185 82.4412 174.125 86.4165L168.75 94.2082C165.238 91.4605 160.972 89.8473 156.521 89.5832C152.563 89.5832 150.479 91.3957 150.479 93.7498V93.8957C150.479 96.979 152.563 98.0623 160.625 100.146C170.167 102.646 175.542 106.062 175.542 114.271V114.396C175.542 123.729 168.417 128.979 158.271 128.979C150.926 129.008 143.829 126.331 138.333 121.458" fill="white"/>
<defs>
<linearGradient id="paint0_linear_115_179" x1="99.625" y1="32.1663" x2="151.375" y2="218.5" gradientUnits="userSpaceOnUse">
<stop offset="0.28" stop-color="#07C3F2"/>
<stop offset="0.94" stop-color="#087CFA"/>
</linearGradient>
<linearGradient id="paint1_linear_115_179" x1="115.771" y1="55.8125" x2="203.333" y2="184.208" gradientUnits="userSpaceOnUse">
<stop offset="0.14" stop-color="#FCF84A"/>
<stop offset="0.37" stop-color="#07C3F2"/>
</linearGradient>
<linearGradient id="paint2_linear_115_179" x1="202.521" y1="71.6882" x2="214.021" y2="112.417" gradientUnits="userSpaceOnUse">
<stop offset="0.28" stop-color="#07C3F2"/>
<stop offset="0.94" stop-color="#087CFA"/>
</linearGradient>
</defs>
</svg>
