<svg width="256" height="256" viewBox="0 0 256 256" fill="none" xmlns="http://www.w3.org/2000/svg">
<rect width="256" height="256" fill="#232932"/>
<g clip-path="url(#clip0_93_270)">
<path d="M132.157 63.0695C132.157 43.7312 116.385 28 96.9953 28C76.5612 28 64.3439 43.2803 64.3439 58.0595H84.4373C84.4373 53.9018 88.3351 48.0394 96.9953 48.0394C105.304 48.0394 112.065 54.7828 112.065 63.0695C112.065 71.3563 106 78.0989 90.7069 78.0989H36V98.1384H90.7069C116.518 98.1384 132.157 82.4079 132.157 63.0695ZM132.157 63.0695C132.157 43.7312 116.385 28 96.9953 28C76.5612 28 64.3439 43.2803 64.3439 58.0595H84.4373C84.4373 53.9018 88.3351 48.0394 96.9953 48.0394C105.304 48.0394 112.065 54.7828 112.065 63.0695C112.065 71.3563 106 78.0989 90.7069 78.0989H36V98.1384H90.7069C116.518 98.1384 132.157 82.4079 132.157 63.0695Z" fill="url(#paint0_linear_93_270)"/>
<path d="M176.733 192.401C176.733 211.74 160.96 227.47 141.571 227.47C121.137 227.47 108.92 212.191 108.92 197.411H129.013C129.013 201.568 132.911 207.431 141.571 207.431C149.879 207.431 156.641 200.687 156.641 192.401C156.641 184.114 149 177.371 135.282 177.371H74.576V157.331H135.282C161.094 157.331 176.733 173.062 176.733 192.401ZM176.733 192.401C176.733 211.74 160.96 227.47 141.571 227.47C121.137 227.47 108.92 212.191 108.92 197.411H129.013C129.013 201.568 132.911 207.431 141.571 207.431C149.879 207.431 156.641 200.687 156.641 192.401C156.641 184.114 149 177.371 135.282 177.371H74.576V157.331H135.282C161.094 157.331 176.733 173.062 176.733 192.401Z" fill="url(#paint1_linear_93_270)"/>
<path d="M182 58.9175C159.838 58.9175 144.204 75.7275 144.204 97.8307H162C162 86.8436 170 78.8652 182 78.8652C194 78.8652 200 86.8436 200 97.8307C200 108.818 192.207 117.87 171 117.87H36V137.91H174C205.406 137.91 220 117.778 220 97.8307C220 75.7268 205 58.9175 182 58.9175Z" fill="url(#paint2_linear_93_270)"/>
<path d="M62.34 157.331H36V177.539H62.34V157.331Z" fill="url(#paint3_linear_93_270)"/>
</g>
<defs>
<linearGradient id="paint0_linear_93_270" x1="1635.96" y1="2566.03" x2="9357.75" y2="14780.1" gradientUnits="userSpaceOnUse">
<stop offset="0.07822" stop-color="#54C8F1"/>
<stop offset="0.57292" stop-color="#41A2EF"/>
<stop offset="1" stop-color="#3386EE"/>
</linearGradient>
<linearGradient id="paint1_linear_93_270" x1="-2183" y1="-3323.04" x2="5036.08" y2="8095.85" gradientUnits="userSpaceOnUse">
<stop offset="0.07822" stop-color="#54C8F1"/>
<stop offset="0.57292" stop-color="#41A2EF"/>
<stop offset="1" stop-color="#3386EE"/>
</linearGradient>
<linearGradient id="paint2_linear_93_270" x1="1636.06" y1="3018.07" x2="6475.92" y2="10673.5" gradientUnits="userSpaceOnUse">
<stop offset="0.07822" stop-color="#54C8F1"/>
<stop offset="0.57292" stop-color="#41A2EF"/>
<stop offset="1" stop-color="#3386EE"/>
</linearGradient>
<linearGradient id="paint3_linear_93_270" x1="1636" y1="-6079.55" x2="9826.29" y2="6875.6" gradientUnits="userSpaceOnUse">
<stop offset="0.07822" stop-color="#54C8F1"/>
<stop offset="0.57292" stop-color="#41A2EF"/>
<stop offset="1" stop-color="#3386EE"/>
</linearGradient>
<clipPath id="clip0_93_270">
<rect width="184" height="200" fill="white" transform="translate(36 28)"/>
</clipPath>
</defs>
</svg>
