<svg width="256" height="256" viewBox="0 0 256 256" fill="none" xmlns="http://www.w3.org/2000/svg">
<rect width="256" height="256" fill="#232932"/>
<g clip-path="url(#clip0_82_271)">
<path d="M226.156 70.0557H224.25C214.219 70.04 206.079 78.1625 206.079 88.1907V128.748C206.079 136.848 199.384 143.408 191.416 143.408C186.681 143.408 181.955 141.026 179.15 137.027L137.722 77.8657C134.285 72.9532 128.691 70.0244 122.637 70.0244C113.192 70.0244 104.692 78.0532 104.692 87.9642V128.756C104.692 136.855 98.052 143.416 90.0289 143.416C85.2789 143.416 80.5605 141.034 77.7559 137.035L31.3983 70.8289C30.3515 69.3293 28 70.0713 28 71.8988V107.271C28 109.059 28.5469 110.793 29.5702 112.261L75.1934 177.405C77.8887 181.256 81.8652 184.114 86.4508 185.153C97.927 187.761 108.489 178.928 108.489 167.674V126.905C108.489 118.806 115.051 112.246 123.152 112.246H123.176C128.059 112.246 132.637 114.628 135.441 118.627L176.877 177.78C180.322 182.7 185.627 185.621 191.955 185.621C201.611 185.621 209.884 177.585 209.884 167.682V126.897C209.884 118.798 216.446 112.238 224.547 112.238H226.164C227.18 112.238 228 111.418 228 110.403V71.891C228 70.8757 227.18 70.0557 226.164 70.0557H226.156Z" fill="white"/>
</g>
<defs>
<clipPath id="clip0_82_271">
<rect width="200" height="116" fill="white" transform="translate(28 70)"/>
</clipPath>
</defs>
</svg>
