<svg width="256" height="256" viewBox="0 0 256 256" fill="none" xmlns="http://www.w3.org/2000/svg">
<rect width="256" height="256" fill="#21759B"/>
<g clip-path="url(#clip0_150_303)">
<path d="M42.2169 127.998C42.2169 161.954 61.9504 191.298 90.5654 205.204L49.6441 93.085C44.8842 103.754 42.2169 115.561 42.2169 127.998Z" fill="white"/>
<path d="M185.916 123.668C185.916 113.066 182.107 105.724 178.841 100.009C174.492 92.9428 170.417 86.9586 170.417 79.8922C170.417 72.0063 176.397 64.6657 184.822 64.6657C185.202 64.6657 185.563 64.713 185.934 64.7342C170.671 50.7515 150.337 42.2144 128.003 42.2144C98.0334 42.2144 71.6661 57.5911 56.3269 80.8814C58.3396 80.9418 60.2364 80.9842 61.8475 80.9842C70.8205 80.9842 84.7102 79.8954 84.7102 79.8954C89.3346 79.6228 89.8798 86.415 85.2602 86.9619C85.2602 86.9619 80.613 87.5087 75.4417 87.7797L106.682 180.701L125.455 124.396L112.09 87.7764C107.47 87.5054 103.094 86.9586 103.094 86.9586C98.4708 86.6876 99.0128 79.6196 103.636 79.8922C103.636 79.8922 117.803 80.981 126.232 80.981C135.204 80.981 149.095 79.8922 149.095 79.8922C153.723 79.6196 154.266 86.4118 149.645 86.9586C149.645 86.9586 144.988 87.5054 139.826 87.7764L170.828 179.994L179.385 151.4C183.093 139.535 185.916 131.012 185.916 123.668Z" fill="white"/>
<path d="M129.508 135.501L103.769 210.294C111.454 212.553 119.582 213.789 128.003 213.789C137.993 213.789 147.573 212.062 156.491 208.926C156.261 208.559 156.052 208.169 155.88 207.744L129.508 135.501Z" fill="white"/>
<path d="M203.277 86.8394C203.646 89.5719 203.855 92.5052 203.855 95.6606C203.855 104.366 202.229 114.152 197.332 126.388L171.128 202.15C196.632 187.278 213.786 159.647 213.786 127.999C213.788 113.084 209.978 99.0591 203.277 86.8394Z" fill="white"/>
<path d="M128.003 28C72.8642 28 28.0024 72.8585 28.0024 127.998C28.0024 183.143 72.8642 228 128.003 228C183.141 228 228.009 183.143 228.009 127.998C228.007 72.8585 183.141 28 128.003 28ZM128.003 223.416C75.3927 223.416 32.5877 180.611 32.5877 127.998C32.5877 75.387 75.3911 32.5853 128.003 32.5853C180.612 32.5853 223.414 75.387 223.414 127.998C223.414 180.611 180.612 223.416 128.003 223.416Z" fill="white"/>
</g>
<defs>
<clipPath id="clip0_150_303">
<rect width="200" height="200" fill="white" transform="translate(28 28)"/>
</clipPath>
</defs>
</svg>
