<svg width="256" height="256" viewBox="0 0 256 256" fill="none" xmlns="http://www.w3.org/2000/svg">
<rect width="256" height="256" fill="#232932"/>
<path d="M28 127.643C28 131.614 29.083 135.224 30.8881 138.473L65.9061 199.123C69.5162 205.26 74.9314 210.314 81.7906 212.48C94.787 216.812 108.866 211.397 115.726 199.845L124.029 185.043L90.8159 127.282L126.195 66.2708L134.498 51.8303C137.025 47.4982 140.274 43.8881 144.245 41H90.0939C80.7076 41 71.6823 46.0542 66.9892 54.3574L30.8881 116.812C29.083 120.061 28 123.671 28 127.643Z" fill="white"/>
<path d="M228 127.643C228 123.672 226.917 120.061 225.112 116.812L189.733 55.4405C182.874 43.5272 168.794 38.473 155.798 42.8051C148.939 44.9712 143.523 50.0253 139.913 56.1625L131.61 69.8809L165.184 127.643L129.805 188.654L121.502 203.455C118.975 207.787 115.726 211.397 111.755 214.285H166.267C175.653 214.285 184.679 209.231 189.372 200.928L225.473 138.473C226.917 135.224 228 131.614 228 127.643Z" fill="white"/>
</svg>
