<svg width="256" height="256" viewBox="0 0 256 256" fill="none" xmlns="http://www.w3.org/2000/svg">
<rect width="256" height="256" fill="#107C10"/>
<path d="M118.295 225.523C103.232 224.079 87.9818 218.67 74.8818 210.123C63.9046 202.964 61.4273 200.016 61.4273 194.141C61.4273 182.339 74.4046 161.664 96.6091 138.1C109.216 124.714 126.78 109.032 128.677 109.454C132.373 110.279 161.895 139.077 172.95 152.636C190.427 174.068 198.459 191.623 194.377 199.448C191.275 205.395 172.02 217.023 157.877 221.489C146.218 225.17 130.907 226.729 118.295 225.523ZM46.6 181.87C37.4773 167.875 32.8682 154.098 30.6455 134.17C29.9091 127.591 30.1682 123.829 32.3114 110.32C34.9773 93.5022 44.5614 74.0249 56.0841 62.0477C60.9886 56.9568 61.425 56.8204 67.4068 58.8431C74.6568 61.2977 82.4068 66.6522 94.4296 77.5249L101.452 83.8749L97.6114 88.5795C79.8205 110.42 61.0432 141.398 53.975 160.557C50.1341 170.966 48.5886 181.42 50.2477 185.773C51.3614 188.714 50.3386 187.618 46.5886 181.877L46.6 181.87ZM206.72 184.25C207.623 179.85 206.482 171.773 203.811 163.623C198.027 145.975 178.689 113.145 160.932 90.8227L155.341 83.7954L161.391 78.2431C169.286 70.9931 174.768 66.6522 180.686 62.9636C185.352 60.0545 192.023 57.4795 194.891 57.4795C196.657 57.4795 202.882 63.9568 207.905 71.0022C215.686 81.9113 221.409 95.1613 224.309 108.934C226.184 117.843 226.341 136.889 224.611 145.775C223.18 153.066 220.18 162.516 217.27 168.927C215.066 173.729 209.634 183.059 207.248 186.095C206.02 187.657 206.02 187.654 206.702 184.286L206.72 184.25ZM119.909 54.1477C111.714 49.9886 99.0727 45.5227 92.0909 44.3181C89.6455 43.8977 85.4705 43.659 82.8182 43.7954C77.0546 44.0863 77.3114 43.7863 86.5523 39.4204C94.2341 35.7908 100.643 33.6568 109.348 31.8295C119.132 29.7727 137.53 29.7499 147.159 31.7795C157.557 33.9727 169.805 38.5295 176.705 42.7795L178.759 44.0386L174.055 43.8022C164.7 43.3295 151.068 47.109 136.432 54.2272C132.018 56.3772 128.182 58.0908 127.9 58.0454C127.62 57.9908 124.023 56.2386 119.9 54.1477H119.909Z" fill="white"/>
</svg>
