<svg width="256" height="256" viewBox="0 0 256 256" fill="none" xmlns="http://www.w3.org/2000/svg">
<rect width="256" height="256" fill="#470237"/>
<path d="M133.628 80.152L103.829 129.344L135.615 181.517C135.814 181.915 135.913 182.312 135.814 182.71C135.714 183.107 135.317 182.809 134.721 182.908H111.974C110.385 182.908 109.292 182.809 108.597 181.815C106.511 177.641 104.326 173.567 102.24 169.393C100.154 165.319 97.8694 161.145 95.4854 156.871C93.1015 152.598 90.7176 148.325 88.3336 143.952H88.135C86.049 148.226 83.7644 152.499 81.4798 156.772C79.1952 161.045 76.9106 165.319 74.7254 169.492C72.4408 173.666 70.1562 177.94 67.8716 182.014C67.4742 183.008 66.6796 183.107 65.587 183.107H43.7343C43.337 183.107 43.039 183.306 43.039 182.809C42.9396 182.412 43.039 182.014 43.2376 181.716L74.1294 131.033L44.0323 80.0526C43.7343 79.6551 43.6349 79.2576 43.8336 79.0588C44.0323 78.7607 44.4296 78.6613 44.8269 78.6613H67.3749C67.8716 78.6613 68.3682 78.7607 68.7655 78.8601C69.1629 79.0588 69.4609 79.3569 69.7588 79.7545C71.6461 84.0277 73.8314 88.3009 76.116 92.5742C78.4999 96.8474 80.7845 101.021 83.2678 105.195C85.6517 109.369 87.837 113.543 89.9229 117.816H90.1216C92.2075 113.443 94.3928 109.17 96.5781 104.996C98.7633 100.823 101.048 96.6486 103.333 92.4748C105.617 88.3009 107.802 84.0277 109.988 79.9532C110.087 79.5557 110.286 79.1582 110.584 78.9594C110.981 78.7607 111.378 78.6613 111.875 78.7607H132.834C133.33 78.6613 133.827 78.9594 133.926 79.4563C134.026 79.5557 133.827 79.9532 133.628 80.152ZM179.519 184.995C172.168 185.095 164.818 183.604 158.163 180.523C151.905 177.641 146.74 172.871 143.164 167.008C139.489 160.946 137.701 153.393 137.701 144.35C137.602 136.996 139.489 129.741 143.164 123.381C146.939 116.922 152.402 111.555 158.958 107.978C165.911 104.102 174.254 102.214 184.088 102.214C184.585 102.214 185.28 102.214 186.174 102.313C187.068 102.413 188.061 102.413 189.253 102.512V71.1086C189.253 70.413 189.551 70.0154 190.247 70.0154H210.411C210.907 69.9161 211.305 70.3136 211.404 70.7111V165.517C211.404 167.306 211.503 169.294 211.603 171.48C211.801 173.567 211.901 175.554 212 177.244C212 177.94 211.702 178.536 211.007 178.834C205.842 181.02 200.378 182.61 194.816 183.604C189.75 184.498 184.684 184.995 179.519 184.995ZM189.253 165.12V121.394C188.359 121.195 187.465 120.996 186.571 120.897C185.479 120.797 184.386 120.698 183.293 120.698C179.42 120.698 175.546 121.493 172.069 123.282C168.692 124.971 165.811 127.456 163.626 130.636C161.441 133.816 160.348 138.089 160.348 143.257C160.249 146.735 160.845 150.213 162.037 153.493C163.03 156.176 164.52 158.561 166.507 160.548C168.394 162.337 170.679 163.729 173.261 164.524C175.943 165.418 178.724 165.815 181.506 165.815C182.996 165.815 184.386 165.716 185.677 165.617C186.969 165.716 188.061 165.517 189.253 165.12Z" fill="#FF61F6"/>
</svg>
