<svg width="256" height="256" viewBox="0 0 256 256" fill="none" xmlns="http://www.w3.org/2000/svg">
<rect width="256" height="256" fill="#2C8EBB"/>
<path d="M220.874 174.11C219.818 165.774 212.78 160.021 203.747 160.139C190.257 160.315 178.937 167.301 171.429 171.938C168.497 173.758 165.975 175.108 163.805 176.106C164.274 169.297 163.863 160.374 160.344 150.57C156.063 138.829 150.315 131.609 146.209 127.441C150.96 120.514 157.47 110.417 160.52 94.8019C163.159 81.4762 162.338 60.7539 156.297 49.1306C155.065 46.7825 153.013 45.0801 150.432 44.3757C149.376 44.0821 147.382 43.4951 143.452 44.6105C137.528 32.3415 135.475 31.05 133.892 29.9933C130.607 27.88 126.736 27.4104 123.1 28.7606C118.232 30.5217 114.067 35.2179 110.138 43.5538C109.551 44.7866 109.023 45.9607 108.554 47.1347C101.105 47.6631 89.3746 50.3634 79.4623 61.1061C78.2306 62.4563 75.8259 63.4543 73.3038 64.3935H73.3625C68.201 66.2133 65.8549 70.44 62.981 78.0714C58.9926 88.7555 63.0983 99.2634 67.1453 106.073C61.632 111.004 54.3004 118.87 50.4293 128.087C45.6198 139.475 45.0919 150.629 45.2679 156.675C41.1622 161.019 34.8278 169.179 34.1239 178.337C33.1855 191.134 37.819 199.822 39.8719 202.992C40.4584 203.932 41.1036 204.695 41.8074 205.458C41.5728 207.043 41.5141 208.745 41.8661 210.506C42.6285 214.616 45.2092 217.962 49.139 220.075C56.8811 224.184 67.6732 225.945 76.0018 221.777C78.9931 224.947 84.4478 228 94.3601 228H94.9466C97.4686 228 129.493 226.298 138.819 224.008C142.983 223.01 145.857 221.249 147.734 219.664C153.716 217.786 170.256 212.15 185.858 202.053C196.885 194.891 200.697 193.365 208.908 191.369C216.885 189.432 221.871 182.153 220.874 174.11ZM206.914 182.74C197.53 184.97 192.779 187.025 181.166 194.598C163.042 206.338 143.218 211.798 143.218 211.798C143.218 211.798 141.575 214.263 136.824 215.379C128.613 217.375 97.7033 219.077 94.8879 219.136C87.3218 219.194 82.6882 217.199 81.3979 214.087C77.4681 204.695 87.0285 200.585 87.0285 200.585C87.0285 200.585 84.917 199.294 83.6853 198.12C82.5709 197.005 81.3979 194.774 81.0459 195.596C79.5796 199.177 78.8171 207.923 74.8874 211.857C69.4914 217.316 59.2859 215.496 53.2446 212.326C46.6169 208.804 53.7139 200.527 53.7139 200.527C53.7139 200.527 50.1361 202.64 47.2621 198.296C44.6814 194.304 42.2766 187.495 42.9218 179.1C43.6256 169.531 54.3004 160.256 54.3004 160.256C54.3004 160.256 52.4235 146.109 58.582 131.609C64.154 118.401 79.1691 107.775 79.1691 107.775C79.1691 107.775 66.5588 93.804 71.251 81.2414C74.3009 73.0229 75.5326 73.0816 76.5297 72.7294C80.0489 71.3792 83.4507 69.9117 85.9728 67.1526C98.583 53.5334 114.654 56.1164 114.654 56.1164C114.654 56.1164 122.279 32.9285 129.317 37.4487C131.487 38.8575 139.288 56.2338 139.288 56.2338C139.288 56.2338 147.617 51.3614 148.555 53.1812C153.599 62.9847 154.186 81.7111 151.957 93.0995C148.203 111.885 138.819 121.982 135.065 128.322C134.185 129.789 145.153 134.427 152.074 153.623C158.467 171.175 152.778 185.91 153.775 187.553C153.951 187.847 154.01 187.964 154.01 187.964C154.01 187.964 161.341 188.551 176.063 179.452C183.922 174.58 193.248 169.12 203.864 169.003C214.129 168.827 214.656 180.861 206.914 182.74Z" fill="white"/>
</svg>
