<svg width="256" height="256" viewBox="0 0 256 256" fill="none" xmlns="http://www.w3.org/2000/svg">
<rect width="256" height="256" fill="#232932"/>
<path d="M143.814 114.317C137.859 100.017 177.636 35.2743 197.615 28.4819C208.079 24.9239 219.669 41.7848 222.947 55.4862C226.24 69.2494 224.795 83.6388 215.706 94.7533C205.463 107.279 149.232 127.328 143.814 114.317Z" fill="#63C862"/>
<path d="M129.199 117.456C120.559 121.744 98.7132 116.241 75.8902 107.498C55.7866 99.7974 31.3389 79.3722 31.0126 73.0187C30.5178 63.3803 44.6274 54.6295 60.9295 51.6389C77.3047 48.6345 96.5245 48.0255 107.341 57.1073C125.678 72.5033 145.32 109.455 129.199 117.456Z" fill="#FFCA3D"/>
<path d="M143.613 130.474C158.972 138.52 177.25 215.25 169.571 223.98C162.643 231.855 143.674 227.13 130.456 218.679C117.178 210.19 111.245 195.678 112.153 182.611C113.69 160.458 128.253 122.428 143.613 130.474Z" fill="#4EBFFE"/>
</svg>
