<svg width="256" height="256" viewBox="0 0 256 256" fill="none" xmlns="http://www.w3.org/2000/svg">
<rect width="256" height="256" fill="#232932"/>
<g clip-path="url(#clip0_88_614)">
<mask id="mask0_88_614" style="mask-type:luminance" maskUnits="userSpaceOnUse" x="33" y="33" width="190" height="190">
<path d="M33 33H223V223H33V33Z" fill="white"/>
</mask>
<g mask="url(#mask0_88_614)">
<path fill-rule="evenodd" clip-rule="evenodd" d="M50.8125 44.875C49.2378 44.875 47.7276 45.5006 46.6141 46.6141C45.5006 47.7276 44.875 49.2378 44.875 50.8125V181.437H33V50.8125C33 46.0883 34.8767 41.5577 38.2172 38.2172C41.5577 34.8767 46.0883 33 50.8125 33H209.896C217.83 33 221.803 42.593 216.194 48.204L118.213 146.183H145.812V133.937H157.687V149.153C157.687 151.515 156.749 153.781 155.079 155.451C153.409 157.121 151.143 158.06 148.781 158.06H106.338L85.9289 178.469H178.469V104.25H190.344V178.469C190.344 181.618 189.093 184.639 186.866 186.866C184.639 189.093 181.618 190.344 178.469 190.344H74.0539L53.2726 211.125H205.187C206.762 211.125 208.272 210.499 209.386 209.386C210.499 208.272 211.125 206.762 211.125 205.187V74.5625H223V205.187C223 209.912 221.123 214.442 217.783 217.783C214.442 221.123 209.912 223 205.187 223H46.1041C38.1696 223 34.1974 213.407 39.8064 207.796L137.415 110.187H110.187V122.062H98.3125V107.219C98.3125 104.857 99.2508 102.591 100.921 100.921C102.591 99.2508 104.857 98.3125 107.219 98.3125H149.29L170.071 77.5312H77.5312V151.75H65.6562V77.5312C65.6562 74.3818 66.9074 71.3613 69.1344 69.1344C71.3613 66.9074 74.3818 65.6562 77.5312 65.6562H181.946L202.727 44.875H50.8125Z" fill="white"/>
</g>
</g>
<defs>
<clipPath id="clip0_88_614">
<rect width="190" height="190" fill="white" transform="translate(33 33)"/>
</clipPath>
</defs>
</svg>
