<svg width="256" height="256" viewBox="0 0 256 256" fill="none" xmlns="http://www.w3.org/2000/svg">
<rect width="256" height="256" fill="#232932"/>
<g clip-path="url(#clip0_84_12717)">
<path fill-rule="evenodd" clip-rule="evenodd" d="M128 166.463C149.241 166.463 166.462 149.244 166.462 128C166.462 106.759 149.244 89.5376 128 89.5376C106.759 89.5376 89.5375 106.756 89.5375 128C89.5375 149.241 106.756 166.463 128 166.463ZM158.769 128C158.769 144.994 144.994 158.769 128 158.769C111.006 158.769 97.2312 144.994 97.2312 128C97.2312 111.006 111.006 97.2313 128 97.2313C144.994 97.2313 158.769 111.006 158.769 128Z" fill="#F76F53"/>
<path fill-rule="evenodd" clip-rule="evenodd" d="M194.666 128C194.666 164.819 164.822 194.666 128 194.666C91.1812 194.666 61.3344 164.822 61.3344 128C61.3344 91.1813 91.1781 61.3345 128 61.3345C164.819 61.3345 194.666 91.1782 194.666 128ZM128 181.844C157.737 181.844 181.844 157.738 181.844 128C181.844 98.2626 157.741 74.1563 128 74.1563C98.2593 74.1563 74.1562 98.2595 74.1562 128C74.1562 157.741 98.2593 181.844 128 181.844Z" fill="#F76F53"/>
<path fill-rule="evenodd" clip-rule="evenodd" d="M228 128C228 183.228 183.228 228 128 228C72.7719 228 28 183.228 28 128C28 72.7719 72.7719 28 128 28C183.228 28 228 72.7719 228 128ZM128 210.05C173.316 210.05 210.05 173.316 210.05 128C210.05 82.6844 173.316 45.95 128 45.95C82.6844 45.95 45.95 82.6844 45.95 128C45.95 173.316 82.6844 210.05 128 210.05Z" fill="#F76F53"/>
</g>
<defs>
<clipPath id="clip0_84_12717">
<rect width="200" height="200" fill="white" transform="translate(28 28)"/>
</clipPath>
</defs>
</svg>
