<svg width="256" height="256" viewBox="0 0 256 256" fill="none" xmlns="http://www.w3.org/2000/svg">
<rect width="256" height="256" fill="#242932"/>
<path d="M178.414 29.722C176.175 29.7871 173.963 30.2308 171.872 31.0345C170.897 31.4095 169.502 32.1584 167.688 33.2813C166.335 34.1178 164.967 34.9304 163.586 35.7188C161.904 37.2409 160.214 38.7545 158.517 40.2595C156.885 41.9118 155.449 43.7463 154.236 45.7267C154.206 45.7767 154.187 45.8357 154.182 45.8998C154.176 45.9639 154.183 46.0316 154.203 46.0985C154.272 46.3298 154.211 46.4688 154.022 46.5157C153.855 46.5584 153.724 46.6168 153.659 46.6782C152.843 47.4915 152.272 48.5181 152.011 49.6407C151.903 50.0782 151.725 50.5178 151.477 50.9595C151.237 51.3562 151.06 51.7872 150.952 52.2376C150.842 52.7938 150.734 53.3496 150.628 53.9048C150.579 54.0885 150.49 54.2591 150.368 54.4046C150.246 54.5502 150.093 54.667 149.92 54.747C140.059 51.9285 129.807 50.7229 119.561 51.1767C119.11 51.1943 118.662 51.2609 118.225 51.3751C117.788 51.4918 117.352 51.6199 116.919 51.7595C106.094 52.3104 95.459 54.8153 85.5266 59.1532C84.7993 58.8417 84.192 58.3035 83.7953 57.6188L83.1953 56.5985C81.5718 54.2872 79.7043 52.1572 77.625 50.2454C76.9261 49.3662 75.7683 48.4339 74.1516 47.4485C70.3599 45.136 66.4724 43.9188 62.4891 43.797L61.5735 43.8392C61.1613 43.8574 60.749 43.8046 60.3547 43.6829C59.2303 43.6434 58.121 43.9517 57.1781 44.5657L55.9063 45.3876C52.5875 47.3043 49.9677 49.8798 48.0469 53.1142C45.8625 56.8017 44.2792 60.8267 43.2969 65.1892C42.6906 67.8683 42.4542 70.8381 42.5875 74.0985C42.7052 74.3902 42.7912 74.6902 42.8453 74.9985C42.8891 75.2402 42.8615 75.5412 42.7625 75.9017C42.6282 76.3958 42.5583 76.9052 42.5547 77.4173C42.5485 77.7923 42.6656 78.2746 42.9063 78.8642C43.3959 80.0725 43.5688 81.3402 43.425 82.6673C44.2188 86.1464 44.8453 88.7251 45.3047 90.4032C45.4276 90.8532 45.4334 91.2365 45.3219 91.5532L44.8703 92.4938C43.7602 93.5164 42.8026 94.693 42.0266 95.9876C41.112 97.5126 40.6297 98.3152 40.5797 98.3954C40.0235 99.3048 39.5339 100.255 39.111 101.245C33.8219 110.13 30.3912 119.996 29.0266 130.245C28.5848 131.44 28.3974 132.713 28.4766 133.984C28.0922 136.618 27.9405 139.28 28.0235 141.941L28.1781 146.727C28.2104 149.626 28.3099 151.614 28.4766 152.692C29.2456 157.655 30.4428 162.542 32.0547 167.299L32.5547 168.158C34.0371 172.687 35.8978 177.084 38.1172 181.302C39.2516 183.454 40.1224 184.917 40.7297 185.692C42.2119 188.123 43.8372 190.463 45.5969 192.7L46.7906 194.303C47.4948 195.244 48.2964 196.101 49.1953 196.875C50.1401 198.023 51.0813 199.172 52.0188 200.324C53.6091 201.654 55.1628 203.028 56.6781 204.444C58.1927 205.856 59.5625 206.974 60.7875 207.797C63.3356 209.503 65.9733 211.072 68.6891 212.497C70.6504 213.9 72.6533 215.243 74.6953 216.525C75.9641 217.445 77.4464 218.228 79.1422 218.875C82.613 220.203 85.8255 221.275 88.7797 222.089C89.8735 222.389 91.3422 222.985 93.186 223.877C93.3095 223.938 93.4491 223.963 93.5891 223.95C94.4582 223.865 95.3338 223.871 96.2016 223.969C97.5672 224.315 98.9344 224.655 100.303 224.991C101.442 225.267 105.892 225.664 113.655 226.181C115.813 226.326 117.978 226.32 120.136 226.166C124.388 226.387 128.651 226.274 132.886 225.827C134.183 225.69 135.77 225.405 137.647 224.972C139.224 224.613 140.807 224.279 142.395 223.969C144.103 223.339 145.848 222.816 147.62 222.403C150.329 221.246 153.055 220.131 155.798 219.058C156.565 218.756 157.459 218.298 158.481 217.683C159.471 217.084 160.388 216.645 161.233 216.366C163.237 215.708 164.956 214.836 166.389 213.749C166.814 213.426 167.319 213.172 167.905 212.988C168.819 212.7 169.674 212.25 170.428 211.659C172.337 210.668 174.173 209.543 175.922 208.291C177.663 207.038 179.365 205.73 181.023 204.369C183.971 201.973 186.697 199.316 189.166 196.43C189.906 195.562 190.767 194.805 191.723 194.183C192.947 192.777 194.091 191.304 195.15 189.77C200.337 183.382 204.562 176.269 207.691 168.658C208.005 168.095 208.299 167.524 208.572 166.944C208.75 166.567 208.919 165.956 209.078 165.113C209.176 164.576 209.344 164.055 209.577 163.563C209.758 163.177 209.896 162.73 209.991 162.222C210.079 161.75 210.244 161.295 210.48 160.877C210.751 160.403 210.916 160.001 210.977 159.672C211.058 159.232 211.134 158.794 211.206 158.356C211.228 158.239 211.198 158.105 211.123 157.981C210.861 157.544 210.97 157.201 211.452 156.952C211.859 156.381 212.059 155.689 212.017 154.989C212.01 154.85 212.04 154.716 212.103 154.602C212.58 153.727 212.832 152.748 212.838 151.752C213.342 148.936 213.702 146.105 213.919 143.259C213.922 143.249 214.007 142.645 214.175 141.447C214.269 140.775 214.268 140.073 214.172 139.341C213.96 137.703 213.933 136.047 214.094 134.403C213.885 133.578 213.869 132.716 214.047 131.884C214.073 131.757 214.059 131.621 214.005 131.494C213.911 131.266 213.847 131.03 213.813 130.786C213.784 130.599 213.824 130.299 213.931 129.886C214.028 129.518 214.021 129.204 213.909 128.944C213.638 128.285 213.487 127.582 213.464 126.869C213.461 126.773 213.495 126.679 213.559 126.607C213.623 126.535 213.712 126.491 213.808 126.483C215.523 126.356 217.173 125.774 218.589 124.799C219.597 124.11 220.566 123.365 221.491 122.569C222.603 122.005 223.473 121.058 223.941 119.902C224.334 119.37 224.707 118.829 225.058 118.277C225.125 118.172 225.149 118.035 225.125 117.892C225.058 117.495 225.173 117.228 225.469 117.091C225.614 117.026 225.725 116.94 225.781 116.849C227.259 114.48 227.971 111.714 227.822 108.927C227.821 108.792 227.849 108.659 227.905 108.536C228.015 108.302 228.03 108.034 227.944 107.789L227.752 107.22C227.396 105.555 226.759 103.961 225.869 102.509C225.769 102.34 225.629 102.199 225.461 102.097C224.872 101.74 224.532 101.4 224.441 101.078C224.373 100.845 224.218 100.648 224.008 100.528C222.75 99.8091 221.558 98.982 220.444 98.0563C220.044 97.723 219.042 97.3673 217.438 96.9892C216.713 97.0016 215.989 96.974 215.267 96.9063C214.208 96.8095 213.492 96.774 213.119 96.8001C211.579 96.9041 210.081 97.3527 208.738 98.1126C207.491 98.4932 206.265 98.9359 205.063 99.4391C205.01 99.461 204.951 99.4625 204.898 99.4435C204.844 99.4245 204.798 99.3862 204.77 99.336C200.528 91.439 195.161 84.1995 188.839 77.8438C188.479 77.4834 188.397 77.0589 188.595 76.5704L191.205 70.1407C193.036 65.3532 194.221 60.2621 194.759 54.8673C195.283 49.6131 194.648 44.6043 192.853 39.8407C192.713 39.5347 192.547 39.2419 192.355 38.9657C190.507 35.3678 187.844 32.6584 184.366 30.8376H184.363C183.22 30.2397 181.968 29.8799 180.683 29.7798C179.928 29.7177 179.171 29.6979 178.414 29.7204V29.722ZM177.75 32.6001C178.49 32.6305 179.227 32.7267 179.95 32.8876C180.429 32.9977 180.9 33.136 181.363 33.3017C180.201 32.8839 178.983 32.6473 177.75 32.6001ZM187.772 37.8345C187.8 37.9418 187.816 38.0518 187.82 38.1626C187.819 38.2483 187.801 38.3328 187.766 38.411C187.783 38.3758 187.796 38.337 187.805 38.2985C187.824 38.2027 187.825 38.1041 187.808 38.0079C187.799 37.9495 187.787 37.8916 187.772 37.8345ZM174.534 40.0079C174.112 40.0123 173.689 40.0358 173.269 40.0782C173.684 40.0345 174.105 40.0105 174.533 40.0063L174.534 40.0079ZM175.842 40.0532C176.73 40.1209 177.609 40.2726 178.467 40.5063C180.106 40.9526 181.631 41.7455 182.938 42.8313V42.8329C181.631 41.747 180.106 40.9542 178.467 40.5079C177.609 40.2736 176.73 40.1214 175.842 40.0532ZM166.448 42.9485C165.37 43.8246 164.299 44.7115 163.236 45.6095C161.892 46.7358 160.69 48.0218 159.658 49.4391C158.631 50.863 157.779 52.4054 157.12 54.0329L155.433 58.2954L157.117 54.0329C157.791 52.3766 158.637 50.8454 159.658 49.4391C160.689 48.021 161.89 46.7339 163.233 45.6063C164.297 44.7105 165.369 43.8235 166.448 42.9485ZM175.269 42.2438C177.272 42.2032 179.107 42.772 180.773 43.9501C181.357 44.3595 181.82 44.9329 182.164 45.6704C183.118 47.6872 183.871 49.7932 184.411 51.9579L184.786 54.9751C184.797 55.0749 184.863 55.2032 184.97 55.3345C185.285 55.7251 185.295 56.1449 185.002 56.5938C184.504 57.3438 184.355 58.2319 184.555 59.2579C184.59 59.4439 184.585 59.6352 184.54 59.8187C184.495 60.0021 184.41 60.1733 184.292 60.3204C184.147 60.4877 184.053 60.6934 184.021 60.9128C183.989 61.1322 184.021 61.3561 184.113 61.5579C183.685 61.9371 183.546 62.3902 183.694 62.9173L183.383 64.3782L182.966 65.4251C182.955 65.541 182.907 65.6502 182.828 65.736L182.834 65.7548L182.825 65.736C182.749 65.9417 182.722 66.1622 182.747 66.38C182.771 66.5979 182.846 66.807 182.966 66.9907C182.216 67.5532 181.763 68.2845 181.606 69.1845H181.603C181.472 69.632 181.436 70.1019 181.497 70.5642C181.559 71.1162 181.378 71.2157 180.953 70.8626C173.984 65.0918 166.36 60.6345 158.081 57.4907C158.05 57.4781 158.023 57.4598 158.002 57.4379C157.982 57.4159 157.969 57.391 157.966 57.3657L157.953 57.2735L160.044 54.0329C162.953 49.3621 166.811 45.7824 171.619 43.2938C172.923 42.6188 174.14 42.2688 175.269 42.2438ZM184.58 46.8188H184.595V46.822L184.58 46.8188ZM64.161 48.0392C64.2256 48.033 64.2874 48.0383 64.3438 48.0548C64.2295 48.0242 64.0956 48.0391 63.9656 48.097C64.03 48.0671 64.0961 48.0475 64.161 48.0392ZM186.35 48.4048C186.48 48.4808 186.558 48.5694 186.584 48.6704C186.609 48.7735 186.582 48.8886 186.502 49.0157C186.58 48.8876 186.607 48.7714 186.584 48.6704C186.558 48.5683 186.48 48.4813 186.35 48.4063V48.4048ZM66.8188 48.4782L66.9375 48.4907L67.0203 48.5188C66.9933 48.5095 66.9656 48.5011 66.9375 48.4938L66.8188 48.4782ZM70.961 49.1142L71.0156 49.1345L71.0328 49.1376H71.0156L70.961 49.1142ZM193.341 50.8688L193.319 50.947C193.324 50.9199 193.331 50.8938 193.341 50.8688ZM193.305 51.6032L193.314 51.6501C193.461 52.2563 193.586 52.8683 193.689 53.486H193.686C193.584 52.8696 193.459 52.2572 193.311 51.6501L193.305 51.6032ZM152.833 51.8392C152.869 51.9139 152.916 51.9825 152.973 52.0423C153.132 52.2058 153.341 52.2376 153.602 52.1376C153.342 52.2376 153.132 52.2063 152.972 52.0438C152.914 51.9835 152.868 51.9144 152.833 51.8392ZM153.977 52.0954C153.981 52.0954 153.985 52.0954 153.989 52.0954C154.036 52.1063 154.08 52.1251 154.127 52.1376L153.989 52.0985C153.985 52.0974 153.981 52.0964 153.977 52.0954ZM128.384 52.647C128.259 52.6447 128.134 52.6499 128.009 52.6626C128.13 52.647 128.255 52.6418 128.384 52.647ZM192.041 53.8063C192.165 53.873 192.238 53.9548 192.259 54.0517C192.284 54.1454 192.259 54.2543 192.184 54.3782C192.259 54.2553 192.285 54.1459 192.261 54.0501C192.237 53.9563 192.163 53.8751 192.041 53.8063ZM103.309 54.8688C102.811 54.9553 100.934 55.5017 97.6781 56.5079C100.936 55.5017 102.813 54.9553 103.308 54.8688H103.309ZM193.033 54.8813C193.062 54.874 193.092 54.8751 193.12 54.8845C193.004 54.8553 192.856 54.9376 192.678 55.1313C192.814 54.9834 192.932 54.9001 193.033 54.8813ZM193.386 55.3235C193.461 55.6787 193.491 56.0277 193.475 56.3704C193.459 56.7131 193.4 57.049 193.295 57.3782C193.312 58.6202 193.136 59.8573 192.773 61.0454C192.701 61.285 192.475 61.7105 192.095 62.322C192.475 61.7126 192.701 61.2871 192.773 61.0454C193.135 59.861 193.309 58.6386 193.295 57.3782C193.506 56.7133 193.538 56.0044 193.386 55.3235ZM150.122 55.1048C150.152 55.3168 150.113 55.5329 150.009 55.7204C150.06 55.6247 150.095 55.522 150.116 55.4157C150.135 55.3126 150.137 55.2086 150.122 55.1048ZM123.27 55.3329L123.322 55.336L123.216 55.3392L123.27 55.3329ZM119.092 55.3657L119.144 55.3688L119.041 55.372L119.092 55.3657ZM124.894 55.4032L124.942 55.4063H124.945V55.4095L124.894 55.4032ZM121.656 55.4704L121.6 55.4798L121.569 55.4767H121.597L121.656 55.4704ZM114.281 55.4938C114.197 55.6479 114.089 55.788 113.963 55.9095C114.073 55.8126 114.178 55.674 114.281 55.4938ZM129.463 55.5735H129.563L129.463 55.5767V55.5735ZM118.695 55.8595C117.833 55.9662 116.974 56.1017 116.12 56.2657C116.588 56.193 117.055 56.1117 117.52 56.022C117.911 55.9626 118.303 55.9074 118.695 55.8595ZM149.805 56.0157C150.371 56.2449 150.933 56.4897 151.489 56.7501C151.838 56.8105 152.17 56.8912 152.484 56.9923C152.158 56.8893 151.826 56.8095 151.489 56.7501C150.934 56.4909 150.373 56.2449 149.805 56.0157ZM105.647 56.1407C105.649 56.1407 105.652 56.1407 105.655 56.1407C105.652 56.1417 105.649 56.1428 105.647 56.1438V56.1407ZM105.975 56.1407C105.978 56.1407 105.981 56.1407 105.984 56.1407C106.229 56.3043 106.495 56.4105 106.781 56.4595L106.864 56.4501L106.786 56.461C106.499 56.4139 106.226 56.3057 105.984 56.1438C105.982 56.1428 105.978 56.1417 105.975 56.1407ZM128.042 56.3923C128.042 56.4079 128.034 56.4235 128.019 56.4392C128.034 56.4214 128.042 56.4069 128.042 56.3923ZM101.638 59.9892C98.8219 60.3496 96.5115 60.7923 94.7063 61.3173C94.1511 61.4768 93.6037 61.6619 93.0656 61.872C93.0531 61.8782 93.0469 61.8767 93.0344 61.8813L93.0656 61.872C93.6037 61.6619 94.1511 61.4768 94.7063 61.3173C96.5125 60.7912 98.824 60.3485 101.638 59.9892ZM106.617 57.5642C106.58 57.5645 106.544 57.5714 106.509 57.5845C106.543 57.5693 106.58 57.5623 106.617 57.5642ZM190.52 59.5782C190.487 59.922 190.481 60.3397 190.503 60.8313L190.5 60.8907V60.8345C190.479 60.4157 190.485 59.996 190.52 59.5782ZM64.2094 60.8845C64.2738 60.8857 64.3406 60.9012 64.4047 60.9298C64.6891 61.0579 65.0464 61.0923 65.4766 61.0329C65.7047 61.0037 65.9693 61.0506 66.2703 61.1735C66.5086 61.2791 66.7581 61.3572 67.0141 61.4063C70.1058 61.922 72.4755 63.5136 74.1235 66.1813C74.3005 66.4668 74.6521 66.7365 75.1781 66.9907L79.811 72.2173L82.936 76.8173C82.9727 76.8714 82.9937 76.9348 82.9967 77.0003C82.9997 77.0659 82.9847 77.1313 82.9531 77.1892C82.5631 77.9315 81.9774 78.5529 81.2594 78.986C81.2311 79.0024 81.2002 79.0137 81.1687 79.0195C81.1373 79.0252 81.1059 79.0251 81.0765 79.0192C81.0472 79.0133 81.0205 79.0018 80.9982 78.9854C80.9759 78.9689 80.9584 78.9478 80.9469 78.9235L80.6469 78.2782C80.6417 77.8543 80.4667 77.5704 80.1219 77.4267C80.065 77.4033 80.0011 77.3956 79.9359 77.4043C79.8708 77.413 79.8064 77.4379 79.7485 77.4767C78.4828 78.3037 78.4974 79.1569 79.7922 80.036V80.0392C79.8953 80.1152 79.936 80.2251 79.9141 80.3688C79.7567 80.5118 79.6384 80.6925 79.5703 80.8938L79.5813 80.9423L79.5656 80.8954L77.6641 82.661C77.6105 82.711 77.5453 82.7471 77.4746 82.7661C77.4038 82.785 77.3296 82.7863 77.2585 82.7697C77.1875 82.7532 77.1218 82.7193 77.0674 82.6711C77.0131 82.623 76.9716 82.5621 76.9469 82.4938L76.2703 80.5954C76.2482 80.5342 76.2105 80.4814 76.1628 80.4447C76.1151 80.4079 76.0597 80.389 76.0047 80.3907C75.1349 80.4115 74.8849 80.8683 75.2547 81.761C75.5885 82.5716 75.7712 83.4363 75.7938 84.3126C75.7981 84.4476 75.7562 84.5808 75.675 84.6907C74.8296 85.8684 73.8071 86.9083 72.6438 87.7735C72.5895 87.8139 72.5248 87.8359 72.4636 87.8347C72.4023 87.8335 72.3492 87.8093 72.3156 87.7673C72.2084 87.6235 72.1615 87.3881 72.175 87.061C72.1783 87.0022 72.1677 86.9434 72.1441 86.8894C72.1204 86.8355 72.0844 86.7878 72.0389 86.7504C71.9934 86.713 71.9397 86.6868 71.8822 86.674C71.8247 86.6612 71.7649 86.6621 71.7078 86.6767C70.1901 87.0558 70.0985 87.7345 71.4328 88.7126L70.9953 89.6704L67.9844 92.5095C67.67 92.1466 67.4538 91.7093 67.3563 91.2391C67.2308 90.4929 66.9179 89.7908 66.4469 89.1985C66.4316 89.1787 66.4117 89.1629 66.3889 89.1526C66.3661 89.1422 66.3412 89.1376 66.3162 89.1392C66.2912 89.1407 66.267 89.1484 66.2457 89.1614C66.2243 89.1745 66.2065 89.1926 66.1938 89.2141C66.0522 89.4266 65.9403 89.6574 65.861 89.9001C65.7985 90.0938 65.6891 90.3214 65.5328 90.5829C65.2808 91.0089 65.4245 91.2881 65.9641 91.4204C66.0073 91.4313 66.0462 91.4567 66.0753 91.4931C66.1045 91.5295 66.1224 91.5751 66.1266 91.6235L66.3281 93.9563C66.0677 95.2074 65.3016 95.8694 64.0297 95.9423C63.9313 95.0937 63.5998 94.2889 63.0719 93.6173C63.0328 93.569 62.9786 93.5355 62.9187 93.5227C62.8588 93.5099 62.797 93.5185 62.7438 93.547C62.2521 93.8053 62.1792 94.2282 62.525 94.8157C62.7636 95.7199 63.0209 96.6183 63.2969 97.511C62.5531 98.26 61.6469 98.6079 60.5781 98.5548C59.783 97.0752 59.1221 95.5273 58.6031 93.9298C58.1913 93.1993 57.9389 92.3899 57.8625 91.5548L57.4094 90.5079C57.1467 90.5873 56.8691 90.605 56.5985 90.5595C56.3858 90.5166 56.1978 90.3935 56.0735 90.2157C55.9651 90.0605 55.8328 89.6928 55.6766 89.1126C55.5974 88.8103 55.5436 88.5019 55.5156 88.1907C55.5448 88.5084 55.5985 88.8157 55.6766 89.1126C55.8328 89.6938 55.9651 90.0626 56.0735 90.2157C56.1978 90.3935 56.3858 90.5166 56.5985 90.5595C56.8203 90.6084 57.0896 90.5902 57.4094 90.5079H57.4141C57.3742 90.0727 57.2851 89.6434 57.1485 89.2282C57.0011 88.8259 56.9097 88.4053 56.8766 87.9782C56.7716 85.9677 56.4755 83.9717 55.9922 82.0173C55.8828 81.5746 55.7995 80.8168 55.7422 79.7438C55.7266 79.7485 55.711 79.7454 55.6953 79.7501L55.7375 79.7407C55.8174 79.0337 55.7406 78.3178 55.5125 77.6438C55.4696 77.5118 55.4599 77.3712 55.4844 77.2345C55.675 76.2345 55.7656 75.2235 55.7563 74.2017C55.8874 73.6275 55.8116 73.0254 55.5422 72.5017C55.5159 72.4491 55.506 72.3894 55.5138 72.3297C55.5216 72.27 55.5466 72.2131 55.586 72.1657C55.7035 72.0391 55.7912 71.8878 55.8426 71.7228C55.8939 71.5579 55.9077 71.3835 55.8828 71.2126C55.8026 70.7097 55.8604 70.1945 56.05 69.722C56.6577 68.159 57.4039 66.6535 58.2797 65.2235C58.7513 64.4589 59.3784 63.8019 60.1203 63.2954C61.3727 62.4214 62.6795 61.6281 64.0328 60.9204C64.0849 60.895 64.1453 60.8827 64.2094 60.8845ZM73.0656 60.9517C73.3344 61.3152 73.612 61.6699 73.8985 62.0157C73.612 61.672 73.3344 61.3173 73.0656 60.9517ZM116.716 61.0095C117.266 60.9657 117.776 61.1865 118.247 61.672C119.131 62.5857 119.856 63.6409 120.392 64.7938C120.44 64.898 120.523 65.0022 120.642 65.1063C120.941 65.3813 121.156 65.8006 121.286 66.3642C121.462 67.1287 121.779 67.8527 122.236 68.536C122.267 68.5839 122.286 68.6387 122.29 68.6955C122.295 68.7523 122.286 68.8094 122.264 68.8618C122.241 68.9143 122.207 68.9604 122.162 68.9963C122.118 69.0321 122.065 69.0565 122.009 69.0673C121.275 69.1985 120.723 69.0069 120.353 68.4923C120.103 68.1385 119.85 67.7874 119.592 67.4392C118.009 65.7865 116.755 63.8465 115.9 61.7235C115.878 61.6685 115.867 61.6097 115.868 61.5505C115.868 61.4913 115.881 61.4329 115.904 61.3787C115.927 61.3245 115.961 61.2755 116.003 61.2347C116.045 61.1939 116.095 61.1619 116.15 61.1407C116.343 61.0678 116.531 61.024 116.716 61.0095ZM88.8094 62.1313L88.7578 62.1595L88.7188 62.172C88.7344 62.1673 88.7391 62.161 88.7547 62.1563L88.8094 62.1313ZM88.0469 62.5813L88.0438 62.5891L88.0406 62.586L88.0469 62.5813ZM85.1203 63.0173C85.235 62.9947 85.3527 63.0046 85.459 63.0457C85.5653 63.0867 85.6556 63.1572 85.7188 63.2485V63.2517C85.6556 63.1604 85.5653 63.0899 85.459 63.0488C85.3527 63.0077 85.235 62.9978 85.1203 63.0204L83.0328 63.4376C82.8842 63.4744 82.731 63.4891 82.5781 63.4813C82.6875 63.4897 82.8391 63.474 83.0328 63.4345L85.1203 63.0173ZM163.058 63.1813C163.114 63.2063 163.183 63.2282 163.239 63.2517C165.14 64.0658 166.992 64.9903 168.786 66.0204C169.511 66.4381 171.283 67.5022 174.103 69.2126C172.338 68.1357 170.565 67.0726 168.783 66.0235C167.887 65.5075 166.976 65.0177 166.052 64.5548C165.127 64.0942 164.189 63.6607 163.239 63.2548L163.058 63.1813ZM183.881 64.3157C183.95 64.3886 184.01 64.4449 184.061 64.4845C184.112 64.5261 184.154 64.5537 184.186 64.5673C184.14 64.5466 184.098 64.5186 184.061 64.4845C183.999 64.4311 183.939 64.3738 183.881 64.3157ZM89.0844 64.6157C89.1938 64.847 89.2985 65.0782 89.436 65.2938C89.7938 65.9907 90.1797 66.672 90.561 67.3563C90.1797 66.672 89.7906 65.9923 89.4328 65.2938C89.2953 65.0782 89.1938 64.8454 89.0844 64.6157ZM75.2625 64.7251C75.3792 64.8115 75.4974 64.8933 75.6172 64.9704C76.6735 65.6339 77.4302 66.2808 77.8875 66.911C77.4292 66.2819 76.6724 65.636 75.6172 64.9735C75.4962 64.8953 75.3779 64.8114 75.2625 64.7251ZM87.9401 64.7602C87.998 64.7736 88.0456 64.8047 88.075 64.8485V64.8517C88.0465 64.8069 87.9981 64.7744 87.9401 64.7602ZM146.045 65.497C146.206 65.5338 146.356 65.6065 146.484 65.7095C146.794 65.9449 147.019 66.372 147.159 66.9907C148.034 70.9095 148.468 72.8959 148.459 72.9501C148.366 73.6188 148.498 74.223 148.856 74.7626C148.895 74.8204 148.92 74.8844 148.929 74.9483C148.937 75.0121 148.928 75.0736 148.903 75.1267C148.652 75.6787 148.215 75.9433 147.592 75.9204C147.531 75.9178 147.472 75.8959 147.421 75.8573C147.37 75.8188 147.33 75.7653 147.305 75.7032C146.866 74.658 146.585 73.5531 146.472 72.4251C145.72 70.7112 145.104 68.9412 144.628 67.1313C144.595 67.0055 144.588 66.8746 144.608 66.7469C144.627 66.6192 144.673 66.4974 144.742 66.3892C145.171 65.7121 145.606 65.4152 146.045 65.4985V65.497ZM172.47 65.8673C174.445 66.8756 176.288 68.123 177.958 69.5813C176.287 68.1242 174.444 66.8769 172.47 65.8673ZM101.358 65.8704C101.399 65.8657 101.442 65.8707 101.482 65.8851C101.523 65.8995 101.56 65.9229 101.591 65.9532C102.414 66.7511 103.144 67.6319 103.781 68.5954C104.059 69.0173 104.509 69.6371 105.131 70.4548C105.602 71.0662 105.996 71.7313 106.314 72.4501C106.723 73.3813 106.445 73.5907 105.478 73.0782C104.765 72.7046 104.099 72.2489 103.492 71.7204C102.812 71.1329 101.845 69.7912 100.592 67.6954C100.552 67.629 100.527 67.5591 100.518 67.4923C100.509 67.4255 100.517 67.3642 100.541 67.3142L101.169 66.0048C101.186 65.9684 101.212 65.9372 101.245 65.9138C101.277 65.8904 101.316 65.8755 101.358 65.8704ZM182.928 65.9188L182.941 65.9345H182.938L182.928 65.9188ZM88.0156 66.4595C88.1334 66.5165 88.2604 66.552 88.3906 66.5642C88.5064 66.5778 88.6153 66.6254 88.7035 66.7008C88.6156 66.6257 88.5074 66.5795 88.3922 66.5657C88.2619 66.553 88.1333 66.517 88.0156 66.4595ZM46.3391 66.6282C46.1844 67.222 45.9047 69.0423 45.5172 71.9438C45.9068 69.0168 46.1807 67.2449 46.3391 66.6282ZM91.2379 68.6852C91.242 68.7456 91.2317 68.8037 91.2078 68.8548C91.1037 69.0527 90.9719 69.1621 90.8125 69.1829C90.9709 69.1621 91.1016 69.0527 91.2047 68.8548C91.2291 68.804 91.2415 68.7456 91.2379 68.6852ZM186.258 68.9985C186.613 69.3262 187.008 69.6081 187.433 69.8376C187.239 69.6991 187.036 69.5738 186.825 69.4626C186.627 69.3191 186.438 69.1642 186.258 68.9985ZM79.9438 69.7829C80.1073 70.0985 80.2703 70.5032 80.4328 70.997C80.4766 71.1262 80.5569 71.2401 80.6641 71.3251C81.4496 71.9474 81.9718 72.8428 82.1266 73.8329C81.9714 72.8426 81.4486 71.9471 80.6625 71.3251C80.5559 71.2399 80.4762 71.126 80.4328 70.997C80.3015 70.5802 80.138 70.1743 79.9438 69.7829ZM182.909 69.7438C182.875 69.8737 182.819 69.9972 182.745 70.1095C182.695 70.1816 182.655 70.2605 182.627 70.3438C182.654 70.2607 182.693 70.1818 182.742 70.1095C182.817 69.9974 182.874 69.8739 182.909 69.7438ZM132.203 71.8704C132.318 71.8758 132.428 71.9125 132.523 71.9767C132.569 72.0069 132.605 72.0552 132.627 72.1163C132.649 72.1774 132.656 72.2486 132.648 72.322C132.57 72.9886 132.711 73.5584 133.072 74.0313C133.631 74.7688 133.919 75.1543 133.936 75.1876C134.198 75.7772 134.415 76.5027 134.586 77.3642C134.636 77.6194 134.743 77.8459 134.906 78.0438C135.51 78.7657 135.847 79.5683 135.916 80.4516C135.947 80.8579 135.784 80.9626 135.428 80.7657C135.114 80.5974 134.862 80.3322 134.711 80.0095C134.573 79.7072 134.427 79.4087 134.273 79.1142C133.921 78.5714 133.606 78.005 133.331 77.4188C132.225 75.8369 131.532 74.003 131.316 72.0845C131.312 72.0541 131.315 72.0228 131.323 71.9935C131.332 71.9643 131.347 71.9381 131.365 71.9175C131.384 71.897 131.407 71.8827 131.431 71.8761C131.455 71.8694 131.48 71.8707 131.503 71.8798L131.628 71.9345C131.672 71.9512 131.715 71.9607 131.754 71.9623C131.793 71.9639 131.828 71.9576 131.855 71.9438C131.964 71.8929 132.083 71.8677 132.203 71.8704ZM45.4938 72.111V72.1142H45.4781L45.4938 72.111ZM147.797 73.897C147.726 73.9022 147.579 74.0069 147.355 74.211C147.307 74.2556 147.274 74.314 147.261 74.3782C147.238 74.5324 147.309 74.5803 147.473 74.522C147.527 74.5032 147.579 74.4705 147.624 74.4259C147.67 74.3813 147.709 74.3258 147.739 74.2626C147.858 74.0126 147.877 73.8907 147.797 73.897ZM186.661 76.0876C186.674 76.0995 186.69 76.1085 186.706 76.1142C186.723 76.1199 186.741 76.122 186.758 76.1206C186.776 76.1191 186.793 76.114 186.808 76.1057C186.823 76.0973 186.836 76.0858 186.847 76.072L186.863 76.0485L186.85 76.072C186.849 76.072 186.848 76.072 186.847 76.072C186.836 76.0858 186.823 76.0973 186.808 76.1057C186.793 76.114 186.776 76.1191 186.758 76.1206C186.741 76.122 186.723 76.1199 186.706 76.1142C186.69 76.1085 186.674 76.0995 186.661 76.0876ZM82.3985 75.1423C82.6901 75.1537 82.9313 75.1954 83.1219 75.2673C82.8888 75.1879 82.6447 75.1457 82.3985 75.1423ZM117.494 75.6485C118.192 75.6194 118.797 76.0892 119.309 77.0579C119.501 77.4204 119.768 77.7136 120.111 77.9376C120.364 78.1043 120.432 78.3595 120.314 78.7032C120.247 78.8973 120.239 79.1064 120.29 79.3046C120.34 79.5027 120.448 79.681 120.6 79.8173C121.97 81.0412 122.747 82.2282 122.931 83.3782C123.002 83.8084 122.863 83.8938 122.513 83.6345C120.703 82.2933 119.021 80.7885 117.488 79.1392C117.397 79.0443 117.338 78.9186 117.319 78.7798C117.204 78.0308 116.815 77.4282 116.15 76.972C116.091 76.9314 116.043 76.8776 116.009 76.8148C115.976 76.7521 115.957 76.6823 115.955 76.6111C115.953 76.5399 115.968 76.4692 115.999 76.4048C116.029 76.3405 116.075 76.2842 116.131 76.2407C116.619 75.8636 117.073 75.6657 117.494 75.647V75.6485ZM83.4172 77.2688L83.4235 77.2845C83.4224 77.2845 83.4214 77.2845 83.4203 77.2845C83.4172 77.2798 83.4203 77.2735 83.4172 77.2688ZM54.8281 81.0407H54.8313L54.8281 81.047V81.0407ZM186.291 82.6735C186.424 82.6677 186.555 82.711 186.661 82.7954C188.692 84.4308 189.671 86.4886 189.598 88.9688C189.56 90.2178 189.237 91.1688 188.63 91.822C188.027 92.4688 187.251 92.7397 186.302 92.6345C185.57 92.5543 184.905 92.2022 184.305 91.5782C182.307 89.5053 182.133 87.0537 183.783 84.2235C184.353 83.2485 185.189 82.7319 186.291 82.6735ZM149.823 84.1751V84.1876L149.386 85.6157L149.82 84.1876C149.82 84.1824 149.821 84.1782 149.823 84.1751ZM55.761 84.4563C55.7679 84.4629 55.7747 84.4697 55.7813 84.4767C55.7742 84.4692 55.7669 84.4619 55.7594 84.4548L55.761 84.4563ZM192.273 84.8516C192.952 85.6537 193.634 86.5079 194.32 87.4142C195.589 89.0933 196.877 90.7589 198.184 92.411C198.821 93.2892 199.359 94.0746 199.798 94.7673C199.283 93.9667 198.744 93.1819 198.181 92.4141C196.875 90.7634 195.587 89.0982 194.317 87.4188C193.66 86.5439 192.979 85.6879 192.273 84.8516ZM55.0172 85.1142C55.1706 85.2646 55.2677 85.4632 55.2922 85.6766C55.2653 85.4639 55.1686 85.266 55.0172 85.1142ZM158.283 86.0126C159.03 86.023 159.777 86.1053 160.525 86.2595C161.275 86.4126 162.026 86.6381 162.778 86.936L166.541 88.0141C168.061 88.3662 169.525 88.8891 170.93 89.5829C172.479 90.1954 173.931 90.9683 175.288 91.9016C176.228 92.5516 177.518 93.561 179.156 94.9298C182.782 97.9635 185.873 101.583 188.303 105.638C188.358 105.728 188.464 105.784 188.601 105.793C188.737 105.802 188.893 105.764 189.034 105.686C189.49 105.436 189.972 105.264 190.481 105.17C190.989 105.08 191.17 105.192 191.025 105.506C191.005 105.548 190.967 105.592 190.914 105.635C190.861 105.678 190.795 105.72 190.719 105.756L189.184 106.489C189.134 106.515 189.096 106.56 189.077 106.617C189.059 106.674 189.06 106.738 189.081 106.797C189.495 107.894 190.061 108.928 190.763 109.867C192.421 113.714 193.667 117.726 194.481 121.836C194.504 121.946 194.484 122.083 194.425 122.224C194.241 122.659 194.256 123.37 194.472 124.356C194.514 124.548 194.541 124.743 194.553 124.942C194.584 125.589 194.667 126.238 194.8 126.889C194.902 127.4 194.917 127.883 194.845 128.339C194.726 129.095 194.661 129.584 194.653 129.805C194.172 142.49 189.338 152.984 180.152 161.286C173.993 166.855 166.686 170.272 158.23 171.539C158.205 171.543 157.904 171.629 157.327 171.795C156.985 171.892 156.623 171.887 156.284 171.78C156.155 171.738 156.018 171.728 155.884 171.75C152.968 172.251 150.319 172.308 147.938 171.922C146.847 171.743 145.984 171.69 145.35 171.763C145.215 171.779 145.078 171.76 144.953 171.708C143.626 171.13 142.233 170.719 140.805 170.484C139.65 169.924 138.471 169.415 137.272 168.958C133.145 167.393 129.345 165.075 126.066 162.122C119.772 156.466 115.403 149.356 112.958 140.794C112.919 140.656 112.893 140.515 112.881 140.372C112.776 138.949 112.561 137.838 112.238 137.039C111.993 136.432 111.843 135.792 111.792 135.139L111.886 133.884C111.965 132.863 111.385 132.339 110.147 132.313C109.647 132.304 109.628 132.204 110.089 132.011C110.536 131.824 111.026 131.907 111.558 132.261C111.722 132.37 111.796 132.332 111.78 132.145L111.478 128.989C111.475 128.938 111.454 128.882 111.416 128.829C111.378 128.775 111.324 128.725 111.259 128.681C110.923 128.455 110.923 128.228 111.259 128C111.379 127.917 111.465 127.811 111.503 127.699C111.734 126.959 111.82 126.199 111.759 125.417V124.58L111.741 124.574L111.759 124.577C112.094 122.649 112.618 120.759 113.325 118.934C114.014 115.006 115.369 111.225 117.331 107.753C117.696 107.582 117.795 107.308 117.628 106.931L119.284 104.825C120.821 102.072 122.851 99.6268 125.275 97.611V97.6142L128.08 95.6454C128.215 95.5652 128.328 95.4524 128.408 95.3173C129.212 94.8537 130.034 94.4267 130.875 94.036C131.873 93.046 133.019 92.2169 134.272 91.5782C137.053 90.5365 139.805 89.422 142.527 88.2345C143.613 88.1289 144.685 87.9143 145.728 87.5938C149.765 86.3553 153.741 86.0032 157.656 86.5376C159.758 86.824 161.466 86.9569 162.778 86.936C162.048 86.6451 161.294 86.4187 160.525 86.2595C159.787 86.1062 159.036 86.0235 158.283 86.0126ZM107.814 86.2345C107.87 86.2443 107.926 86.2663 107.977 86.2989C108.028 86.3315 108.073 86.374 108.109 86.4235C109.219 87.9489 110.416 89.4081 111.695 90.7938C112.172 91.2011 112.623 91.6365 113.047 92.1001C113.37 92.449 113.525 92.7725 113.511 93.0704C113.488 93.51 113.187 93.7641 112.608 93.8329C112.48 93.8503 112.345 93.8181 112.225 93.7423C111.03 92.9923 109.722 91.8173 108.302 90.2173C107.423 89.2329 106.836 88.3579 106.541 87.5923C106.513 87.52 106.501 87.4459 106.506 87.3796C106.512 87.3133 106.536 87.2578 106.573 87.2204L107.514 86.3173C107.552 86.2812 107.598 86.2552 107.649 86.2409C107.701 86.2266 107.758 86.2244 107.814 86.2345ZM135.028 90.147C135.24 90.1313 135.458 90.1313 135.684 90.147C134.778 90.0865 133.995 90.2688 133.334 90.6938C133.329 90.6949 133.324 90.696 133.319 90.697C133.324 90.6949 133.329 90.6928 133.334 90.6907C133.844 90.3704 134.427 90.1834 135.028 90.147ZM132.258 90.8251C132.156 90.8253 132.054 90.8305 131.953 90.8407C132.047 90.8293 132.148 90.824 132.258 90.8251ZM91.2391 91.286C91.6193 91.2277 92.0974 91.5522 92.6735 92.2595C93.012 92.8865 93.4657 93.3876 94.0344 93.7626C94.7479 94.2365 95.111 94.4787 95.1235 94.4892C96.161 95.3058 97.1917 96.1298 98.2156 96.961C98.4927 97.0964 98.7172 97.3397 98.8891 97.6907C98.9176 97.7498 98.9305 97.8153 98.9263 97.8808C98.9221 97.9463 98.9011 98.0097 98.8652 98.0647C98.8294 98.1197 98.78 98.1645 98.7217 98.1948C98.6635 98.2251 98.5984 98.2398 98.5328 98.2376C96.662 98.1574 95.2266 97.3464 94.2266 95.8048C94.1532 95.694 94.0426 95.6103 93.9125 95.5673C92.8885 95.2453 92.0304 94.5368 91.5203 93.5923C91.4582 93.4796 91.3493 93.3943 91.2172 93.3548C90.9522 93.2728 90.7078 93.1354 90.5 92.9516C90.453 92.9099 90.4181 92.8551 90.3989 92.7928C90.3797 92.7305 90.3769 92.663 90.3906 92.597C90.5761 91.7793 90.8589 91.3433 91.2391 91.286ZM130.097 93.6923C130 93.7727 129.867 93.812 129.725 93.8017C129.22 93.7641 128.857 93.8714 128.638 94.1235C128.857 93.8714 129.221 93.7636 129.728 93.8001C129.868 93.8104 130 93.7708 130.097 93.6923ZM46.7813 95.961C46.4247 96.4388 46.0296 96.8867 45.6 97.3001C45.52 98.0774 45.1739 98.8032 44.6203 99.3548C44.6172 99.3584 44.614 99.3621 44.611 99.3657C44.6129 99.3605 44.615 99.3553 44.6172 99.3501C45.1776 98.7876 45.5058 98.1043 45.6016 97.3001C46.0308 96.8866 46.424 96.4402 46.7813 95.961ZM123.795 96.2579C123.858 96.3121 123.895 96.3787 123.908 96.4579C123.919 96.5518 123.908 96.6469 123.877 96.736C123.809 96.9412 123.646 97.1933 123.389 97.4923C123.642 97.1954 123.809 96.9391 123.877 96.736C123.908 96.6469 123.919 96.5518 123.908 96.4579C123.895 96.3798 123.855 96.3085 123.795 96.2563V96.2579ZM122.388 97.4141C122.581 97.6016 122.76 97.7043 122.925 97.722C122.76 97.7063 122.581 97.6048 122.388 97.4141ZM48.0656 97.5501C48.5563 98.8642 49.1891 100.097 50.0406 101.209C49.1891 100.1 48.5563 98.8657 48.0656 97.5501ZM214.666 98.6001C217.4 98.4313 219.647 99.4558 221.408 101.674C221.496 101.707 221.537 101.782 221.53 101.899L223.166 103.077C223.503 103.32 223.469 103.452 223.064 103.47C221.989 103.525 222.065 103.984 223.291 104.85C223.658 105.113 223.919 105.455 224.072 105.878C224.386 106.756 224.522 107.824 224.478 109.081C224.473 109.209 224.517 109.342 224.603 109.458C224.926 109.886 224.733 110.055 224.023 109.964C224.048 110.044 224.089 110.117 224.143 110.18C224.198 110.243 224.265 110.293 224.341 110.328C224.404 110.357 224.465 110.392 224.52 110.434C224.702 110.612 224.646 110.693 224.353 110.678C224.47 111.459 224.444 112.229 224.275 112.986C224.271 113.007 224.261 113.027 224.247 113.044C224.232 113.061 224.214 113.074 224.192 113.082C224.171 113.091 224.147 113.095 224.123 113.094C224.099 113.092 224.075 113.086 224.053 113.075C223.803 112.947 223.596 112.972 223.431 113.152C223.396 113.192 223.377 113.247 223.379 113.308C223.381 113.368 223.402 113.431 223.441 113.486C224.161 114.528 223.966 115.438 222.855 116.217C222.813 116.82 222.639 116.891 222.333 116.428C221.479 117.1 221.526 117.324 222.473 117.1C222.549 117.083 222.622 117.079 222.684 117.088C222.746 117.098 222.793 117.121 222.82 117.155C222.864 117.21 222.886 117.28 222.888 117.366C223.592 117.65 223.847 118.1 223.653 118.714C223.634 118.774 223.594 118.824 223.54 118.855C223.487 118.885 223.425 118.893 223.367 118.877L222.036 118.502L220.658 120.167C220.569 120.275 220.444 120.342 220.309 120.355C219.785 120.414 219.555 120.603 219.617 120.92C219.889 121.196 219.968 121.492 219.855 121.806C219.836 121.858 219.798 121.904 219.746 121.939C219.693 121.974 219.628 121.998 219.558 122.006C219.294 122.047 219.042 122.14 218.814 122.278C218.598 122.641 218.244 122.919 217.752 123.114C217.259 123.309 216.487 123.727 215.436 124.369C215.08 124.729 214.632 124.898 214.092 124.875L212.445 124.866C211.955 124.865 211.389 124.734 210.748 124.474L206.28 122.672C205.909 122.521 205.344 122.146 204.584 121.547C201.168 118.857 199.828 115.322 200.564 110.941C200.567 110.925 200.579 110.747 200.598 110.408C200.615 110.097 200.753 109.839 201.013 109.633L201.358 109.008C201.34 108.332 201.608 107.808 202.161 107.438C202.148 107.28 202.172 107.121 202.229 106.974C202.287 106.826 202.378 106.694 202.494 106.586C202.65 106.446 202.769 106.268 202.839 106.07C202.909 105.872 202.928 105.659 202.894 105.452C202.777 105.103 202.574 104.978 202.284 105.077C202.246 105.091 202.205 105.125 202.164 105.176C202.123 105.227 202.084 105.293 202.05 105.369L201.441 106.72C201.413 106.778 201.37 106.828 201.313 106.868C201.257 106.908 201.19 106.936 201.117 106.95C200.878 106.996 200.787 106.888 200.845 106.627C201.038 105.787 201.496 105.089 202.22 104.533C202.267 104.496 202.324 104.469 202.389 104.453C202.453 104.437 202.524 104.433 202.597 104.441C203.149 104.5 203.597 104.315 203.941 103.886C204.423 102.976 205.145 102.216 206.03 101.689C208.068 99.6975 210.546 98.7168 213.464 98.747H213.467C213.864 98.6759 214.263 98.6269 214.666 98.6001ZM44.4563 99.6954C44.4562 99.6985 44.4562 99.7017 44.4563 99.7048L44.5719 100.627L44.4531 99.7017C44.4542 99.6996 44.4552 99.6975 44.4563 99.6954ZM152.667 100.727C152.18 100.717 151.693 100.748 151.211 100.819C146.678 101.48 142.737 103.103 139.389 105.686C137.927 106.817 137.123 108.361 136.978 110.316C136.926 111.026 137.106 111.629 137.519 112.125C138.033 112.745 138.689 113.232 139.431 113.544C140.553 114.029 141.716 114.325 142.92 114.43L144.505 114.695C145.051 114.787 145.602 114.737 146.158 114.545C146.479 114.434 147.489 114.462 149.189 114.628C149.249 114.634 149.304 114.66 149.346 114.701C149.389 114.742 149.415 114.796 149.42 114.853C149.589 116.632 149.858 118.397 150.227 120.149C150.331 120.643 150.383 121.305 150.383 122.133C150.379 122.81 150.46 123.48 150.628 124.144C150.64 124.19 150.666 124.241 150.706 124.293C150.746 124.344 150.799 124.396 150.861 124.445L151.298 124.788C151.299 124.883 151.279 124.978 151.24 125.065C151.201 125.152 151.144 125.23 151.072 125.294C150.768 125.664 150.703 126.059 150.877 126.481C150.931 126.607 150.962 126.741 150.967 126.878C150.97 128.212 151.277 129.464 151.886 130.634C151.896 130.655 151.901 130.677 151.901 130.7C151.901 130.723 151.895 130.745 151.885 130.765C151.874 130.784 151.859 130.801 151.841 130.814C151.823 130.827 151.802 130.835 151.78 130.838C149.33 131.071 148.048 131.179 147.936 131.163C147.082 131.023 146.206 131.131 145.411 131.474V131.477L145.219 131.495V131.492C144.499 131.12 143.682 130.977 142.878 131.083C142.205 131.174 141.675 131.182 141.288 131.108C139.899 130.847 138.498 130.654 137.091 130.528C136.955 130.514 136.826 130.464 136.716 130.384C136.052 129.929 135.333 129.846 134.559 130.134L132.467 130.241V130.238C131.389 130.364 130.426 130.743 129.577 131.375C128.952 131.842 128.549 132.151 128.369 132.303C127.972 132.645 127.651 133.066 127.427 133.539C127.092 134.232 126.711 134.902 126.286 135.544C125.85 136.18 125.621 136.936 125.63 137.708C125.632 138.257 125.72 138.982 125.895 139.884C126.084 140.868 126.504 141.758 127.155 142.555C127.17 142.633 127.205 142.702 127.259 142.761V142.764C127.353 143.23 127.617 143.552 128.052 143.73C128.869 144.48 129.773 145.13 130.744 145.667C130.808 145.704 130.877 145.725 130.944 145.726C131.011 145.728 131.071 145.711 131.119 145.677C131.191 145.623 131.249 145.553 131.288 145.472C131.317 145.412 131.355 145.36 131.397 145.323C131.44 145.285 131.487 145.263 131.531 145.258C131.731 145.237 131.773 145.319 131.656 145.505C131.219 146.213 131.35 146.658 132.05 146.839C134.422 147.452 136.827 147.865 139.264 148.078C139.326 148.083 139.385 148.106 139.433 148.145C139.481 148.184 139.515 148.237 139.53 148.295C139.707 148.993 139.555 149.599 139.075 150.111C138.978 150.216 138.921 150.343 138.916 150.467C138.859 152.707 138.905 154.949 139.053 157.184C139.207 159.664 139.701 161.991 140.534 164.167C140.873 165.059 141.397 165.719 142.108 166.147C144.318 167.477 146.615 167.675 148.998 166.741C149.792 166.424 150.284 166.202 150.473 166.074C150.959 165.749 151.259 165.257 151.373 164.6C151.418 164.321 151.543 164.06 151.733 163.85C151.995 163.562 152.155 163.351 152.213 163.217C153.109 161.268 153.403 159.095 153.058 156.977C153.374 154.609 153.284 152.204 152.789 149.867C152.772 149.788 152.745 149.716 152.71 149.657C152.675 149.598 152.633 149.554 152.588 149.528C152.415 149.431 152.297 149.547 152.234 149.875C152.172 150.188 152.018 150.344 151.773 150.344C151.713 150.344 151.654 150.32 151.608 150.276C151.562 150.233 151.532 150.173 151.523 150.108C151.488 149.923 151.506 149.732 151.576 149.557C151.646 149.383 151.764 149.231 151.917 149.122C152.04 149.028 152.121 148.914 152.142 148.805C152.255 148.242 152.003 148.005 151.386 148.094C151.17 148.125 151.039 148.097 150.992 148.011C150.98 147.989 150.976 147.964 150.981 147.938C150.985 147.912 150.997 147.885 151.016 147.86C151.035 147.834 151.061 147.81 151.092 147.79C151.123 147.77 151.157 147.753 151.194 147.742C152.323 147.375 153.477 147.126 154.655 146.995C155.111 146.944 155.671 146.79 156.336 146.531C157.122 146.228 157.97 146.119 158.808 146.214C158.915 146.225 159.542 146.085 160.688 145.795L161.927 145.481C164.3 144.554 166.663 143.599 169.016 142.619C169.36 142.476 169.694 142.309 170.014 142.119C170.334 141.932 170.64 141.724 170.93 141.494L171.853 140.266C172.065 139.986 172.442 139.657 172.986 139.281C173.434 138.972 173.802 138.574 174.091 138.086C175.579 136.507 176.894 134.774 178.013 132.914C178.346 131.671 178.728 130.442 179.159 129.23C179.249 128.978 179.249 128.785 179.159 128.653C179.034 128.476 178.808 128.411 178.48 128.458C178.12 128.51 178.089 128.432 178.386 128.224C178.617 128.061 178.819 128.016 178.992 128.089C179.045 128.112 179.102 128.119 179.152 128.109C179.203 128.098 179.243 128.07 179.266 128.031C179.734 127.181 179.777 126.29 179.394 125.358C179.219 124.925 178.809 124.203 178.164 123.194C177.344 121.901 176.257 121.341 174.902 121.513C174.774 121.53 174.64 121.499 174.523 121.427C174.229 121.234 173.937 121.17 173.648 121.234V121.231C171.157 121.778 168.796 122.984 166.566 124.849C166.334 125.041 166.068 125.187 165.781 125.278C164.295 125.75 162.797 126.414 161.289 127.269C159.436 127.931 157.62 128.696 155.852 129.559C155.829 129.57 155.539 129.782 154.981 130.195C154.629 130.458 154.197 130.531 153.684 130.414C153.274 129.961 153.045 129.372 153.039 128.761V128.758C153.238 128.081 153.105 127.483 152.641 126.966L152.622 125.102C152.491 121.915 152.015 118.753 151.203 115.669C151.157 115.158 150.747 114.759 149.973 114.472C149.814 114.416 149.815 114.365 149.977 114.32C151.284 113.953 152.616 113.602 153.973 113.267C154.884 113.04 156.294 112.255 158.203 110.911C159.578 109.947 160.426 108.549 160.745 106.714C161.016 105.178 160.683 104.005 159.747 103.195C159.292 102.805 158.31 102.313 156.803 101.719C155.909 101.367 154.989 101.089 154.05 100.886H154.047C153.593 100.792 153.131 100.739 152.667 100.727ZM170.93 141.494C170.345 141.953 169.701 142.331 169.016 142.619C166.663 143.599 164.3 144.554 161.927 145.481L160.63 146.406C160.477 146.514 160.346 146.625 160.244 146.732C160.141 146.84 160.071 146.942 160.036 147.031C159.732 147.863 159.877 148.102 160.47 147.75C161.267 147.281 162.096 146.886 162.958 146.563C164.36 146.038 165.211 145.703 165.513 145.558C168.272 144.224 170.895 142.623 173.342 140.777C173.397 140.737 173.439 140.683 173.46 140.624C173.481 140.565 173.481 140.504 173.459 140.452C173.334 140.156 173.109 140.187 172.784 140.544C172.319 141.056 171.701 141.374 170.93 141.494ZM203.272 101.13C203.256 101.179 203.232 101.226 203.202 101.267H203.198C203.23 101.226 203.255 101.179 203.272 101.13ZM50.9516 102H50.9547C51.2985 102.281 51.4948 102.667 51.5438 103.156C51.5677 103.381 51.625 103.541 51.7156 103.636H51.711C51.6224 103.542 51.5667 103.382 51.5438 103.156C51.5288 102.933 51.4684 102.716 51.3663 102.517C51.2642 102.318 51.1225 102.142 50.95 102H50.9516ZM42.8031 102.995L42.7938 103.031L42.7844 103.047L42.7906 103.031L42.8031 102.995ZM42.9922 104.288H43.0266C43.0078 104.288 42.9896 104.289 42.9719 104.292L42.9922 104.288ZM42.3906 104.703L42.3938 104.719V104.722L41.4906 106.047C41.4885 106.052 41.4864 106.057 41.4844 106.063C41.4854 106.057 41.4864 106.052 41.4875 106.047L42.3906 104.719V104.703ZM157.131 105.167H157.134C157.138 105.173 157.142 105.18 157.145 105.186C157.141 105.179 157.137 105.173 157.131 105.167ZM41.3938 106.416C41.4275 106.72 41.3972 107.027 41.3047 107.319C41.211 107.631 41.0547 107.958 40.836 108.299L40.8235 108.317L40.8313 108.299C41.0359 107.997 41.1954 107.667 41.3047 107.319C41.3985 107.005 41.4281 106.704 41.3938 106.416ZM90.575 106.63C90.7883 106.619 91.0017 106.645 91.2063 106.706C92.4938 107.084 93.088 107.691 92.9891 108.525C92.9794 108.618 92.9955 108.711 93.0355 108.795C93.0755 108.879 93.1378 108.95 93.2156 109C93.8594 109.413 94.1224 109.902 94.0047 110.469C93.9245 110.856 94.0224 111.624 94.2985 112.772C94.4163 113.225 94.4402 113.698 94.3687 114.161C94.2972 114.624 94.1319 115.067 93.8828 115.464C93.305 116.438 92.5024 117.259 91.5422 117.859C91.4883 117.893 91.4271 117.916 91.3622 117.926C91.2973 117.936 91.2299 117.933 91.1641 117.917L88.461 117.308C88.3266 117.276 88.2091 117.206 88.125 117.109C86.5417 115.247 86.0167 113.117 86.55 110.719C86.6134 110.342 86.6359 109.96 86.6172 109.578C86.6016 109.076 86.7573 108.703 87.0844 108.458C87.9682 107.78 88.9329 107.215 89.9563 106.775C90.1604 106.69 90.3667 106.641 90.575 106.63ZM199.019 108.247C198.569 109.198 198.337 110.128 198.323 111.036C198.319 111.339 198.34 111.639 198.384 111.936C198.402 112.07 198.38 112.208 198.322 112.333C198.103 112.8 197.995 113.187 197.997 113.495C197.995 113.186 198.104 112.799 198.323 112.333C198.38 112.207 198.401 112.07 198.381 111.936C198.338 111.638 198.319 111.337 198.323 111.036C198.336 110.13 198.567 109.201 199.016 108.25L199.019 108.247ZM150.792 108.663L150.808 108.667C150.798 108.665 150.787 108.665 150.777 108.667C150.783 108.667 150.788 108.661 150.792 108.663ZM150.758 108.674L150.747 108.68V108.677C150.75 108.674 150.755 108.677 150.758 108.674ZM115.731 108.955C115.62 109.006 115.515 109.071 115.419 109.147C115.238 109.293 115.102 109.486 115.025 109.705C115.083 109.537 115.176 109.383 115.297 109.254C115.419 109.124 115.567 109.022 115.731 108.955ZM144.823 109.794C144.84 109.866 144.864 109.936 144.897 110.002C144.93 110.072 144.971 110.138 145.019 110.2C144.95 110.108 144.894 110.006 144.853 109.899L144.823 109.794ZM36.3766 112.263H36.3797V112.272L36.3766 112.263ZM38.9672 112.919L38.9125 113.081L38.9672 113.124L38.9125 113.084L38.8938 113.111L38.9094 113.08C38.9328 113.014 38.9453 112.984 38.9672 112.919ZM38.0672 115.541V115.564C38.062 115.654 37.6875 116.951 36.9438 119.455L36.9313 119.499L36.9406 119.456C37.6844 116.951 38.0589 115.654 38.0641 115.566L38.0672 115.541ZM195.098 116.345C195.005 116.394 194.941 116.552 194.908 116.819C194.9 116.878 194.907 116.942 194.928 117.005C194.949 117.069 194.983 117.131 195.03 117.188C195.139 117.32 195.22 117.45 195.273 117.578C195.328 117.696 195.355 117.824 195.354 117.953C195.353 118.083 195.324 118.21 195.267 118.327C195.203 118.458 195.119 118.579 195.017 118.684C194.969 118.735 194.932 118.794 194.912 118.856C194.892 118.917 194.888 118.98 194.902 119.038C194.921 119.121 194.952 119.2 194.994 119.275H194.991C194.95 119.2 194.92 119.12 194.902 119.038C194.888 118.98 194.891 118.918 194.911 118.856C194.93 118.794 194.966 118.735 195.014 118.684C195.117 118.579 195.202 118.458 195.267 118.327C195.324 118.21 195.353 118.083 195.354 117.953C195.355 117.824 195.328 117.696 195.273 117.578C195.211 117.436 195.128 117.305 195.027 117.188C194.98 117.131 194.946 117.069 194.925 117.005C194.904 116.942 194.897 116.878 194.905 116.819C194.939 116.552 195.005 116.394 195.098 116.345ZM224.566 117.039C224.567 117.039 224.569 117.039 224.57 117.039C224.567 117.041 224.564 117.043 224.561 117.045C224.562 117.043 224.565 117.041 224.566 117.039ZM196.166 118.553C196.22 118.595 196.275 118.661 196.33 118.752C196.36 118.799 196.378 118.858 196.382 118.924C196.377 118.858 196.357 118.798 196.327 118.752C196.284 118.677 196.23 118.61 196.166 118.553ZM196.814 120.28L196.817 120.283C197.066 120.996 197.276 121.713 197.445 122.431C197.961 124.584 198.128 126.806 197.938 129.011L197.609 132.914L197.934 129.008C198.126 126.804 197.96 124.583 197.445 122.431C197.273 121.712 197.064 120.994 196.814 120.28ZM199.895 120.814L202.902 123.705L199.895 120.817V120.814ZM36.7406 121.528L36.7438 121.567C36.7452 121.577 36.7473 121.586 36.75 121.595C36.7463 121.586 36.7432 121.577 36.7406 121.567V121.528ZM177.373 123.366C177.446 123.37 177.514 123.403 177.564 123.456V123.459C177.514 123.405 177.446 123.372 177.374 123.367C177.302 123.362 177.231 123.386 177.178 123.433C177.231 123.385 177.301 123.361 177.373 123.366ZM173.102 123.527C173.394 123.523 173.686 123.541 173.977 123.578C173.781 123.57 173.586 123.554 173.392 123.531C173.014 123.519 172.636 123.541 172.263 123.597C172.079 123.624 171.898 123.66 171.719 123.706C171.542 123.754 171.367 123.811 171.194 123.875C171.539 123.746 171.898 123.652 172.263 123.597C172.54 123.555 172.821 123.531 173.102 123.527ZM110.966 123.774V123.824L110.969 123.839L110.963 123.824L110.966 123.774ZM109.291 124.327L109.294 124.345H109.291C109.288 124.336 109.292 124.334 109.291 124.327ZM176.373 124.606C176.165 124.718 175.976 124.862 175.814 125.034C175.915 124.959 176.009 124.876 176.095 124.784C176.183 124.719 176.276 124.659 176.373 124.606ZM207.384 125.416C208.556 125.868 209.629 126.328 210.602 126.795C210.602 126.796 210.602 126.797 210.602 126.799C209.548 126.295 208.475 125.834 207.384 125.416ZM167.245 125.492C166.684 125.935 166.099 126.346 165.491 126.722C165.689 126.584 165.892 126.453 166.098 126.328C166.755 125.87 167.137 125.591 167.245 125.492ZM171.295 126.381C171.295 126.381 171.295 126.382 171.295 126.381V126.381ZM109.314 126.917C109.315 126.917 109.316 126.917 109.317 126.917C109.316 126.919 109.315 126.921 109.314 126.924C109.314 126.921 109.314 126.919 109.314 126.917ZM170.917 127.472C170.606 127.958 170.349 128.477 170.152 129.019C170.084 129.2 170.024 129.383 169.97 129.569C170.076 129.199 170.208 128.837 170.367 128.486C170.525 128.135 170.709 127.796 170.917 127.472ZM109.073 127.481C109.089 127.663 109.129 127.848 109.192 128.038C109.228 128.144 109.231 128.281 109.202 128.431L109 129.361C108.99 129.407 108.991 129.466 109.005 129.533C108.991 129.466 108.987 129.408 108.997 129.361L109.198 128.434C109.228 128.284 109.225 128.147 109.189 128.041C109.128 127.86 109.089 127.672 109.073 127.481ZM170.206 127.705H170.209L170.191 127.727L170.206 127.705ZM151.738 128.553H151.745L151.728 128.559L151.738 128.553ZM177.975 128.745C177.976 128.747 177.977 128.75 177.978 128.752H177.975C177.975 128.75 177.975 128.747 177.975 128.745ZM164.658 129.484C164.755 129.482 164.85 129.512 164.93 129.569C164.85 129.513 164.755 129.484 164.658 129.488H164.594L164.658 129.484ZM174.366 130.842C174.367 130.844 174.368 130.846 174.369 130.849C174.371 130.85 174.373 130.851 174.375 130.852C174.372 130.852 174.369 130.852 174.366 130.852C174.366 130.849 174.366 130.845 174.366 130.842ZM133.75 131.275C133.708 131.351 133.621 131.409 133.488 131.449C133.62 131.407 133.707 131.348 133.75 131.275ZM133.145 131.575C133.146 131.575 133.147 131.575 133.148 131.575C133.138 131.596 133.133 131.62 133.135 131.644C133.136 131.667 133.143 131.691 133.155 131.711L133.152 131.708C133.14 131.688 133.133 131.665 133.132 131.641C133.131 131.618 133.135 131.596 133.145 131.575ZM149.225 131.608C149.229 131.609 149.233 131.61 149.238 131.611C149.233 131.611 149.229 131.611 149.225 131.611H149.167L149.225 131.608ZM83.0578 131.697C85.1203 131.752 86.9584 132.172 88.5719 132.956C88.9177 132.806 89.2026 132.874 89.4266 133.159C89.4548 133.195 89.4977 133.228 89.5527 133.257C89.6077 133.287 89.6737 133.312 89.7469 133.331L90.275 133.467C90.324 133.479 90.3655 133.517 90.391 133.574C90.4165 133.63 90.4242 133.701 90.4125 133.772C90.2667 134.597 90.5646 135.19 91.3063 135.55C91.8396 136.008 92.3813 136.451 92.9313 136.878C93.1177 137.019 93.2219 137.155 93.2438 137.288C93.2569 137.357 93.2541 137.428 93.2357 137.497C93.2173 137.565 93.1837 137.628 93.1375 137.681C93.1046 137.726 93.0868 137.778 93.0874 137.831C93.0879 137.883 93.1068 137.931 93.1406 137.967C93.4427 138.28 93.5953 138.659 93.5985 139.106C93.6001 139.248 93.6381 139.381 93.7078 139.488C94.2161 140.249 94.5333 141.123 94.6328 142.033C94.7589 142.319 94.9224 142.581 95.1235 142.817C95.1521 142.852 95.1774 142.903 95.1978 142.966C95.2182 143.03 95.2333 143.104 95.2422 143.186L95.5719 145.874C95.6073 146.15 95.5985 146.358 95.5453 146.5C95.208 147.457 94.8475 148.405 94.4641 149.344L93.836 151.059C93.111 153.049 91.8151 154.671 89.9485 155.927C89.7671 156.049 89.6107 156.204 89.4875 156.384C89.1052 156.93 88.6344 157.209 88.075 157.222C87.9405 157.221 87.8073 157.248 87.6844 157.303C86 158.1 84.4151 158.444 82.9297 158.334C82.4391 158.299 82.138 158.475 82.0266 158.863C82.0209 158.885 82.0101 158.907 81.9952 158.925C81.9803 158.943 81.9616 158.957 81.9409 158.966C81.9201 158.975 81.8979 158.978 81.8761 158.977C81.8543 158.975 81.8335 158.967 81.8157 158.955C81.0636 158.482 80.3891 158.311 79.7922 158.442C79.136 158.583 78.5959 158.641 78.1719 158.616C77.8564 158.596 77.5408 158.58 77.225 158.567C76.2446 158.578 75.2841 158.291 74.4703 157.744C74.0397 157.46 73.6161 157.166 73.2 156.861C72.7802 156.525 72.4568 156.084 72.2625 155.583C72.2386 155.525 72.2002 155.474 72.1508 155.434C72.1014 155.395 72.0426 155.368 71.9797 155.356L71.2453 155.222C71.121 155.199 71.0043 155.119 70.9203 155L68.6344 151.703C68.5574 151.594 68.516 151.464 68.516 151.331C68.516 151.198 68.5574 151.069 68.6344 150.963C68.8063 150.725 68.7922 150.534 68.5922 150.391C67.862 150.606 67.5709 150.395 67.7188 149.756C67.7467 149.625 67.743 149.489 67.7078 149.359C67.6521 149.166 67.6372 148.963 67.6641 148.763C67.691 148.564 67.7591 148.372 67.8641 148.2L68.5953 144.541C68.5057 144.179 68.4981 143.802 68.573 143.437C68.6479 143.072 68.8034 142.728 69.0281 142.431L69.4313 141.092C70.2729 138.129 71.9156 135.719 74.3594 133.863C74.625 133.424 75.0026 133.117 75.4922 132.941C76.7964 132.352 78.6052 131.96 80.9188 131.764C81.6573 131.702 82.3703 131.679 83.0578 131.697ZM167.075 131.774C166.882 131.967 166.669 132.142 166.434 132.299V132.295C166.669 132.14 166.882 131.966 167.075 131.774ZM168.613 131.791L170.364 133.314C170.41 133.355 170.466 133.387 170.528 133.405C170.466 133.387 170.411 133.358 170.364 133.317L168.613 131.791ZM176.081 132.38L176.097 132.386C176.097 132.387 176.097 132.388 176.097 132.389L176.081 132.38ZM159.122 132.386C158.966 132.458 158.809 132.533 158.667 132.62C158.823 132.553 158.976 132.474 159.122 132.386ZM171.695 132.584C171.694 132.588 171.693 132.591 171.692 132.594C171.689 132.599 171.686 132.604 171.683 132.609C171.685 132.604 171.687 132.599 171.689 132.594C171.691 132.591 171.693 132.588 171.695 132.584ZM139.642 132.642C139.643 132.642 139.644 132.642 139.645 132.642C139.648 132.647 139.65 132.653 139.652 132.658C139.649 132.653 139.646 132.647 139.642 132.642ZM164.169 132.642C164.014 132.8 163.872 132.971 163.745 133.152C163.5 133.5 163.318 133.888 163.208 134.3C163.153 134.509 163.116 134.722 163.098 134.938C163.15 134.295 163.373 133.678 163.745 133.152C163.87 132.976 164.011 132.805 164.169 132.642ZM137.698 132.741C137.734 132.744 137.769 132.752 137.803 132.764C137.74 132.734 137.668 132.727 137.6 132.742C137.632 132.736 137.666 132.737 137.698 132.741ZM139.664 132.816C139.663 132.822 139.662 132.828 139.661 132.834H139.658C139.66 132.828 139.662 132.822 139.664 132.816ZM168.628 132.957C168.571 132.987 168.523 133.032 168.488 133.086C168.285 133.398 168.139 133.744 168.058 134.108C168.029 134.232 168.009 134.357 167.995 134.483C168.024 134.233 168.079 133.988 168.161 133.75C168.244 133.516 168.354 133.293 168.489 133.084C168.524 133.03 168.571 132.987 168.628 132.957ZM169.528 133.039C169.647 133.075 169.757 133.138 169.85 133.221C169.942 133.305 170.015 133.408 170.063 133.524C169.999 133.371 169.892 133.241 169.755 133.149C169.682 133.106 169.606 133.069 169.528 133.039ZM142.319 133.125C142.419 133.178 142.518 133.219 142.616 133.247C142.804 133.303 143.003 133.307 143.194 133.259C143.096 133.259 142.999 133.27 142.905 133.292C142.807 133.29 142.709 133.275 142.616 133.247C142.513 133.217 142.413 133.175 142.319 133.125ZM154.78 133.325L154.777 133.336C154.453 133.724 154.157 134.134 153.891 134.563C154.023 134.35 154.163 134.141 154.309 133.938C154.456 133.731 154.612 133.531 154.777 133.336H154.773L154.78 133.325ZM136.997 133.344C136.91 133.374 136.827 133.413 136.747 133.458C136.68 133.496 136.616 133.539 136.555 133.586C136.502 133.629 136.454 133.679 136.414 133.734C136.34 133.838 136.3 133.962 136.298 134.089C136.299 133.991 136.322 133.894 136.367 133.807C136.411 133.72 136.476 133.644 136.555 133.586C136.616 133.539 136.68 133.496 136.747 133.458C136.821 133.417 136.904 133.379 136.997 133.344ZM166.306 133.606C166.546 133.603 166.783 133.66 166.994 133.774C166.879 133.744 166.768 133.702 166.663 133.647C166.546 133.62 166.426 133.606 166.306 133.606ZM166.306 133.606C166.18 133.606 166.049 133.622 165.913 133.653C165.703 133.712 165.498 133.785 165.298 133.872C165.134 133.943 164.977 134.031 164.83 134.134C164.961 134.041 165.117 133.953 165.298 133.872C165.479 133.791 165.683 133.718 165.913 133.653C166.042 133.624 166.174 133.608 166.306 133.606ZM136.002 133.716C135.931 133.776 135.846 133.817 135.755 133.836C135.638 133.859 135.518 133.864 135.4 133.849L135.184 133.824C135.266 133.833 135.317 133.834 135.403 133.845C135.52 133.861 135.639 133.858 135.755 133.836C135.845 133.815 135.929 133.773 136.002 133.716ZM149.728 133.728C149.838 133.862 149.963 133.982 150.102 134.086C150.036 134.04 149.975 133.989 149.917 133.933C149.852 133.868 149.789 133.8 149.73 133.73L149.728 133.728ZM131.666 133.734C131.656 133.744 131.644 133.747 131.634 133.756V133.753L131.666 133.734ZM141.913 133.741C141.94 133.738 141.968 133.74 141.995 133.747C141.939 133.734 141.881 133.742 141.831 133.769C141.782 133.797 141.744 133.841 141.727 133.894C141.74 133.853 141.764 133.818 141.797 133.79C141.83 133.763 141.869 133.746 141.913 133.741ZM173.361 133.756L173.37 133.766L173.348 133.759L173.361 133.756ZM132.673 133.759C132.941 133.759 133.202 133.84 133.423 133.991C133.159 133.803 132.832 133.724 132.511 133.767C132.402 133.782 132.289 133.808 132.172 133.845C132.333 133.792 132.503 133.763 132.673 133.759ZM151.6 133.775H151.603L151.597 133.784L151.6 133.775ZM148.75 134.047C148.902 134.074 149.043 134.14 149.161 134.239C149.22 134.289 149.274 134.348 149.322 134.416C149.372 134.489 149.416 134.566 149.453 134.647C149.494 134.734 149.529 134.83 149.558 134.934C149.53 134.836 149.495 134.74 149.453 134.647C149.416 134.566 149.372 134.489 149.322 134.416C149.232 134.287 149.11 134.182 148.969 134.113C148.899 134.081 148.825 134.06 148.75 134.047ZM151.322 134.034C151.152 134.145 150.99 134.268 150.839 134.403C150.387 134.807 150.045 135.318 149.844 135.889H149.842C149.914 135.692 149.999 135.506 150.098 135.331C150.391 134.803 150.812 134.357 151.322 134.034ZM134.692 134.167C134.724 134.158 134.756 134.158 134.786 134.167C134.74 134.152 134.689 134.16 134.642 134.189C134.596 134.219 134.558 134.267 134.536 134.324C134.551 134.285 134.573 134.251 134.6 134.224C134.627 134.196 134.659 134.177 134.692 134.167ZM136.38 134.847C136.392 134.923 136.383 135.001 136.353 135.072C136.383 135.001 136.393 134.922 136.38 134.845V134.847ZM144.15 134.886C144.154 134.888 144.158 134.89 144.163 134.892C144.158 134.891 144.154 134.89 144.15 134.889H144.128L144.15 134.886ZM109.119 135.819C109.168 135.872 109.228 135.914 109.294 135.944H109.291C109.225 135.914 109.168 135.871 109.119 135.819ZM138.175 135.699L138.059 135.786C138.097 135.755 138.135 135.727 138.175 135.699ZM134.922 136.769C134.859 136.848 134.816 136.94 134.797 137.039C134.778 137.139 134.783 137.242 134.813 137.339C134.846 137.457 134.9 137.567 134.97 137.667C135.057 137.801 135.143 137.915 135.23 138.011C135.134 137.903 135.047 137.788 134.967 137.667C134.897 137.567 134.846 137.456 134.813 137.339C134.783 137.242 134.778 137.139 134.797 137.039C134.816 136.94 134.859 136.848 134.922 136.769ZM140.208 136.802L140.195 136.853C140.146 137.068 140.036 137.263 139.878 137.413H139.875C140.033 137.263 140.143 137.068 140.192 136.853L140.208 136.802ZM162.109 137.233C162.078 137.331 162.066 137.435 162.075 137.538C162.084 137.641 162.113 137.741 162.161 137.833C162.067 137.646 162.049 137.433 162.109 137.233ZM211.398 137.186C211.397 137.358 211.337 138.423 211.217 140.381L211.216 140.384C211.336 138.426 211.397 137.36 211.398 137.186ZM110.495 137.428C110.497 137.431 110.499 137.433 110.502 137.436C110.501 137.436 110.499 137.436 110.498 137.436C110.497 137.433 110.496 137.431 110.495 137.428ZM155.12 137.531C154.869 138.268 154.563 138.985 154.205 139.677C154.456 138.94 154.762 138.223 155.12 137.531ZM152.167 137.706C151.682 138.369 151.273 139.084 150.948 139.838C150.797 140.68 150.635 140.715 150.461 139.942C150.545 139.959 150.632 139.959 150.716 139.941C150.801 139.923 150.88 139.888 150.95 139.838C151.277 139.084 151.685 138.371 152.167 137.706ZM134.82 138.236C134.745 138.218 134.667 138.22 134.593 138.242C134.518 138.264 134.451 138.305 134.398 138.361C133.858 138.934 133.35 139.537 132.88 140.169C133.351 139.538 133.859 138.935 134.4 138.363C134.453 138.306 134.52 138.265 134.594 138.243C134.668 138.221 134.747 138.219 134.822 138.238L134.82 138.236ZM142.551 138.472C142.549 138.537 142.559 138.604 142.581 138.67L142.838 139.402V139.411L142.834 139.402L142.581 138.67C142.559 138.604 142.549 138.537 142.551 138.472ZM135.614 138.703C135.634 138.754 135.644 138.808 135.645 138.863C135.644 138.926 135.634 138.988 135.614 139.049C135.634 138.988 135.645 138.925 135.645 138.861C135.644 138.808 135.633 138.753 135.614 138.703ZM148.383 138.939L148.255 139.139C148.301 139.07 148.343 139.005 148.383 138.939ZM145.095 138.955C144.793 139.17 144.533 139.439 144.33 139.75C144.26 139.861 144.163 140.218 144.038 140.824C144.161 140.219 144.258 139.862 144.327 139.75C144.531 139.439 144.791 139.17 145.095 138.955ZM135.886 138.994H135.889C135.847 139.032 135.818 139.083 135.805 139.141C135.817 139.083 135.845 139.032 135.886 138.994ZM144.058 139.064C143.825 139.743 143.515 140.393 143.134 141.002C143.018 141.187 142.875 141.353 142.709 141.495C142.791 141.426 142.868 141.35 142.938 141.269C143.009 141.187 143.075 141.097 143.134 141.002C143.512 140.391 143.822 139.742 144.058 139.064ZM142.044 139.311C142.174 139.313 142.302 139.336 142.425 139.378C142.34 139.352 142.254 139.332 142.166 139.32C142.088 139.311 142.009 139.311 141.931 139.32C141.784 139.342 141.647 139.406 141.534 139.503C141.676 139.38 141.856 139.312 142.044 139.311ZM138.028 140.339C137.996 140.472 137.923 140.59 137.82 140.675H137.817C137.921 140.591 137.995 140.473 138.028 140.339ZM135.505 140.467C135.269 140.674 135.062 140.911 134.888 141.172C134.99 141.057 135.084 140.935 135.169 140.806C135.272 140.688 135.384 140.575 135.505 140.467ZM110.178 141.075C110.123 141.268 110.05 141.391 109.959 141.444C110.05 141.394 110.123 141.271 110.178 141.075ZM130.327 141.88C130.109 141.956 129.882 142.003 129.652 142.02C129.646 142.022 129.641 142.024 129.636 142.027C129.641 142.023 129.646 142.02 129.652 142.017C129.895 141.999 130.121 141.953 130.327 141.88ZM137.086 141.349H137.089L137.025 141.419L137.086 141.349ZM110.653 141.722L111.116 142.05C111.23 142.175 111.334 142.307 111.428 142.447C111.332 142.309 111.226 142.178 111.113 142.055C110.962 141.94 110.808 141.829 110.653 141.722ZM143.347 141.803C143.233 141.871 143.126 141.949 143.027 142.036C143.105 141.964 143.211 141.887 143.347 141.803ZM160.825 142.359L160.8 142.372C160.784 142.377 160.778 142.375 160.764 142.381L160.8 142.369L160.825 142.359ZM146.509 142.411L146.42 142.555C146.452 142.508 146.481 142.46 146.509 142.411ZM149.955 143.519L150.028 144.331V144.364L150.025 144.331L149.955 143.519ZM142.988 143.288C142.802 143.385 142.622 143.492 142.447 143.608C142.614 143.495 142.795 143.389 142.988 143.288ZM132.745 143.461C132.637 143.663 132.502 143.851 132.345 144.019C132.413 143.927 132.485 143.84 132.563 143.756C132.629 143.664 132.69 143.566 132.745 143.461ZM139.523 143.625L139.469 143.711C139.468 143.711 139.467 143.711 139.466 143.711L139.523 143.625ZM135.419 143.683L135.38 143.761C135.291 143.908 135.193 144.048 135.086 144.181L135.07 144.205C135.077 144.197 135.077 144.189 135.083 144.181C135.244 143.967 135.342 143.826 135.377 143.759L135.419 143.683ZM144.903 145.184C144.793 145.591 144.678 145.994 144.559 146.394C144.31 147.22 144.603 147.802 145.438 148.139C145.5 148.165 145.556 148.203 145.603 148.251C145.649 148.3 145.684 148.357 145.706 148.42C146.008 149.247 145.872 149.425 145.297 148.953C144.547 148.342 144.313 148.508 144.594 149.453C144.922 150.568 145.072 151.708 145.044 152.875C145.041 153.005 145.081 153.136 145.159 153.25C145.617 153.918 145.776 154.673 145.636 155.516C145.594 155.776 145.723 156.432 146.023 157.484C146.066 157.633 146.146 157.751 146.247 157.813C146.458 157.944 146.615 157.886 146.716 157.639C146.769 157.48 146.779 157.31 146.744 157.145C146.532 155.846 146.476 154.527 146.577 153.214C146.393 151.328 146.232 149.203 146.094 146.839C146.083 146.632 146.024 146.431 145.922 146.25C145.68 145.816 145.626 145.49 145.758 145.274C146.787 145.186 147.695 145.595 148.483 146.5C148.78 146.838 149.193 146.937 149.722 146.797C149.753 146.789 149.785 146.786 149.816 146.788C149.847 146.79 149.877 146.798 149.903 146.81C149.93 146.822 149.952 146.839 149.97 146.859C149.988 146.879 150 146.903 150.006 146.928C150.029 147.031 150.032 147.137 150.013 147.241C149.98 147.398 149.984 147.539 150.022 147.642C151.018 150.427 151.436 153.274 151.277 156.183C151.137 158.752 151.057 160.121 151.038 160.292C150.873 161.705 150.355 163.054 149.53 164.213C149.07 164.858 148.451 165.321 147.67 165.602C146.961 165.858 146.195 165.915 145.456 165.766C144.464 165.574 143.675 165.093 143.091 164.322C142.609 163.69 142.149 162.771 141.709 161.567C141.343 160.576 141.178 159.522 141.223 158.466C140.942 157.03 140.666 155.593 140.395 154.153L140.58 152.817C140.587 152.764 140.58 152.704 140.558 152.643C140.536 152.582 140.501 152.521 140.455 152.464C140.173 152.119 140.159 151.748 140.411 151.35C140.841 151.167 140.989 150.811 140.855 150.281C140.716 149.732 140.647 149.167 140.647 148.6C140.647 148.017 140.831 147.507 141.198 147.07C142.135 145.954 143.37 145.325 144.903 145.184ZM97.8375 146.452L97.8 146.65C97.8136 146.584 97.8261 146.518 97.8375 146.452ZM157.214 147.114C156.93 147.118 156.648 147.153 156.372 147.22C155.389 147.46 154.389 147.612 153.372 147.675C152.554 147.856 152.348 148.246 152.753 148.844C152.788 148.895 152.837 148.937 152.896 148.966C152.955 148.995 153.021 149.01 153.089 149.009C154.596 149.015 156.084 148.849 157.553 148.511C158.233 148.601 158.799 148.401 159.25 147.911C159.545 147.59 159.475 147.399 159.039 147.336L157.695 147.144C157.536 147.121 157.375 147.112 157.214 147.114ZM151.941 152.052C151.946 152.053 151.951 152.054 151.956 152.055C151.947 152.056 151.937 152.058 151.928 152.061C151.932 152.058 151.936 152.055 151.941 152.052ZM209.158 155.689C208.87 156.9 208.58 158.097 208.267 159.195H208.264C208.577 158.097 208.87 156.9 209.158 155.689ZM139.917 156.119C140.067 156.115 140.247 156.187 140.458 156.336C140.483 156.353 140.505 156.376 140.521 156.402C140.537 156.428 140.547 156.458 140.551 156.488C140.555 156.519 140.553 156.55 140.544 156.579C140.535 156.609 140.52 156.636 140.5 156.659C140.068 157.191 139.748 157.222 139.542 156.753C139.514 156.689 139.5 156.62 139.503 156.552C139.505 156.484 139.523 156.419 139.555 156.363C139.646 156.204 139.767 156.123 139.917 156.119ZM186.486 158.57C186.011 159.131 185.526 159.67 185.031 160.188H185.028C185.524 159.67 186.01 159.131 186.486 158.57ZM79.6875 160.53L79.7281 160.533C79.7141 160.53 79.7016 160.534 79.6875 160.533L79.5813 160.536L79.6875 160.53ZM182.725 162.439C181.255 163.795 179.674 165.026 177.998 166.119C177.124 166.692 176.188 167.259 175.189 167.822V167.819C176.144 167.285 177.08 166.718 177.997 166.12C179.672 165.027 181.255 163.796 182.725 162.439ZM206.273 165.528C206.339 165.789 206.507 166.011 206.778 166.194V166.197C206.532 166.045 206.352 165.806 206.273 165.528ZM205.478 167.081H205.481C205.335 167.268 205.222 167.486 205.142 167.734C205.062 167.984 205.015 168.265 205.002 168.577C205.002 168.583 204.992 168.597 204.992 168.603L204.998 168.577C205.014 168.264 205.062 167.984 205.142 167.734C205.221 167.486 205.333 167.267 205.478 167.081ZM116.327 167.959C117.21 168.369 118.041 168.883 118.802 169.491V169.495C118.042 168.885 117.211 168.369 116.327 167.959ZM180.056 171.111C178.967 171.97 177.811 172.74 176.598 173.414V173.411C177.763 172.77 178.916 172.003 180.056 171.111ZM116.05 168.278C116.285 168.29 116.254 168.533 115.956 169.009C114.43 171.42 113.594 172.913 113.447 173.489C113.208 174.49 112.627 175.377 111.805 175.995C111.641 176.132 111.438 176.212 111.225 176.224C110.759 176.243 110.673 175.968 110.966 175.397C111.466 174.845 111.82 174.213 112.03 173.502C112.505 171.908 113.108 170.363 113.841 168.866C113.945 168.39 114.269 168.224 114.814 168.369C115.112 168.451 115.429 168.442 115.723 168.344C115.827 168.302 115.938 168.281 116.05 168.278ZM204.656 169.672C204.431 170.172 204.1 170.786 203.647 171.533C203.611 171.59 203.592 171.655 203.592 171.719C203.592 171.783 203.611 171.843 203.647 171.891C203.873 172.193 204.197 172.266 204.62 172.109C204.196 172.266 203.871 172.194 203.644 171.894C203.608 171.846 203.589 171.786 203.589 171.721C203.589 171.657 203.608 171.592 203.644 171.534C204.095 170.791 204.432 170.17 204.656 169.672ZM98.061 171.497C98.4547 171.524 98.5068 171.672 98.2172 171.942C97.4336 172.672 96.8866 173.62 96.6469 174.664C96.6021 174.852 96.399 175.075 96.0375 175.333C95.9272 175.408 95.8505 175.522 95.8235 175.65C95.5568 176.876 94.9421 177.998 94.0531 178.883C94.0056 178.93 93.9472 178.964 93.8849 178.979C93.8225 178.995 93.7589 178.992 93.7016 178.97C93.1828 178.781 93.0323 178.374 93.25 177.75C93.4594 177.143 93.8094 176.772 94.3 176.639C94.3251 176.632 94.3485 176.619 94.3684 176.603C94.3882 176.586 94.404 176.566 94.4143 176.544C94.4246 176.522 94.4293 176.498 94.4279 176.475C94.4265 176.452 94.4191 176.43 94.4063 176.411L94.2453 176.156C94.2047 176.096 94.1757 176.033 94.1604 175.97C94.145 175.908 94.1436 175.848 94.1563 175.794C94.3417 174.983 94.6406 174.215 95.0531 173.489C95.5667 172.054 96.5703 171.39 98.061 171.497ZM150.992 173.306C151.787 173.431 152.582 173.554 153.378 173.674C153.526 173.696 153.993 173.705 154.78 173.7C153.993 173.706 153.526 173.699 153.378 173.677C152.582 173.555 151.787 173.431 150.992 173.306ZM202.27 174.045C202.118 174.402 202.018 174.778 201.972 175.163L201.966 175.175L201.969 175.163C202.024 174.743 202.124 174.37 202.27 174.045ZM38.8485 177.1L39.6188 177.834V177.839L38.85 177.103C38.85 177.102 38.8485 177.101 38.8485 177.1ZM74.6563 177.177C74.9323 177.192 74.9813 177.365 74.8031 177.695C74.323 178.338 73.8931 179.018 73.5172 179.727C73.1544 180.431 72.7254 181.1 72.236 181.724C71.3579 182.803 70.5238 183.918 69.736 185.066C69.5349 185.252 69.3896 185.258 69.3 185.083C69.2758 185.032 69.2658 184.97 69.2707 184.902C69.2756 184.834 69.2952 184.763 69.3281 184.692C70.4844 182.18 72.1344 179.727 74.2781 177.333C74.3248 177.281 74.383 177.239 74.4484 177.212C74.5138 177.185 74.5848 177.173 74.6563 177.177ZM164.7 177.827C162.035 178.4 159.331 178.774 156.611 178.944L157.217 179.225C157.28 179.255 157.333 179.294 157.37 179.339C157.407 179.384 157.426 179.431 157.425 179.475C157.416 180.024 157.222 180.616 156.845 181.25C156.492 181.849 156.235 182.712 156.073 183.838H156.07L155.692 185.275C155.675 185.337 155.642 185.393 155.598 185.436C155.554 185.479 155.5 185.507 155.442 185.517L154.022 185.761C153.956 185.772 153.89 185.766 153.831 185.744C153.772 185.722 153.723 185.684 153.689 185.636C153.377 185.184 153.334 184.689 153.561 184.152H153.564C153.632 184.018 153.735 183.906 153.862 183.826C153.989 183.747 154.135 183.703 154.284 183.7C154.306 183.7 154.326 183.694 154.345 183.683C154.363 183.672 154.378 183.657 154.389 183.639C154.4 183.62 154.406 183.6 154.406 183.578C154.407 183.557 154.402 183.536 154.392 183.517C154.187 183.077 154.256 182.582 154.598 182.034C155.069 181.28 155.405 180.448 155.591 179.578C155.658 179.387 155.781 179.221 155.945 179.102C156.108 178.982 156.304 178.915 156.506 178.909L156.611 178.944C159.332 178.776 162.036 178.402 164.7 177.827ZM178.563 179.03C178.651 179.026 178.777 179.08 178.939 179.194C179.07 179.285 179.204 179.333 179.314 179.328L180.095 179.294C180.121 179.293 180.147 179.297 180.171 179.305C180.195 179.314 180.217 179.328 180.235 179.346C180.252 179.363 180.266 179.384 180.273 179.407C180.281 179.429 180.283 179.453 180.28 179.477C180.163 180.107 179.789 180.554 179.156 180.817C179.116 180.834 179.074 180.842 179.03 180.842C178.987 180.841 178.944 180.832 178.905 180.815C178.865 180.797 178.83 180.772 178.801 180.74C178.771 180.708 178.749 180.671 178.734 180.63C178.349 179.575 178.292 179.042 178.563 179.03ZM133.386 180.363L133.488 180.411L133.52 180.436L133.488 180.414L133.386 180.363ZM178.077 180.716C178.108 180.693 178.152 180.694 178.208 180.719C178.246 180.734 178.28 180.767 178.303 180.814C178.326 180.86 178.339 180.917 178.339 180.978C178.339 181.555 178.741 181.791 179.544 181.684C179.587 181.679 179.63 181.684 179.671 181.697C179.712 181.711 179.749 181.734 179.779 181.764C179.81 181.795 179.833 181.831 179.846 181.872C179.86 181.912 179.864 181.955 179.858 181.997C179.6 183.71 179.214 185.4 178.702 187.055C178.467 187.813 178.069 187.758 177.508 186.891C177.322 186.603 177.258 186.255 177.328 185.922C177.409 185.537 177.506 184.98 177.619 184.253C177.461 183.192 177.58 182.108 177.963 181.106C177.99 181.026 178.008 180.944 178.016 180.859C178.023 180.788 178.043 180.74 178.077 180.716ZM136.103 181.666L136.2 181.699C136.169 181.686 136.134 181.68 136.103 181.666ZM149.309 183.469C149.606 183.489 149.716 183.5 150.028 183.52L150.173 183.552C150.125 183.541 150.073 183.536 150.025 183.524C149.583 183.492 149.72 183.497 149.309 183.469ZM152.094 183.897L152.222 183.914V183.917L152.094 183.897ZM196.392 184.388C196.263 184.6 196.11 184.797 195.934 184.974C195.61 185.293 195.328 185.654 195.098 186.047H195.095C195.28 185.714 195.558 185.356 195.931 184.974C196.108 184.797 196.262 184.601 196.392 184.388ZM122.288 185.12C122.605 185.082 122.97 185.13 123.383 185.266C123.408 185.274 123.431 185.288 123.451 185.306C123.47 185.324 123.486 185.346 123.496 185.371C123.506 185.396 123.51 185.422 123.509 185.449C123.508 185.475 123.501 185.501 123.489 185.525C122.721 186.969 122.026 188.451 121.408 189.966C120.578 192.002 119.369 193.665 117.783 194.953C117.337 195.313 117.168 195.211 117.277 194.647C117.435 193.815 117.792 193.29 118.347 193.072C118.373 193.062 118.397 193.047 118.417 193.028C118.437 193.008 118.454 192.986 118.465 192.961C118.476 192.936 118.482 192.91 118.482 192.883C118.483 192.857 118.478 192.831 118.467 192.806L118.233 192.181C118.182 192.056 118.182 191.918 118.233 191.797C119.119 189.67 120.208 187.633 121.484 185.714C121.724 185.353 121.992 185.155 122.288 185.12ZM138.931 186.853C139.23 186.797 139.309 187.01 139.169 187.494C138.909 188.384 138.599 189.26 138.242 190.116C138.156 190.322 137.921 190.976 137.539 192.078C137.309 192.743 136.999 193.377 136.617 193.967C136.172 194.661 135.861 195.101 135.684 195.288C135.284 195.696 134.774 195.981 134.216 196.106C133.724 196.226 133.603 196.066 133.853 195.627C133.941 195.48 134.107 195.337 134.352 195.197C134.409 195.164 134.458 195.12 134.496 195.067C134.533 195.015 134.557 194.955 134.567 194.894C134.819 193.54 135.321 192.244 136.047 191.074C136.273 190.276 136.605 189.527 137.042 188.828C137.298 188.003 137.804 187.393 138.558 186.997C138.676 186.933 138.801 186.885 138.931 186.853ZM169.744 188.08C168.506 188.88 167.234 189.626 165.931 190.317C165.782 190.988 165.589 191.648 165.353 192.294C165.135 192.889 164.974 193.546 164.869 194.266C164.643 195.803 164.092 197.274 163.253 198.581C162.808 199.281 162.447 199.242 162.17 198.463C161.876 197.632 161.958 196.603 162.417 195.374C162.714 194.574 162.968 193.76 163.178 192.933V192.93C163.557 191.837 163.772 191.105 163.822 190.734C163.955 189.761 164.643 189.172 165.884 188.969C165.935 188.961 165.986 188.966 166.033 188.985C166.08 189.004 166.122 189.035 166.155 189.076C166.188 189.117 166.211 189.166 166.221 189.22C166.231 189.273 166.229 189.328 166.214 189.38L165.931 190.317C167.235 189.626 168.504 188.88 169.744 188.08ZM46.9125 188.397C47.1711 188.361 47.4342 188.374 47.6875 188.438C48.3927 188.611 48.7662 188.7 48.8078 188.706V188.709C48.4333 188.624 48.0598 188.535 47.6875 188.441C47.4339 188.38 47.1714 188.365 46.9125 188.397ZM50.6781 189.438C51.0141 189.609 51.375 189.803 51.6 189.869V189.872C51.3735 189.806 51.0156 189.611 50.6781 189.438ZM101.047 190.391C101.128 190.392 101.207 190.413 101.279 190.451C101.351 190.488 101.412 190.543 101.459 190.609C101.506 190.675 101.536 190.751 101.548 190.832C101.56 190.912 101.552 190.994 101.527 191.07C101.278 191.82 100.866 192.505 100.32 193.075C99.5404 193.886 98.9155 194.833 98.4766 195.869C98.4308 195.977 98.4248 196.116 98.4594 196.264C98.599 196.841 98.2662 197.338 97.461 197.755C96.9433 198.025 96.6401 197.87 96.5516 197.291C96.4797 196.822 96.6245 196.182 96.986 195.37C98.013 193.038 98.7266 191.667 99.1266 191.256C99.7068 190.663 100.346 190.374 101.047 190.391ZM161.636 192.681C161.461 192.719 161.291 192.777 161.13 192.853V192.85C161.298 192.773 161.467 192.717 161.636 192.681ZM60.6453 192.963C61.0672 193.159 61.4907 193.345 61.8953 193.58V193.583C61.4891 193.349 61.0672 193.159 60.6453 192.963ZM150.019 196.139C150.813 196.143 150.954 196.636 150.442 197.617H150.445C149.889 198.664 149.259 199.671 148.559 200.628C148.263 201.034 147.92 201.647 147.531 202.466C147.124 203.333 146.531 204.102 145.795 204.716C145.749 204.755 145.692 204.777 145.633 204.777C145.574 204.778 145.518 204.757 145.475 204.719C145.15 204.429 145.065 204.059 145.219 203.608L148.463 196.778C148.518 196.659 148.596 196.554 148.69 196.471C148.783 196.388 148.891 196.329 149.005 196.299C149.335 196.203 149.675 196.149 150.019 196.139ZM80.9031 197.497C81.274 197.44 81.3443 197.706 81.1141 198.297C80.5493 199.787 79.721 201.163 78.6688 202.359C78.5323 202.516 78.3552 202.926 78.1375 203.589C77.9771 203.902 77.6323 204.398 77.1031 205.078C76.2344 206.193 75.8479 205.975 75.9438 204.425C76.9688 202.595 77.6167 201.298 77.8875 200.534C78.3531 199.216 79.2005 198.259 80.4297 197.666C80.5793 197.589 80.7386 197.531 80.9031 197.497ZM183.591 199.1C183.578 199.147 183.58 199.196 183.598 199.241C183.615 199.286 183.647 199.324 183.688 199.35C183.6 199.288 183.568 199.204 183.591 199.1ZM70.7656 200.516C71.4427 200.825 71.9136 201.063 72.1781 201.23C72.5406 201.463 72.8781 201.639 73.2219 201.831C72.8781 201.639 72.5406 201.464 72.1781 201.233C71.7212 200.967 71.2496 200.728 70.7656 200.516ZM60.3703 200.672C62.3485 201.948 64.3849 203.188 66.4797 204.391C64.4114 203.204 62.3742 201.964 60.3703 200.672ZM183.183 200.867C183.182 200.867 183.183 200.867 183.183 200.867V200.867ZM179.733 202.197H179.736C179.178 202.734 178.615 203.341 178.048 204.016C177.927 204.167 177.826 204.33 177.747 204.505H177.744C177.825 204.33 177.927 204.166 178.048 204.016C178.613 203.341 179.174 202.734 179.733 202.197ZM79.4813 203.824C79.7146 203.909 79.9563 203.967 80.2063 203.999C80.899 204.081 81.3729 204.173 81.6281 204.275C81.3729 204.172 80.899 204.081 80.2063 204.002C79.9584 203.971 79.715 203.912 79.4813 203.824ZM142.841 203.928C141.986 204.543 141.151 204.892 140.333 204.975C141.148 204.89 141.984 204.541 142.841 203.928ZM115.669 204.456C116.228 204.497 116.332 204.809 115.98 205.394C115.803 205.694 115.696 206.137 115.659 206.722V206.727C115.551 207.191 115.283 207.603 114.902 207.889C114.789 207.965 114.699 208.069 114.639 208.191C113.878 209.79 112.848 211.246 111.594 212.497C111.578 212.514 111.456 212.67 111.228 212.966C111.024 213.228 110.77 213.286 110.466 213.138C110.387 213.098 110.318 213.043 110.263 212.974C110.208 212.905 110.169 212.825 110.147 212.739C110.125 212.653 110.122 212.563 110.137 212.475C110.153 212.387 110.186 212.303 110.236 212.228L113.464 207.456C113.791 207.094 114.028 206.676 114.173 206.202C114.383 205.538 114.754 204.998 115.286 204.581C115.4 204.492 115.536 204.447 115.669 204.456ZM97.3516 205.164C97.4746 205.156 97.6109 205.19 97.7422 205.264C97.9537 205.381 98.1724 205.467 98.3985 205.524C98.1682 205.468 97.9465 205.382 97.7391 205.267C97.6089 205.194 97.4737 205.159 97.3516 205.167V205.164ZM99.1031 205.602C100.569 205.876 102.041 206.11 103.519 206.305C104.9 206.193 106.291 206.289 107.644 206.589C108.033 206.672 108.472 206.698 108.961 206.666V206.669C108.521 206.705 108.078 206.679 107.645 206.591C106.292 206.292 104.902 206.197 103.52 206.309C102.042 206.114 100.569 205.879 99.1031 205.602ZM87.4547 205.872C87.4797 205.876 87.5042 205.881 87.5281 205.888V205.891L87.4547 205.872ZM154.23 206.513C154.75 206.517 154.781 207.021 154.323 208.027C154.3 208.078 154.261 208.127 154.211 208.17C154.161 208.212 154.1 208.249 154.031 208.277C153.66 208.43 153.542 208.716 153.675 209.134C153.856 209.708 153.717 210.165 153.256 210.505C153.208 210.541 153.173 210.59 153.154 210.646C153.136 210.701 153.135 210.761 153.153 210.816C153.438 211.719 153.196 212.509 152.43 213.186C151.946 213.586 151.382 213.878 150.775 214.041C150.843 212.739 151.157 211.463 151.7 210.278C151.84 209.231 152.177 208.266 152.713 207.383C152.919 207.047 153.197 206.812 153.547 206.675C153.828 206.566 154.056 206.512 154.23 206.513ZM130.253 206.842C130.529 206.811 130.815 206.847 131.109 206.952C131.101 207.127 130.935 207.478 130.613 208.005C129.545 209.75 128.447 211.477 127.32 213.184C127.07 213.557 126.872 213.534 126.725 213.114C126.509 212.515 126.585 211.927 126.953 211.349C127.605 209.838 128.439 208.437 129.453 207.145H129.456C129.711 206.975 129.977 206.874 130.253 206.842ZM131.644 207.134C131.529 207.282 131.428 207.342 131.339 207.313C131.427 207.344 131.528 207.284 131.644 207.134ZM96.4813 207.463C96.8 207.353 96.9854 207.49 97.0375 207.874C97.1438 208.643 96.9354 209.335 96.4125 209.949C95.9156 210.528 95.6 210.965 95.4657 211.261C95.0907 212.092 94.7287 212.929 94.3797 213.77C94.212 214.171 94.0167 214.418 93.7938 214.511C93.4969 214.636 93.1448 214.615 92.7375 214.449C92.688 214.428 92.643 214.399 92.605 214.361C92.567 214.324 92.5368 214.279 92.516 214.23C92.4953 214.181 92.4844 214.128 92.4841 214.075C92.4837 214.021 92.4939 213.968 92.5141 213.919C93.3976 211.727 94.5876 209.671 96.0485 207.813C96.1577 207.658 96.3075 207.538 96.4813 207.463ZM170.786 208.578H170.789C170.532 208.855 170.301 209.155 170.098 209.474C170.097 209.474 170.096 209.474 170.095 209.474C170.298 209.155 170.529 208.855 170.786 208.578ZM164.995 211.747C164.997 211.747 164.998 211.747 165 211.747H164.995ZM77.4719 212.424C77.5292 212.494 77.5985 212.555 77.6766 212.602V212.605C77.5988 212.557 77.5285 212.495 77.4719 212.424ZM112.647 223.87C112.081 223.882 111.518 223.943 110.963 224.052L110.959 224.049C111.522 223.94 112.084 223.881 112.647 223.87Z" fill="white"/>
</svg>
